<svg width="700" height="900" viewBox="0 0 700 900" fill="none" xmlns="http://www.w3.org/2000/svg">
<path d="M275.454 322.447C277.321 321.839 279.181 321.265 281.033 320.726C287.345 318.888 294.632 317.373 302.522 316.18C302.522 316.18 317.647 312.906 330.004 310.98C342.362 309.054 375.904 306.326 375.904 306.326C375.904 306.326 394.361 303.661 399.978 295.252C405.595 286.843 407.2 278.535 399.015 254.969C390.83 231.403 377.662 224.482 377.662 224.482C368.741 220.093 358.556 217.315 347.531 218.147C324.338 219.896 317.556 222.086 305.084 231.932C292.613 241.777 279.611 257.969 275.454 278.535C271.297 299.102 275.454 322.447 275.454 322.447Z" fill="#DC4A39"/>
<path d="M411.732 319.495C414.553 320.307 417.444 321.2 420.39 322.174C420.39 322.174 424.017 305.971 423.235 289.043C423.143 287.049 422.942 285.037 422.64 283.019C420.377 267.897 412.435 252.446 402.011 242.215C395.813 236.131 387.507 229.325 377.662 224.482C377.662 224.482 390.83 231.403 399.015 254.969C407.2 278.535 405.595 286.843 399.978 295.252C394.361 303.661 375.904 306.326 375.904 306.326C375.904 306.326 342.362 309.054 330.004 310.98C317.647 312.906 302.522 316.18 302.522 316.18C337.949 310.825 385.543 311.961 411.732 319.495Z" fill="#98130C"/>
<path d="M423.235 289.043C424.017 305.971 420.39 322.174 420.39 322.174C427.05 324.375 433.989 326.985 441.027 329.979C441.027 329.979 441.759 323.794 441.596 317.69C441.476 313.154 441.624 308.258 439.805 300.966C439.176 298.445 438.312 295.638 437.12 292.461C432.481 280.09 422.64 283.019 422.64 283.019C422.942 285.037 423.143 287.049 423.235 289.043Z" fill="#971611"/>
<path d="M441.596 317.69C441.759 323.794 441.027 329.979 441.027 329.979C445.127 331.723 449.262 333.598 453.393 335.597C453.393 335.597 453.683 321.784 451.688 313.051C449.694 304.318 439.805 300.966 439.805 300.966C441.624 308.258 441.476 313.154 441.596 317.69Z" fill="#98150A"/>
<path d="M189.933 371.815C171.51 390.239 153.355 413.997 141.511 440.755C129.668 467.514 120.233 510.542 123.742 535.106C127.252 559.67 142.999 602.111 163.221 624.591C183.443 647.07 221.561 663.192 247.003 669.333C272.445 675.474 308.194 682.086 346.167 682.077C378.772 682.069 443.981 672.031 482.59 657.53C511.49 639.175 522.452 617.884 527.126 605.732C531.8 593.58 540.468 572.807 543.272 549.438C546.076 526.069 540.935 487.043 535.093 455.729C529.251 424.414 509.153 373.937 469.096 343.839C463.916 340.895 458.656 338.145 453.393 335.597C449.262 333.598 445.127 331.723 441.027 329.979C433.989 326.985 427.05 324.375 420.39 322.174C417.444 321.2 414.553 320.307 411.732 319.495C385.543 311.961 337.949 310.825 302.522 316.18C294.632 317.373 287.345 318.888 281.033 320.726C279.181 321.265 277.321 321.839 275.454 322.447C242.373 333.215 207.372 354.376 189.933 371.815Z" fill="white"/>
<path d="M499.228 650.032C532.127 631.609 564.777 592.13 572.483 559.67C580.188 527.21 574.106 470.407 556.998 440.14C539.891 409.873 539.26 402.911 512.064 375.714C499.853 363.503 484.836 352.781 469.096 343.839C509.153 373.937 529.251 424.414 535.093 455.729C540.935 487.043 546.076 526.069 543.272 549.438C540.468 572.807 531.8 593.58 527.126 605.732C522.452 617.884 511.49 639.175 482.59 657.53C488.944 655.143 494.578 652.636 499.228 650.032Z" fill="#B7AAA5"/>
<path d="M275.454 322.447C277.321 321.839 279.181 321.265 281.033 320.726C315.686 310.637 379.71 310.284 411.732 319.495C414.553 320.307 417.444 321.2 420.39 322.174M275.454 322.447C242.373 333.215 207.372 354.376 189.933 371.815C171.51 390.239 153.355 413.997 141.511 440.755C129.668 467.514 120.233 510.542 123.742 535.106C127.252 559.67 142.999 602.111 163.221 624.591C183.443 647.07 221.561 663.192 247.003 669.333C272.445 675.474 308.194 682.086 346.167 682.077C384.139 682.067 466.329 668.455 499.228 650.032C532.127 631.609 564.777 592.13 572.483 559.67C580.188 527.21 574.106 470.407 556.998 440.14C539.891 409.873 539.26 402.911 512.064 375.714C495.834 359.484 474.647 345.884 453.393 335.597M275.454 322.447C275.454 322.447 271.297 299.102 275.454 278.535C279.611 257.969 292.613 241.777 305.084 231.932C317.556 222.086 324.338 219.896 347.531 218.147C370.723 216.398 390.196 230.619 402.011 242.215C412.435 252.446 420.377 267.897 422.64 283.019M420.39 322.174C420.39 322.174 424.017 305.971 423.235 289.043C423.143 287.049 422.942 285.037 422.64 283.019M420.39 322.174C427.05 324.375 433.989 326.985 441.027 329.979M422.64 283.019C422.64 283.019 432.481 280.09 437.12 292.461C438.312 295.638 439.176 298.445 439.805 300.966M441.027 329.979C441.027 329.979 441.759 323.794 441.596 317.69C441.476 313.154 441.624 308.258 439.805 300.966M441.027 329.979C445.127 331.723 449.262 333.598 453.393 335.597M439.805 300.966C439.805 300.966 449.694 304.318 451.688 313.051C453.683 321.784 453.393 335.597 453.393 335.597" stroke="black" stroke-width="3" stroke-linecap="round"/>
</svg>
