<svg width="700" height="900" viewBox="0 0 700 900" fill="none" xmlns="http://www.w3.org/2000/svg">
<path d="M556.347 397.054L510.87 413.817L473.42 426.388C473.42 426.388 474.425 439.335 477.135 443.637C479.845 447.939 487.07 460.061 498.97 463.802C510.87 467.544 529.004 468.292 536.176 463.802C543.348 459.313 555.902 454.859 559.485 435.068C563.068 415.277 556.347 397.054 556.347 397.054Z" fill="black"/>
<path d="M233.454 479.367C247.2 468.143 248.166 443.637 248.166 443.637L155.906 425.939C155.906 425.939 151.802 460.977 159.492 471.884C167.181 482.791 178.366 490.24 195.352 489.993C212.338 489.745 219.707 490.591 233.454 479.367Z" fill="black"/>
<path d="M112.873 417.558C112.873 417.558 108.942 456.501 115.513 476.305C122.084 496.109 136.004 509.297 150.676 515.884C165.348 522.471 207.455 526.809 224.04 521.87C240.626 516.931 256.464 507.952 267.671 495.081C278.877 482.21 287 451.038 287 451.038L248.166 443.637C248.166 443.637 247.2 468.143 233.454 479.367C219.707 490.591 212.338 489.745 195.352 489.993C178.366 490.24 167.181 482.791 159.492 471.884C151.802 460.977 155.906 425.939 155.906 425.939L112.873 417.558Z" fill="white"/>
<path d="M436.364 440.456C436.364 440.456 445.047 471.775 461.915 483.108C478.782 494.441 488.906 499.971 514.809 501.517C540.712 503.062 560.677 492.428 576.07 480.115C591.464 467.802 595.047 455.721 596.896 437.798C598.746 419.875 592.208 383.136 592.208 383.136L556.347 397.054C556.347 397.054 563.068 415.277 559.485 435.068C555.902 454.859 543.348 459.313 536.176 463.802C529.004 468.292 510.87 467.544 498.97 463.802C487.07 460.061 479.845 447.939 477.135 443.637C474.425 439.335 473.42 426.388 473.42 426.388L436.364 440.456Z" fill="white"/>
<path d="M93.2882 412.195C92.4752 412.035 91.6871 412.565 91.528 413.378C91.3688 414.191 91.8988 414.979 92.7118 415.139L93.2882 412.195ZM303.983 433.34C303.937 432.512 303.23 431.879 302.403 431.924C301.576 431.969 300.942 432.677 300.987 433.504L303.983 433.34ZM287 451.038L287.33 449.575L287.306 449.569L287.281 449.565L287 451.038ZM421.284 423.119C421.297 422.291 420.637 421.609 419.808 421.595C418.98 421.582 418.298 422.243 418.285 423.071L421.284 423.119ZM510.87 413.817L511.348 415.239L511.369 415.232L511.389 415.225L510.87 413.817ZM607.575 378.386C608.34 378.068 608.703 377.191 608.386 376.425C608.068 375.66 607.19 375.297 606.425 375.615L607.575 378.386ZM473.42 426.388L472.943 424.966L472.915 424.975L472.887 424.985L473.42 426.388ZM302.083 453.702C302.525 453.427 302.801 453.03 302.974 452.715C303.156 452.385 303.293 452.015 303.401 451.65C303.617 450.918 303.768 450.02 303.879 449.063C304.102 447.136 304.184 444.738 304.199 442.429C304.213 440.111 304.159 437.84 304.102 436.151C304.073 435.306 304.043 434.605 304.021 434.114C304.01 433.869 304 433.676 303.994 433.544C303.99 433.479 303.988 433.428 303.986 433.393C303.985 433.376 303.984 433.363 303.984 433.354C303.983 433.349 303.983 433.346 303.983 433.343C303.983 433.342 303.983 433.341 303.983 433.341C303.983 433.34 303.983 433.34 303.983 433.34C303.983 433.34 303.983 433.34 302.485 433.422C300.987 433.504 300.987 433.504 300.987 433.504C300.987 433.504 300.987 433.504 300.987 433.504C300.987 433.505 300.987 433.505 300.987 433.506C300.988 433.508 300.988 433.511 300.988 433.515C300.988 433.523 300.989 433.535 300.99 433.551C300.992 433.584 300.994 433.632 300.997 433.696C301.004 433.824 301.013 434.012 301.024 434.252C301.046 434.732 301.075 435.421 301.103 436.253C301.16 437.918 301.213 440.146 301.199 442.411C301.185 444.685 301.103 446.955 300.899 448.718C300.797 449.605 300.669 450.308 300.524 450.8C300.451 451.046 300.387 451.195 300.345 451.27C300.295 451.362 300.325 451.262 300.497 451.155L302.083 453.702ZM92.7118 415.139L112.585 419.03L113.161 416.086L93.2882 412.195L92.7118 415.139ZM112.873 417.558C111.38 417.407 111.38 417.407 111.38 417.408C111.38 417.408 111.38 417.409 111.38 417.41C111.38 417.411 111.38 417.413 111.38 417.416C111.379 417.421 111.378 417.428 111.377 417.438C111.375 417.458 111.373 417.487 111.369 417.525C111.361 417.601 111.351 417.713 111.337 417.86C111.309 418.154 111.27 418.586 111.222 419.142C111.127 420.253 110.998 421.861 110.865 423.852C110.598 427.831 110.31 433.346 110.229 439.485C110.068 451.699 110.717 466.613 114.09 476.778L116.937 475.833C113.739 466.193 113.068 451.733 113.229 439.525C113.309 433.453 113.594 427.994 113.858 424.053C113.99 422.083 114.117 420.493 114.211 419.398C114.258 418.85 114.297 418.426 114.324 418.14C114.337 417.997 114.348 417.888 114.355 417.815C114.358 417.779 114.361 417.752 114.363 417.734C114.364 417.725 114.364 417.719 114.365 417.714C114.365 417.712 114.365 417.71 114.365 417.71C114.365 417.709 114.365 417.709 114.365 417.709C114.365 417.708 114.365 417.708 112.873 417.558ZM114.09 476.778C120.803 497.011 135.035 510.506 150.061 517.252L151.29 514.515C136.972 508.087 123.365 495.208 116.937 475.833L114.09 476.778ZM150.061 517.252C157.638 520.654 172.044 523.4 186.507 524.693C200.957 525.985 215.88 525.865 224.468 523.308L223.612 520.433C215.615 522.814 201.191 522.994 186.774 521.705C172.369 520.417 158.385 517.701 151.29 514.515L150.061 517.252ZM224.468 523.308C241.263 518.307 257.369 509.197 268.802 496.066L266.539 494.096C255.559 506.707 239.989 515.556 223.612 520.433L224.468 523.308ZM287 451.038C286.67 452.501 286.67 452.501 286.67 452.501C286.67 452.501 286.671 452.501 286.671 452.502C286.671 452.502 286.672 452.502 286.673 452.502C286.675 452.502 286.677 452.503 286.68 452.504C286.687 452.505 286.696 452.507 286.708 452.51C286.732 452.515 286.768 452.523 286.814 452.533C286.905 452.554 287.039 452.583 287.21 452.62C287.551 452.693 288.04 452.796 288.633 452.915C289.817 453.153 291.423 453.458 293.102 453.72C294.774 453.982 296.554 454.207 298.074 454.278C298.833 454.313 299.564 454.312 300.204 454.248C300.795 454.188 301.509 454.059 302.083 453.702L300.497 451.155C300.53 451.134 300.391 451.214 299.905 451.263C299.467 451.307 298.897 451.313 298.214 451.281C296.853 451.217 295.195 451.011 293.565 450.756C291.943 450.503 290.382 450.207 289.225 449.974C288.647 449.858 288.171 449.758 287.841 449.687C287.676 449.651 287.547 449.623 287.46 449.604C287.417 449.594 287.384 449.587 287.362 449.582C287.351 449.58 287.343 449.578 287.338 449.577C287.335 449.576 287.333 449.576 287.332 449.575C287.331 449.575 287.331 449.575 287.331 449.575C287.33 449.575 287.33 449.575 287.33 449.575C287.33 449.575 287.33 449.575 287 451.038ZM268.802 496.066C274.605 489.401 279.514 478.151 282.947 468.747C284.675 464.012 286.05 459.684 286.993 456.541C287.464 454.968 287.828 453.691 288.074 452.805C288.198 452.361 288.291 452.016 288.355 451.781C288.386 451.663 288.41 451.573 288.427 451.512C288.435 451.481 288.441 451.458 288.445 451.442C288.447 451.434 288.449 451.428 288.45 451.423C288.45 451.421 288.451 451.42 288.451 451.418C288.451 451.418 288.451 451.417 288.452 451.417C288.452 451.417 288.452 451.416 287 451.038C285.549 450.66 285.549 450.66 285.549 450.66C285.549 450.66 285.549 450.66 285.548 450.661C285.548 450.661 285.548 450.663 285.548 450.664C285.547 450.668 285.545 450.673 285.543 450.68C285.54 450.694 285.534 450.715 285.526 450.744C285.511 450.802 285.488 450.888 285.458 451.002C285.396 451.229 285.305 451.566 285.184 452.001C284.942 452.87 284.584 454.128 284.119 455.679C283.188 458.782 281.832 463.052 280.129 467.719C276.698 477.119 271.943 487.891 266.539 494.096L268.802 496.066ZM247.885 445.11L286.719 452.512L287.281 449.565L248.447 442.163L247.885 445.11ZM248.166 443.637C246.667 443.578 246.667 443.577 246.667 443.577C246.667 443.577 246.667 443.577 246.667 443.577C246.667 443.577 246.667 443.578 246.667 443.579C246.667 443.581 246.667 443.584 246.667 443.589C246.666 443.599 246.666 443.614 246.665 443.635C246.662 443.678 246.659 443.743 246.654 443.829C246.644 444.002 246.628 444.261 246.602 444.597C246.55 445.268 246.461 446.246 246.312 447.457C246.012 449.882 245.473 453.229 244.513 456.915C242.58 464.342 239.006 472.897 232.505 478.205L234.402 480.529C241.648 474.613 245.43 465.302 247.416 457.671C248.417 453.827 248.978 450.346 249.289 447.825C249.445 446.563 249.538 445.539 249.593 444.827C249.621 444.47 249.638 444.192 249.649 444C249.655 443.905 249.659 443.831 249.661 443.779C249.662 443.754 249.663 443.734 249.664 443.72C249.664 443.713 249.664 443.708 249.664 443.703C249.665 443.701 249.665 443.7 249.665 443.699C249.665 443.698 249.665 443.697 249.665 443.697C249.665 443.696 249.665 443.696 248.166 443.637ZM232.505 478.205C225.763 483.711 220.695 486.17 215.302 487.33C209.806 488.512 203.927 488.368 195.33 488.493L195.374 491.493C203.763 491.37 210.062 491.525 215.933 490.263C221.908 488.978 227.398 486.248 234.402 480.529L232.505 478.205ZM195.33 488.493C178.898 488.732 168.157 481.573 160.718 471.02L158.266 472.748C166.205 484.01 177.834 491.748 195.374 491.493L195.33 488.493ZM112.586 419.03L155.619 427.411L156.192 424.466L113.16 416.085L112.586 419.03ZM155.623 427.412L247.883 445.11L248.449 442.164L156.188 424.466L155.623 427.412ZM160.718 471.02C159.008 468.594 157.861 464.655 157.172 459.889C156.49 455.173 156.283 449.854 156.315 444.831C156.347 439.814 156.617 435.13 156.88 431.698C157.011 429.983 157.141 428.583 157.237 427.614C157.285 427.129 157.325 426.752 157.353 426.497C157.366 426.369 157.377 426.273 157.385 426.208C157.388 426.176 157.391 426.151 157.393 426.136C157.394 426.128 157.394 426.122 157.395 426.118C157.395 426.116 157.395 426.115 157.395 426.114C157.395 426.114 157.395 426.113 157.395 426.113C157.395 426.113 157.395 426.113 155.906 425.939C154.416 425.764 154.416 425.765 154.416 425.765C154.416 425.765 154.416 425.766 154.415 425.767C154.415 425.768 154.415 425.77 154.415 425.772C154.414 425.777 154.413 425.784 154.412 425.793C154.41 425.81 154.407 425.837 154.403 425.871C154.396 425.94 154.384 426.041 154.37 426.173C154.341 426.436 154.301 426.823 154.252 427.317C154.153 428.306 154.022 429.729 153.889 431.469C153.623 434.948 153.348 439.705 153.315 444.811C153.282 449.911 153.491 455.396 154.203 460.318C154.907 465.189 156.131 469.72 158.266 472.748L160.718 471.02ZM419.784 423.095C418.285 423.071 418.285 423.071 418.285 423.072C418.285 423.072 418.285 423.072 418.284 423.072C418.284 423.073 418.284 423.074 418.284 423.075C418.284 423.078 418.284 423.081 418.284 423.086C418.284 423.095 418.284 423.109 418.284 423.128C418.283 423.164 418.282 423.218 418.282 423.287C418.28 423.427 418.277 423.632 418.275 423.892C418.27 424.413 418.266 425.158 418.266 426.058C418.265 427.855 418.284 430.274 418.359 432.752C418.434 435.223 418.565 437.783 418.795 439.851C418.91 440.882 419.053 441.829 419.237 442.598C419.328 442.982 419.438 443.354 419.574 443.685C419.699 443.991 419.896 444.387 420.221 444.706L422.325 442.567C422.426 442.667 422.416 442.71 422.349 442.547C422.293 442.41 422.226 442.199 422.155 441.901C422.013 441.306 421.886 440.498 421.777 439.52C421.56 437.572 421.432 435.106 421.358 432.662C421.284 430.224 421.265 427.837 421.266 426.058C421.266 425.169 421.27 424.433 421.275 423.919C421.277 423.663 421.28 423.462 421.281 423.326C421.282 423.257 421.283 423.205 421.283 423.171C421.284 423.153 421.284 423.14 421.284 423.131C421.284 423.127 421.284 423.124 421.284 423.122C421.284 423.121 421.284 423.12 421.284 423.12C421.284 423.119 421.284 423.119 421.284 423.119C421.284 423.119 421.284 423.119 419.784 423.095ZM420.221 444.706C420.855 445.33 421.742 445.465 422.342 445.502C423.023 445.544 423.804 445.48 424.599 445.366C426.198 445.136 428.105 444.661 429.901 444.147C431.708 443.631 433.453 443.06 434.742 442.619C435.388 442.399 435.922 442.21 436.295 442.076C436.482 442.01 436.628 441.956 436.729 441.92C436.779 441.901 436.818 441.887 436.844 441.877C436.857 441.872 436.868 441.869 436.875 441.866C436.878 441.865 436.881 441.864 436.883 441.863C436.884 441.863 436.884 441.862 436.885 441.862C436.885 441.862 436.886 441.862 436.886 441.862C436.886 441.862 436.886 441.862 436.364 440.456C435.842 439.049 435.842 439.049 435.842 439.049C435.842 439.049 435.842 439.049 435.842 439.049C435.842 439.05 435.841 439.05 435.841 439.05C435.839 439.05 435.837 439.051 435.834 439.052C435.828 439.054 435.819 439.058 435.807 439.062C435.783 439.071 435.747 439.084 435.7 439.102C435.604 439.136 435.464 439.188 435.283 439.252C434.922 439.382 434.402 439.565 433.773 439.78C432.512 440.211 430.818 440.765 429.076 441.263C427.323 441.765 425.569 442.195 424.171 442.397C423.467 442.498 422.915 442.532 422.527 442.508C422.057 442.478 422.137 442.383 422.325 442.567L420.221 444.706ZM436.364 440.456C434.919 440.856 434.919 440.857 434.919 440.857C434.919 440.858 434.919 440.858 434.919 440.859C434.92 440.86 434.92 440.862 434.921 440.864C434.922 440.869 434.924 440.875 434.926 440.884C434.931 440.9 434.938 440.925 434.947 440.956C434.965 441.019 434.991 441.111 435.026 441.23C435.095 441.469 435.199 441.818 435.336 442.265C435.611 443.158 436.022 444.442 436.567 446.017C437.656 449.165 439.287 453.482 441.453 458.162C445.752 467.453 452.282 478.444 461.078 484.354L462.751 481.863C454.679 476.44 448.434 466.105 444.175 456.902C442.062 452.335 440.467 448.115 439.402 445.036C438.869 443.497 438.47 442.246 438.204 441.382C438.071 440.95 437.971 440.616 437.906 440.39C437.873 440.277 437.848 440.192 437.832 440.136C437.824 440.107 437.818 440.086 437.815 440.073C437.813 440.066 437.811 440.061 437.81 440.058C437.81 440.057 437.81 440.056 437.81 440.055C437.81 440.055 437.81 440.055 437.809 440.055C437.81 440.055 437.81 440.055 436.364 440.456ZM461.078 484.354C469.521 490.026 476.391 494.327 484.441 497.385C492.504 500.448 501.672 502.236 514.719 503.014L514.898 500.019C502.043 499.252 493.197 497.502 485.506 494.581C477.802 491.654 471.176 487.524 462.751 481.863L461.078 484.354ZM514.719 503.014C541.126 504.589 561.448 493.732 577.007 481.287L575.133 478.944C559.906 491.124 540.298 501.534 514.898 500.019L514.719 503.014ZM577.007 481.287C584.859 475.006 589.767 468.725 592.931 461.674C596.081 454.653 597.459 446.961 598.388 437.952L595.404 437.644C594.484 446.558 593.145 453.868 590.194 460.446C587.255 466.995 582.675 472.911 575.133 478.944L577.007 481.287ZM592.782 384.522L607.575 378.386L606.425 375.615L591.633 381.751L592.782 384.522ZM598.388 437.952C599.333 428.801 598.137 414.98 596.734 403.563C596.03 397.83 595.268 392.66 594.682 388.924C594.389 387.056 594.14 385.545 593.964 384.501C593.876 383.978 593.806 383.572 593.758 383.297C593.735 383.159 593.716 383.054 593.704 382.982C593.697 382.947 593.693 382.92 593.689 382.902C593.688 382.892 593.687 382.886 593.686 382.881C593.685 382.878 593.685 382.877 593.685 382.875C593.685 382.875 593.685 382.874 593.684 382.874C593.684 382.874 593.684 382.873 592.208 383.136C590.731 383.399 590.731 383.399 590.731 383.399C590.731 383.399 590.731 383.4 590.731 383.4C590.731 383.401 590.731 383.403 590.732 383.405C590.733 383.409 590.734 383.416 590.735 383.424C590.738 383.441 590.743 383.467 590.749 383.502C590.761 383.571 590.779 383.674 590.803 383.81C590.85 384.081 590.919 384.482 591.006 384.999C591.18 386.034 591.427 387.533 591.718 389.389C592.301 393.102 593.058 398.237 593.757 403.929C595.161 415.362 596.31 428.872 595.404 437.644L598.388 437.952ZM511.389 415.225L556.866 398.462L555.828 395.647L510.352 412.41L511.389 415.225ZM556.89 398.453L592.75 384.535L591.665 381.738L555.804 395.656L556.89 398.453ZM556.347 397.054C554.94 397.574 554.94 397.573 554.94 397.573C554.94 397.573 554.94 397.573 554.94 397.573C554.94 397.573 554.94 397.573 554.94 397.574C554.94 397.575 554.941 397.578 554.943 397.581C554.945 397.588 554.949 397.599 554.955 397.615C554.966 397.646 554.983 397.694 555.006 397.759C555.051 397.889 555.119 398.086 555.204 398.345C555.375 398.864 555.617 399.634 555.899 400.621C556.461 402.597 557.176 405.443 557.782 408.898C558.996 415.821 559.759 425.135 558.009 434.801L560.961 435.335C562.794 425.209 561.988 415.517 560.737 408.38C560.111 404.807 559.37 401.859 558.784 399.8C558.491 398.771 558.236 397.962 558.054 397.407C557.962 397.13 557.889 396.916 557.838 396.769C557.812 396.696 557.792 396.639 557.778 396.6C557.771 396.581 557.765 396.565 557.761 396.555C557.76 396.549 557.758 396.545 557.757 396.542C557.756 396.54 557.756 396.539 557.755 396.538C557.755 396.537 557.755 396.537 557.755 396.536C557.755 396.536 557.754 396.535 556.347 397.054ZM558.009 434.801C556.275 444.377 552.401 450.145 548.158 454.072C543.811 458.095 539.176 460.154 535.38 462.531L536.972 465.074C540.347 462.961 545.576 460.549 550.195 456.274C554.917 451.904 559.112 445.55 560.961 435.335L558.009 434.801ZM535.38 462.531C533.819 463.508 531.554 464.258 528.753 464.745C525.972 465.228 522.757 465.435 519.366 465.389C512.576 465.297 505.214 464.193 499.42 462.371L498.521 465.233C504.627 467.153 512.282 468.294 519.326 468.389C522.852 468.437 526.259 468.223 529.267 467.701C532.255 467.182 534.947 466.341 536.972 465.074L535.38 462.531ZM499.42 462.371C493.823 460.612 489.258 456.855 485.721 452.926C482.189 449.001 479.77 445.006 478.404 442.837L475.866 444.436C477.209 446.569 479.759 450.786 483.491 454.933C487.22 459.076 492.217 463.252 498.521 465.233L499.42 462.371ZM436.896 441.858L473.952 427.79L472.887 424.985L435.832 439.053L436.896 441.858ZM473.897 427.81L511.348 415.239L510.393 412.395L472.943 424.966L473.897 427.81ZM478.404 442.837C477.854 441.964 477.329 440.533 476.862 438.748C476.404 436.996 476.034 435.028 475.743 433.167C475.453 431.311 475.246 429.583 475.111 428.319C475.043 427.687 474.994 427.173 474.962 426.817C474.946 426.64 474.934 426.502 474.927 426.409C474.923 426.363 474.92 426.328 474.918 426.304C474.917 426.293 474.916 426.284 474.916 426.279C474.916 426.276 474.916 426.274 474.915 426.273C474.915 426.272 474.915 426.272 474.915 426.272C474.915 426.272 474.915 426.271 474.915 426.271C474.915 426.271 474.915 426.272 473.42 426.388C471.924 426.504 471.924 426.504 471.924 426.504C471.924 426.504 471.924 426.505 471.924 426.505C471.924 426.505 471.925 426.506 471.925 426.507C471.925 426.509 471.925 426.512 471.925 426.515C471.926 426.522 471.927 426.532 471.928 426.545C471.93 426.571 471.933 426.61 471.937 426.659C471.945 426.758 471.958 426.903 471.974 427.087C472.008 427.457 472.058 427.987 472.128 428.637C472.266 429.934 472.479 431.713 472.779 433.631C473.078 435.545 473.467 437.62 473.96 439.506C474.444 441.358 475.061 443.159 475.866 444.436L478.404 442.837Z" fill="black"/>
</svg>
