<svg width="701" height="900" viewBox="0 0 701 900" fill="none" xmlns="http://www.w3.org/2000/svg">
<path d="M488.162 412.277C493.069 406.613 524.265 397.74 535.913 412.277C547.561 426.814 539.979 436.281 533.92 442.464C527.861 448.646 516.697 449.259 516.697 449.259M516.697 449.259H488.162M516.697 449.259C516.697 449.259 531.683 453.477 535.913 464.683C540.142 475.888 537.382 484.583 533.92 488.833C530.459 493.084 527.575 493.663 518.732 495.402C509.888 497.141 493.516 495.402 482.787 485.684M165.294 412.277C174.825 405.386 201.397 397.74 213.044 412.277C224.692 426.814 217.111 436.281 211.052 442.464C204.993 448.646 193.828 449.259 193.828 449.259M193.828 449.259H165.294M193.828 449.259C193.828 449.259 208.815 453.477 213.044 464.682C217.274 475.888 214.513 484.583 211.052 488.833C207.59 493.084 204.707 493.663 195.863 495.402C187.02 497.141 171.66 495.402 159 485.966" stroke="black" stroke-width="15" stroke-linecap="round"/>
</svg>
