<svg width="701" height="901" viewBox="0 0 701 901" fill="none" xmlns="http://www.w3.org/2000/svg">
<path d="M358.265 606.457C353.652 607.05 350.777 609.433 351.357 611.57C351.936 613.707 354.142 614.063 358.265 614.063C362.388 614.063 368.787 614.275 369.276 614.275C369.667 614.275 382.184 614.444 385.527 614.063C388.869 613.682 393.215 612.052 392.843 609.643C392.472 607.235 386.084 605.79 380.438 605.568C374.793 605.346 374.154 605.526 367.016 605.753C367.016 605.753 362.878 605.864 358.265 606.457Z" fill="#482B1D"/>
<path d="M430.428 582.888L411.77 592.194C411.77 592.194 416.8 602.425 418.662 610.118C420.524 617.812 420.55 627.202 418.662 637.801C418.28 639.949 417.867 641.849 417.453 643.514C417.453 643.514 428.817 642.451 436.937 640.126C445.057 637.801 451.584 634.933 451.584 634.933C451.794 634.038 451.986 633.084 452.163 632.065C453.788 622.713 452.163 610.867 447.413 601.889C442.663 592.91 430.428 582.888 430.428 582.888Z" fill="#E7B842"/>
<path fill-rule="evenodd" clip-rule="evenodd" d="M411.77 592.194C411.77 592.194 375.105 595.248 360.66 595.903C346.216 596.559 333.285 599.27 320.284 601.14C307.284 603.011 287.158 604.258 287.158 604.258C286.324 614.865 285.401 618.17 285.158 632.19C284.915 646.209 291.127 653.821 299.534 658.126L329.637 657.483C329.637 657.483 354.69 658.149 358.72 654.425C362.749 650.701 363.36 642.358 367.502 640.456C371.645 638.555 381.772 638.325 387.057 639.63C392.342 640.935 391.365 652.854 394.763 654.425C398.16 655.995 410.581 656.684 410.581 656.684C412.999 654.654 414.167 652.96 414.167 652.96C414.167 652.96 415.824 650.061 417.453 643.514C417.867 641.849 418.28 639.949 418.662 637.801C420.55 627.202 420.524 617.812 418.662 610.118C416.8 602.425 411.77 592.194 411.77 592.194ZM352.508 629.095C352.322 627.242 357.411 624.723 360.196 623.759C362.982 622.796 366.139 622.314 370.744 621.907C375.35 621.499 381.515 621.601 385.229 621.865C388.944 622.129 398.712 622.426 398.823 626.649C398.935 630.873 384.338 631.466 384.338 631.466C384.338 631.466 366.065 632.392 361.868 632.17C357.671 631.947 352.694 630.947 352.508 629.095ZM351.357 611.57C350.777 609.433 353.652 607.05 358.265 606.457C362.878 605.864 367.016 605.753 367.016 605.753C374.154 605.526 374.793 605.346 380.438 605.568C386.084 605.79 392.472 607.235 392.843 609.643C393.215 612.052 388.869 613.682 385.527 614.063C382.184 614.444 369.667 614.275 369.276 614.275C368.787 614.275 362.388 614.063 358.265 614.063C354.142 614.063 351.936 613.707 351.357 611.57Z" fill="#E7B842"/>
<path d="M299.534 658.126C307.941 662.432 341.66 665.234 364.911 664.985C388.161 664.735 397.787 663.738 404.412 660.62C406.991 659.407 409.04 657.977 410.581 656.684C410.581 656.684 398.16 655.995 394.763 654.425C391.365 652.854 392.342 640.935 387.057 639.63C381.772 638.325 371.645 638.555 367.502 640.456C363.36 642.358 362.749 650.701 358.72 654.425C354.69 658.149 329.637 657.483 329.637 657.483L299.534 658.126Z" fill="white"/>
<path d="M414.167 652.96C414.167 652.96 434.163 653.263 440.913 649.273C446.928 645.717 449.866 642.261 451.584 634.933C451.584 634.933 445.057 637.801 436.937 640.126C428.817 642.451 417.453 643.514 417.453 643.514C415.824 650.061 414.167 652.96 414.167 652.96Z" fill="white"/>
<path d="M382.474 300.032C355.48 296.121 231.907 286.159 231.907 286.159C230.385 291.633 221.79 298.655 214.406 307.606C204.803 319.247 196.067 332.379 190.28 342.77C184.494 353.162 171.405 374.443 167.031 395.642C162.658 416.84 168.031 429.808 168.031 429.808C168.031 429.808 169.756 424.825 178.018 417.964C186.28 411.104 193.155 408.859 208.906 407.862C224.656 406.864 238.04 412.824 245.907 417.964C253.774 423.104 283.901 443.29 283.901 443.29L302.56 462.998C302.56 462.998 317.88 482.529 324.866 485.696C331.853 488.864 395.191 487.973 402.989 487.633C410.787 487.293 418.675 486.498 418.675 486.498C418.675 486.498 446.067 483.948 456.74 482.378C467.414 480.809 486.405 475.662 486.405 475.662L508.965 461.505C508.965 461.505 492.165 462.128 487.354 459.112C482.544 456.095 482.914 445.395 482.789 437.539C482.664 429.684 483.854 414.346 488.164 408.111C492.475 401.876 503.79 391.651 503.79 391.651L518.596 381.002C518.596 381.002 521.291 378.059 523.166 370.827C525.041 363.595 523.791 348.132 521.04 335.787C518.29 323.443 502.347 301.835 502.347 301.835L479.454 276.222C479.454 276.222 471.58 301.799 455.909 307.866C440.237 313.933 409.468 303.942 382.474 300.032Z" fill="white"/>
<path d="M227.156 258.725C219.675 261.012 231.907 286.159 231.907 286.159C231.907 286.159 355.48 296.121 382.474 300.032C409.468 303.942 440.237 313.933 455.909 307.866C471.58 301.799 479.454 276.222 479.454 276.222C479.454 276.222 477.86 238.757 476.786 236.358C475.713 233.958 456.797 244.326 450.185 246.759C450.185 246.759 459.179 289.704 454.893 291.918C450.608 294.132 399.147 262.635 399.147 262.635C399.147 262.635 234.638 256.439 227.156 258.725Z" fill="white"/>
<path d="M508.965 461.505C508.965 461.505 512.373 437.539 511.415 423.451C510.458 409.363 503.79 391.651 503.79 391.651C503.79 391.651 492.475 401.876 488.164 408.111C483.854 414.346 482.664 429.684 482.789 437.539C482.914 445.395 482.544 456.095 487.354 459.112C492.165 462.128 508.965 461.505 508.965 461.505Z" fill="#DADADA"/>
<path d="M511.415 423.451C512.373 437.539 508.965 461.505 508.965 461.505C508.965 461.505 527.168 452.026 531.573 447.047C535.977 442.067 539.52 433.355 538.937 423.855C538.354 414.356 534.03 402.873 530.864 396.286C527.699 389.7 518.596 381.002 518.596 381.002L503.79 391.651C503.79 391.651 510.458 409.363 511.415 423.451Z" fill="#FFFBE5"/>
<path d="M208.906 442.028C181.853 442.667 171.398 443.29 171.398 443.29C171.398 443.29 166.154 454.872 163.715 467.925C161.276 480.978 160.91 490.161 166.154 498.266C171.398 506.371 182.13 516.09 196.643 518.837C211.156 521.584 231.24 520.583 239.449 515.474C247.657 510.366 248.407 508.242 249.876 501.319C251.344 494.396 240.032 481.682 242.532 482.804C245.032 483.926 248.657 495.523 259.032 494.151C269.408 492.78 270.671 485.797 271.296 482.804C271.921 479.811 271.292 472.084 271.292 472.084L266.737 461.533L263.913 454.334C251.302 451.1 229.224 441.549 208.906 442.028Z" fill="#FFFBE5"/>
<path d="M283.901 443.29C283.901 443.29 279.717 451.21 272.925 454.872C271.234 455.784 268.094 455.406 263.913 454.334L266.737 461.533L271.292 472.084C271.292 472.084 284.242 494.227 286.658 505.124C289.074 516.022 289.158 540.039 289.158 540.039L287.158 604.258C287.158 604.258 307.284 603.011 320.284 601.14C333.285 599.27 346.216 596.559 360.66 595.903C375.105 595.248 411.77 592.194 411.77 592.194C411.77 592.194 415.636 576.869 416.912 566.6C418.189 556.331 421.537 536.922 424.912 526.697C428.288 516.472 439.413 493.403 439.413 493.403L418.675 486.498C418.675 486.498 410.787 487.293 402.989 487.633C395.191 487.973 331.853 488.864 324.866 485.696C317.88 482.529 302.56 462.998 302.56 462.998L283.901 443.29Z" fill="#554E48"/>
<path d="M438.66 536.355L447.663 496.271L439.413 493.403C439.413 493.403 428.288 516.472 424.912 526.697C421.537 536.922 418.189 556.331 416.912 566.6C415.636 576.869 411.77 592.194 411.77 592.194L430.428 582.888L438.66 536.355Z" fill="#554E48"/>
<path d="M486.405 475.662C486.405 475.662 467.414 480.809 456.74 482.378C446.067 483.948 418.675 486.498 418.675 486.498L439.413 493.403L447.663 496.271C447.663 496.271 462.164 497.393 469.914 497.019C477.664 496.645 483.896 495.373 486.405 493.403C488.914 491.433 486.405 475.662 486.405 475.662Z" fill="white"/>
<path d="M454.893 291.918C459.179 289.704 450.185 246.759 450.185 246.759L399.147 262.635C399.147 262.635 450.608 294.132 454.893 291.918Z" fill="black"/>
<path d="M245.907 417.964C238.04 412.824 224.656 406.864 208.906 407.862C193.155 408.859 186.28 411.104 178.018 417.964C169.756 424.825 168.031 429.808 168.031 429.808L171.398 443.29C171.398 443.29 181.853 442.667 208.906 442.028C229.224 441.549 251.302 451.1 263.913 454.334C268.094 455.406 271.234 455.784 272.925 454.872C279.717 451.21 283.901 443.29 283.901 443.29C283.901 443.29 253.774 423.104 245.907 417.964Z" fill="white"/>
<path d="M360.196 623.759C357.411 624.723 352.322 627.242 352.508 629.095C352.694 630.947 357.671 631.947 361.868 632.17C366.065 632.392 384.338 631.466 384.338 631.466C384.338 631.466 398.935 630.873 398.823 626.649C398.712 622.426 388.944 622.129 385.229 621.865C381.515 621.601 375.35 621.499 370.744 621.907C366.139 622.314 362.982 622.796 360.196 623.759Z" fill="#482B1D"/>
<path d="M272.925 454.872L273.637 456.192L272.925 454.872ZM208.906 442.028L208.941 443.528L208.906 442.028ZM266.737 461.533L265.341 462.081L265.35 462.104L265.36 462.127L266.737 461.533ZM333.906 381.762C334.367 381.074 334.183 380.142 333.494 379.681C332.806 379.22 331.875 379.404 331.413 380.093L333.906 381.762ZM302.56 462.998L303.74 462.072L303.697 462.018L303.649 461.967L302.56 462.998ZM497.665 367.336L499.119 366.969L499.116 366.954L499.111 366.939L497.665 367.336ZM488.467 328.719C488.213 327.93 487.368 327.497 486.579 327.751C485.791 328.005 485.358 328.85 485.612 329.639L488.467 328.719ZM502.347 301.835L503.554 300.944L503.512 300.888L503.465 300.835L502.347 301.835ZM418.675 486.498L418.536 485.004L418.525 485.006L418.675 486.498ZM438.66 536.355L437.197 536.027L437.189 536.06L437.183 536.094L438.66 536.355ZM439.413 493.403L439.905 491.986L439.896 491.983L439.887 491.98L439.413 493.403ZM289.158 540.039L290.658 540.086L290.658 540.06L290.658 540.034L289.158 540.039ZM404.412 660.62L405.05 661.978L404.412 660.62ZM418.662 637.801L420.139 638.064L418.662 637.801ZM418.662 610.118L420.12 609.766L418.662 610.118ZM452.163 632.065L453.641 632.322L452.163 632.065ZM440.913 649.273L441.676 650.564L440.913 649.273ZM214.406 307.606L215.563 308.561L215.563 308.561L214.406 307.606ZM329.637 657.483L329.676 655.984L329.64 655.983L329.604 655.983L329.637 657.483ZM384.338 631.466L384.277 629.967L384.27 629.967L384.262 629.968L384.338 631.466ZM367.016 605.753L367.057 607.253L367.064 607.252L367.016 605.753ZM417.453 643.514L415.998 643.152L417.453 643.514ZM451.584 634.933L453.045 635.276L451.584 634.933ZM263.913 454.334L264.286 452.881L263.913 454.334ZM226.718 257.291C225.291 257.727 224.355 258.731 223.83 259.979C223.329 261.17 223.192 262.587 223.243 264.03C223.345 266.922 224.226 270.441 225.298 273.761C226.38 277.108 227.694 280.37 228.734 282.787C229.255 283.997 229.709 285.001 230.034 285.703C230.196 286.054 230.326 286.33 230.416 286.519C230.461 286.614 230.496 286.687 230.52 286.736C230.532 286.761 230.541 286.78 230.547 286.793C230.551 286.8 230.553 286.805 230.555 286.809C230.556 286.81 230.556 286.812 230.557 286.813C230.557 286.813 230.557 286.814 230.557 286.814C230.557 286.814 230.558 286.815 231.907 286.159C233.255 285.502 233.255 285.502 233.255 285.502C233.255 285.502 233.255 285.502 233.255 285.502C233.255 285.501 233.255 285.501 233.254 285.499C233.253 285.497 233.251 285.493 233.248 285.487C233.243 285.476 233.234 285.459 233.223 285.436C233.202 285.391 233.169 285.322 233.126 285.232C233.04 285.052 232.915 284.785 232.757 284.444C232.442 283.762 231.999 282.783 231.49 281.601C230.47 279.231 229.195 276.064 228.153 272.839C227.103 269.586 226.328 266.389 226.241 263.924C226.198 262.687 226.333 261.765 226.595 261.143C226.833 260.578 227.151 260.295 227.595 260.16L226.718 257.291ZM231.907 286.159C231.786 287.654 231.786 287.654 231.787 287.654C231.788 287.654 231.79 287.654 231.792 287.654C231.795 287.654 231.801 287.655 231.808 287.655C231.823 287.657 231.846 287.658 231.875 287.661C231.935 287.666 232.024 287.673 232.141 287.682C232.375 287.701 232.724 287.729 233.18 287.766C234.091 287.84 235.431 287.949 237.147 288.089C240.578 288.369 245.51 288.774 251.513 289.271C263.518 290.266 279.806 291.633 296.938 293.123C331.228 296.104 368.815 299.569 382.259 301.516L382.689 298.547C369.139 296.584 331.443 293.112 297.197 290.134C280.061 288.644 263.769 287.277 251.761 286.281C245.756 285.784 240.823 285.379 237.391 285.099C235.675 284.959 234.334 284.85 233.422 284.776C232.966 284.739 232.617 284.711 232.383 284.692C232.265 284.683 232.176 284.675 232.117 284.671C232.087 284.668 232.065 284.666 232.05 284.665C232.042 284.665 232.037 284.664 232.033 284.664C232.031 284.664 232.029 284.664 232.028 284.663C232.028 284.663 232.027 284.663 231.907 286.159ZM382.259 301.516C388.964 302.487 395.913 303.838 402.837 305.229C409.748 306.618 416.644 308.05 423.185 309.169C429.725 310.288 435.965 311.103 441.58 311.251C447.181 311.398 452.268 310.884 456.45 309.265L455.367 306.467C451.713 307.882 447.077 308.394 441.659 308.252C436.253 308.11 430.176 307.321 423.69 306.212C417.205 305.103 410.369 303.683 403.428 302.288C396.501 300.896 389.482 299.531 382.689 298.547L382.259 301.516ZM456.45 309.265C464.809 306.029 470.913 297.702 474.873 290.491C476.875 286.845 478.375 283.398 479.374 280.864C479.874 279.595 480.25 278.552 480.503 277.823C480.629 277.458 480.724 277.172 480.788 276.975C480.82 276.877 480.844 276.801 480.861 276.748C480.869 276.722 480.876 276.702 480.88 276.688C480.882 276.68 480.884 276.675 480.885 276.671C480.886 276.669 480.886 276.667 480.887 276.666C480.887 276.665 480.887 276.665 480.887 276.664C480.887 276.664 480.887 276.663 479.454 276.222C478.02 275.781 478.02 275.78 478.02 275.78C478.02 275.78 478.02 275.78 478.02 275.78C478.02 275.781 478.02 275.781 478.02 275.783C478.019 275.785 478.018 275.788 478.016 275.794C478.013 275.804 478.008 275.821 478.001 275.843C477.987 275.888 477.965 275.956 477.935 276.046C477.876 276.227 477.787 276.496 477.667 276.843C477.427 277.536 477.066 278.539 476.583 279.763C475.617 282.214 474.169 285.54 472.243 289.047C468.348 296.141 462.68 303.636 455.367 306.467L456.45 309.265ZM479.454 276.222C480.953 276.158 480.953 276.158 480.952 276.158C480.952 276.157 480.952 276.157 480.952 276.156C480.952 276.155 480.952 276.154 480.952 276.151C480.952 276.147 480.952 276.14 480.951 276.131C480.951 276.113 480.949 276.086 480.948 276.05C480.945 275.979 480.94 275.873 480.934 275.736C480.922 275.46 480.905 275.056 480.882 274.541C480.836 273.511 480.77 272.037 480.686 270.261C480.52 266.708 480.287 261.946 480.02 257.107C479.754 252.271 479.453 247.349 479.151 243.482C479.001 241.55 478.849 239.868 478.699 238.586C478.624 237.946 478.548 237.389 478.471 236.944C478.403 236.554 478.31 236.089 478.156 235.745L475.417 236.97C475.397 236.926 475.442 237.036 475.515 237.458C475.579 237.825 475.648 238.319 475.719 238.933C475.862 240.159 476.011 241.797 476.161 243.716C476.46 247.548 476.759 252.443 477.025 257.272C477.291 262.1 477.524 266.853 477.69 270.401C477.773 272.174 477.839 273.646 477.885 274.674C477.908 275.188 477.925 275.591 477.937 275.866C477.943 276.003 477.948 276.108 477.951 276.179C477.952 276.214 477.953 276.241 477.954 276.259C477.954 276.268 477.955 276.275 477.955 276.279C477.955 276.281 477.955 276.283 477.955 276.284C477.955 276.285 477.955 276.285 477.955 276.285C477.955 276.286 477.955 276.286 479.454 276.222ZM478.156 235.745C477.85 235.063 477.263 234.74 476.785 234.607C476.334 234.482 475.866 234.486 475.468 234.522C474.66 234.597 473.676 234.859 472.635 235.205C470.523 235.905 467.787 237.082 464.94 238.382C459.139 241.028 452.905 244.16 449.667 245.351L450.703 248.167C454.077 246.925 460.606 243.657 466.185 241.111C469.027 239.814 471.635 238.697 473.579 238.052C474.565 237.725 475.287 237.552 475.745 237.51C475.98 237.488 476.034 237.512 475.982 237.498C475.902 237.475 475.588 237.352 475.417 236.97L478.156 235.745ZM450.185 246.759C448.717 247.067 448.717 247.067 448.717 247.067C448.717 247.067 448.717 247.068 448.717 247.068C448.717 247.069 448.718 247.071 448.718 247.074C448.719 247.079 448.721 247.086 448.723 247.096C448.727 247.117 448.734 247.147 448.742 247.187C448.759 247.268 448.784 247.388 448.816 247.544C448.88 247.857 448.974 248.318 449.093 248.905C449.329 250.08 449.663 251.761 450.05 253.785C450.824 257.836 451.811 263.255 452.664 268.739C453.518 274.232 454.232 279.749 454.468 284.011C454.587 286.151 454.581 287.908 454.432 289.165C454.357 289.798 454.253 290.233 454.149 290.502C454.031 290.806 453.993 290.695 454.205 290.585L455.582 293.251C456.329 292.864 456.724 292.158 456.945 291.589C457.179 290.987 457.322 290.272 457.411 289.518C457.591 288.003 457.585 286.042 457.463 283.845C457.219 279.432 456.487 273.797 455.628 268.278C454.768 262.748 453.775 257.293 452.997 253.222C452.607 251.186 452.272 249.495 452.034 248.312C451.914 247.721 451.819 247.257 451.754 246.94C451.722 246.781 451.696 246.66 451.679 246.577C451.671 246.536 451.664 246.505 451.66 246.484C451.658 246.473 451.656 246.465 451.655 246.46C451.654 246.457 451.654 246.455 451.654 246.454C451.654 246.453 451.653 246.453 451.653 246.452C451.653 246.452 451.653 246.452 450.185 246.759ZM454.205 290.585C454.352 290.509 454.425 290.527 454.321 290.529C454.231 290.531 454.071 290.521 453.824 290.477C453.33 290.389 452.647 290.195 451.772 289.883C450.033 289.261 447.729 288.241 445.032 286.928C439.648 284.307 432.846 280.596 426.153 276.802C419.466 273.01 412.909 269.149 408.024 266.234C405.581 264.776 403.557 263.556 402.144 262.701C401.437 262.273 400.883 261.936 400.506 261.707C400.318 261.592 400.174 261.504 400.077 261.445C400.028 261.415 399.991 261.393 399.967 261.378C399.955 261.37 399.946 261.365 399.939 261.361C399.936 261.359 399.934 261.358 399.933 261.357C399.932 261.356 399.931 261.356 399.931 261.356C399.931 261.356 399.93 261.356 399.147 262.635C398.364 263.914 398.364 263.914 398.365 263.915C398.365 263.915 398.366 263.915 398.367 263.916C398.368 263.917 398.371 263.918 398.374 263.92C398.38 263.924 398.39 263.93 398.402 263.938C398.427 263.953 398.464 263.976 398.513 264.005C398.611 264.065 398.757 264.154 398.946 264.269C399.325 264.5 399.881 264.838 400.59 265.267C402.008 266.125 404.038 267.349 406.486 268.81C411.383 271.731 417.96 275.605 424.674 279.412C431.381 283.215 438.249 286.963 443.719 289.625C446.449 290.954 448.868 292.031 450.763 292.708C451.706 293.045 452.568 293.301 453.298 293.431C453.664 293.496 454.036 293.537 454.392 293.528C454.734 293.52 455.167 293.465 455.582 293.251L454.205 290.585ZM399.147 262.635C399.204 261.136 399.203 261.136 399.202 261.136C399.201 261.136 399.199 261.136 399.196 261.136C399.191 261.135 399.184 261.135 399.174 261.135C399.154 261.134 399.124 261.133 399.084 261.131C399.005 261.128 398.887 261.124 398.731 261.118C398.42 261.107 397.957 261.089 397.354 261.067C396.147 261.022 394.375 260.957 392.119 260.874C387.605 260.709 381.149 260.476 373.378 260.203C357.837 259.658 337.037 258.955 316.002 258.323C294.969 257.692 273.696 257.131 257.21 256.872C248.968 256.742 241.914 256.687 236.68 256.737C234.065 256.762 231.892 256.813 230.246 256.894C229.425 256.935 228.721 256.984 228.152 257.044C227.614 257.1 227.102 257.174 226.718 257.291L227.595 260.16C227.679 260.134 227.94 260.082 228.464 260.027C228.957 259.976 229.601 259.93 230.395 259.891C231.982 259.812 234.11 259.761 236.709 259.737C241.904 259.687 248.929 259.742 257.163 259.871C273.627 260.13 294.883 260.69 315.912 261.322C336.94 261.953 357.735 262.656 373.273 263.202C381.042 263.474 387.497 263.707 392.009 263.872C394.265 263.955 396.036 264.02 397.242 264.065C397.846 264.087 398.308 264.104 398.619 264.116C398.775 264.122 398.893 264.126 398.972 264.129C399.011 264.131 399.041 264.132 399.061 264.133C399.071 264.133 399.078 264.133 399.083 264.134C399.086 264.134 399.088 264.134 399.089 264.134C399.09 264.134 399.091 264.134 399.147 262.635ZM188.97 342.041C183.239 352.332 169.994 373.857 165.562 395.338L168.501 395.945C172.815 375.029 185.748 353.992 191.591 343.5L188.97 342.041ZM165.562 395.338C163.338 406.119 163.588 414.832 164.405 420.875C164.813 423.896 165.364 426.248 165.816 427.857C166.043 428.662 166.245 429.28 166.393 429.704C166.467 429.916 166.528 430.08 166.571 430.193C166.593 430.25 166.61 430.294 166.623 430.325C166.629 430.341 166.634 430.354 166.638 430.363C166.64 430.368 166.642 430.372 166.643 430.375C166.643 430.377 166.644 430.378 166.645 430.379C166.645 430.38 166.645 430.381 166.645 430.381C166.645 430.382 166.646 430.382 168.031 429.808C169.417 429.234 169.417 429.235 169.418 429.235C169.418 429.235 169.418 429.236 169.418 429.236C169.418 429.236 169.418 429.236 169.418 429.236C169.418 429.236 169.418 429.236 169.417 429.234C169.416 429.231 169.413 429.225 169.41 429.215C169.402 429.196 169.39 429.165 169.373 429.122C169.34 429.035 169.289 428.899 169.225 428.715C169.097 428.347 168.913 427.787 168.704 427.044C168.286 425.559 167.766 423.344 167.378 420.473C166.602 414.733 166.351 406.362 168.501 395.945L165.562 395.338ZM209.001 409.359C224.329 408.388 237.394 414.194 245.087 419.22L246.727 416.709C238.686 411.455 224.983 405.34 208.811 406.365L209.001 409.359ZM245.087 419.22C249.012 421.785 258.503 428.111 267.021 433.802C271.278 436.646 275.289 439.33 278.236 441.302C279.71 442.289 280.917 443.097 281.756 443.659C282.176 443.94 282.503 444.159 282.726 444.309C282.837 444.383 282.922 444.44 282.979 444.478C283.008 444.498 283.03 444.512 283.044 444.522C283.051 444.527 283.057 444.53 283.06 444.533C283.062 444.534 283.064 444.535 283.065 444.536C283.065 444.536 283.065 444.536 283.066 444.536C283.066 444.536 283.066 444.536 283.901 443.29C284.736 442.044 284.736 442.044 284.735 442.044C284.735 442.044 284.735 442.044 284.734 442.043C284.733 442.043 284.732 442.042 284.73 442.04C284.727 442.038 284.721 442.034 284.714 442.029C284.699 442.02 284.678 442.005 284.649 441.986C284.592 441.948 284.507 441.891 284.395 441.816C284.173 441.667 283.845 441.448 283.426 441.167C282.586 440.604 281.379 439.796 279.905 438.809C276.957 436.836 272.945 434.152 268.687 431.308C260.175 425.62 250.669 419.284 246.727 416.709L245.087 419.22ZM283.901 443.29C282.574 442.59 282.575 442.589 282.575 442.589C282.575 442.589 282.575 442.589 282.575 442.589C282.575 442.589 282.575 442.589 282.575 442.589C282.575 442.589 282.575 442.589 282.574 442.59C282.573 442.593 282.571 442.597 282.568 442.602C282.561 442.614 282.551 442.633 282.537 442.659C282.509 442.711 282.464 442.79 282.405 442.894C282.286 443.103 282.106 443.41 281.868 443.792C281.391 444.557 280.685 445.617 279.776 446.787C277.941 449.148 275.348 451.861 272.213 453.552L273.637 456.192C277.294 454.221 280.189 451.143 282.144 448.629C283.13 447.361 283.894 446.213 284.414 445.378C284.674 444.961 284.874 444.62 285.011 444.381C285.079 444.262 285.131 444.167 285.167 444.101C285.186 444.068 285.2 444.042 285.21 444.024C285.215 444.015 285.219 444.007 285.221 444.002C285.223 443.999 285.224 443.997 285.225 443.995C285.226 443.994 285.226 443.993 285.226 443.992C285.226 443.992 285.227 443.992 285.227 443.992C285.227 443.991 285.227 443.991 283.901 443.29ZM208.87 440.529C195.337 440.848 185.952 441.164 179.948 441.4C176.946 441.518 174.789 441.616 173.381 441.685C172.678 441.719 172.161 441.746 171.819 441.764C171.649 441.774 171.522 441.781 171.437 441.786C171.395 441.788 171.363 441.79 171.342 441.791C171.331 441.792 171.323 441.792 171.318 441.792C171.315 441.793 171.313 441.793 171.311 441.793C171.311 441.793 171.31 441.793 171.31 441.793C171.31 441.793 171.309 441.793 171.309 441.793C171.309 441.793 171.309 441.793 171.398 443.29C171.488 444.788 171.488 444.788 171.488 444.788C171.488 444.788 171.488 444.788 171.488 444.788C171.488 444.788 171.488 444.788 171.489 444.788C171.49 444.787 171.492 444.787 171.494 444.787C171.499 444.787 171.506 444.787 171.516 444.786C171.536 444.785 171.566 444.783 171.607 444.781C171.689 444.776 171.813 444.769 171.981 444.76C172.317 444.742 172.829 444.715 173.528 444.681C174.925 444.613 177.073 444.515 180.066 444.398C186.052 444.162 195.421 443.847 208.941 443.528L208.87 440.529ZM172.854 442.927L169.487 429.445L166.576 430.172L169.943 443.654L172.854 442.927ZM171.398 443.29C170.032 442.672 170.032 442.672 170.032 442.672C170.032 442.672 170.031 442.672 170.031 442.673C170.031 442.673 170.031 442.674 170.03 442.675C170.029 442.677 170.028 442.679 170.027 442.683C170.024 442.689 170.02 442.699 170.014 442.711C170.003 442.735 169.988 442.77 169.967 442.816C169.927 442.908 169.868 443.042 169.792 443.217C169.64 443.568 169.422 444.08 169.153 444.734C168.616 446.042 167.876 447.92 167.059 450.209C165.427 454.78 163.48 461.019 162.241 467.65L165.19 468.201C166.39 461.778 168.284 455.7 169.884 451.217C170.683 448.979 171.406 447.145 171.928 445.874C172.189 445.238 172.4 444.744 172.545 444.409C172.617 444.242 172.673 444.115 172.71 444.031C172.729 443.989 172.743 443.958 172.752 443.937C172.757 443.927 172.76 443.919 172.762 443.915C172.763 443.912 172.764 443.911 172.764 443.91C172.765 443.909 172.765 443.909 172.765 443.909C172.765 443.909 172.765 443.909 172.765 443.909C172.765 443.909 172.765 443.909 171.398 443.29ZM162.241 467.65C159.797 480.726 159.306 490.443 164.895 499.081L167.414 497.451C162.515 489.879 162.755 481.23 165.19 468.201L162.241 467.65ZM164.895 499.081C170.31 507.451 181.362 517.471 196.364 520.311L196.922 517.363C182.897 514.709 172.487 505.292 167.414 497.451L164.895 499.081ZM196.364 520.311C203.759 521.711 212.538 522.152 220.514 521.598C228.425 521.049 235.81 519.506 240.241 516.748L238.656 514.201C234.879 516.552 228.118 518.063 220.306 518.605C212.56 519.143 204.04 518.711 196.922 517.363L196.364 520.311ZM240.241 516.748C244.368 514.179 246.841 512.235 248.426 509.926C250.017 507.61 250.616 505.057 251.343 501.63L248.408 501.008C247.667 504.504 247.157 506.475 245.953 508.228C244.744 509.989 242.737 511.661 238.656 514.201L240.241 516.748ZM251.343 501.63C251.801 499.471 251.244 497.045 250.399 494.816C249.537 492.545 248.287 490.254 247.105 488.275C246.511 487.281 245.927 486.354 245.411 485.54C244.888 484.717 244.448 484.028 244.117 483.478C243.952 483.204 243.827 482.984 243.74 482.814C243.641 482.622 243.63 482.571 243.64 482.609C243.643 482.621 243.687 482.776 243.662 483.002C243.633 483.266 243.486 483.737 242.995 484.034C242.578 484.287 242.192 484.235 242.091 484.218C241.964 484.197 241.896 484.163 241.918 484.172L243.146 481.435C243.011 481.375 242.814 481.297 242.583 481.259C242.379 481.225 241.914 481.182 241.442 481.467C240.896 481.798 240.718 482.327 240.68 482.672C240.646 482.979 240.703 483.239 240.74 483.377C240.817 483.67 240.955 483.961 241.074 484.191C241.205 484.443 241.367 484.725 241.545 485.022C241.9 485.614 242.37 486.347 242.877 487.147C243.391 487.957 243.957 488.856 244.529 489.814C245.679 491.739 246.825 493.854 247.594 495.88C248.378 497.946 248.685 499.706 248.408 501.008L251.343 501.63ZM241.918 484.172C241.907 484.168 242.057 484.249 242.39 484.642C242.697 485.002 243.047 485.487 243.475 486.101C244.307 487.294 245.375 488.89 246.701 490.402C249.383 493.459 253.339 496.417 259.229 495.638L258.836 492.664C254.35 493.257 251.307 491.103 248.957 488.424C247.767 487.068 246.811 485.64 245.936 484.385C245.511 483.776 245.087 483.182 244.676 482.698C244.292 482.247 243.781 481.721 243.146 481.435L241.918 484.172ZM259.229 495.638C264.776 494.905 268.069 492.63 270.027 489.976C271.938 487.387 272.457 484.582 272.764 483.111L269.828 482.497C269.51 484.019 269.085 486.201 267.613 488.195C266.19 490.124 263.664 492.026 258.836 492.664L259.229 495.638ZM283.901 443.29C285.062 444.24 285.062 444.24 285.062 444.239C285.063 444.239 285.063 444.239 285.063 444.239C285.064 444.238 285.064 444.237 285.066 444.236C285.068 444.233 285.071 444.229 285.075 444.223C285.084 444.213 285.097 444.196 285.115 444.175C285.15 444.133 285.202 444.069 285.269 443.986C285.405 443.82 285.606 443.575 285.863 443.259C286.379 442.628 287.125 441.714 288.047 440.585C289.889 438.327 292.434 435.207 295.24 431.76C300.851 424.867 307.513 416.66 311.705 411.417L309.362 409.544C305.179 414.775 298.525 422.973 292.913 429.866C290.108 433.312 287.565 436.431 285.722 438.688C284.801 439.817 284.055 440.73 283.54 441.361C283.282 441.677 283.082 441.922 282.946 442.088C282.879 442.171 282.827 442.234 282.792 442.277C282.775 442.298 282.761 442.314 282.753 442.325C282.748 442.33 282.745 442.334 282.743 442.337C282.742 442.338 282.741 442.339 282.74 442.34C282.74 442.34 282.74 442.341 282.74 442.341C282.74 442.341 282.739 442.341 283.901 443.29ZM311.705 411.417C320.097 400.922 331.139 385.892 333.906 381.762L331.413 380.093C328.708 384.131 317.721 399.09 309.362 409.544L311.705 411.417ZM282.812 444.322L301.471 464.029L303.649 461.967L284.99 442.259L282.812 444.322ZM302.56 462.998C301.38 463.924 301.38 463.924 301.38 463.924C301.38 463.925 301.38 463.925 301.381 463.925C301.381 463.926 301.382 463.927 301.383 463.928C301.385 463.931 301.388 463.935 301.392 463.939C301.399 463.949 301.411 463.964 301.426 463.983C301.456 464.021 301.5 464.077 301.558 464.15C301.673 464.295 301.843 464.509 302.061 464.781C302.497 465.326 303.127 466.106 303.904 467.052C305.458 468.942 307.604 471.499 309.973 474.157C312.339 476.813 314.942 479.587 317.406 481.906C319.828 484.186 322.253 486.158 324.247 487.063L325.486 484.33C323.987 483.651 321.876 481.994 319.462 479.721C317.088 477.487 314.551 474.785 312.213 472.162C309.879 469.541 307.759 467.017 306.222 465.147C305.453 464.212 304.832 463.442 304.403 462.906C304.188 462.638 304.022 462.429 303.909 462.287C303.853 462.216 303.811 462.162 303.782 462.126C303.768 462.108 303.757 462.094 303.75 462.085C303.747 462.081 303.744 462.077 303.742 462.075C303.741 462.074 303.741 462.073 303.74 462.073C303.74 462.073 303.74 462.073 303.74 462.072C303.74 462.072 303.74 462.072 302.56 462.998ZM324.247 487.063C325.368 487.571 327.356 487.919 329.738 488.193C332.199 488.477 335.313 488.702 338.848 488.881C345.922 489.24 354.763 489.415 363.612 489.48C381.305 489.611 399.118 489.303 403.054 489.132L402.924 486.134C399.061 486.303 381.306 486.611 363.634 486.48C354.801 486.415 346.01 486.24 339 485.885C335.493 485.708 332.451 485.486 330.081 485.213C327.631 484.931 326.112 484.614 325.486 484.33L324.247 487.063ZM456.959 483.862C462.371 483.067 469.847 481.372 475.931 479.889C478.981 479.145 481.696 478.451 483.649 477.942C484.626 477.688 485.412 477.48 485.954 477.336C486.226 477.263 486.436 477.207 486.579 477.169C486.65 477.149 486.705 477.135 486.741 477.125C486.76 477.12 486.774 477.116 486.783 477.114C486.788 477.112 486.791 477.111 486.794 477.111C486.795 477.11 486.796 477.11 486.797 477.11C486.797 477.11 486.797 477.11 486.797 477.11C486.798 477.11 486.798 477.11 486.405 475.662C486.013 474.214 486.013 474.214 486.013 474.214C486.013 474.214 486.013 474.214 486.012 474.214C486.012 474.214 486.011 474.215 486.01 474.215C486.008 474.215 486.004 474.216 486 474.218C485.991 474.22 485.978 474.224 485.96 474.228C485.924 474.238 485.87 474.253 485.8 474.271C485.66 474.309 485.451 474.365 485.183 474.437C484.645 474.58 483.864 474.786 482.893 475.039C480.951 475.545 478.252 476.235 475.22 476.974C469.14 478.457 461.783 480.121 456.522 480.894L456.959 483.862ZM508.965 461.505C510.45 461.716 510.45 461.716 510.45 461.715C510.45 461.715 510.45 461.715 510.451 461.714C510.451 461.713 510.451 461.712 510.451 461.711C510.452 461.708 510.452 461.703 510.453 461.697C510.455 461.685 510.457 461.667 510.46 461.644C510.467 461.597 510.477 461.528 510.489 461.437C510.514 461.256 510.551 460.99 510.597 460.646C510.688 459.959 510.818 458.963 510.971 457.724C511.277 455.246 511.675 451.796 512.043 447.902C512.776 440.141 513.399 430.524 512.912 423.349L509.919 423.553C510.388 430.466 509.787 439.876 509.056 447.62C508.691 451.479 508.297 454.9 507.994 457.356C507.842 458.584 507.714 459.57 507.623 460.249C507.578 460.588 507.542 460.85 507.517 461.027C507.505 461.115 507.496 461.182 507.49 461.227C507.486 461.25 507.484 461.266 507.482 461.277C507.482 461.283 507.481 461.287 507.481 461.29C507.481 461.291 507.48 461.292 507.48 461.293C507.48 461.293 507.48 461.293 507.48 461.293C507.48 461.293 507.48 461.293 508.965 461.505ZM512.912 423.349C512.422 416.145 510.481 408.074 508.685 401.852C507.784 398.73 506.913 396.053 506.267 394.155C505.944 393.206 505.677 392.451 505.49 391.932C505.396 391.672 505.323 391.472 505.273 391.335C505.247 391.267 505.228 391.214 505.215 391.179C505.208 391.161 505.203 391.147 505.199 391.138C505.198 391.133 505.196 391.13 505.195 391.127C505.195 391.126 505.195 391.125 505.194 391.124C505.194 391.124 505.194 391.123 505.194 391.123C505.194 391.123 505.194 391.123 503.79 391.651C502.386 392.18 502.386 392.18 502.386 392.18C502.386 392.18 502.386 392.18 502.386 392.18C502.386 392.18 502.387 392.181 502.387 392.182C502.388 392.184 502.389 392.186 502.39 392.19C502.393 392.198 502.397 392.21 502.403 392.226C502.416 392.258 502.434 392.307 502.458 392.372C502.505 392.502 502.576 392.696 502.667 392.948C502.848 393.452 503.11 394.191 503.427 395.122C504.061 396.985 504.917 399.617 505.802 402.684C507.579 408.84 509.451 416.669 509.919 423.553L512.912 423.349ZM505.245 391.285L499.119 366.969L496.21 367.702L502.335 392.018L505.245 391.285ZM497.665 367.336C499.111 366.939 499.111 366.939 499.111 366.939C499.111 366.938 499.111 366.938 499.111 366.937C499.111 366.936 499.11 366.935 499.11 366.933C499.109 366.929 499.107 366.922 499.105 366.914C499.1 366.897 499.093 366.872 499.084 366.839C499.066 366.774 499.039 366.676 499.004 366.549C498.935 366.294 498.832 365.92 498.701 365.442C498.439 364.487 498.063 363.119 497.609 361.467C496.701 358.162 495.478 353.719 494.22 349.167C491.711 340.091 489.042 330.504 488.467 328.719L485.612 329.639C486.162 331.345 488.805 340.836 491.328 349.966C492.586 354.516 493.808 358.958 494.716 362.262C495.17 363.914 495.546 365.282 495.808 366.236C495.939 366.713 496.041 367.087 496.111 367.342C496.146 367.469 496.173 367.567 496.191 367.633C496.2 367.665 496.207 367.69 496.211 367.707C496.214 367.715 496.215 367.722 496.216 367.726C496.217 367.728 496.217 367.729 496.218 367.73C496.218 367.731 496.218 367.731 496.218 367.732C496.218 367.732 496.218 367.732 497.665 367.336ZM503.79 391.651C502.784 390.538 502.784 390.538 502.784 390.539C502.784 390.539 502.784 390.539 502.783 390.539C502.783 390.539 502.782 390.54 502.782 390.541C502.78 390.542 502.778 390.544 502.775 390.547C502.769 390.552 502.761 390.56 502.75 390.57C502.727 390.59 502.695 390.62 502.652 390.658C502.567 390.736 502.441 390.85 502.281 390.998C501.96 391.292 501.498 391.72 500.93 392.251C499.794 393.314 498.234 394.797 496.538 396.477C493.174 399.81 489.174 404.013 486.931 407.258L489.398 408.964C491.465 405.975 495.278 401.948 498.649 398.609C500.32 396.953 501.859 395.49 502.98 394.441C503.54 393.917 503.995 393.497 504.31 393.208C504.467 393.063 504.589 392.952 504.672 392.877C504.713 392.839 504.744 392.811 504.765 392.792C504.776 392.782 504.783 392.775 504.788 392.771C504.791 392.768 504.793 392.767 504.794 392.766C504.795 392.765 504.795 392.765 504.795 392.764C504.796 392.764 504.796 392.764 504.796 392.764C504.796 392.764 504.796 392.764 503.79 391.651ZM486.931 407.258C484.56 410.687 483.152 416.393 482.329 422C481.496 427.683 481.226 433.562 481.289 437.563L484.289 437.515C484.228 433.66 484.49 427.943 485.298 422.435C486.117 416.851 487.459 411.77 489.398 408.964L486.931 407.258ZM481.289 437.563C481.351 441.42 481.289 446.189 481.827 450.334C482.098 452.416 482.529 454.427 483.244 456.148C483.958 457.869 485.001 459.407 486.557 460.383L488.151 457.841C487.302 457.308 486.587 456.377 486.014 454.998C485.442 453.619 485.056 451.899 484.802 449.947C484.292 446.023 484.353 441.515 484.289 437.515L481.289 437.563ZM487.203 476.932L509.763 462.775L508.168 460.234L485.608 474.391L487.203 476.932ZM486.557 460.383C488.033 461.308 490.245 461.869 492.52 462.239C494.851 462.617 497.465 462.826 499.895 462.938C502.329 463.05 504.608 463.066 506.275 463.055C507.11 463.049 507.794 463.036 508.27 463.025C508.508 463.019 508.694 463.014 508.822 463.01C508.885 463.008 508.934 463.007 508.968 463.005C508.985 463.005 508.998 463.004 509.006 463.004C509.011 463.004 509.014 463.004 509.017 463.004C509.018 463.004 509.019 463.004 509.02 463.004C509.02 463.004 509.02 463.004 509.02 463.004C509.021 463.004 509.021 463.004 508.965 461.505C508.91 460.006 508.91 460.006 508.91 460.006C508.91 460.006 508.91 460.006 508.909 460.006C508.909 460.006 508.909 460.006 508.908 460.006C508.906 460.006 508.903 460.006 508.9 460.006C508.892 460.006 508.881 460.007 508.866 460.007C508.835 460.008 508.79 460.01 508.729 460.012C508.608 460.015 508.429 460.02 508.198 460.026C507.737 460.037 507.07 460.049 506.255 460.055C504.622 460.066 502.399 460.05 500.033 459.941C497.661 459.832 495.173 459.63 493.001 459.278C490.772 458.916 489.08 458.424 488.151 457.841L486.557 460.383ZM524.618 371.203C525.618 367.343 525.758 361.468 525.334 355.124C524.907 348.736 523.896 341.708 522.505 335.461L519.576 336.114C520.935 342.212 521.924 349.088 522.341 355.324C522.761 361.606 522.588 367.079 521.714 370.451L524.618 371.203ZM522.505 335.461C521.067 329.007 516.256 320.319 511.935 313.388C509.754 309.89 507.661 306.782 506.114 304.549C505.34 303.433 504.702 302.534 504.256 301.913C504.033 301.602 503.859 301.361 503.739 301.198C503.679 301.116 503.634 301.053 503.602 301.01C503.587 300.989 503.575 300.973 503.567 300.962C503.563 300.956 503.56 300.952 503.557 300.949C503.556 300.948 503.556 300.947 503.555 300.946C503.555 300.945 503.554 300.945 503.554 300.945C503.554 300.944 503.554 300.944 502.347 301.835C501.14 302.725 501.14 302.725 501.14 302.725C501.14 302.726 501.14 302.726 501.14 302.726C501.141 302.726 501.141 302.727 501.142 302.728C501.144 302.731 501.147 302.734 501.15 302.739C501.157 302.749 501.168 302.764 501.183 302.784C501.212 302.824 501.256 302.884 501.314 302.964C501.43 303.122 501.6 303.358 501.819 303.662C502.256 304.271 502.885 305.157 503.648 306.258C505.176 308.463 507.241 311.529 509.39 314.975C513.728 321.935 518.264 330.223 519.576 336.114L522.505 335.461ZM503.465 300.835L480.572 275.222L478.335 277.222L501.229 302.834L503.465 300.835ZM504.666 392.869L519.472 382.22L517.721 379.784L502.914 390.433L504.666 392.869ZM518.596 381.002C519.703 382.015 519.703 382.014 519.704 382.014C519.704 382.014 519.704 382.013 519.705 382.013C519.705 382.012 519.706 382.011 519.707 382.01C519.708 382.009 519.71 382.007 519.712 382.005C519.715 382.001 519.72 381.996 519.724 381.991C519.734 381.98 519.746 381.966 519.761 381.949C519.79 381.915 519.829 381.869 519.877 381.811C519.973 381.694 520.103 381.528 520.261 381.309C520.578 380.873 521.006 380.227 521.49 379.353C522.459 377.604 523.648 374.942 524.618 371.203L521.714 370.451C520.808 373.944 519.713 376.37 518.866 377.9C518.442 378.665 518.079 379.208 517.832 379.549C517.709 379.719 517.614 379.839 517.555 379.912C517.525 379.948 517.504 379.972 517.493 379.985C517.488 379.991 517.485 379.995 517.484 379.996C517.484 379.996 517.484 379.995 517.485 379.994C517.486 379.994 517.486 379.993 517.487 379.992C517.488 379.992 517.488 379.991 517.489 379.991C517.489 379.99 517.489 379.99 517.489 379.99C517.49 379.989 517.49 379.989 518.596 381.002ZM518.596 381.002C517.56 382.086 517.56 382.086 517.56 382.086C517.56 382.086 517.56 382.086 517.56 382.086C517.56 382.086 517.561 382.087 517.561 382.087C517.562 382.088 517.563 382.089 517.565 382.091C517.569 382.095 517.575 382.1 517.583 382.108C517.599 382.124 517.623 382.147 517.656 382.179C517.721 382.241 517.818 382.336 517.942 382.458C518.192 382.704 518.554 383.063 518.998 383.515C519.889 384.421 521.108 385.696 522.423 387.172C525.085 390.159 528.028 393.847 529.512 396.936L532.216 395.637C530.535 392.139 527.344 388.184 524.663 385.176C523.307 383.655 522.053 382.343 521.138 381.412C520.68 380.946 520.306 380.575 520.045 380.319C519.915 380.191 519.813 380.091 519.743 380.024C519.708 379.99 519.681 379.964 519.662 379.946C519.653 379.937 519.646 379.93 519.641 379.925C519.639 379.923 519.637 379.921 519.635 379.92C519.635 379.919 519.634 379.919 519.634 379.918C519.633 379.918 519.633 379.918 519.633 379.918C519.633 379.917 519.633 379.917 518.596 381.002ZM529.512 396.936C532.647 403.458 536.874 414.734 537.44 423.947L540.434 423.763C539.834 413.978 535.413 402.288 532.216 395.637L529.512 396.936ZM537.44 423.947C537.999 433.054 534.587 441.375 530.449 446.053L532.696 448.041C537.367 442.76 541.041 433.655 540.434 423.763L537.44 423.947ZM530.449 446.053C529.482 447.147 527.655 448.584 525.336 450.168C523.05 451.73 520.394 453.362 517.858 454.849C515.325 456.335 512.927 457.667 511.161 458.628C510.279 459.109 509.555 459.496 509.052 459.763C508.801 459.896 508.606 459.999 508.473 460.069C508.407 460.104 508.356 460.13 508.322 460.148C508.306 460.157 508.293 460.164 508.284 460.168C508.28 460.17 508.277 460.172 508.275 460.173C508.274 460.173 508.273 460.174 508.273 460.174C508.273 460.174 508.273 460.174 508.273 460.174C508.273 460.174 508.273 460.174 508.965 461.505C509.658 462.835 509.658 462.835 509.658 462.835C509.659 462.835 509.659 462.835 509.659 462.834C509.66 462.834 509.661 462.834 509.662 462.833C509.664 462.832 509.668 462.83 509.672 462.828C509.682 462.823 509.695 462.816 509.713 462.806C509.748 462.788 509.801 462.761 509.869 462.725C510.005 462.653 510.204 462.548 510.46 462.412C510.97 462.141 511.703 461.749 512.595 461.263C514.38 460.292 516.808 458.943 519.376 457.437C521.942 455.932 524.663 454.261 527.028 452.645C529.361 451.052 531.461 449.437 532.696 448.041L530.449 446.053ZM486.405 475.662C484.924 475.897 484.924 475.897 484.924 475.897C484.924 475.898 484.924 475.898 484.924 475.898C484.924 475.898 484.924 475.899 484.924 475.899C484.925 475.901 484.925 475.903 484.925 475.907C484.927 475.914 484.928 475.924 484.93 475.939C484.935 475.967 484.942 476.01 484.95 476.066C484.968 476.179 484.993 476.347 485.024 476.561C485.087 476.989 485.174 477.605 485.271 478.35C485.465 479.843 485.696 481.847 485.85 483.906C486.005 485.975 486.078 488.049 485.967 489.7C485.912 490.528 485.813 491.193 485.68 491.675C485.531 492.212 485.404 492.282 485.479 492.223L487.332 494.583C488.034 494.031 488.377 493.178 488.571 492.475C488.781 491.717 488.898 490.827 488.961 489.9C489.085 488.039 489.001 485.801 488.842 483.682C488.683 481.551 488.444 479.489 488.246 477.964C488.147 477.2 488.057 476.568 487.992 476.126C487.96 475.905 487.934 475.731 487.916 475.612C487.907 475.553 487.899 475.507 487.895 475.476C487.892 475.46 487.89 475.448 487.889 475.44C487.888 475.435 487.888 475.432 487.887 475.43C487.887 475.429 487.887 475.428 487.887 475.427C487.887 475.427 487.887 475.427 487.887 475.427C487.887 475.426 487.887 475.426 486.405 475.662ZM485.479 492.223C484.506 492.988 482.604 493.742 479.81 494.343C477.072 494.932 473.662 495.337 469.842 495.521L469.986 498.518C473.917 498.328 477.498 497.909 480.44 497.276C483.327 496.655 485.796 495.789 487.332 494.583L485.479 492.223ZM403.054 489.132C406.979 488.96 410.922 488.675 413.879 488.433C415.358 488.312 416.593 488.201 417.459 488.121C417.892 488.081 418.233 488.048 418.466 488.026C418.582 488.015 418.672 488.006 418.732 488C418.763 487.997 418.786 487.994 418.801 487.993C418.809 487.992 418.815 487.991 418.819 487.991C418.821 487.991 418.823 487.991 418.824 487.991C418.824 487.991 418.825 487.991 418.825 487.99C418.825 487.99 418.825 487.99 418.825 487.99C418.825 487.99 418.826 487.99 418.675 486.498C418.525 485.006 418.525 485.006 418.525 485.006C418.525 485.006 418.525 485.006 418.525 485.006C418.524 485.006 418.524 485.006 418.524 485.006C418.523 485.006 418.521 485.006 418.52 485.006C418.516 485.006 418.511 485.007 418.503 485.008C418.488 485.009 418.466 485.011 418.437 485.014C418.378 485.02 418.291 485.029 418.176 485.04C417.947 485.062 417.611 485.094 417.182 485.134C416.325 485.213 415.101 485.323 413.634 485.443C410.698 485.683 406.797 485.966 402.924 486.134L403.054 489.132ZM418.675 486.498C418.814 487.992 418.814 487.992 418.815 487.992C418.815 487.991 418.815 487.991 418.816 487.991C418.816 487.991 418.818 487.991 418.819 487.991C418.823 487.991 418.828 487.99 418.834 487.99C418.848 487.988 418.867 487.987 418.894 487.984C418.946 487.979 419.024 487.972 419.125 487.962C419.329 487.943 419.629 487.915 420.014 487.879C420.785 487.806 421.897 487.7 423.266 487.568C426.002 487.304 429.763 486.936 433.857 486.519C442.033 485.686 451.583 484.653 456.959 483.862L456.522 480.894C451.224 481.674 441.741 482.7 433.553 483.535C429.466 483.951 425.711 484.319 422.978 484.582C421.612 484.714 420.501 484.819 419.732 484.892C419.347 484.928 419.048 484.957 418.845 484.976C418.744 484.985 418.667 484.992 418.615 484.997C418.589 485 418.569 485.001 418.556 485.003C418.549 485.003 418.544 485.004 418.541 485.004C418.539 485.004 418.538 485.004 418.537 485.004C418.537 485.004 418.537 485.004 418.536 485.004C418.536 485.004 418.536 485.004 418.675 486.498ZM469.842 495.521C466.048 495.704 460.551 495.521 455.958 495.287C453.672 495.171 451.625 495.043 450.15 494.944C449.413 494.894 448.819 494.852 448.41 494.823C448.206 494.808 448.047 494.796 447.94 494.788C447.887 494.784 447.846 494.781 447.819 494.779C447.806 494.778 447.795 494.777 447.789 494.776C447.785 494.776 447.783 494.776 447.781 494.776C447.78 494.776 447.78 494.776 447.779 494.776C447.779 494.776 447.779 494.776 447.779 494.776C447.779 494.776 447.779 494.776 447.663 496.271C447.547 497.767 447.548 497.767 447.548 497.767C447.548 497.767 447.548 497.767 447.548 497.767C447.549 497.767 447.55 497.767 447.551 497.767C447.552 497.767 447.555 497.767 447.559 497.767C447.566 497.768 447.577 497.769 447.591 497.77C447.619 497.772 447.661 497.775 447.715 497.779C447.825 497.788 447.985 497.8 448.193 497.815C448.607 497.845 449.206 497.887 449.95 497.937C451.436 498.037 453.499 498.166 455.806 498.284C460.401 498.517 466.029 498.708 469.986 498.518L469.842 495.521ZM446.2 495.942L437.197 536.027L440.124 536.684L449.127 496.6L446.2 495.942ZM437.183 536.094L428.951 582.626L431.906 583.149L440.137 536.617L437.183 536.094ZM429.759 581.545L411.1 590.852L412.439 593.536L431.098 584.23L429.759 581.545ZM411.77 592.194C413.224 592.561 413.224 592.561 413.224 592.561C413.224 592.561 413.224 592.56 413.224 592.56C413.224 592.56 413.225 592.559 413.225 592.558C413.225 592.556 413.226 592.553 413.227 592.549C413.229 592.541 413.232 592.53 413.236 592.515C413.243 592.485 413.254 592.441 413.269 592.383C413.298 592.267 413.34 592.096 413.395 591.875C413.504 591.432 413.66 590.79 413.852 589.988C414.236 588.384 414.762 586.139 415.327 583.57C416.455 578.446 417.754 571.991 418.401 566.785L415.424 566.415C414.794 571.477 413.521 577.82 412.397 582.925C411.837 585.472 411.316 587.699 410.935 589.29C410.744 590.085 410.589 590.72 410.482 591.157C410.428 591.375 410.386 591.543 410.358 591.656C410.344 591.713 410.333 591.756 410.326 591.785C410.322 591.799 410.319 591.81 410.318 591.817C410.317 591.821 410.316 591.823 410.316 591.825C410.315 591.826 410.315 591.826 410.315 591.827C410.315 591.827 410.315 591.827 410.315 591.827C410.315 591.827 410.315 591.827 411.77 592.194ZM418.401 566.785C419.674 556.538 423.009 537.248 426.337 527.167L423.488 526.227C420.065 536.596 416.703 556.123 415.424 566.415L418.401 566.785ZM448.156 494.854L439.905 491.986L438.92 494.82L447.171 497.688L448.156 494.854ZM439.887 491.98L419.149 485.075L418.201 487.921L438.939 494.826L439.887 491.98ZM426.337 527.167C427.995 522.143 431.586 513.892 434.794 506.836C436.392 503.322 437.885 500.125 438.978 497.807C439.525 496.649 439.972 495.71 440.282 495.061C440.437 494.736 440.558 494.484 440.639 494.314C440.68 494.229 440.712 494.164 440.733 494.12C440.743 494.098 440.751 494.082 440.756 494.071C440.759 494.065 440.761 494.061 440.762 494.059C440.763 494.057 440.763 494.056 440.764 494.056C440.764 494.055 440.764 494.055 440.764 494.055C440.764 494.055 440.764 494.055 439.413 493.403C438.062 492.752 438.062 492.752 438.062 492.752C438.062 492.752 438.061 492.752 438.061 492.753C438.061 492.753 438.06 492.755 438.06 492.756C438.058 492.759 438.056 492.763 438.054 492.769C438.048 492.78 438.04 492.797 438.029 492.819C438.008 492.864 437.976 492.929 437.935 493.016C437.852 493.188 437.731 493.442 437.575 493.768C437.263 494.42 436.814 495.364 436.265 496.527C435.167 498.854 433.668 502.064 432.063 505.595C428.864 512.63 425.205 521.025 423.488 526.227L426.337 527.167ZM411.77 592.194C411.645 590.699 411.645 590.699 411.645 590.699C411.644 590.699 411.644 590.699 411.643 590.699C411.642 590.7 411.641 590.7 411.638 590.7C411.634 590.7 411.627 590.701 411.619 590.702C411.601 590.703 411.575 590.705 411.54 590.708C411.47 590.714 411.366 590.722 411.23 590.734C410.959 590.756 410.558 590.789 410.043 590.832C409.013 590.916 407.525 591.038 405.694 591.186C402.032 591.483 397 591.885 391.516 592.307C380.541 593.153 367.787 594.078 360.593 594.405L360.728 597.402C367.978 597.073 380.779 596.143 391.747 595.298C397.235 594.876 402.272 594.473 405.936 594.177C407.768 594.028 409.258 593.906 410.289 593.822C410.805 593.779 411.206 593.746 411.478 593.724C411.614 593.712 411.718 593.704 411.788 593.698C411.823 593.695 411.849 593.693 411.867 593.691C411.876 593.69 411.883 593.69 411.887 593.69C411.89 593.689 411.891 593.689 411.892 593.689C411.893 593.689 411.893 593.689 411.894 593.689C411.894 593.689 411.894 593.689 411.77 592.194ZM360.593 594.405C346.051 595.064 332.954 597.802 320.071 599.656L320.498 602.625C333.616 600.738 346.381 598.053 360.728 597.402L360.593 594.405ZM320.071 599.656C313.618 600.584 305.374 601.36 298.724 601.905C295.403 602.178 292.487 602.392 290.401 602.537C289.359 602.61 288.524 602.666 287.95 602.704C287.663 602.723 287.442 602.737 287.292 602.746C287.217 602.751 287.16 602.755 287.122 602.757C287.103 602.758 287.089 602.759 287.079 602.76C287.075 602.76 287.071 602.76 287.069 602.76C287.068 602.76 287.067 602.761 287.066 602.761C287.066 602.761 287.066 602.761 287.066 602.761C287.065 602.761 287.065 602.761 287.158 604.258C287.251 605.755 287.251 605.755 287.251 605.755C287.251 605.755 287.252 605.755 287.252 605.755C287.253 605.755 287.254 605.755 287.255 605.755C287.257 605.754 287.261 605.754 287.266 605.754C287.276 605.753 287.291 605.752 287.31 605.751C287.349 605.749 287.407 605.745 287.483 605.74C287.634 605.731 287.858 605.716 288.147 605.697C288.724 605.659 289.563 605.603 290.611 605.53C292.705 605.384 295.633 605.169 298.969 604.895C305.631 604.349 313.95 603.567 320.498 602.625L320.071 599.656ZM288.657 604.304L290.658 540.086L287.659 539.993L285.659 604.211L288.657 604.304ZM289.158 540.039C290.658 540.034 290.658 540.034 290.658 540.034C290.658 540.033 290.658 540.033 290.658 540.033C290.658 540.032 290.658 540.031 290.658 540.029C290.658 540.026 290.658 540.021 290.658 540.015C290.658 540.003 290.658 539.986 290.658 539.962C290.658 539.916 290.657 539.847 290.657 539.757C290.655 539.577 290.653 539.311 290.65 538.971C290.643 538.289 290.63 537.304 290.607 536.088C290.561 533.657 290.475 530.302 290.313 526.603C289.99 519.246 289.363 510.394 288.123 504.8L285.194 505.449C286.37 510.753 286.992 519.358 287.316 526.734C287.476 530.402 287.562 533.732 287.608 536.145C287.63 537.351 287.643 538.327 287.65 539.002C287.653 539.339 287.656 539.6 287.657 539.777C287.657 539.866 287.658 539.933 287.658 539.978C287.658 540 287.658 540.017 287.658 540.028C287.658 540.034 287.658 540.038 287.658 540.041C287.658 540.042 287.658 540.043 287.658 540.044C287.658 540.044 287.658 540.044 287.658 540.044C287.658 540.045 287.658 540.045 289.158 540.039ZM272.764 483.111C273.12 481.407 273.106 478.544 273.028 476.27C272.988 475.099 272.928 474.024 272.878 473.243C272.853 472.852 272.831 472.533 272.814 472.312C272.806 472.201 272.799 472.115 272.795 472.055C272.793 472.026 272.791 472.003 272.79 471.987C272.789 471.979 272.788 471.973 272.788 471.969C272.788 471.967 272.788 471.966 272.788 471.964C272.788 471.964 272.788 471.963 272.788 471.963C272.788 471.963 272.788 471.963 272.788 471.963C272.788 471.962 272.788 471.962 271.292 472.084C269.797 472.205 269.797 472.205 269.797 472.205C269.797 472.205 269.797 472.205 269.797 472.206C269.797 472.206 269.797 472.206 269.797 472.206C269.798 472.207 269.798 472.208 269.798 472.21C269.798 472.213 269.798 472.218 269.799 472.225C269.8 472.239 269.802 472.26 269.804 472.287C269.808 472.343 269.814 472.425 269.822 472.532C269.838 472.745 269.86 473.053 269.884 473.433C269.932 474.195 269.991 475.239 270.029 476.373C270.109 478.711 270.097 481.208 269.828 482.497L272.764 483.111ZM272.67 471.489L268.114 460.938L265.36 462.127L269.915 472.678L272.67 471.489ZM288.123 504.8C286.867 499.135 282.933 490.711 279.404 483.833C277.624 480.364 275.922 477.24 274.664 474.984C274.035 473.855 273.517 472.943 273.155 472.311C272.975 471.996 272.833 471.75 272.737 471.584C272.688 471.5 272.651 471.436 272.626 471.393C272.614 471.372 272.604 471.355 272.598 471.344C272.594 471.339 272.592 471.334 272.59 471.331C272.589 471.33 272.589 471.329 272.588 471.328C272.588 471.328 272.588 471.327 272.588 471.327C272.587 471.327 272.587 471.327 271.292 472.084C269.998 472.841 269.998 472.841 269.998 472.841C269.998 472.841 269.998 472.842 269.998 472.842C269.998 472.842 269.999 472.843 270 472.845C270.001 472.847 270.003 472.851 270.006 472.856C270.012 472.866 270.021 472.882 270.033 472.902C270.057 472.944 270.093 473.005 270.14 473.087C270.235 473.25 270.374 473.491 270.552 473.802C270.908 474.424 271.421 475.327 272.043 476.444C273.289 478.68 274.975 481.773 276.735 485.202C280.284 492.12 284.034 500.216 285.194 505.449L288.123 504.8ZM285.663 604.14C284.839 614.62 283.902 618.09 283.658 632.164L286.658 632.216C286.9 618.25 287.809 615.109 288.654 604.375L285.663 604.14ZM283.658 632.164C283.533 639.406 285.075 645.106 287.824 649.585C290.571 654.062 294.457 657.212 298.85 659.461L300.217 656.791C296.203 654.735 292.78 651.927 290.381 648.016C287.982 644.108 286.541 638.993 286.658 632.216L283.658 632.164ZM298.85 659.461C301.166 660.648 305.044 661.66 309.755 662.525C314.517 663.399 320.292 664.15 326.51 664.757C338.948 665.969 353.244 666.61 364.927 666.485L364.895 663.485C353.326 663.609 339.138 662.973 326.801 661.771C320.633 661.169 314.948 660.428 310.297 659.574C305.594 658.711 302.105 657.758 300.217 656.791L298.85 659.461ZM364.927 666.485C388.091 666.236 398.073 665.261 405.05 661.978L403.773 659.263C397.501 662.215 388.232 663.234 364.895 663.485L364.927 666.485ZM420.139 638.064C422.052 627.325 422.045 617.716 420.12 609.766L417.204 610.471C419.004 617.908 419.049 627.079 417.186 637.538L420.139 638.064ZM420.12 609.766C419.16 605.797 417.398 601.225 415.899 597.686C415.146 595.908 414.452 594.373 413.945 593.282C413.692 592.736 413.486 592.301 413.342 592.001C413.27 591.851 413.214 591.735 413.176 591.656C413.157 591.616 413.142 591.586 413.132 591.565C413.127 591.555 413.123 591.547 413.12 591.541C413.119 591.539 413.118 591.536 413.117 591.535C413.117 591.534 413.116 591.534 413.116 591.533C413.116 591.533 413.116 591.533 413.116 591.533C413.116 591.532 413.116 591.532 411.77 592.194C410.423 592.856 410.423 592.856 410.423 592.856C410.423 592.856 410.423 592.856 410.423 592.856C410.424 592.856 410.424 592.857 410.424 592.857C410.424 592.858 410.425 592.86 410.426 592.862C410.428 592.866 410.432 592.873 410.436 592.882C410.445 592.901 410.459 592.929 410.477 592.966C410.513 593.041 410.567 593.152 410.637 593.297C410.775 593.587 410.976 594.011 411.224 594.544C411.719 595.612 412.399 597.115 413.136 598.856C414.618 602.356 416.303 606.747 417.204 610.471L420.12 609.766ZM430.428 582.888C429.478 584.048 429.478 584.048 429.478 584.048C429.478 584.048 429.478 584.048 429.478 584.048C429.478 584.048 429.478 584.048 429.479 584.049C429.48 584.05 429.482 584.051 429.485 584.053C429.49 584.058 429.498 584.064 429.509 584.073C429.53 584.091 429.563 584.119 429.607 584.155C429.695 584.228 429.825 584.337 429.993 584.48C430.33 584.765 430.819 585.185 431.421 585.718C432.626 586.783 434.281 588.296 436.082 590.086C439.714 593.693 443.824 598.311 446.087 602.59L448.739 601.187C446.253 596.488 441.87 591.606 438.197 587.957C436.345 586.118 434.646 584.565 433.408 583.47C432.789 582.923 432.285 582.489 431.934 582.192C431.758 582.043 431.621 581.928 431.527 581.85C431.48 581.811 431.444 581.781 431.419 581.76C431.406 581.75 431.397 581.742 431.39 581.736C431.387 581.734 431.384 581.732 431.382 581.73C431.382 581.729 431.381 581.729 431.38 581.728C431.38 581.728 431.38 581.728 431.379 581.728C431.379 581.727 431.379 581.727 430.428 582.888ZM446.087 602.59C450.675 611.262 452.256 622.769 450.685 631.808L453.641 632.322C455.321 622.656 453.651 610.471 448.739 601.187L446.087 602.59ZM440.15 647.982C438.695 648.842 436.392 649.533 433.608 650.058C430.861 650.577 427.791 650.907 424.9 651.117C422.014 651.326 419.332 651.412 417.371 651.445C416.391 651.462 415.592 651.466 415.04 651.465C414.764 651.465 414.55 651.464 414.405 651.463C414.333 651.462 414.278 651.461 414.242 651.461C414.224 651.461 414.21 651.46 414.201 651.46C414.197 651.46 414.194 651.46 414.192 651.46C414.191 651.46 414.19 651.46 414.19 651.46C414.189 651.46 414.189 651.46 414.189 651.46C414.189 651.46 414.189 651.46 414.167 652.96C414.144 654.46 414.144 654.46 414.144 654.46C414.145 654.46 414.145 654.46 414.145 654.46C414.146 654.46 414.147 654.46 414.149 654.46C414.152 654.46 414.156 654.46 414.161 654.46C414.171 654.46 414.186 654.46 414.206 654.461C414.246 654.461 414.304 654.462 414.38 654.462C414.532 654.464 414.754 654.465 415.038 654.465C415.605 654.466 416.422 654.462 417.422 654.445C419.421 654.411 422.16 654.323 425.117 654.109C428.069 653.895 431.263 653.554 434.164 653.006C437.028 652.466 439.756 651.699 441.676 650.564L440.15 647.982ZM399.593 264.067L450.631 248.191L449.739 245.327L398.702 261.203L399.593 264.067ZM230.461 285.757C230.15 286.876 229.445 288.173 228.354 289.681C227.27 291.177 225.869 292.797 224.249 294.565C221.048 298.057 216.972 302.138 213.249 306.652L215.563 308.561C219.224 304.123 223.138 300.217 226.46 296.592C228.102 294.801 229.597 293.08 230.784 291.44C231.963 289.812 232.902 288.178 233.352 286.56L230.461 285.757ZM213.249 306.652C203.586 318.365 194.799 331.572 188.97 342.041L191.591 343.5C197.334 333.185 206.02 320.129 215.563 308.561L213.249 306.652ZM168.031 429.808C169.449 430.299 169.449 430.3 169.448 430.3C169.448 430.3 169.448 430.301 169.448 430.301C169.448 430.302 169.448 430.303 169.447 430.304C169.447 430.305 169.446 430.306 169.446 430.307C169.446 430.308 169.446 430.309 169.446 430.308C169.447 430.306 169.449 430.299 169.453 430.288C169.462 430.265 169.478 430.224 169.503 430.165C169.553 430.047 169.639 429.856 169.768 429.6C170.028 429.087 170.466 428.31 171.158 427.316C172.541 425.329 174.944 422.466 178.976 419.118L177.06 416.81C172.83 420.323 170.24 423.383 168.695 425.602C167.923 426.711 167.414 427.609 167.092 428.245C166.931 428.563 166.817 428.815 166.74 428.996C166.702 429.087 166.673 429.159 166.652 429.213C166.642 429.24 166.634 429.262 166.628 429.28C166.624 429.288 166.622 429.296 166.619 429.302C166.618 429.305 166.617 429.308 166.616 429.311C166.616 429.312 166.615 429.313 166.615 429.314C166.615 429.315 166.615 429.316 166.615 429.316C166.614 429.317 166.614 429.318 168.031 429.808ZM178.976 419.118C182.997 415.78 186.618 413.612 191.12 412.14C195.659 410.656 201.165 409.855 209.001 409.359L208.811 406.365C200.896 406.866 195.09 407.686 190.188 409.289C185.249 410.904 181.301 413.288 177.06 416.81L178.976 419.118ZM299.566 659.626L329.669 658.983L329.604 655.983L299.502 656.627L299.566 659.626ZM329.637 657.483C329.597 658.983 329.597 658.983 329.597 658.983C329.597 658.983 329.598 658.983 329.598 658.983C329.599 658.983 329.6 658.983 329.602 658.983C329.605 658.983 329.61 658.983 329.617 658.983C329.629 658.983 329.648 658.984 329.672 658.984C329.721 658.986 329.793 658.987 329.887 658.989C330.074 658.993 330.348 658.999 330.697 659.004C331.396 659.015 332.398 659.027 333.612 659.029C336.037 659.033 339.32 659 342.733 658.849C346.139 658.698 349.713 658.429 352.71 657.955C354.207 657.718 355.596 657.425 356.765 657.056C357.894 656.699 358.985 656.222 359.738 655.527L357.701 653.323C357.447 653.559 356.874 653.875 355.861 654.195C354.889 654.502 353.66 654.768 352.241 654.992C349.407 655.44 345.962 655.703 342.601 655.852C339.248 656 336.014 656.033 333.617 656.029C332.419 656.027 331.431 656.015 330.745 656.005C330.401 655.999 330.133 655.994 329.951 655.99C329.86 655.988 329.791 655.986 329.745 655.985C329.722 655.985 329.704 655.984 329.693 655.984C329.687 655.984 329.683 655.984 329.68 655.984C329.679 655.984 329.678 655.984 329.677 655.984C329.677 655.984 329.677 655.984 329.676 655.984C329.676 655.984 329.676 655.984 329.637 657.483ZM359.738 655.527C360.928 654.427 361.816 653.034 362.542 651.626C363.265 650.224 363.878 648.699 364.451 647.339C365.04 645.939 365.588 644.71 366.215 643.721C366.841 642.735 367.462 642.125 368.128 641.82L366.877 639.093C365.471 639.738 364.462 640.885 363.682 642.114C362.904 643.34 362.271 644.786 361.686 646.175C361.084 647.604 360.53 648.982 359.876 650.251C359.224 651.515 358.526 652.561 357.701 653.323L359.738 655.527ZM368.128 641.82C369.915 641 373.23 640.471 376.905 640.34C380.538 640.211 384.239 640.479 386.697 641.086L387.416 638.174C384.589 637.476 380.584 637.207 376.798 637.342C373.052 637.475 369.233 638.012 366.877 639.093L368.128 641.82ZM386.697 641.086C387.434 641.268 388.083 641.837 388.688 642.976C389.299 644.125 389.743 645.627 390.163 647.294C390.563 648.884 390.954 650.684 391.451 652.123C391.704 652.857 392.011 653.583 392.412 654.205C392.813 654.826 393.363 655.431 394.133 655.786L395.392 653.063C395.313 653.027 395.15 652.915 394.934 652.579C394.717 652.243 394.502 651.77 394.287 651.145C393.846 649.867 393.513 648.312 393.072 646.562C392.651 644.89 392.136 643.069 391.337 641.567C390.533 640.055 389.322 638.644 387.416 638.174L386.697 641.086ZM405.05 661.978C407.763 660.701 409.92 659.197 411.546 657.833L409.617 655.535C408.16 656.758 406.219 658.112 403.773 659.263L405.05 661.978ZM411.546 657.833C412.821 656.763 413.771 655.777 414.408 655.05C414.727 654.686 414.969 654.387 415.133 654.174C415.216 654.067 415.279 653.981 415.324 653.92C415.346 653.889 415.364 653.865 415.377 653.846C415.383 653.837 415.389 653.83 415.393 653.824C415.395 653.821 415.397 653.818 415.398 653.816C415.399 653.815 415.4 653.814 415.4 653.813C415.401 653.813 415.401 653.812 415.401 653.812C415.401 653.812 415.401 653.812 415.401 653.812C415.402 653.811 415.402 653.811 414.167 652.96C412.931 652.109 412.932 652.109 412.932 652.109C412.932 652.109 412.932 652.108 412.932 652.108C412.932 652.108 412.932 652.108 412.932 652.107C412.933 652.107 412.933 652.107 412.933 652.106C412.934 652.106 412.934 652.106 412.933 652.106C412.933 652.107 412.931 652.109 412.929 652.113C412.923 652.12 412.914 652.134 412.899 652.154C412.871 652.193 412.824 652.256 412.759 652.339C412.63 652.507 412.428 652.758 412.153 653.072C411.602 653.7 410.76 654.575 409.617 655.535L411.546 657.833ZM394.133 655.786C395.179 656.27 396.767 656.633 398.411 656.918C400.1 657.212 402.009 657.449 403.79 657.635C405.575 657.821 407.25 657.958 408.478 658.048C409.092 658.093 409.596 658.126 409.946 658.148C410.122 658.159 410.259 658.167 410.353 658.173C410.399 658.176 410.436 658.178 410.46 658.179C410.472 658.18 410.482 658.18 410.488 658.181C410.491 658.181 410.494 658.181 410.496 658.181C410.496 658.181 410.497 658.181 410.498 658.181C410.498 658.181 410.498 658.181 410.498 658.181C410.498 658.181 410.498 658.181 410.581 656.684C410.664 655.186 410.664 655.186 410.664 655.186C410.664 655.186 410.664 655.186 410.664 655.186C410.664 655.186 410.663 655.186 410.663 655.186C410.662 655.186 410.659 655.186 410.657 655.186C410.651 655.185 410.643 655.185 410.631 655.184C410.609 655.183 410.575 655.181 410.53 655.178C410.44 655.173 410.307 655.165 410.136 655.154C409.794 655.132 409.3 655.1 408.697 655.056C407.489 654.967 405.847 654.833 404.102 654.651C402.353 654.469 400.519 654.24 398.924 653.963C397.283 653.677 396.045 653.365 395.392 653.063L394.133 655.786ZM359.706 622.342C358.227 622.853 356.157 623.768 354.452 624.816C353.605 625.336 352.78 625.931 352.16 626.573C351.602 627.15 350.899 628.085 351.015 629.244L354 628.945C354.024 629.178 353.887 629.103 354.318 628.657C354.687 628.275 355.273 627.833 356.023 627.371C357.513 626.456 359.38 625.629 360.686 625.177L359.706 622.342ZM351.015 629.244C351.131 630.392 351.953 631.142 352.649 631.588C353.384 632.059 354.314 632.413 355.273 632.686C357.21 633.237 359.623 633.553 361.788 633.668L361.947 630.672C359.915 630.564 357.742 630.269 356.094 629.801C355.261 629.564 354.649 629.307 354.268 629.062C353.848 628.793 353.978 628.723 354 628.945L351.015 629.244ZM361.788 633.668C363.974 633.783 369.679 633.602 374.737 633.4C377.288 633.298 379.707 633.189 381.487 633.105C382.378 633.064 383.109 633.028 383.618 633.003C383.873 632.991 384.071 632.981 384.207 632.974C384.274 632.971 384.326 632.968 384.361 632.966C384.378 632.966 384.392 632.965 384.4 632.964C384.405 632.964 384.408 632.964 384.411 632.964C384.412 632.964 384.413 632.964 384.413 632.964C384.413 632.964 384.414 632.964 384.414 632.964C384.414 632.964 384.414 632.964 384.338 631.466C384.262 629.968 384.262 629.968 384.262 629.968C384.262 629.968 384.262 629.968 384.261 629.968C384.261 629.968 384.26 629.968 384.259 629.968C384.257 629.968 384.254 629.968 384.249 629.968C384.24 629.969 384.227 629.969 384.21 629.97C384.176 629.972 384.124 629.975 384.057 629.978C383.923 629.985 383.725 629.994 383.471 630.007C382.964 630.032 382.235 630.067 381.347 630.109C379.57 630.192 377.159 630.301 374.617 630.402C369.489 630.607 363.958 630.778 361.947 630.672L361.788 633.668ZM384.338 631.466C384.399 632.964 384.399 632.964 384.4 632.964C384.4 632.964 384.4 632.964 384.4 632.964C384.401 632.964 384.402 632.964 384.403 632.964C384.406 632.964 384.409 632.964 384.413 632.964C384.421 632.964 384.433 632.963 384.448 632.962C384.478 632.961 384.521 632.959 384.577 632.956C384.689 632.951 384.852 632.942 385.057 632.929C385.467 632.904 386.051 632.863 386.75 632.801C388.144 632.677 390.016 632.466 391.897 632.116C393.754 631.771 395.723 631.272 397.256 630.536C398.656 629.864 400.377 628.652 400.323 626.61L397.324 626.689C397.326 626.758 397.263 627.204 395.958 627.831C394.785 628.395 393.126 628.836 391.348 629.167C389.594 629.493 387.824 629.694 386.484 629.813C385.816 629.872 385.261 629.911 384.873 629.935C384.68 629.947 384.528 629.955 384.427 629.96C384.376 629.962 384.337 629.964 384.312 629.965C384.299 629.966 384.29 629.966 384.284 629.967C384.281 629.967 384.279 629.967 384.278 629.967C384.278 629.967 384.277 629.967 384.277 629.967C384.277 629.967 384.277 629.967 384.277 629.967C384.277 629.967 384.277 629.967 384.338 631.466ZM400.323 626.61C400.277 624.872 399.207 623.668 397.976 622.889C396.767 622.125 395.219 621.638 393.696 621.307C390.641 620.642 387.123 620.496 385.336 620.369L385.123 623.361C387.05 623.498 390.273 623.632 393.059 624.238C394.456 624.542 395.603 624.938 396.373 625.425C397.121 625.898 397.314 626.315 397.324 626.689L400.323 626.61ZM385.336 620.369C381.567 620.101 375.318 619.996 370.612 620.413L370.877 623.401C375.381 623.002 381.464 623.101 385.123 623.361L385.336 620.369ZM370.612 620.413C365.983 620.822 362.674 621.316 359.706 622.342L360.686 625.177C363.29 624.277 366.295 623.807 370.877 623.401L370.612 620.413ZM358.074 604.969C355.576 605.29 353.435 606.107 351.951 607.244C350.512 608.347 349.387 610.038 349.909 611.962L352.804 611.178C352.746 610.964 352.77 610.396 353.776 609.625C354.738 608.888 356.34 608.217 358.456 607.945L358.074 604.969ZM349.909 611.962C350.117 612.733 350.495 613.407 351.069 613.951C351.633 614.484 352.314 614.824 353.034 615.05C354.42 615.483 356.219 615.563 358.265 615.563V612.563C356.188 612.563 354.822 612.465 353.929 612.186C353.511 612.055 353.274 611.907 353.132 611.772C353.001 611.648 352.885 611.476 352.804 611.178L349.909 611.962ZM358.265 615.563C360.307 615.563 362.922 615.615 365.097 615.668C367.237 615.72 369.008 615.775 369.276 615.775V612.775C369.055 612.775 367.382 612.723 365.17 612.669C362.992 612.616 360.346 612.563 358.265 612.563V615.563ZM369.276 615.775C369.276 615.775 369.278 615.775 369.281 615.775C369.284 615.775 369.288 615.775 369.293 615.775C369.304 615.775 369.317 615.775 369.335 615.775C369.369 615.775 369.414 615.776 369.471 615.776C369.568 615.777 369.758 615.779 369.935 615.781C370.321 615.785 370.857 615.79 371.499 615.795C372.782 615.805 374.493 615.814 376.297 615.812C379.858 615.806 383.922 615.755 385.696 615.553L385.357 612.572C383.789 612.751 379.923 612.806 376.292 612.812C372.617 612.817 369.585 612.775 369.276 612.775V615.775ZM385.696 615.553C387.5 615.348 389.609 614.806 391.269 613.945C392.095 613.516 392.903 612.961 393.487 612.247C394.094 611.506 394.499 610.536 394.326 609.415L391.361 609.872C391.374 609.955 391.374 610.092 391.166 610.346C390.937 610.627 390.518 610.954 389.887 611.282C388.631 611.934 386.896 612.397 385.357 612.572L385.696 615.553ZM394.326 609.415C394.135 608.18 393.227 607.325 392.356 606.762C391.447 606.174 390.284 605.712 389.041 605.347C386.542 604.613 383.406 604.184 380.497 604.069L380.379 607.067C383.116 607.175 385.996 607.579 388.196 608.225C389.302 608.55 390.159 608.914 390.728 609.282C391.336 609.674 391.366 609.903 391.361 609.872L394.326 609.415ZM380.497 604.069C374.782 603.844 374.057 604.028 366.968 604.254L367.064 607.252C374.25 607.023 374.804 606.847 380.379 607.067L380.497 604.069ZM367.016 605.753C366.976 604.254 366.976 604.254 366.976 604.254C366.976 604.254 366.976 604.254 366.975 604.254C366.975 604.254 366.975 604.254 366.975 604.254C366.974 604.254 366.973 604.254 366.972 604.254C366.969 604.254 366.966 604.254 366.961 604.254C366.952 604.254 366.94 604.255 366.923 604.255C366.89 604.256 366.841 604.258 366.778 604.26C366.652 604.264 366.468 604.271 366.233 604.281C365.765 604.301 365.093 604.334 364.276 604.386C362.644 604.489 360.422 604.668 358.074 604.969L358.456 607.945C360.721 607.654 362.875 607.48 364.465 607.38C365.259 607.33 365.91 607.298 366.362 607.278C366.587 607.269 366.763 607.262 366.881 607.258C366.94 607.256 366.985 607.255 367.014 607.254C367.029 607.253 367.04 607.253 367.047 607.253C367.051 607.253 367.053 607.253 367.055 607.253C367.056 607.253 367.056 607.253 367.056 607.253C367.057 607.253 367.057 607.253 367.057 607.253C367.057 607.253 367.057 607.253 367.057 607.253C367.057 607.253 367.057 607.253 367.016 605.753ZM414.167 652.96C415.469 653.705 415.469 653.704 415.469 653.704C415.469 653.704 415.469 653.703 415.47 653.703C415.47 653.703 415.47 653.702 415.471 653.701C415.471 653.7 415.472 653.699 415.473 653.697C415.475 653.694 415.477 653.69 415.48 653.685C415.485 653.676 415.492 653.663 415.5 653.648C415.517 653.618 415.54 653.576 415.568 653.522C415.625 653.415 415.704 653.26 415.802 653.058C415.997 652.652 416.27 652.054 416.592 651.25C417.236 649.642 418.078 647.215 418.909 643.876L415.998 643.152C415.2 646.36 414.399 648.656 413.807 650.134C413.511 650.874 413.266 651.409 413.101 651.752C413.018 651.923 412.954 652.047 412.914 652.123C412.894 652.162 412.879 652.188 412.871 652.204C412.867 652.211 412.864 652.216 412.863 652.218C412.862 652.219 412.862 652.219 412.863 652.219C412.863 652.219 412.863 652.218 412.863 652.218C412.863 652.217 412.864 652.217 412.864 652.217C412.864 652.216 412.864 652.216 412.864 652.216C412.864 652.216 412.864 652.215 414.167 652.96ZM418.909 643.876C419.331 642.178 419.751 640.245 420.139 638.064L417.186 637.538C416.809 639.653 416.404 641.521 415.998 643.152L418.909 643.876ZM417.453 643.514C417.593 645.007 417.593 645.007 417.593 645.007C417.593 645.007 417.594 645.007 417.594 645.007C417.594 645.007 417.595 645.007 417.596 645.007C417.598 645.007 417.6 645.007 417.603 645.006C417.609 645.006 417.618 645.005 417.629 645.004C417.652 645.002 417.686 644.998 417.729 644.994C417.817 644.986 417.945 644.973 418.111 644.956C418.443 644.922 418.924 644.87 419.526 644.802C420.73 644.664 422.419 644.457 424.364 644.176C428.242 643.617 433.192 642.759 437.35 641.568L436.524 638.684C432.562 639.818 427.771 640.654 423.936 641.207C422.026 641.483 420.366 641.686 419.186 641.821C418.596 641.888 418.126 641.938 417.804 641.971C417.643 641.988 417.519 642 417.437 642.008C417.395 642.013 417.364 642.016 417.343 642.018C417.333 642.019 417.325 642.019 417.32 642.02C417.318 642.02 417.316 642.02 417.315 642.02C417.314 642.02 417.314 642.02 417.314 642.02C417.314 642.02 417.314 642.02 417.314 642.02C417.314 642.02 417.314 642.02 417.453 643.514ZM450.685 631.808C450.513 632.803 450.326 633.728 450.124 634.591L453.045 635.276C453.262 634.348 453.46 633.365 453.641 632.322L450.685 631.808ZM450.124 634.591C449.297 638.118 448.203 640.599 446.668 642.606C445.129 644.619 443.07 646.255 440.15 647.982L441.676 650.564C444.771 648.735 447.188 646.865 449.051 644.429C450.919 641.987 452.153 639.076 453.045 635.276L450.124 634.591ZM437.35 641.568C441.462 640.391 445.165 639.078 447.839 638.06C449.177 637.55 450.26 637.114 451.01 636.804C451.385 636.649 451.677 636.526 451.877 636.441C451.977 636.398 452.053 636.365 452.105 636.343C452.131 636.331 452.151 636.323 452.165 636.317C452.172 636.314 452.177 636.311 452.181 636.31C452.183 636.309 452.185 636.308 452.186 636.308C452.186 636.307 452.187 636.307 452.187 636.307C452.187 636.307 452.187 636.307 452.187 636.307C452.188 636.307 452.188 636.307 451.584 634.933C450.981 633.56 450.981 633.56 450.981 633.56C450.981 633.56 450.981 633.56 450.981 633.56C450.981 633.56 450.981 633.56 450.981 633.56C450.98 633.56 450.979 633.561 450.978 633.561C450.975 633.563 450.971 633.564 450.966 633.567C450.954 633.572 450.936 633.58 450.913 633.59C450.865 633.61 450.794 633.641 450.699 633.682C450.51 633.762 450.229 633.881 449.865 634.031C449.137 634.332 448.081 634.758 446.772 635.256C444.153 636.253 440.532 637.536 436.524 638.684L437.35 641.568ZM272.213 453.552C271.751 453.801 270.895 453.959 269.465 453.851C268.075 453.746 266.344 453.409 264.286 452.881L263.541 455.787C265.663 456.331 267.592 456.718 269.24 456.843C270.848 456.964 272.408 456.855 273.637 456.192L272.213 453.552ZM264.286 452.881C261.186 452.086 257.489 450.899 253.316 449.552C249.159 448.211 244.557 446.72 239.709 445.345C230.025 442.6 219.255 440.284 208.87 440.529L208.941 443.528C218.875 443.294 229.302 445.513 238.89 448.232C243.678 449.589 248.229 451.063 252.394 452.407C256.543 453.745 260.334 454.965 263.541 455.787L264.286 452.881ZM268.133 460.985L265.31 453.786L262.517 454.882L265.341 462.081L268.133 460.985Z" fill="black"/>
</svg>
