<svg width="700" height="900" viewBox="0 0 700 900" fill="none" xmlns="http://www.w3.org/2000/svg">
<path d="M345.637 429.905C347.622 429.988 357.382 440.887 367.391 447.244C377.399 453.602 400.821 457.069 400.821 457.069C400.821 457.069 402.046 484.976 395.429 497.609C388.811 510.241 370.862 529.231 350.846 529.975C330.829 530.718 312.519 515.052 304.608 504.627C296.698 494.202 297.991 458.968 297.991 458.968C304.939 457.565 316.108 456.904 325.785 448.648C335.463 440.391 343.652 429.823 345.637 429.905Z" fill="white"/>
<path d="M337.942 371.007C327.088 371.185 307.42 375.685 307.22 385.306C307.019 394.927 327.127 400.57 339.664 400.708C352.2 400.845 371.496 396.439 371.625 385.306C371.755 374.172 348.795 370.829 337.942 371.007Z" fill="white"/>
<path d="M245.058 415.619C245.154 412.86 242.993 410.545 240.234 410.45C237.474 410.355 235.159 412.515 235.064 415.275L245.058 415.619ZM464 415.418C463.984 412.656 461.732 410.431 458.971 410.447C456.209 410.463 453.984 412.715 454 415.476L464 415.418ZM235.064 415.275C234.823 422.272 235.153 431.11 237.907 439.27C240.706 447.565 246.11 455.395 255.999 459.606L259.917 450.405C253.299 447.587 249.521 442.413 247.382 436.073C245.197 429.599 244.832 422.172 245.058 415.619L235.064 415.275ZM255.999 459.606C265.144 463.5 275.922 464.507 284.094 464.622C288.239 464.681 291.843 464.51 294.417 464.325C295.706 464.232 296.742 464.135 297.464 464.06C297.826 464.022 298.109 463.99 298.307 463.967C298.406 463.955 298.484 463.946 298.539 463.939C298.567 463.935 298.589 463.933 298.605 463.931C298.613 463.93 298.62 463.929 298.626 463.928C298.628 463.928 298.631 463.927 298.633 463.927C298.634 463.927 298.635 463.927 298.635 463.927C298.636 463.927 298.637 463.926 297.991 458.968C297.345 454.01 297.346 454.01 297.347 454.01C297.347 454.01 297.348 454.01 297.348 454.01C297.348 454.01 297.349 454.01 297.348 454.01C297.348 454.01 297.346 454.01 297.343 454.011C297.337 454.011 297.325 454.013 297.308 454.015C297.273 454.019 297.216 454.026 297.139 454.035C296.984 454.054 296.746 454.08 296.432 454.113C295.803 454.178 294.872 454.266 293.698 454.351C291.344 454.52 288.035 454.677 284.235 454.623C276.516 454.514 267.278 453.54 259.917 450.405L255.999 459.606ZM345.429 434.901C344.577 434.866 344.024 434.594 343.973 434.57C343.846 434.51 343.829 434.488 343.953 434.571C344.201 434.736 344.619 435.055 345.253 435.586C346.52 436.649 348.134 438.122 350.168 439.945C354.099 443.467 359.317 448.039 364.71 451.465L370.072 443.024C365.456 440.092 360.79 436.035 356.842 432.498C354.937 430.791 353.113 429.127 351.679 427.924C350.962 427.324 350.214 426.727 349.509 426.256C349.157 426.021 348.716 425.749 348.223 425.518C347.807 425.322 346.944 424.955 345.845 424.91L345.429 434.901ZM364.71 451.465C370.51 455.149 379.637 457.753 386.72 459.41C390.378 460.265 393.705 460.913 396.117 461.349C397.325 461.567 398.307 461.732 398.993 461.843C399.336 461.899 399.604 461.941 399.79 461.97C399.883 461.984 399.955 461.995 400.005 462.003C400.03 462.007 400.049 462.01 400.063 462.012C400.07 462.013 400.076 462.014 400.08 462.014C400.082 462.015 400.084 462.015 400.085 462.015C400.086 462.015 400.087 462.015 400.087 462.015C400.088 462.015 400.088 462.015 400.821 457.069C401.553 452.123 401.553 452.123 401.554 452.123C401.554 452.123 401.554 452.123 401.554 452.123C401.554 452.123 401.553 452.123 401.553 452.123C401.551 452.123 401.548 452.123 401.544 452.122C401.535 452.121 401.521 452.119 401.502 452.116C401.463 452.11 401.402 452.1 401.321 452.088C401.158 452.063 400.914 452.024 400.597 451.973C399.962 451.87 399.037 451.714 397.893 451.508C395.6 451.094 392.447 450.479 388.997 449.672C381.868 448.005 374.28 445.697 370.072 443.024L364.71 451.465ZM401.064 462.063C403.432 461.948 406.47 462.027 410.395 462.04C414.185 462.051 418.544 461.993 423.04 461.561C431.904 460.711 442.051 458.351 449.661 451.441L442.939 444.038C437.728 448.769 430.216 450.827 422.085 451.607C418.084 451.991 414.113 452.051 410.426 452.04C406.874 452.029 403.29 451.943 400.577 452.075L401.064 462.063ZM449.661 451.441C457.133 444.657 460.64 435.465 462.322 428.383C463.176 424.791 463.593 421.601 463.799 419.3C463.902 418.146 463.952 417.207 463.977 416.542C463.989 416.209 463.995 415.944 463.998 415.755C463.999 415.66 464 415.584 464 415.527C464 415.499 464 415.476 464 415.458C464 415.448 464 415.44 464 415.434C464 415.431 464 415.428 464 415.425C464 415.424 464 415.422 464 415.421C464 415.419 464 415.418 459 415.447C454 415.476 454 415.475 454 415.473C454 415.473 454 415.472 454 415.471C454 415.47 454 415.469 454 415.468C454 415.466 454 415.466 454 415.467C454 415.468 454 415.475 454 415.486C454 415.508 454 415.55 453.999 415.609C453.997 415.728 453.993 415.918 453.984 416.172C453.965 416.682 453.924 417.447 453.838 418.411C453.666 420.346 453.312 423.046 452.593 426.072C451.131 432.226 448.288 439.181 442.939 444.038L449.661 451.441ZM400.821 457.069C395.826 457.289 395.826 457.288 395.826 457.288L395.825 457.287C395.825 457.287 395.826 457.288 395.826 457.289C395.826 457.29 395.826 457.294 395.826 457.299C395.826 457.309 395.827 457.325 395.828 457.349C395.83 457.395 395.833 457.467 395.836 457.563C395.843 457.756 395.852 458.046 395.862 458.424C395.882 459.179 395.903 460.282 395.909 461.648C395.92 464.384 395.868 468.155 395.615 472.298C395.093 480.871 393.76 490.019 390.999 495.289L399.858 499.929C403.715 492.566 405.077 481.444 405.597 472.906C405.866 468.493 405.92 464.497 405.909 461.607C405.903 460.159 405.88 458.983 405.859 458.163C405.848 457.752 405.838 457.431 405.83 457.209C405.826 457.098 405.822 457.011 405.82 456.951C405.819 456.921 405.818 456.897 405.817 456.881C405.817 456.872 405.817 456.865 405.816 456.86C405.816 456.858 405.816 456.856 405.816 456.854C405.816 456.853 405.816 456.852 405.816 456.852C405.816 456.851 405.816 456.85 400.821 457.069ZM390.999 495.289C388.014 500.988 382.308 508.375 374.989 514.386C367.645 520.417 359.176 524.662 350.66 524.978L351.031 534.971C362.532 534.544 373.045 528.922 381.335 522.114C389.649 515.287 396.226 506.862 399.858 499.929L390.999 495.289ZM350.66 524.978C341.999 525.299 333.418 522.065 325.869 517.269C318.333 512.48 312.21 506.374 308.591 501.605L300.625 507.649C304.917 513.305 311.905 520.244 320.506 525.709C329.094 531.166 339.675 535.393 351.031 534.971L350.66 524.978ZM308.591 501.605C307.32 499.928 306.093 496.698 305.132 492.077C304.207 487.624 303.647 482.497 303.322 477.56C302.999 472.643 302.915 468.027 302.913 464.633C302.912 462.939 302.931 461.557 302.95 460.604C302.96 460.127 302.969 459.758 302.977 459.511C302.98 459.388 302.983 459.295 302.985 459.234C302.986 459.204 302.987 459.182 302.987 459.168C302.988 459.161 302.988 459.156 302.988 459.154C302.988 459.152 302.988 459.151 302.988 459.151C302.988 459.151 302.988 459.151 302.988 459.151C302.988 459.151 302.988 459.152 297.991 458.968C292.995 458.785 292.995 458.786 292.995 458.786C292.995 458.787 292.995 458.788 292.994 458.789C292.994 458.791 292.994 458.793 292.994 458.796C292.994 458.802 292.994 458.81 292.993 458.82C292.993 458.84 292.992 458.868 292.99 458.905C292.988 458.979 292.985 459.085 292.981 459.222C292.973 459.496 292.962 459.894 292.952 460.401C292.932 461.416 292.912 462.868 292.913 464.64C292.915 468.178 293.002 473.022 293.344 478.217C293.685 483.391 294.285 489.027 295.342 494.112C296.364 499.03 297.942 504.113 300.625 507.649L308.591 501.605ZM337.86 366.008C331.944 366.105 323.741 367.356 316.838 369.931C313.394 371.216 309.964 372.943 307.295 375.267C304.593 377.62 302.31 380.929 302.221 385.202L312.218 385.41C312.23 384.872 312.48 384.011 313.861 382.809C315.276 381.578 317.479 380.365 320.333 379.3C326.028 377.175 333.086 376.087 338.024 376.006L337.86 366.008ZM302.221 385.202C302.13 389.533 304.373 392.969 307.06 395.435C309.727 397.883 313.221 399.769 316.806 401.205C323.99 404.082 332.767 405.633 339.609 405.708L339.718 395.708C334.023 395.646 326.479 394.306 320.524 391.922C317.54 390.726 315.262 389.389 313.822 388.068C312.404 386.766 312.209 385.889 312.218 385.41L302.221 385.202ZM339.609 405.708C346.359 405.782 354.973 404.652 362.1 401.897C368.794 399.31 376.522 394.283 376.625 385.364L366.626 385.248C366.6 387.462 364.615 390.205 358.495 392.57C352.808 394.767 345.505 395.772 339.718 395.708L339.609 405.708ZM376.625 385.364C376.68 380.606 374.186 376.986 371.1 374.473C368.097 372.026 364.22 370.334 360.389 369.141C352.693 366.744 343.692 365.912 337.86 366.008L338.024 376.006C343.044 375.924 350.95 376.675 357.415 378.689C360.664 379.701 363.182 380.92 364.786 382.227C366.308 383.466 366.635 384.439 366.626 385.248L376.625 385.364ZM298.981 463.869C305.154 462.622 318.098 461.778 329.031 452.451L322.54 444.844C314.117 452.03 304.725 452.507 297.001 454.067L298.981 463.869ZM329.031 452.451C334.097 448.129 338.74 443.231 342.209 439.606C343.994 437.74 345.391 436.291 346.454 435.309C346.992 434.81 347.305 434.563 347.441 434.47C347.508 434.424 347.416 434.497 347.195 434.593C347.027 434.667 346.374 434.94 345.429 434.901L345.845 424.91C344.651 424.86 343.702 425.207 343.191 425.43C342.628 425.676 342.146 425.975 341.78 426.227C341.051 426.728 340.323 427.357 339.663 427.967C338.33 429.201 336.703 430.895 334.983 432.693C331.441 436.395 327.152 440.91 322.54 444.844L329.031 452.451Z" fill="white"/>
<path d="M345.637 429.905C347.622 429.988 357.382 440.887 367.391 447.244C377.399 453.602 400.821 457.069 400.821 457.069C400.821 457.069 402.046 484.976 395.429 497.609C388.811 510.241 370.862 529.231 350.846 529.975C330.829 530.718 312.519 515.052 304.608 504.627C296.698 494.202 297.991 458.968 297.991 458.968C304.939 457.565 316.108 456.904 325.785 448.648C335.463 440.391 343.652 429.823 345.637 429.905Z" fill="#F40430"/>
<path d="M337.942 371.007C327.088 371.185 307.42 375.685 307.22 385.306C307.019 394.927 327.127 400.57 339.664 400.708C352.2 400.845 371.496 396.439 371.625 385.306C371.755 374.172 348.795 370.829 337.942 371.007Z" fill="black"/>
<path d="M245.058 415.619C245.154 412.86 242.993 410.545 240.234 410.45C237.474 410.355 235.159 412.515 235.064 415.275L245.058 415.619ZM464 415.418C463.984 412.656 461.732 410.431 458.971 410.447C456.209 410.463 453.984 412.715 454 415.476L464 415.418ZM235.064 415.275C234.823 422.272 235.153 431.11 237.907 439.27C240.706 447.565 246.11 455.395 255.999 459.606L259.917 450.405C253.299 447.587 249.521 442.413 247.382 436.073C245.197 429.599 244.832 422.172 245.058 415.619L235.064 415.275ZM255.999 459.606C265.144 463.5 275.922 464.507 284.094 464.622C288.239 464.681 291.843 464.51 294.417 464.325C295.706 464.232 296.742 464.135 297.464 464.06C297.826 464.022 298.109 463.99 298.307 463.967C298.406 463.955 298.484 463.946 298.539 463.939C298.567 463.935 298.589 463.933 298.605 463.931C298.613 463.93 298.62 463.929 298.626 463.928C298.628 463.928 298.631 463.927 298.633 463.927C298.634 463.927 298.635 463.927 298.635 463.927C298.636 463.927 298.637 463.926 297.991 458.968C297.345 454.01 297.346 454.01 297.347 454.01C297.347 454.01 297.348 454.01 297.348 454.01C297.348 454.01 297.349 454.01 297.348 454.01C297.348 454.01 297.346 454.01 297.343 454.011C297.337 454.011 297.325 454.013 297.308 454.015C297.273 454.019 297.216 454.026 297.139 454.035C296.984 454.054 296.746 454.08 296.432 454.113C295.803 454.178 294.872 454.266 293.698 454.351C291.344 454.52 288.035 454.677 284.235 454.623C276.516 454.514 267.278 453.54 259.917 450.405L255.999 459.606ZM345.429 434.901C344.577 434.866 344.024 434.594 343.973 434.57C343.846 434.51 343.829 434.488 343.953 434.571C344.201 434.736 344.619 435.055 345.253 435.586C346.52 436.649 348.134 438.122 350.168 439.945C354.099 443.467 359.317 448.039 364.71 451.465L370.072 443.024C365.456 440.092 360.79 436.035 356.842 432.498C354.937 430.791 353.113 429.127 351.679 427.924C350.962 427.324 350.214 426.727 349.509 426.256C349.157 426.021 348.716 425.749 348.223 425.518C347.807 425.322 346.944 424.955 345.845 424.91L345.429 434.901ZM364.71 451.465C370.51 455.149 379.637 457.753 386.72 459.409C390.378 460.265 393.705 460.913 396.117 461.349C397.325 461.567 398.307 461.732 398.993 461.843C399.336 461.899 399.604 461.941 399.79 461.97C399.883 461.984 399.955 461.995 400.005 462.003C400.03 462.007 400.049 462.01 400.063 462.012C400.07 462.013 400.076 462.014 400.08 462.014C400.082 462.015 400.084 462.015 400.085 462.015C400.086 462.015 400.087 462.015 400.087 462.015C400.088 462.015 400.088 462.015 400.821 457.069C401.553 452.123 401.553 452.123 401.554 452.123C401.554 452.123 401.554 452.123 401.554 452.123C401.554 452.123 401.553 452.123 401.553 452.123C401.551 452.123 401.548 452.123 401.544 452.122C401.535 452.121 401.521 452.119 401.502 452.116C401.463 452.11 401.402 452.1 401.321 452.088C401.158 452.063 400.914 452.024 400.597 451.973C399.962 451.87 399.037 451.714 397.893 451.508C395.6 451.094 392.447 450.479 388.997 449.672C381.868 448.005 374.28 445.697 370.072 443.024L364.71 451.465ZM401.064 462.063C403.432 461.948 406.47 462.027 410.395 462.04C414.185 462.051 418.544 461.993 423.04 461.561C431.904 460.711 442.051 458.351 449.661 451.441L442.939 444.038C437.728 448.769 430.216 450.827 422.085 451.607C418.084 451.991 414.113 452.051 410.426 452.04C406.874 452.029 403.29 451.943 400.577 452.075L401.064 462.063ZM449.661 451.441C457.133 444.657 460.64 435.465 462.322 428.383C463.176 424.791 463.593 421.601 463.799 419.3C463.902 418.146 463.952 417.207 463.977 416.542C463.989 416.209 463.995 415.944 463.998 415.755C463.999 415.66 464 415.584 464 415.527C464 415.499 464 415.476 464 415.458C464 415.448 464 415.44 464 415.434C464 415.431 464 415.428 464 415.425C464 415.424 464 415.422 464 415.421C464 415.419 464 415.418 459 415.447C454 415.476 454 415.475 454 415.473C454 415.473 454 415.472 454 415.471C454 415.47 454 415.469 454 415.468C454 415.466 454 415.466 454 415.467C454 415.468 454 415.475 454 415.486C454 415.508 454 415.55 453.999 415.609C453.997 415.727 453.993 415.918 453.984 416.172C453.965 416.682 453.924 417.447 453.838 418.411C453.666 420.346 453.312 423.046 452.593 426.072C451.131 432.226 448.288 439.181 442.939 444.038L449.661 451.441ZM400.821 457.069C395.826 457.289 395.826 457.288 395.825 457.288C395.825 457.288 395.825 457.287 395.825 457.287C395.825 457.287 395.826 457.288 395.826 457.289C395.826 457.29 395.826 457.294 395.826 457.299C395.826 457.309 395.827 457.325 395.828 457.349C395.83 457.395 395.833 457.467 395.836 457.563C395.843 457.756 395.852 458.046 395.862 458.424C395.882 459.179 395.903 460.282 395.909 461.648C395.92 464.384 395.868 468.155 395.615 472.298C395.093 480.871 393.76 490.019 390.999 495.289L399.858 499.929C403.715 492.566 405.077 481.444 405.597 472.906C405.866 468.493 405.92 464.497 405.909 461.607C405.903 460.159 405.88 458.983 405.859 458.163C405.848 457.752 405.838 457.431 405.83 457.209C405.826 457.098 405.822 457.011 405.82 456.951C405.819 456.921 405.818 456.897 405.817 456.881C405.817 456.872 405.817 456.865 405.816 456.86C405.816 456.858 405.816 456.856 405.816 456.854C405.816 456.853 405.816 456.852 405.816 456.852C405.816 456.851 405.816 456.85 400.821 457.069ZM390.999 495.289C388.014 500.988 382.308 508.375 374.989 514.386C367.645 520.417 359.176 524.662 350.66 524.978L351.031 534.971C362.532 534.544 373.045 528.922 381.335 522.114C389.649 515.287 396.226 506.862 399.858 499.929L390.999 495.289ZM350.66 524.978C341.999 525.299 333.418 522.065 325.869 517.269C318.333 512.48 312.21 506.374 308.591 501.605L300.625 507.649C304.917 513.305 311.905 520.244 320.506 525.709C329.094 531.166 339.675 535.393 351.031 534.971L350.66 524.978ZM308.591 501.605C307.32 499.928 306.093 496.698 305.132 492.077C304.207 487.624 303.647 482.497 303.322 477.56C302.999 472.643 302.915 468.027 302.913 464.633C302.912 462.939 302.931 461.557 302.95 460.604C302.96 460.127 302.969 459.758 302.977 459.511C302.98 459.388 302.983 459.295 302.985 459.234C302.986 459.204 302.987 459.182 302.987 459.168C302.988 459.161 302.988 459.156 302.988 459.154C302.988 459.152 302.988 459.151 302.988 459.151C302.988 459.151 302.988 459.151 302.988 459.151C302.988 459.151 302.988 459.152 297.991 458.968C292.995 458.785 292.995 458.786 292.995 458.786C292.995 458.787 292.995 458.788 292.994 458.789C292.994 458.791 292.994 458.793 292.994 458.796C292.994 458.802 292.994 458.81 292.993 458.82C292.993 458.84 292.992 458.868 292.99 458.905C292.988 458.979 292.985 459.085 292.981 459.222C292.973 459.496 292.962 459.894 292.952 460.401C292.932 461.416 292.912 462.868 292.913 464.64C292.915 468.178 293.002 473.022 293.344 478.217C293.685 483.391 294.285 489.027 295.342 494.112C296.364 499.03 297.942 504.113 300.625 507.649L308.591 501.605ZM337.86 366.008C331.944 366.105 323.741 367.356 316.838 369.931C313.394 371.216 309.964 372.943 307.295 375.267C304.593 377.62 302.31 380.929 302.221 385.202L312.219 385.41C312.23 384.872 312.48 384.011 313.861 382.809C315.276 381.578 317.479 380.365 320.333 379.3C326.028 377.175 333.086 376.087 338.024 376.006L337.86 366.008ZM302.221 385.202C302.13 389.533 304.373 392.969 307.06 395.435C309.727 397.883 313.221 399.769 316.806 401.205C323.99 404.082 332.767 405.633 339.609 405.708L339.718 395.708C334.023 395.646 326.479 394.306 320.524 391.922C317.54 390.726 315.262 389.389 313.822 388.068C312.404 386.766 312.209 385.889 312.219 385.41L302.221 385.202ZM339.609 405.708C346.359 405.782 354.973 404.652 362.1 401.897C368.794 399.31 376.522 394.283 376.625 385.364L366.626 385.248C366.6 387.462 364.615 390.205 358.495 392.57C352.808 394.767 345.505 395.772 339.718 395.708L339.609 405.708ZM376.625 385.364C376.68 380.606 374.186 376.986 371.1 374.473C368.097 372.026 364.22 370.334 360.389 369.141C352.693 366.744 343.692 365.912 337.86 366.008L338.024 376.006C343.044 375.924 350.95 376.675 357.415 378.689C360.664 379.701 363.182 380.92 364.786 382.227C366.308 383.466 366.635 384.439 366.626 385.248L376.625 385.364ZM298.981 463.869C305.154 462.622 318.098 461.778 329.031 452.451L322.54 444.844C314.117 452.03 304.725 452.507 297.001 454.067L298.981 463.869ZM329.031 452.451C334.097 448.129 338.74 443.231 342.209 439.606C343.994 437.74 345.391 436.291 346.454 435.309C346.992 434.81 347.305 434.563 347.441 434.47C347.508 434.424 347.416 434.497 347.195 434.593C347.027 434.667 346.374 434.94 345.429 434.901L345.845 424.91C344.651 424.86 343.702 425.207 343.191 425.43C342.628 425.676 342.146 425.975 341.78 426.227C341.051 426.728 340.323 427.357 339.663 427.967C338.33 429.201 336.703 430.895 334.983 432.693C331.441 436.395 327.152 440.91 322.54 444.844L329.031 452.451Z" fill="black"/>
</svg>
