<svg width="700" height="900" viewBox="0 0 700 900" fill="none" xmlns="http://www.w3.org/2000/svg">
<path d="M234.466 483.196C234.466 483.196 245.104 508.884 250.608 509.178C256.111 509.471 267.537 483.004 267.537 483.004C267.537 483.004 257.07 485.225 251.369 485.225C245.667 485.225 234.466 483.196 234.466 483.196Z" fill="white"/>
<path d="M418.685 483.572C418.685 483.572 432.827 510.054 438.015 510C443.202 509.945 455.679 483.004 455.679 483.004C455.679 483.004 444.564 485.225 438.015 485.339C431.465 485.454 418.685 483.572 418.685 483.572Z" fill="white"/>
<path d="M210.229 462.029C208.264 460.088 205.098 460.108 203.158 462.073C201.217 464.038 201.237 467.203 203.202 469.144L210.229 462.029ZM342.65 471.311L342.632 476.311L342.65 471.311ZM488.272 465.796C490.313 463.935 490.458 460.772 488.597 458.732C486.735 456.692 483.573 456.547 481.533 458.408L488.272 465.796ZM516.46 407.003C514.022 408.299 513.096 411.326 514.392 413.765C515.688 416.203 518.715 417.129 521.154 415.833L516.46 407.003ZM677.25 390.026C677.264 387.265 675.037 385.015 672.276 385C669.515 384.986 667.264 387.212 667.25 389.974L677.25 390.026ZM169.286 421.392C171.083 423.489 174.239 423.733 176.337 421.937C178.434 420.14 178.678 416.984 176.882 414.886L169.286 421.392ZM34.2118 402.084C34.4887 399.336 32.4859 396.885 29.7383 396.608C26.9908 396.331 24.5391 398.334 24.2622 401.081L34.2118 402.084ZM267.537 483.004L266.558 478.1L266.528 478.106L266.499 478.113L267.537 483.004ZM350.893 435.083C350.893 437.844 353.131 440.083 355.893 440.083C358.654 440.083 360.893 437.844 360.893 435.083H350.893ZM367.781 431.804C370.359 432.795 373.252 431.51 374.243 428.932C375.234 426.355 373.948 423.462 371.371 422.471L367.781 431.804ZM320.914 435.684C321.246 438.426 323.738 440.379 326.479 440.046C329.22 439.714 331.173 437.222 330.841 434.481L320.914 435.684ZM309.057 423.41C306.592 424.655 305.603 427.663 306.848 430.127C308.093 432.592 311.101 433.581 313.565 432.336L309.057 423.41ZM521.154 415.833C528.568 411.892 535.759 406.029 551.92 404.807L551.166 394.835C532.389 396.255 522.956 403.55 516.46 407.003L521.154 415.833ZM551.92 404.807C558.534 404.307 565.621 408.337 573.852 414.776C578.027 418.042 581.582 421.153 585.83 424.559C589.808 427.747 593.989 430.846 598.234 432.985L602.734 424.054C599.47 422.41 595.962 419.865 592.085 416.757C588.478 413.865 584.012 410.027 580.013 406.899C571.896 400.55 562.021 394.014 551.166 394.835L551.92 404.807ZM598.234 432.985C614.392 441.126 630.404 442.508 647.34 436.436L643.966 427.023C629.781 432.108 616.612 431.047 602.734 424.054L598.234 432.985ZM647.34 436.436C656.49 433.156 663.919 425.915 669.019 417.582C674.13 409.23 677.201 399.309 677.25 390.026L667.25 389.974C667.212 397.221 664.765 405.376 660.489 412.362C656.203 419.366 650.377 424.725 643.966 427.023L647.34 436.436ZM173.084 418.139C176.882 414.886 176.88 414.885 176.879 414.883C176.878 414.883 176.877 414.881 176.876 414.88C176.874 414.878 176.872 414.875 176.87 414.873C176.865 414.867 176.859 414.861 176.853 414.854C176.841 414.84 176.826 414.822 176.808 414.802C176.772 414.761 176.725 414.708 176.667 414.643C176.55 414.514 176.389 414.339 176.185 414.124C175.776 413.695 175.191 413.106 174.44 412.411C172.942 411.025 170.759 409.199 167.969 407.379C162.411 403.754 154.227 400.021 144.138 400.106L144.221 410.105C151.748 410.042 158.016 412.827 162.506 415.755C164.74 417.212 166.481 418.672 167.65 419.753C168.232 420.291 168.667 420.731 168.944 421.022C169.083 421.167 169.181 421.275 169.239 421.339C169.268 421.371 169.286 421.391 169.294 421.401C169.298 421.405 169.3 421.407 169.298 421.405C169.298 421.404 169.296 421.403 169.294 421.401C169.293 421.4 169.292 421.398 169.291 421.397C169.29 421.396 169.289 421.395 169.289 421.394C169.288 421.393 169.286 421.392 173.084 418.139ZM144.138 400.106C124.339 400.271 108.41 413.226 97.8452 425.3L105.371 431.885C115.358 420.472 128.788 410.234 144.221 410.105L144.138 400.106ZM97.8452 425.3C93.1524 430.664 89.0527 433.375 84.8093 434.925C80.4054 436.533 75.5005 437.033 68.7478 437.4L69.2905 447.385C76.0432 447.018 82.2949 446.489 88.2402 444.318C94.3459 442.088 99.788 438.266 105.371 431.885L97.8452 425.3ZM68.7478 437.4C57.0386 438.036 45.5329 431.411 40.4387 424.577L32.4212 430.554C39.3644 439.868 53.9889 448.216 69.2905 447.385L68.7478 437.4ZM40.4387 424.577C35.1667 417.505 33.3273 410.86 34.2118 402.084L24.2622 401.081C23.1271 412.344 25.6558 421.478 32.4212 430.554L40.4387 424.577ZM342.632 476.311C357.101 476.365 370.537 478.513 383.056 481.11C395.318 483.654 407.375 486.799 417.883 488.507L419.487 478.636C409.177 476.961 398.164 474.031 385.087 471.318C372.266 468.659 358.093 466.368 342.668 466.312L342.632 476.311ZM418.685 483.572C414.275 485.927 414.275 485.927 414.275 485.928C414.275 485.928 414.276 485.929 414.276 485.929C414.277 485.931 414.277 485.932 414.279 485.934C414.281 485.939 414.284 485.944 414.288 485.951C414.295 485.966 414.307 485.987 414.321 486.014C414.35 486.068 414.392 486.146 414.447 486.247C414.556 486.449 414.715 486.742 414.918 487.113C415.325 487.854 415.909 488.91 416.626 490.174C418.056 492.698 420.029 496.081 422.179 499.479C424.309 502.846 426.698 506.364 428.959 509.088C430.08 510.437 431.295 511.745 432.538 512.757C433.556 513.586 435.541 515.026 438.067 514.999L437.962 505C439.191 504.987 439.6 505.611 438.851 505.002C438.329 504.577 437.588 503.825 436.653 502.699C434.803 500.472 432.684 497.38 430.63 494.133C428.596 490.917 426.709 487.683 425.326 485.243C424.636 484.026 424.075 483.013 423.687 482.306C423.494 481.953 423.344 481.677 423.244 481.491C423.193 481.398 423.155 481.328 423.13 481.281C423.118 481.258 423.109 481.241 423.103 481.23C423.1 481.225 423.098 481.221 423.097 481.218C423.096 481.217 423.096 481.217 423.095 481.216C423.095 481.216 423.095 481.216 423.095 481.216C423.095 481.216 423.096 481.216 418.685 483.572ZM457.383 487.704C468.161 483.796 478.595 474.624 488.272 465.796L481.533 458.408C471.541 467.523 462.556 475.191 453.974 478.303L457.383 487.704ZM438.067 514.999C440.641 514.972 442.59 513.442 443.578 512.567C444.779 511.504 445.924 510.145 446.964 508.758C449.064 505.956 451.237 502.355 453.157 498.92C455.095 495.452 456.857 492.003 458.129 489.432C458.767 488.144 459.286 487.069 459.646 486.313C459.826 485.935 459.967 485.637 460.063 485.431C460.112 485.328 460.149 485.249 460.175 485.194C460.187 485.166 460.197 485.145 460.204 485.13C460.208 485.123 460.21 485.117 460.212 485.113C460.213 485.11 460.214 485.109 460.215 485.107C460.215 485.107 460.215 485.106 460.215 485.106C460.216 485.105 460.216 485.105 455.679 483.004C451.142 480.902 451.142 480.902 451.142 480.902C451.142 480.902 451.142 480.902 451.142 480.902C451.142 480.903 451.141 480.903 451.141 480.905C451.14 480.907 451.138 480.911 451.135 480.916C451.13 480.927 451.122 480.945 451.111 480.968C451.089 481.015 451.056 481.087 451.012 481.181C450.923 481.37 450.79 481.651 450.619 482.01C450.277 482.727 449.78 483.758 449.167 484.996C447.938 487.478 446.257 490.768 444.427 494.042C442.579 497.35 440.661 500.494 438.962 502.759C438.103 503.906 437.422 504.661 436.948 505.081C436.26 505.69 436.685 505.013 437.962 505L438.067 514.999ZM203.202 469.144C211.806 477.642 220.684 484.692 233.176 488.026L235.755 478.365C225.737 475.69 218.356 470.056 210.229 462.029L203.202 469.144ZM234.466 483.196C229.846 485.109 229.846 485.109 229.847 485.11C229.847 485.11 229.847 485.111 229.847 485.112C229.848 485.113 229.849 485.115 229.85 485.117C229.851 485.121 229.854 485.127 229.857 485.134C229.863 485.148 229.871 485.169 229.882 485.196C229.905 485.249 229.937 485.326 229.979 485.425C230.062 485.623 230.183 485.909 230.339 486.272C230.65 486.996 231.098 488.027 231.653 489.262C232.759 491.726 234.302 495.037 236.034 498.378C237.746 501.682 239.725 505.176 241.712 507.924C242.698 509.287 243.806 510.636 245.003 511.706C246.056 512.647 247.905 514.041 250.342 514.171L250.874 504.185C251.935 504.242 252.248 504.769 251.665 504.249C251.227 503.857 250.601 503.151 249.815 502.065C248.26 499.913 246.547 496.931 244.912 493.776C243.296 490.658 241.836 487.528 240.775 485.166C240.247 483.989 239.821 483.01 239.529 482.328C239.382 481.988 239.27 481.722 239.195 481.544C239.157 481.454 239.129 481.387 239.111 481.343C239.101 481.321 239.095 481.305 239.09 481.295C239.088 481.29 239.087 481.286 239.086 481.284C239.086 481.283 239.085 481.282 239.085 481.282C239.085 481.282 239.085 481.282 239.085 481.282C239.085 481.282 239.085 481.283 234.466 483.196ZM268.516 487.907C288.61 483.895 313.086 476.203 342.632 476.311L342.668 466.312C311.781 466.198 285.45 474.329 266.558 478.1L268.516 487.907ZM250.342 514.171C252.969 514.311 255.004 512.901 256.106 511.987C257.37 510.939 258.535 509.587 259.563 508.228C261.64 505.481 263.727 501.935 265.538 498.572C267.371 495.17 269.015 491.778 270.196 489.251C270.788 487.984 271.267 486.925 271.6 486.18C271.767 485.808 271.897 485.513 271.986 485.31C272.031 485.208 272.065 485.129 272.089 485.074C272.101 485.047 272.11 485.026 272.116 485.011C272.12 485.004 272.122 484.998 272.124 484.993C272.125 484.991 272.126 484.989 272.126 484.988C272.127 484.987 272.127 484.987 272.127 484.986C272.127 484.986 272.127 484.985 267.537 483.004C262.946 481.022 262.946 481.022 262.947 481.022C262.947 481.022 262.947 481.022 262.947 481.022C262.946 481.022 262.946 481.023 262.946 481.024C262.945 481.026 262.943 481.029 262.941 481.035C262.936 481.045 262.929 481.062 262.919 481.085C262.899 481.13 262.869 481.2 262.829 481.292C262.748 481.476 262.627 481.75 262.47 482.1C262.157 482.802 261.701 483.809 261.136 485.018C260.002 487.444 258.446 490.652 256.734 493.83C255.001 497.047 253.2 500.063 251.587 502.196C250.77 503.277 250.139 503.944 249.724 504.288C249.148 504.766 249.622 504.118 250.874 504.185L250.342 514.171ZM355.893 435.083C360.893 435.083 360.893 435.085 360.893 435.087C360.893 435.088 360.893 435.09 360.893 435.092C360.893 435.095 360.893 435.097 360.893 435.1C360.893 435.106 360.893 435.111 360.893 435.116C360.893 435.127 360.892 435.136 360.892 435.145C360.892 435.162 360.892 435.175 360.891 435.186C360.891 435.206 360.89 435.214 360.89 435.21C360.891 435.201 360.895 435.148 360.907 435.059C360.932 434.878 360.99 434.576 361.114 434.217C361.357 433.515 361.833 432.638 362.842 431.891L356.889 423.855C353.925 426.051 352.415 428.779 351.664 430.946C351.292 432.021 351.101 432.97 351.003 433.681C350.953 434.038 350.925 434.341 350.911 434.577C350.903 434.696 350.899 434.798 350.896 434.882C350.895 434.925 350.894 434.963 350.893 434.996C350.893 435.013 350.893 435.028 350.893 435.043C350.893 435.05 350.893 435.057 350.893 435.064C350.893 435.067 350.893 435.07 350.893 435.073C350.893 435.075 350.893 435.077 350.893 435.078C350.893 435.08 350.893 435.083 355.893 435.083ZM362.842 431.891C363.403 431.475 364.366 431.249 365.736 431.379C366.36 431.439 366.921 431.56 367.322 431.668C367.519 431.721 367.665 431.767 367.748 431.794C367.789 431.808 367.814 431.817 367.82 431.819C367.824 431.82 367.822 431.82 367.816 431.817C367.812 431.816 367.808 431.814 367.802 431.812C367.799 431.811 367.796 431.81 367.793 431.809C367.791 431.808 367.789 431.807 367.787 431.806C367.786 431.806 367.785 431.806 367.784 431.805C367.783 431.805 367.781 431.804 369.576 427.137C371.371 422.471 371.37 422.47 371.368 422.47C371.367 422.469 371.366 422.469 371.365 422.468C371.362 422.467 371.36 422.466 371.358 422.466C371.353 422.464 371.347 422.462 371.342 422.46C371.331 422.455 371.318 422.451 371.304 422.445C371.275 422.435 371.241 422.422 371.201 422.408C371.122 422.379 371.019 422.343 370.896 422.302C370.649 422.221 370.316 422.118 369.913 422.009C369.114 421.795 367.992 421.549 366.685 421.424C364.193 421.187 360.3 421.329 356.889 423.855L362.842 431.891ZM325.877 435.083C330.841 434.481 330.841 434.479 330.841 434.477C330.84 434.476 330.84 434.474 330.84 434.472C330.84 434.469 330.839 434.466 330.839 434.463C330.838 434.456 330.837 434.45 330.836 434.443C330.834 434.429 330.832 434.413 330.83 434.397C330.826 434.364 330.82 434.325 330.814 434.282C330.801 434.196 330.784 434.091 330.761 433.968C330.716 433.722 330.649 433.403 330.552 433.029C330.358 432.285 330.035 431.287 329.502 430.184C328.432 427.971 326.441 425.207 322.885 423.411L318.375 432.336C319.478 432.893 320.111 433.735 320.5 434.538C320.696 434.943 320.811 435.306 320.874 435.546C320.904 435.663 320.92 435.742 320.925 435.771C320.928 435.786 320.928 435.787 320.926 435.773C320.924 435.766 320.923 435.755 320.921 435.741C320.92 435.733 320.919 435.725 320.918 435.716C320.917 435.711 320.916 435.706 320.916 435.701C320.915 435.698 320.915 435.696 320.915 435.693C320.915 435.691 320.914 435.689 320.914 435.689C320.914 435.686 320.914 435.684 325.877 435.083ZM322.885 423.411C319.316 421.607 315.822 421.651 313.394 422.06C312.168 422.266 311.147 422.575 310.415 422.839C310.047 422.972 309.743 423.096 309.515 423.196C309.401 423.246 309.305 423.29 309.228 423.327C309.19 423.345 309.157 423.361 309.128 423.375C309.114 423.382 309.101 423.388 309.089 423.394C309.083 423.397 309.077 423.4 309.072 423.403C309.069 423.404 309.067 423.405 309.064 423.406C309.063 423.407 309.061 423.408 309.06 423.408C309.059 423.409 309.057 423.41 311.311 427.873C313.565 432.336 313.564 432.337 313.562 432.338C313.561 432.338 313.56 432.339 313.559 432.34C313.556 432.341 313.554 432.342 313.552 432.343C313.548 432.345 313.544 432.347 313.54 432.349C313.533 432.352 313.527 432.355 313.521 432.358C313.511 432.363 313.504 432.367 313.501 432.368C313.495 432.371 313.503 432.367 313.526 432.357C313.571 432.337 313.668 432.296 313.809 432.245C314.097 432.141 314.532 432.009 315.054 431.921C316.12 431.741 317.286 431.785 318.375 432.336L322.885 423.411ZM234.466 483.196C233.575 488.116 233.575 488.116 233.575 488.116C233.575 488.116 233.576 488.116 233.576 488.116C233.577 488.116 233.577 488.116 233.578 488.116C233.58 488.117 233.583 488.117 233.586 488.118C233.593 488.119 233.602 488.121 233.614 488.123C233.638 488.127 233.672 488.133 233.716 488.141C233.805 488.157 233.933 488.179 234.097 488.208C234.426 488.266 234.898 488.347 235.482 488.444C236.647 488.639 238.263 488.899 240.065 489.159C243.568 489.665 248.118 490.225 251.369 490.225L251.369 480.225C248.918 480.225 245.016 479.77 241.494 479.261C239.782 479.014 238.242 478.767 237.129 478.581C236.573 478.488 236.125 478.411 235.819 478.357C235.666 478.331 235.548 478.31 235.47 478.296C235.431 478.289 235.401 478.284 235.382 478.28C235.373 478.279 235.366 478.277 235.362 478.277C235.36 478.276 235.358 478.276 235.357 478.276C235.357 478.276 235.357 478.276 235.357 478.276C235.357 478.276 235.357 478.276 235.357 478.276C235.357 478.276 235.357 478.276 234.466 483.196ZM251.369 490.225C254.674 490.225 259.079 489.602 262.413 489.046C264.133 488.759 265.665 488.473 266.767 488.259C267.319 488.151 267.766 488.061 268.077 487.998C268.232 487.966 268.354 487.941 268.438 487.923C268.48 487.915 268.513 487.908 268.536 487.903C268.547 487.901 268.556 487.899 268.563 487.897C268.566 487.897 268.569 487.896 268.571 487.896C268.572 487.895 268.572 487.895 268.573 487.895C268.574 487.895 268.574 487.895 268.574 487.895C268.574 487.895 268.575 487.895 267.537 483.004C266.499 478.113 266.499 478.113 266.499 478.112C266.499 478.112 266.5 478.112 266.5 478.112C266.5 478.112 266.5 478.112 266.499 478.113C266.499 478.113 266.498 478.113 266.496 478.113C266.492 478.114 266.486 478.115 266.478 478.117C266.46 478.121 266.434 478.126 266.398 478.134C266.326 478.149 266.217 478.171 266.075 478.2C265.792 478.258 265.376 478.342 264.858 478.443C263.819 478.645 262.378 478.914 260.768 479.182C257.444 479.737 253.765 480.225 251.369 480.225L251.369 490.225ZM418.685 483.572C417.956 488.518 417.957 488.518 417.957 488.518C417.957 488.518 417.957 488.518 417.958 488.518C417.958 488.519 417.959 488.519 417.96 488.519C417.962 488.519 417.965 488.52 417.969 488.52C417.976 488.521 417.986 488.523 418 488.525C418.026 488.528 418.065 488.534 418.115 488.541C418.215 488.556 418.36 488.577 418.546 488.603C418.919 488.656 419.455 488.73 420.119 488.819C421.443 488.997 423.28 489.234 425.329 489.467C429.337 489.922 434.464 490.402 438.102 490.339L437.927 480.34C435.016 480.391 430.478 479.988 426.459 479.531C424.494 479.307 422.726 479.08 421.45 478.909C420.813 478.823 420.299 478.751 419.947 478.702C419.772 478.677 419.636 478.657 419.545 478.644C419.5 478.638 419.466 478.633 419.444 478.629C419.433 478.628 419.425 478.627 419.42 478.626C419.417 478.626 419.415 478.625 419.414 478.625C419.414 478.625 419.414 478.625 419.414 478.625C419.413 478.625 419.414 478.625 419.413 478.625C419.414 478.625 419.414 478.625 418.685 483.572ZM438.102 490.339C441.753 490.275 446.466 489.64 450.085 489.067C451.933 488.774 453.568 488.486 454.742 488.27C455.33 488.162 455.804 488.073 456.133 488.009C456.298 487.978 456.427 487.952 456.516 487.935C456.56 487.926 456.594 487.919 456.618 487.915C456.63 487.912 456.64 487.91 456.646 487.909C456.65 487.908 456.653 487.908 456.655 487.908C456.656 487.907 456.656 487.907 456.657 487.907C456.657 487.907 456.658 487.907 456.658 487.907C456.658 487.907 456.659 487.907 455.679 483.004C454.699 478.101 454.699 478.101 454.7 478.101C454.7 478.101 454.7 478.1 454.7 478.1C454.7 478.1 454.699 478.101 454.699 478.101C454.698 478.101 454.697 478.101 454.695 478.101C454.691 478.102 454.684 478.104 454.675 478.105C454.657 478.109 454.628 478.115 454.589 478.122C454.512 478.137 454.396 478.16 454.244 478.189C453.94 478.248 453.494 478.332 452.937 478.435C451.823 478.639 450.27 478.913 448.521 479.19C444.945 479.756 440.826 480.289 437.927 480.34L438.102 490.339Z" fill="black"/>
</svg>
