<svg width="700" height="900" viewBox="0 0 700 900" fill="none" xmlns="http://www.w3.org/2000/svg">
<path d="M229.807 426.765C229.234 424.506 212.98 430.238 200.775 433.278C188.57 436.317 170.804 437.837 161.126 437.981C151.449 438.126 128.465 434.426 119.889 431.686C111.312 428.945 100.823 422.206 92.8064 420.903C84.79 419.601 79.0855 434.942 79.0845 441.817C79.0836 448.691 77.8559 459.474 84.789 468.881L84.8796 469.004C91.7781 478.365 98.1884 487.063 106.817 491.242C115.483 495.439 149.86 498.044 161.126 496.597C172.393 495.15 193.842 491.893 201.036 489.325C208.23 486.757 225.726 477.777 227.28 476.118C228.834 474.459 230.381 429.024 229.807 426.765Z" fill="#D6722E"/>
<path d="M463.824 420.218C463.679 417.575 484.367 426.588 497.387 428.622C510.407 430.656 525.81 433.897 542.445 431.427C559.08 428.958 579.488 423.016 591.194 416.611C602.9 410.207 607.213 404.959 609.831 404.033C612.45 403.106 622.077 422.014 622 434.746C621.923 447.478 618.38 458.437 614.76 465.227C611.141 472.018 595.584 483.825 585.418 485.136C575.253 486.448 565.087 487.605 550.839 487.759C536.592 487.914 519.033 486.584 508.174 485.136C497.315 483.689 478.5 478.336 476.753 476.416C475.005 474.497 463.968 422.862 463.824 420.218Z" fill="#D6722E"/>
<path d="M84.789 468.881C77.8559 459.474 79.0836 448.691 79.0845 441.817C79.0855 434.942 84.79 419.601 92.8064 420.903C100.823 422.206 111.312 428.945 119.889 431.686C128.465 434.426 151.449 438.126 161.126 437.981C170.804 437.837 188.57 436.317 200.775 433.278C212.98 430.238 229.234 424.506 229.807 426.765C230.381 429.024 228.834 474.459 227.28 476.118C225.726 477.777 208.23 486.757 201.036 489.325C193.842 491.893 172.393 495.15 161.126 496.597C149.86 498.044 115.483 495.439 106.817 491.242C98.1884 487.063 91.7781 478.365 84.8796 469.004M84.789 468.881L84.8796 469.004M84.789 468.881C84.8192 468.922 84.8494 468.963 84.8796 469.004M463.824 420.218C463.679 417.575 484.367 426.588 497.387 428.622C510.407 430.656 525.81 433.897 542.445 431.427C559.08 428.958 579.488 423.016 591.194 416.611C602.9 410.207 607.213 404.959 609.831 404.033C612.45 403.106 622.077 422.014 622 434.746C621.923 447.478 618.38 458.437 614.76 465.227C611.141 472.018 595.584 483.825 585.418 485.136C575.253 486.448 565.087 487.605 550.839 487.759C536.592 487.914 519.033 486.584 508.174 485.136C497.315 483.689 478.5 478.336 476.753 476.416C475.005 474.497 463.968 422.862 463.824 420.218Z" stroke="black" stroke-width="3" stroke-linecap="round"/>
</svg>
