<svg width="700" height="900" viewBox="0 0 700 900" fill="none" xmlns="http://www.w3.org/2000/svg">
<path d="M396.262 275.806C390.187 287.874 385.63 295.387 375.368 315.86C393.112 318.536 409.818 322.805 424.404 327.866C424.404 327.866 448.386 321.841 461.337 318.084C474.287 314.328 502.987 301.62 500.189 298.183C497.391 294.747 492.195 290.751 486.743 284.963C481.292 279.175 474.778 274.116 472.289 271.729C469.8 269.342 459.098 275.246 444.774 280.286C451.583 271.809 466.943 245.112 468.851 240.399C470.759 235.686 454.701 233.686 442.47 230.489C430.238 227.292 422.561 226.829 417.048 226.013C411.535 225.196 402.338 263.737 396.262 275.806Z" fill="#6F3A22"/>
<path d="M230.574 331.343C242.859 326.027 256.312 321.518 273.973 318.258C273.973 318.258 264.435 306.096 258.919 296.985C253.403 287.874 248.127 278.843 239.413 267.494C230.699 256.145 219.507 227.692 214.31 228.411C209.114 229.131 205.117 231.448 193.605 236.404C182.093 241.359 176.657 242.718 172.02 246.074C167.383 249.431 176.434 258.302 182.173 265.895C187.912 273.488 199.424 279.642 200.32 283.862C201.216 288.083 194.947 286.595 187.912 284.517C180.877 282.439 175.513 279.201 172.979 278.443C170.446 277.685 165.784 285.636 161.308 290.431C156.831 295.227 150.915 300.662 148.756 303.459C146.598 306.256 166.424 313.289 172.979 316.326C179.535 319.363 191.526 322.8 200.32 325.358C209.114 327.915 217.828 330.393 230.574 331.343Z" fill="#6F3A22"/>
<path d="M214.31 623.653C228.062 625.715 239.063 615.863 237.458 605.323C235.854 594.783 225.77 589.971 220.957 588.826C216.144 587.68 203.768 587.222 196.892 597.303C190.016 607.385 200.559 621.591 214.31 623.653Z" fill="#B81611"/>
<path d="M484.788 619.712C499.456 620.674 510.915 618.612 512.978 605.323C515.041 592.033 501.977 582.639 489.371 583.097C476.766 583.556 469.89 586.534 465.077 596.845C460.264 607.156 470.12 618.75 484.788 619.712Z" fill="#C1122A"/>
<path fill-rule="evenodd" clip-rule="evenodd" d="M355.452 673.994C381.514 674.227 428.632 668.12 452.802 662.08C476.972 656.039 521.954 635.231 533.536 623.653C545.117 612.075 567.776 584.555 568.951 556.7C570.126 528.845 549.817 521.462 550.152 511.394C550.488 501.326 544.613 442.763 528.332 414.069C512.051 385.375 481.671 355.674 453.641 340.494C445.454 336.06 435.547 331.732 424.404 327.866C409.818 322.805 393.112 318.536 375.368 315.86C360.262 313.58 344.403 312.455 328.457 312.977C306.228 313.705 288.648 315.55 273.973 318.258C256.312 321.518 242.859 326.027 230.574 331.343C208.083 341.076 179.894 365.52 167.641 382.636C155.389 399.751 145.645 431.688 141.113 454.174C136.581 476.659 139.266 512.904 141.113 520.287C142.959 527.671 130.874 540.927 130.035 558.882C129.196 576.837 143.424 601.07 159.073 615.599C174.722 630.127 197.509 647.816 220.84 655.871C244.17 663.925 260.283 666.508 285.292 669.966C310.301 673.424 329.389 673.76 355.452 673.994ZM237.458 605.323C239.063 615.863 228.062 625.715 214.31 623.653C200.559 621.591 190.016 607.385 196.892 597.303C203.768 587.222 216.144 587.68 220.957 588.826C225.77 589.971 235.854 594.783 237.458 605.323ZM512.978 605.323C510.915 618.612 499.456 620.674 484.788 619.712C470.12 618.75 460.264 607.156 465.077 596.845C469.89 586.534 476.766 583.556 489.371 583.097C501.977 582.639 515.041 592.033 512.978 605.323Z" fill="#D6722E"/>
<path d="M453.641 340.494L452.927 341.813L452.927 341.813L453.641 340.494ZM328.457 312.977L328.408 311.478L328.457 312.977ZM375.368 315.86L375.145 317.343L375.368 315.86ZM436.842 282.398C436.033 282.219 435.232 282.73 435.054 283.539C434.875 284.347 435.385 285.148 436.194 285.327L436.842 282.398ZM273.973 318.258L274.246 319.733L273.973 318.258ZM355.438 675.493C381.64 675.728 428.885 669.603 453.166 663.535L452.438 660.624C428.38 666.637 381.389 672.726 355.465 672.494L355.438 675.493ZM453.166 663.535C465.384 660.481 482.772 653.724 498.529 646.3C506.416 642.583 513.923 638.687 520.196 634.984C526.441 631.299 531.56 627.749 534.596 624.714L532.475 622.592C529.72 625.347 524.874 628.74 518.672 632.401C512.498 636.044 505.077 639.898 497.25 643.586C481.578 650.97 464.389 657.637 452.438 660.624L453.166 663.535ZM534.596 624.714C540.449 618.863 549.089 608.997 556.423 597.066C563.748 585.152 569.847 571.053 570.45 556.764L567.452 556.637C566.88 570.203 561.062 583.791 553.868 595.495C546.684 607.182 538.203 616.865 532.475 622.592L534.596 624.714ZM570.45 556.764C571.056 542.393 566.095 533.253 561.071 526.483C559.825 524.805 558.576 523.272 557.425 521.861C556.265 520.439 555.217 519.154 554.329 517.925C552.532 515.439 551.585 513.438 551.651 511.444L548.653 511.344C548.552 514.384 550.018 517.082 551.897 519.682C552.847 520.996 553.954 522.352 555.1 523.757C556.255 525.174 557.463 526.656 558.662 528.271C563.414 534.674 568.021 543.153 567.452 556.637L570.45 556.764ZM551.651 511.444C551.825 506.252 550.418 488.971 546.95 469.454C543.484 449.944 537.912 427.913 529.637 413.329L527.028 414.809C535.034 428.919 540.539 450.517 543.997 469.979C547.453 489.433 548.816 506.468 548.653 511.344L551.651 511.444ZM529.637 413.329C513.219 384.393 482.635 354.49 454.356 339.175L452.927 341.813C480.708 356.858 510.884 386.357 527.028 414.809L529.637 413.329ZM229.979 329.967C218.554 334.91 205.76 343.55 194.31 353.067C182.858 362.585 172.646 373.067 166.422 381.762L168.861 383.509C174.889 375.088 184.898 364.79 196.227 355.374C207.557 345.957 220.104 337.508 231.17 332.72L229.979 329.967ZM166.422 381.762C160.173 390.492 154.617 402.911 150.066 415.895C145.507 428.9 141.921 442.573 139.642 453.877L142.583 454.47C144.837 443.289 148.388 429.751 152.897 416.887C157.414 404.002 162.857 391.895 168.861 383.509L166.422 381.762ZM139.642 453.877C137.343 465.286 136.885 480.102 137.221 492.933C137.557 505.732 138.691 516.785 139.658 520.651L142.568 519.924C141.689 516.407 140.556 505.646 140.22 492.855C139.886 480.096 140.351 465.547 142.583 454.47L139.642 453.877ZM139.658 520.651C140.008 522.052 139.728 523.912 138.861 526.417C138.003 528.898 136.68 531.721 135.212 535.009C132.31 541.503 128.971 549.53 128.537 558.812L131.534 558.952C131.939 550.279 135.061 542.7 137.951 536.232C139.377 533.038 140.782 530.04 141.696 527.398C142.602 524.78 143.141 522.214 142.568 519.924L139.658 520.651ZM128.537 558.812C128.1 568.171 131.579 578.998 137.048 589.232C142.532 599.492 150.102 609.317 158.052 616.698L160.093 614.499C152.395 607.352 145.026 597.795 139.694 587.818C134.347 577.814 131.132 567.547 131.534 558.952L128.537 558.812ZM158.052 616.698C173.751 631.272 196.722 649.132 220.35 657.289L221.329 654.453C198.296 646.501 175.693 628.982 160.093 614.499L158.052 616.698ZM220.35 657.289C243.822 665.392 260.052 667.991 285.087 671.452L285.498 668.48C260.515 665.026 244.518 662.459 221.329 654.453L220.35 657.289ZM285.087 671.452C310.199 674.924 329.37 675.26 355.438 675.493L355.465 672.494C329.409 672.26 310.404 671.924 285.498 668.48L285.087 671.452ZM375.592 314.376C360.406 312.085 344.455 310.953 328.408 311.478L328.507 314.476C344.35 313.958 360.118 315.076 375.145 317.343L375.592 314.376ZM376.709 316.532C381.832 306.311 385.53 299.327 388.708 293.388C391.884 287.452 394.554 282.535 397.602 276.48L394.923 275.131C391.895 281.144 389.249 286.018 386.062 291.973C382.877 297.926 379.166 304.935 374.028 315.187L376.709 316.532ZM397.602 276.48C399.174 273.357 400.919 268.591 402.718 263.302C403.622 260.645 404.548 257.833 405.48 255.001C406.413 252.166 407.352 249.312 408.286 246.559C410.16 241.038 411.993 235.992 413.686 232.389C414.537 230.578 415.314 229.216 415.997 228.354C416.339 227.922 416.606 227.682 416.787 227.564C416.959 227.453 416.952 227.515 416.828 227.497L417.267 224.529C416.454 224.409 415.73 224.676 415.158 225.045C414.596 225.409 414.094 225.924 413.645 226.492C412.746 227.628 411.852 229.238 410.971 231.113C409.199 234.884 407.319 240.074 405.446 245.595C404.506 248.363 403.562 251.231 402.63 254.063C401.698 256.898 400.776 259.696 399.878 262.336C398.072 267.643 396.388 272.22 394.923 275.131L397.602 276.48ZM467.461 239.836C466.558 242.066 462.309 249.812 457.36 258.167C452.424 266.5 446.933 275.203 443.605 279.346L445.944 281.225C449.425 276.891 455.018 268.008 459.941 259.695C464.852 251.404 469.236 243.445 470.242 240.962L467.461 239.836ZM443.979 279.014C440.856 280.967 438.911 281.794 437.806 282.139C437.257 282.31 436.931 282.358 436.783 282.37C436.71 282.376 436.682 282.374 436.694 282.375C436.7 282.375 436.716 282.376 436.741 282.38C436.754 282.381 436.768 282.383 436.785 282.386C436.794 282.388 436.803 282.39 436.812 282.391C436.817 282.392 436.822 282.393 436.827 282.394C436.829 282.395 436.832 282.396 436.834 282.396C436.836 282.396 436.837 282.397 436.838 282.397C436.84 282.397 436.842 282.398 436.518 283.862C436.194 285.327 436.196 285.327 436.198 285.328C436.199 285.328 436.201 285.328 436.202 285.329C436.205 285.329 436.208 285.33 436.21 285.33C436.216 285.332 436.221 285.333 436.227 285.334C436.238 285.336 436.25 285.338 436.262 285.34C436.287 285.345 436.313 285.349 436.34 285.353C436.396 285.36 436.458 285.366 436.528 285.37C436.668 285.378 436.836 285.377 437.038 285.359C437.441 285.325 437.983 285.226 438.7 285.003C440.128 284.557 442.312 283.595 445.57 281.557L443.979 279.014ZM445.272 281.701C452.426 279.184 458.848 276.385 463.5 274.625C465.883 273.724 467.795 273.094 469.231 272.824C469.948 272.689 470.468 272.66 470.827 272.697C471 272.714 471.11 272.745 471.174 272.771C471.205 272.783 471.225 272.794 471.235 272.8C471.246 272.807 471.25 272.811 471.251 272.812L473.327 270.646C472.696 270.042 471.897 269.791 471.132 269.712C470.373 269.635 469.537 269.714 468.677 269.876C466.959 270.199 464.834 270.913 462.439 271.819C457.537 273.674 451.447 276.348 444.277 278.871L445.272 281.701ZM499.026 299.13C498.885 298.957 498.865 298.734 498.889 298.622C498.897 298.582 498.882 298.683 498.679 298.939C498.278 299.445 497.485 300.136 496.265 300.982C493.863 302.648 490.217 304.635 486.017 306.663C477.625 310.714 467.293 314.795 460.919 316.644L461.754 319.525C468.331 317.617 478.824 313.466 487.321 309.365C491.564 307.316 495.378 305.248 497.975 303.447C499.255 302.559 500.346 301.665 501.03 300.803C501.369 300.375 501.696 299.847 501.824 299.242C501.967 298.565 501.844 297.84 501.352 297.236L499.026 299.13ZM454.356 339.175C446.086 334.697 436.103 330.337 424.896 326.449L423.912 329.283C434.991 333.127 444.821 337.424 452.927 341.813L454.356 339.175ZM424.896 326.449C410.224 321.358 393.429 317.067 375.592 314.376L375.145 317.343C392.796 320.006 409.412 324.252 423.912 329.283L424.896 326.449ZM460.919 316.644C454.466 318.515 445.251 320.956 437.637 322.932C433.833 323.919 430.433 324.789 427.984 325.412C426.759 325.724 425.773 325.973 425.092 326.145C424.752 326.231 424.489 326.298 424.31 326.343C424.221 326.365 424.153 326.382 424.107 326.394C424.084 326.4 424.067 326.404 424.056 326.407C424.05 326.408 424.046 326.409 424.043 326.41C424.041 326.41 424.04 326.411 424.04 326.411C424.039 326.411 424.039 326.411 424.039 326.411C424.039 326.411 424.039 326.411 424.404 327.866C424.77 329.321 424.77 329.321 424.77 329.321C424.77 329.321 424.77 329.32 424.771 329.32C424.771 329.32 424.773 329.32 424.774 329.32C424.777 329.319 424.781 329.318 424.787 329.316C424.799 329.313 424.816 329.309 424.839 329.303C424.885 329.292 424.953 329.274 425.043 329.252C425.222 329.207 425.486 329.14 425.827 329.054C426.509 328.882 427.497 328.631 428.723 328.319C431.176 327.695 434.581 326.824 438.391 325.836C446.005 323.86 455.257 321.409 461.754 319.525L460.919 316.644ZM328.408 311.478C306.124 312.207 288.466 314.058 273.701 316.783L274.246 319.733C288.83 317.042 306.333 315.202 328.507 314.476L328.408 311.478ZM273.701 316.783C255.919 320.065 242.358 324.61 229.979 329.967L231.17 332.72C243.359 327.445 256.704 322.971 274.246 319.733L273.701 316.783ZM273.973 318.258C275.154 317.333 275.154 317.333 275.154 317.333C275.154 317.333 275.154 317.332 275.153 317.332C275.153 317.332 275.153 317.331 275.152 317.331C275.151 317.329 275.15 317.327 275.147 317.325C275.143 317.319 275.136 317.31 275.127 317.299C275.11 317.276 275.083 317.242 275.048 317.197C274.977 317.107 274.873 316.973 274.738 316.799C274.469 316.451 274.077 315.943 273.589 315.305C272.612 314.028 271.254 312.23 269.723 310.15C266.656 305.979 262.924 300.705 260.202 296.208L257.636 297.762C260.43 302.377 264.226 307.739 267.306 311.927C268.85 314.026 270.22 315.838 271.205 317.127C271.698 317.771 272.094 318.284 272.367 318.637C272.504 318.813 272.61 318.95 272.682 319.042C272.718 319.088 272.746 319.123 272.764 319.147C272.774 319.159 272.781 319.168 272.786 319.174C272.788 319.177 272.79 319.18 272.791 319.181C272.792 319.182 272.792 319.183 272.793 319.183C272.793 319.183 272.793 319.184 272.793 319.184C272.793 319.184 272.793 319.184 273.973 318.258ZM260.202 296.208C254.694 287.11 249.375 278.006 240.602 266.58L238.223 268.407C246.878 279.679 252.112 288.638 257.636 297.762L260.202 296.208ZM240.602 266.58C236.343 261.032 231.454 251.258 226.864 242.717C224.597 238.5 222.402 234.584 220.429 231.76C219.447 230.353 218.471 229.145 217.522 228.299C216.636 227.51 215.447 226.74 214.105 226.925L214.516 229.897C214.472 229.903 214.77 229.865 215.525 230.538C216.217 231.155 217.036 232.14 217.97 233.477C219.829 236.14 221.951 239.912 224.221 244.137C228.705 252.479 233.769 262.606 238.223 268.407L240.602 266.58ZM171.14 244.859C170.324 245.45 169.752 246.212 169.461 247.121C169.177 248.009 169.195 248.932 169.373 249.815C169.72 251.54 170.737 253.404 171.959 255.231C173.202 257.087 174.766 259.06 176.348 261.012C177.947 262.983 179.562 264.928 180.976 266.8L183.37 264.991C181.914 263.065 180.246 261.054 178.678 259.122C177.095 257.17 175.61 255.292 174.452 253.562C173.274 251.802 172.539 250.344 172.314 249.224C172.206 248.685 172.232 248.305 172.318 248.035C172.398 247.787 172.557 247.538 172.9 247.289L171.14 244.859ZM180.976 266.8C183.979 270.772 188.457 274.331 192.116 277.307C193.981 278.824 195.623 280.179 196.855 281.405C198.143 282.687 198.729 283.59 198.853 284.174L201.787 283.551C201.463 282.024 200.274 280.576 198.972 279.279C197.614 277.928 195.851 276.478 194.009 274.98C190.254 271.925 186.106 268.611 183.37 264.991L180.976 266.8ZM198.853 284.174C198.932 284.548 198.903 284.729 198.887 284.787C198.879 284.816 198.88 284.815 198.859 284.83C198.725 284.929 198.26 285.102 197.157 285.053C195.039 284.959 191.894 284.129 188.337 283.079L187.487 285.956C190.965 286.983 194.473 287.936 197.024 288.05C198.256 288.105 199.629 287.99 200.639 287.245C201.849 286.352 202.085 284.95 201.787 283.551L198.853 284.174ZM188.337 283.079C184.92 282.069 181.894 280.774 179.383 279.622C178.218 279.087 176.914 278.466 176.015 278.055C175.049 277.614 174.153 277.229 173.409 277.006L172.549 279.88C173.072 280.037 173.798 280.34 174.769 280.784C175.808 281.259 176.761 281.719 178.132 282.348C180.695 283.524 183.869 284.887 187.487 285.956L188.337 283.079ZM147.569 302.542C147.19 303.033 147.031 303.627 147.115 304.235C147.19 304.785 147.449 305.243 147.707 305.588C148.215 306.268 149.017 306.9 149.879 307.472C151.646 308.645 154.222 309.922 156.983 311.17C159.762 312.425 162.81 313.686 165.555 314.815C168.319 315.953 170.748 316.946 172.349 317.687L173.61 314.965C171.933 314.189 169.425 313.164 166.696 312.041C163.947 310.91 160.944 309.668 158.218 308.436C155.472 307.195 153.087 306.001 151.538 304.973C150.744 304.445 150.299 304.045 150.11 303.792C150.02 303.672 150.068 303.689 150.087 303.827C150.114 304.023 150.053 304.234 149.944 304.375L147.569 302.542ZM172.349 317.687C179.034 320.785 191.168 324.258 199.901 326.798L200.739 323.917C191.885 321.342 180.035 317.942 173.61 314.965L172.349 317.687ZM199.901 326.798C208.716 329.362 217.554 331.877 230.463 332.839L230.686 329.847C218.102 328.909 209.512 326.469 200.739 323.917L199.901 326.798ZM173.409 277.006C172.665 276.783 171.951 276.917 171.368 277.155C170.794 277.389 170.253 277.759 169.761 278.166C168.777 278.979 167.74 280.149 166.712 281.404C164.569 284.02 162.414 287.048 160.211 289.408L162.404 291.455C164.678 289.019 167.092 285.675 169.033 283.305C170.046 282.068 170.929 281.093 171.672 280.478C172.043 280.171 172.317 280.007 172.5 279.933C172.675 279.862 172.661 279.913 172.549 279.88L173.409 277.006ZM160.211 289.408C157.996 291.781 155.424 294.312 153.102 296.634C150.818 298.917 148.72 301.051 147.569 302.542L149.944 304.375C150.951 303.07 152.891 301.087 155.223 298.755C157.518 296.461 160.143 293.877 162.404 291.455L160.211 289.408ZM471.251 272.812C472.528 274.036 474.855 275.964 477.419 278.201C480.027 280.477 482.976 283.151 485.652 285.991L487.835 283.934C485.06 280.987 482.025 278.238 479.391 275.94C476.714 273.604 474.539 271.809 473.327 270.646L471.251 272.812ZM485.652 285.991C488.419 288.929 491.119 291.409 493.444 293.557C495.798 295.731 497.708 297.512 499.026 299.13L501.352 297.236C499.872 295.418 497.785 293.483 495.479 291.353C493.144 289.196 490.52 286.784 487.835 283.934L485.652 285.991ZM416.828 227.497C422.444 228.328 429.964 228.771 442.091 231.94L442.849 229.038C430.513 225.813 422.677 225.33 417.267 224.529L416.828 227.497ZM442.091 231.94C445.181 232.748 448.509 233.479 451.695 234.187C454.897 234.9 457.951 235.588 460.557 236.32C463.198 237.061 465.225 237.806 466.454 238.581C467.069 238.969 467.346 239.279 467.452 239.472C467.515 239.588 467.531 239.663 467.461 239.836L470.242 240.962C470.649 239.957 470.58 238.939 470.083 238.031C469.627 237.199 468.867 236.556 468.054 236.043C466.427 235.018 464.032 234.179 461.368 233.431C458.669 232.674 455.535 231.968 452.346 231.259C449.141 230.546 445.874 229.828 442.849 229.038L442.091 231.94ZM214.105 226.925C211.322 227.311 208.888 228.124 205.748 229.435C202.679 230.716 198.681 232.585 193.012 235.026L194.198 237.781C200.04 235.267 203.798 233.5 206.904 232.203C209.94 230.936 212.102 230.231 214.516 229.897L214.105 226.925ZM193.012 235.026C187.266 237.499 183.101 239.048 179.667 240.45C176.266 241.838 173.61 243.071 171.14 244.859L172.9 247.289C175.067 245.72 177.448 244.596 180.801 243.227C184.123 241.871 188.432 240.263 194.198 237.781L193.012 235.026ZM214.088 625.137C228.506 627.299 240.745 616.945 238.941 605.097L235.975 605.549C237.381 614.78 227.618 624.132 214.533 622.17L214.088 625.137ZM238.941 605.097C238.069 599.365 234.886 595.216 231.349 592.381C227.831 589.561 223.898 587.984 221.304 587.366L220.609 590.285C222.829 590.813 226.344 592.214 229.473 594.722C232.583 597.214 235.244 600.741 235.975 605.549L238.941 605.097ZM221.304 587.366C218.709 586.749 214.181 586.332 209.376 587.389C204.54 588.453 199.355 591.03 195.653 596.458L198.131 598.149C201.305 593.495 205.745 591.26 210.02 590.319C214.325 589.372 218.391 589.757 220.609 590.285L221.304 587.366ZM195.653 596.458C191.76 602.166 192.904 608.931 196.631 614.337C200.355 619.738 206.79 624.042 214.088 625.137L214.533 622.17C208.08 621.202 202.368 617.372 199.101 612.634C195.838 607.901 195.148 602.523 198.131 598.149L195.653 596.458ZM484.689 621.209C492.061 621.692 498.89 621.444 504.185 619.247C506.862 618.136 509.172 616.518 510.949 614.234C512.726 611.952 513.912 609.082 514.46 605.553L511.496 605.093C511.012 608.209 509.993 610.579 508.582 612.392C507.172 614.202 505.313 615.531 503.035 616.476C498.417 618.392 492.183 618.694 484.886 618.215L484.689 621.209ZM514.46 605.553C515.584 598.312 512.561 592.149 507.655 587.919C502.776 583.712 495.987 581.356 489.317 581.598L489.426 584.596C495.362 584.381 501.407 586.492 505.696 590.191C509.957 593.865 512.434 599.044 511.496 605.093L514.46 605.553ZM489.317 581.598C482.936 581.83 477.792 582.702 473.593 584.955C469.344 587.235 466.225 590.841 463.718 596.211L466.437 597.48C468.743 592.539 471.469 589.499 475.012 587.598C478.605 585.67 483.201 584.823 489.426 584.596L489.317 581.598ZM463.718 596.211C461.016 602 462.487 608.097 466.489 612.761C470.475 617.407 476.997 620.704 484.689 621.209L484.886 618.215C477.91 617.758 472.171 614.777 468.766 610.808C465.376 606.856 464.326 602.001 466.437 597.48L463.718 596.211Z" fill="black"/>
</svg>
