<svg width="701" height="900" viewBox="0 0 701 900" fill="none" xmlns="http://www.w3.org/2000/svg">
<path d="M325.125 424.695C321.547 402.58 303.486 389.795 297.453 383.04C291.421 376.284 275.163 368.197 261.955 365.453C248.746 362.708 231.532 362.588 217.294 362.931C203.056 363.275 182.946 373.342 175.316 379.094C167.687 384.845 140.044 409.645 142.362 452.437C144.68 495.229 170.049 510.298 192.432 523.986C214.814 537.674 256.493 534.54 276.532 526.543C296.57 518.546 311.783 496.351 317.409 485.962C322.323 476.888 327.27 453.797 326.058 433.361C325.883 430.4 325.578 427.495 325.125 424.695Z" fill="white" fill-opacity="0.3"/>
<path d="M404.152 388.186C390.989 395.557 384.493 402.204 381.118 423.31C380.528 426.999 380.005 431.078 379.644 435.436C382.787 439.118 385.173 442.998 385.729 445.922C387.057 452.908 385.898 460.206 380.629 467.178C382.672 479.888 387.06 492.825 395.298 504.237C414.04 530.198 444.38 538.313 473.299 537.337C502.218 536.362 527.554 521.014 542.637 502.618C557.659 484.296 557.618 467.127 557.557 441.346L557.556 441.03C557.494 415.074 537.848 394.172 530.01 390.321C522.172 386.47 504.701 372.296 470.126 371.215C435.551 370.135 417.315 380.815 404.152 388.186Z" fill="white" fill-opacity="0.3"/>
<path d="M325.125 424.695L327.099 424.376L327.099 424.376L325.125 424.695ZM317.409 485.962L315.651 485.01L315.651 485.01L317.409 485.962ZM381.118 423.31L383.093 423.626L383.093 423.626L381.118 423.31ZM395.298 504.237L393.677 505.408L395.298 504.237ZM542.637 502.618L544.183 503.886L544.183 503.886L542.637 502.618ZM320.719 472.86C321.335 473.776 322.578 474.019 323.494 473.403C324.411 472.786 324.654 471.544 324.038 470.627L320.719 472.86ZM317.332 450.698L319.295 451.078L317.332 450.698ZM337.269 424.518L336.449 422.693L337.269 424.518ZM365.047 424.329L364.496 426.252L365.047 424.329ZM385.729 445.922L383.765 446.296L383.765 446.296L385.729 445.922ZM380.629 467.178L379.033 465.972L378.518 466.652L378.654 467.495L380.629 467.178ZM295.962 384.372C297.538 386.137 299.903 388.301 302.434 390.731C305.013 393.208 307.888 396.073 310.678 399.394C316.258 406.036 321.439 414.436 323.151 425.015L327.099 424.376C325.233 412.84 319.594 403.789 313.741 396.821C310.814 393.337 307.82 390.357 305.204 387.846C302.54 385.288 300.385 383.32 298.945 381.707L295.962 384.372ZM315.651 485.01C312.9 490.089 307.777 498.103 300.884 505.817C293.977 513.547 285.409 520.848 275.791 524.686L277.273 528.401C287.694 524.242 296.751 516.447 303.867 508.482C310.997 500.502 316.293 492.224 319.168 486.914L315.651 485.01ZM275.791 524.686C266.06 528.569 250.891 531.325 235.351 531.397C219.781 531.468 204.203 528.841 193.475 522.28L191.388 525.692C203.042 532.819 219.495 535.469 235.37 535.397C251.275 535.324 266.965 532.515 277.273 528.401L275.791 524.686ZM193.475 522.28C182.235 515.406 170.574 508.368 161.381 497.812C152.253 487.332 145.494 473.294 144.359 452.328L140.365 452.545C141.547 474.371 148.632 489.264 158.364 500.439C168.031 511.538 180.246 518.878 191.388 525.692L193.475 522.28ZM144.359 452.328C142.094 410.517 169.108 386.279 176.52 380.691L174.112 377.497C166.266 383.412 137.994 408.772 140.365 452.545L144.359 452.328ZM403.175 386.441C396.505 390.175 391.28 393.856 387.331 399.442C383.39 405.017 380.854 412.296 379.143 422.994L383.093 423.626C384.757 413.218 387.156 406.62 390.598 401.752C394.031 396.895 398.636 393.567 405.129 389.931L403.175 386.441ZM393.677 505.408C412.957 532.115 444.084 540.324 473.366 539.336L473.231 535.339C444.675 536.302 415.123 528.28 396.92 503.066L393.677 505.408ZM473.366 539.336C502.939 538.338 528.788 522.663 544.183 503.886L541.09 501.35C526.319 519.365 501.497 534.385 473.231 535.339L473.366 539.336ZM559.556 441.026C559.524 427.548 554.413 415.457 548.369 406.286C542.369 397.18 535.256 390.67 530.892 388.526L529.128 392.116C532.602 393.823 539.232 399.689 545.029 408.487C550.783 417.218 555.526 428.556 555.556 441.035L559.556 441.026ZM322.378 471.743C324.038 470.627 324.038 470.628 324.038 470.628C324.038 470.628 324.039 470.628 324.039 470.629C324.039 470.629 324.039 470.629 324.039 470.629C324.039 470.629 324.039 470.629 324.038 470.627C324.036 470.625 324.033 470.62 324.028 470.612C324.018 470.598 324.002 470.573 323.98 470.539C323.936 470.471 323.869 470.364 323.781 470.223C323.607 469.939 323.355 469.516 323.056 468.971C322.458 467.881 321.677 466.319 320.958 464.447C319.505 460.665 318.378 455.813 319.295 451.078L315.368 450.317C314.249 456.098 315.645 461.77 317.224 465.881C318.021 467.956 318.885 469.684 319.55 470.896C319.884 471.504 320.169 471.984 320.374 472.318C320.477 472.485 320.559 472.615 320.618 472.706C320.648 472.752 320.671 472.788 320.688 472.813C320.696 472.826 320.703 472.836 320.708 472.844C320.711 472.848 320.713 472.851 320.715 472.854C320.716 472.855 320.716 472.856 320.717 472.857C320.717 472.858 320.718 472.858 320.718 472.859C320.718 472.859 320.719 472.86 322.378 471.743ZM338.088 426.342C346.776 422.439 357.006 424.106 364.496 426.252L365.597 422.407C357.921 420.208 346.497 418.178 336.449 422.693L338.088 426.342ZM383.765 446.296C384.994 452.767 383.938 459.482 379.033 465.972L382.224 468.383C387.859 460.929 389.12 453.049 387.694 445.549L383.765 446.296ZM176.52 380.691C180.168 377.941 186.948 374.062 194.605 370.827C202.282 367.584 210.596 365.093 217.342 364.931L217.246 360.932C209.755 361.113 200.894 363.828 193.049 367.142C185.184 370.465 178.094 374.495 174.112 377.497L176.52 380.691ZM217.342 364.931C231.582 364.588 248.588 364.718 261.548 367.411L262.361 363.495C248.904 360.698 231.482 360.589 217.246 360.932L217.342 364.931ZM261.548 367.411C267.954 368.742 275.158 371.385 281.506 374.534C287.899 377.705 293.2 381.279 295.962 384.372L298.945 381.707C295.674 378.044 289.83 374.198 283.284 370.95C276.693 367.681 269.164 364.908 262.361 363.495L261.548 367.411ZM405.129 389.931C418.189 382.618 436.036 372.151 470.063 373.214L470.188 369.216C435.065 368.119 416.441 379.012 403.175 386.441L405.129 389.931ZM470.063 373.214C504.079 374.277 521.001 388.123 529.128 392.116L530.892 388.526C523.343 384.817 505.323 370.314 470.188 369.216L470.063 373.214ZM379.143 422.994C378.546 426.728 378.017 430.857 377.651 435.271L381.637 435.602C381.994 431.299 382.51 427.27 383.093 423.626L379.143 422.994ZM378.123 436.735C381.218 440.361 383.311 443.907 383.765 446.296L387.694 445.549C387.036 442.088 384.356 437.876 381.165 434.138L378.123 436.735ZM378.654 467.495C380.734 480.432 385.213 493.684 393.677 505.408L396.92 503.066C388.907 491.967 384.611 479.343 382.603 466.86L378.654 467.495ZM544.183 503.886C559.716 484.941 559.618 467.055 559.557 441.341L555.557 441.351C555.618 467.199 555.601 483.652 541.09 501.35L544.183 503.886ZM559.557 441.341L559.556 441.026L555.556 441.035L555.557 441.351L559.557 441.341ZM559.557 441.341C559.556 441.236 559.556 441.131 559.556 441.026L555.556 441.035C555.556 441.14 555.556 441.246 555.557 441.351L559.557 441.341ZM364.496 426.252C366.347 426.782 368.67 428.108 371.136 430.02C373.572 431.909 376.021 434.274 378.123 436.735L381.165 434.138C378.901 431.487 376.257 428.929 373.587 426.859C370.947 424.811 368.154 423.139 365.597 422.407L364.496 426.252ZM377.651 435.271C375.929 456.037 377.801 483.416 393.677 505.408L396.92 503.066C381.864 482.212 379.947 455.987 381.637 435.602L377.651 435.271ZM319.168 486.914C321.775 482.101 324.286 473.815 325.999 464.276C327.721 454.693 328.672 443.65 328.055 433.243L324.062 433.48C324.656 443.509 323.74 454.23 322.062 463.569C320.377 472.953 317.958 480.75 315.651 485.01L319.168 486.914ZM328.055 433.243C327.876 430.223 327.565 427.25 327.099 424.376L323.151 425.015C323.592 427.739 323.89 430.577 324.062 433.48L328.055 433.243ZM319.295 451.078C320.376 445.496 323.45 439.522 327.583 434.656L324.534 432.067C320.038 437.361 316.601 443.947 315.368 450.317L319.295 451.078ZM327.583 434.656C330.719 430.963 334.38 428.008 338.088 426.342L336.449 422.693C332.069 424.661 327.952 428.041 324.534 432.067L327.583 434.656Z" fill="black"/>
</svg>
