<svg width="701" height="900" viewBox="0 0 701 900" fill="none" xmlns="http://www.w3.org/2000/svg">
<g clip-path="url(#clip0_234_158)">
<rect width="700" height="900" transform="translate(0.78125)" fill="#363636"/>
<path d="M3.67647 686.543C11.3191 685.233 13.4598 695.77 19.3612 694.531C25.2626 693.292 22.8482 684.24 27.8901 683.248C32.932 682.256 33.7152 691.822 37.6943 691.103C41.6734 690.385 40.6328 681.013 45.8247 680.263C51.0165 679.513 52.1217 688.154 56.6651 687.277C61.2086 686.401 60.0335 678.94 64.9549 678.111C69.8763 677.281 68.8266 685.881 74.52 684.727C80.2135 683.572 75.9613 676.914 81.5638 676.162C87.1662 675.41 86.556 683.621 92.4574 682.382C98.3588 681.143 95.6946 673.29 100.737 672.298C105.778 671.306 107.215 681.109 111.194 680.39C115.173 679.671 114.593 670.122 119.785 669.372C124.977 668.622 126.757 678.03 131.301 677.153C135.844 676.276 135.53 667.961 140.452 667.131C145.373 666.301 146.274 675.258 151.968 674.103C157.661 672.948 157.985 663.191 163.11 662.4C168.236 661.608 170.468 671.42 176.369 670.181C182.271 668.942 180.829 660.14 185.871 659.148C190.913 658.156 192.248 667.289 196.227 666.57C200.206 665.852 199.999 657.173 205.191 656.424C210.383 655.674 212.039 663.837 216.582 662.96C221.126 662.083 223.551 653.456 228.472 652.626C233.393 651.797 234.544 661.624 240.237 660.47C245.931 659.315 244.836 650.64 250.439 649.887C256.041 649.135 255.376 658.721 261.277 657.482C267.179 656.243 266.009 647.954 271.051 646.962C276.092 645.97 276.533 656.084 280.512 655.365C284.492 654.647 283.102 645.035 288.294 644.285C293.485 643.535 294.582 653.877 299.125 653C303.668 652.123 302.669 642.438 307.591 641.608C312.512 640.779 311.173 650.544 316.866 649.389C322.559 648.235 321.157 638.424 325.775 637.889C330.393 637.354 330.946 647.565 336.847 646.326C342.748 645.087 339.401 637.131 344.443 636.139C349.485 635.147 349.36 644.247 353.339 643.528C357.318 642.809 355.439 634.02 360.631 633.271C365.823 632.521 366.345 641.585 370.889 640.708C375.432 639.832 374.864 630.794 379.785 629.965C384.706 629.135 383.911 638.8 389.605 637.646C395.298 636.491 392.607 628.481 398.21 627.729C403.812 626.976 401.837 637.232 407.738 635.993C413.639 634.754 412.613 625.512 417.655 624.52C422.697 623.528 423.399 633.649 427.378 632.93C431.357 632.212 432.079 621.917 437.271 621.167C442.462 620.417 444.243 629.825 448.787 628.948C453.33 628.071 453.016 619.755 457.937 618.926C462.859 618.096 463.76 627.052 469.453 625.898C475.147 624.743 475.471 614.986 480.596 614.194C485.721 613.403 487.954 623.215 493.855 621.975C499.757 620.736 498.315 611.935 503.357 610.943C508.399 609.951 509.734 619.084 513.713 618.365C517.692 617.646 517.485 608.968 522.677 608.218C527.868 607.469 529.525 615.631 534.068 614.755C538.612 613.878 541.036 605.251 545.958 604.421C550.879 603.592 552.029 613.419 557.723 612.265C563.416 611.11 562.322 602.434 567.924 601.682C573.527 600.93 572.862 610.516 578.763 609.277C584.665 608.038 583.494 599.749 588.536 598.756C593.578 597.764 594.019 607.879 597.998 607.16C601.977 606.441 600.587 596.83 605.779 596.08C610.971 595.33 612.067 605.671 616.611 604.795C621.154 603.918 620.155 594.233 625.077 593.403C629.998 592.574 628.658 602.339 634.352 601.184C640.045 600.029 636.271 591.122 640.695 590.782C645.119 590.442 646.978 599.647 650.957 598.928C654.936 598.209 653.547 588.598 658.738 587.848C663.93 587.098 665.026 597.439 669.57 596.563C674.113 595.686 673.114 586.001 678.036 585.171C682.957 584.341 681.617 594.107 687.311 592.952C693.004 591.797 695.341 581.436 695.341 581.436H717.705L727.382 -40.4055L-29.8125 -50.082L-17.8049 694.531L3.67647 686.543Z" fill="#559535"/>
<path d="M19.3612 694.531C13.4598 695.77 11.3191 685.233 3.67647 686.543L-17.8049 694.531V915.395H717.705V581.436H695.341C695.341 581.436 693.004 591.797 687.311 592.952C681.617 594.107 682.957 584.341 678.036 585.171C673.114 586.001 674.113 595.686 669.57 596.563C665.026 597.439 663.93 587.098 658.738 587.848C653.547 588.598 654.936 598.209 650.957 598.928C646.978 599.647 645.119 590.442 640.695 590.782C636.271 591.122 640.045 600.029 634.352 601.184C628.658 602.339 629.998 592.574 625.077 593.403C620.155 594.233 621.154 603.918 616.611 604.795C612.067 605.671 610.971 595.33 605.779 596.08C600.587 596.83 601.977 606.441 597.998 607.16C594.019 607.879 593.578 597.764 588.536 598.756C583.494 599.749 584.665 608.038 578.763 609.277C572.862 610.516 573.527 600.93 567.924 601.682C562.322 602.434 563.416 611.11 557.723 612.265C552.029 613.419 550.879 603.592 545.958 604.421C541.036 605.251 538.612 613.878 534.068 614.755C529.525 615.631 527.868 607.469 522.677 608.218C517.485 608.968 517.692 617.646 513.713 618.365C509.734 619.084 508.399 609.951 503.357 610.943C498.315 611.935 499.757 620.736 493.855 621.975C487.954 623.215 485.721 613.403 480.596 614.194C475.471 614.986 475.147 624.743 469.453 625.898C463.76 627.052 462.859 618.096 457.937 618.926C453.016 619.755 453.33 628.071 448.787 628.948C444.243 629.825 442.462 620.417 437.271 621.167C432.079 621.917 431.357 632.212 427.378 632.93C423.399 633.649 422.697 623.528 417.655 624.52C412.613 625.512 413.639 634.754 407.738 635.993C401.837 637.232 403.812 626.976 398.21 627.729C392.607 628.481 395.298 636.491 389.605 637.646C383.911 638.8 384.706 629.135 379.785 629.965C374.864 630.794 375.432 639.832 370.889 640.708C366.345 641.585 365.823 632.521 360.631 633.271C355.439 634.02 357.318 642.809 353.339 643.528C349.36 644.247 349.485 635.147 344.443 636.139C339.401 637.131 342.748 645.087 336.847 646.326C330.946 647.565 330.393 637.354 325.775 637.889C321.157 638.424 322.559 648.235 316.866 649.389C311.173 650.544 312.512 640.779 307.591 641.608C302.669 642.438 303.668 652.123 299.125 653C294.582 653.877 293.485 643.535 288.294 644.285C283.102 645.035 284.492 654.647 280.512 655.365C276.533 656.084 276.092 645.97 271.051 646.962C266.009 647.954 267.179 656.243 261.277 657.482C255.376 658.721 256.041 649.135 250.439 649.887C244.836 650.64 245.931 659.315 240.237 660.47C234.544 661.624 233.393 651.797 228.472 652.626C223.551 653.456 221.126 662.083 216.582 662.96C212.039 663.837 210.383 655.674 205.191 656.424C199.999 657.173 200.206 665.852 196.227 666.57C192.248 667.289 190.913 658.156 185.871 659.148C180.829 660.14 182.271 668.942 176.369 670.181C170.468 671.42 168.236 661.608 163.11 662.4C157.985 663.191 157.661 672.948 151.968 674.103C146.274 675.258 145.373 666.301 140.452 667.131C135.53 667.961 135.844 676.276 131.301 677.153C126.757 678.03 124.977 668.622 119.785 669.372C114.593 670.122 115.173 679.671 111.194 680.39C107.215 681.109 105.778 671.306 100.737 672.298C95.6946 673.29 98.3588 681.143 92.4574 682.382C86.556 683.621 87.1662 675.41 81.5638 676.162C75.9613 676.914 80.2135 683.572 74.52 684.727C68.8266 685.881 69.8763 677.281 64.9549 678.111C60.0335 678.94 61.2086 686.401 56.6651 687.277C52.1217 688.154 51.0165 679.513 45.8247 680.263C40.6328 681.013 41.6734 690.385 37.6943 691.103C33.7152 691.822 32.932 682.256 27.8901 683.248C22.8482 684.24 25.2626 693.292 19.3612 694.531Z" fill="#F9F0C9"/>
<path d="M3.67647 686.543L3.43363 685.128L3.30151 685.15L3.17586 685.197L3.67647 686.543ZM695.341 581.436V580H694.192L693.94 581.12L695.341 581.436ZM-29.8125 -50.082L-29.7941 -51.5183L-31.2726 -51.5372L-31.2487 -50.0589L-29.8125 -50.082ZM727.382 -40.4055L728.818 -40.3831L728.84 -41.8233L727.4 -41.8418L727.382 -40.4055ZM205.44 555.995C205.344 556.783 205.905 557.499 206.692 557.595C207.479 557.691 208.196 557.13 208.292 556.343L205.44 555.995ZM228.133 556.515C228.163 557.308 228.83 557.926 229.623 557.896C230.416 557.866 231.034 557.199 231.004 556.406L228.133 556.515ZM93.3361 386.781C93.1114 387.541 93.5459 388.34 94.3067 388.565C95.0675 388.79 95.8664 388.355 96.0912 387.595L93.3361 386.781ZM122.37 386.755C122.614 387.51 123.424 387.924 124.179 387.679C124.934 387.434 125.347 386.624 125.103 385.87L122.37 386.755ZM218.717 204.601C218.492 205.362 218.927 206.161 219.688 206.386C220.448 206.611 221.247 206.176 221.472 205.415L218.717 204.601ZM247.75 204.576C247.995 205.331 248.805 205.744 249.56 205.5C250.314 205.255 250.728 204.445 250.483 203.69L247.75 204.576ZM49.9157 1.80923C49.6909 2.57002 50.1254 3.36898 50.8862 3.59375C51.647 3.81853 52.446 3.384 52.6707 2.62321L49.9157 1.80923ZM94.0056 1.78723C94.252 2.54131 95.063 2.9529 95.8171 2.70655C96.5712 2.4602 96.9828 1.64919 96.7364 0.895109L94.0056 1.78723ZM515.992 40.4088C515.767 41.1696 516.201 41.9686 516.962 42.1934C517.723 42.4181 518.522 41.9836 518.747 41.2228L515.992 40.4088ZM545.025 40.3836C545.27 41.1383 546.08 41.5518 546.834 41.3072C547.589 41.0627 548.003 40.2526 547.758 39.498L545.025 40.3836ZM639.17 511.83C638.945 512.591 639.38 513.39 640.14 513.614C640.901 513.839 641.7 513.405 641.925 512.644L639.17 511.83ZM668.203 511.805C668.448 512.559 669.258 512.973 670.013 512.728C670.767 512.484 671.181 511.674 670.936 510.919L668.203 511.805ZM-17.8049 915.395H-19.2413V916.832H-17.8049V915.395ZM717.705 915.395V916.832H719.141V915.395H717.705ZM3.9193 687.959C6.92321 687.444 8.87695 689.158 11.1367 691.506C12.1958 692.607 13.3794 693.907 14.68 694.804C16.0488 695.748 17.6865 696.35 19.6563 695.937L19.066 693.125C18.0852 693.331 17.2422 693.081 16.3111 692.439C15.3117 691.75 14.3759 690.729 13.2068 689.514C11.0103 687.232 8.07233 684.332 3.43363 685.128L3.9193 687.959ZM19.6563 695.937C23.5427 695.121 24.597 691.626 25.3235 689.21C25.7263 687.871 26.0334 686.798 26.5078 685.967C26.9367 685.215 27.423 684.804 28.1674 684.657L27.6128 681.838C25.8362 682.188 24.7336 683.28 24.0127 684.543C23.3373 685.727 22.9339 687.181 22.5724 688.383C21.7702 691.051 21.081 692.702 19.066 693.125L19.6563 695.937ZM28.1674 684.657C28.8938 684.514 29.4491 684.714 30.0385 685.234C30.6972 685.816 31.2908 686.712 31.9632 687.819C32.5808 688.835 33.2999 690.096 34.1315 691.008C35.0027 691.963 36.2601 692.822 37.9496 692.517L37.439 689.69C37.139 689.744 36.8063 689.677 36.254 689.072C35.662 688.423 35.1241 687.489 34.4183 686.327C33.7673 685.256 32.971 683.992 31.9405 683.081C30.8406 682.11 29.4073 681.485 27.6128 681.838L28.1674 684.657ZM37.9496 692.517C39.5726 692.224 40.5451 691.048 41.173 689.902C41.7889 688.778 42.2428 687.36 42.6601 686.17C43.1068 684.897 43.5331 683.808 44.1014 682.994C44.6356 682.229 45.2275 681.8 46.03 681.685L45.6193 678.841C43.8259 679.1 42.6009 680.125 41.7457 681.35C40.9245 682.526 40.3888 683.966 39.9492 685.219C39.4804 686.556 39.1239 687.663 38.6535 688.522C38.1951 689.358 37.8056 689.624 37.439 689.69L37.9496 692.517ZM46.03 681.685C46.8666 681.564 47.5301 681.797 48.198 682.307C48.9251 682.863 49.5816 683.687 50.3461 684.689C51.0542 685.617 51.8914 686.751 52.8741 687.557C53.9244 688.418 55.2666 689.01 56.9373 688.688L56.393 685.867C55.792 685.983 55.2922 685.824 54.6952 685.335C54.0306 684.79 53.4151 683.975 52.63 682.946C51.9014 681.991 51.0241 680.851 49.9417 680.024C48.8003 679.153 47.3786 678.587 45.6193 678.841L46.03 681.685ZM56.9373 688.688C58.5173 688.383 59.5859 687.486 60.3482 686.435C61.0685 685.441 61.5654 684.231 61.9889 683.241C62.9319 681.038 63.6104 679.794 65.1936 679.527L64.7162 676.694C61.378 677.257 60.1834 680.158 59.3477 682.111C58.8818 683.2 58.513 684.071 58.022 684.749C57.573 685.369 57.0847 685.733 56.393 685.867L56.9373 688.688ZM65.1936 679.527C65.9254 679.404 66.33 679.6 66.7177 679.981C67.2185 680.474 67.6167 681.21 68.1945 682.242C68.7108 683.165 69.3868 684.35 70.4117 685.18C71.5409 686.094 72.9839 686.504 74.8055 686.134L74.2345 683.319C73.2094 683.527 72.6486 683.295 72.2196 682.947C71.6862 682.515 71.2495 681.819 70.7014 680.839C70.2148 679.97 69.5968 678.783 68.7324 677.933C67.7548 676.971 66.4451 676.403 64.7162 676.694L65.1936 679.527ZM74.8055 686.134C76.5757 685.775 77.7391 684.932 78.4592 683.758C79.1135 682.691 79.3245 681.448 79.4889 680.553C79.6758 679.533 79.8125 678.895 80.1105 678.429C80.3267 678.091 80.7054 677.727 81.7549 677.586L81.3726 674.739C79.6209 674.974 78.4302 675.724 77.6901 676.882C77.0317 677.911 76.8252 679.151 76.6632 680.034C76.4785 681.041 76.3349 681.727 76.0102 682.256C75.7512 682.679 75.311 683.101 74.2345 683.319L74.8055 686.134ZM81.7549 677.586C82.7514 677.452 83.3792 677.703 83.9137 678.122C84.5381 678.611 85.0461 679.33 85.7287 680.288C86.3505 681.161 87.1404 682.265 88.2468 683.016C89.4465 683.83 90.9161 684.173 92.7525 683.788L92.1622 680.976C91.048 681.21 90.3808 680.992 89.86 680.639C89.246 680.222 88.7319 679.552 88.0682 678.621C87.4654 677.775 86.7066 676.66 85.6854 675.86C84.5742 674.99 83.1773 674.496 81.3726 674.739L81.7549 677.586ZM92.7525 683.788C94.5999 683.4 95.845 682.46 96.702 681.256C97.5109 680.119 97.9448 678.779 98.2901 677.676C98.6637 676.482 98.9338 675.577 99.3687 674.871C99.7456 674.259 100.208 673.866 101.014 673.707L100.459 670.888C98.7441 671.226 97.6488 672.186 96.9228 673.364C96.2547 674.449 95.8766 675.77 95.5484 676.818C95.1918 677.957 94.8702 678.875 94.3613 679.59C93.9004 680.238 93.2656 680.745 92.1622 680.976L92.7525 683.788ZM101.014 673.707C101.73 673.566 102.335 673.769 103.009 674.34C103.739 674.959 104.414 675.902 105.168 677.036C105.867 678.089 106.668 679.364 107.556 680.286C108.466 681.23 109.759 682.109 111.45 681.804L110.939 678.977C110.64 679.031 110.261 678.953 109.625 678.293C108.967 677.609 108.347 676.631 107.56 675.446C106.827 674.343 105.949 673.067 104.867 672.149C103.729 671.184 102.264 670.533 100.459 670.888L101.014 673.707ZM111.45 681.804C113.063 681.512 114.062 680.336 114.727 679.193C115.385 678.061 115.9 676.63 116.373 675.414C116.877 674.119 117.358 672.997 117.972 672.155C118.558 671.352 119.186 670.91 119.99 670.794L119.579 667.95C117.788 668.209 116.541 669.241 115.651 670.463C114.79 671.644 114.193 673.095 113.696 674.371C113.169 675.726 112.758 676.865 112.244 677.749C111.736 678.622 111.315 678.909 110.939 678.977L111.45 681.804ZM119.99 670.794C120.787 670.679 121.486 670.924 122.247 671.523C123.053 672.158 123.801 673.091 124.65 674.189C125.445 675.216 126.359 676.432 127.39 677.3C128.467 678.208 129.858 678.894 131.573 678.563L131.029 675.743C130.472 675.85 129.937 675.69 129.24 675.103C128.497 674.477 127.789 673.552 126.922 672.431C126.109 671.38 125.154 670.157 124.025 669.266C122.849 668.34 121.379 667.69 119.579 667.95L119.99 670.794ZM131.573 678.563C133.177 678.254 134.289 677.284 135.105 676.195C135.893 675.143 136.497 673.85 137.029 672.748C137.592 671.578 138.09 670.585 138.703 669.825C139.284 669.104 139.9 668.681 140.69 668.547L140.213 665.715C138.542 665.996 137.352 666.924 136.466 668.022C135.612 669.082 134.981 670.378 134.441 671.501C133.867 672.69 133.39 673.693 132.806 674.472C132.249 675.216 131.697 675.614 131.029 675.743L131.573 678.563ZM140.69 668.547C141.409 668.426 141.982 668.628 142.619 669.147C143.328 669.724 143.966 670.568 144.787 671.622C145.549 672.6 146.473 673.759 147.642 674.566C148.885 675.424 150.401 675.886 152.253 675.511L151.682 672.695C150.688 672.897 149.956 672.673 149.275 672.202C148.519 671.681 147.843 670.869 147.053 669.856C146.322 668.919 145.456 667.752 144.434 666.919C143.34 666.028 141.955 665.421 140.213 665.715L140.69 668.547ZM152.253 675.511C154.096 675.137 155.448 674.068 156.492 672.82C157.514 671.598 158.314 670.112 159.019 668.792C159.757 667.411 160.389 666.217 161.127 665.3C161.842 664.412 162.533 663.942 163.33 663.819L162.891 660.98C161.125 661.253 159.854 662.3 158.889 663.499C157.946 664.671 157.18 666.137 156.485 667.438C155.757 668.8 155.088 670.02 154.288 670.977C153.51 671.908 152.686 672.491 151.682 672.695L152.253 675.511ZM163.33 663.819C164.084 663.703 164.794 663.942 165.637 664.593C166.522 665.276 167.359 666.258 168.371 667.407C169.326 668.492 170.437 669.723 171.742 670.578C173.103 671.47 174.734 671.992 176.665 671.586L176.074 668.775C175.054 668.989 174.193 668.75 173.316 668.175C172.382 667.563 171.508 666.623 170.527 665.509C169.602 664.459 168.551 663.213 167.392 662.319C166.19 661.391 164.7 660.701 162.891 660.98L163.33 663.819ZM176.665 671.586C180.454 670.791 181.805 667.495 182.773 665.113C183.301 663.814 183.718 662.751 184.279 661.922C184.8 661.152 185.363 660.712 186.149 660.558L185.594 657.739C183.859 658.08 182.711 659.113 181.9 660.311C181.129 661.45 180.592 662.851 180.112 664.031C179.065 666.608 178.186 668.332 176.074 668.775L176.665 671.586ZM186.149 660.558C186.906 660.409 187.519 660.608 188.169 661.119C188.879 661.678 189.534 662.537 190.274 663.585C190.958 664.554 191.753 665.747 192.64 666.606C193.564 667.501 194.839 668.281 196.482 667.984L195.972 665.157C195.625 665.219 195.242 665.127 194.639 664.543C193.998 663.922 193.399 663.029 192.621 661.928C191.9 660.907 191.028 659.714 189.945 658.862C188.802 657.962 187.358 657.392 185.594 657.739L186.149 660.558ZM196.482 667.984C198.031 667.704 199.052 666.656 199.769 665.587C200.47 664.542 201.04 663.224 201.556 662.114C202.106 660.933 202.624 659.913 203.264 659.142C203.874 658.408 204.538 657.969 205.396 657.845L204.986 655.002C203.248 655.253 201.991 656.18 201.055 657.306C200.149 658.396 199.497 659.731 198.952 660.903C198.373 662.146 197.924 663.18 197.383 663.987C196.857 664.771 196.412 665.077 195.972 665.157L196.482 667.984ZM205.396 657.845C207.113 657.597 208.318 658.736 210.056 660.693C210.833 661.568 211.743 662.625 212.777 663.369C213.869 664.156 215.221 664.685 216.855 664.37L216.31 661.549C215.672 661.673 215.113 661.511 214.455 661.037C213.738 660.521 213.058 659.748 212.204 658.786C210.68 657.068 208.461 654.5 204.986 655.002L205.396 657.845ZM216.855 664.37C218.399 664.072 219.651 663.139 220.682 662.107C221.71 661.076 222.658 659.798 223.532 658.641C224.437 657.442 225.275 656.354 226.165 655.51C227.049 654.672 227.873 654.184 228.711 654.043L228.233 651.21C226.61 651.484 225.285 652.385 224.189 653.425C223.098 654.459 222.123 655.739 221.239 656.91C220.323 658.123 219.506 659.218 218.648 660.077C217.792 660.935 217.037 661.409 216.31 661.549L216.855 664.37ZM228.711 654.043C229.376 653.931 229.95 654.134 230.634 654.74C231.378 655.398 232.056 656.355 232.905 657.518C233.697 658.601 234.643 659.868 235.822 660.76C237.071 661.706 238.622 662.263 240.523 661.878L239.952 659.062C239.006 659.254 238.278 659.016 237.556 658.47C236.764 657.87 236.047 656.948 235.225 655.822C234.46 654.776 233.572 653.504 232.538 652.589C231.444 651.621 230.028 650.907 228.233 651.21L228.711 654.043ZM240.523 661.878C244.186 661.135 245.601 657.904 246.671 655.642C247.883 653.077 248.721 651.567 250.63 651.311L250.248 648.464C246.554 648.96 245.137 652.164 244.074 654.414C242.866 656.966 241.982 658.65 239.952 659.062L240.523 661.878ZM250.63 651.311C251.542 651.189 252.131 651.456 252.679 651.974C253.318 652.579 253.838 653.464 254.51 654.599C255.123 655.634 255.885 656.918 256.962 657.816C258.146 658.802 259.656 659.29 261.573 658.888L260.982 656.076C259.948 656.293 259.328 656.048 258.802 655.609C258.169 655.081 257.641 654.248 256.982 653.135C256.382 652.123 255.649 650.83 254.653 649.887C253.566 648.859 252.136 648.21 250.248 648.464L250.63 651.311ZM261.573 658.888C265.311 658.103 266.747 655.012 267.793 652.727C268.356 651.495 268.8 650.491 269.382 649.703C269.921 648.973 270.508 648.532 271.328 648.371L270.773 645.552C269.072 645.887 267.914 646.854 267.071 647.996C266.27 649.081 265.692 650.412 265.18 651.532C264.075 653.948 263.145 655.622 260.982 656.076L261.573 658.888ZM271.328 648.371C272.015 648.236 272.529 648.432 273.09 648.982C273.723 649.604 274.283 650.559 274.913 651.738C275.492 652.82 276.159 654.155 276.952 655.125C277.778 656.136 279.026 657.093 280.768 656.779L280.257 653.952C280.01 653.997 279.71 653.96 279.177 653.307C278.61 652.614 278.106 651.617 277.447 650.384C276.839 649.248 276.095 647.906 275.103 646.932C274.039 645.888 272.607 645.191 270.773 645.552L271.328 648.371ZM280.768 656.779C282.42 656.48 283.37 655.255 283.96 654.082C284.54 652.931 284.945 651.478 285.321 650.261C285.724 648.955 286.112 647.843 286.651 647.015C287.155 646.24 287.718 645.819 288.499 645.707L288.088 642.863C286.273 643.125 285.063 644.187 284.243 645.448C283.458 646.655 282.971 648.132 282.576 649.413C282.153 650.782 281.835 651.914 281.394 652.79C280.963 653.646 280.594 653.891 280.257 653.952L280.768 656.779ZM288.499 645.707C289.233 645.601 289.858 645.845 290.553 646.5C291.299 647.202 291.971 648.232 292.735 649.452C293.446 650.588 294.263 651.938 295.223 652.911C296.229 653.932 297.609 654.755 299.397 654.41L298.853 651.59C298.37 651.683 297.908 651.543 297.269 650.894C296.583 650.199 295.95 649.174 295.17 647.928C294.443 646.766 293.583 645.406 292.522 644.407C291.41 643.361 289.95 642.594 288.088 642.863L288.499 645.707ZM299.397 654.41C301.096 654.082 302.176 652.927 302.906 651.702C303.617 650.509 304.121 649.035 304.57 647.766C305.047 646.419 305.475 645.266 306.038 644.393C306.574 643.561 307.13 643.142 307.83 643.025L307.352 640.192C305.59 640.489 304.426 641.592 303.623 642.837C302.848 644.04 302.318 645.519 301.862 646.807C301.378 648.173 300.972 649.336 300.438 650.231C299.924 651.095 299.425 651.479 298.853 651.59L299.397 654.41ZM307.83 643.025C308.21 642.96 308.45 643.008 308.617 643.078C308.795 643.152 308.992 643.294 309.215 643.56C309.712 644.152 310.095 645.031 310.63 646.213C311.109 647.271 311.726 648.61 312.699 649.568C313.789 650.64 315.256 651.182 317.152 650.797L316.581 647.982C315.629 648.175 315.129 647.928 314.715 647.52C314.184 646.998 313.761 646.164 313.248 645.029C312.79 644.018 312.23 642.683 311.416 641.713C310.984 641.198 310.433 640.722 309.721 640.426C308.997 640.124 308.202 640.049 307.352 640.192L307.83 643.025ZM317.152 650.797C319.034 650.415 320.305 649.302 321.198 647.988C322.059 646.722 322.615 645.199 323.079 643.884C323.571 642.484 323.954 641.344 324.467 640.487C324.948 639.685 325.396 639.379 325.94 639.316L325.61 636.462C323.845 636.666 322.736 637.787 322.003 639.011C321.303 640.18 320.814 641.665 320.369 642.929C319.894 644.278 319.444 645.458 318.823 646.373C318.233 647.24 317.545 647.786 316.581 647.982L317.152 650.797ZM325.94 639.316C326.458 639.256 326.937 639.444 327.566 640.128C328.243 640.864 328.835 641.887 329.611 643.131C330.33 644.285 331.208 645.625 332.371 646.57C333.615 647.58 335.189 648.142 337.142 647.731L336.552 644.92C335.555 645.129 334.846 644.879 334.182 644.34C333.438 643.735 332.783 642.789 332.049 641.612C331.372 640.525 330.591 639.173 329.681 638.183C328.723 637.142 327.401 636.255 325.61 636.462L325.94 639.316ZM337.142 647.731C339.006 647.34 340.23 646.375 341.027 645.121C341.77 643.952 342.106 642.578 342.366 641.467C342.65 640.252 342.848 639.352 343.223 638.656C343.536 638.075 343.938 637.702 344.72 637.548L344.165 634.729C342.426 635.072 341.356 636.065 340.694 637.294C340.095 638.407 339.815 639.759 339.569 640.812C339.298 641.969 339.048 642.879 338.602 643.58C338.21 644.198 337.639 644.692 336.552 644.92L337.142 647.731ZM344.72 637.548C345.474 637.4 345.958 637.598 346.425 638.03C346.981 638.545 347.462 639.354 348.021 640.405C348.525 641.352 349.13 642.58 349.885 643.468C350.709 644.436 351.92 645.244 353.594 644.942L353.084 642.115C352.768 642.172 352.503 642.111 352.073 641.606C351.576 641.021 351.15 640.171 350.558 639.056C350.02 638.046 349.338 636.812 348.376 635.921C347.324 634.949 345.932 634.382 344.165 634.729L344.72 637.548ZM353.594 644.942C355.22 644.648 356.148 643.507 356.714 642.366C357.254 641.277 357.597 639.911 357.912 638.804C358.254 637.601 358.581 636.61 359.063 635.876C359.498 635.21 360.022 634.81 360.836 634.692L360.426 631.849C358.645 632.106 357.456 633.086 356.659 634.302C355.908 635.448 355.484 636.84 355.149 638.018C354.787 639.292 354.529 640.305 354.14 641.089C353.777 641.821 353.448 642.049 353.084 642.115L353.594 644.942ZM360.836 634.692C361.644 634.576 362.247 634.811 362.849 635.329C363.519 635.905 364.108 636.763 364.8 637.823C365.436 638.796 366.194 640.001 367.121 640.863C368.124 641.795 369.454 642.448 371.161 642.119L370.616 639.298C370.051 639.407 369.612 639.256 369.077 638.759C368.466 638.191 367.917 637.341 367.206 636.252C366.55 635.248 365.752 634.036 364.722 633.15C363.624 632.207 362.215 631.591 360.426 631.849L360.836 634.692ZM371.161 642.119C372.811 641.8 373.914 640.738 374.695 639.579C375.453 638.454 376.018 637.067 376.519 635.876C377.051 634.613 377.524 633.535 378.12 632.714C378.687 631.932 379.278 631.507 380.024 631.381L379.546 628.548C377.831 628.838 376.647 629.853 375.795 631.026C374.972 632.16 374.38 633.552 373.871 634.762C373.331 636.044 372.879 637.132 372.312 637.974C371.768 638.782 371.238 639.178 370.616 639.298L371.161 642.119ZM380.024 631.381C380.404 631.317 380.662 631.362 380.857 631.439C381.064 631.521 381.286 631.675 381.536 631.948C382.083 632.545 382.526 633.427 383.131 634.59C383.678 635.642 384.372 636.949 385.394 637.878C386.521 638.904 388 639.437 389.89 639.054L389.319 636.238C388.364 636.432 387.806 636.19 387.327 635.754C386.743 635.222 386.261 634.381 385.68 633.264C385.157 632.259 384.52 630.953 383.654 630.007C383.197 629.508 382.63 629.052 381.916 628.769C381.19 628.481 380.396 628.405 379.546 628.548L380.024 631.381ZM389.89 639.054C391.713 638.684 392.921 637.731 393.747 636.529C394.521 635.403 394.95 634.063 395.306 632.986C395.691 631.817 395.997 630.932 396.471 630.268C396.88 629.695 397.418 629.284 398.401 629.152L398.019 626.305C396.2 626.549 394.973 627.422 394.133 628.598C393.359 629.684 392.931 631.014 392.577 632.086C392.193 633.251 391.878 634.176 391.38 634.901C390.934 635.549 390.344 636.03 389.319 636.238L389.89 639.054ZM398.401 629.152C398.885 629.087 399.205 629.149 399.432 629.244C399.665 629.341 399.892 629.511 400.127 629.795C400.649 630.423 401.029 631.353 401.532 632.586C401.981 633.687 402.553 635.098 403.503 636.105C404.008 636.639 404.642 637.09 405.442 637.336C406.239 637.581 407.105 637.593 408.033 637.399L407.443 634.587C406.895 634.702 406.533 634.666 406.286 634.59C406.042 634.515 405.819 634.373 405.592 634.132C405.077 633.588 404.687 632.715 404.192 631.501C403.75 630.419 403.205 629.004 402.337 627.959C401.878 627.406 401.294 626.908 400.539 626.593C399.779 626.276 398.935 626.182 398.019 626.305L398.401 629.152ZM408.033 637.399C411.815 636.605 413.279 633.2 414.339 630.73C414.918 629.38 415.387 628.251 415.992 627.371C416.564 626.539 417.158 626.082 417.932 625.929L417.378 623.111C415.631 623.454 414.463 624.524 413.625 625.743C412.82 626.913 412.231 628.358 411.699 629.597C410.536 632.306 409.562 634.142 407.443 634.587L408.033 637.399ZM417.932 625.929C418.622 625.794 419.158 625.991 419.751 626.556C420.41 627.185 421 628.149 421.663 629.327C422.274 630.412 422.976 631.742 423.792 632.708C424.638 633.707 425.898 634.657 427.633 634.344L427.123 631.517C426.868 631.563 426.549 631.517 425.986 630.852C425.394 630.153 424.86 629.15 424.167 627.918C423.527 626.78 422.748 625.445 421.733 624.477C420.652 623.446 419.209 622.75 417.378 623.111L417.932 625.929ZM427.633 634.344C429.233 634.055 430.31 632.843 431.073 631.683C431.848 630.503 432.528 629.004 433.164 627.683C433.831 626.297 434.471 625.054 435.218 624.114C435.953 623.189 436.676 622.704 437.476 622.588L437.065 619.745C435.269 620.004 433.955 621.087 432.97 622.326C431.997 623.55 431.235 625.066 430.575 626.437C429.884 627.874 429.313 629.13 428.672 630.106C428.017 631.102 427.513 631.446 427.123 631.517L427.633 634.344ZM437.476 622.588C438.273 622.473 438.972 622.719 439.732 623.318C440.539 623.953 441.287 624.886 442.136 625.984C442.93 627.011 443.844 628.227 444.875 629.095C445.953 630.002 447.344 630.689 449.059 630.358L448.514 627.538C447.958 627.645 447.423 627.485 446.726 626.898C445.983 626.272 445.275 625.347 444.408 624.226C443.595 623.175 442.64 621.952 441.51 621.061C440.335 620.135 438.864 619.485 437.065 619.745L437.476 622.588ZM449.059 630.358C450.663 630.049 451.775 629.079 452.591 627.99C453.379 626.938 453.983 625.645 454.514 624.543C455.078 623.373 455.576 622.38 456.188 621.62C456.77 620.898 457.386 620.475 458.176 620.342L457.699 617.509C456.028 617.791 454.838 618.718 453.952 619.817C453.098 620.877 452.467 622.173 451.926 623.296C451.353 624.485 450.876 625.488 450.292 626.267C449.735 627.01 449.182 627.409 448.514 627.538L449.059 630.358ZM458.176 620.342C458.895 620.221 459.468 620.422 460.105 620.941C460.814 621.519 461.451 622.363 462.273 623.417C463.035 624.394 463.959 625.554 465.128 626.361C466.37 627.219 467.887 627.681 469.739 627.305L469.168 624.49C468.173 624.692 467.442 624.467 466.76 623.997C466.005 623.475 465.329 622.664 464.539 621.651C463.808 620.713 462.942 619.546 461.919 618.714C460.825 617.823 459.441 617.216 457.699 617.509L458.176 620.342ZM469.739 627.305C471.582 626.932 472.934 625.863 473.977 624.615C474.999 623.393 475.799 621.907 476.505 620.587C477.243 619.206 477.875 618.012 478.613 617.095C479.327 616.207 480.019 615.737 480.815 615.614L480.377 612.775C478.611 613.048 477.34 614.094 476.374 615.294C475.432 616.466 474.666 617.932 473.971 619.233C473.243 620.595 472.574 621.815 471.774 622.772C470.995 623.703 470.172 624.286 469.168 624.49L469.739 627.305ZM480.815 615.614C481.569 615.497 482.28 615.737 483.122 616.387C484.008 617.071 484.845 618.053 485.856 619.202C486.812 620.287 487.923 621.518 489.227 622.373C490.589 623.264 492.22 623.787 494.15 623.381L493.56 620.57C492.54 620.784 491.679 620.544 490.802 619.97C489.868 619.358 488.994 618.418 488.013 617.303C487.088 616.253 486.037 615.008 484.878 614.113C483.676 613.185 482.185 612.495 480.377 612.775L480.815 615.614ZM494.15 623.381C497.94 622.586 499.291 619.289 500.259 616.908C500.787 615.609 501.203 614.546 501.765 613.717C502.286 612.947 502.849 612.507 503.634 612.353L503.08 609.534C501.344 609.875 500.197 610.908 499.386 612.106C498.615 613.245 498.077 614.646 497.598 615.826C496.551 618.402 495.672 620.126 493.56 620.57L494.15 623.381ZM503.634 612.353C504.392 612.204 505.005 612.403 505.654 612.914C506.364 613.473 507.02 614.332 507.76 615.38C508.444 616.348 509.239 617.542 510.126 618.401C511.049 619.296 512.325 620.075 513.968 619.779L513.457 616.952C513.111 617.014 512.728 616.922 512.124 616.337C511.484 615.717 510.884 614.824 510.107 613.723C509.386 612.702 508.514 611.509 507.431 610.657C506.288 609.757 504.844 609.187 503.08 609.534L503.634 612.353ZM513.968 619.779C515.517 619.499 516.538 618.451 517.255 617.382C517.956 616.336 518.526 615.019 519.042 613.909C519.592 612.728 520.11 611.708 520.75 610.937C521.36 610.203 522.024 609.764 522.882 609.64L522.471 606.797C520.733 607.048 519.476 607.975 518.54 609.101C517.635 610.191 516.982 611.526 516.437 612.698C515.859 613.941 515.41 614.975 514.869 615.782C514.343 616.566 513.898 616.872 513.457 616.952L513.968 619.779ZM522.882 609.64C524.599 609.392 525.804 610.53 527.541 612.488C528.318 613.363 529.229 614.419 530.262 615.163C531.355 615.95 532.706 616.48 534.34 616.165L533.796 613.344C533.158 613.467 532.599 613.306 531.941 612.832C531.224 612.316 530.544 611.542 529.69 610.581C528.165 608.863 525.946 606.295 522.471 606.797L522.882 609.64ZM534.34 616.165C535.885 615.867 537.137 614.934 538.167 613.901C539.196 612.871 540.144 611.593 541.018 610.436C541.923 609.237 542.761 608.149 543.651 607.305C544.535 606.466 545.359 605.979 546.197 605.838L545.719 603.005C544.096 603.278 542.771 604.18 541.674 605.22C540.584 606.254 539.609 607.534 538.725 608.705C537.809 609.918 536.992 611.013 536.134 611.872C535.278 612.73 534.523 613.204 533.796 613.344L534.34 616.165ZM546.197 605.838C546.862 605.725 547.435 605.929 548.12 606.535C548.864 607.193 549.541 608.15 550.391 609.312C551.183 610.396 552.129 611.662 553.308 612.555C554.557 613.5 556.108 614.058 558.008 613.672L557.437 610.857C556.491 611.049 555.763 610.811 555.042 610.264C554.25 609.665 553.533 608.742 552.71 607.617C551.946 606.571 551.057 605.298 550.024 604.383C548.93 603.416 547.514 602.702 545.719 603.005L546.197 605.838ZM558.008 613.672C561.672 612.929 563.087 609.698 564.156 607.437C565.369 604.872 566.207 603.362 568.116 603.106L567.733 600.259C564.04 600.754 562.623 603.959 561.559 606.208C560.352 608.761 559.467 610.445 557.437 610.857L558.008 613.672ZM568.116 603.106C569.028 602.983 569.617 603.251 570.165 603.769C570.804 604.374 571.324 605.259 571.996 606.394C572.608 607.429 573.371 608.712 574.448 609.61C575.631 610.597 577.142 611.085 579.058 610.682L578.468 607.871C577.434 608.088 576.814 607.843 576.287 607.404C575.655 606.876 575.127 606.043 574.468 604.93C573.868 603.917 573.135 602.625 572.139 601.682C571.051 600.653 569.622 600.005 567.733 600.259L568.116 603.106ZM579.058 610.682C582.796 609.897 584.233 606.807 585.278 604.521C585.842 603.289 586.286 602.285 586.867 601.498C587.407 600.768 587.994 600.327 588.814 600.166L588.259 597.347C586.557 597.682 585.4 598.649 584.557 599.791C583.755 600.875 583.178 602.207 582.666 603.326C581.56 605.743 580.631 607.417 578.468 607.871L579.058 610.682ZM588.814 600.166C589.501 600.031 590.015 600.226 590.576 600.777C591.209 601.399 591.769 602.354 592.399 603.533C592.977 604.615 593.645 605.95 594.438 606.92C595.264 607.93 596.512 608.888 598.253 608.574L597.743 605.747C597.495 605.791 597.196 605.754 596.662 605.102C596.096 604.408 595.592 603.412 594.932 602.178C594.325 601.042 593.58 599.701 592.588 598.727C591.525 597.683 590.092 596.986 588.259 597.347L588.814 600.166ZM598.253 608.574C599.906 608.275 600.855 607.05 601.446 605.877C602.025 604.725 602.43 603.273 602.806 602.056C603.21 600.75 603.598 599.638 604.137 598.809C604.64 598.035 605.204 597.614 605.985 597.501L605.574 594.658C603.759 594.92 602.549 595.982 601.729 597.243C600.943 598.45 600.457 599.927 600.061 601.208C599.639 602.577 599.321 603.709 598.88 604.585C598.449 605.44 598.08 605.686 597.743 605.747L598.253 608.574ZM605.985 597.501C606.719 597.395 607.343 597.64 608.039 598.295C608.785 598.996 609.457 600.027 610.221 601.247C610.932 602.383 611.749 603.733 612.709 604.706C613.715 605.726 615.094 606.55 616.883 606.205L616.338 603.384C615.855 603.478 615.394 603.337 614.754 602.689C614.069 601.993 613.435 600.969 612.656 599.723C611.928 598.561 611.069 597.201 610.007 596.202C608.895 595.156 607.436 594.389 605.574 594.658L605.985 597.501ZM616.883 606.205C618.582 605.877 619.662 604.722 620.392 603.497C621.103 602.303 621.606 600.829 622.056 599.561C622.533 598.214 622.961 597.061 623.524 596.188C624.06 595.356 624.616 594.937 625.315 594.819L624.838 591.987C623.076 592.284 621.912 593.387 621.109 594.631C620.333 595.835 619.804 597.314 619.348 598.601C618.864 599.968 618.457 601.131 617.924 602.026C617.41 602.89 616.911 603.274 616.338 603.384L616.883 606.205ZM625.315 594.819C625.696 594.755 625.936 594.803 626.103 594.873C626.281 594.947 626.478 595.089 626.701 595.355C627.198 595.946 627.581 596.825 628.116 598.007C628.595 599.066 629.212 600.405 630.185 601.363C631.274 602.435 632.742 602.976 634.637 602.592L634.066 599.776C633.115 599.969 632.615 599.723 632.2 599.315C631.669 598.793 631.247 597.958 630.733 596.824C630.276 595.812 629.716 594.478 628.902 593.508C628.469 592.993 627.919 592.517 627.206 592.22C626.483 591.919 625.688 591.843 624.838 591.987L625.315 594.819ZM634.637 602.592C636.527 602.209 637.704 601.13 638.4 599.777C639.044 598.524 639.265 597.055 639.423 595.867C639.598 594.553 639.699 593.609 639.973 592.918C640.096 592.609 640.217 592.457 640.31 592.379C640.385 592.316 640.516 592.236 640.805 592.214L640.585 589.35C639.768 589.413 639.049 589.686 638.462 590.18C637.892 590.658 637.538 591.267 637.303 591.859C636.862 592.97 636.722 594.388 636.576 595.488C636.413 596.714 636.233 597.71 635.845 598.462C635.51 599.115 635.023 599.582 634.066 599.776L634.637 602.592ZM640.805 592.214C641.347 592.173 641.914 592.397 642.624 593.061C643.352 593.743 644.038 594.707 644.815 595.82C645.545 596.863 646.378 598.076 647.312 598.956C648.268 599.857 649.573 600.638 651.213 600.342L650.702 597.515C650.352 597.578 649.932 597.478 649.282 596.865C648.61 596.232 647.956 595.299 647.17 594.174C646.433 593.118 645.576 591.889 644.587 590.964C643.579 590.02 642.255 589.221 640.585 589.35L640.805 592.214ZM651.213 600.342C652.865 600.043 653.814 598.818 654.405 597.645C654.984 596.493 655.389 595.041 655.765 593.823C656.169 592.518 656.557 591.406 657.096 590.577C657.6 589.803 658.163 589.382 658.944 589.269L658.533 586.426C656.718 586.688 655.508 587.75 654.688 589.011C653.903 590.218 653.416 591.695 653.021 592.976C652.598 594.345 652.28 595.477 651.839 596.353C651.408 597.208 651.039 597.454 650.702 597.515L651.213 600.342ZM658.944 589.269C659.678 589.163 660.302 589.408 660.998 590.063C661.744 590.764 662.416 591.795 663.18 593.015C663.891 594.151 664.708 595.5 665.668 596.474C666.674 597.494 668.054 598.318 669.842 597.973L669.298 595.152C668.814 595.246 668.353 595.105 667.714 594.457C667.028 593.761 666.395 592.737 665.615 591.491C664.887 590.328 664.028 588.969 662.966 587.97C661.854 586.924 660.395 586.157 658.533 586.426L658.944 589.269ZM669.842 597.973C671.541 597.645 672.621 596.49 673.351 595.265C674.062 594.071 674.566 592.597 675.015 591.329C675.492 589.982 675.92 588.829 676.483 587.956C677.019 587.124 677.575 586.705 678.274 586.587L677.797 583.755C676.035 584.052 674.871 585.155 674.068 586.399C673.293 587.603 672.763 589.082 672.307 590.369C671.823 591.736 671.417 592.899 670.883 593.794C670.369 594.658 669.87 595.042 669.298 595.152L669.842 597.973ZM678.274 586.587C678.655 586.523 678.895 586.571 679.062 586.641C679.24 586.715 679.437 586.857 679.66 587.123C680.157 587.714 680.54 588.593 681.075 589.775C681.554 590.834 682.171 592.173 683.144 593.13C684.233 594.203 685.701 594.744 687.596 594.36L687.025 591.544C686.074 591.737 685.574 591.491 685.159 591.083C684.629 590.561 684.206 589.726 683.693 588.592C683.235 587.58 682.675 586.246 681.861 585.276C681.429 584.761 680.878 584.285 680.166 583.988C679.442 583.687 678.647 583.611 677.797 583.755L678.274 586.587ZM687.596 594.36C689.421 593.99 690.89 592.9 692.035 591.626C693.182 590.352 694.078 588.814 694.759 587.376C695.444 585.93 695.937 584.532 696.258 583.5C696.42 582.982 696.539 582.552 696.619 582.248C696.659 582.096 696.689 581.976 696.709 581.892C696.719 581.849 696.727 581.816 696.733 581.793C696.736 581.781 696.738 581.772 696.739 581.765C696.74 581.762 696.741 581.759 696.741 581.757C696.741 581.755 696.742 581.755 696.742 581.754C696.742 581.753 696.742 581.753 696.742 581.753C696.742 581.752 696.742 581.752 695.341 581.436C693.94 581.12 693.94 581.12 693.94 581.119C693.94 581.119 693.94 581.119 693.94 581.119C693.94 581.119 693.94 581.119 693.94 581.119C693.94 581.119 693.94 581.12 693.939 581.122C693.939 581.125 693.937 581.131 693.936 581.138C693.932 581.154 693.926 581.179 693.918 581.213C693.901 581.282 693.875 581.385 693.84 581.518C693.77 581.786 693.662 582.174 693.515 582.646C693.221 583.593 692.774 584.857 692.163 586.146C691.548 587.443 690.793 588.712 689.899 589.705C689.006 590.699 688.047 591.337 687.025 591.544L687.596 594.36ZM3.17586 685.197L-18.3055 693.185L-17.3043 695.877L4.17708 687.89L3.17586 685.197ZM-16.3687 694.508L-28.3763 -50.1052L-31.2487 -50.0589L-19.2411 694.554L-16.3687 694.508ZM-29.8309 -48.6458L727.363 -38.9692L727.4 -41.8418L-29.7941 -51.5183L-29.8309 -48.6458ZM725.945 -40.4278L716.269 581.414L719.141 581.458L728.818 -40.3831L725.945 -40.4278ZM717.705 580H695.341V582.872H717.705V580ZM206.866 556.169C208.292 556.343 208.291 556.343 208.291 556.343C208.291 556.343 208.291 556.344 208.291 556.344C208.291 556.344 208.291 556.344 208.291 556.344C208.291 556.344 208.291 556.344 208.291 556.343C208.292 556.342 208.292 556.338 208.293 556.334C208.294 556.324 208.296 556.308 208.299 556.286C208.305 556.242 208.315 556.174 208.329 556.085C208.357 555.907 208.401 555.649 208.466 555.335C208.595 554.703 208.801 553.872 209.105 553.043C209.415 552.201 209.798 551.438 210.25 550.887C210.695 550.346 211.12 550.107 211.539 550.062L211.234 547.206C209.828 547.356 208.776 548.156 208.03 549.064C207.292 549.963 206.774 551.059 206.409 552.053C206.039 553.058 205.799 554.038 205.652 554.758C205.577 555.12 205.525 555.423 205.491 555.637C205.474 555.745 205.462 555.831 205.454 555.891C205.449 555.922 205.446 555.946 205.444 555.963C205.443 555.972 205.442 555.979 205.441 555.985C205.441 555.987 205.441 555.989 205.44 555.991C205.44 555.992 205.44 555.993 205.44 555.994C205.44 555.994 205.44 555.994 205.44 555.995C205.44 555.995 205.44 555.995 206.866 556.169ZM211.539 550.062C211.878 550.026 212.095 550.114 212.384 550.451C212.747 550.876 213.059 551.524 213.463 552.428C213.824 553.235 214.276 554.289 214.902 555.111C215.576 555.994 216.581 556.779 218.047 556.779V553.906C217.764 553.906 217.519 553.804 217.186 553.368C216.807 552.871 216.497 552.175 216.086 551.256C215.719 550.434 215.249 549.381 214.567 548.584C213.812 547.7 212.721 547.047 211.234 547.206L211.539 550.062ZM218.047 556.779C219.504 556.779 220.489 556.02 221.146 555.134C221.74 554.333 222.164 553.29 222.502 552.526C222.883 551.663 223.2 551.034 223.593 550.609C223.916 550.259 224.283 550.053 224.912 550.07L224.988 547.198C223.455 547.157 222.314 547.761 221.484 548.658C220.724 549.48 220.241 550.536 219.874 551.364C219.464 552.291 219.191 552.947 218.839 553.422C218.55 553.812 218.338 553.906 218.047 553.906V556.779ZM224.912 550.07C225.507 550.086 225.977 550.343 226.407 550.842C226.865 551.374 227.233 552.144 227.511 553.023C227.785 553.888 227.942 554.767 228.031 555.441C228.074 555.775 228.1 556.051 228.115 556.241C228.123 556.336 228.127 556.408 228.13 556.455C228.131 556.479 228.132 556.496 228.133 556.506C228.133 556.511 228.133 556.515 228.133 556.516C228.133 556.517 228.133 556.517 228.133 556.517C228.133 556.517 228.133 556.517 228.133 556.517C228.133 556.516 228.133 556.516 228.133 556.516C228.133 556.516 228.133 556.515 229.568 556.461C231.004 556.406 231.004 556.406 231.004 556.405C231.004 556.405 231.004 556.404 231.004 556.404C231.004 556.403 231.004 556.402 231.003 556.401C231.003 556.399 231.003 556.397 231.003 556.394C231.003 556.388 231.003 556.38 231.002 556.371C231.001 556.352 231 556.326 230.998 556.293C230.994 556.227 230.988 556.134 230.979 556.017C230.961 555.785 230.93 555.458 230.879 555.067C230.777 554.291 230.591 553.235 230.25 552.158C229.914 551.095 229.399 549.915 228.585 548.969C227.743 547.99 226.555 547.24 224.988 547.198L224.912 550.07ZM94.7137 387.188C96.0912 387.595 96.0912 387.595 96.0911 387.595C96.0911 387.595 96.0911 387.595 96.0911 387.595C96.0911 387.595 96.0911 387.595 96.0912 387.595C96.0913 387.594 96.0917 387.593 96.0922 387.591C96.0932 387.588 96.0948 387.582 96.0972 387.575C96.1018 387.559 96.1091 387.535 96.119 387.503C96.1388 387.439 96.169 387.342 96.2091 387.218C96.2892 386.969 96.4086 386.609 96.5634 386.176C96.874 385.305 97.3216 384.151 97.8737 382.994C98.4316 381.825 99.0676 380.715 99.7396 379.895C100.449 379.03 100.996 378.734 101.332 378.699L101.027 375.842C99.5368 376.001 98.3635 377.043 97.5181 378.074C96.6355 379.15 95.8833 380.495 95.2811 381.757C94.6732 383.03 94.1889 384.282 93.8577 385.21C93.6915 385.676 93.5625 386.064 93.4744 386.337C93.4304 386.474 93.3965 386.583 93.3733 386.658C93.3617 386.696 93.3528 386.725 93.3466 386.746C93.3435 386.756 93.3411 386.764 93.3393 386.77C93.3384 386.773 93.3377 386.775 93.3372 386.777C93.3369 386.778 93.3367 386.779 93.3366 386.779C93.3365 386.78 93.3364 386.78 93.3363 386.78C93.3362 386.78 93.3361 386.781 94.7137 387.188ZM101.332 378.699C101.504 378.68 101.801 378.718 102.319 379.393C102.841 380.074 103.319 381.063 103.873 382.252C104.389 383.361 104.98 384.664 105.687 385.671C106.378 386.654 107.454 387.749 109.055 387.749V384.876C108.907 384.876 108.581 384.792 108.038 384.019C107.511 383.269 107.036 382.239 106.477 381.039C105.955 379.918 105.348 378.622 104.598 377.644C103.843 376.66 102.68 375.665 101.027 375.842L101.332 378.699ZM109.055 387.749C110.749 387.749 111.74 386.512 112.313 385.468C112.894 384.408 113.332 383.025 113.726 381.871C114.151 380.623 114.54 379.585 115.026 378.861C115.48 378.185 115.853 378.015 116.26 378.026L116.336 375.154C114.581 375.107 113.404 376.123 112.641 377.259C111.91 378.348 111.414 379.747 111.006 380.945C110.566 382.236 110.223 383.305 109.794 384.086C109.357 384.883 109.109 384.876 109.055 384.876V387.749ZM116.26 378.026C116.802 378.04 117.474 378.363 118.26 379.164C119.028 379.947 119.749 381.029 120.378 382.183C121.001 383.324 121.502 384.472 121.848 385.341C122.02 385.774 122.152 386.133 122.241 386.381C122.285 386.505 122.318 386.602 122.34 386.666C122.351 386.698 122.358 386.721 122.364 386.737C122.366 386.744 122.368 386.75 122.369 386.753C122.369 386.754 122.37 386.755 122.37 386.756C122.37 386.756 122.37 386.756 122.37 386.756C122.37 386.756 122.37 386.756 122.37 386.756C122.37 386.756 122.37 386.755 123.736 386.313C125.103 385.87 125.102 385.869 125.102 385.869C125.102 385.869 125.102 385.868 125.102 385.868C125.102 385.868 125.102 385.867 125.101 385.866C125.101 385.864 125.1 385.861 125.099 385.858C125.097 385.852 125.094 385.844 125.091 385.833C125.084 385.812 125.073 385.782 125.06 385.744C125.034 385.667 124.996 385.557 124.947 385.418C124.848 385.141 124.704 384.748 124.516 384.278C124.144 383.342 123.595 382.081 122.9 380.806C122.21 379.543 121.341 378.202 120.31 377.151C119.295 376.118 117.956 375.197 116.336 375.154L116.26 378.026ZM220.095 205.008C221.472 205.415 221.472 205.415 221.472 205.416C221.472 205.416 221.472 205.416 221.472 205.416C221.472 205.416 221.472 205.416 221.472 205.415C221.472 205.415 221.473 205.414 221.473 205.412C221.474 205.409 221.476 205.403 221.478 205.395C221.483 205.38 221.49 205.356 221.5 205.324C221.52 205.259 221.55 205.163 221.59 205.038C221.67 204.789 221.789 204.43 221.944 203.996C222.255 203.126 222.702 201.972 223.255 200.815C223.812 199.646 224.448 198.536 225.12 197.716C225.83 196.851 226.377 196.555 226.713 196.519L226.408 193.663C224.918 193.822 223.744 194.863 222.899 195.894C222.016 196.971 221.264 198.315 220.662 199.577C220.054 200.851 219.57 202.103 219.239 203.031C219.072 203.496 218.943 203.884 218.855 204.158C218.811 204.295 218.777 204.403 218.754 204.479C218.743 204.516 218.734 204.546 218.727 204.566C218.724 204.577 218.722 204.585 218.72 204.591C218.719 204.594 218.719 204.596 218.718 204.598C218.718 204.599 218.718 204.599 218.717 204.6C218.717 204.6 218.717 204.601 218.717 204.601C218.717 204.601 218.717 204.601 220.095 205.008ZM226.713 196.519C226.885 196.501 227.182 196.539 227.699 197.214C228.222 197.894 228.7 198.883 229.254 200.072C229.77 201.182 230.361 202.485 231.068 203.491C231.759 204.475 232.835 205.57 234.436 205.57V202.697C234.288 202.697 233.961 202.612 233.419 201.84C232.892 201.09 232.417 200.059 231.858 198.859C231.336 197.739 230.729 196.443 229.979 195.465C229.224 194.481 228.061 193.486 226.408 193.663L226.713 196.519ZM234.436 205.57C236.129 205.57 237.121 204.333 237.694 203.289C238.275 202.229 238.713 200.846 239.106 199.692C239.532 198.444 239.921 197.406 240.407 196.682C240.861 196.006 241.234 195.835 241.641 195.846L241.717 192.975C239.962 192.928 238.785 193.944 238.022 195.08C237.291 196.168 236.795 197.568 236.387 198.765C235.947 200.057 235.604 201.125 235.175 201.907C234.738 202.704 234.49 202.697 234.436 202.697V205.57ZM241.641 195.846C242.183 195.861 242.855 196.184 243.64 196.984C244.409 197.767 245.129 198.85 245.759 200.003C246.382 201.145 246.882 202.293 247.228 203.162C247.401 203.594 247.533 203.953 247.621 204.202C247.666 204.326 247.699 204.422 247.721 204.486C247.731 204.518 247.739 204.542 247.744 204.557C247.747 204.565 247.749 204.57 247.75 204.573C247.75 204.575 247.75 204.576 247.751 204.576C247.751 204.577 247.751 204.577 247.751 204.577C247.751 204.577 247.751 204.576 247.751 204.576C247.751 204.576 247.75 204.576 249.117 204.133C250.483 203.69 250.483 203.69 250.483 203.69C250.483 203.69 250.483 203.689 250.483 203.689C250.483 203.688 250.482 203.687 250.482 203.686C250.481 203.685 250.481 203.682 250.48 203.679C250.478 203.673 250.475 203.665 250.471 203.654C250.464 203.633 250.454 203.603 250.441 203.564C250.415 203.487 250.377 203.377 250.328 203.238C250.229 202.961 250.084 202.569 249.897 202.099C249.524 201.162 248.976 199.902 248.28 198.627C247.591 197.364 246.722 196.023 245.691 194.972C244.676 193.939 243.337 193.018 241.717 192.975L241.641 195.846ZM51.2932 2.21622C52.6707 2.62321 52.6707 2.6234 52.6706 2.62356C52.6706 2.62356 52.6706 2.62369 52.6706 2.6237C52.6706 2.62371 52.6706 2.62359 52.6707 2.62332C52.6709 2.62279 52.6712 2.62169 52.6717 2.62003C52.6727 2.61671 52.6743 2.61115 52.6767 2.60343C52.6813 2.58798 52.6886 2.56388 52.6985 2.53169C52.7184 2.4673 52.7485 2.37063 52.7886 2.24619C52.8688 1.99716 52.9882 1.63788 53.1429 1.2043C53.4535 0.333863 53.9011 -0.82048 54.4533 -1.97742C55.0111 -3.1462 55.6471 -4.25649 56.3192 -5.07616C57.0283 -5.94106 57.5759 -6.23689 57.9114 -6.27273L57.6063 -9.12927C56.1163 -8.9701 54.9431 -7.92876 54.0976 -6.89762C53.2151 -5.82125 52.4629 -4.47661 51.8606 -3.21484C51.2528 -1.94123 50.7684 -0.689396 50.4372 0.238705C50.271 0.704396 50.142 1.09247 50.054 1.36598C50.0099 1.50282 49.9761 1.61121 49.9529 1.68657C49.9413 1.72425 49.9323 1.7537 49.9261 1.77433C49.923 1.78464 49.9206 1.79276 49.9188 1.7986C49.918 1.80152 49.9173 1.80387 49.9167 1.80565C49.9165 1.80653 49.9162 1.80728 49.9161 1.80787C49.916 1.80817 49.9159 1.80851 49.9158 1.80866C49.9157 1.80896 49.9157 1.80923 51.2932 2.21622ZM57.9114 -6.27273C58.0837 -6.29113 58.3808 -6.2529 58.8982 -5.57842C59.4205 -4.89757 59.8987 -3.90853 60.4523 -2.71979C60.9689 -1.61034 61.5597 -0.307004 62.2667 0.699248C62.9578 1.68297 64.0334 2.77757 65.6343 2.77757V-0.0952308C65.4867 -0.0952308 65.1601 -0.17966 64.6173 -0.952286C64.0903 -1.70238 63.6153 -2.73272 63.0565 -3.93256C62.5347 -5.05312 61.9278 -6.349 61.1775 -7.32699C60.4224 -8.31135 59.2594 -9.30588 57.6063 -9.12927L57.9114 -6.27273ZM65.6343 2.77757C67.3282 2.77757 68.3194 1.54089 68.8923 0.496806C69.4738 -0.562846 69.912 -1.94632 70.3052 -3.10009C70.7304 -4.34788 71.1195 -5.38626 71.6057 -6.11012C72.0598 -6.78616 72.4323 -6.95655 72.8395 -6.9457L72.916 -9.81747C71.1609 -9.86424 69.984 -8.84809 69.2209 -7.71191C68.4899 -6.62356 67.994 -5.22405 67.586 -4.02675C67.1459 -2.73543 66.8026 -1.66661 66.3738 -0.88524C65.9365 -0.0883037 65.6887 -0.0952308 65.6343 -0.0952308V2.77757ZM72.8395 -6.9457C73.3768 -6.93138 73.9043 -6.6619 74.5011 -5.98829C75.1144 -5.29603 75.6613 -4.33218 76.2317 -3.22549C76.7638 -2.19318 77.349 -0.963429 77.969 -0.0445066C78.5426 0.805517 79.5116 1.96443 81.0152 1.96443V-0.90837C81.1059 -0.90837 80.892 -0.848758 80.3505 -1.65128C79.8555 -2.38491 79.3938 -3.36095 78.7853 -4.54164C78.2151 -5.64795 77.5277 -6.9043 76.6513 -7.8934C75.7585 -8.90114 74.5408 -9.77418 72.916 -9.81747L72.8395 -6.9457ZM95.371 1.34117C96.7364 0.895109 96.7363 0.894879 96.7362 0.894611C96.7362 0.89447 96.7361 0.894162 96.736 0.893879C96.7358 0.893314 96.7356 0.892594 96.7353 0.89172C96.7347 0.889973 96.734 0.88761 96.733 0.884643C96.731 0.878708 96.7283 0.870351 96.7247 0.859652C96.7176 0.838253 96.7073 0.807475 96.694 0.767942C96.6673 0.688887 96.6284 0.574746 96.578 0.430525C96.4773 0.142231 96.3306 -0.267099 96.1446 -0.757273C95.7738 -1.73448 95.2414 -3.0475 94.6006 -4.3687C93.9664 -5.67607 93.1949 -7.05725 92.3325 -8.1317C91.9009 -8.66952 91.4092 -9.1779 90.858 -9.56039C90.3067 -9.94293 89.6181 -10.2522 88.828 -10.2478L88.844 -7.37501C88.857 -7.37508 88.9749 -7.37041 89.2202 -7.20018C89.4656 -7.02991 89.7605 -6.74666 90.0921 -6.33352C90.7562 -5.50605 91.4177 -4.34797 92.0158 -3.11496C92.6071 -1.89578 93.1061 -0.6673 93.4587 0.261895C93.6344 0.724923 93.7724 1.11002 93.8659 1.37785C93.9127 1.5117 93.9483 1.61605 93.9718 1.68596C93.9836 1.72092 93.9924 1.74725 93.9981 1.76433C94.0009 1.77288 94.003 1.77911 94.0042 1.78295C94.0049 1.78487 94.0053 1.78619 94.0055 1.78691C94.0057 1.78727 94.0057 1.78747 94.0057 1.78753C94.0057 1.78755 94.0057 1.78748 94.0057 1.78749C94.0057 1.78738 94.0056 1.78723 95.371 1.34117ZM88.828 -10.2478C87.3031 -10.2393 86.2171 -9.14504 85.5106 -8.21116C84.7594 -7.21821 84.0921 -5.93619 83.5033 -4.79224C82.8829 -3.58663 82.3464 -2.52845 81.8025 -1.75494C81.5344 -1.37365 81.3142 -1.13584 81.145 -1.00333C80.9839 -0.877169 80.9506 -0.90837 81.0152 -0.90837V1.96443C81.7862 1.96443 82.4267 1.64193 82.9165 1.25825C83.3982 0.880925 83.8059 0.390346 84.1525 -0.102526C84.838 -1.07736 85.4777 -2.35067 86.0577 -3.47767C86.6695 -4.66634 87.2268 -5.71806 87.8016 -6.47792C88.4212 -7.29687 88.7626 -7.37456 88.844 -7.37501L88.828 -10.2478ZM517.369 40.8158C518.747 41.2228 518.747 41.223 518.747 41.2232C518.747 41.2232 518.747 41.2233 518.747 41.2233C518.747 41.2233 518.747 41.2232 518.747 41.2229C518.747 41.2224 518.747 41.2213 518.748 41.2196C518.749 41.2163 518.75 41.2108 518.753 41.203C518.757 41.1876 518.765 41.1635 518.774 41.1313C518.794 41.0669 518.824 40.9702 518.865 40.8458C518.945 40.5968 519.064 40.2375 519.219 39.8039C519.529 38.9335 519.977 37.7791 520.529 36.6222C521.087 35.4534 521.723 34.3431 522.395 33.5235C523.104 32.6586 523.652 32.3627 523.987 32.3269L523.682 29.4703C522.192 29.6295 521.019 30.6708 520.174 31.702C519.291 32.7784 518.539 34.123 517.937 35.3848C517.329 36.6584 516.844 37.9102 516.513 38.8383C516.347 39.304 516.218 39.6921 516.13 39.9656C516.086 40.1024 516.052 40.2108 516.029 40.2862C516.017 40.3239 516.008 40.3533 516.002 40.3739C515.999 40.3843 515.997 40.3924 515.995 40.3982C515.994 40.4011 515.993 40.4035 515.993 40.4053C515.992 40.4061 515.992 40.4069 515.992 40.4075C515.992 40.4078 515.992 40.4081 515.992 40.4083C515.992 40.4086 515.992 40.4088 517.369 40.8158ZM523.987 32.3269C524.16 32.3085 524.457 32.3467 524.974 33.0212C525.496 33.702 525.975 34.6911 526.528 35.8798C527.045 36.9893 527.636 38.2926 528.343 39.2989C529.034 40.2826 530.109 41.3772 531.71 41.3772V38.5044C531.563 38.5044 531.236 38.42 530.693 37.6473C530.166 36.8972 529.691 35.8669 529.132 34.6671C528.611 33.5465 528.004 32.2506 527.254 31.2726C526.498 30.2883 525.335 29.2937 523.682 29.4703L523.987 32.3269ZM531.71 41.3772C533.404 41.3772 534.395 40.1405 534.968 39.0964C535.55 38.0368 535.988 36.6533 536.381 35.4995C536.806 34.2517 537.195 33.2134 537.682 32.4895C538.136 31.8135 538.508 31.6431 538.915 31.6539L538.992 28.7821C537.237 28.7354 536.06 29.7515 535.297 30.8877C534.566 31.976 534.07 33.3756 533.662 34.5729C533.222 35.8642 532.879 36.933 532.45 37.7144C532.012 38.5113 531.765 38.5044 531.71 38.5044V41.3772ZM538.915 31.6539C539.458 31.6684 540.13 31.9916 540.915 32.792C541.684 33.5748 542.404 34.6577 543.033 35.8108C543.657 36.9524 544.157 38.1005 544.503 38.9693C544.675 39.4018 544.808 39.7608 544.896 40.0094C544.94 40.1336 544.974 40.23 544.995 40.2939C545.006 40.3259 545.014 40.3498 545.019 40.3649C545.022 40.3725 545.023 40.3779 545.024 40.381C545.025 40.3826 545.025 40.3836 545.025 40.384C545.025 40.3842 545.025 40.3843 545.025 40.3842C545.025 40.3842 545.025 40.384 545.025 40.384C545.025 40.3838 545.025 40.3836 546.392 39.9408C547.758 39.498 547.758 39.4977 547.758 39.4973C547.758 39.4972 547.758 39.4968 547.758 39.4964C547.757 39.4958 547.757 39.495 547.757 39.494C547.756 39.4922 547.755 39.4897 547.754 39.4866C547.752 39.4805 547.75 39.4721 547.746 39.4615C547.739 39.4403 547.729 39.4102 547.716 39.3718C547.69 39.295 547.652 39.1848 547.603 39.0461C547.504 38.7688 547.359 38.3763 547.172 37.9063C546.799 36.9701 546.251 35.7091 545.555 34.4344C544.866 33.1712 543.997 31.8306 542.965 30.7796C541.951 29.7462 540.612 28.8253 538.992 28.7821L538.915 31.6539ZM640.547 512.237C641.925 512.644 641.925 512.644 641.925 512.644C641.925 512.644 641.925 512.644 641.925 512.644C641.925 512.644 641.925 512.644 641.925 512.644C641.925 512.643 641.925 512.642 641.926 512.641C641.927 512.637 641.928 512.632 641.931 512.624C641.935 512.609 641.943 512.584 641.953 512.552C641.973 512.488 642.003 512.391 642.043 512.267C642.123 512.018 642.242 511.658 642.397 511.225C642.708 510.354 643.155 509.2 643.707 508.043C644.265 506.874 644.901 505.764 645.573 504.944C646.282 504.08 646.83 503.784 647.166 503.748L646.86 500.891C645.371 501.05 644.197 502.092 643.352 503.123C642.469 504.199 641.717 505.544 641.115 506.806C640.507 508.079 640.023 509.331 639.691 510.259C639.525 510.725 639.396 511.113 639.308 511.387C639.264 511.523 639.23 511.632 639.207 511.707C639.195 511.745 639.186 511.774 639.18 511.795C639.177 511.805 639.175 511.813 639.173 511.819C639.172 511.822 639.171 511.824 639.171 511.826C639.171 511.827 639.17 511.828 639.17 511.828C639.17 511.829 639.17 511.829 639.17 511.829C639.17 511.83 639.17 511.83 640.547 512.237ZM647.166 503.748C647.338 503.729 647.635 503.768 648.152 504.442C648.675 505.123 649.153 506.112 649.706 507.301C650.223 508.41 650.814 509.714 651.521 510.72C652.212 511.704 653.288 512.798 654.888 512.798V509.925C654.741 509.925 654.414 509.841 653.871 509.068C653.344 508.318 652.869 507.288 652.311 506.088C651.789 504.967 651.182 503.672 650.432 502.694C649.677 501.709 648.514 500.715 646.86 500.891L647.166 503.748ZM654.888 512.798C656.582 512.798 657.574 511.561 658.146 510.517C658.728 509.458 659.166 508.074 659.559 506.92C659.985 505.673 660.374 504.634 660.86 503.91C661.314 503.234 661.686 503.064 662.094 503.075L662.17 500.203C660.415 500.156 659.238 501.172 658.475 502.309C657.744 503.397 657.248 504.796 656.84 505.994C656.4 507.285 656.057 508.354 655.628 509.135C655.191 509.932 654.943 509.925 654.888 509.925V512.798ZM662.094 503.075C662.636 503.089 663.308 503.413 664.093 504.213C664.862 504.996 665.582 506.079 666.212 507.232C666.835 508.373 667.335 509.521 667.681 510.39C667.854 510.823 667.986 511.182 668.074 511.43C668.119 511.555 668.152 511.651 668.173 511.715C668.184 511.747 668.192 511.771 668.197 511.786C668.2 511.793 668.201 511.799 668.203 511.802C668.203 511.804 668.203 511.805 668.204 511.805C668.204 511.805 668.204 511.805 668.204 511.805C668.204 511.805 668.204 511.805 668.204 511.805C668.203 511.805 668.203 511.805 669.57 511.362C670.936 510.919 670.936 510.919 670.936 510.918C670.936 510.918 670.936 510.918 670.936 510.917C670.936 510.917 670.935 510.916 670.935 510.915C670.934 510.913 670.934 510.911 670.933 510.908C670.931 510.901 670.928 510.893 670.924 510.882C670.917 510.861 670.907 510.831 670.894 510.793C670.868 510.716 670.83 510.606 670.781 510.467C670.682 510.19 670.537 509.797 670.35 509.327C669.977 508.391 669.429 507.13 668.733 505.855C668.044 504.592 667.175 503.252 666.144 502.201C665.129 501.167 663.79 500.246 662.17 500.203L662.094 503.075ZM-19.2413 694.531V915.395H-16.3685V694.531H-19.2413ZM-17.8049 916.832H717.705V913.959H-17.8049V916.832ZM719.141 915.395V581.436H716.269V915.395H719.141Z" fill="black"/>
<path d="M525.111 791.416C513.044 794.042 502.295 800.295 503.644 806.252C504.992 812.209 514.883 810.748 530.618 807.938C546.353 805.128 554.445 801.532 553.321 794.676C552.197 787.82 537.177 788.79 525.111 791.416Z" fill="#E4DCB4"/>
<path d="M359.137 683.364C347.071 685.99 336.322 692.243 337.671 698.2C339.019 704.157 348.91 702.696 364.645 699.886C380.38 697.076 388.472 693.48 387.348 686.624C386.224 679.768 371.204 680.738 359.137 683.364Z" fill="#E4DCB4"/>
<path d="M675.229 666.842C663.163 669.468 652.414 675.722 653.763 681.679C655.111 687.636 665.002 686.174 680.737 683.365C696.472 680.555 704.564 676.958 703.44 670.102C702.316 663.246 687.296 664.217 675.229 666.842Z" fill="#E4DCB4"/>
<path d="M222.921 786.471C210.854 789.097 200.105 795.35 201.454 801.307C202.803 807.264 212.693 805.803 228.429 802.993C244.164 800.183 252.256 796.586 251.132 789.73C250.008 782.874 234.988 783.845 222.921 786.471Z" fill="#E4DCB4"/>
<path d="M193.66 757.681C181.593 760.307 170.844 766.56 172.193 772.517C173.542 778.475 183.432 777.013 199.168 774.203C214.903 771.393 222.995 767.797 221.871 760.941C220.747 754.085 205.727 755.055 193.66 757.681Z" fill="#E4DCB4"/>
<path d="M1.33937 802.993C-10.7274 805.619 -21.4761 811.872 -20.1275 817.829C-18.7789 823.786 -8.88817 822.325 6.84705 819.515C22.5823 816.705 30.6743 813.108 29.5503 806.252C28.4263 799.396 13.4062 800.367 1.33937 802.993Z" fill="#E4DCB4"/>
<path d="M19.5095 827.77C7.44272 830.396 -3.3059 836.649 -1.95733 842.606C-0.608762 848.564 9.282 847.102 25.0172 844.292C40.7524 841.482 48.8444 837.886 47.7204 831.03C46.5965 824.174 31.5763 825.144 19.5095 827.77Z" fill="#E4DCB4"/>
<path d="M695.047 844.292C682.98 846.918 672.232 853.171 673.58 859.129C674.929 865.086 684.82 863.624 700.555 860.814C716.29 858.005 724.382 854.408 723.258 847.552C722.134 840.696 707.114 841.666 695.047 844.292Z" fill="#E4DCB4"/>
<path d="M680.737 876.001C668.67 878.627 657.922 884.88 659.27 890.837C660.619 896.794 670.51 895.333 686.245 892.523C701.98 889.713 710.072 886.116 708.948 879.26C707.824 872.404 692.804 873.375 680.737 876.001Z" fill="#E4DCB4"/>
<path d="M525.111 791.416C513.044 794.042 502.295 800.295 503.644 806.252C504.992 812.209 514.883 810.748 530.618 807.938C546.353 805.128 554.445 801.532 553.321 794.676C552.197 787.82 537.177 788.79 525.111 791.416Z" stroke="black"/>
<path d="M359.137 683.364C347.071 685.99 336.322 692.243 337.671 698.2C339.019 704.157 348.91 702.696 364.645 699.886C380.38 697.076 388.472 693.48 387.348 686.624C386.224 679.768 371.204 680.738 359.137 683.364Z" stroke="black"/>
<path d="M675.229 666.842C663.163 669.468 652.414 675.722 653.763 681.679C655.111 687.636 665.002 686.174 680.737 683.365C696.472 680.555 704.564 676.958 703.44 670.102C702.316 663.246 687.296 664.217 675.229 666.842Z" stroke="black"/>
<path d="M222.921 786.471C210.854 789.097 200.105 795.35 201.454 801.307C202.803 807.264 212.693 805.803 228.429 802.993C244.164 800.183 252.256 796.586 251.132 789.73C250.008 782.874 234.988 783.845 222.921 786.471Z" stroke="black"/>
<path d="M193.66 757.681C181.593 760.307 170.844 766.56 172.193 772.517C173.542 778.475 183.432 777.013 199.168 774.203C214.903 771.393 222.995 767.797 221.871 760.941C220.747 754.085 205.727 755.055 193.66 757.681Z" stroke="black"/>
<path d="M1.33937 802.993C-10.7274 805.619 -21.4761 811.872 -20.1275 817.829C-18.7789 823.786 -8.88817 822.325 6.84705 819.515C22.5823 816.705 30.6743 813.108 29.5503 806.252C28.4263 799.396 13.4062 800.367 1.33937 802.993Z" stroke="black"/>
<path d="M19.5095 827.77C7.44272 830.396 -3.3059 836.649 -1.95733 842.606C-0.608762 848.564 9.282 847.102 25.0172 844.292C40.7524 841.482 48.8444 837.886 47.7204 831.03C46.5965 824.174 31.5763 825.144 19.5095 827.77Z" stroke="black"/>
<path d="M695.047 844.292C682.98 846.918 672.232 853.171 673.58 859.129C674.929 865.086 684.82 863.624 700.555 860.814C716.29 858.005 724.382 854.408 723.258 847.552C722.134 840.696 707.114 841.666 695.047 844.292Z" stroke="black"/>
<path d="M680.737 876.001C668.67 878.627 657.922 884.88 659.27 890.837C660.619 896.794 670.51 895.333 686.245 892.523C701.98 889.713 710.072 886.116 708.948 879.26C707.824 872.404 692.804 873.375 680.737 876.001Z" stroke="black"/>
</g>
<defs>
<clipPath id="clip0_234_158">
<rect width="700" height="900" fill="white" transform="translate(0.78125)"/>
</clipPath>
</defs>
</svg>
