<svg width="701" height="901" viewBox="0 0 701 901" fill="none" xmlns="http://www.w3.org/2000/svg">
<path d="M236.904 405.746C242.708 397.687 254.491 393.285 256.188 386.161C257.885 379.037 252.666 341.817 252.869 330.087C253.072 318.357 254.969 297.338 256.256 287.303C257.543 277.268 259.154 265.968 260.256 258.054C261.359 250.139 260.771 250.727 260.771 250.727L245.988 247.382L245.968 247.378C245.968 247.378 244.877 254.975 239.717 260.536C234.558 266.098 224.785 273.6 214.596 283.981C204.408 294.361 195.135 311.093 189.766 325.564C184.398 340.036 181.47 359.577 182.08 372.339C182.69 385.101 185.862 402.931 190.438 414.289C195.013 425.647 197.515 432.913 205.69 438.897C213.865 444.882 228.429 449.557 228.429 449.557C228.429 449.557 231.1 413.805 236.904 405.746Z" fill="#FFFBE5"/>
<path d="M477.649 284.47C481.152 294.717 488.761 321.116 487.323 336.311C485.884 351.505 478.74 364.366 478.294 372.857C477.847 381.348 488.819 389.489 491.358 393.196C493.898 396.902 496.525 410.545 497.592 417.994C497.592 417.994 507.216 403.991 509.945 395.5C512.674 387.009 517.635 372.063 518.776 358.564C519.917 345.066 516.543 325.039 512.326 310.589C508.109 296.139 491.59 275.444 482.858 266.694C474.126 257.943 461.493 250.727 461.493 250.727C461.493 250.727 474.146 274.224 477.649 284.47Z" fill="#FFFBE5"/>
<path d="M460.47 547.803C447.863 552.391 406.683 551.091 396.445 549.791C386.207 548.491 382.54 546.503 380.554 545.662L381.952 570.245L411.802 572.768C411.802 572.768 444.12 574.032 447.405 572.768C450.69 571.504 456.497 563.898 461.768 562.867C467.04 561.837 479.723 561.032 483.008 562.332C486.293 563.632 491.183 569.364 493.399 570.245C495.614 571.126 502.293 570.245 502.293 570.245L491.596 531.775C491.596 531.775 473.076 543.214 460.47 547.803Z" fill="#FFFBE5"/>
<path d="M313.717 540.665L313.32 540.682C300.098 541.247 261.826 541.15 257.122 540.682C257.122 540.682 258.942 547.388 259.839 553.614C260.736 559.841 261.401 572.768 261.401 572.768C261.401 572.768 262.666 579.768 267.174 580.456C271.681 581.144 280.596 581.927 284.364 580.456C288.132 578.984 287.387 574.486 292.904 572.768C298.422 571.05 326.69 570.666 330.281 572.768C333.872 574.87 335.018 579.054 337.998 580.456C340.978 581.857 372.291 574.87 372.291 574.87C372.291 574.87 371.499 561.946 370.239 556.062C368.979 550.177 365.781 533.459 365.781 533.459C365.781 533.459 354.883 536.485 345.791 538.091C336.79 539.681 326.746 540.109 313.717 540.665Z" fill="#FFFBE5"/>
<path d="M432.209 326.795C435.927 326.281 466.249 337.067 468.814 342.204C471.38 347.34 473.946 353.257 472.92 358.564C471.893 363.872 460.262 374.734 455.472 375.247C450.682 375.761 435.294 365.07 432.912 358.564C430.53 352.058 428.49 327.308 432.209 326.795Z" fill="#D8927F"/>
<path d="M288.749 254.361C292.747 258.09 302.05 265.416 309.531 268.919C319.094 273.397 343.23 278.399 357.988 279.455C372.747 280.512 397.726 278.363 408.69 274.192C419.654 270.021 431.031 263.331 433.545 259.593C436.06 255.855 435.927 247.626 435.927 247.626L369.965 258.084L288.749 254.361Z" fill="#FFFBE5"/>
<path fill-rule="evenodd" clip-rule="evenodd" d="M288.749 254.361C287.636 253.323 286.935 252.564 286.798 252.244C286.169 250.776 248.87 248.021 245.988 247.382L260.771 250.727C260.771 250.727 261.359 250.139 260.256 258.054C259.154 265.968 257.543 277.268 256.256 287.303C254.969 297.338 253.072 318.357 252.869 330.087C252.666 341.817 257.885 379.037 256.188 386.161C254.491 393.285 242.708 397.687 236.904 405.746C231.1 413.805 228.429 449.557 228.429 449.557C228.429 449.557 227.345 457.24 228.076 459.524C228.806 461.808 244.899 462.589 244.899 462.589C256.256 463.456 324.201 466.894 349.19 467.663C374.178 468.432 489.699 471.164 489.699 471.164C489.699 471.164 499.829 471.521 501.145 470.716C502.462 469.911 501.033 452.289 500.564 443.446C500.094 434.604 498.659 425.443 497.592 417.994C496.525 410.545 493.898 396.902 491.358 393.196C488.819 389.489 477.847 381.348 478.294 372.857C478.74 364.366 485.884 351.505 487.323 336.311C488.761 321.116 481.152 294.717 477.649 284.47C474.146 274.224 461.493 250.727 461.493 250.727C461.493 250.727 459.166 245.986 458.189 244H435.927V247.626C435.927 247.626 436.06 255.855 433.545 259.593C431.031 263.331 419.654 270.021 408.69 274.192C397.726 278.363 372.747 280.512 357.988 279.455C343.23 278.399 319.094 273.397 309.531 268.919C302.05 265.416 292.747 258.09 288.749 254.361ZM468.814 342.204C466.249 337.067 435.927 326.281 432.209 326.795C428.49 327.308 430.53 352.058 432.912 358.564C435.294 365.07 450.682 375.761 455.472 375.247C460.262 374.734 471.893 363.872 472.92 358.564C473.946 353.257 471.38 347.34 468.814 342.204Z" fill="#7CACAE"/>
<path d="M349.19 467.663C324.201 466.894 256.256 463.456 244.899 462.589C244.899 462.589 246.129 497.533 247.33 506.762C248.532 515.991 250.212 539.612 251.053 540.079C251.893 540.546 257.122 540.682 257.122 540.682C261.826 541.15 300.098 541.247 313.32 540.682L313.717 540.665C326.746 540.109 336.79 539.681 345.791 538.091C354.883 536.485 365.781 533.459 365.781 533.459L369.771 532.408C369.771 532.408 372.128 487.036 372.291 485.951C372.455 484.867 372.531 538.32 373.754 540.385C374.976 542.45 378.567 544.82 380.554 545.662C382.54 546.503 386.207 548.491 396.445 549.791C406.683 551.091 447.863 552.391 460.47 547.803C473.076 543.214 491.596 531.775 491.596 531.775C491.596 531.775 495.844 528.991 497.219 522.797C498.594 516.602 489.699 471.164 489.699 471.164C489.699 471.164 374.178 468.432 349.19 467.663Z" fill="#F16593"/>
<path fill-rule="evenodd" clip-rule="evenodd" d="M411.802 572.768L381.952 570.245C381.952 570.245 383.151 585.121 383.686 593.915C384.221 602.709 385.219 627.817 385.943 628.684C386.666 629.55 388.499 630.009 388.499 630.009C390.143 630.468 405.155 633.593 411.802 634.291C418.449 634.99 463.344 635.562 474.36 634.75C485.376 633.939 516.574 627.633 516.574 627.633C516.574 627.633 518.777 608.438 517.924 598.274C517.07 588.109 502.293 570.245 502.293 570.245C502.293 570.245 495.614 571.126 493.399 570.245C491.183 569.364 486.293 563.632 483.008 562.332C479.723 561.032 467.04 561.837 461.768 562.867C456.497 563.898 450.69 571.504 447.405 572.768C444.12 574.032 411.802 572.768 411.802 572.768ZM498.324 595.142C493.009 597.304 462.211 598.64 456.666 598.314C451.121 597.987 448.617 597.144 448.528 593.158C448.44 589.172 451.125 587.17 454.897 586.171C458.67 585.171 471.158 584.369 476.283 583.716C481.409 583.063 490.309 582.27 494.549 582.363C498.79 582.456 504.568 583.856 505.08 587.447C505.593 591.038 503.638 592.98 498.324 595.142Z" fill="#CF6F64"/>
<path fill-rule="evenodd" clip-rule="evenodd" d="M372.291 574.87C372.291 574.87 340.978 581.857 337.998 580.456C335.018 579.054 333.872 574.87 330.281 572.768C326.69 570.666 298.422 571.05 292.904 572.768C287.387 574.486 288.132 578.984 284.364 580.456C280.596 581.927 271.681 581.144 267.174 580.456C262.666 579.768 261.401 572.768 261.401 572.768C261.401 572.768 256.707 581.068 253.88 589.785C251.053 598.503 249.983 608.674 250.976 617.085C251.97 625.497 252.581 629.735 253.631 638.143C253.631 638.143 296.894 641.403 311.716 641.862C326.538 642.321 345.791 640.944 353.889 638.143C361.988 635.342 374.182 631.357 374.182 631.357C374.182 631.357 375.384 630.939 376.046 630.009C376.708 629.079 377.542 602.197 377.542 602.197L372.291 574.87ZM282.978 602.197C282.815 596.485 286.989 594.21 292.904 593.068C298.819 591.926 322.768 591.111 329.433 591.6C336.098 592.09 345.211 592.168 345.274 598.6C345.338 605.032 338.95 605.626 332.432 606.879C325.914 608.131 303.916 607.828 297.969 607.828L297.721 607.828C291.778 607.829 283.139 607.831 282.978 602.197Z" fill="#CF6F64"/>
<path d="M292.904 593.068C286.989 594.21 282.815 596.485 282.978 602.197C283.139 607.831 291.778 607.829 297.721 607.828L297.969 607.828C303.916 607.828 325.914 608.131 332.432 606.879C338.95 605.626 345.338 605.032 345.274 598.6C345.211 592.168 336.098 592.09 329.433 591.6C322.768 591.111 298.819 591.926 292.904 593.068Z" fill="#D8927F"/>
<path d="M456.666 598.314C462.211 598.64 493.009 597.304 498.324 595.142C503.638 592.98 505.593 591.038 505.08 587.447C504.568 583.856 498.79 582.456 494.549 582.363C490.309 582.27 481.409 583.063 476.283 583.716C471.158 584.369 458.67 585.171 454.897 586.171C451.125 587.17 448.44 589.172 448.528 593.158C448.617 597.144 451.121 597.987 456.666 598.314Z" fill="#D8927F"/>
<path d="M311.716 641.862C296.894 641.403 253.631 638.143 253.631 638.143C253.631 638.143 255.617 648.978 256.477 649.739C257.338 650.499 266.028 652.033 270.841 652.721C275.654 653.409 288.719 654.862 296.894 655.474C305.069 656.086 331.733 656.485 342.429 654.786C353.125 653.086 369.093 649.203 372.226 645.762C375.358 642.321 374.182 632.582 374.182 631.357C374.182 631.357 361.988 635.342 353.889 638.143C345.791 640.944 326.538 642.321 311.716 641.862Z" fill="#B9675D"/>
<path d="M516.574 627.633C516.574 627.633 485.376 633.939 474.36 634.75C463.344 635.562 418.449 634.99 411.802 634.291C405.155 633.593 390.143 630.468 388.499 630.009C388.499 630.009 387.048 637.427 391.479 639.109C395.91 640.792 405.919 643.162 416.844 644.462C427.77 645.762 454.434 647.98 463.144 648.209C471.853 648.439 492.023 647.126 498.9 645.29C505.776 643.455 512.881 641.709 515.173 637.044C517.465 632.38 516.574 627.633 516.574 627.633Z" fill="#B9675D"/>
<path d="M245.968 247.378L246.299 245.915L244.715 245.556L244.484 247.164L245.968 247.378ZM286.798 252.244L285.419 252.834L285.419 252.834L286.798 252.244ZM435.927 244V242.5H434.427V244H435.927ZM458.189 244L459.535 243.338L459.123 242.5H458.189V244ZM244.899 462.589L245.013 461.094L244.992 461.092L244.971 461.091L244.899 462.589ZM260.771 250.727L260.441 252.19L261.248 252.372L261.832 251.787L260.771 250.727ZM228.429 449.557L229.914 449.766L229.921 449.718L229.925 449.669L228.429 449.557ZM461.493 250.727L460.146 251.388L460.159 251.413L460.172 251.438L461.493 250.727ZM345.791 538.091L346.052 539.568L346.052 539.568L345.791 538.091ZM369.771 532.408L370.153 533.858L371.212 533.579L371.269 532.485L369.771 532.408ZM489.699 471.164L489.752 469.665L489.743 469.665L489.734 469.665L489.699 471.164ZM381.952 570.245L380.455 570.331L380.456 570.348L380.457 570.366L381.952 570.245ZM411.802 572.768L411.675 574.263L411.709 574.265L411.743 574.267L411.802 572.768ZM388.499 630.009L388.903 628.564L388.883 628.559L388.863 628.554L388.499 630.009ZM365.781 533.459L365.399 532.008L365.389 532.011L365.379 532.013L365.781 533.459ZM253.631 638.143L252.143 638.329L252.148 638.372L252.156 638.414L253.631 638.143ZM377.542 602.197L379.041 602.244L379.046 602.078L379.015 601.914L377.542 602.197ZM257.122 540.682L257.27 539.19L257.215 539.184L257.161 539.183L257.122 540.682ZM288.749 254.361L287.726 255.458L287.726 255.458L288.749 254.361ZM369.965 258.084L369.896 259.582L370.049 259.589L370.2 259.566L369.965 258.084ZM282.978 602.197L281.479 602.24L281.479 602.24L282.978 602.197ZM313.717 540.665L313.781 542.164L313.781 542.164L313.717 540.665ZM285.419 252.834C285.543 253.126 285.74 253.387 285.882 253.563C286.047 253.769 286.25 253.995 286.477 254.234C286.933 254.713 287.541 255.297 288.263 255.951C289.709 257.264 291.665 258.907 293.894 260.639C298.335 264.088 303.964 267.968 308.895 270.277L310.167 267.561C305.535 265.391 300.112 261.67 295.734 258.269C293.555 256.576 291.659 254.982 290.278 253.73C289.586 253.102 289.037 252.571 288.649 252.165C288.455 251.96 288.314 251.801 288.222 251.686C288.105 251.541 288.131 251.546 288.177 251.654L285.419 252.834ZM308.895 270.277C313.841 272.594 322.409 274.992 331.497 276.937C340.617 278.889 350.413 280.417 357.881 280.951L358.096 277.959C350.806 277.437 341.154 275.936 332.125 274.003C323.065 272.064 314.784 269.722 310.167 267.561L308.895 270.277ZM357.881 280.951C365.368 281.487 375.391 281.209 384.909 280.277C394.395 279.347 403.546 277.753 409.224 275.594L408.157 272.79C402.87 274.801 394.05 276.367 384.616 277.291C375.213 278.212 365.367 278.479 358.096 277.959L357.881 280.951ZM409.224 275.594C414.785 273.478 420.446 270.726 425.046 268.023C427.346 266.672 429.401 265.321 431.054 264.056C432.678 262.813 434.02 261.574 434.79 260.43L432.3 258.756C431.812 259.481 430.79 260.48 429.231 261.673C427.701 262.844 425.755 264.127 423.526 265.437C419.069 268.056 413.559 270.734 408.157 272.79L409.224 275.594ZM435.927 245.5H458.189V242.5H435.927V245.5ZM476.229 284.956C477.965 290.034 480.727 299.141 482.874 308.859C485.03 318.618 486.525 328.821 485.829 336.169L488.816 336.452C489.559 328.606 487.969 318.012 485.803 308.211C483.629 298.369 480.835 289.153 479.068 283.985L476.229 284.956ZM485.829 336.169C485.127 343.587 483.029 350.464 481.011 356.631C479.028 362.687 477.032 368.279 476.796 372.778L479.792 372.936C480.001 368.945 481.801 363.86 483.862 357.564C485.886 351.379 488.08 344.229 488.816 336.452L485.829 336.169ZM476.796 372.778C476.54 377.649 479.535 382.204 482.56 385.788C484.103 387.616 485.737 389.285 487.108 390.694C488.526 392.151 489.576 393.249 490.121 394.044L492.596 392.348C491.871 391.29 490.598 389.979 489.258 388.602C487.872 387.177 486.315 385.585 484.853 383.853C481.869 380.318 479.601 376.556 479.792 372.936L476.796 372.778ZM499.066 443.526C499.304 448.008 499.774 454.542 500.026 460.163C500.151 462.962 500.219 465.475 500.176 467.325C500.155 468.257 500.106 468.972 500.034 469.455C499.997 469.701 499.962 469.83 499.946 469.877C499.9 470.007 499.97 469.677 500.363 469.437L501.928 471.996C502.485 471.655 502.698 471.093 502.776 470.872C502.883 470.568 502.952 470.228 503.001 469.898C503.101 469.228 503.153 468.366 503.175 467.394C503.22 465.437 503.149 462.841 503.023 460.028C502.772 454.426 502.293 447.728 502.061 443.367L499.066 443.526ZM349.236 466.164C324.261 465.395 256.34 461.959 245.013 461.094L244.784 464.085C256.172 464.954 324.142 468.393 349.143 469.162L349.236 466.164ZM238.121 406.623C240.862 402.817 245.028 399.86 249.003 396.79C250.948 395.289 252.848 393.754 254.373 392.115C255.901 390.474 257.14 388.638 257.648 386.508L254.729 385.813C254.388 387.245 253.518 388.631 252.178 390.071C250.835 391.513 249.108 392.918 247.17 394.416C243.378 397.343 238.75 400.617 235.687 404.869L238.121 406.623ZM257.648 386.508C257.901 385.445 258.004 383.942 258.025 382.204C258.045 380.436 257.98 378.317 257.855 375.964C257.606 371.258 257.116 365.545 256.583 359.714C255.508 347.978 254.269 335.871 254.369 330.113L251.369 330.061C251.266 336.034 252.535 348.401 253.595 359.988C254.129 365.819 254.613 371.48 254.859 376.123C254.982 378.444 255.044 380.493 255.025 382.169C255.005 383.877 254.9 385.095 254.729 385.813L257.648 386.508ZM254.369 330.113C254.571 318.457 256.461 297.497 257.744 287.494L254.768 287.113C253.477 297.18 251.574 318.258 251.369 330.061L254.369 330.113ZM257.744 287.494C259.03 277.47 260.638 266.182 261.742 258.261L258.77 257.847C257.669 265.754 256.057 277.067 254.768 287.113L257.744 287.494ZM261.742 258.261C262.293 254.302 262.437 252.372 262.427 251.406C262.424 251.158 262.412 250.938 262.384 250.745C262.36 250.581 262.31 250.307 262.16 250.034C261.994 249.734 261.538 249.183 260.73 249.218C260.408 249.232 260.163 249.343 260.018 249.429C259.941 249.474 259.879 249.519 259.831 249.558C259.806 249.578 259.784 249.597 259.764 249.615C259.754 249.624 259.745 249.633 259.736 249.641C259.731 249.646 259.727 249.65 259.723 249.654C259.721 249.656 259.718 249.659 259.717 249.66C259.714 249.663 259.711 249.666 260.771 250.727C261.832 251.787 261.829 251.79 261.826 251.793C261.825 251.794 261.822 251.797 261.82 251.799C261.816 251.803 261.812 251.807 261.807 251.811C261.799 251.82 261.789 251.828 261.78 251.837C261.76 251.855 261.739 251.873 261.716 251.892C261.669 251.929 261.61 251.973 261.538 252.015C261.4 252.096 261.167 252.202 260.86 252.215C260.079 252.249 259.66 251.714 259.532 251.482C259.42 251.279 259.408 251.126 259.414 251.171C259.417 251.187 259.425 251.265 259.427 251.438C259.435 252.158 259.321 253.891 258.77 257.847L261.742 258.261ZM240.817 261.557C243.584 258.574 245.234 255.079 246.192 252.372C246.673 251.011 246.986 249.831 247.179 248.986C247.276 248.563 247.343 248.223 247.387 247.984C247.409 247.865 247.425 247.771 247.435 247.705C247.441 247.672 247.445 247.645 247.448 247.626C247.449 247.617 247.45 247.609 247.451 247.603C247.452 247.6 247.452 247.598 247.452 247.596C247.453 247.595 247.453 247.594 247.453 247.593C247.453 247.593 247.453 247.592 247.453 247.592C247.453 247.591 247.453 247.591 245.968 247.378C244.484 247.164 244.484 247.164 244.484 247.164C244.484 247.164 244.484 247.163 244.484 247.163C244.484 247.163 244.484 247.163 244.484 247.163C244.484 247.162 244.484 247.163 244.484 247.163C244.483 247.165 244.483 247.168 244.482 247.173C244.481 247.183 244.478 247.2 244.474 247.224C244.466 247.272 244.454 247.346 244.436 247.446C244.399 247.644 244.341 247.941 244.255 248.317C244.083 249.07 243.8 250.137 243.364 251.371C242.486 253.853 241.01 256.937 238.618 259.516L240.817 261.557ZM215.667 285.031C220.722 279.881 225.679 275.439 230.038 271.573C234.369 267.732 238.174 264.405 240.817 261.557L238.618 259.516C236.101 262.229 232.44 265.434 228.047 269.329C223.683 273.2 218.659 277.7 213.526 282.93L215.667 285.031ZM213.526 282.93C203.142 293.51 193.774 310.449 188.36 325.043L191.173 326.086C196.496 311.736 205.674 295.213 215.667 285.031L213.526 282.93ZM188.36 325.043C182.924 339.695 179.961 359.436 180.581 372.41L183.578 372.267C182.978 359.717 185.871 340.378 191.173 326.086L188.36 325.043ZM180.581 372.41C181.197 385.286 184.391 403.293 189.046 414.85L191.829 413.729C187.334 402.57 184.183 384.915 183.578 372.267L180.581 372.41ZM189.046 414.85C193.577 426.094 196.216 433.822 204.804 440.108L206.576 437.687C198.813 432.005 196.45 425.199 191.829 413.729L189.046 414.85ZM229.504 459.067C229.399 458.738 229.324 458.038 229.323 457.001C229.322 456.018 229.385 454.889 229.473 453.806C229.561 452.727 229.672 451.714 229.76 450.971C229.805 450.599 229.843 450.296 229.871 450.087C229.885 449.982 229.896 449.901 229.903 449.847C229.907 449.819 229.91 449.799 229.912 449.785C229.912 449.778 229.913 449.773 229.914 449.77C229.914 449.769 229.914 449.768 229.914 449.767C229.914 449.767 229.914 449.766 229.914 449.766C229.914 449.766 229.914 449.766 229.914 449.766C229.914 449.766 229.914 449.766 228.429 449.557C226.944 449.347 226.944 449.347 226.944 449.348C226.944 449.348 226.944 449.348 226.943 449.348C226.943 449.348 226.943 449.349 226.943 449.349C226.943 449.351 226.943 449.352 226.943 449.354C226.942 449.359 226.941 449.365 226.94 449.373C226.938 449.388 226.935 449.411 226.931 449.441C226.923 449.5 226.911 449.586 226.897 449.696C226.868 449.916 226.827 450.231 226.782 450.615C226.69 451.384 226.575 452.435 226.483 453.562C226.392 454.685 226.321 455.905 226.323 457.005C226.324 458.051 226.387 459.168 226.647 459.981L229.504 459.067ZM228.429 449.557C229.925 449.669 229.925 449.669 229.925 449.668C229.925 449.668 229.925 449.668 229.925 449.667C229.925 449.666 229.925 449.665 229.925 449.663C229.925 449.659 229.926 449.653 229.927 449.644C229.928 449.628 229.93 449.603 229.932 449.569C229.937 449.503 229.945 449.403 229.956 449.272C229.976 449.011 230.008 448.626 230.05 448.132C230.134 447.144 230.26 445.723 230.43 443.991C230.77 440.527 231.283 435.828 231.975 430.882C232.669 425.93 233.539 420.758 234.59 416.338C235.66 411.843 236.863 408.369 238.121 406.623L235.687 404.869C234.043 407.152 232.736 411.17 231.672 415.644C230.59 420.195 229.704 425.471 229.004 430.465C228.304 435.465 227.786 440.207 227.444 443.698C227.273 445.444 227.145 446.879 227.06 447.878C227.018 448.377 226.986 448.768 226.965 449.034C226.954 449.168 226.946 449.27 226.941 449.339C226.938 449.373 226.936 449.4 226.935 449.417C226.934 449.426 226.934 449.433 226.934 449.438C226.933 449.44 226.933 449.442 226.933 449.443C226.933 449.444 226.933 449.444 226.933 449.444C226.933 449.445 226.933 449.445 228.429 449.557ZM204.804 440.108C209.043 443.211 214.867 445.932 219.555 447.859C221.913 448.828 224.012 449.608 225.522 450.146C226.278 450.415 226.887 450.624 227.308 450.766C227.519 450.837 227.683 450.891 227.795 450.928C227.851 450.946 227.894 450.96 227.924 450.97C227.938 450.975 227.95 450.978 227.957 450.981C227.961 450.982 227.964 450.983 227.967 450.984C227.968 450.984 227.969 450.984 227.969 450.985C227.969 450.985 227.97 450.985 227.97 450.985C227.97 450.985 227.97 450.985 228.429 449.557C228.887 448.129 228.887 448.129 228.887 448.129C228.887 448.129 228.887 448.129 228.887 448.129C228.887 448.128 228.887 448.128 228.886 448.128C228.884 448.128 228.882 448.127 228.879 448.126C228.873 448.124 228.863 448.121 228.85 448.117C228.824 448.108 228.784 448.095 228.732 448.078C228.626 448.043 228.469 447.991 228.266 447.923C227.859 447.786 227.266 447.582 226.529 447.32C225.053 446.794 223 446.031 220.695 445.084C216.057 443.177 210.511 440.568 206.576 437.687L204.804 440.108ZM456.843 244.662C457.331 245.655 458.157 247.336 458.861 248.769C459.213 249.486 459.534 250.14 459.768 250.616C459.884 250.854 459.979 251.046 460.045 251.18C460.077 251.247 460.103 251.299 460.12 251.334C460.129 251.351 460.135 251.365 460.14 251.374C460.142 251.378 460.144 251.382 460.145 251.384C460.145 251.385 460.146 251.386 460.146 251.387C460.146 251.387 460.146 251.387 460.146 251.387C460.146 251.387 460.146 251.387 460.146 251.387C460.146 251.387 460.146 251.388 461.493 250.727C462.84 250.066 462.84 250.066 462.839 250.066C462.839 250.065 462.839 250.065 462.839 250.065C462.839 250.065 462.839 250.065 462.839 250.065C462.839 250.064 462.838 250.063 462.838 250.062C462.837 250.06 462.835 250.056 462.833 250.052C462.828 250.043 462.822 250.029 462.813 250.012C462.796 249.977 462.77 249.925 462.738 249.858C462.672 249.724 462.577 249.532 462.461 249.294C462.227 248.818 461.906 248.164 461.554 247.447C460.85 246.014 460.024 244.332 459.535 243.338L456.843 244.662ZM461.493 250.727C460.172 251.438 460.172 251.438 460.172 251.438C460.172 251.438 460.173 251.438 460.173 251.439C460.173 251.439 460.174 251.44 460.174 251.442C460.176 251.444 460.178 251.449 460.181 251.454C460.187 251.465 460.196 251.482 460.208 251.504C460.232 251.548 460.267 251.614 460.314 251.701C460.407 251.875 460.544 252.131 460.72 252.461C461.071 253.122 461.578 254.077 462.197 255.256C463.435 257.613 465.122 260.863 466.917 264.43C470.526 271.6 474.517 279.946 476.229 284.956L479.068 283.985C477.278 278.749 473.191 270.222 469.597 263.082C467.792 259.494 466.096 256.229 464.853 253.861C464.231 252.676 463.721 251.716 463.367 251.051C463.19 250.719 463.052 250.46 462.958 250.285C462.911 250.197 462.875 250.13 462.851 250.084C462.839 250.062 462.829 250.045 462.823 250.033C462.82 250.027 462.818 250.023 462.816 250.02C462.815 250.019 462.815 250.017 462.814 250.017C462.814 250.016 462.814 250.016 462.814 250.016C462.814 250.016 462.814 250.015 461.493 250.727ZM461.493 250.727C460.749 252.029 460.749 252.029 460.749 252.029C460.749 252.029 460.749 252.029 460.749 252.029C460.749 252.029 460.75 252.029 460.75 252.03C460.751 252.03 460.753 252.031 460.756 252.033C460.761 252.036 460.769 252.041 460.781 252.047C460.803 252.06 460.838 252.08 460.883 252.107C460.975 252.16 461.111 252.24 461.289 252.345C461.645 252.555 462.165 252.867 462.817 253.268C464.122 254.072 465.954 255.234 468.056 256.668C472.272 259.543 477.526 263.474 481.796 267.753L483.92 265.634C479.458 261.163 474.029 257.111 469.746 254.189C467.598 252.725 465.727 251.537 464.39 250.714C463.721 250.302 463.186 249.981 462.817 249.763C462.632 249.653 462.488 249.57 462.391 249.513C462.342 249.484 462.304 249.463 462.278 249.448C462.265 249.44 462.255 249.435 462.249 249.431C462.245 249.429 462.242 249.427 462.241 249.426C462.24 249.426 462.239 249.425 462.238 249.425C462.238 249.425 462.238 249.424 462.237 249.424C462.237 249.424 462.237 249.424 461.493 250.727ZM481.796 267.753C486.097 272.063 492.357 279.36 498.063 287.374C503.79 295.417 508.851 304.035 510.886 311.009L513.766 310.169C511.585 302.693 506.278 293.739 500.507 285.634C494.716 277.501 488.351 270.074 483.92 265.634L481.796 267.753ZM510.886 311.009C515.079 325.377 518.4 345.202 517.281 358.438L520.27 358.691C521.434 344.93 518.007 324.701 513.766 310.169L510.886 311.009ZM517.281 358.438C516.157 371.733 511.26 386.506 508.517 395.041L511.373 395.959C514.088 387.512 519.112 372.393 520.27 358.691L517.281 358.438ZM490.121 394.044C490.625 394.779 491.212 396.148 491.826 398.048C492.428 399.909 493.017 402.149 493.566 404.528C494.662 409.286 495.579 414.516 496.107 418.207L499.077 417.781C498.538 414.022 497.608 408.707 496.489 403.854C495.93 401.429 495.319 399.098 494.681 397.125C494.056 395.192 493.362 393.466 492.596 392.348L490.121 394.044ZM496.107 418.207C497.179 425.688 498.6 434.767 499.066 443.526L502.061 443.367C501.587 434.44 500.139 425.199 499.077 417.781L496.107 418.207ZM508.517 395.041C507.211 399.104 504.207 404.596 501.46 409.157C500.099 411.419 498.821 413.418 497.883 414.853C497.414 415.569 497.031 416.144 496.766 416.539C496.633 416.736 496.53 416.889 496.46 416.991C496.426 417.042 496.399 417.081 496.382 417.107C496.373 417.12 496.366 417.129 496.362 417.136C496.36 417.139 496.358 417.141 496.357 417.142C496.357 417.143 496.356 417.144 496.356 417.144C496.356 417.144 496.356 417.144 496.356 417.144C496.356 417.144 496.356 417.144 497.592 417.994C498.828 418.844 498.828 418.843 498.828 418.843C498.829 418.843 498.829 418.843 498.829 418.843C498.829 418.842 498.83 418.841 498.83 418.84C498.832 418.838 498.834 418.836 498.836 418.832C498.841 418.825 498.848 418.814 498.858 418.8C498.877 418.772 498.905 418.732 498.941 418.678C499.014 418.571 499.12 418.415 499.256 418.212C499.527 417.808 499.918 417.223 500.394 416.494C501.346 415.037 502.645 413.006 504.03 410.705C506.778 406.142 509.95 400.387 511.373 395.959L508.517 395.041ZM244.899 462.589C244.971 461.091 244.971 461.091 244.971 461.091C244.971 461.091 244.971 461.091 244.971 461.091C244.971 461.091 244.97 461.091 244.969 461.091C244.968 461.091 244.965 461.091 244.961 461.091C244.954 461.09 244.943 461.09 244.929 461.089C244.899 461.088 244.855 461.085 244.798 461.082C244.682 461.076 244.511 461.067 244.293 461.054C243.857 461.028 243.233 460.989 242.48 460.935C240.973 460.827 238.963 460.66 236.935 460.423C234.896 460.185 232.889 459.881 231.369 459.509C230.602 459.322 230.025 459.132 229.647 458.954C229.458 458.865 229.37 458.803 229.343 458.781C229.309 458.752 229.431 458.839 229.504 459.067L226.647 459.981C226.811 460.494 227.145 460.854 227.427 461.089C227.716 461.329 228.048 461.517 228.37 461.669C229.012 461.971 229.811 462.217 230.656 462.423C232.358 462.84 234.511 463.16 236.587 463.403C238.674 463.647 240.732 463.818 242.266 463.928C243.033 463.983 243.671 464.023 244.118 464.049C244.342 464.062 244.518 464.072 244.638 464.078C244.698 464.081 244.745 464.084 244.776 464.085C244.792 464.086 244.804 464.087 244.813 464.087C244.817 464.087 244.82 464.087 244.822 464.088C244.823 464.088 244.824 464.088 244.825 464.088C244.825 464.088 244.825 464.088 244.825 464.088C244.826 464.088 244.826 464.088 244.899 462.589ZM244.899 462.589C243.4 462.642 243.4 462.642 243.4 462.643C243.4 462.643 243.4 462.643 243.4 462.644C243.4 462.645 243.4 462.647 243.4 462.649C243.4 462.653 243.4 462.659 243.4 462.668C243.401 462.685 243.402 462.71 243.403 462.743C243.406 462.81 243.409 462.909 243.414 463.038C243.423 463.297 243.437 463.677 243.455 464.164C243.491 465.139 243.544 466.541 243.611 468.252C243.745 471.675 243.936 476.335 244.166 481.284C244.622 491.148 245.232 502.265 245.843 506.956L248.818 506.568C248.227 502.031 247.621 491.061 247.162 481.146C246.934 476.205 246.743 471.553 246.609 468.135C246.541 466.426 246.489 465.026 246.453 464.054C246.435 463.567 246.421 463.188 246.412 462.93C246.407 462.801 246.404 462.703 246.401 462.637C246.4 462.604 246.399 462.578 246.399 462.562C246.398 462.553 246.398 462.547 246.398 462.543C246.398 462.541 246.398 462.539 246.398 462.538C246.398 462.538 246.398 462.537 246.398 462.537C246.398 462.537 246.398 462.537 244.899 462.589ZM245.843 506.956C246.439 511.536 247.155 519.702 247.834 526.848C248.171 530.406 248.499 533.709 248.797 536.155C248.945 537.374 249.088 538.407 249.225 539.16C249.293 539.531 249.365 539.874 249.446 540.15C249.485 540.285 249.54 540.45 249.617 540.612C249.655 540.693 249.715 540.807 249.803 540.927C249.882 541.035 250.047 541.236 250.324 541.39L251.782 538.768C252.032 538.907 252.171 539.083 252.223 539.154C252.283 539.237 252.316 539.303 252.327 539.325C252.348 539.37 252.345 539.375 252.325 539.308C252.289 539.183 252.238 538.961 252.177 538.624C252.056 537.96 251.921 536.998 251.775 535.793C251.483 533.391 251.158 530.124 250.82 526.564C250.147 519.476 249.423 511.217 248.818 506.568L245.843 506.956ZM369.771 532.408C371.269 532.485 371.269 532.485 371.269 532.485C371.269 532.485 371.269 532.484 371.269 532.483C371.269 532.482 371.269 532.48 371.269 532.477C371.27 532.472 371.27 532.464 371.271 532.453C371.272 532.431 371.274 532.398 371.276 532.355C371.28 532.27 371.287 532.142 371.296 531.976C371.313 531.643 371.338 531.155 371.371 530.534C371.435 529.291 371.528 527.515 371.64 525.38C371.863 521.109 372.163 515.404 372.468 509.666C372.772 503.927 373.082 498.155 373.326 493.751C373.448 491.548 373.553 489.689 373.633 488.348C373.673 487.677 373.707 487.138 373.733 486.752C373.762 486.321 373.776 486.164 373.775 486.175L370.808 485.728C370.774 485.951 370.715 486.887 370.639 488.17C370.558 489.517 370.453 491.381 370.331 493.585C370.087 497.993 369.777 503.767 369.472 509.507C369.167 515.246 368.867 520.952 368.644 525.223C368.532 527.358 368.439 529.135 368.375 530.378C368.342 530.999 368.317 531.487 368.3 531.82C368.291 531.986 368.284 532.114 368.28 532.2C368.278 532.243 368.276 532.275 368.275 532.297C368.274 532.308 368.274 532.316 368.273 532.322C368.273 532.324 368.273 532.326 368.273 532.328C368.273 532.329 368.273 532.329 368.273 532.329C368.273 532.33 368.273 532.33 369.771 532.408ZM373.775 486.175C373.772 486.193 373.764 486.24 373.749 486.301C373.742 486.331 373.719 486.406 373.704 486.449C373.679 486.514 373.597 486.681 373.535 486.78C373.404 486.946 372.927 487.296 372.563 487.411C372.105 487.423 371.406 487.142 371.183 486.94C371.082 486.815 370.951 486.598 370.914 486.515C370.893 486.461 370.862 486.37 370.851 486.333C370.808 486.172 370.804 486.033 370.81 486.114C370.813 486.148 370.817 486.239 370.822 486.406C370.831 486.726 370.841 487.236 370.851 487.916C370.871 489.274 370.892 491.277 370.917 493.724C370.966 498.614 371.029 505.262 371.126 512.009C371.222 518.754 371.351 525.607 371.533 530.908C371.624 533.556 371.729 535.831 371.851 537.517C371.911 538.357 371.977 539.072 372.051 539.621C372.088 539.894 372.129 540.15 372.178 540.37C372.216 540.54 372.293 540.862 372.463 541.149L375.045 539.621C375.138 539.779 375.141 539.872 375.107 539.718C375.084 539.615 375.055 539.453 375.024 539.222C374.963 538.762 374.902 538.118 374.843 537.301C374.725 535.672 374.622 533.441 374.532 530.805C374.351 525.536 374.222 518.707 374.125 511.966C374.029 505.227 373.966 498.586 373.917 493.694C373.892 491.249 373.871 489.238 373.851 487.872C373.841 487.191 373.831 486.661 373.821 486.317C373.816 486.151 373.81 486.003 373.803 485.899C373.801 485.871 373.798 485.834 373.793 485.795C373.792 485.781 373.781 485.672 373.747 485.547C373.735 485.508 373.704 485.415 373.682 485.36C373.644 485.275 373.513 485.057 373.411 484.931C373.188 484.728 372.488 484.447 372.03 484.459C371.665 484.574 371.187 484.925 371.055 485.092C370.888 485.337 370.838 485.577 370.837 485.581C370.821 485.647 370.812 485.701 370.808 485.728L373.775 486.175ZM396.256 551.279C401.471 551.941 414.402 552.591 427.579 552.505C434.178 552.462 440.87 552.234 446.717 551.726C452.525 551.222 457.632 550.432 460.983 549.212L459.957 546.393C457.004 547.468 452.237 548.236 446.457 548.737C440.718 549.236 434.111 549.462 427.559 549.505C414.435 549.591 401.657 548.941 396.634 548.303L396.256 551.279ZM460.983 549.212C467.403 546.876 475.27 542.82 481.486 539.381C484.605 537.655 487.326 536.074 489.269 534.925C490.24 534.35 491.018 533.882 491.553 533.558C491.82 533.396 492.027 533.269 492.168 533.183C492.238 533.14 492.292 533.108 492.328 533.085C492.346 533.074 492.36 533.066 492.369 533.06C492.374 533.057 492.377 533.055 492.38 533.053C492.381 533.052 492.382 533.052 492.383 533.051C492.383 533.051 492.383 533.051 492.384 533.051C492.384 533.051 492.384 533.051 491.596 531.775C490.807 530.498 490.807 530.498 490.807 530.498C490.807 530.498 490.807 530.499 490.807 530.499C490.806 530.499 490.806 530.499 490.805 530.5C490.803 530.501 490.799 530.503 490.795 530.506C490.787 530.511 490.774 530.519 490.756 530.53C490.722 530.551 490.67 530.583 490.601 530.625C490.465 530.709 490.261 530.832 489.998 530.992C489.471 531.312 488.703 531.774 487.741 532.343C485.817 533.481 483.121 535.047 480.034 536.756C473.838 540.183 466.143 544.142 459.957 546.393L460.983 549.212ZM500.363 469.437C500.473 469.369 500.437 469.419 500.029 469.487C499.692 469.543 499.242 469.591 498.697 469.63C497.61 469.706 496.259 469.737 494.922 469.742C493.591 469.748 492.297 469.729 491.335 469.708C490.854 469.698 490.457 469.687 490.181 469.679C490.042 469.675 489.935 469.671 489.862 469.669C489.825 469.668 489.797 469.667 489.779 469.666C489.769 469.666 489.763 469.666 489.758 469.666C489.756 469.666 489.754 469.665 489.753 469.665C489.752 469.665 489.752 469.665 489.752 469.665C489.752 469.665 489.752 469.665 489.752 469.665C489.752 469.665 489.752 469.665 489.699 471.164C489.646 472.664 489.646 472.664 489.646 472.664C489.646 472.664 489.646 472.664 489.647 472.664C489.647 472.664 489.648 472.664 489.648 472.664C489.65 472.664 489.652 472.664 489.654 472.664C489.66 472.664 489.667 472.664 489.677 472.665C489.697 472.665 489.726 472.666 489.764 472.667C489.84 472.67 489.951 472.673 490.093 472.678C490.376 472.686 490.78 472.697 491.27 472.707C492.248 472.728 493.569 472.748 494.935 472.742C496.295 472.737 497.723 472.706 498.907 472.622C499.496 472.581 500.053 472.525 500.523 472.446C500.92 472.38 501.489 472.265 501.928 471.996L500.363 469.437ZM489.699 471.164C489.734 469.665 489.734 469.665 489.733 469.665C489.732 469.665 489.731 469.665 489.729 469.665C489.725 469.665 489.72 469.665 489.713 469.664C489.699 469.664 489.678 469.664 489.65 469.663C489.595 469.662 489.512 469.66 489.402 469.657C489.183 469.652 488.857 469.644 488.431 469.634C487.579 469.614 486.326 469.584 484.722 469.546C481.514 469.47 476.904 469.36 471.294 469.226C460.074 468.958 444.853 468.592 428.851 468.203C396.845 467.423 361.724 466.548 349.236 466.164L349.143 469.162C361.644 469.547 396.777 470.423 428.778 471.202C444.78 471.591 460.002 471.957 471.222 472.225C476.833 472.359 481.443 472.469 484.651 472.545C486.254 472.583 487.508 472.613 488.36 472.633C488.786 472.643 489.112 472.651 489.331 472.656C489.441 472.659 489.524 472.661 489.579 472.662C489.607 472.663 489.628 472.663 489.642 472.664C489.649 472.664 489.655 472.664 489.658 472.664C489.66 472.664 489.661 472.664 489.662 472.664C489.663 472.664 489.663 472.664 489.699 471.164ZM498.683 523.122C498.907 522.114 498.898 520.527 498.788 518.709C498.673 516.828 498.434 514.51 498.112 511.93C497.468 506.767 496.481 500.482 495.453 494.408C494.426 488.33 493.355 482.448 492.542 478.086C492.135 475.905 491.792 474.103 491.551 472.847C491.431 472.218 491.336 471.726 491.271 471.391C491.238 471.223 491.213 471.095 491.197 471.008C491.188 470.965 491.182 470.932 491.177 470.91C491.175 470.899 491.174 470.89 491.173 470.885C491.172 470.882 491.172 470.88 491.171 470.879C491.171 470.878 491.171 470.877 491.171 470.877C491.171 470.876 491.171 470.876 489.699 471.164C488.227 471.453 488.227 471.453 488.227 471.453C488.227 471.453 488.227 471.454 488.227 471.455C488.227 471.456 488.228 471.458 488.228 471.461C488.229 471.466 488.231 471.474 488.233 471.485C488.237 471.507 488.244 471.539 488.252 471.582C488.269 471.668 488.293 471.795 488.326 471.962C488.39 472.295 488.485 472.785 488.605 473.411C488.845 474.664 489.187 476.46 489.593 478.636C490.404 482.987 491.471 488.852 492.495 494.908C493.52 500.967 494.499 507.203 495.135 512.302C495.454 514.853 495.684 517.101 495.793 518.891C495.906 520.743 495.875 521.931 495.754 522.472L498.683 523.122ZM372.463 541.149C373.232 542.448 374.636 543.703 375.978 544.69C377.348 545.699 378.844 546.567 379.969 547.043L381.138 544.28C380.276 543.915 378.984 543.177 377.756 542.274C376.5 541.35 375.498 540.386 375.045 539.621L372.463 541.149ZM379.969 547.043C380.898 547.436 382.42 548.192 384.957 548.986C387.5 549.781 391.064 550.62 396.256 551.279L396.634 548.303C391.588 547.662 388.2 546.857 385.853 546.123C383.5 545.387 382.196 544.728 381.138 544.28L379.969 547.043ZM379.056 545.747L380.455 570.331L383.45 570.16L382.051 545.576L379.056 545.747ZM381.826 571.74L411.675 574.263L411.928 571.273L382.079 568.751L381.826 571.74ZM411.802 572.768C411.743 574.267 411.743 574.267 411.744 574.267C411.744 574.267 411.744 574.267 411.745 574.267C411.746 574.267 411.747 574.267 411.749 574.267C411.753 574.267 411.759 574.267 411.767 574.268C411.783 574.268 411.806 574.269 411.837 574.27C411.899 574.273 411.99 574.276 412.109 574.281C412.347 574.29 412.697 574.303 413.143 574.319C414.035 574.351 415.312 574.396 416.855 574.445C419.94 574.544 424.089 574.663 428.343 574.742C432.594 574.821 436.963 574.861 440.481 574.801C442.239 574.771 443.802 574.716 445.04 574.627C445.658 574.582 446.212 574.528 446.678 574.461C447.116 574.398 447.574 574.31 447.944 574.168L446.866 571.368C446.867 571.368 446.863 571.369 446.855 571.372C446.847 571.374 446.836 571.378 446.82 571.382C446.789 571.391 446.746 571.402 446.691 571.414C446.579 571.439 446.433 571.465 446.249 571.492C445.881 571.545 445.404 571.593 444.824 571.635C443.666 571.718 442.165 571.772 440.431 571.802C436.965 571.86 432.638 571.821 428.399 571.742C424.163 571.663 420.028 571.545 416.951 571.447C415.413 571.397 414.139 571.353 413.251 571.321C412.807 571.305 412.459 571.292 412.222 571.283C412.104 571.278 412.013 571.275 411.952 571.273C411.922 571.271 411.899 571.271 411.883 571.27C411.876 571.27 411.87 571.269 411.866 571.269C411.864 571.269 411.863 571.269 411.862 571.269C411.861 571.269 411.861 571.269 411.861 571.269C411.861 571.269 411.86 571.269 411.802 572.768ZM447.944 574.168C449.022 573.753 450.17 572.888 451.254 571.985C452.351 571.072 453.618 569.911 454.825 568.863C456.072 567.78 457.334 566.747 458.585 565.925C459.846 565.098 461.009 564.544 462.056 564.34L461.481 561.395C459.892 561.706 458.352 562.49 456.939 563.417C455.516 564.351 454.133 565.491 452.859 566.597C451.545 567.737 450.415 568.78 449.334 569.68C448.24 570.591 447.431 571.151 446.866 571.368L447.944 574.168ZM462.056 564.34C464.589 563.845 468.994 563.391 473.192 563.225C475.285 563.142 477.294 563.132 478.966 563.22C480.698 563.312 481.885 563.501 482.456 563.727L483.56 560.937C482.488 560.513 480.858 560.316 479.124 560.225C477.329 560.13 475.222 560.142 473.074 560.227C468.791 560.396 464.22 560.86 461.481 561.395L462.056 564.34ZM482.456 563.727C483.08 563.974 483.869 564.473 484.792 565.183C485.699 565.88 486.652 566.713 487.605 567.565C488.541 568.401 489.496 569.27 490.344 569.974C491.155 570.647 492.042 571.32 492.844 571.639L493.953 568.852C493.647 568.73 493.093 568.357 492.26 567.666C491.467 567.007 490.578 566.197 489.604 565.327C488.647 564.473 487.623 563.575 486.62 562.804C485.633 562.045 484.579 561.341 483.56 560.937L482.456 563.727ZM492.844 571.639C493.647 571.958 494.695 572.073 495.657 572.116C496.665 572.16 497.762 572.13 498.761 572.073C499.765 572.017 500.694 571.932 501.37 571.861C501.709 571.826 501.986 571.794 502.18 571.771C502.277 571.759 502.353 571.75 502.405 571.743C502.431 571.74 502.452 571.737 502.466 571.736C502.473 571.735 502.478 571.734 502.482 571.733C502.484 571.733 502.486 571.733 502.487 571.733C502.487 571.733 502.488 571.733 502.488 571.733C502.488 571.733 502.489 571.733 502.489 571.733C502.489 571.733 502.489 571.733 502.293 570.245C502.097 568.758 502.097 568.758 502.097 568.758C502.097 568.758 502.097 568.758 502.097 568.758C502.097 568.758 502.097 568.758 502.097 568.758C502.096 568.758 502.095 568.759 502.094 568.759C502.091 568.759 502.087 568.76 502.082 568.76C502.07 568.762 502.053 568.764 502.03 568.767C501.983 568.773 501.914 568.781 501.823 568.792C501.643 568.814 501.381 568.844 501.059 568.877C500.414 568.945 499.535 569.025 498.592 569.078C497.644 569.132 496.657 569.157 495.789 569.119C494.876 569.078 494.258 568.973 493.953 568.852L492.844 571.639ZM491.596 531.775C492.418 533.029 492.418 533.029 492.419 533.028C492.419 533.028 492.42 533.028 492.42 533.028C492.421 533.027 492.422 533.026 492.423 533.026C492.425 533.025 492.427 533.023 492.429 533.021C492.434 533.018 492.44 533.014 492.447 533.009C492.461 533 492.479 532.988 492.501 532.973C492.544 532.942 492.603 532.901 492.675 532.847C492.819 532.74 493.017 532.587 493.254 532.384C493.728 531.98 494.363 531.38 495.04 530.573C496.397 528.956 497.933 526.499 498.683 523.122L495.754 522.472C495.129 525.289 493.854 527.32 492.742 528.644C492.186 529.307 491.673 529.79 491.308 530.101C491.125 530.257 490.981 530.369 490.887 530.438C490.84 530.473 490.806 530.497 490.786 530.511C490.777 530.518 490.771 530.522 490.768 530.523C490.767 530.524 490.767 530.524 490.768 530.524C490.768 530.523 490.769 530.523 490.77 530.522C490.77 530.522 490.771 530.522 490.772 530.521C490.772 530.521 490.772 530.521 490.772 530.521C490.773 530.52 490.773 530.52 491.596 531.775ZM503.738 569.844L493.041 531.373L490.15 532.176L500.848 570.647L503.738 569.844ZM502.293 570.245C501.137 571.202 501.137 571.201 501.137 571.201C501.137 571.202 501.137 571.202 501.137 571.202C501.138 571.202 501.138 571.203 501.139 571.204C501.14 571.205 501.143 571.208 501.146 571.212C501.152 571.22 501.162 571.232 501.176 571.248C501.202 571.281 501.243 571.33 501.295 571.395C501.401 571.525 501.557 571.718 501.757 571.969C502.157 572.469 502.731 573.198 503.423 574.105C504.807 575.921 506.661 578.443 508.538 581.276C510.417 584.113 512.306 587.238 513.771 590.26C515.25 593.31 516.239 596.134 516.429 598.399L519.418 598.148C519.182 595.331 518.003 592.11 516.471 588.951C514.926 585.766 512.96 582.519 511.039 579.619C509.115 576.716 507.22 574.137 505.808 572.286C505.101 571.359 504.514 570.613 504.102 570.097C503.896 569.839 503.734 569.639 503.623 569.502C503.567 569.434 503.524 569.381 503.495 569.346C503.48 569.328 503.469 569.314 503.461 569.305C503.457 569.3 503.454 569.296 503.452 569.294C503.451 569.292 503.45 569.291 503.45 569.291C503.45 569.29 503.449 569.29 503.449 569.29C503.449 569.29 503.449 569.289 502.293 570.245ZM516.429 598.399C516.845 603.352 516.517 610.587 516.073 616.655C515.852 619.674 515.605 622.378 515.412 624.327C515.316 625.302 515.234 626.087 515.176 626.628C515.147 626.898 515.124 627.107 515.108 627.249C515.1 627.319 515.094 627.373 515.09 627.409C515.088 627.427 515.086 627.44 515.085 627.449C515.085 627.453 515.085 627.457 515.084 627.459C515.084 627.46 515.084 627.461 515.084 627.461C515.084 627.461 515.084 627.461 515.084 627.462C515.084 627.462 515.084 627.462 516.574 627.633C518.064 627.804 518.064 627.804 518.064 627.803C518.064 627.803 518.064 627.803 518.065 627.803C518.065 627.802 518.065 627.801 518.065 627.8C518.065 627.797 518.066 627.793 518.066 627.789C518.067 627.779 518.069 627.765 518.071 627.746C518.075 627.708 518.081 627.653 518.089 627.581C518.106 627.436 518.129 627.223 518.159 626.948C518.218 626.4 518.301 625.606 518.398 624.622C518.592 622.655 518.842 619.925 519.065 616.874C519.509 610.804 519.856 603.36 519.418 598.148L516.429 598.399ZM516.574 627.633C516.277 626.162 516.277 626.162 516.277 626.162C516.276 626.163 516.276 626.163 516.276 626.163C516.275 626.163 516.273 626.163 516.272 626.164C516.268 626.164 516.262 626.165 516.255 626.167C516.24 626.17 516.218 626.174 516.188 626.18C516.129 626.192 516.041 626.21 515.926 626.233C515.696 626.279 515.356 626.347 514.919 626.434C514.046 626.608 512.787 626.857 511.24 627.158C508.147 627.762 503.909 628.574 499.329 629.412C490.132 631.093 479.662 632.856 474.25 633.254L474.471 636.246C480.075 635.834 490.712 634.037 499.868 632.363C504.464 631.522 508.714 630.708 511.814 630.103C513.365 629.801 514.629 629.551 515.505 629.376C515.943 629.289 516.284 629.221 516.516 629.174C516.632 629.151 516.721 629.133 516.781 629.121C516.81 629.115 516.833 629.111 516.848 629.108C516.856 629.106 516.862 629.105 516.865 629.104C516.867 629.104 516.869 629.103 516.87 629.103C516.87 629.103 516.871 629.103 516.871 629.103C516.871 629.103 516.871 629.103 516.574 627.633ZM474.25 633.254C468.817 633.655 454.908 633.716 441.457 633.587C427.991 633.458 415.193 633.14 411.959 632.8L411.645 635.783C415.057 636.142 428.031 636.459 441.428 636.587C454.841 636.716 468.887 636.657 474.471 636.246L474.25 633.254ZM387.094 627.723C387.205 627.855 387.259 627.972 387.275 628.006C387.286 628.031 387.293 628.05 387.297 628.061C387.302 628.072 387.304 628.079 387.304 628.081C387.305 628.083 387.302 628.074 387.296 628.049C387.29 628.026 387.283 627.993 387.274 627.95C387.238 627.771 387.196 627.496 387.149 627.117C387.055 626.365 386.957 625.306 386.856 624.006C386.653 621.411 386.445 617.931 386.241 614.191C385.836 606.736 385.451 598.221 385.183 593.824L382.189 594.006C382.456 598.402 382.837 606.839 383.246 614.354C383.449 618.098 383.66 621.607 383.865 624.239C383.967 625.552 384.07 626.665 384.171 627.486C384.222 627.894 384.275 628.255 384.334 628.544C384.362 628.686 384.398 628.84 384.444 628.984C384.471 629.07 384.564 629.373 384.791 629.645L387.094 627.723ZM385.183 593.824C384.915 589.414 384.481 583.487 384.114 578.668C383.931 576.258 383.764 574.122 383.643 572.589C383.583 571.823 383.534 571.207 383.5 570.782C383.483 570.57 383.47 570.406 383.461 570.295C383.457 570.239 383.453 570.197 383.451 570.168C383.45 570.154 383.449 570.143 383.448 570.136C383.448 570.132 383.448 570.13 383.448 570.128C383.448 570.127 383.447 570.126 383.447 570.126C383.447 570.125 383.447 570.125 383.447 570.125C383.447 570.125 383.447 570.125 381.952 570.245C380.457 570.366 380.457 570.366 380.457 570.366C380.457 570.366 380.457 570.366 380.457 570.367C380.457 570.367 380.457 570.368 380.457 570.369C380.457 570.37 380.458 570.373 380.458 570.377C380.458 570.384 380.459 570.394 380.46 570.409C380.463 570.437 380.466 570.479 380.471 570.535C380.48 570.645 380.493 570.809 380.51 571.021C380.543 571.445 380.592 572.06 380.653 572.825C380.773 574.356 380.94 576.489 381.123 578.896C381.489 583.713 381.922 589.621 382.189 594.006L385.183 593.824ZM411.959 632.8C405.4 632.11 390.47 629.002 388.903 628.564L388.096 631.454C389.815 631.934 404.91 635.075 411.645 635.783L411.959 632.8ZM388.499 630.009C388.863 628.554 388.864 628.554 388.864 628.554C388.864 628.554 388.864 628.554 388.864 628.554C388.865 628.554 388.865 628.554 388.865 628.554C388.866 628.555 388.866 628.555 388.866 628.555C388.867 628.555 388.867 628.555 388.866 628.555C388.866 628.555 388.863 628.554 388.859 628.553C388.852 628.551 388.838 628.547 388.818 628.542C388.78 628.531 388.72 628.514 388.644 628.491C388.491 628.443 388.281 628.373 388.057 628.282C387.538 628.071 387.202 627.852 387.094 627.723L384.791 629.645C385.406 630.382 386.349 630.826 386.927 631.061C387.252 631.193 387.546 631.291 387.759 631.357C387.866 631.39 387.955 631.416 388.02 631.434C388.052 631.442 388.078 631.449 388.098 631.455C388.107 631.457 388.115 631.459 388.122 631.461C388.125 631.462 388.128 631.462 388.13 631.463C388.131 631.463 388.132 631.463 388.133 631.464C388.133 631.464 388.134 631.464 388.134 631.464C388.134 631.464 388.135 631.464 388.135 631.464C388.135 631.464 388.135 631.464 388.499 630.009ZM388.499 630.009C387.027 629.721 387.027 629.722 387.027 629.722C387.027 629.722 387.027 629.723 387.027 629.723C387.027 629.724 387.026 629.725 387.026 629.726C387.026 629.728 387.025 629.731 387.025 629.734C387.024 629.74 387.022 629.747 387.02 629.757C387.017 629.776 387.012 629.802 387.006 629.835C386.995 629.9 386.98 629.992 386.962 630.108C386.928 630.338 386.885 630.663 386.848 631.056C386.776 631.836 386.727 632.914 386.834 634.066C387.036 636.254 387.876 639.346 390.947 640.511L392.011 637.707C390.651 637.19 390.001 635.731 389.821 633.79C389.737 632.878 389.774 631.996 389.835 631.333C389.866 631.004 389.901 630.736 389.929 630.554C389.943 630.464 389.954 630.395 389.962 630.351C389.966 630.329 389.968 630.313 389.97 630.304C389.971 630.299 389.972 630.296 389.972 630.295C389.972 630.295 389.972 630.295 389.972 630.295C389.972 630.295 389.972 630.295 389.972 630.296C389.972 630.296 389.972 630.296 389.972 630.296C389.971 630.297 389.971 630.297 388.499 630.009ZM390.947 640.511C395.536 642.254 405.677 644.644 416.667 645.952L417.022 642.973C406.161 641.68 396.285 639.329 392.011 637.707L390.947 640.511ZM416.667 645.952C427.618 647.255 454.332 649.478 463.104 649.709L463.183 646.71C454.536 646.482 427.921 644.27 417.022 642.973L416.667 645.952ZM463.104 649.709C467.532 649.825 474.809 649.55 481.822 649.02C488.8 648.492 495.695 647.698 499.286 646.74L498.513 643.841C495.228 644.718 488.6 645.498 481.596 646.028C474.628 646.556 467.465 646.823 463.183 646.71L463.104 649.709ZM499.286 646.74C502.682 645.833 506.3 644.909 509.345 643.608C512.374 642.313 515.134 640.526 516.519 637.706L513.827 636.383C512.92 638.228 510.981 639.646 508.166 640.849C505.366 642.046 501.994 642.912 498.513 643.841L499.286 646.74ZM516.519 637.706C517.786 635.129 518.163 632.552 518.232 630.643C518.267 629.685 518.224 628.881 518.171 628.31C518.145 628.024 518.116 627.795 518.093 627.633C518.081 627.552 518.071 627.488 518.063 627.441C518.059 627.418 518.056 627.399 518.054 627.385C518.052 627.378 518.051 627.372 518.05 627.367C518.05 627.365 518.05 627.362 518.049 627.361C518.049 627.36 518.049 627.359 518.049 627.358C518.049 627.358 518.049 627.357 518.049 627.357C518.049 627.356 518.048 627.356 516.574 627.633C515.1 627.909 515.1 627.909 515.1 627.909C515.1 627.908 515.1 627.908 515.1 627.908C515.1 627.907 515.099 627.907 515.099 627.907C515.099 627.906 515.099 627.905 515.099 627.905C515.099 627.905 515.099 627.906 515.1 627.908C515.1 627.912 515.102 627.92 515.104 627.933C515.108 627.958 515.115 628 515.123 628.058C515.14 628.174 515.163 628.353 515.184 628.585C515.227 629.05 515.263 629.724 515.234 630.535C515.175 632.166 514.852 634.296 513.827 636.383L516.519 637.706ZM456.578 599.811C459.455 599.98 468.628 599.721 477.675 599.158C482.216 598.876 486.766 598.514 490.522 598.086C492.4 597.872 494.094 597.64 495.499 597.389C496.873 597.144 498.068 596.865 498.889 596.532L497.758 593.753C497.25 593.959 496.321 594.195 494.972 594.436C493.653 594.671 492.026 594.895 490.183 595.105C486.497 595.525 482.004 595.883 477.488 596.164C468.421 596.728 459.423 596.973 456.755 596.816L456.578 599.811ZM498.889 596.532C501.577 595.438 503.669 594.309 505 592.836C506.435 591.248 506.873 589.396 506.565 587.235L503.595 587.659C503.799 589.089 503.517 590.003 502.774 590.825C501.927 591.762 500.384 592.685 497.758 593.753L498.889 596.532ZM506.565 587.235C506.19 584.608 503.941 583.064 501.767 582.199C499.515 581.304 496.822 580.913 494.582 580.864L494.516 583.863C496.517 583.907 498.833 584.262 500.658 584.987C502.561 585.743 503.457 586.694 503.595 587.659L506.565 587.235ZM494.582 580.864C490.224 580.768 481.231 581.573 476.094 582.228L476.473 585.204C481.587 584.552 490.394 583.772 494.516 583.863L494.582 580.864ZM476.094 582.228C473.561 582.55 469.215 582.909 464.94 583.32C460.759 583.722 456.547 584.182 454.513 584.721L455.282 587.621C457.021 587.16 460.939 586.719 465.227 586.306C469.42 585.903 473.88 585.534 476.473 585.204L476.094 582.228ZM454.513 584.721C452.498 585.255 450.601 586.097 449.208 587.48C447.767 588.91 446.976 590.812 447.028 593.192L450.028 593.125C449.992 591.518 450.499 590.426 451.322 589.609C452.192 588.745 453.524 588.086 455.282 587.621L454.513 584.721ZM447.028 593.192C447.054 594.336 447.254 595.38 447.725 596.289C448.208 597.221 448.924 597.913 449.815 598.415C451.487 599.358 453.838 599.65 456.578 599.811L456.755 596.816C453.95 596.651 452.275 596.358 451.288 595.802C450.848 595.554 450.575 595.268 450.389 594.91C450.192 594.53 450.047 593.974 450.028 593.125L447.028 593.192ZM346.052 539.568C350.647 538.756 355.682 537.589 359.556 536.629C361.496 536.148 363.15 535.717 364.321 535.407C364.906 535.251 365.37 535.126 365.688 535.039C365.848 534.996 365.97 534.962 366.054 534.939C366.095 534.928 366.127 534.919 366.149 534.913C366.159 534.91 366.168 534.908 366.173 534.907C366.176 534.906 366.178 534.905 366.18 534.905C366.18 534.905 366.181 534.904 366.181 534.904C366.182 534.904 366.182 534.904 366.182 534.904C366.182 534.904 366.182 534.904 365.781 533.459C365.379 532.013 365.379 532.013 365.379 532.013C365.379 532.013 365.379 532.013 365.379 532.014C365.379 532.014 365.378 532.014 365.378 532.014C365.377 532.014 365.375 532.015 365.372 532.015C365.367 532.017 365.36 532.019 365.35 532.022C365.329 532.027 365.299 532.036 365.258 532.047C365.178 532.069 365.057 532.102 364.901 532.145C364.588 532.23 364.13 532.353 363.551 532.507C362.394 532.814 360.755 533.24 358.834 533.717C354.986 534.671 350.027 535.819 345.53 536.614L346.052 539.568ZM366.163 534.909L370.153 533.858L369.389 530.957L365.399 532.008L366.163 534.909ZM365.781 533.459C364.307 533.741 364.307 533.741 364.307 533.741C364.308 533.741 364.308 533.741 364.308 533.741C364.308 533.742 364.308 533.743 364.308 533.744C364.308 533.746 364.309 533.749 364.31 533.753C364.311 533.761 364.314 533.773 364.317 533.789C364.323 533.821 364.332 533.868 364.344 533.93C364.367 534.054 364.402 534.237 364.447 534.471C364.537 534.94 364.667 535.617 364.827 536.447C365.147 538.107 365.586 540.381 366.065 542.84C367.022 547.752 368.139 553.417 368.773 556.376L371.706 555.747C371.079 552.822 369.968 547.185 369.01 542.267C368.532 539.811 368.093 537.538 367.773 535.879C367.613 535.05 367.484 534.374 367.394 533.906C367.349 533.672 367.314 533.489 367.29 533.366C367.278 533.304 367.269 533.257 367.263 533.225C367.26 533.209 367.258 533.197 367.256 533.189C367.256 533.185 367.255 533.182 367.255 533.18C367.254 533.179 367.254 533.178 367.254 533.178C367.254 533.177 367.254 533.177 367.254 533.177C367.254 533.177 367.254 533.177 365.781 533.459ZM368.773 556.376C369.381 559.217 369.888 563.833 370.244 567.806C370.421 569.779 370.558 571.569 370.652 572.866C370.699 573.515 370.734 574.04 370.758 574.402C370.77 574.583 370.779 574.724 370.785 574.819C370.788 574.866 370.79 574.902 370.792 574.926C370.793 574.938 370.793 574.947 370.794 574.953C370.794 574.956 370.794 574.958 370.794 574.96C370.794 574.961 370.794 574.961 370.794 574.961C370.794 574.962 370.794 574.962 370.794 574.962C370.794 574.962 370.794 574.962 372.291 574.87C373.789 574.778 373.789 574.778 373.789 574.778C373.788 574.778 373.788 574.778 373.788 574.778C373.788 574.777 373.788 574.776 373.788 574.776C373.788 574.774 373.788 574.771 373.788 574.768C373.787 574.762 373.787 574.752 373.786 574.739C373.785 574.714 373.782 574.677 373.779 574.628C373.773 574.531 373.764 574.388 373.752 574.204C373.727 573.837 373.691 573.306 373.644 572.651C373.55 571.341 373.411 569.533 373.232 567.538C372.877 563.579 372.358 558.791 371.706 555.747L368.773 556.376ZM372.291 574.87C371.965 573.406 371.965 573.406 371.964 573.406C371.964 573.406 371.964 573.406 371.963 573.406C371.963 573.407 371.961 573.407 371.959 573.407C371.956 573.408 371.95 573.409 371.943 573.411C371.928 573.414 371.906 573.419 371.876 573.426C371.817 573.439 371.73 573.458 371.615 573.483C371.386 573.534 371.05 573.608 370.62 573.702C369.76 573.89 368.528 574.157 367.04 574.473C364.064 575.105 360.067 575.932 355.98 576.715C351.887 577.5 347.725 578.236 344.41 578.688C342.75 578.915 341.331 579.066 340.252 579.12C339.711 579.147 339.285 579.148 338.972 579.127C338.613 579.104 338.554 579.06 338.636 579.098L337.359 581.813C337.814 582.027 338.349 582.093 338.776 582.121C339.249 582.152 339.801 582.146 340.402 582.116C341.606 582.056 343.122 581.892 344.816 581.661C348.211 581.197 352.436 580.449 356.544 579.662C360.658 578.873 364.676 578.042 367.664 577.407C369.158 577.09 370.396 576.822 371.26 576.633C371.692 576.539 372.031 576.464 372.263 576.413C372.378 576.387 372.467 576.368 372.527 576.354C372.557 576.348 372.579 576.343 372.595 576.339C372.602 576.338 372.608 576.336 372.612 576.335C372.614 576.335 372.615 576.335 372.616 576.334C372.617 576.334 372.617 576.334 372.618 576.334C372.618 576.334 372.618 576.334 372.291 574.87ZM338.636 579.098C337.551 578.588 336.74 577.543 335.571 575.977C334.482 574.519 333.134 572.7 331.039 571.473L329.524 574.062C331.02 574.938 332.04 576.262 333.167 577.772C334.213 579.174 335.465 580.922 337.359 581.813L338.636 579.098ZM331.039 571.473C330.325 571.056 329.237 570.8 328.116 570.614C326.925 570.416 325.454 570.261 323.81 570.143C320.517 569.907 316.433 569.811 312.307 569.835C308.178 569.86 303.982 570.004 300.462 570.251C297.004 570.494 294.03 570.846 292.458 571.336L293.35 574.2C294.537 573.831 297.166 573.49 300.672 573.244C304.117 573.002 308.247 572.859 312.324 572.835C316.404 572.812 320.405 572.907 323.595 573.136C325.192 573.25 326.561 573.397 327.625 573.574C328.759 573.762 329.34 573.955 329.524 574.062L331.039 571.473ZM292.458 571.336C289.218 572.345 287.778 574.233 286.715 575.896C285.636 577.582 285.146 578.54 283.818 579.059L284.91 581.853C287.35 580.9 288.372 578.873 289.242 577.513C290.127 576.129 291.073 574.909 293.35 574.2L292.458 571.336ZM283.818 579.059C282.251 579.671 279.364 579.865 276.091 579.766C272.899 579.671 269.605 579.31 267.4 578.973L266.947 581.939C269.25 582.29 272.667 582.665 276.001 582.765C279.254 582.863 282.709 582.713 284.91 581.853L283.818 579.059ZM267.4 578.973C265.92 578.747 264.78 577.437 263.95 575.706C263.558 574.887 263.286 574.076 263.113 573.464C263.027 573.16 262.966 572.91 262.928 572.741C262.909 572.656 262.896 572.592 262.887 572.551C262.883 572.53 262.88 572.515 262.879 572.507C262.878 572.503 262.877 572.5 262.877 572.499C262.877 572.499 262.877 572.499 262.877 572.499C262.877 572.499 262.877 572.5 262.877 572.5C262.877 572.5 262.877 572.5 262.877 572.501C262.878 572.501 262.878 572.501 261.401 572.768C259.925 573.035 259.925 573.035 259.926 573.036C259.926 573.036 259.926 573.036 259.926 573.037C259.926 573.037 259.926 573.038 259.926 573.039C259.927 573.041 259.927 573.044 259.928 573.047C259.929 573.053 259.93 573.06 259.932 573.069C259.935 573.087 259.94 573.112 259.946 573.143C259.959 573.205 259.977 573.291 260.001 573.399C260.05 573.615 260.123 573.918 260.226 574.281C260.431 575.003 260.757 575.985 261.244 577.002C262.174 578.942 263.919 581.476 266.947 581.939L267.4 578.973ZM261.401 572.768C260.096 572.029 260.096 572.03 260.096 572.03C260.096 572.03 260.096 572.03 260.095 572.03C260.095 572.031 260.095 572.031 260.094 572.032C260.094 572.033 260.093 572.035 260.091 572.037C260.089 572.042 260.085 572.049 260.08 572.057C260.07 572.075 260.056 572.1 260.038 572.133C260.001 572.199 259.948 572.295 259.879 572.42C259.742 572.67 259.544 573.035 259.298 573.499C258.807 574.427 258.123 575.754 257.35 577.356C255.807 580.553 253.895 584.875 252.453 589.323L255.307 590.248C256.691 585.978 258.54 581.791 260.052 578.659C260.806 577.097 261.472 575.804 261.949 574.903C262.188 574.453 262.379 574.101 262.509 573.863C262.575 573.744 262.625 573.654 262.658 573.594C262.675 573.564 262.688 573.541 262.696 573.527C262.7 573.519 262.703 573.514 262.705 573.511C262.706 573.509 262.706 573.508 262.707 573.507C262.707 573.507 262.707 573.506 262.707 573.506C262.707 573.506 262.707 573.506 262.707 573.506C262.707 573.506 262.707 573.507 261.401 572.768ZM252.453 589.323C249.564 598.231 248.466 608.619 249.487 617.261L252.466 616.91C251.5 608.728 252.542 598.775 255.307 590.248L252.453 589.323ZM249.487 617.261C250.48 625.675 251.096 629.949 252.143 638.329L255.12 637.957C254.066 629.521 253.459 625.32 252.466 616.91L249.487 617.261ZM253.631 638.143C253.518 639.639 253.519 639.639 253.519 639.639C253.519 639.639 253.52 639.639 253.52 639.639C253.522 639.639 253.524 639.639 253.526 639.64C253.532 639.64 253.54 639.641 253.55 639.641C253.571 639.643 253.602 639.645 253.643 639.648C253.726 639.655 253.848 639.664 254.009 639.676C254.329 639.7 254.802 639.735 255.408 639.78C256.62 639.87 258.369 639.999 260.513 640.156C264.802 640.469 270.675 640.891 277.012 641.327C289.673 642.199 304.224 643.131 311.669 643.361L311.762 640.363C304.385 640.134 289.894 639.207 277.218 638.334C270.887 637.898 265.018 637.476 260.732 637.164C258.589 637.007 256.841 636.878 255.63 636.788C255.025 636.743 254.553 636.708 254.233 636.684C254.072 636.672 253.95 636.663 253.868 636.657C253.827 636.654 253.796 636.651 253.775 636.65C253.765 636.649 253.757 636.648 253.752 636.648C253.749 636.648 253.747 636.648 253.746 636.648C253.745 636.648 253.745 636.647 253.744 636.647C253.744 636.647 253.744 636.647 253.631 638.143ZM311.669 643.361C319.139 643.593 327.715 643.362 335.448 642.72C343.139 642.082 350.139 641.028 354.38 639.561L353.399 636.726C349.541 638.06 342.865 639.095 335.2 639.73C327.576 640.363 319.114 640.59 311.762 640.363L311.669 643.361ZM377.268 630.879C377.46 630.609 377.535 630.317 377.557 630.237C377.595 630.095 377.625 629.943 377.65 629.797C377.701 629.501 377.748 629.127 377.792 628.703C377.881 627.849 377.97 626.699 378.056 625.368C378.228 622.7 378.395 619.24 378.541 615.818C378.686 612.395 378.812 609.001 378.9 606.465C378.945 605.196 378.98 604.141 379.004 603.403C379.016 603.034 379.025 602.745 379.032 602.547C379.035 602.448 379.037 602.373 379.039 602.322C379.039 602.296 379.04 602.277 379.04 602.264C379.041 602.257 379.041 602.252 379.041 602.249C379.041 602.247 379.041 602.246 379.041 602.245C379.041 602.245 379.041 602.244 379.041 602.244C379.041 602.244 379.041 602.244 377.542 602.197C376.043 602.151 376.043 602.151 376.043 602.151C376.043 602.151 376.043 602.152 376.043 602.152C376.042 602.153 376.042 602.154 376.042 602.156C376.042 602.159 376.042 602.164 376.042 602.17C376.042 602.183 376.041 602.202 376.04 602.227C376.039 602.278 376.036 602.353 376.033 602.452C376.027 602.648 376.018 602.937 376.005 603.305C375.981 604.041 375.946 605.094 375.902 606.36C375.814 608.892 375.689 612.278 375.543 615.691C375.398 619.106 375.232 622.54 375.062 625.175C374.977 626.494 374.891 627.597 374.808 628.391C374.766 628.791 374.728 629.09 374.693 629.29C374.676 629.392 374.664 629.444 374.66 629.458C374.639 629.534 374.673 629.351 374.824 629.139L377.268 630.879ZM379.015 601.914L373.764 574.587L370.818 575.153L376.069 602.48L379.015 601.914ZM354.38 639.561C358.42 638.163 363.485 636.469 367.545 635.123C369.573 634.45 371.349 633.865 372.618 633.448C373.253 633.24 373.76 633.073 374.109 632.959C374.283 632.902 374.418 632.858 374.509 632.828C374.555 632.813 374.589 632.801 374.613 632.794C374.624 632.79 374.633 632.787 374.639 632.785C374.642 632.784 374.644 632.784 374.645 632.783C374.646 632.783 374.647 632.783 374.647 632.783C374.647 632.783 374.647 632.782 374.647 632.782C374.647 632.782 374.648 632.782 374.182 631.357C373.716 629.931 373.715 629.931 373.715 629.931C373.715 629.931 373.715 629.931 373.715 629.931C373.715 629.931 373.714 629.931 373.713 629.932C373.712 629.932 373.709 629.933 373.707 629.934C373.701 629.936 373.692 629.939 373.68 629.942C373.657 629.95 373.622 629.962 373.576 629.976C373.485 630.006 373.349 630.051 373.175 630.108C372.825 630.223 372.317 630.389 371.681 630.598C370.411 631.016 368.632 631.602 366.6 632.276C362.538 633.623 357.458 635.322 353.399 636.726L354.38 639.561ZM374.182 631.357C374.674 632.774 374.674 632.773 374.675 632.773C374.675 632.773 374.675 632.773 374.675 632.773C374.676 632.773 374.676 632.773 374.677 632.772C374.678 632.772 374.679 632.772 374.681 632.771C374.683 632.77 374.686 632.769 374.689 632.768C374.695 632.766 374.703 632.763 374.711 632.76C374.729 632.754 374.75 632.746 374.776 632.736C374.828 632.715 374.897 632.688 374.98 632.652C375.143 632.58 375.365 632.475 375.614 632.332C376.092 632.056 376.762 631.59 377.268 630.879L374.824 629.139C374.668 629.358 374.406 629.565 374.117 629.731C373.982 629.809 373.863 629.866 373.78 629.902C373.739 629.92 373.709 629.932 373.693 629.938C373.684 629.941 373.68 629.943 373.679 629.943C373.679 629.943 373.679 629.943 373.681 629.943C373.682 629.942 373.683 629.942 373.684 629.941C373.685 629.941 373.686 629.941 373.687 629.941C373.687 629.941 373.687 629.94 373.688 629.94C373.688 629.94 373.688 629.94 373.688 629.94C373.689 629.94 373.689 629.94 374.182 631.357ZM372.682 631.357C372.682 631.711 372.763 632.693 372.819 633.721C372.879 634.838 372.926 636.231 372.879 637.68C372.832 639.136 372.691 640.607 372.392 641.891C372.087 643.2 371.65 644.166 371.117 644.752L373.335 646.772C374.368 645.638 374.958 644.096 375.314 642.572C375.675 641.024 375.827 639.338 375.878 637.777C375.928 636.208 375.877 634.721 375.814 633.56C375.747 632.309 375.682 631.615 375.682 631.357H372.682ZM371.117 644.752C370.579 645.343 369.277 646.127 367.177 647C365.148 647.843 362.587 648.685 359.757 649.483C354.1 651.079 347.492 652.462 342.194 653.304L342.665 656.267C348.062 655.41 354.786 654.002 360.571 652.371C363.462 651.556 366.148 650.676 368.328 649.77C370.437 648.894 372.307 647.902 373.335 646.772L371.117 644.752ZM342.194 653.304C336.974 654.134 327.742 654.46 318.71 654.497C309.702 654.533 301.037 654.28 297.006 653.978L296.782 656.97C300.926 657.28 309.68 657.533 318.722 657.497C327.739 657.461 337.188 657.137 342.665 656.267L342.194 653.304ZM297.006 653.978C288.862 653.369 275.831 651.919 271.053 651.236L270.629 654.206C275.478 654.899 288.576 656.356 296.782 656.97L297.006 653.978ZM271.053 651.236C268.669 650.895 265.319 650.344 262.465 649.785C261.036 649.505 259.752 649.227 258.784 648.977C258.297 648.851 257.914 648.738 257.643 648.642C257.507 648.594 257.419 648.558 257.371 648.535C257.301 648.502 257.366 648.522 257.471 648.615L255.484 650.863C255.696 651.05 255.93 651.172 256.085 651.245C256.26 651.328 256.453 651.404 256.646 651.472C257.033 651.608 257.508 651.745 258.032 651.881C259.085 652.153 260.436 652.444 261.889 652.729C264.798 653.299 268.2 653.859 270.629 654.206L271.053 651.236ZM257.471 648.615C257.639 648.763 257.685 648.89 257.64 648.801C257.615 648.752 257.572 648.657 257.515 648.501C257.4 648.192 257.265 647.755 257.116 647.21C256.82 646.127 256.498 644.733 256.198 643.34C255.899 641.951 255.626 640.584 255.427 639.562C255.328 639.052 255.248 638.628 255.192 638.333C255.165 638.186 255.143 638.07 255.128 637.992C255.121 637.952 255.116 637.922 255.112 637.902C255.11 637.892 255.109 637.885 255.108 637.88C255.107 637.877 255.107 637.876 255.107 637.874C255.107 637.874 255.107 637.873 255.107 637.873C255.107 637.873 255.107 637.873 255.107 637.873C255.107 637.873 255.107 637.873 253.631 638.143C252.156 638.414 252.156 638.414 252.156 638.414C252.156 638.414 252.156 638.414 252.156 638.414C252.156 638.415 252.156 638.415 252.156 638.416C252.156 638.417 252.157 638.419 252.157 638.422C252.158 638.428 252.16 638.436 252.162 638.446C252.166 638.467 252.171 638.498 252.179 638.539C252.194 638.619 252.216 638.737 252.244 638.887C252.3 639.188 252.382 639.617 252.482 640.134C252.683 641.168 252.96 642.556 253.265 643.972C253.569 645.382 253.905 646.839 254.223 648.002C254.381 648.58 254.542 649.114 254.701 649.543C254.78 649.756 254.869 649.971 254.968 650.165C255.046 650.318 255.208 650.619 255.484 650.863L257.471 648.615ZM261.401 572.768C262.9 572.691 262.9 572.691 262.899 572.691C262.899 572.691 262.899 572.69 262.899 572.69C262.899 572.69 262.899 572.689 262.899 572.688C262.899 572.687 262.899 572.684 262.899 572.681C262.899 572.675 262.898 572.665 262.898 572.653C262.896 572.628 262.894 572.59 262.892 572.542C262.887 572.445 262.879 572.302 262.869 572.119C262.849 571.751 262.819 571.22 262.781 570.563C262.704 569.25 262.593 567.434 262.453 565.422C262.175 561.414 261.781 556.575 261.324 553.401L258.354 553.828C258.794 556.88 259.182 561.617 259.46 565.63C259.599 567.628 259.71 569.433 259.786 570.738C259.824 571.391 259.854 571.918 259.873 572.282C259.883 572.464 259.891 572.605 259.896 572.701C259.898 572.748 259.9 572.785 259.902 572.809C259.902 572.821 259.903 572.83 259.903 572.836C259.903 572.839 259.903 572.841 259.903 572.843C259.903 572.844 259.903 572.844 259.903 572.845C259.903 572.845 259.903 572.845 259.903 572.845C259.903 572.845 259.903 572.845 261.401 572.768ZM250.324 541.39C250.636 541.564 250.998 541.653 251.237 541.705C251.518 541.766 251.838 541.816 252.164 541.858C252.818 541.943 253.586 542.006 254.304 542.053C255.027 542.1 255.721 542.132 256.232 542.153C256.488 542.163 256.699 542.17 256.847 542.175C256.921 542.177 256.979 542.179 257.019 542.18C257.039 542.181 257.055 542.181 257.066 542.181C257.071 542.182 257.075 542.182 257.078 542.182C257.079 542.182 257.08 542.182 257.081 542.182C257.082 542.182 257.082 542.182 257.082 542.182C257.082 542.182 257.082 542.182 257.082 542.182C257.083 542.182 257.083 542.182 257.122 540.682C257.161 539.183 257.161 539.183 257.161 539.183C257.161 539.183 257.161 539.183 257.161 539.183C257.161 539.183 257.16 539.183 257.16 539.183C257.16 539.183 257.159 539.183 257.158 539.183C257.156 539.183 257.152 539.183 257.148 539.183C257.138 539.182 257.124 539.182 257.106 539.181C257.069 539.18 257.014 539.179 256.943 539.176C256.802 539.172 256.598 539.165 256.351 539.155C255.856 539.135 255.19 539.104 254.5 539.059C253.807 539.014 253.11 538.955 252.548 538.883C252.265 538.846 252.038 538.809 251.873 538.773C251.665 538.728 251.68 538.711 251.782 538.768L250.324 541.39ZM256.973 542.175C259.419 542.418 270.263 542.557 282.025 542.569C293.833 542.581 306.736 542.465 313.384 542.181L313.256 539.184C306.682 539.464 293.838 539.581 282.028 539.569C270.172 539.557 259.528 539.414 257.27 539.19L256.973 542.175ZM261.324 553.401C260.867 550.229 260.177 546.951 259.605 544.476C259.319 543.236 259.061 542.192 258.874 541.458C258.78 541.09 258.705 540.8 258.652 540.6C258.626 540.501 258.605 540.424 258.591 540.371C258.584 540.345 258.579 540.325 258.575 540.311C258.573 540.305 258.572 540.299 258.571 540.296C258.57 540.294 258.57 540.292 258.57 540.291C258.57 540.291 258.569 540.29 258.569 540.29C258.569 540.29 258.569 540.29 258.569 540.29C258.569 540.29 258.569 540.289 257.122 540.682C255.674 541.075 255.674 541.075 255.674 541.075C255.674 541.075 255.674 541.075 255.674 541.075C255.674 541.075 255.674 541.076 255.674 541.076C255.674 541.077 255.675 541.078 255.675 541.079C255.676 541.082 255.677 541.086 255.679 541.092C255.682 541.104 255.687 541.123 255.693 541.147C255.706 541.196 255.726 541.269 255.751 541.365C255.802 541.557 255.875 541.839 255.966 542.197C256.149 542.915 256.402 543.936 256.682 545.151C257.245 547.586 257.914 550.774 258.354 553.828L261.324 553.401ZM432.414 328.281C432.412 328.281 432.425 328.279 432.457 328.278C432.487 328.277 432.529 328.277 432.584 328.278C432.695 328.282 432.84 328.293 433.023 328.316C433.389 328.36 433.859 328.443 434.429 328.565C435.566 328.81 437.024 329.197 438.706 329.7C442.067 330.706 446.247 332.153 450.397 333.777C454.552 335.403 458.641 337.194 461.834 338.883C463.432 339.729 464.774 340.532 465.776 341.26C466.832 342.026 467.325 342.578 467.472 342.874L470.156 341.533C469.662 340.545 468.646 339.636 467.539 338.832C466.377 337.989 464.9 337.111 463.237 336.231C459.906 334.469 455.702 332.632 451.491 330.984C447.275 329.334 443.017 327.859 439.566 326.826C437.843 326.311 436.302 325.899 435.059 325.632C434.438 325.499 433.873 325.397 433.386 325.338C432.925 325.282 432.433 325.25 432.003 325.309L432.414 328.281ZM467.472 342.874C468.748 345.427 469.982 348.095 470.777 350.75C471.573 353.408 471.897 355.952 471.447 358.279L474.392 358.849C474.969 355.869 474.523 352.801 473.651 349.889C472.778 346.975 471.447 344.117 470.156 341.533L467.472 342.874ZM471.447 358.279C471.256 359.265 470.506 360.716 469.228 362.447C467.981 364.134 466.343 365.94 464.575 367.615C462.807 369.289 460.941 370.803 459.249 371.918C457.498 373.072 456.129 373.668 455.312 373.756L455.632 376.739C457.21 376.57 459.091 375.615 460.9 374.423C462.768 373.191 464.772 371.561 466.639 369.793C468.506 368.024 470.268 366.087 471.64 364.229C472.981 362.415 474.07 360.518 474.392 358.849L471.447 358.279ZM455.312 373.756C454.994 373.79 454.447 373.737 453.642 373.504C452.861 373.278 451.938 372.912 450.91 372.419C448.854 371.435 446.484 369.993 444.167 368.322C441.851 366.651 439.624 364.777 437.845 362.943C436.036 361.078 434.806 359.374 434.321 358.049L431.504 359.08C432.209 361.008 433.797 363.079 435.692 365.033C437.618 367.017 439.984 369.004 442.412 370.755C444.838 372.505 447.362 374.046 449.613 375.125C450.738 375.664 451.821 376.1 452.808 376.386C453.771 376.665 454.753 376.833 455.632 376.739L455.312 373.756ZM434.321 358.049C433.782 356.578 433.225 353.942 432.759 350.713C432.298 347.518 431.94 343.845 431.771 340.36C431.601 336.861 431.624 333.61 431.904 331.236C432.046 330.037 432.243 329.155 432.466 328.598C432.736 327.922 432.825 328.224 432.414 328.281L432.003 325.309C430.662 325.494 430.001 326.681 429.681 327.483C429.313 328.403 429.078 329.59 428.925 330.885C428.616 333.499 428.601 336.939 428.774 340.505C428.948 344.084 429.315 347.851 429.79 351.142C430.26 354.4 430.851 357.298 431.504 359.08L434.321 358.049ZM288.68 255.86L369.896 259.582L370.034 256.586L288.818 252.863L288.68 255.86ZM434.79 260.43C436.269 258.23 436.888 254.909 437.17 252.374C437.316 251.063 437.38 249.877 437.408 249.019C437.422 248.589 437.427 248.239 437.428 247.995C437.429 247.873 437.429 247.777 437.428 247.711C437.428 247.677 437.428 247.651 437.428 247.633C437.427 247.624 437.427 247.617 437.427 247.612C437.427 247.609 437.427 247.607 437.427 247.605C437.427 247.604 437.427 247.604 437.427 247.603C437.427 247.603 437.427 247.603 437.427 247.602C437.427 247.602 437.427 247.602 435.927 247.626C434.428 247.65 434.428 247.65 434.427 247.65C434.427 247.65 434.427 247.65 434.427 247.65C434.427 247.649 434.427 247.65 434.427 247.65C434.428 247.65 434.428 247.651 434.428 247.652C434.428 247.655 434.428 247.66 434.428 247.666C434.428 247.679 434.428 247.7 434.428 247.728C434.429 247.784 434.429 247.868 434.428 247.978C434.427 248.199 434.422 248.521 434.409 248.922C434.384 249.723 434.324 250.828 434.188 252.041C433.908 254.555 433.335 257.217 432.3 258.756L434.79 260.43ZM437.427 247.626V244H434.427V247.626H437.427ZM370.2 259.566L436.162 249.107L435.692 246.144L369.73 256.603L370.2 259.566ZM292.62 591.595C289.59 592.18 286.772 593.092 284.719 594.752C282.572 596.489 281.384 598.943 281.479 602.24L284.477 602.155C284.408 599.739 285.227 598.2 286.605 597.085C288.077 595.895 290.304 595.098 293.189 594.541L292.62 591.595ZM297.969 609.328C300.918 609.328 307.936 609.404 315.004 609.323C322.014 609.243 329.295 609.009 332.715 608.352L332.149 605.406C329.051 606.001 322.074 606.242 314.969 606.323C307.922 606.404 300.967 606.328 297.969 606.328V609.328ZM332.715 608.352C335.832 607.753 339.33 607.252 341.95 606.044C343.305 605.418 344.547 604.556 345.437 603.296C346.338 602.019 346.793 600.455 346.774 598.585L343.774 598.615C343.788 599.96 343.468 600.883 342.986 601.566C342.492 602.265 341.741 602.836 340.693 603.32C338.505 604.329 335.549 604.752 332.149 605.406L332.715 608.352ZM346.774 598.585C346.754 596.573 346.006 594.975 344.743 593.774C343.527 592.619 341.912 591.903 340.239 591.428C336.929 590.49 332.766 590.341 329.543 590.104L329.323 593.096C332.766 593.349 336.491 593.484 339.42 594.315C340.865 594.724 341.957 595.265 342.676 595.949C343.348 596.587 343.763 597.41 343.774 598.615L346.774 598.585ZM329.543 590.104C326.116 589.853 318.383 589.939 310.831 590.224C303.303 590.508 295.713 590.998 292.62 591.595L293.189 594.541C296.011 593.996 303.353 593.508 310.944 593.222C318.511 592.936 326.086 592.859 329.323 593.096L329.543 590.104ZM246.312 245.918C246.31 245.917 246.308 245.917 246.306 245.916L245.631 248.839C245.642 248.842 245.652 248.844 245.663 248.847L246.312 245.918ZM261.102 249.264L246.319 245.919L245.657 248.845L260.441 252.19L261.102 249.264ZM246.319 245.919L246.299 245.915L245.637 248.841L245.657 248.845L246.319 245.919ZM245.663 248.847C246.124 248.949 247.12 249.07 248.383 249.206C249.69 249.346 251.394 249.513 253.35 249.698C257.272 250.07 262.212 250.519 267.092 250.995C271.973 251.471 276.763 251.971 280.367 252.442C282.173 252.678 283.653 252.904 284.688 253.111C285.211 253.215 285.577 253.307 285.801 253.38C285.917 253.418 285.943 253.435 285.919 253.421C285.905 253.414 285.844 253.38 285.765 253.313C285.694 253.252 285.532 253.098 285.419 252.834L288.177 251.654C287.94 251.101 287.467 250.848 287.348 250.784C287.145 250.674 286.926 250.592 286.734 250.529C286.341 250.4 285.838 250.281 285.276 250.169C284.14 249.942 282.579 249.706 280.756 249.467C277.099 248.989 272.267 248.485 267.383 248.009C262.5 247.533 257.536 247.082 253.633 246.712C251.678 246.526 249.99 246.361 248.703 246.223C247.372 246.08 246.572 245.975 246.312 245.918L245.663 248.847ZM313.653 539.167L313.256 539.184L313.384 542.181L313.781 542.164L313.653 539.167ZM345.53 536.614C336.647 538.183 326.713 538.609 313.653 539.167L313.781 542.164C326.78 541.609 336.933 541.179 346.052 539.568L345.53 536.614ZM313.384 542.181C313.517 542.175 313.649 542.17 313.781 542.164L313.653 539.167C313.521 539.172 313.389 539.178 313.256 539.184L313.384 542.181ZM287.726 255.458C291.782 259.24 301.215 266.681 308.895 270.277L310.167 267.561C302.884 264.15 293.712 256.939 289.772 253.264L287.726 255.458ZM289.772 253.264C289.231 252.759 288.807 252.338 288.51 252.016C288.361 251.855 288.257 251.732 288.19 251.646C288.106 251.537 288.133 251.552 288.177 251.654L285.419 252.834C285.531 253.096 285.697 253.326 285.818 253.482C285.956 253.66 286.122 253.852 286.305 254.051C286.672 254.448 287.155 254.925 287.726 255.458L289.772 253.264ZM297.969 606.328L297.721 606.328L297.721 609.328L297.969 609.328L297.969 606.328ZM297.721 606.328C294.702 606.329 291.248 606.321 288.532 605.667C287.182 605.342 286.16 604.888 285.489 604.314C284.871 603.785 284.505 603.121 284.477 602.155L281.479 602.24C281.531 604.09 282.305 605.538 283.538 606.593C284.718 607.603 286.258 608.206 287.83 608.584C290.96 609.338 294.798 609.329 297.721 609.328L297.721 606.328ZM297.721 609.328C297.805 609.328 297.887 609.328 297.969 609.328V606.328C297.887 606.328 297.804 606.328 297.721 606.328L297.721 609.328Z" fill="black"/>
</svg>
