<svg width="701" height="900" viewBox="0 0 701 900" fill="none" xmlns="http://www.w3.org/2000/svg">
<path d="M251.722 447.493C252.967 438.557 255.575 405.902 255.575 405.902L188.26 403.55C188.26 403.55 187.775 422.323 188.03 429.398C188.286 436.473 189.554 448.938 193.651 458.885C197.749 468.833 207.23 474.287 215.359 475.338C223.488 476.388 233.706 474.202 239.424 470.568C245.142 466.934 250.477 456.429 251.722 447.493Z" fill="black"/>
<path d="M472.994 402.869C472.994 402.869 469.285 432.493 470.537 441.659C471.789 450.825 474.069 459.712 479.735 465.161C485.401 470.609 497.193 472.096 504.177 470.959C511.162 469.823 515.07 465.576 518.744 457.571C522.418 449.565 523.143 438.476 524.211 430.123C525.279 421.77 525.77 403.214 525.77 403.214L472.994 402.869Z" fill="black"/>
<path d="M439.381 404.282C436.013 406.605 433.458 452.11 441.731 466.91C450.005 481.711 461.077 498.137 480.545 500.654C500.013 503.17 519.662 497.918 530.957 489.296C542.253 480.675 547.286 471.854 550.955 461.735C554.623 451.616 558.251 405.593 557.286 404.409C556.32 403.224 525.77 403.214 525.77 403.214C525.77 403.214 525.279 421.77 524.211 430.123C523.143 438.476 522.418 449.565 518.744 457.571C515.07 465.576 511.162 469.823 504.177 470.959C497.193 472.096 485.401 470.609 479.735 465.161C474.069 459.712 471.789 450.825 470.537 441.659C469.285 432.493 472.994 402.869 472.994 402.869C472.994 402.869 442.748 401.96 439.381 404.282Z" fill="white"/>
<path d="M285.064 458.235C288.871 442.416 290.453 410.731 288.831 408.407C287.241 406.127 265.399 405.972 256.1 405.906L255.575 405.902C255.575 405.902 252.967 438.557 251.722 447.493C250.477 456.429 245.142 466.934 239.424 470.568C233.706 474.202 223.488 476.388 215.359 475.338C207.23 474.287 197.749 468.833 193.651 458.885C189.554 448.938 188.286 436.473 188.03 429.398C187.775 422.323 188.26 403.55 188.26 403.55C188.26 403.55 162.022 403.041 156.387 403.712C150.752 404.382 152.922 444.876 157.725 461.497C162.529 478.118 176.782 494.212 188.397 499.529C200.012 504.846 235.561 511.203 256.707 497.638C277.853 484.072 281.257 474.054 285.064 458.235Z" fill="white"/>
<path d="M288.831 408.407L287.601 409.265L287.601 409.265L288.831 408.407ZM188.26 403.55L188.312 402.051L188.3 402.05L188.289 402.05L188.26 403.55ZM287.601 409.265C287.516 409.143 287.558 409.14 287.63 409.485C287.69 409.77 287.748 410.175 287.798 410.706C287.896 411.763 287.952 413.204 287.962 414.957C287.982 418.455 287.82 423.09 287.487 428.162C286.82 438.325 285.479 450.1 283.606 457.884L286.523 458.586C288.456 450.551 289.81 438.574 290.48 428.358C290.816 423.241 290.983 418.531 290.962 414.94C290.952 413.148 290.895 411.609 290.785 410.427C290.73 409.838 290.659 409.308 290.566 408.867C290.486 408.485 290.35 407.962 290.062 407.549L287.601 409.265ZM283.606 457.884C281.704 465.786 279.947 472.025 276.126 477.97C272.312 483.905 266.363 489.661 255.897 496.375L257.517 498.9C268.197 492.049 274.523 486.013 278.65 479.592C282.769 473.183 284.617 466.503 286.523 458.586L283.606 457.884ZM255.897 496.375C245.703 502.915 231.896 504.718 219.043 504.166C206.198 503.614 194.609 500.723 189.022 498.165L187.773 500.893C193.801 503.653 205.793 506.599 218.914 507.163C232.025 507.727 246.565 505.926 257.517 498.9L255.897 496.375ZM189.022 498.165C183.482 495.629 177.185 490.45 171.661 483.794C166.147 477.151 161.499 469.152 159.167 461.081L156.284 461.914C158.755 470.464 163.636 478.822 169.353 485.71C175.06 492.586 181.697 498.112 187.773 500.893L189.022 498.165ZM159.167 461.081C156.814 452.94 155.078 438.801 154.641 426.57C154.423 420.461 154.532 414.907 155.032 410.871C155.284 408.84 155.624 407.283 156.027 406.252C156.229 405.735 156.416 405.43 156.554 405.271C156.683 405.123 156.689 405.186 156.564 405.201L156.21 402.222C155.38 402.321 154.744 402.78 154.287 403.306C153.84 403.822 153.501 404.472 153.233 405.159C152.695 406.536 152.317 408.383 152.055 410.502C151.527 414.766 151.422 420.5 151.643 426.677C152.083 439.016 153.834 453.433 156.284 461.914L159.167 461.081ZM438.529 403.047C437.947 403.449 437.602 404.108 437.385 404.608C437.138 405.177 436.919 405.88 436.721 406.667C436.323 408.249 435.97 410.344 435.675 412.786C435.082 417.68 434.704 424.109 434.691 430.914C434.678 437.72 435.031 444.94 435.914 451.41C436.791 457.838 438.212 463.688 440.422 467.642L443.041 466.178C441.114 462.732 439.752 457.344 438.886 451.004C438.027 444.707 437.678 437.631 437.691 430.92C437.703 424.209 438.078 417.901 438.653 413.147C438.941 410.764 439.276 408.808 439.63 407.399C439.808 406.691 439.981 406.163 440.137 405.803C440.323 405.374 440.393 405.406 440.232 405.517L438.529 403.047ZM440.422 467.642C448.677 482.409 460.069 499.519 480.353 502.141L480.737 499.166C462.085 496.755 451.333 481.012 443.041 466.178L440.422 467.642ZM480.353 502.141C500.149 504.7 520.21 499.387 531.867 490.489L530.047 488.104C519.114 496.449 499.878 501.64 480.737 499.166L480.353 502.141ZM531.867 490.489C543.44 481.656 548.621 472.572 552.365 462.246L549.545 461.223C545.951 471.135 541.066 479.693 530.047 488.104L531.867 490.489ZM552.365 462.246C553.342 459.552 554.273 454.631 555.112 448.892C555.957 443.104 556.727 436.339 557.351 429.865C557.975 423.39 558.454 417.19 558.717 412.527C558.848 410.198 558.927 408.237 558.941 406.812C558.948 406.103 558.94 405.501 558.911 405.042C558.897 404.816 558.875 404.591 558.84 404.39C558.823 404.291 558.797 404.168 558.756 404.039C558.724 403.938 558.641 403.697 558.448 403.461L556.123 405.356C555.961 405.157 555.906 404.975 555.899 404.955C555.884 404.906 555.881 404.884 555.885 404.907C555.893 404.951 555.906 405.052 555.917 405.231C555.939 405.582 555.948 406.099 555.941 406.782C555.928 408.14 555.852 410.048 555.722 412.358C555.462 416.974 554.986 423.134 554.365 429.577C553.744 436.022 552.979 442.734 552.143 448.458C551.3 454.232 550.402 458.858 549.545 461.223L552.365 462.246ZM472.994 402.869C473.039 401.37 473.039 401.37 473.039 401.37C473.039 401.37 473.038 401.37 473.038 401.37C473.037 401.37 473.035 401.37 473.033 401.37C473.03 401.37 473.024 401.37 473.016 401.369C473.002 401.369 472.98 401.368 472.951 401.367C472.893 401.366 472.807 401.363 472.695 401.36C472.471 401.354 472.143 401.345 471.725 401.335C470.888 401.315 469.689 401.288 468.241 401.264C465.345 401.215 461.446 401.173 457.438 401.205C453.436 401.236 449.302 401.341 445.944 401.586C444.268 401.708 442.756 401.867 441.538 402.076C440.929 402.181 440.369 402.302 439.885 402.446C439.425 402.583 438.932 402.769 438.529 403.047L440.232 405.517C440.23 405.518 440.266 405.494 440.361 405.454C440.452 405.415 440.577 405.37 440.741 405.321C441.07 405.223 441.505 405.126 442.046 405.033C443.126 404.848 444.529 404.697 446.163 404.578C449.423 404.34 453.482 404.236 457.462 404.205C461.437 404.173 465.31 404.214 468.19 404.263C469.63 404.288 470.821 404.314 471.651 404.334C472.067 404.344 472.392 404.353 472.613 404.359C472.723 404.362 472.808 404.365 472.864 404.366C472.893 404.367 472.914 404.368 472.928 404.368C472.935 404.368 472.941 404.368 472.944 404.369C472.946 404.369 472.947 404.369 472.948 404.369C472.948 404.369 472.949 404.369 472.949 404.369C472.949 404.369 472.949 404.369 472.994 402.869ZM472.994 402.869C471.506 402.683 471.506 402.683 471.506 402.683C471.506 402.684 471.506 402.684 471.506 402.685C471.506 402.686 471.505 402.687 471.505 402.689C471.505 402.693 471.504 402.698 471.503 402.705C471.501 402.72 471.499 402.742 471.495 402.77C471.488 402.827 471.478 402.912 471.464 403.022C471.437 403.242 471.398 403.567 471.348 403.982C471.249 404.813 471.108 406.01 470.944 407.474C470.615 410.401 470.189 414.402 469.802 418.692C469.416 422.98 469.067 427.568 468.894 431.668C468.722 435.736 468.718 439.425 469.051 441.862L472.023 441.456C471.73 439.31 471.72 435.858 471.891 431.794C472.062 427.762 472.406 423.225 472.79 418.961C473.174 414.7 473.597 410.722 473.925 407.809C474.088 406.352 474.228 405.163 474.327 404.338C474.376 403.926 474.415 403.605 474.442 403.387C474.455 403.278 474.465 403.195 474.472 403.139C474.476 403.111 474.478 403.09 474.48 403.076C474.481 403.069 474.482 403.064 474.482 403.061C474.482 403.059 474.482 403.058 474.482 403.057C474.483 403.056 474.483 403.056 474.483 403.056C474.483 403.056 474.483 403.056 472.994 402.869ZM469.051 441.862C470.305 451.04 472.626 460.404 478.695 466.242L480.775 464.079C475.513 459.019 473.274 450.61 472.023 441.456L469.051 441.862ZM478.695 466.242C481.822 469.249 486.508 471.063 491.166 472C495.849 472.942 500.726 473.041 504.418 472.44L503.936 469.479C500.644 470.015 496.132 469.939 491.757 469.059C487.357 468.174 483.313 466.521 480.775 464.079L478.695 466.242ZM504.418 472.44C508.189 471.826 511.195 470.353 513.738 467.926C516.246 465.532 518.236 462.273 520.107 458.196L517.38 456.945C515.577 460.874 513.777 463.741 511.666 465.756C509.59 467.738 507.15 468.956 503.936 469.479L504.418 472.44ZM520.107 458.196C522.028 454.009 523.154 449.078 523.936 444.215C524.714 439.373 525.175 434.413 525.699 430.314L522.723 429.933C522.179 434.187 521.744 438.948 520.974 443.739C520.207 448.51 519.133 453.126 517.38 456.945L520.107 458.196ZM558.448 403.461C558.165 403.113 557.801 402.962 557.672 402.91C557.486 402.835 557.291 402.781 557.116 402.74C556.761 402.656 556.321 402.588 555.837 402.528C554.859 402.409 553.547 402.309 552.038 402.225C549.01 402.055 545.079 401.943 541.195 401.867C537.307 401.792 533.452 401.753 530.569 401.734C529.127 401.724 527.928 401.719 527.09 401.717C526.67 401.715 526.341 401.715 526.116 401.714C526.004 401.714 525.918 401.714 525.86 401.714C525.83 401.714 525.808 401.714 525.794 401.714C525.786 401.714 525.78 401.714 525.777 401.714C525.775 401.714 525.773 401.714 525.772 401.714C525.772 401.714 525.772 401.714 525.771 401.714C525.771 401.714 525.771 401.714 525.77 403.214C525.77 404.714 525.77 404.714 525.77 404.714C525.77 404.714 525.771 404.714 525.771 404.714C525.772 404.714 525.773 404.714 525.775 404.714C525.779 404.714 525.784 404.714 525.792 404.714C525.806 404.714 525.828 404.714 525.857 404.714C525.914 404.714 526 404.714 526.111 404.714C526.335 404.715 526.662 404.715 527.08 404.717C527.916 404.719 529.111 404.724 530.549 404.734C533.424 404.753 537.266 404.792 541.137 404.867C545.011 404.942 548.898 405.054 551.87 405.22C553.36 405.303 554.594 405.399 555.472 405.506C555.916 405.56 556.231 405.614 556.429 405.66C556.53 405.684 556.562 405.697 556.549 405.692C556.541 405.689 556.498 405.671 556.436 405.633C556.381 405.6 556.252 405.515 556.123 405.356L558.448 403.461ZM525.78 401.714L473.004 401.369L472.984 404.369L525.761 404.714L525.78 401.714ZM525.699 430.314C526.242 426.067 526.634 419.282 526.89 413.604C527.018 410.755 527.113 408.168 527.176 406.294C527.208 405.357 527.231 404.597 527.247 404.072C527.254 403.809 527.26 403.605 527.264 403.466C527.266 403.397 527.267 403.344 527.268 403.308C527.269 403.29 527.269 403.277 527.27 403.268C527.27 403.263 527.27 403.259 527.27 403.257C527.27 403.256 527.27 403.255 527.27 403.254C527.27 403.254 527.27 403.254 527.27 403.254C527.27 403.254 527.27 403.253 525.77 403.214C524.271 403.174 524.271 403.174 524.271 403.174C524.271 403.174 524.271 403.175 524.271 403.175C524.271 403.175 524.271 403.176 524.271 403.177C524.271 403.179 524.271 403.183 524.271 403.187C524.27 403.196 524.27 403.209 524.27 403.227C524.269 403.261 524.267 403.314 524.265 403.382C524.261 403.519 524.256 403.722 524.248 403.983C524.232 404.505 524.209 405.261 524.178 406.193C524.115 408.06 524.021 410.634 523.893 413.469C523.636 419.157 523.248 425.826 522.723 429.933L525.699 430.314ZM255.575 405.902C254.08 405.783 254.08 405.783 254.08 405.783C254.08 405.783 254.08 405.784 254.08 405.784C254.08 405.785 254.08 405.787 254.08 405.789C254.079 405.793 254.079 405.798 254.078 405.806C254.077 405.822 254.075 405.845 254.073 405.876C254.068 405.938 254.06 406.03 254.051 406.151C254.031 406.392 254.003 406.747 253.966 407.202C253.892 408.111 253.785 409.421 253.653 411.021C253.39 414.22 253.025 418.579 252.621 423.217C251.812 432.513 250.852 442.865 250.237 447.286L253.208 447.7C253.837 443.185 254.804 432.742 255.61 423.477C256.014 418.833 256.379 414.47 256.643 411.267C256.775 409.666 256.882 408.355 256.956 407.444C256.993 406.988 257.022 406.633 257.041 406.391C257.051 406.271 257.058 406.178 257.063 406.116C257.066 406.085 257.067 406.061 257.069 406.046C257.069 406.038 257.07 406.032 257.07 406.028C257.07 406.026 257.07 406.024 257.071 406.023C257.071 406.023 257.071 406.022 257.071 406.022C257.071 406.022 257.071 406.022 255.575 405.902ZM250.237 447.286C249.641 451.563 248.056 456.258 245.922 460.321C243.771 464.417 241.159 467.688 238.619 469.302L240.229 471.834C243.406 469.814 246.321 466.015 248.578 461.716C250.853 457.384 252.559 452.359 253.208 447.7L250.237 447.286ZM238.619 469.302C233.23 472.727 223.372 474.861 215.551 473.85L215.167 476.825C223.603 477.916 234.182 475.677 240.229 471.834L238.619 469.302ZM215.551 473.85C207.857 472.855 198.895 467.677 195.038 458.314L192.264 459.456C196.602 469.988 206.604 475.718 215.167 476.825L215.551 473.85ZM195.038 458.314C191.042 448.613 189.782 436.358 189.529 429.344L186.531 429.452C186.789 436.587 188.066 449.263 192.264 459.456L195.038 458.314ZM156.564 405.201C159.265 404.88 167.114 404.836 174.427 404.879C178.054 404.901 181.505 404.943 184.05 404.98C185.322 404.999 186.368 405.016 187.095 405.029C187.459 405.035 187.743 405.04 187.936 405.044C188.032 405.046 188.106 405.047 188.156 405.048C188.181 405.048 188.199 405.049 188.212 405.049C188.218 405.049 188.223 405.049 188.226 405.049C188.227 405.049 188.229 405.049 188.229 405.049C188.23 405.049 188.23 405.049 188.23 405.049C188.23 405.049 188.231 405.049 188.26 403.55C188.289 402.05 188.289 402.05 188.288 402.05C188.288 402.05 188.288 402.05 188.287 402.05C188.287 402.05 188.285 402.05 188.284 402.05C188.28 402.05 188.276 402.05 188.269 402.05C188.257 402.049 188.238 402.049 188.213 402.048C188.162 402.047 188.088 402.046 187.991 402.044C187.797 402.041 187.512 402.036 187.147 402.029C186.418 402.017 185.369 401.999 184.094 401.981C181.543 401.944 178.083 401.901 174.445 401.879C167.231 401.836 159.144 401.873 156.21 402.222L156.564 405.201ZM188.207 405.049L255.523 407.401L255.628 404.403L188.312 402.051L188.207 405.049ZM189.529 429.344C189.403 425.852 189.46 419.43 189.549 413.845C189.593 411.06 189.646 408.495 189.687 406.627C189.708 405.693 189.726 404.933 189.739 404.406C189.745 404.143 189.75 403.939 189.754 403.8C189.755 403.73 189.757 403.677 189.758 403.642C189.758 403.624 189.759 403.611 189.759 403.602C189.759 403.597 189.759 403.594 189.759 403.592C189.759 403.59 189.759 403.59 189.759 403.589C189.759 403.589 189.759 403.589 189.759 403.589C189.759 403.588 189.759 403.588 188.26 403.55C186.76 403.511 186.76 403.511 186.76 403.511C186.76 403.511 186.76 403.512 186.76 403.512C186.76 403.512 186.76 403.513 186.76 403.514C186.76 403.517 186.76 403.52 186.76 403.525C186.76 403.534 186.759 403.548 186.759 403.566C186.758 403.601 186.756 403.655 186.755 403.725C186.751 403.864 186.746 404.07 186.74 404.334C186.727 404.862 186.709 405.624 186.688 406.56C186.647 408.433 186.594 411.004 186.549 413.797C186.46 419.366 186.402 425.868 186.531 429.452L189.529 429.344ZM290.062 407.549C289.754 407.108 289.318 406.836 288.981 406.666C288.618 406.482 288.201 406.333 287.767 406.207C286.899 405.955 285.797 405.75 284.56 405.578C282.076 405.233 278.853 404.995 275.429 404.828C268.572 404.494 260.755 404.439 256.111 404.406L256.09 407.406C260.744 407.439 268.498 407.494 275.283 407.825C278.681 407.99 281.798 408.223 284.147 408.549C285.327 408.714 286.265 408.895 286.932 409.088C287.266 409.185 287.49 409.273 287.626 409.342C287.789 409.425 287.71 409.421 287.601 409.265L290.062 407.549ZM256.111 404.406L255.586 404.402L255.565 407.402L256.089 407.406L256.111 404.406ZM255.565 407.402C255.735 407.403 255.91 407.405 256.09 407.406L256.111 404.406C255.931 404.405 255.756 404.403 255.586 404.402L255.565 407.402Z" fill="black"/>
</svg>
