<svg width="701" height="900" viewBox="0 0 701 900" fill="none" xmlns="http://www.w3.org/2000/svg">
<path fill-rule="evenodd" clip-rule="evenodd" d="M227.849 375.863C214.063 377.93 196.972 389.449 188.481 403.69C179.99 417.93 178.317 441.537 179.217 458.472C180.118 475.407 181.791 490.161 193.498 505.171C205.206 520.182 222.703 526.212 238.399 524.801C254.095 523.389 269.405 517.231 279.441 500.553C289.476 483.874 290.894 466.517 290.762 448.591C290.631 430.665 281.628 410.167 277.768 401.765C273.908 393.364 263.617 381.623 256.154 378.672C248.691 375.721 241.635 373.797 227.849 375.863ZM210.738 414.082C215.499 407.397 222.513 398.871 240.201 398.045C257.888 397.218 265.675 407.397 268.891 414.082C272.107 420.767 276.482 432.941 276.61 442.563C276.739 452.185 277.511 471.43 274.294 480.282C271.078 489.134 267.218 494.857 257.698 500.553C248.177 506.248 238.271 505.685 229.522 503.632C220.774 501.579 213.697 494.071 209.838 487.015C205.978 479.959 201.861 463.86 202.247 450.518C202.633 437.175 205.978 420.767 210.738 414.082Z" fill="white"/>
<path d="M238.013 465.656C230.423 465.656 226.306 474.252 226.949 481.18C227.592 488.108 233.639 490.931 238.399 490.546C243.16 490.161 247.791 486.443 248.692 480.282C249.593 474.122 245.604 465.656 238.013 465.656Z" fill="white"/>
<path fill-rule="evenodd" clip-rule="evenodd" d="M240.201 398.045C222.513 398.871 215.499 407.397 210.738 414.082C205.978 420.767 202.633 437.175 202.247 450.518C201.861 463.86 205.978 479.959 209.838 487.015C213.697 494.071 220.774 501.579 229.522 503.632C238.271 505.685 248.177 506.248 257.698 500.553C267.218 494.857 271.078 489.134 274.294 480.282C277.511 471.43 276.739 452.185 276.61 442.563C276.482 432.941 272.107 420.767 268.891 414.082C265.675 407.397 257.888 397.218 240.201 398.045ZM222.719 421.306C225.894 414.965 232.481 411.131 238.013 409.078C243.546 407.025 251.651 407.41 256.154 410.746C260.657 414.082 264.388 422.16 262.329 429.99C260.271 437.821 253.038 443.076 247.337 446.797C241.635 450.518 238.013 451.672 231.468 450.518C224.923 449.363 221.417 443.333 220.13 438.843C218.844 434.352 219.545 427.648 222.719 421.306ZM226.949 481.18C226.306 474.252 230.423 465.656 238.013 465.656C245.604 465.656 249.593 474.122 248.692 480.282C247.791 486.443 243.16 490.161 238.399 490.546C233.639 490.931 227.592 488.108 226.949 481.18Z" fill="black"/>
<path d="M521.982 433.41C522.427 431.624 493.045 429.984 475.414 434.323C457.783 438.662 450.529 446.248 441.1 453.985C431.671 461.723 415.658 480.375 423.316 477.595C430.974 474.816 449.238 464.37 460.994 460.763C472.749 457.156 485.208 455.229 493.045 454.651C500.882 454.073 521.336 456.655 521.982 454.073C522.628 451.491 505.772 446.408 505.806 444.131C505.839 441.854 521.537 435.197 521.982 433.41Z" fill="black"/>
<path d="M238.013 409.078C232.481 411.131 225.894 414.965 222.719 421.306C219.545 427.648 218.844 434.352 220.13 438.843C221.417 443.333 224.923 449.363 231.468 450.518C238.013 451.672 241.635 450.518 247.337 446.797C253.038 443.076 260.271 437.821 262.329 429.99C264.388 422.16 260.657 414.082 256.154 410.746C251.651 407.41 243.546 407.025 238.013 409.078Z" fill="white"/>
<path d="M227.627 374.38C220.448 375.456 212.514 378.969 205.322 383.981C198.122 388.998 191.566 395.587 187.193 402.921L189.769 404.458C193.887 397.552 200.122 391.261 207.037 386.442C213.96 381.618 221.465 378.337 228.072 377.347L227.627 374.38ZM187.193 402.921C182.8 410.288 180.221 419.975 178.842 429.863C177.459 439.774 177.265 450.007 177.72 458.551L180.715 458.392C180.269 450.002 180.461 439.964 181.813 430.278C183.167 420.568 185.67 411.332 189.769 404.458L187.193 402.921ZM177.72 458.551C178.623 475.54 180.308 490.698 192.316 506.094L194.681 504.249C183.274 489.623 181.613 475.273 180.715 458.392L177.72 458.551ZM192.316 506.094C204.363 521.54 222.374 527.747 238.534 526.295L238.265 523.307C223.032 524.676 206.049 518.824 194.681 504.249L192.316 506.094ZM238.534 526.295C254.553 524.854 270.374 518.531 280.726 501.326L278.155 499.779C268.437 515.932 253.638 521.924 238.265 523.307L238.534 526.295ZM280.726 501.326C290.981 484.282 292.394 466.578 292.262 448.58L289.262 448.602C289.393 466.456 287.971 483.466 278.155 499.779L280.726 501.326ZM292.262 448.58C292.128 430.289 282.978 409.513 279.131 401.139L276.405 402.391C280.277 410.82 289.134 431.042 289.262 448.602L292.262 448.58ZM279.131 401.139C277.118 396.757 273.478 391.594 269.418 387.161C265.385 382.758 260.759 378.88 256.705 377.277L255.602 380.067C259.012 381.415 263.263 384.883 267.206 389.188C271.123 393.464 274.558 398.371 276.405 402.391L279.131 401.139ZM256.705 377.277C252.923 375.781 249.164 374.514 244.572 373.899C239.982 373.285 234.626 373.331 227.627 374.38L228.072 377.347C234.858 376.329 239.923 376.304 244.174 376.873C248.421 377.441 251.922 378.612 255.602 380.067L256.705 377.277ZM523.437 433.773C523.59 433.162 523.371 432.643 523.121 432.322C522.902 432.04 522.635 431.868 522.458 431.769C522.093 431.565 521.642 431.42 521.21 431.307C520.312 431.073 519.048 430.87 517.542 430.699C514.508 430.354 510.272 430.115 505.491 430.07C495.95 429.978 484.051 430.653 475.056 432.866L475.773 435.779C484.409 433.654 496.016 432.979 505.462 433.07C510.175 433.115 514.302 433.35 517.203 433.68C518.665 433.846 519.762 434.03 520.453 434.21C520.622 434.254 520.753 434.294 520.85 434.329C520.899 434.346 520.935 434.361 520.96 434.372C520.986 434.383 520.996 434.389 520.994 434.388C520.993 434.387 520.968 434.373 520.931 434.344C520.895 434.316 520.827 434.258 520.754 434.165C520.59 433.955 520.402 433.547 520.526 433.048L523.437 433.773ZM475.056 432.866C457.036 437.301 449.52 445.135 440.149 452.826L442.052 455.145C451.538 447.36 458.531 440.022 475.773 435.779L475.056 432.866ZM440.149 452.826C435.339 456.773 428.907 463.448 424.629 468.798C422.524 471.43 420.804 473.906 420.139 475.626C419.969 476.067 419.825 476.561 419.807 477.055C419.788 477.554 419.896 478.254 420.469 478.791C421.025 479.312 421.719 479.395 422.221 479.372C422.735 479.347 423.282 479.203 423.828 479.005L422.804 476.185C422.393 476.335 422.167 476.371 422.08 476.375C421.979 476.38 422.241 476.34 422.52 476.602C422.658 476.731 422.736 476.877 422.773 476.995C422.791 477.051 422.799 477.095 422.802 477.123C422.805 477.151 422.804 477.167 422.804 477.168C422.804 477.169 422.805 477.159 422.808 477.137C422.812 477.115 422.818 477.083 422.828 477.042C422.849 476.958 422.883 476.848 422.937 476.708C423.415 475.471 424.852 473.322 426.972 470.671C431.143 465.455 437.432 458.936 442.052 455.145L440.149 452.826ZM423.828 479.005C427.755 477.58 434.356 474.212 441.276 470.838C448.284 467.421 455.686 463.961 461.434 462.197L460.554 459.329C454.546 461.172 446.939 464.739 439.961 468.141C432.895 471.586 426.535 474.831 422.804 476.185L423.828 479.005ZM461.434 462.197C473.069 458.627 485.416 456.718 493.156 456.147L492.935 453.155C485.001 453.741 472.43 455.685 460.554 459.329L461.434 462.197ZM493.156 456.147C496.96 455.866 503.865 456.357 510.149 456.612C513.236 456.738 516.166 456.804 518.382 456.669C519.478 456.602 520.487 456.481 521.278 456.26C521.671 456.151 522.092 455.994 522.461 455.752C522.83 455.509 523.273 455.092 523.437 454.437L520.527 453.709C520.567 453.549 520.639 453.429 520.703 453.351C520.762 453.278 520.81 453.247 520.813 453.245C520.816 453.243 520.793 453.258 520.731 453.284C520.67 453.309 520.585 453.339 520.471 453.371C519.989 453.505 519.233 453.611 518.199 453.674C516.152 453.799 513.359 453.74 510.271 453.615C504.208 453.369 496.967 452.858 492.935 453.155L493.156 456.147ZM523.437 454.437C523.731 453.26 522.959 452.355 522.52 451.926C521.989 451.406 521.258 450.913 520.482 450.457C518.914 449.535 516.794 448.555 514.745 447.622C512.653 446.671 510.628 445.767 509.117 444.959C508.357 444.553 507.799 444.208 507.45 443.931C507.274 443.791 507.205 443.711 507.191 443.693C507.169 443.663 507.31 443.831 507.305 444.153L504.306 444.109C504.297 444.716 504.566 445.191 504.786 445.486C505.016 445.794 505.305 446.059 505.586 446.281C506.149 446.728 506.897 447.174 507.703 447.605C509.322 448.471 511.465 449.426 513.502 450.353C515.582 451.299 517.553 452.215 518.962 453.044C519.675 453.463 520.155 453.809 520.422 454.07C520.781 454.422 520.394 454.24 520.527 453.709L523.437 454.437ZM507.305 444.153C507.301 444.423 507.193 444.551 507.233 444.49C507.262 444.448 507.343 444.347 507.514 444.187C507.855 443.87 508.39 443.471 509.107 443.001C510.532 442.067 512.459 440.993 514.457 439.903C516.428 438.829 518.471 437.738 520.037 436.809C520.818 436.345 521.526 435.895 522.066 435.486C522.335 435.283 522.598 435.062 522.817 434.831C523.002 434.635 523.313 434.272 523.437 433.773L520.526 433.048C520.595 432.772 520.732 432.67 520.637 432.769C520.578 432.833 520.458 432.941 520.255 433.095C519.851 433.4 519.259 433.782 518.506 434.229C517.002 435.121 515.035 436.171 513.021 437.269C511.035 438.352 509.004 439.481 507.462 440.492C506.696 440.994 505.996 441.502 505.47 441.992C505.207 442.236 504.947 442.514 504.742 442.819C504.549 443.108 504.314 443.554 504.306 444.109L507.305 444.153ZM240.131 396.546C231.04 396.971 224.593 399.384 219.784 402.622C214.993 405.848 211.923 409.832 209.517 413.212L211.96 414.952C214.314 411.646 217.131 408.025 221.46 405.111C225.77 402.208 231.674 399.945 240.271 399.543L240.131 396.546ZM209.517 413.212C206.954 416.809 204.877 422.83 203.389 429.475C201.888 436.173 200.943 443.706 200.748 450.474L203.746 450.561C203.937 443.986 204.857 436.644 206.316 430.131C207.787 423.565 209.762 418.039 211.96 414.952L209.517 413.212ZM200.748 450.474C200.55 457.301 201.503 464.789 202.986 471.45C204.465 478.093 206.497 484.033 208.522 487.735L211.154 486.295C209.319 482.941 207.363 477.304 205.914 470.798C204.47 464.31 203.558 457.077 203.746 450.561L200.748 450.474ZM208.522 487.735C212.49 494.99 219.855 502.904 229.18 505.092L229.865 502.172C221.692 500.254 214.905 493.152 211.154 486.295L208.522 487.735ZM229.18 505.092C238.102 507.186 248.467 507.823 258.468 501.84L256.928 499.265C247.887 504.674 238.44 504.183 229.865 502.172L229.18 505.092ZM258.468 501.84C263.346 498.922 266.844 495.954 269.539 492.529C272.231 489.108 274.066 485.303 275.704 480.794L272.885 479.77C271.306 484.114 269.604 487.596 267.181 490.674C264.763 493.747 261.57 496.488 256.928 499.265L258.468 501.84ZM275.704 480.794C277.406 476.112 278.014 468.86 278.206 461.752C278.4 454.591 278.174 447.318 278.11 442.543L275.11 442.583C275.175 447.43 275.399 454.591 275.207 461.671C275.014 468.803 274.4 475.6 272.885 479.77L275.704 480.794ZM278.11 442.543C277.977 432.599 273.495 420.191 270.243 413.431L267.539 414.732C270.719 421.342 274.986 433.283 275.11 442.583L278.11 442.543ZM270.243 413.431C268.563 409.94 265.671 405.495 260.848 402.028C256.001 398.545 249.296 396.118 240.131 396.546L240.271 399.543C248.793 399.145 254.825 401.394 259.097 404.464C263.393 407.552 266.003 411.538 267.539 414.732L270.243 413.431ZM237.492 407.672C231.824 409.775 224.806 413.789 221.378 420.635L224.061 421.978C226.983 416.141 233.138 412.487 238.535 410.484L237.492 407.672ZM221.378 420.635C218.078 427.227 217.275 434.321 218.688 439.256L221.572 438.429C220.413 434.383 221.011 428.069 224.061 421.978L221.378 420.635ZM218.688 439.256C220.032 443.946 223.81 450.69 231.208 451.995L231.729 449.04C226.036 448.036 222.802 442.72 221.572 438.429L218.688 439.256ZM231.208 451.995C234.618 452.596 237.383 452.616 240.083 451.941C242.76 451.271 245.256 449.946 248.157 448.053L246.517 445.541C243.716 447.369 241.55 448.481 239.355 449.03C237.182 449.574 234.864 449.593 231.729 449.04L231.208 451.995ZM248.157 448.053C253.814 444.362 261.557 438.829 263.78 430.372L260.879 429.609C258.985 436.813 252.263 441.791 246.517 445.541L248.157 448.053ZM263.78 430.372C266.001 421.925 262.024 413.227 257.047 409.541L255.261 411.951C259.29 414.936 262.775 422.394 260.879 429.609L263.78 430.372ZM257.047 409.541C254.495 407.65 251.039 406.666 247.587 406.396C244.12 406.125 240.489 406.56 237.492 407.672L238.535 410.484C241.07 409.544 244.258 409.145 247.353 409.387C250.461 409.63 253.31 410.506 255.261 411.951L257.047 409.541ZM238.013 464.156C233.573 464.156 230.219 466.692 228.124 470.021C226.044 473.326 225.104 477.539 225.455 481.319L228.443 481.041C228.15 477.893 228.948 474.344 230.663 471.619C232.363 468.918 234.863 467.156 238.013 467.156L238.013 464.156ZM225.455 481.319C226.197 489.306 233.205 492.471 238.52 492.041L238.278 489.051C234.072 489.391 228.988 486.91 228.443 481.041L225.455 481.319ZM238.52 492.041C243.976 491.6 249.174 487.352 250.176 480.499L247.208 480.065C246.408 485.533 242.343 488.722 238.278 489.051L238.52 492.041ZM250.176 480.499C250.68 477.049 249.822 473.032 247.803 469.855C245.765 466.646 242.441 464.156 238.013 464.156L238.013 467.156C241.176 467.156 243.642 468.899 245.271 471.463C246.919 474.058 247.604 477.354 247.208 480.065L250.176 480.499Z" fill="black"/>
</svg>
