<svg width="700" height="900" viewBox="0 0 700 900" fill="none" xmlns="http://www.w3.org/2000/svg">
<path d="M181.905 542.053C181.905 542.053 217.177 507.137 227.421 497.68C237.665 488.223 263.438 465.189 263.438 465.189L208.528 414.472C208.528 414.472 175.354 391.274 166.474 387.533C157.594 383.791 126.226 366.032 121.15 371.013C116.073 375.995 121.919 407.663 124.912 422.882C126.453 430.716 146.032 476.016 154.235 492.395C162.438 508.774 181.905 542.053 181.905 542.053Z" fill="#AB829A"/>
<path d="M253.316 391.64C253.316 391.64 216.89 368.446 201.195 360.105C185.501 351.764 132.212 330.912 114.036 329.595C95.859 328.278 83.6683 331.57 80.8214 349.569C77.9745 367.568 76.0773 394.567 77.4641 409.858C78.8509 425.15 86.5886 465.392 89.7275 475.416C92.8664 485.44 110.849 545.708 110.849 545.708C110.849 545.708 127.76 596.644 131.898 589.27C134.296 584.997 181.905 542.053 181.905 542.053C181.905 542.053 162.438 508.774 154.235 492.395C146.032 476.016 126.453 430.716 124.912 422.882C121.919 407.663 116.073 375.995 121.15 371.013C126.226 366.032 157.594 383.791 166.474 387.533C175.354 391.274 208.528 414.472 208.528 414.472L263.438 465.189C263.438 465.189 289.963 438.507 295.327 431.238C300.691 423.969 253.316 391.64 253.316 391.64Z" fill="#1B171E"/>
<path d="M529.156 378.812C519.701 385.531 494.573 405.337 491.813 407.365C489.053 409.392 466.519 428.304 455.301 439.03C444.082 449.755 421.127 474.839 421.127 474.839C421.127 474.839 461.414 504.435 468.558 509.975C475.702 515.514 516.677 542.128 516.677 542.128C516.677 542.128 533.496 521.492 539.996 511.596C546.496 501.7 562.431 465.189 562.431 465.189C562.431 465.189 573.083 434.357 575.596 414.803C578.11 395.248 583.376 361.297 576.554 356.019C569.732 350.74 538.612 372.094 529.156 378.812Z" fill="#AB829A"/>
<path d="M600.133 532.491C605.333 516.801 614.496 478.385 617.967 454.992C621.438 431.598 624.55 377.613 622.156 360.698C619.762 343.782 612.94 314.27 606.237 310.551C599.535 306.832 557.882 323.148 557.882 323.148C557.882 323.148 515.871 339.823 498.755 351.22C481.639 362.617 456.056 379.774 445.927 388.297C435.798 396.819 382.293 446.122 388.161 452.696C394.03 459.27 421.127 474.839 421.127 474.839C421.127 474.839 444.082 449.755 455.301 439.03C466.519 428.304 489.053 409.392 491.813 407.365C494.573 405.337 519.701 385.531 529.156 378.812C538.612 372.094 569.732 350.74 576.554 356.019C583.376 361.297 578.11 395.248 575.596 414.803C573.083 434.357 562.431 465.189 562.431 465.189C562.431 465.189 546.496 501.7 539.996 511.596C533.496 521.492 516.677 542.128 516.677 542.128C516.677 542.128 569.812 583.662 573.183 585.209C576.554 586.757 594.933 548.181 600.133 532.491Z" fill="#1B171E"/>
<path d="M110.849 545.708L109.411 546.136L109.418 546.158L109.425 546.18L110.849 545.708ZM253.316 391.64L254.161 390.401L254.142 390.387L254.122 390.375L253.316 391.64ZM557.882 323.148L557.335 321.751L557.329 321.753L557.882 323.148ZM181.905 542.053L182.909 543.167L182.935 543.144L182.96 543.119L181.905 542.053ZM124.912 422.882L126.384 422.593L124.912 422.882ZM208.528 414.472L209.546 413.37L209.471 413.301L209.388 413.243L208.528 414.472ZM562.431 465.189L563.805 465.789L563.829 465.735L563.848 465.679L562.431 465.189ZM131.898 589.27L130.59 588.536L131.898 589.27ZM263.438 465.189L264.438 466.307L264.471 466.278L264.502 466.246L263.438 465.189ZM601.557 532.962C606.787 517.181 615.969 478.681 619.451 455.212L616.483 454.771C613.024 478.089 603.879 516.42 598.709 532.019L601.557 532.962ZM619.451 455.212C621.197 443.445 622.846 424.045 623.759 405.489C624.671 386.977 624.862 369.109 623.641 360.487L620.671 360.908C621.845 369.201 621.677 386.784 620.763 405.342C619.851 423.855 618.209 443.144 616.483 454.771L619.451 455.212ZM623.641 360.487C622.436 351.971 620.119 340.296 617.255 330.264C615.824 325.252 614.244 320.605 612.581 316.955C611.749 315.13 610.881 313.519 609.979 312.223C609.091 310.948 608.094 309.866 606.965 309.24L605.51 311.863C606.057 312.166 606.739 312.82 607.517 313.937C608.28 315.033 609.063 316.469 609.851 318.199C611.426 321.656 612.959 326.143 614.37 331.088C617.192 340.97 619.483 352.509 620.671 360.908L623.641 360.487ZM606.965 309.24C605.729 308.554 603.969 308.435 602.159 308.527C600.27 308.622 598.008 308.971 595.549 309.482C590.625 310.504 584.731 312.214 579.088 314.027C573.436 315.842 568 317.772 563.978 319.248C561.967 319.986 560.308 320.611 559.151 321.052C558.573 321.272 558.12 321.447 557.811 321.566C557.656 321.626 557.538 321.672 557.458 321.703C557.418 321.719 557.387 321.73 557.367 321.738C557.357 321.742 557.349 321.746 557.343 321.748C557.341 321.749 557.339 321.749 557.337 321.75C557.337 321.75 557.336 321.75 557.336 321.751C557.335 321.751 557.335 321.751 557.882 323.148C558.429 324.544 558.429 324.544 558.43 324.544C558.43 324.544 558.43 324.544 558.431 324.544C558.432 324.543 558.434 324.542 558.436 324.541C558.441 324.54 558.448 324.537 558.458 324.533C558.478 324.525 558.507 324.514 558.546 324.499C558.624 324.468 558.74 324.423 558.893 324.364C559.197 324.246 559.646 324.074 560.219 323.855C561.366 323.418 563.014 322.798 565.012 322.065C569.01 320.597 574.406 318.682 580.005 316.883C585.613 315.082 591.389 313.41 596.159 312.419C598.548 311.923 600.64 311.608 602.311 311.523C604.063 311.434 605.07 311.619 605.51 311.863L606.965 309.24ZM557.882 323.148C557.329 321.753 557.329 321.753 557.328 321.754C557.328 321.754 557.327 321.754 557.327 321.754C557.325 321.755 557.323 321.756 557.321 321.757C557.315 321.759 557.308 321.762 557.297 321.766C557.277 321.774 557.246 321.786 557.206 321.802C557.125 321.835 557.005 321.882 556.849 321.945C556.535 322.071 556.074 322.256 555.481 322.496C554.296 322.975 552.584 323.673 550.477 324.545C546.263 326.29 540.465 328.735 534.13 331.538C521.498 337.127 506.603 344.192 497.924 349.971L499.586 352.468C508.023 346.851 522.691 339.88 535.344 334.282C541.651 331.491 547.426 329.055 551.624 327.317C553.723 326.448 555.427 325.754 556.606 325.277C557.196 325.038 557.654 324.854 557.964 324.73C558.119 324.668 558.237 324.621 558.317 324.589C558.356 324.573 558.386 324.561 558.406 324.553C558.416 324.549 558.424 324.546 558.428 324.545C558.431 324.544 558.433 324.543 558.434 324.542C558.435 324.542 558.435 324.542 558.435 324.542C558.436 324.542 558.436 324.542 557.882 323.148ZM497.924 349.971C480.847 361.342 455.172 378.558 444.961 387.149L446.892 389.444C456.94 380.99 482.431 363.891 499.586 352.468L497.924 349.971ZM253.316 391.64C254.122 390.375 254.121 390.375 254.121 390.374C254.121 390.374 254.12 390.374 254.12 390.373C254.119 390.373 254.117 390.372 254.115 390.37C254.11 390.367 254.104 390.363 254.095 390.358C254.077 390.346 254.051 390.33 254.016 390.307C253.946 390.263 253.843 390.197 253.707 390.111C253.436 389.939 253.037 389.685 252.523 389.36C251.495 388.709 250.01 387.769 248.178 386.616C244.516 384.31 239.468 381.148 233.93 377.724C222.868 370.887 209.797 362.978 201.899 358.78L200.491 361.43C208.289 365.574 221.278 373.431 232.352 380.276C237.882 383.694 242.922 386.852 246.58 389.155C248.409 390.306 249.892 391.244 250.917 391.894C251.43 392.219 251.829 392.472 252.099 392.644C252.234 392.729 252.337 392.795 252.406 392.839C252.441 392.861 252.467 392.877 252.484 392.889C252.493 392.894 252.499 392.898 252.504 392.901C252.506 392.902 252.508 392.903 252.509 392.904C252.509 392.904 252.51 392.905 252.51 392.905C252.51 392.905 252.51 392.905 253.316 391.64ZM201.899 358.78C193.959 354.561 176.635 347.234 159.061 340.807C150.263 337.59 141.374 334.587 133.535 332.304C125.727 330.031 118.858 328.44 114.144 328.098L113.927 331.091C118.302 331.408 124.91 332.917 132.696 335.185C140.451 337.443 149.273 340.422 158.031 343.625C175.569 350.038 192.737 357.309 200.491 361.43L201.899 358.78ZM114.144 328.098C105.006 327.436 97.0589 327.896 90.9958 331.003C84.7954 334.181 80.819 339.983 79.3398 349.335L82.303 349.803C83.6708 341.156 87.2131 336.313 92.364 333.673C97.6521 330.963 104.889 330.436 113.927 331.091L114.144 328.098ZM79.3398 349.335C76.483 367.397 74.5679 394.531 75.9702 409.994L78.958 409.723C77.5868 394.603 79.466 367.739 82.303 349.803L79.3398 349.335ZM75.9702 409.994C76.6708 417.719 78.9645 431.665 81.4649 444.891C83.9622 458.101 86.696 470.754 88.296 475.864L91.159 474.967C89.6201 470.053 86.9156 457.574 84.4127 444.334C81.9128 431.11 79.6442 417.29 78.958 409.723L75.9702 409.994ZM88.296 475.864C89.8619 480.864 95.1385 498.425 100.028 514.751C102.472 522.911 104.818 530.757 106.553 536.563C107.42 539.467 108.135 541.86 108.633 543.527C108.882 544.361 109.076 545.013 109.209 545.457C109.275 545.679 109.326 545.849 109.36 545.963C109.377 546.02 109.39 546.064 109.398 546.093C109.403 546.107 109.406 546.118 109.408 546.125C109.409 546.129 109.41 546.132 109.411 546.134C109.411 546.135 109.411 546.135 109.411 546.136C109.411 546.136 109.411 546.136 110.849 545.708C112.286 545.279 112.286 545.278 112.286 545.278C112.286 545.278 112.286 545.277 112.285 545.276C112.285 545.274 112.284 545.271 112.283 545.268C112.281 545.26 112.277 545.249 112.273 545.235C112.264 545.206 112.252 545.163 112.234 545.105C112.2 544.991 112.15 544.821 112.083 544.599C111.951 544.155 111.756 543.503 111.507 542.669C111.009 541.002 110.295 538.608 109.427 535.705C107.692 529.898 105.346 522.051 102.902 513.89C98.016 497.576 92.732 479.991 91.159 474.967L88.296 475.864ZM181.905 542.053C182.96 543.119 182.96 543.119 182.96 543.119C182.961 543.119 182.961 543.118 182.962 543.118C182.963 543.117 182.964 543.115 182.966 543.113C182.971 543.109 182.977 543.102 182.986 543.094C183.003 543.077 183.028 543.052 183.061 543.019C183.128 542.953 183.228 542.854 183.358 542.725C183.619 542.467 184.003 542.088 184.495 541.601C185.479 540.628 186.897 539.228 188.63 537.518C192.096 534.097 196.824 529.438 201.872 524.484C211.977 514.567 223.337 503.492 228.438 498.783L226.403 496.578C221.261 501.326 209.863 512.438 199.771 522.343C194.72 527.299 189.99 531.961 186.523 535.382C184.789 537.093 183.371 538.494 182.386 539.468C181.893 539.955 181.509 540.334 181.248 540.592C181.118 540.722 181.018 540.82 180.951 540.887C180.918 540.92 180.892 540.945 180.875 540.962C180.867 540.97 180.86 540.977 180.856 540.981C180.854 540.983 180.852 540.985 180.851 540.986C180.851 540.986 180.85 540.987 180.85 540.987C180.85 540.987 180.85 540.987 181.905 542.053ZM126.384 422.593C124.888 414.986 122.689 403.315 121.495 392.937C120.898 387.743 120.559 382.925 120.675 379.125C120.732 377.223 120.903 375.627 121.192 374.389C121.49 373.111 121.871 372.407 122.2 372.084L120.099 369.943C119.16 370.864 118.613 372.24 118.27 373.707C117.919 375.214 117.737 377.028 117.676 379.034C117.554 383.048 117.911 388.033 118.515 393.28C119.723 403.787 121.943 415.559 123.44 423.172L126.384 422.593ZM122.2 372.084C122.403 371.885 122.943 371.625 124.173 371.639C125.353 371.653 126.891 371.918 128.734 372.415C132.41 373.406 136.997 375.236 141.773 377.371C146.537 379.5 151.425 381.903 155.694 384.017C159.934 386.116 163.617 387.957 165.891 388.915L167.056 386.15C164.891 385.238 161.323 383.456 157.025 381.328C152.757 379.215 147.821 376.788 142.998 374.632C138.187 372.482 133.426 370.573 129.515 369.518C127.565 368.993 125.75 368.658 124.208 368.639C122.717 368.622 121.165 368.896 120.099 369.943L122.2 372.084ZM165.891 388.915C167.987 389.798 171.629 391.887 176.001 394.595C180.34 397.284 185.303 400.524 189.999 403.654C194.693 406.782 199.111 409.795 202.356 412.025C203.978 413.141 205.307 414.06 206.23 414.701C206.691 415.021 207.051 415.271 207.296 415.442C207.418 415.527 207.511 415.592 207.574 415.636C207.605 415.658 207.629 415.674 207.645 415.685C207.653 415.691 207.659 415.695 207.663 415.698C207.665 415.699 207.666 415.7 207.667 415.701C207.667 415.701 207.668 415.701 207.668 415.701C207.668 415.702 207.668 415.702 208.528 414.472C209.388 413.243 209.387 413.243 209.387 413.243C209.387 413.243 209.386 413.242 209.386 413.242C209.385 413.241 209.383 413.24 209.381 413.239C209.377 413.236 209.371 413.232 209.363 413.226C209.347 413.215 209.323 413.198 209.291 413.176C209.228 413.132 209.134 413.066 209.011 412.98C208.765 412.809 208.404 412.557 207.94 412.236C207.014 411.593 205.682 410.671 204.056 409.553C200.803 407.317 196.372 404.296 191.663 401.157C186.955 398.02 181.96 394.759 177.581 392.045C173.235 389.352 169.401 387.138 167.056 386.15L165.891 388.915ZM492.701 408.574C494.101 407.545 501.109 402.059 508.892 396.034C516.708 389.983 525.328 383.373 530.025 380.035L528.288 377.59C523.53 380.97 514.857 387.622 507.056 393.661C499.221 399.726 492.285 405.157 490.925 406.156L492.701 408.574ZM530.025 380.035C534.742 376.684 544.834 369.703 554.578 364.224C559.458 361.48 564.188 359.149 568.081 357.829C570.031 357.168 571.702 356.785 573.037 356.704C574.397 356.622 575.197 356.865 575.636 357.205L577.472 354.832C576.205 353.852 574.541 353.608 572.856 353.71C571.147 353.813 569.193 354.284 567.118 354.988C562.962 356.397 558.042 358.835 553.108 361.609C543.222 367.168 533.026 374.223 528.288 377.59L530.025 380.035ZM575.636 357.205C576.158 357.608 576.696 358.4 577.156 359.744C577.608 361.066 577.937 362.777 578.144 364.831C578.557 368.937 578.467 374.189 578.08 379.957C577.306 391.489 575.371 404.794 574.109 414.611L577.084 414.994C578.336 405.257 580.291 391.809 581.073 380.157C581.464 374.334 581.568 368.886 581.129 364.53C580.909 362.353 580.549 360.393 579.994 358.772C579.446 357.172 578.656 355.748 577.472 354.832L575.636 357.205ZM574.109 414.611C572.868 424.264 569.606 436.765 566.632 446.907C565.148 451.966 563.742 456.417 562.708 459.603C562.19 461.195 561.766 462.471 561.471 463.348C561.324 463.786 561.209 464.125 561.131 464.354C561.092 464.468 561.062 464.555 561.042 464.613C561.032 464.642 561.025 464.664 561.02 464.678C561.018 464.685 561.016 464.691 561.014 464.694C561.014 464.696 561.013 464.697 561.013 464.698C561.013 464.698 561.013 464.699 561.013 464.699C561.013 464.699 561.013 464.699 562.431 465.189C563.848 465.679 563.848 465.678 563.848 465.678C563.849 465.678 563.849 465.677 563.849 465.677C563.849 465.676 563.85 465.674 563.85 465.672C563.852 465.668 563.854 465.663 563.856 465.655C563.862 465.64 563.87 465.617 563.88 465.587C563.9 465.527 563.931 465.438 563.97 465.322C564.05 465.089 564.166 464.747 564.315 464.304C564.613 463.418 565.04 462.133 565.561 460.529C566.602 457.323 568.017 452.844 569.51 447.751C572.491 437.588 575.811 424.896 577.084 414.994L574.109 414.611ZM110.849 545.708C109.425 546.18 109.425 546.18 109.425 546.181C109.426 546.181 109.426 546.182 109.426 546.183C109.427 546.185 109.427 546.187 109.428 546.19C109.431 546.197 109.434 546.206 109.438 546.218C109.446 546.243 109.458 546.28 109.475 546.329C109.507 546.426 109.555 546.569 109.618 546.756C109.743 547.129 109.928 547.675 110.164 548.366C110.636 549.749 111.315 551.716 112.142 554.052C113.795 558.722 116.046 564.88 118.43 570.813C120.805 576.726 123.34 582.488 125.565 586.327C126.653 588.202 127.771 589.808 128.868 590.687C129.409 591.12 130.189 591.574 131.115 591.49C132.14 591.397 132.811 590.707 133.206 590.004L130.59 588.536C130.467 588.755 130.521 588.532 130.843 588.502C131.067 588.482 131.06 588.598 130.742 588.344C130.123 587.848 129.241 586.685 128.161 584.822C126.051 581.184 123.583 575.594 121.213 569.695C118.852 563.816 116.616 557.7 114.97 553.05C114.147 550.727 113.472 548.771 113.003 547.397C112.769 546.71 112.586 546.169 112.461 545.8C112.399 545.615 112.352 545.473 112.32 545.378C112.304 545.331 112.292 545.295 112.284 545.271C112.28 545.259 112.277 545.25 112.275 545.244C112.274 545.241 112.273 545.238 112.273 545.237C112.273 545.236 112.273 545.236 112.272 545.235C112.272 545.235 112.272 545.235 110.849 545.708ZM296.534 432.129C297.74 430.494 297.237 428.462 296.406 426.784C295.531 425.017 294.009 423.035 292.135 420.975C288.367 416.833 282.874 412.052 277.273 407.545C271.659 403.027 265.882 398.742 261.512 395.589C259.326 394.011 257.491 392.716 256.2 391.814C255.555 391.363 255.047 391.01 254.699 390.77C254.525 390.65 254.391 390.558 254.3 390.496C254.255 390.465 254.221 390.441 254.197 390.425C254.186 390.417 254.177 390.411 254.171 390.407C254.168 390.405 254.166 390.404 254.164 390.403C254.163 390.402 254.163 390.402 254.162 390.401C254.162 390.401 254.161 390.401 253.316 391.64C252.47 392.879 252.47 392.879 252.471 392.879C252.471 392.879 252.472 392.88 252.472 392.88C252.473 392.881 252.476 392.882 252.478 392.884C252.484 392.888 252.492 392.894 252.503 392.901C252.525 392.916 252.559 392.939 252.603 392.97C252.691 393.03 252.823 393.121 252.995 393.239C253.338 393.476 253.842 393.825 254.482 394.273C255.761 395.167 257.585 396.454 259.757 398.021C264.102 401.157 269.834 405.409 275.392 409.882C280.964 414.366 286.31 419.029 289.916 422.994C291.729 424.986 293.028 426.723 293.717 428.115C294.451 429.596 294.254 430.165 294.12 430.347L296.534 432.129ZM516.677 542.128C515.754 543.31 515.754 543.31 515.754 543.311C515.755 543.311 515.755 543.311 515.756 543.312C515.758 543.313 515.76 543.315 515.763 543.318C515.77 543.323 515.78 543.33 515.792 543.34C515.818 543.36 515.856 543.39 515.906 543.43C516.007 543.508 516.157 543.625 516.352 543.777C516.742 544.082 517.315 544.529 518.045 545.099C519.504 546.238 521.594 547.866 524.111 549.826C529.146 553.745 535.895 558.986 542.75 564.276C549.604 569.565 556.567 574.906 562.029 579.023C564.76 581.081 567.121 582.837 568.909 584.129C569.801 584.775 570.559 585.311 571.152 585.712C571.704 586.086 572.213 586.414 572.557 586.572L573.809 583.846C573.81 583.846 573.786 583.835 573.729 583.803C573.675 583.772 573.605 583.73 573.517 583.676C573.34 583.566 573.113 583.417 572.835 583.229C572.279 582.852 571.549 582.336 570.666 581.698C568.903 580.423 566.56 578.681 563.835 576.627C558.386 572.521 551.434 567.188 544.583 561.901C537.732 556.614 530.987 551.376 525.954 547.458C523.437 545.5 521.349 543.872 519.89 542.733C519.16 542.164 518.588 541.717 518.198 541.413C518.003 541.261 517.854 541.144 517.754 541.066C517.703 541.026 517.665 540.997 517.64 540.977C517.627 540.967 517.617 540.959 517.611 540.954C517.608 540.952 517.605 540.95 517.604 540.948C517.603 540.948 517.602 540.947 517.602 540.947C517.601 540.947 517.601 540.947 516.677 542.128ZM572.557 586.572C573.481 586.997 574.34 586.592 574.781 586.315C575.279 586.003 575.763 585.538 576.216 585.03C577.137 583.996 578.205 582.469 579.357 580.626C581.673 576.921 584.474 571.704 587.316 565.981C592.995 554.542 598.925 540.904 601.557 532.962L598.709 532.019C596.141 539.767 590.281 553.263 584.629 564.647C581.804 570.336 579.053 575.453 576.813 579.036C575.687 580.838 574.725 582.193 573.976 583.034C573.594 583.463 573.331 583.683 573.187 583.774C572.986 583.9 573.306 583.615 573.809 583.846L572.557 586.572ZM444.961 387.149C439.855 391.445 423.911 405.935 409.973 420.178C403.007 427.296 396.502 434.393 392.096 440.147C389.901 443.013 388.173 445.616 387.181 447.762C386.688 448.83 386.335 449.874 386.239 450.835C386.143 451.805 386.298 452.862 387.042 453.695L389.28 451.697C389.276 451.692 389.257 451.672 389.238 451.598C389.218 451.516 389.201 451.368 389.224 451.132C389.273 450.643 389.477 449.946 389.905 449.02C390.756 447.178 392.324 444.784 394.478 441.971C398.771 436.365 405.174 429.371 412.117 422.276C425.996 408.094 441.869 393.671 446.892 389.444L444.961 387.149ZM133.206 590.004C133.27 589.89 133.498 589.578 133.983 589.023C134.441 588.501 135.056 587.84 135.813 587.057C137.326 585.493 139.368 583.479 141.764 581.17C146.553 576.554 152.72 570.794 158.818 565.161C164.915 559.53 170.938 554.031 175.438 549.94C177.687 547.894 179.555 546.201 180.861 545.019C181.514 544.428 182.026 543.965 182.375 543.65C182.55 543.492 182.683 543.371 182.773 543.29C182.818 543.249 182.852 543.219 182.875 543.198C182.887 543.188 182.895 543.18 182.901 543.175C182.904 543.172 182.906 543.17 182.907 543.169C182.908 543.168 182.909 543.168 182.909 543.168C182.909 543.167 182.909 543.167 181.905 542.053C180.9 540.939 180.9 540.94 180.9 540.94C180.899 540.94 180.899 540.941 180.898 540.941C180.896 540.943 180.894 540.945 180.891 540.947C180.886 540.953 180.877 540.96 180.865 540.971C180.842 540.992 180.808 541.022 180.763 541.063C180.673 541.145 180.539 541.266 180.364 541.424C180.014 541.739 179.501 542.203 178.848 542.795C177.541 543.978 175.671 545.673 173.419 547.72C168.917 551.815 162.888 557.319 156.783 562.957C150.679 568.595 144.494 574.372 139.682 579.01C137.277 581.328 135.206 583.37 133.657 584.972C132.883 585.772 132.229 586.472 131.725 587.048C131.25 587.592 130.825 588.117 130.59 588.536L133.206 590.004ZM228.438 498.783C233.552 494.062 242.549 485.946 250.274 479.004C254.135 475.534 257.676 472.36 260.252 470.053C261.54 468.9 262.586 467.963 263.311 467.315C263.673 466.991 263.955 466.739 264.146 466.568C264.242 466.483 264.315 466.417 264.364 466.374C264.388 466.352 264.407 466.335 264.419 466.324C264.425 466.318 264.43 466.314 264.433 466.311C264.435 466.31 264.436 466.309 264.437 466.308C264.437 466.308 264.437 466.308 264.437 466.308C264.438 466.307 264.438 466.307 263.438 465.189C262.439 464.07 262.438 464.071 262.438 464.071C262.438 464.071 262.438 464.071 262.437 464.071C262.437 464.072 262.435 464.073 262.434 464.075C262.431 464.077 262.426 464.082 262.42 464.087C262.407 464.098 262.389 464.115 262.364 464.137C262.315 464.181 262.242 464.246 262.146 464.332C261.955 464.503 261.673 464.755 261.311 465.079C260.586 465.728 259.539 466.665 258.25 467.818C255.674 470.126 252.131 473.301 248.268 476.773C240.546 483.712 231.534 491.842 226.403 496.578L228.438 498.783ZM264.456 464.087L209.546 413.37L207.51 415.574L262.42 466.291L264.456 464.087ZM294.12 430.347C291.511 433.883 283.625 442.286 276.291 449.898C272.644 453.683 269.165 457.242 266.597 459.855C265.313 461.161 264.257 462.23 263.522 462.973C263.155 463.345 262.867 463.634 262.672 463.831C262.575 463.93 262.5 464.005 262.45 464.055C262.425 464.08 262.406 464.099 262.393 464.112C262.387 464.119 262.382 464.123 262.379 464.127C262.377 464.128 262.376 464.129 262.376 464.13C262.375 464.131 262.375 464.131 262.375 464.131C262.374 464.131 262.374 464.131 263.438 465.189C264.502 466.246 264.502 466.246 264.502 466.246C264.503 466.246 264.503 466.245 264.503 466.245C264.504 466.244 264.505 466.243 264.507 466.241C264.51 466.238 264.515 466.233 264.522 466.227C264.534 466.214 264.554 466.194 264.579 466.169C264.629 466.118 264.704 466.043 264.802 465.944C264.998 465.746 265.286 465.455 265.655 465.083C266.392 464.338 267.45 463.266 268.736 461.958C271.309 459.34 274.796 455.774 278.451 451.98C285.72 444.435 293.779 435.862 296.534 432.129L294.12 430.347ZM181.905 542.053C183.2 541.296 183.199 541.296 183.199 541.296C183.199 541.295 183.199 541.295 183.199 541.294C183.198 541.294 183.197 541.292 183.196 541.29C183.194 541.286 183.19 541.28 183.186 541.272C183.176 541.256 183.162 541.232 183.144 541.201C183.107 541.137 183.052 541.043 182.98 540.92C182.835 540.672 182.623 540.307 182.349 539.837C181.801 538.896 181.009 537.533 180.033 535.846C178.082 532.473 175.394 527.805 172.45 522.625C166.557 512.256 159.658 499.873 155.577 491.723L152.894 493.067C157.016 501.296 163.951 513.742 169.842 524.107C172.79 529.295 175.482 533.97 177.437 537.349C178.414 539.038 179.207 540.403 179.756 541.346C180.03 541.817 180.244 542.183 180.389 542.432C180.461 542.556 180.516 542.65 180.554 542.714C180.572 542.746 180.586 542.77 180.596 542.786C180.6 542.794 180.604 542.8 180.606 542.804C180.608 542.806 180.608 542.808 180.609 542.809C180.609 542.81 180.61 542.81 180.61 542.81C180.61 542.811 180.61 542.811 181.905 542.053ZM155.577 491.723C151.496 483.575 144.565 468.189 138.455 453.846C135.402 446.678 132.561 439.785 130.388 434.201C128.193 428.558 126.738 424.393 126.384 422.593L123.44 423.172C123.857 425.288 125.427 429.723 127.592 435.289C129.781 440.913 132.635 447.838 135.695 455.022C141.812 469.382 148.772 484.835 152.894 493.067L155.577 491.723ZM467.639 511.16C471.269 513.974 483.363 522.054 494.471 529.381C500.042 533.055 505.389 536.557 509.343 539.139C511.32 540.43 512.95 541.492 514.084 542.231C514.652 542.6 515.096 542.889 515.398 543.086C515.549 543.184 515.665 543.259 515.742 543.31C515.781 543.335 515.811 543.354 515.831 543.367C515.84 543.373 515.848 543.378 515.853 543.381C515.855 543.383 515.857 543.384 515.859 543.385C515.859 543.385 515.86 543.386 515.86 543.386C515.86 543.386 515.86 543.386 516.677 542.128C517.495 540.87 517.494 540.87 517.494 540.87C517.494 540.87 517.493 540.87 517.493 540.869C517.491 540.868 517.49 540.867 517.487 540.866C517.482 540.862 517.475 540.858 517.465 540.851C517.445 540.838 517.416 540.819 517.377 540.794C517.299 540.744 517.184 540.669 517.033 540.571C516.732 540.374 516.288 540.086 515.721 539.717C514.587 538.979 512.959 537.918 510.984 536.627C507.032 534.046 501.689 530.548 496.123 526.877C484.956 519.511 472.991 511.514 469.477 508.789L467.639 511.16ZM421.127 474.839C420.239 476.048 420.239 476.048 420.239 476.048C420.24 476.049 420.24 476.049 420.241 476.049C420.242 476.05 420.244 476.052 420.246 476.053C420.251 476.057 420.258 476.062 420.268 476.07C420.287 476.084 420.316 476.105 420.355 476.133C420.431 476.189 420.545 476.273 420.693 476.382C420.99 476.6 421.426 476.92 421.984 477.33C423.099 478.15 424.7 479.328 426.644 480.758C430.533 483.619 435.791 487.492 441.273 491.537C452.247 499.635 464.085 508.404 467.639 511.16L469.477 508.789C465.887 506.006 454.01 497.208 443.054 489.123C437.571 485.077 432.311 481.203 428.422 478.342C426.478 476.911 424.876 475.733 423.76 474.913C423.203 474.503 422.766 474.182 422.469 473.964C422.321 473.855 422.207 473.772 422.131 473.716C422.093 473.687 422.064 473.666 422.044 473.652C422.035 473.645 422.027 473.639 422.022 473.636C422.02 473.634 422.018 473.633 422.017 473.632C422.016 473.631 422.016 473.631 422.016 473.631C422.015 473.631 422.015 473.63 421.127 474.839ZM387.042 453.695C388.636 455.48 391.56 457.772 394.921 460.153C398.319 462.56 402.282 465.139 406.047 467.503C409.815 469.869 413.397 472.027 416.036 473.594C417.356 474.377 418.44 475.013 419.196 475.453C419.574 475.673 419.869 475.845 420.07 475.961C420.171 476.019 420.248 476.064 420.3 476.094C420.326 476.109 420.346 476.12 420.359 476.128C420.366 476.132 420.371 476.135 420.374 476.137C420.376 476.138 420.377 476.138 420.378 476.139C420.379 476.139 420.379 476.139 420.379 476.14C420.38 476.14 420.38 476.14 421.127 474.839C421.874 473.539 421.874 473.539 421.874 473.539C421.874 473.538 421.874 473.538 421.873 473.538C421.873 473.538 421.871 473.537 421.87 473.536C421.867 473.534 421.862 473.532 421.856 473.528C421.843 473.521 421.824 473.509 421.798 473.495C421.747 473.466 421.672 473.422 421.572 473.364C421.374 473.25 421.081 473.08 420.707 472.861C419.957 472.425 418.879 471.793 417.567 471.014C414.942 469.456 411.383 467.311 407.642 464.962C403.9 462.612 399.988 460.067 396.655 457.705C393.285 455.318 390.621 453.199 389.28 451.697L387.042 453.695ZM421.127 474.839C422.234 475.852 422.234 475.852 422.234 475.852C422.234 475.851 422.234 475.851 422.235 475.851C422.235 475.85 422.236 475.849 422.238 475.847C422.24 475.844 422.245 475.84 422.25 475.834C422.261 475.822 422.277 475.804 422.299 475.78C422.343 475.733 422.408 475.662 422.493 475.569C422.664 475.383 422.915 475.108 423.24 474.755C423.889 474.049 424.828 473.029 425.991 471.77C428.316 469.253 431.534 465.785 435.101 461.983C442.244 454.369 450.762 445.445 456.337 440.114L454.264 437.945C448.621 443.34 440.052 452.321 432.913 459.93C429.339 463.74 426.116 467.213 423.787 469.734C422.623 470.995 421.681 472.018 421.031 472.725C420.706 473.079 420.453 473.354 420.282 473.541C420.196 473.635 420.131 473.706 420.087 473.754C420.065 473.778 420.048 473.796 420.037 473.808C420.032 473.814 420.028 473.819 420.025 473.822C420.023 473.823 420.022 473.825 420.022 473.825C420.021 473.826 420.021 473.826 420.021 473.826C420.021 473.826 420.02 473.827 421.127 474.839ZM456.337 440.114C467.525 429.418 490.008 410.551 492.701 408.574L490.925 406.156C488.098 408.232 465.514 427.19 454.264 437.945L456.337 440.114ZM516.677 542.128C517.84 543.076 517.84 543.076 517.84 543.076C517.841 543.076 517.841 543.075 517.841 543.075C517.842 543.074 517.842 543.073 517.843 543.072C517.846 543.069 517.849 543.066 517.853 543.061C517.861 543.051 517.873 543.035 517.889 543.016C517.922 542.976 517.969 542.917 518.032 542.84C518.157 542.686 518.342 542.459 518.579 542.166C519.052 541.581 519.736 540.735 520.576 539.689C522.257 537.596 524.566 534.703 527.08 531.499C532.093 525.108 537.96 517.428 541.25 512.419L538.742 510.772C535.532 515.66 529.74 523.246 524.719 529.647C522.215 532.84 519.913 535.724 518.238 537.81C517.4 538.853 516.719 539.696 516.247 540.278C516.011 540.569 515.828 540.795 515.704 540.948C515.642 541.025 515.594 541.083 515.563 541.122C515.547 541.142 515.535 541.156 515.527 541.166C515.523 541.171 515.52 541.175 515.518 541.177C515.517 541.178 515.516 541.179 515.515 541.18C515.515 541.18 515.515 541.18 515.515 541.181C515.515 541.181 515.515 541.181 516.677 542.128ZM541.25 512.419C544.574 507.358 550.232 495.641 555.012 485.311C557.414 480.121 559.612 475.241 561.209 471.659C562.008 469.868 562.657 468.401 563.106 467.382C563.33 466.872 563.505 466.474 563.624 466.204C563.683 466.068 563.728 465.965 563.759 465.895C563.774 465.86 563.786 465.834 563.793 465.816C563.797 465.807 563.8 465.8 563.802 465.796C563.803 465.794 563.804 465.792 563.804 465.791C563.805 465.79 563.805 465.79 563.805 465.789C563.805 465.789 563.805 465.789 562.431 465.189C561.056 464.589 561.056 464.589 561.056 464.589C561.055 464.589 561.055 464.59 561.055 464.59C561.055 464.591 561.054 464.593 561.053 464.595C561.051 464.6 561.048 464.606 561.044 464.615C561.037 464.632 561.025 464.658 561.01 464.693C560.98 464.762 560.935 464.864 560.876 464.999C560.758 465.268 560.584 465.664 560.36 466.172C559.913 467.188 559.266 468.651 558.469 470.437C556.876 474.011 554.684 478.877 552.289 484.051C547.477 494.451 541.918 505.937 538.742 510.772L541.25 512.419Z" fill="black"/>
</svg>
