<svg width="701" height="900" viewBox="0 0 701 900" fill="none" xmlns="http://www.w3.org/2000/svg">
<path fill-rule="evenodd" clip-rule="evenodd" d="M105 405H597V426.582H591.039V440.816H573.156V459.643H552.981V477.092H533.264V495H416.798V477.092H398.916V459.643H380.116V426.582H329.678V459.643H310.42V477.092H291.162V495H174.696V477.092H155.896V459.643H136.18V440.816H118.297V426.582H105V405ZM155.896 440.816V421.531H174.696V440.816H195.33V459.643H215.505V477.092H195.33V459.643H174.696V440.816H155.896ZM398.916 443.112V426.582H416.798V443.112H435.139V459.643H453.481V477.092H435.139V459.643H416.798V443.112H398.916Z" fill="black"/>
<path d="M416.798 443.112V459.643H435.139V443.112H416.798Z" fill="white"/>
<path d="M435.139 459.643V477.092H453.481V459.643H435.139Z" fill="white"/>
<path d="M398.916 426.582V443.112H416.798V426.582H398.916Z" fill="white"/>
<path d="M195.33 459.643V477.092H215.505V459.643H195.33Z" fill="white"/>
<path d="M195.33 440.816H174.696V459.643H195.33V440.816Z" fill="white"/>
<path d="M155.896 421.531V440.816H174.696V421.531H155.896Z" fill="white"/>
<path d="M105 405V404.5H104.5V405H105ZM597 405H597.5V404.5H597V405ZM597 426.582V427.082H597.5V426.582H597ZM591.039 426.582V426.082H590.539V426.582H591.039ZM591.039 440.816V441.316H591.539V440.816H591.039ZM573.156 440.816V440.316H572.656V440.816H573.156ZM573.156 459.643V460.143H573.656V459.643H573.156ZM552.981 459.643V459.143H552.481V459.643H552.981ZM552.981 477.092V477.592H553.481V477.092H552.981ZM533.264 477.092V476.592H532.764V477.092H533.264ZM533.264 495V495.5H533.764V495H533.264ZM416.798 495H416.298V495.5H416.798V495ZM416.798 477.092H417.298V476.592H416.798V477.092ZM398.916 477.092H398.416V477.592H398.916V477.092ZM398.916 459.643H399.416V459.143H398.916V459.643ZM380.116 459.643H379.616V460.143H380.116V459.643ZM380.116 426.582H380.616V426.082H380.116V426.582ZM329.678 426.582V426.082H329.178V426.582H329.678ZM329.678 459.643V460.143H330.178V459.643H329.678ZM310.42 459.643V459.143H309.92V459.643H310.42ZM310.42 477.092V477.592H310.92V477.092H310.42ZM291.162 477.092V476.592H290.662V477.092H291.162ZM291.162 495V495.5H291.662V495H291.162ZM174.696 495H174.196V495.5H174.696V495ZM174.696 477.092H175.196V476.592H174.696V477.092ZM155.896 477.092H155.396V477.592H155.896V477.092ZM155.896 459.643H156.396V459.143H155.896V459.643ZM136.18 459.643H135.68V460.143H136.18V459.643ZM136.18 440.816H136.68V440.316H136.18V440.816ZM118.297 440.816H117.797V441.316H118.297V440.816ZM118.297 426.582H118.797V426.082H118.297V426.582ZM105 426.582H104.5V427.082H105V426.582ZM155.896 421.531V421.031H155.396V421.531H155.896ZM155.896 440.816H155.396V441.316H155.896V440.816ZM174.696 421.531H175.196V421.031H174.696V421.531ZM195.33 440.816H195.83V440.316H195.33V440.816ZM174.696 459.643H174.196V460.143H174.696V459.643ZM195.33 477.092H194.83V477.592H195.33V477.092ZM215.505 477.092V477.592H216.005V477.092H215.505ZM215.505 459.643H216.005V459.143H215.505V459.643ZM398.916 426.582V426.082H398.416V426.582H398.916ZM398.916 443.112H398.416V443.612H398.916V443.112ZM416.798 426.582H417.298V426.082H416.798V426.582ZM416.798 459.643H416.298V460.143H416.798V459.643ZM435.139 443.112H435.639V442.612H435.139V443.112ZM435.139 477.092H434.639V477.592H435.139V477.092ZM453.481 477.092V477.592H453.981V477.092H453.481ZM453.481 459.643H453.981V459.143H453.481V459.643ZM105 405.5H597V404.5H105V405.5ZM596.5 405V426.582H597.5V405H596.5ZM597 426.082H591.039V427.082H597V426.082ZM590.539 426.582V440.816H591.539V426.582H590.539ZM591.039 440.316H573.156V441.316H591.039V440.316ZM572.656 440.816V459.643H573.656V440.816H572.656ZM573.156 459.143H552.981V460.143H573.156V459.143ZM552.481 459.643V477.092H553.481V459.643H552.481ZM552.981 476.592H533.264V477.592H552.981V476.592ZM532.764 477.092V495H533.764V477.092H532.764ZM533.264 494.5H416.798V495.5H533.264V494.5ZM417.298 495V477.092H416.298V495H417.298ZM416.798 476.592H398.916V477.592H416.798V476.592ZM399.416 477.092V459.643H398.416V477.092H399.416ZM398.916 459.143H380.116V460.143H398.916V459.143ZM380.616 459.643V426.582H379.616V459.643H380.616ZM380.116 426.082H329.678V427.082H380.116V426.082ZM329.178 426.582V459.643H330.178V426.582H329.178ZM329.678 459.143H310.42V460.143H329.678V459.143ZM309.92 459.643V477.092H310.92V459.643H309.92ZM310.42 476.592H291.162V477.592H310.42V476.592ZM290.662 477.092V495H291.662V477.092H290.662ZM291.162 494.5H174.696V495.5H291.162V494.5ZM175.196 495V477.092H174.196V495H175.196ZM174.696 476.592H155.896V477.592H174.696V476.592ZM156.396 477.092V459.643H155.396V477.092H156.396ZM155.896 459.143H136.18V460.143H155.896V459.143ZM136.68 459.643V440.816H135.68V459.643H136.68ZM136.18 440.316H118.297V441.316H136.18V440.316ZM118.797 440.816V426.582H117.797V440.816H118.797ZM118.297 426.082H105V427.082H118.297V426.082ZM105.5 426.582V405H104.5V426.582H105.5ZM155.396 421.531V440.816H156.396V421.531H155.396ZM155.896 441.316H174.696V440.316H155.896V441.316ZM175.196 440.816V421.531H174.196V440.816H175.196ZM174.696 421.031H155.896V422.031H174.696V421.031ZM174.696 441.316H195.33V440.316H174.696V441.316ZM194.83 440.816V459.643H195.83V440.816H194.83ZM195.33 459.143H174.696V460.143H195.33V459.143ZM175.196 459.643V440.816H174.196V459.643H175.196ZM194.83 459.643V477.092H195.83V459.643H194.83ZM195.33 477.592H215.505V476.592H195.33V477.592ZM216.005 477.092V459.643H215.005V477.092H216.005ZM215.505 459.143H195.33V460.143H215.505V459.143ZM398.416 426.582V443.112H399.416V426.582H398.416ZM398.916 443.612H416.798V442.612H398.916V443.612ZM417.298 443.112V426.582H416.298V443.112H417.298ZM416.798 426.082H398.916V427.082H416.798V426.082ZM416.298 443.112V459.643H417.298V443.112H416.298ZM416.798 460.143H435.139V459.143H416.798V460.143ZM435.639 459.643V443.112H434.639V459.643H435.639ZM435.139 442.612H416.798V443.612H435.139V442.612ZM434.639 459.643V477.092H435.639V459.643H434.639ZM435.139 477.592H453.481V476.592H435.139V477.592ZM453.981 477.092V459.643H452.981V477.092H453.981ZM453.481 459.143H435.139V460.143H453.481V459.143Z" fill="black"/>
</svg>
