<svg width="700" height="900" viewBox="0 0 700 900" fill="none" xmlns="http://www.w3.org/2000/svg">
<path d="M345.864 271.043C306.759 271.656 265.745 283.468 265.745 283.468C265.745 283.468 256.847 286.206 248.633 290.429C240.419 294.651 230.747 301.273 230.747 301.273C230.747 301.273 214.693 312.454 207.164 319.301C199.634 326.148 180.927 346.557 180.927 346.557C175.059 354.584 170.867 362.85 167.634 368.6C164.4 374.35 154.42 403.617 154.42 403.617C151.568 414.908 150.587 437.162 151.568 456.412C152.55 475.662 155.531 502.268 155.439 505.297C155.25 511.536 144.315 518.952 141.592 538.299C141.592 538.299 146.027 533.928 151.578 532.247C157.129 530.567 176.193 536.631 185.031 538.896C193.869 541.161 211.763 545.837 222.793 548.248C233.822 550.659 248.503 555.408 266.836 554.239C285.169 553.07 296.707 546.931 303.502 542.915C310.297 538.899 328.963 523.484 350.248 523.114C371.534 522.745 381.217 530.202 389.471 535.024C397.724 539.846 410.58 548.394 424.676 550.221C438.773 552.047 457.983 549.636 469.596 545.399C481.21 541.161 494.43 537.435 504.875 534.22C515.32 531.005 527.883 528.156 540.007 524.137C552.132 520.119 557.568 525.75 557.568 525.75C554.322 509.843 546.792 502.716 544.7 498.655C542.194 493.79 543.036 473.488 543.036 465.442C543.036 457.397 543.952 436.065 541.894 422.313C539.837 408.56 539.276 400.701 536.75 393.31C536.75 393.31 529.362 370.856 521.879 360.472C514.397 350.087 514.023 349.713 507.289 340.825C507.289 340.825 494.428 324.626 480.166 314.348C465.905 304.07 455.421 297.829 452.108 295.73C444.747 291.069 426.374 283.164 416.252 280.86C399.384 276.565 384.969 270.429 345.864 271.043Z" fill="#2E2E2E"/>
<path d="M229.326 618.314C269.823 624.676 304.148 631.692 347.077 629.634C390.006 627.576 413.575 626.266 446.403 620.091C479.231 613.917 510.376 602.129 527.117 590.34C543.858 578.552 560.319 559.747 558.916 536.265C558.685 532.387 558.21 528.897 557.568 525.75C557.568 525.75 552.132 520.119 540.007 524.137C527.883 528.156 515.32 531.005 504.875 534.22C494.43 537.435 481.21 541.161 469.596 545.399C457.983 549.636 438.773 552.047 424.676 550.221C410.58 548.394 397.724 539.846 389.471 535.024C381.217 530.202 371.534 522.745 350.248 523.114C328.963 523.484 310.297 538.899 303.502 542.915C296.707 546.931 285.169 553.07 266.836 554.239C248.503 555.408 233.822 550.659 222.793 548.248C211.763 545.837 193.869 541.161 185.031 538.896C176.193 536.631 157.129 530.567 151.578 532.247C146.027 533.928 141.592 538.299 141.592 538.299C141.488 539.038 141.396 539.794 141.317 540.568C139.169 561.617 148.238 574.716 159.555 583.979C170.871 593.241 188.829 611.952 229.326 618.314Z" fill="#FFE8D4"/>
<path d="M141.317 540.568L142.809 540.721L141.317 540.568ZM155.439 505.297L153.94 505.252L155.439 505.297ZM154.42 403.617L153 403.133L152.981 403.191L152.966 403.25L154.42 403.617ZM265.745 283.468L265.33 282.026L265.317 282.03L265.304 282.034L265.745 283.468ZM452.108 295.73L452.911 294.463L452.108 295.73ZM544.7 498.655L543.367 499.342L544.7 498.655ZM558.916 536.265L557.419 536.354L558.916 536.265ZM536.75 393.31L535.325 393.779L535.328 393.787L535.331 393.795L536.75 393.31ZM416.252 280.86L415.882 282.314L415.901 282.319L415.919 282.323L416.252 280.86ZM180.927 346.557L179.821 345.544L179.765 345.605L179.716 345.672L180.927 346.557ZM230.747 301.273L229.9 300.036L229.89 300.043L230.747 301.273ZM507.289 340.825L508.485 339.919L508.475 339.905L508.464 339.892L507.289 340.825ZM141.592 538.299L140.107 538.09L141.592 538.299ZM347.005 628.136C304.268 630.185 270.129 623.205 229.559 616.832L229.093 619.796C269.518 626.146 304.028 633.2 347.149 631.132L347.005 628.136ZM229.559 616.832C189.519 610.542 171.857 592.109 160.505 582.818L158.605 585.139C169.886 594.373 188.138 613.362 229.093 619.796L229.559 616.832ZM160.505 582.818C149.469 573.786 140.725 561.143 142.809 540.721L139.825 540.416C137.613 562.09 147.007 575.647 158.605 585.139L160.505 582.818ZM265.745 283.468C266.16 284.909 266.16 284.909 266.16 284.909C266.16 284.909 266.161 284.909 266.161 284.909C266.162 284.908 266.164 284.908 266.166 284.907C266.171 284.906 266.178 284.904 266.187 284.901C266.206 284.896 266.235 284.888 266.273 284.877C266.35 284.855 266.466 284.822 266.619 284.779C266.925 284.694 267.381 284.568 267.975 284.407C269.165 284.085 270.911 283.623 273.129 283.067C277.566 281.955 283.891 280.465 291.435 278.956C306.532 275.935 326.463 272.847 345.888 272.542L345.84 269.543C326.161 269.852 306.032 272.976 290.846 276.014C283.248 277.535 276.875 279.036 272.4 280.157C270.162 280.718 268.398 281.185 267.192 281.511C266.589 281.674 266.125 281.802 265.811 281.89C265.654 281.934 265.535 281.968 265.454 281.991C265.414 282.002 265.383 282.011 265.362 282.017C265.352 282.02 265.344 282.022 265.339 282.024C265.336 282.024 265.334 282.025 265.332 282.025C265.332 282.026 265.331 282.026 265.331 282.026C265.33 282.026 265.33 282.026 265.745 283.468ZM540.411 422.535C542.446 436.14 541.536 457.262 541.536 465.442H544.536C544.536 457.532 545.457 435.99 543.378 422.091L540.411 422.535ZM541.536 465.442C541.536 469.378 541.326 476.581 541.428 483.265C541.48 486.626 541.611 489.92 541.89 492.695C542.162 495.394 542.594 497.842 543.367 499.342L546.034 497.968C545.553 497.035 545.15 495.121 544.875 492.394C544.608 489.743 544.479 486.546 544.428 483.218C544.325 476.523 544.536 469.553 544.536 465.442H541.536ZM557.419 536.354C558.775 559.046 542.855 577.424 526.253 589.114L527.981 591.567C544.862 579.68 561.864 560.449 560.414 536.175L557.419 536.354ZM526.253 589.114C509.754 600.732 478.84 612.464 446.126 618.617L446.68 621.566C479.621 615.37 510.997 603.525 527.981 591.567L526.253 589.114ZM446.126 618.617C413.41 624.771 389.935 626.078 347.005 628.136L347.149 631.132C390.077 629.074 413.739 627.762 446.68 621.566L446.126 618.617ZM520.662 361.348C524.287 366.379 527.948 374.438 530.729 381.345C532.111 384.778 533.262 387.89 534.066 390.144C534.468 391.27 534.784 392.181 534.999 392.81C535.106 393.124 535.188 393.367 535.243 393.532C535.271 393.614 535.291 393.676 535.305 393.718C535.312 393.739 535.317 393.754 535.321 393.764C535.322 393.77 535.324 393.773 535.324 393.776C535.325 393.777 535.325 393.778 535.325 393.778C535.325 393.779 535.325 393.779 535.325 393.779C535.325 393.779 535.325 393.779 536.75 393.31C538.175 392.841 538.175 392.841 538.175 392.841C538.175 392.84 538.175 392.84 538.175 392.84C538.174 392.839 538.174 392.838 538.173 392.836C538.172 392.833 538.171 392.829 538.169 392.823C538.165 392.812 538.16 392.795 538.152 392.773C538.138 392.729 538.116 392.664 538.088 392.579C538.031 392.409 537.947 392.16 537.838 391.84C537.619 391.2 537.299 390.276 536.892 389.135C536.077 386.854 534.913 383.704 533.512 380.225C530.728 373.31 526.954 364.949 523.096 359.595L520.662 361.348ZM535.331 393.795C537.798 401.015 538.329 408.622 540.411 422.535L543.378 422.091C541.344 408.497 540.753 400.387 538.17 392.825L535.331 393.795ZM345.888 272.542C384.756 271.933 398.972 278.008 415.882 282.314L416.622 279.407C399.795 275.122 385.181 268.926 345.84 269.543L345.888 272.542ZM415.919 282.323C420.853 283.446 427.883 285.959 434.634 288.794C441.388 291.63 447.731 294.734 451.305 296.998L452.911 294.463C449.124 292.065 442.6 288.886 435.796 286.028C428.99 283.17 421.773 280.578 416.585 279.398L415.919 282.323ZM180.927 346.557C182.033 347.571 182.033 347.571 182.033 347.57C182.033 347.57 182.033 347.57 182.034 347.57C182.034 347.569 182.035 347.568 182.036 347.567C182.038 347.565 182.042 347.561 182.046 347.556C182.055 347.546 182.068 347.532 182.086 347.512C182.122 347.474 182.174 347.416 182.244 347.341C182.382 347.19 182.586 346.968 182.849 346.683C183.374 346.112 184.133 345.289 185.068 344.28C186.937 342.262 189.508 339.501 192.313 336.526C197.94 330.558 204.459 323.788 208.173 320.41L206.154 318.191C202.339 321.66 195.74 328.518 190.13 334.467C187.318 337.451 184.741 340.219 182.867 342.242C181.93 343.253 181.169 344.078 180.642 344.651C180.379 344.937 180.174 345.16 180.034 345.311C179.965 345.387 179.911 345.445 179.876 345.484C179.858 345.504 179.844 345.519 179.835 345.528C179.831 345.533 179.827 345.537 179.825 345.54C179.824 345.541 179.823 345.542 179.822 345.543C179.822 345.543 179.822 345.543 179.821 345.543C179.821 345.543 179.821 345.544 180.927 346.557ZM208.173 320.41C211.874 317.044 217.714 312.578 222.669 308.927C225.138 307.108 227.373 305.501 228.991 304.349C229.8 303.774 230.454 303.312 230.906 302.994C231.132 302.835 231.307 302.713 231.425 302.63C231.484 302.588 231.529 302.557 231.56 302.536C231.575 302.525 231.586 302.517 231.594 302.512C231.597 302.509 231.6 302.508 231.602 302.506C231.603 302.506 231.604 302.505 231.604 302.505C231.604 302.505 231.604 302.505 231.604 302.504C231.605 302.504 231.605 302.504 230.747 301.273C229.89 300.043 229.89 300.043 229.89 300.043C229.89 300.043 229.89 300.043 229.889 300.043C229.889 300.044 229.888 300.044 229.887 300.045C229.885 300.046 229.882 300.048 229.878 300.051C229.87 300.057 229.858 300.065 229.843 300.076C229.811 300.097 229.765 300.13 229.705 300.172C229.585 300.256 229.408 300.38 229.18 300.54C228.724 300.861 228.065 301.326 227.251 301.905C225.624 303.064 223.375 304.68 220.889 306.512C215.935 310.163 209.982 314.71 206.154 318.191L208.173 320.41ZM506.094 341.731C512.828 350.62 513.192 350.98 520.662 361.348L523.096 359.595C515.602 349.193 515.218 348.806 508.485 339.919L506.094 341.731ZM451.305 296.998C454.643 299.111 465.074 305.321 479.289 315.565L481.043 313.131C466.735 302.82 456.199 296.546 452.911 294.463L451.305 296.998ZM479.289 315.565C486.307 320.623 493.012 327.163 497.981 332.466C500.461 335.113 502.498 337.441 503.914 339.105C504.622 339.937 505.174 340.603 505.549 341.06C505.736 341.288 505.878 341.464 505.974 341.582C506.021 341.641 506.057 341.685 506.081 341.715C506.092 341.73 506.101 341.741 506.107 341.748C506.11 341.751 506.112 341.754 506.113 341.756C506.114 341.756 506.114 341.757 506.114 341.757C506.114 341.757 506.114 341.757 506.115 341.758C506.114 341.758 506.114 341.757 507.289 340.825C508.464 339.892 508.464 339.892 508.464 339.892C508.463 339.891 508.463 339.891 508.463 339.891C508.462 339.89 508.462 339.889 508.461 339.888C508.459 339.886 508.456 339.882 508.453 339.878C508.446 339.87 508.436 339.857 508.423 339.841C508.397 339.808 508.359 339.761 508.309 339.699C508.209 339.575 508.061 339.392 507.869 339.158C507.484 338.688 506.92 338.008 506.199 337.161C504.758 335.467 502.689 333.103 500.17 330.415C495.144 325.05 488.287 318.352 481.043 313.131L479.289 315.565ZM156.939 505.343C156.965 504.473 156.783 502.123 156.506 498.957C156.224 495.733 155.828 491.513 155.4 486.802C154.544 477.365 153.556 465.927 153.066 456.335L150.07 456.488C150.563 466.146 151.556 477.637 152.413 487.073C152.842 491.798 153.236 496 153.517 499.219C153.804 502.496 153.96 504.608 153.94 505.252L156.939 505.343ZM153.066 456.335C152.087 437.125 153.079 415.052 155.874 403.985L152.966 403.25C150.058 414.763 149.087 437.199 150.07 456.488L153.066 456.335ZM154.42 403.617C155.84 404.101 155.84 404.101 155.84 404.101C155.84 404.101 155.84 404.101 155.84 404.1C155.841 404.099 155.841 404.098 155.842 404.096C155.843 404.093 155.845 404.088 155.847 404.081C155.852 404.067 155.859 404.046 155.868 404.018C155.887 403.963 155.915 403.881 155.952 403.773C156.026 403.558 156.134 403.242 156.274 402.837C156.552 402.026 156.954 400.862 157.447 399.448C158.432 396.617 159.778 392.785 161.225 388.774C162.673 384.762 164.218 380.578 165.602 377.044C166.999 373.473 168.193 370.666 168.941 369.335L166.326 367.865C165.458 369.409 164.191 372.417 162.808 375.951C161.411 379.521 159.855 383.733 158.403 387.756C156.951 391.781 155.601 395.624 154.613 398.461C154.12 399.88 153.717 401.048 153.437 401.861C153.297 402.267 153.188 402.585 153.114 402.801C153.077 402.909 153.049 402.992 153.029 403.048C153.02 403.076 153.013 403.097 153.008 403.112C153.005 403.119 153.004 403.124 153.002 403.128C153.002 403.129 153.001 403.131 153.001 403.132C153.001 403.132 153.001 403.133 153.001 403.133C153 403.133 153 403.133 154.42 403.617ZM168.941 369.335C172.212 363.518 176.339 355.374 182.138 347.442L179.716 345.672C173.779 353.793 169.522 362.182 166.326 367.865L168.941 369.335ZM230.747 301.273C231.595 302.511 231.595 302.511 231.595 302.511C231.595 302.511 231.595 302.511 231.595 302.511C231.595 302.511 231.596 302.511 231.596 302.51C231.597 302.51 231.599 302.508 231.601 302.507C231.605 302.504 231.612 302.499 231.621 302.493C231.639 302.481 231.666 302.463 231.701 302.438C231.773 302.39 231.879 302.318 232.018 302.224C232.296 302.037 232.702 301.764 233.216 301.423C234.244 300.74 235.701 299.786 237.413 298.701C240.843 296.527 245.271 293.844 249.318 291.763L247.947 289.095C243.781 291.236 239.265 293.975 235.807 296.168C234.074 297.266 232.599 298.232 231.557 298.923C231.036 299.269 230.623 299.546 230.34 299.737C230.198 299.833 230.089 299.907 230.014 299.958C229.977 299.983 229.949 300.002 229.93 300.015C229.92 300.022 229.913 300.027 229.908 300.03C229.905 300.032 229.903 300.033 229.902 300.034C229.901 300.035 229.901 300.035 229.901 300.035C229.9 300.035 229.9 300.036 229.9 300.036C229.9 300.036 229.9 300.036 230.747 301.273ZM249.318 291.763C253.354 289.688 257.573 287.971 260.793 286.77C262.401 286.171 263.754 285.702 264.703 285.384C265.178 285.225 265.551 285.103 265.804 285.022C265.931 284.981 266.028 284.951 266.092 284.93C266.125 284.92 266.149 284.913 266.164 284.908C266.172 284.905 266.178 284.904 266.182 284.903C266.183 284.902 266.185 284.902 266.186 284.901C266.186 284.901 266.186 284.901 266.186 284.901C266.186 284.901 266.186 284.901 266.186 284.901C266.186 284.901 266.186 284.901 265.745 283.468C265.304 282.034 265.304 282.034 265.303 282.034C265.303 282.034 265.303 282.034 265.303 282.034C265.302 282.034 265.302 282.035 265.301 282.035C265.3 282.035 265.298 282.036 265.295 282.037C265.29 282.038 265.283 282.04 265.274 282.043C265.256 282.049 265.229 282.057 265.194 282.068C265.124 282.09 265.021 282.123 264.889 282.165C264.623 282.25 264.237 282.376 263.749 282.539C262.774 282.866 261.389 283.346 259.745 283.959C256.463 285.183 252.125 286.947 247.947 289.095L249.318 291.763ZM142.809 540.721C142.886 539.965 142.976 539.228 143.077 538.508L140.107 538.09C140 538.848 139.906 539.623 139.825 540.416L142.809 540.721ZM143.077 538.508C144.401 529.107 147.712 522.614 150.745 517.667C151.508 516.422 152.252 515.278 152.953 514.194C153.648 513.119 154.307 512.093 154.874 511.121C155.987 509.214 156.879 507.303 156.939 505.343L153.94 505.252C153.905 506.411 153.359 507.766 152.283 509.609C151.756 510.513 151.133 511.483 150.433 512.565C149.739 513.64 148.973 514.817 148.187 516.099C145.025 521.256 141.507 528.145 140.107 538.09L143.077 538.508ZM141.592 538.299C142.645 539.367 142.645 539.368 142.644 539.368C142.644 539.368 142.644 539.368 142.644 539.368C142.644 539.368 142.644 539.368 142.644 539.368C142.644 539.368 142.644 539.368 142.644 539.368C142.645 539.367 142.647 539.365 142.65 539.362C142.656 539.356 142.667 539.346 142.681 539.333C142.709 539.305 142.754 539.263 142.815 539.207C142.935 539.095 143.117 538.929 143.355 538.723C143.83 538.31 144.523 537.74 145.382 537.119C147.114 535.867 149.458 534.456 152.013 533.683L151.144 530.812C148.148 531.719 145.498 533.334 143.625 534.688C142.681 535.37 141.918 535.997 141.389 536.457C141.123 536.687 140.916 536.876 140.772 537.009C140.7 537.076 140.644 537.129 140.605 537.167C140.586 537.185 140.57 537.2 140.559 537.211C140.554 537.216 140.549 537.221 140.546 537.224C140.544 537.226 140.543 537.227 140.542 537.228C140.541 537.229 140.54 537.229 140.54 537.23C140.54 537.23 140.54 537.23 140.539 537.23C140.539 537.231 140.539 537.231 141.592 538.299ZM152.013 533.683C153.057 533.367 154.995 533.377 157.702 533.745C160.334 534.103 163.456 534.76 166.719 535.55C173.321 537.148 180.104 539.182 184.658 540.349L185.403 537.443C181.119 536.345 173.952 534.214 167.425 532.634C164.123 531.835 160.887 531.15 158.106 530.772C155.402 530.405 152.875 530.287 151.144 530.812L152.013 533.683ZM184.658 540.349C193.476 542.609 211.409 547.295 222.472 549.714L223.113 546.783C212.118 544.379 194.261 539.713 185.403 537.443L184.658 540.349ZM222.472 549.714C233.353 552.092 248.327 556.923 266.931 555.736L266.741 552.742C248.679 553.894 234.29 549.226 223.113 546.783L222.472 549.714ZM266.931 555.736C285.59 554.547 297.363 548.286 304.266 544.206L302.739 541.623C296.052 545.575 284.748 551.594 266.741 552.742L266.931 555.736ZM304.266 544.206C306.008 543.176 308.532 541.403 311.509 539.428C314.53 537.424 318.122 535.138 322.152 532.968C330.23 528.619 339.972 524.793 350.274 524.614L350.222 521.615C339.239 521.805 329.005 525.871 320.73 530.326C316.584 532.558 312.906 534.901 309.85 536.929C306.751 538.985 304.394 540.645 302.739 541.623L304.266 544.206ZM350.274 524.614C360.724 524.433 368.269 526.171 374.194 528.517C380.167 530.882 384.489 533.85 388.714 536.319L390.228 533.729C386.199 531.375 381.552 528.204 375.299 525.727C368.997 523.232 361.058 521.426 350.222 521.615L350.274 524.614ZM388.714 536.319C396.839 541.066 410.01 549.833 424.484 551.708L424.869 548.733C411.149 546.956 398.61 538.626 390.228 533.729L388.714 536.319ZM424.484 551.708C438.823 553.566 458.275 551.127 470.11 546.808L469.082 543.99C457.691 548.146 438.724 550.529 424.869 548.733L424.484 551.708ZM470.11 546.808C481.676 542.588 494.821 538.884 505.316 535.654L504.434 532.786C494.039 535.986 480.744 539.734 469.082 543.99L470.11 546.808ZM505.316 535.654C510.507 534.056 516.225 532.549 522.204 530.928C528.168 529.311 534.375 527.584 540.479 525.561L539.535 522.713C533.515 524.709 527.378 526.417 521.419 528.032C515.474 529.644 509.687 531.169 504.434 532.786L505.316 535.654ZM543.367 499.342C545.711 503.893 552.902 510.386 556.098 526.05L559.038 525.45C555.742 509.3 547.874 501.54 546.034 497.968L543.367 499.342ZM556.098 526.05C556.726 529.125 557.191 532.545 557.419 536.354L560.414 536.175C560.178 532.229 559.694 528.668 559.038 525.45L556.098 526.05ZM540.479 525.561C546.261 523.645 550.328 524.062 552.884 524.867C554.172 525.273 555.103 525.786 555.698 526.182C555.996 526.38 556.209 526.549 556.341 526.66C556.406 526.716 556.451 526.757 556.476 526.78C556.488 526.792 556.495 526.799 556.498 526.801C556.499 526.802 556.498 526.802 556.497 526.8C556.496 526.8 556.495 526.799 556.494 526.797C556.493 526.796 556.492 526.796 556.492 526.795C556.491 526.794 556.49 526.794 556.49 526.793C556.49 526.793 556.489 526.792 557.568 525.75C558.647 524.708 558.646 524.708 558.646 524.707C558.645 524.706 558.645 524.706 558.644 524.705C558.643 524.704 558.642 524.703 558.64 524.701C558.637 524.698 558.634 524.695 558.631 524.692C558.624 524.685 558.616 524.677 558.607 524.667C558.587 524.648 558.563 524.624 558.532 524.596C558.471 524.538 558.388 524.462 558.281 524.372C558.068 524.191 557.762 523.951 557.36 523.684C556.557 523.15 555.371 522.506 553.785 522.006C550.591 521 545.878 520.611 539.535 522.713L540.479 525.561Z" fill="black"/>
</svg>
