<svg width="701" height="900" viewBox="0 0 701 900" fill="none" xmlns="http://www.w3.org/2000/svg">
<path d="M188.39 418C177.227 418 157.164 427.12 157.001 449.213C156.838 471.306 175.803 480.933 188.39 480.084C200.976 479.234 221.764 474.42 222.075 449.213C222.385 424.005 199.552 418 188.39 418Z" fill="black"/>
<path d="M510.312 419.865C499.15 419.865 479.086 428.985 478.923 451.078C478.76 473.17 497.725 482.798 510.312 481.948C522.899 481.099 543.686 476.285 543.997 451.078C544.307 425.87 521.474 419.865 510.312 419.865Z" fill="black"/>
<path d="M188.39 418C177.227 418 157.164 427.12 157.001 449.213C156.838 471.306 175.803 480.933 188.39 480.084C200.976 479.234 221.764 474.42 222.075 449.213C222.385 424.005 199.552 418 188.39 418Z" stroke="black" stroke-width="3" stroke-linecap="round"/>
<path d="M510.312 419.865C499.15 419.865 479.086 428.985 478.923 451.078C478.76 473.17 497.725 482.798 510.312 481.948C522.899 481.099 543.686 476.285 543.997 451.078C544.307 425.87 521.474 419.865 510.312 419.865Z" stroke="black" stroke-width="3" stroke-linecap="round"/>
</svg>
