<svg width="700" height="900" viewBox="0 0 700 900" fill="none" xmlns="http://www.w3.org/2000/svg">
<path d="M345.785 387.01C331.146 386.678 322.68 394.463 323.74 398.715C324.231 400.684 327.48 406.702 332.103 411.679C336.725 416.655 347.462 424.037 347.462 424.037C347.462 424.037 355.222 418.579 360.947 412.394C364.918 408.102 367.116 404.985 367.603 399.918C368.09 394.851 360.425 387.343 345.785 387.01Z" fill="white"/>
<path d="M347.462 424.037C347.462 424.037 328.074 439.972 317.732 443.69C307.39 447.408 293.525 445.992 293.525 445.992C296.286 461.643 298.371 469.552 303.503 481.888C303.503 481.888 332.607 468.898 349.3 469.682C365.993 470.465 396.627 479.873 396.627 479.873C396.627 479.873 399.322 471.667 401.966 460.376C404.609 449.086 404.465 439.889 404.465 439.889H398.29C398.29 439.889 389.827 468.572 378.66 465.92C367.494 463.267 368.09 436.076 368.09 436.076C355.191 431.925 347.462 424.037 347.462 424.037Z" fill="white"/>
<path d="M398.29 439.889C398.29 439.889 387.625 439.764 383.137 439.103C378.648 438.443 368.09 436.076 368.09 436.076C368.09 436.076 367.494 463.267 378.66 465.92C389.827 468.572 398.29 439.889 398.29 439.889Z" fill="white"/>
<path d="M303.503 481.888C312.382 505.18 328.997 510.416 346.845 512.752C364.693 515.088 383.474 500.694 396.627 479.873C396.627 479.873 365.993 470.465 349.3 469.682C332.607 468.898 303.503 481.888 303.503 481.888Z" fill="white"/>
<path d="M323.74 398.715L328.591 397.505L323.74 398.715ZM275.852 430.637C274.554 428.199 271.526 427.276 269.088 428.574C266.651 429.872 265.728 432.9 267.026 435.337L275.852 430.637ZM396.627 479.873L400.854 482.544L401.185 482.021L401.378 481.433L396.627 479.873ZM430.312 431.947C432.247 429.977 432.218 426.811 430.247 424.877C428.277 422.942 425.111 422.971 423.177 424.941L430.312 431.947ZM556.511 415.771C553.912 416.703 552.559 419.565 553.491 422.165C554.422 424.764 557.284 426.117 559.884 425.186L556.511 415.771ZM635.161 412.312C637.922 412.223 640.087 409.913 639.997 407.153C639.908 404.393 637.599 402.228 634.839 402.317L635.161 412.312ZM562.084 439.739C559.355 440.159 557.484 442.713 557.905 445.442C558.325 448.171 560.879 450.043 563.608 449.622L562.084 439.739ZM625.492 447.954C628.251 448.071 630.582 445.929 630.698 443.17C630.815 440.411 628.673 438.08 625.914 437.963L625.492 447.954ZM142.078 435.882C144.784 436.433 147.424 434.686 147.975 431.98C148.525 429.274 146.778 426.634 144.072 426.083L142.078 435.882ZM63.806 418.205C61.0467 418.312 58.8965 420.636 59.0035 423.395C59.1104 426.154 61.4341 428.304 64.1934 428.197L63.806 418.205ZM137.943 460.809C140.691 461.09 143.145 459.091 143.426 456.344C143.707 453.597 141.708 451.142 138.961 450.861L137.943 460.809ZM76.0998 453.432C73.3542 453.728 71.3678 456.193 71.6631 458.938C71.9583 461.684 74.4234 463.67 77.169 463.375L76.0998 453.432ZM360.947 412.394L364.616 415.79L360.947 412.394ZM328.591 397.505C328.795 398.32 328.394 398.493 328.851 397.8C329.251 397.194 330.101 396.293 331.567 395.357C334.461 393.508 339.241 391.863 345.671 392.009L345.899 382.012C337.69 381.825 330.917 383.906 326.184 386.929C323.835 388.429 321.852 390.251 320.506 392.29C319.217 394.243 318.155 396.983 318.888 399.924L328.591 397.505ZM345.671 392.009C352.18 392.157 356.766 393.893 359.52 395.8C362.548 397.896 362.617 399.53 362.626 399.44L372.58 400.396C373.076 395.239 369.556 390.585 365.213 387.578C360.596 384.381 354.03 382.196 345.899 382.012L345.671 392.009ZM347.462 424.037C344.287 420.174 344.287 420.174 344.287 420.174C344.287 420.174 344.287 420.174 344.287 420.174C344.287 420.174 344.286 420.174 344.286 420.175C344.284 420.176 344.281 420.179 344.277 420.182C344.269 420.188 344.257 420.199 344.24 420.212C344.206 420.24 344.154 420.282 344.085 420.339C343.947 420.451 343.741 420.618 343.473 420.834C342.938 421.265 342.156 421.889 341.186 422.65C339.241 424.175 336.547 426.243 333.542 428.42C327.337 432.915 320.447 437.4 316.041 438.985L319.424 448.395C325.36 446.261 333.334 440.92 339.409 436.518C342.543 434.247 345.342 432.099 347.356 430.519C348.364 429.729 349.179 429.078 349.744 428.624C350.026 428.396 350.246 428.218 350.398 428.095C350.473 428.033 350.531 427.986 350.572 427.953C350.592 427.936 350.607 427.924 350.618 427.915C350.623 427.91 350.628 427.907 350.631 427.904C350.632 427.903 350.634 427.902 350.635 427.901C350.635 427.901 350.636 427.9 350.636 427.9C350.636 427.9 350.637 427.899 347.462 424.037ZM316.041 438.985C311.615 440.576 306.189 441.13 301.634 441.236C299.403 441.288 297.473 441.231 296.109 441.161C295.428 441.126 294.892 441.089 294.534 441.061C294.355 441.047 294.221 441.035 294.137 441.027C294.094 441.023 294.064 441.02 294.047 441.019C294.038 441.018 294.032 441.017 294.03 441.017C294.029 441.017 294.029 441.017 294.029 441.017C294.03 441.017 294.03 441.017 294.031 441.017C294.031 441.017 294.032 441.017 294.032 441.017C294.033 441.017 294.034 441.017 293.525 445.992C293.017 450.966 293.018 450.966 293.019 450.966C293.019 450.966 293.02 450.966 293.021 450.966C293.023 450.966 293.024 450.966 293.026 450.967C293.03 450.967 293.035 450.967 293.041 450.968C293.052 450.969 293.066 450.971 293.084 450.972C293.12 450.976 293.169 450.98 293.231 450.986C293.354 450.997 293.528 451.012 293.749 451.03C294.189 451.064 294.817 451.108 295.598 451.148C297.156 451.228 299.339 451.292 301.867 451.234C306.83 451.118 313.508 450.522 319.424 448.395L316.041 438.985ZM295.381 441.349C286.02 437.608 280.901 434.544 278.221 432.575C276.888 431.594 276.184 430.904 275.869 430.56C275.712 430.388 275.653 430.305 275.66 430.316C275.664 430.321 275.685 430.35 275.718 430.403C275.735 430.43 275.755 430.463 275.777 430.502C275.788 430.521 275.8 430.542 275.813 430.565C275.819 430.576 275.825 430.588 275.832 430.6C275.835 430.606 275.838 430.612 275.842 430.618C275.843 430.621 275.846 430.626 275.847 430.627C275.849 430.632 275.852 430.637 271.439 432.987C267.026 435.337 267.028 435.342 267.031 435.347C267.032 435.349 267.034 435.353 267.036 435.357C267.039 435.363 267.043 435.37 267.047 435.376C267.054 435.39 267.061 435.403 267.069 435.417C267.084 435.445 267.101 435.473 267.118 435.503C267.152 435.563 267.19 435.626 267.232 435.694C267.316 435.828 267.416 435.979 267.535 436.145C267.773 436.476 268.085 436.867 268.494 437.314C269.311 438.205 270.518 439.323 272.298 440.632C275.847 443.241 281.772 446.679 291.67 450.635L295.381 441.349ZM298.831 483.669C303.63 496.259 310.691 504.319 319.231 509.462C327.623 514.514 337.068 516.515 346.196 517.709L347.494 507.794C338.774 506.653 330.987 504.867 324.39 500.895C317.941 497.012 312.255 490.809 308.175 480.107L298.831 483.669ZM346.196 517.709C356.71 519.086 367.095 515.483 376.335 509.113C385.583 502.736 394.006 493.384 400.854 482.544L392.4 477.203C386.095 487.183 378.551 495.438 370.658 500.88C362.757 506.328 354.828 508.754 347.494 507.794L346.196 517.709ZM406.834 461.516C408.226 455.569 408.882 450.189 409.191 446.294C409.346 444.343 409.415 442.752 409.445 441.636C409.46 441.078 409.465 440.638 409.466 440.329C409.467 440.175 409.467 440.053 409.466 439.966C409.466 439.923 409.466 439.888 409.465 439.862C409.465 439.849 409.465 439.838 409.465 439.83C409.465 439.826 409.465 439.822 409.465 439.819C409.465 439.817 409.465 439.816 409.465 439.815C409.465 439.814 409.465 439.813 409.465 439.813C409.465 439.812 409.465 439.811 404.465 439.889C399.466 439.967 399.466 439.966 399.466 439.965C399.466 439.965 399.466 439.965 399.466 439.964C399.466 439.964 399.466 439.963 399.466 439.963C399.466 439.962 399.466 439.961 399.466 439.962C399.466 439.962 399.466 439.965 399.466 439.969C399.466 439.979 399.466 439.997 399.466 440.024C399.467 440.077 399.467 440.164 399.466 440.283C399.465 440.522 399.461 440.888 399.448 441.368C399.422 442.329 399.362 443.744 399.222 445.503C398.942 449.029 398.348 453.893 397.097 459.237L406.834 461.516ZM405.368 444.807C412.951 443.414 419.145 440.214 423.401 437.418C425.541 436.013 427.227 434.687 428.393 433.696C428.978 433.2 429.435 432.786 429.757 432.485C429.918 432.334 430.045 432.211 430.138 432.12C430.185 432.075 430.222 432.038 430.251 432.009C430.266 431.994 430.278 431.982 430.288 431.971C430.293 431.966 430.298 431.962 430.302 431.958C430.304 431.956 430.306 431.954 430.307 431.952C430.308 431.951 430.309 431.95 430.31 431.95C430.311 431.949 430.312 431.947 426.744 428.444C423.177 424.941 423.178 424.94 423.179 424.939C423.179 424.939 423.18 424.938 423.181 424.937C423.182 424.936 423.183 424.935 423.184 424.934C423.185 424.932 423.187 424.931 423.188 424.93C423.189 424.929 423.189 424.929 423.186 424.932C423.181 424.937 423.168 424.95 423.146 424.971C423.103 425.013 423.028 425.085 422.922 425.185C422.71 425.384 422.374 425.689 421.922 426.073C421.016 426.842 419.658 427.913 417.912 429.06C414.396 431.368 409.451 433.89 403.562 434.971L405.368 444.807ZM404.465 434.889H398.29V444.889H404.465V434.889ZM398.29 439.889C398.349 434.889 398.349 434.889 398.349 434.889C398.349 434.889 398.349 434.889 398.349 434.889C398.349 434.889 398.348 434.889 398.348 434.889C398.347 434.889 398.345 434.889 398.343 434.889C398.339 434.889 398.332 434.889 398.323 434.889C398.304 434.889 398.275 434.888 398.237 434.888C398.161 434.887 398.048 434.885 397.901 434.883C397.608 434.878 397.182 434.871 396.657 434.86C395.604 434.838 394.156 434.803 392.573 434.747C389.31 434.632 385.792 434.44 383.864 434.157L382.409 444.05C384.97 444.427 389.029 444.628 392.22 444.741C393.865 444.799 395.363 444.836 396.45 444.858C396.995 444.869 397.437 444.877 397.745 444.882C397.898 444.884 398.019 444.886 398.101 444.887C398.142 444.888 398.174 444.888 398.196 444.888C398.207 444.888 398.215 444.888 398.221 444.889C398.224 444.889 398.227 444.889 398.228 444.889C398.229 444.889 398.23 444.889 398.23 444.889C398.23 444.889 398.231 444.889 398.231 444.889C398.231 444.889 398.231 444.889 398.29 439.889ZM398.29 439.889C393.494 438.474 393.495 438.473 393.495 438.473C393.495 438.472 393.495 438.472 393.495 438.472C393.495 438.471 393.495 438.472 393.495 438.472C393.495 438.473 393.494 438.476 393.492 438.48C393.49 438.489 393.485 438.505 393.479 438.527C393.465 438.571 393.444 438.641 393.415 438.734C393.357 438.922 393.268 439.206 393.149 439.571C392.912 440.302 392.557 441.354 392.097 442.613C391.171 445.147 389.844 448.443 388.215 451.615C386.55 454.857 384.737 457.639 382.939 459.4C381.104 461.199 380.167 461.139 379.816 461.055L377.505 470.784C382.737 472.027 387.046 469.377 389.938 466.543C392.867 463.672 395.263 459.781 397.111 456.183C398.993 452.516 400.48 448.807 401.489 446.046C401.997 444.657 402.391 443.489 402.66 442.662C402.794 442.248 402.898 441.918 402.969 441.687C403.005 441.571 403.033 441.48 403.052 441.416C403.062 441.384 403.069 441.358 403.075 441.339C403.078 441.33 403.08 441.322 403.082 441.316C403.083 441.313 403.084 441.311 403.084 441.309C403.084 441.308 403.085 441.307 403.085 441.306C403.085 441.305 403.086 441.304 398.29 439.889ZM383.864 434.157C381.796 433.852 378.182 433.128 374.96 432.45C373.377 432.116 371.93 431.803 370.88 431.572C370.354 431.457 369.929 431.363 369.635 431.298C369.489 431.266 369.375 431.24 369.298 431.223C369.26 431.215 369.231 431.208 369.211 431.204C369.202 431.202 369.195 431.2 369.19 431.199C369.188 431.198 369.186 431.198 369.185 431.198C369.184 431.198 369.184 431.198 369.184 431.198C369.184 431.198 369.183 431.198 369.183 431.198C369.183 431.198 369.183 431.198 368.09 436.076C366.996 440.955 366.996 440.955 366.997 440.955C366.997 440.956 366.997 440.956 366.997 440.956C366.997 440.956 366.998 440.956 366.999 440.956C367 440.956 367.002 440.957 367.005 440.957C367.011 440.959 367.019 440.96 367.029 440.963C367.05 440.967 367.081 440.974 367.121 440.983C367.201 441.001 367.319 441.027 367.469 441.061C367.771 441.128 368.205 441.224 368.74 441.341C369.809 441.575 371.283 441.894 372.899 442.235C376.079 442.905 379.988 443.694 382.409 444.05L383.864 434.157ZM369.622 431.317C363.763 429.431 359.056 426.687 355.814 424.409C354.198 423.273 352.963 422.266 352.15 421.559C351.743 421.206 351.443 420.93 351.255 420.752C351.161 420.663 351.095 420.599 351.058 420.562C351.039 420.544 351.028 420.532 351.024 420.528C351.022 420.526 351.021 420.525 351.023 420.527C351.024 420.528 351.025 420.529 351.026 420.531C351.027 420.532 351.028 420.533 351.029 420.534C351.03 420.534 351.031 420.535 351.031 420.535C351.032 420.536 351.033 420.537 347.462 424.037C343.891 427.536 343.892 427.537 343.893 427.538C343.893 427.539 343.894 427.54 343.895 427.541C343.896 427.542 343.898 427.544 343.9 427.546C343.903 427.549 343.907 427.553 343.912 427.558C343.921 427.567 343.932 427.578 343.945 427.591C343.971 427.617 344.004 427.65 344.045 427.691C344.128 427.772 344.24 427.881 344.383 428.016C344.668 428.285 345.073 428.658 345.592 429.109C346.631 430.011 348.135 431.235 350.064 432.591C353.911 435.294 359.518 438.57 366.558 440.836L369.622 431.317ZM379.816 461.055C379.05 460.873 377.938 460.154 376.737 457.837C375.559 455.565 374.698 452.486 374.113 449.142C373.538 445.855 373.279 442.599 373.166 440.138C373.11 438.915 373.091 437.907 373.086 437.213C373.083 436.867 373.084 436.599 373.086 436.424C373.086 436.336 373.087 436.271 373.088 436.231C373.088 436.211 373.088 436.197 373.089 436.189C373.089 436.186 373.089 436.184 373.089 436.183C373.089 436.183 373.089 436.183 373.089 436.183C373.089 436.184 373.089 436.184 373.089 436.184C373.089 436.185 373.089 436.186 368.09 436.076C363.091 435.967 363.091 435.968 363.091 435.969C363.091 435.97 363.091 435.971 363.091 435.972C363.091 435.974 363.091 435.977 363.091 435.98C363.091 435.986 363.091 435.994 363.09 436.003C363.09 436.022 363.09 436.047 363.089 436.078C363.088 436.141 363.087 436.229 363.086 436.341C363.084 436.565 363.083 436.885 363.086 437.287C363.092 438.09 363.114 439.227 363.176 440.595C363.301 443.315 363.59 447.023 364.262 450.865C364.924 454.65 366.007 458.866 367.858 462.438C369.686 465.966 372.687 469.64 377.505 470.784L379.816 461.055ZM288.601 446.86C291.407 462.761 293.576 471.044 298.887 483.809L308.119 479.967C303.166 468.06 301.166 460.525 298.449 445.123L288.601 446.86ZM303.503 481.888C305.541 486.454 305.54 486.454 305.54 486.454C305.54 486.454 305.54 486.454 305.54 486.454C305.54 486.454 305.541 486.454 305.542 486.453C305.544 486.452 305.548 486.451 305.553 486.448C305.565 486.443 305.583 486.435 305.608 486.424C305.657 486.402 305.734 486.369 305.836 486.324C306.041 486.234 306.349 486.101 306.749 485.93C307.55 485.588 308.721 485.097 310.181 484.508C313.105 483.328 317.17 481.766 321.736 480.23C331.097 477.081 341.749 474.333 349.065 474.676L349.534 464.687C340.157 464.247 327.911 467.602 318.547 470.752C313.75 472.366 309.496 474.002 306.441 475.233C304.912 475.85 303.679 476.368 302.823 476.733C302.395 476.916 302.061 477.06 301.831 477.161C301.717 477.211 301.628 477.25 301.566 477.277C301.536 477.291 301.512 477.301 301.495 477.309C301.486 477.313 301.48 477.316 301.475 477.318C301.472 477.319 301.47 477.32 301.468 477.321C301.468 477.321 301.467 477.321 301.466 477.322C301.466 477.322 301.465 477.322 303.503 481.888ZM396.627 479.873C401.378 481.433 401.378 481.433 401.378 481.433C401.378 481.432 401.378 481.432 401.378 481.432C401.378 481.431 401.379 481.43 401.379 481.43C401.38 481.428 401.38 481.426 401.381 481.423C401.383 481.417 401.385 481.41 401.388 481.401C401.395 481.382 401.403 481.355 401.414 481.321C401.437 481.252 401.469 481.152 401.51 481.022C401.593 480.763 401.713 480.385 401.864 479.899C402.167 478.925 402.596 477.516 403.107 475.751C404.13 472.224 405.488 467.264 406.834 461.516L397.097 459.237C395.8 464.78 394.489 469.568 393.503 472.966C393.011 474.664 392.601 476.012 392.315 476.93C392.172 477.389 392.061 477.741 391.986 477.975C391.949 478.092 391.921 478.179 391.902 478.236C391.893 478.264 391.886 478.285 391.882 478.298C391.88 478.304 391.878 478.309 391.878 478.311C391.877 478.313 391.877 478.313 391.877 478.314C391.877 478.314 391.877 478.314 391.877 478.314C391.877 478.314 391.877 478.313 391.877 478.313C391.877 478.313 391.877 478.313 396.627 479.873ZM349.065 474.676C356.86 475.042 368.258 477.47 378.004 479.92C382.813 481.129 387.112 482.315 390.207 483.199C391.754 483.64 392.999 484.006 393.853 484.26C394.281 484.387 394.61 484.486 394.832 484.553C394.942 484.587 395.026 484.612 395.081 484.629C395.109 484.637 395.129 484.643 395.142 484.647C395.149 484.65 395.154 484.651 395.156 484.652C395.158 484.652 395.159 484.653 395.159 484.653C395.16 484.653 395.16 484.653 395.16 484.653C395.16 484.653 395.16 484.653 396.627 479.873C398.095 475.093 398.095 475.093 398.094 475.093C398.094 475.093 398.093 475.093 398.093 475.093C398.091 475.092 398.089 475.092 398.087 475.091C398.083 475.09 398.076 475.088 398.068 475.085C398.052 475.08 398.028 475.073 397.997 475.063C397.935 475.045 397.845 475.017 397.727 474.981C397.491 474.91 397.147 474.806 396.704 474.675C395.818 474.411 394.538 474.036 392.952 473.583C389.783 472.678 385.379 471.463 380.442 470.222C370.698 467.772 358.432 465.105 349.534 464.687L349.065 474.676ZM138.452 455.835C138.961 450.861 138.96 450.861 138.959 450.861C138.959 450.861 138.958 450.861 138.957 450.861C138.956 450.861 138.955 450.86 138.953 450.86C138.95 450.86 138.946 450.86 138.942 450.859C138.933 450.858 138.921 450.857 138.906 450.856C138.876 450.853 138.835 450.849 138.782 450.844C138.677 450.834 138.526 450.82 138.332 450.804C137.943 450.77 137.379 450.726 136.648 450.676C135.186 450.578 133.058 450.461 130.344 450.383C124.915 450.228 117.132 450.229 107.621 450.846L108.267 460.825C117.431 460.231 124.901 460.232 130.058 460.379C132.636 460.453 134.634 460.563 135.975 460.654C136.645 460.699 137.151 460.739 137.482 460.767C137.648 460.782 137.77 460.793 137.847 460.8C137.886 460.804 137.913 460.806 137.929 460.808C137.937 460.809 137.943 460.809 137.945 460.809C137.946 460.809 137.947 460.809 137.946 460.809C137.946 460.809 137.946 460.809 137.945 460.809C137.945 460.809 137.945 460.809 137.945 460.809C137.944 460.809 137.943 460.809 138.452 455.835ZM107.621 450.846C98.2362 451.454 90.3677 452.099 84.841 452.593C82.0774 452.84 79.8984 453.049 78.4074 453.197C77.6618 453.271 77.0881 453.329 76.6993 453.369C76.5048 453.39 76.3566 453.405 76.2561 453.416C76.2059 453.421 76.1676 453.425 76.1415 453.428C76.1285 453.429 76.1184 453.43 76.1115 453.431C76.108 453.431 76.1053 453.432 76.1033 453.432C76.1024 453.432 76.1016 453.432 76.101 453.432C76.1007 453.432 76.1004 453.432 76.1003 453.432C76.1 453.432 76.0998 453.432 76.6344 458.404C77.169 463.375 77.1689 463.375 77.1689 463.375C77.1689 463.375 77.1689 463.375 77.169 463.375C77.1692 463.375 77.1695 463.375 77.1701 463.375C77.1712 463.375 77.1731 463.375 77.1758 463.374C77.1811 463.374 77.1895 463.373 77.2009 463.372C77.2238 463.369 77.2587 463.365 77.3056 463.361C77.3994 463.351 77.5408 463.336 77.7283 463.316C78.1034 463.278 78.6627 463.221 79.3934 463.148C80.8549 463.003 83.0018 462.797 85.7312 462.553C91.1906 462.065 98.9768 461.427 108.267 460.825L107.621 450.846ZM143.075 430.983C144.072 426.083 144.072 426.083 144.071 426.083C144.071 426.083 144.071 426.083 144.07 426.083C144.069 426.083 144.068 426.082 144.066 426.082C144.063 426.081 144.058 426.08 144.052 426.079C144.039 426.076 144.02 426.073 143.996 426.068C143.947 426.058 143.875 426.043 143.781 426.024C143.594 425.987 143.317 425.931 142.961 425.86C142.248 425.719 141.213 425.514 139.919 425.264C137.331 424.764 133.705 424.078 129.548 423.336C121.261 421.856 110.75 420.132 102.124 419.217L101.069 429.161C109.331 430.038 119.559 431.71 127.79 433.18C131.891 433.912 135.468 434.589 138.019 435.082C139.295 435.329 140.313 435.53 141.01 435.668C141.359 435.738 141.628 435.792 141.808 435.828C141.899 435.846 141.967 435.86 142.012 435.869C142.035 435.874 142.052 435.877 142.063 435.879C142.069 435.88 142.073 435.881 142.075 435.882C142.076 435.882 142.077 435.882 142.078 435.882C142.078 435.882 142.078 435.882 142.078 435.882C142.078 435.882 142.078 435.882 143.075 430.983ZM102.124 419.217C93.4318 418.295 83.8377 418.047 76.4809 418.024C72.7884 418.012 69.6303 418.057 67.3921 418.105C66.2726 418.129 65.3821 418.154 64.7686 418.173C64.4618 418.182 64.2242 418.19 64.0618 418.196C63.9806 418.198 63.9182 418.201 63.8753 418.202C63.8539 418.203 63.8373 418.204 63.8257 418.204C63.8199 418.204 63.8154 418.205 63.8121 418.205C63.8105 418.205 63.8091 418.205 63.8081 418.205C63.8076 418.205 63.8071 418.205 63.8068 418.205C63.8064 418.205 63.806 418.205 63.9997 423.201C64.1934 428.197 64.1932 428.197 64.1931 428.197C64.1931 428.197 64.1931 428.197 64.1932 428.197C64.1935 428.197 64.194 428.197 64.1949 428.197C64.1966 428.197 64.1996 428.197 64.2038 428.197C64.2123 428.197 64.2257 428.196 64.244 428.196C64.2805 428.194 64.3364 428.192 64.411 428.19C64.5602 428.184 64.784 428.177 65.0764 428.168C65.6614 428.15 66.5207 428.126 67.6065 428.103C69.779 428.056 72.8535 428.012 76.4491 428.024C83.6686 428.047 92.8729 428.292 101.069 429.161L102.124 419.217ZM558.198 420.478C559.884 425.186 559.884 425.186 559.883 425.186C559.883 425.186 559.883 425.186 559.883 425.186C559.883 425.186 559.884 425.186 559.884 425.185C559.886 425.185 559.888 425.184 559.892 425.183C559.899 425.18 559.912 425.176 559.928 425.17C559.961 425.158 560.013 425.14 560.082 425.115C560.221 425.066 560.43 424.993 560.705 424.898C561.254 424.708 562.064 424.432 563.095 424.09C565.157 423.406 568.093 422.465 571.574 421.439C578.565 419.379 587.622 417.017 596.15 415.699L594.622 405.816C585.465 407.232 575.928 409.73 568.747 411.847C565.141 412.91 562.096 413.886 559.948 414.598C558.874 414.954 558.022 415.245 557.436 415.448C557.143 415.549 556.916 415.628 556.76 415.683C556.682 415.711 556.622 415.732 556.58 415.747C556.559 415.754 556.543 415.76 556.532 415.764C556.526 415.766 556.521 415.768 556.518 415.769C556.516 415.77 556.515 415.77 556.514 415.771C556.513 415.771 556.513 415.771 556.512 415.771C556.512 415.771 556.511 415.771 558.198 420.478ZM596.15 415.699C604.785 414.364 614.525 413.514 622.161 412.999C625.967 412.743 629.226 412.57 631.531 412.462C632.683 412.409 633.596 412.371 634.218 412.346C634.529 412.334 634.768 412.326 634.927 412.32C635.007 412.317 635.067 412.315 635.106 412.314C635.126 412.313 635.14 412.313 635.149 412.312C635.154 412.312 635.157 412.312 635.159 412.312C635.16 412.312 635.161 412.312 635.161 412.312C635.162 412.312 635.162 412.312 635.162 412.312C635.162 412.312 635.161 412.312 635 407.314C634.839 402.317 634.838 402.317 634.838 402.317C634.838 402.317 634.837 402.317 634.837 402.317C634.836 402.317 634.834 402.317 634.833 402.317C634.829 402.317 634.825 402.318 634.819 402.318C634.807 402.318 634.79 402.319 634.767 402.319C634.723 402.321 634.657 402.323 634.572 402.326C634.401 402.332 634.152 402.341 633.828 402.354C633.182 402.379 632.244 402.418 631.064 402.473C628.704 402.584 625.375 402.76 621.488 403.022C613.739 403.545 603.672 404.417 594.622 405.816L596.15 415.699ZM562.846 444.68C563.608 449.622 563.608 449.622 563.608 449.622L563.607 449.622C563.607 449.622 563.608 449.622 563.608 449.622C563.609 449.622 563.611 449.622 563.614 449.621C563.62 449.62 563.629 449.619 563.642 449.617C563.669 449.613 563.71 449.607 563.766 449.598C563.877 449.582 564.045 449.557 564.267 449.525C564.711 449.461 565.367 449.368 566.205 449.257C567.881 449.034 570.278 448.736 573.141 448.438C578.887 447.84 586.43 447.25 593.769 447.25V437.25C585.951 437.25 578.031 437.875 572.106 438.492C569.133 438.802 566.641 439.111 564.888 439.344C564.011 439.461 563.317 439.558 562.839 439.627C562.6 439.662 562.415 439.689 562.288 439.708C562.225 439.717 562.176 439.725 562.141 439.73C562.124 439.733 562.111 439.735 562.102 439.736C562.097 439.737 562.093 439.737 562.09 439.738C562.089 439.738 562.087 439.738 562.087 439.738C562.086 439.738 562.086 439.739 562.085 439.739C562.085 439.739 562.084 439.739 562.846 444.68ZM593.769 447.25C601.28 447.25 609.21 447.426 615.275 447.602C618.305 447.691 620.862 447.779 622.661 447.845C623.561 447.878 624.27 447.905 624.754 447.924C624.996 447.934 625.181 447.942 625.306 447.947C625.368 447.949 625.415 447.951 625.446 447.953C625.462 447.953 625.474 447.954 625.481 447.954C625.485 447.954 625.488 447.954 625.49 447.954C625.49 447.954 625.491 447.954 625.491 447.954C625.492 447.954 625.492 447.954 625.492 447.954C625.492 447.954 625.492 447.954 625.703 442.959C625.914 437.963 625.914 437.963 625.914 437.963C625.914 437.963 625.913 437.963 625.913 437.963C625.912 437.963 625.911 437.963 625.91 437.963C625.908 437.963 625.905 437.963 625.9 437.963C625.892 437.962 625.879 437.962 625.862 437.961C625.829 437.96 625.78 437.958 625.716 437.955C625.587 437.95 625.397 437.942 625.151 437.932C624.658 437.913 623.939 437.885 623.028 437.852C621.209 437.785 618.625 437.696 615.566 437.607C609.454 437.429 601.417 437.25 593.769 437.25V447.25ZM347.462 424.037C350.294 419.917 350.295 419.917 350.295 419.917C350.295 419.917 350.295 419.917 350.295 419.917C350.295 419.917 350.295 419.917 350.294 419.917C350.294 419.916 350.292 419.915 350.29 419.914C350.286 419.911 350.28 419.907 350.271 419.9C350.253 419.888 350.225 419.869 350.188 419.843C350.114 419.792 350.002 419.714 349.856 419.612C349.565 419.409 349.141 419.11 348.616 418.736C347.565 417.985 346.117 416.935 344.532 415.736C341.27 413.268 337.748 410.41 335.766 408.276L328.439 415.082C331.079 417.924 335.238 421.244 338.499 423.711C340.176 424.98 341.701 426.086 342.808 426.876C343.361 427.271 343.812 427.588 344.126 427.808C344.284 427.918 344.407 428.003 344.492 428.062C344.534 428.092 344.568 428.115 344.591 428.13C344.602 428.138 344.611 428.145 344.617 428.149C344.621 428.151 344.623 428.153 344.625 428.154C344.626 428.155 344.627 428.155 344.628 428.156C344.628 428.156 344.628 428.156 344.628 428.157C344.629 428.157 344.629 428.157 347.462 424.037ZM335.766 408.276C333.723 406.076 331.95 403.606 330.637 401.46C329.984 400.392 329.468 399.442 329.102 398.689C328.7 397.859 328.587 397.486 328.591 397.505L318.888 399.924C319.331 401.698 320.618 404.245 322.107 406.678C323.697 409.277 325.86 412.305 328.439 415.082L335.766 408.276ZM362.626 399.44C362.299 402.845 361.023 404.949 357.277 408.998L364.616 415.79C368.812 411.255 371.934 407.124 372.58 400.396L362.626 399.44ZM357.277 408.998C354.65 411.836 351.489 414.574 348.922 416.64C347.652 417.662 346.554 418.499 345.778 419.077C345.39 419.365 345.084 419.588 344.879 419.737C344.777 419.811 344.699 419.866 344.649 419.901C344.625 419.919 344.607 419.932 344.596 419.94C344.591 419.943 344.587 419.946 344.585 419.947C344.584 419.948 344.584 419.948 344.584 419.948C344.584 419.948 344.584 419.948 344.584 419.948C344.585 419.948 344.585 419.947 344.585 419.947C344.585 419.947 344.586 419.947 347.462 424.037C350.338 428.127 350.338 428.126 350.339 428.126C350.339 428.126 350.339 428.126 350.34 428.125C350.34 428.125 350.341 428.124 350.342 428.124C350.344 428.122 350.347 428.121 350.35 428.118C350.355 428.114 350.363 428.109 350.372 428.102C350.391 428.089 350.418 428.07 350.451 428.046C350.518 427.999 350.613 427.931 350.734 427.844C350.975 427.669 351.32 427.418 351.75 427.098C352.608 426.459 353.807 425.545 355.193 424.43C357.938 422.22 361.519 419.137 364.616 415.79L357.277 408.998Z" fill="white"/>
<path d="M345.902 387.01C331.724 386.688 323.525 394.226 324.552 398.343C325.027 400.249 328.174 406.077 332.651 410.895C337.128 415.714 347.526 422.861 347.526 422.861C347.526 422.861 355.042 417.577 360.586 411.587C364.432 407.433 366.561 404.414 367.032 399.508C367.504 394.602 360.08 387.332 345.902 387.01Z" fill="black"/>
<path d="M347.526 422.861C347.526 422.861 328.75 438.29 318.734 441.89C308.718 445.49 295.29 444.119 295.29 444.119C297.964 459.274 299.983 466.931 304.953 478.876C304.953 478.876 333.139 466.298 349.306 467.057C365.473 467.816 395.142 476.925 395.142 476.925C395.142 476.925 397.752 468.979 400.312 458.047C402.871 447.115 402.733 438.21 402.733 438.21H396.752C396.752 438.21 388.556 465.983 377.741 463.414C366.926 460.846 367.504 434.518 367.504 434.518C355.012 430.498 347.526 422.861 347.526 422.861Z" fill="#D42232"/>
<path d="M396.752 438.21C396.752 438.21 386.424 438.089 382.076 437.449C377.729 436.81 367.504 434.518 367.504 434.518C367.504 434.518 366.926 460.846 377.741 463.414C388.556 465.983 396.752 438.21 396.752 438.21Z" fill="white"/>
<path d="M304.953 478.876C313.552 501.428 329.643 506.498 346.929 508.76C364.214 511.021 382.403 497.085 395.142 476.925C395.142 476.925 365.473 467.816 349.306 467.057C333.139 466.298 304.953 478.876 304.953 478.876Z" fill="#B65156"/>
<path d="M324.552 398.343L326.978 397.738L324.552 398.343ZM276.106 430.352C275.457 429.133 273.943 428.671 272.724 429.321C271.506 429.97 271.044 431.484 271.693 432.702L276.106 430.352ZM395.142 476.925L397.255 478.26L397.42 477.999L397.517 477.705L395.142 476.925ZM426.093 428.88C427.06 427.895 427.046 426.312 426.061 425.345C425.076 424.378 423.493 424.392 422.526 425.377L426.093 428.88ZM550.776 417.062C549.476 417.528 548.8 418.959 549.265 420.259C549.731 421.558 551.162 422.235 552.462 421.769L550.776 417.062ZM626.081 409.168C627.461 409.124 628.543 407.969 628.499 406.589C628.454 405.209 627.299 404.126 625.919 404.171L626.081 409.168ZM555.74 440.378C554.375 440.589 553.44 441.865 553.65 443.23C553.86 444.595 555.137 445.53 556.502 445.32L555.74 440.378ZM616.89 443.68C618.27 443.738 619.436 442.667 619.494 441.288C619.552 439.908 618.481 438.743 617.102 438.685L616.89 443.68ZM149.084 432.036C150.437 432.312 151.757 431.438 152.032 430.085C152.307 428.732 151.434 427.412 150.081 427.137L149.084 432.036ZM72.9029 419.554C71.5232 419.607 70.4481 420.769 70.5016 422.149C70.5551 423.528 71.7169 424.604 73.0966 424.55L72.9029 419.554ZM144.851 456.137C146.224 456.277 147.452 455.278 147.592 453.904C147.732 452.531 146.733 451.303 145.359 451.163L144.851 456.137ZM84.9689 453.651C83.5961 453.799 82.6029 455.031 82.7505 456.404C82.8981 457.777 84.1306 458.77 85.5034 458.623L84.9689 453.651ZM360.586 411.587L362.421 413.286L360.586 411.587ZM326.978 397.738C326.955 397.648 326.909 397.133 327.547 396.168C328.156 395.245 329.245 394.157 330.871 393.119C334.105 391.053 339.201 389.358 345.845 389.509L345.959 384.511C338.426 384.339 332.333 386.252 328.18 388.905C326.112 390.225 324.457 391.773 323.375 393.412C322.321 395.008 321.635 396.979 322.126 398.948L326.978 397.738ZM345.845 389.509C352.529 389.661 357.434 391.447 360.538 393.595C363.778 395.839 364.653 398.128 364.544 399.269L369.521 399.747C369.883 395.982 367.282 392.183 363.384 389.484C359.349 386.691 353.454 384.681 345.959 384.511L345.845 389.509ZM347.526 422.861C345.939 420.929 345.939 420.929 345.939 420.929C345.939 420.929 345.939 420.93 345.938 420.93C345.938 420.93 345.937 420.931 345.936 420.931C345.935 420.933 345.932 420.935 345.927 420.939C345.919 420.946 345.906 420.956 345.889 420.97C345.855 420.998 345.803 421.04 345.735 421.096C345.598 421.207 345.395 421.372 345.132 421.583C344.607 422.006 343.842 422.617 342.893 423.361C340.994 424.85 338.36 426.871 335.419 429.001C329.441 433.332 322.514 437.875 317.888 439.538L319.579 444.243C324.97 442.305 332.439 437.334 338.353 433.05C341.358 430.873 344.044 428.812 345.978 427.295C346.946 426.537 347.727 425.913 348.267 425.479C348.537 425.261 348.747 425.091 348.891 424.974C348.962 424.916 349.017 424.871 349.054 424.841C349.073 424.825 349.087 424.814 349.097 424.806C349.102 424.802 349.106 424.798 349.109 424.796C349.11 424.795 349.111 424.794 349.112 424.794C349.112 424.793 349.112 424.793 349.113 424.793C349.113 424.793 349.113 424.793 347.526 422.861ZM317.888 439.538C313.253 441.204 307.704 441.75 303.198 441.855C300.967 441.907 299.039 441.85 297.672 441.78C296.989 441.745 296.449 441.707 296.083 441.678C295.9 441.664 295.761 441.652 295.67 441.644C295.624 441.639 295.59 441.636 295.569 441.634C295.559 441.633 295.551 441.632 295.547 441.632C295.545 441.632 295.544 441.632 295.543 441.632C295.543 441.632 295.543 441.632 295.543 441.632C295.543 441.632 295.543 441.632 295.543 441.632C295.544 441.632 295.544 441.632 295.29 444.119C295.036 446.606 295.036 446.606 295.037 446.606C295.037 446.606 295.038 446.606 295.038 446.606C295.039 446.606 295.04 446.606 295.042 446.606C295.044 446.607 295.048 446.607 295.052 446.608C295.061 446.608 295.073 446.61 295.088 446.611C295.119 446.614 295.162 446.618 295.217 446.623C295.327 446.633 295.486 446.647 295.69 446.663C296.098 446.695 296.684 446.736 297.417 446.774C298.881 446.848 300.935 446.909 303.314 446.854C308.025 446.744 314.199 446.177 319.579 444.243L317.888 439.538ZM296.217 441.797C287.025 438.125 281.879 435.071 279.08 433.014C277.684 431.988 276.885 431.219 276.462 430.758C276.251 430.527 276.135 430.375 276.085 430.305C276.06 430.27 276.051 430.256 276.056 430.264C276.059 430.268 276.064 430.277 276.073 430.292C276.077 430.299 276.082 430.307 276.087 430.318C276.09 430.323 276.093 430.328 276.096 430.334C276.098 430.336 276.099 430.339 276.101 430.342C276.102 430.344 276.103 430.346 276.103 430.347C276.105 430.349 276.106 430.352 273.9 431.527C271.693 432.702 271.694 432.705 271.696 432.707C271.696 432.708 271.697 432.711 271.698 432.712C271.7 432.716 271.702 432.719 271.704 432.722C271.708 432.729 271.712 432.737 271.716 432.744C271.724 432.759 271.733 432.775 271.743 432.793C271.763 432.827 271.786 432.866 271.813 432.909C271.867 432.996 271.936 433.1 272.022 433.22C272.195 433.461 272.438 433.768 272.775 434.135C273.449 434.87 274.5 435.853 276.12 437.043C279.353 439.419 284.902 442.661 294.362 446.44L296.217 441.797ZM302.617 479.766C307.097 491.515 313.613 498.884 321.394 503.568C329.101 508.208 337.859 510.094 346.604 511.239L347.253 506.281C338.712 505.163 330.782 503.384 323.973 499.285C317.237 495.23 311.408 488.789 307.289 477.985L302.617 479.766ZM346.604 511.239C356.042 512.473 365.524 509.261 374.159 503.309C382.798 497.354 390.75 488.555 397.255 478.26L393.028 475.589C386.795 485.454 379.282 493.704 371.321 499.192C363.356 504.683 355.101 507.308 347.253 506.281L346.604 511.239ZM402.746 458.617C404.061 453 404.682 447.911 404.974 444.227C405.121 442.382 405.185 440.884 405.213 439.839C405.227 439.317 405.232 438.908 405.234 438.625C405.234 438.484 405.234 438.375 405.234 438.298C405.233 438.26 405.233 438.23 405.233 438.209C405.233 438.198 405.233 438.19 405.232 438.184C405.232 438.18 405.232 438.178 405.232 438.176C405.232 438.175 405.232 438.174 405.232 438.173C405.232 438.173 405.232 438.172 405.232 438.172C405.232 438.171 405.232 438.171 402.733 438.21C400.233 438.249 400.233 438.249 400.233 438.248C400.233 438.248 400.233 438.248 400.233 438.248C400.233 438.248 400.233 438.248 400.233 438.248C400.233 438.248 400.233 438.248 400.233 438.249C400.233 438.252 400.233 438.256 400.233 438.263C400.233 438.276 400.233 438.297 400.234 438.327C400.234 438.387 400.234 438.479 400.234 438.603C400.232 438.85 400.228 439.222 400.215 439.705C400.189 440.672 400.129 442.083 399.99 443.831C399.712 447.332 399.122 452.162 397.877 457.477L402.746 458.617ZM403.184 440.669C410.13 439.394 415.837 436.454 419.785 433.861C421.766 432.561 423.321 431.337 424.39 430.429C424.925 429.975 425.34 429.6 425.626 429.332C425.769 429.198 425.88 429.091 425.958 429.014C425.997 428.976 426.028 428.946 426.051 428.923C426.062 428.912 426.071 428.903 426.078 428.895C426.082 428.892 426.085 428.889 426.087 428.886C426.088 428.885 426.09 428.884 426.091 428.883C426.091 428.882 426.092 428.882 426.092 428.882C426.092 428.881 426.093 428.88 424.309 427.129C422.526 425.377 422.526 425.376 422.527 425.376C422.527 425.376 422.527 425.375 422.527 425.375C422.528 425.375 422.528 425.374 422.528 425.374C422.529 425.374 422.529 425.374 422.528 425.374C422.527 425.376 422.524 425.379 422.518 425.384C422.508 425.395 422.489 425.413 422.463 425.439C422.409 425.491 422.325 425.573 422.209 425.681C421.978 425.898 421.624 426.219 421.155 426.617C420.217 427.414 418.825 428.51 417.041 429.681C413.463 432.031 408.381 434.631 402.281 435.751L403.184 440.669ZM402.733 435.71H396.752V440.71H402.733V435.71ZM396.752 438.21C396.781 435.71 396.781 435.71 396.781 435.71C396.781 435.71 396.781 435.71 396.781 435.71C396.781 435.71 396.78 435.71 396.78 435.71C396.779 435.71 396.777 435.71 396.775 435.71C396.77 435.71 396.763 435.71 396.754 435.71C396.735 435.71 396.706 435.709 396.669 435.709C396.594 435.708 396.482 435.706 396.339 435.704C396.052 435.699 395.635 435.692 395.122 435.682C394.094 435.66 392.68 435.626 391.132 435.571C387.989 435.46 384.456 435.272 382.44 434.976L381.712 439.923C384.044 440.266 387.849 440.458 390.956 440.568C392.534 440.624 393.974 440.659 395.019 440.681C395.541 440.691 395.966 440.699 396.26 440.703C396.408 440.706 396.523 440.707 396.601 440.708C396.64 440.709 396.67 440.709 396.691 440.709C396.701 440.71 396.709 440.71 396.714 440.71C396.717 440.71 396.719 440.71 396.72 440.71C396.721 440.71 396.721 440.71 396.722 440.71C396.722 440.71 396.722 440.71 396.722 440.71C396.722 440.71 396.723 440.71 396.752 438.21ZM396.752 438.21C394.354 437.502 394.354 437.502 394.354 437.502C394.354 437.502 394.354 437.502 394.354 437.502C394.354 437.502 394.354 437.503 394.354 437.504C394.353 437.506 394.352 437.51 394.35 437.515C394.347 437.526 394.342 437.543 394.335 437.567C394.32 437.615 394.298 437.687 394.269 437.783C394.209 437.975 394.12 438.261 394.001 438.625C393.764 439.356 393.411 440.402 392.954 441.651C392.038 444.158 390.715 447.446 389.078 450.633C387.423 453.855 385.531 456.809 383.524 458.774C381.499 460.757 379.803 461.334 378.319 460.982L377.163 465.847C381.087 466.778 384.47 464.847 387.023 462.346C389.596 459.826 391.78 456.318 393.526 452.917C395.29 449.483 396.692 445.988 397.65 443.368C398.131 442.054 398.503 440.95 398.756 440.171C398.883 439.782 398.98 439.473 399.046 439.259C399.079 439.153 399.104 439.07 399.121 439.012C399.13 438.983 399.137 438.961 399.142 438.945C399.144 438.937 399.146 438.931 399.147 438.926C399.148 438.924 399.148 438.922 399.149 438.921C399.149 438.92 399.149 438.919 399.149 438.919C399.15 438.918 399.15 438.918 396.752 438.21ZM382.44 434.976C380.354 434.669 376.785 433.953 373.675 433.298C372.133 432.973 370.726 432.668 369.704 432.444C369.193 432.333 368.779 432.241 368.493 432.178C368.35 432.146 368.239 432.121 368.164 432.104C368.126 432.096 368.098 432.09 368.079 432.085C368.069 432.083 368.062 432.082 368.057 432.081C368.055 432.08 368.053 432.08 368.052 432.079C368.052 432.079 368.051 432.079 368.051 432.079C368.051 432.079 368.051 432.079 368.051 432.079C368.051 432.079 368.051 432.079 367.504 434.518C366.957 436.958 366.957 436.958 366.957 436.958C366.957 436.958 366.958 436.958 366.958 436.958C366.958 436.958 366.959 436.958 366.959 436.958C366.961 436.959 366.963 436.959 366.965 436.96C366.97 436.961 366.978 436.963 366.988 436.965C367.008 436.969 367.037 436.976 367.076 436.984C367.152 437.002 367.265 437.027 367.41 437.059C367.7 437.123 368.119 437.216 368.635 437.329C369.666 437.554 371.087 437.862 372.645 438.19C375.734 438.841 379.451 439.59 381.712 439.923L382.44 434.976ZM368.27 432.139C362.319 430.224 357.549 427.442 354.268 425.137C352.629 423.986 351.371 422.959 350.53 422.229C350.11 421.865 349.795 421.575 349.59 421.381C349.488 421.284 349.413 421.211 349.366 421.165C349.343 421.142 349.326 421.126 349.317 421.117C349.313 421.112 349.31 421.11 349.309 421.109C349.308 421.108 349.308 421.108 349.309 421.108C349.309 421.109 349.309 421.109 349.31 421.109C349.31 421.11 349.31 421.11 349.31 421.11C349.311 421.111 349.311 421.111 347.526 422.861C345.741 424.611 345.741 424.611 345.742 424.612C345.742 424.612 345.742 424.613 345.743 424.613C345.744 424.614 345.745 424.615 345.746 424.616C345.748 424.619 345.751 424.621 345.754 424.625C345.76 424.631 345.768 424.639 345.778 424.649C345.798 424.669 345.826 424.696 345.86 424.73C345.929 424.798 346.027 424.893 346.154 425.013C346.407 425.253 346.775 425.591 347.252 426.005C348.205 426.833 349.598 427.967 351.393 429.228C354.978 431.746 360.197 434.793 366.738 436.898L368.27 432.139ZM378.319 460.982C376.628 460.58 375.108 459.192 373.799 456.665C372.5 454.161 371.614 450.913 371.03 447.572C370.45 444.26 370.192 441.001 370.08 438.558C370.024 437.34 370.005 436.334 370 435.636C369.998 435.288 369.998 435.017 370 434.835C370.001 434.745 370.002 434.676 370.002 434.632C370.003 434.61 370.003 434.594 370.003 434.584C370.003 434.579 370.003 434.576 370.003 434.574C370.003 434.573 370.003 434.573 370.003 434.572C370.003 434.572 370.003 434.573 370.003 434.573C370.003 434.573 370.003 434.573 367.504 434.518C365.004 434.464 365.004 434.464 365.004 434.465C365.004 434.465 365.004 434.466 365.004 434.467C365.004 434.468 365.004 434.47 365.004 434.473C365.004 434.477 365.004 434.483 365.004 434.491C365.004 434.506 365.003 434.528 365.003 434.556C365.002 434.611 365.001 434.691 365 434.794C364.998 435 364.997 435.297 365 435.673C365.006 436.425 365.026 437.496 365.085 438.787C365.203 441.36 365.476 444.844 366.104 448.434C366.727 451.996 367.724 455.812 369.36 458.966C370.983 462.098 373.447 464.964 377.163 465.847L378.319 460.982ZM292.828 444.553C295.524 459.833 297.585 467.677 302.645 479.836L307.261 477.915C302.38 466.185 300.404 458.715 297.752 443.684L292.828 444.553ZM304.953 478.876C305.972 481.159 305.972 481.159 305.971 481.159C305.972 481.159 305.972 481.159 305.972 481.159C305.972 481.158 305.973 481.158 305.975 481.157C305.977 481.156 305.982 481.154 305.988 481.151C306 481.146 306.019 481.138 306.044 481.126C306.095 481.104 306.172 481.07 306.274 481.025C306.479 480.936 306.783 480.804 307.177 480.636C307.966 480.299 309.114 479.818 310.544 479.241C313.407 478.087 317.388 476.557 321.864 475.051C330.931 472.002 341.621 469.199 349.189 469.554L349.423 464.56C340.825 464.156 329.338 467.262 320.27 470.312C315.678 471.856 311.602 473.423 308.675 474.604C307.21 475.194 306.03 475.689 305.214 476.037C304.806 476.212 304.489 476.349 304.272 476.444C304.164 476.491 304.081 476.528 304.024 476.553C303.996 476.565 303.974 476.575 303.959 476.582C303.951 476.585 303.946 476.588 303.941 476.589C303.939 476.59 303.938 476.591 303.937 476.592C303.936 476.592 303.935 476.592 303.935 476.592C303.935 476.593 303.934 476.593 304.953 478.876ZM395.142 476.925C397.517 477.705 397.517 477.705 397.517 477.705C397.517 477.705 397.517 477.704 397.517 477.704C397.517 477.704 397.517 477.703 397.518 477.702C397.518 477.701 397.519 477.699 397.519 477.697C397.521 477.692 397.523 477.686 397.526 477.677C397.531 477.661 397.539 477.636 397.55 477.604C397.57 477.54 397.601 477.447 397.64 477.324C397.718 477.079 397.832 476.719 397.977 476.255C398.266 475.325 398.677 473.975 399.168 472.282C400.15 468.897 401.454 464.134 402.746 458.617L397.877 457.477C396.61 462.892 395.329 467.568 394.366 470.889C393.884 472.549 393.483 473.868 393.202 474.77C393.062 475.221 392.952 475.568 392.878 475.8C392.841 475.916 392.812 476.004 392.794 476.062C392.784 476.09 392.777 476.112 392.773 476.126C392.77 476.133 392.769 476.138 392.768 476.141C392.767 476.142 392.767 476.144 392.767 476.144C392.767 476.144 392.767 476.145 392.767 476.145C392.767 476.145 392.767 476.145 392.767 476.145C392.767 476.145 392.767 476.145 395.142 476.925ZM349.189 469.554C356.997 469.921 368.239 472.328 377.677 474.7C382.364 475.878 386.552 477.033 389.567 477.894C391.075 478.324 392.288 478.68 393.123 478.928C393.54 479.052 393.863 479.149 394.081 479.215C394.19 479.248 394.272 479.273 394.327 479.29C394.355 479.298 394.375 479.305 394.389 479.309C394.396 479.311 394.401 479.312 394.404 479.313C394.405 479.314 394.407 479.314 394.407 479.314C394.408 479.315 394.408 479.315 394.408 479.315C394.408 479.315 394.408 479.315 395.142 476.925C395.875 474.535 395.875 474.535 395.875 474.535C395.875 474.535 395.874 474.534 395.874 474.534C395.872 474.534 395.871 474.533 395.869 474.533C395.865 474.532 395.859 474.53 395.851 474.528C395.836 474.523 395.814 474.516 395.785 474.507C395.727 474.489 395.641 474.463 395.528 474.429C395.303 474.361 394.973 474.262 394.548 474.136C393.697 473.883 392.466 473.521 390.939 473.086C387.887 472.214 383.647 471.045 378.896 469.851C369.458 467.479 357.782 464.952 349.423 464.56L349.189 469.554ZM145.105 453.65C145.359 451.163 145.359 451.163 145.358 451.163C145.358 451.163 145.358 451.163 145.357 451.163C145.357 451.163 145.356 451.162 145.355 451.162C145.352 451.162 145.349 451.162 145.346 451.161C145.338 451.161 145.328 451.16 145.316 451.158C145.29 451.156 145.253 451.152 145.206 451.148C145.11 451.139 144.971 451.126 144.79 451.111C144.427 451.08 143.894 451.038 143.2 450.991C141.813 450.897 139.783 450.786 137.185 450.712C131.992 450.563 124.527 450.564 115.397 451.155L115.72 456.145C124.676 455.565 131.985 455.565 137.043 455.71C139.571 455.782 141.537 455.89 142.863 455.979C143.527 456.024 144.03 456.064 144.365 456.093C144.532 456.107 144.657 456.118 144.738 456.126C144.779 456.13 144.809 456.133 144.828 456.135C144.837 456.136 144.844 456.136 144.847 456.137C144.849 456.137 144.851 456.137 144.851 456.137C144.852 456.137 144.852 456.137 144.852 456.137C144.851 456.137 144.851 456.137 144.851 456.137C144.851 456.137 144.851 456.137 145.105 453.65ZM115.397 451.155C106.33 451.742 98.7293 452.366 93.3926 452.843C90.7241 453.081 88.6214 453.283 87.1842 453.425C86.4656 453.496 85.9134 453.553 85.54 453.591C85.3533 453.611 85.2114 453.626 85.1157 453.636C85.0678 453.641 85.0315 453.645 85.007 453.647C84.9947 453.648 84.9854 453.649 84.979 453.65C84.9759 453.65 84.9734 453.651 84.9717 453.651C84.9709 453.651 84.9702 453.651 84.9698 453.651C84.9695 453.651 84.9693 453.651 84.9692 453.651C84.969 453.651 84.9689 453.651 85.2361 456.137C85.5034 458.623 85.5033 458.623 85.5034 458.623C85.5034 458.623 85.5035 458.623 85.5036 458.623C85.5039 458.623 85.5044 458.622 85.505 458.622C85.5063 458.622 85.5083 458.622 85.5111 458.622C85.5166 458.621 85.5251 458.62 85.5366 458.619C85.5595 458.617 85.5941 458.613 85.6403 458.608C85.7326 458.598 85.8712 458.584 86.0544 458.565C86.4209 458.527 86.966 458.471 87.6771 458.401C89.0995 458.26 91.1862 458.06 93.8376 457.823C99.1406 457.349 106.701 456.729 115.72 456.145L115.397 451.155ZM149.582 429.587C150.081 427.137 150.081 427.137 150.08 427.137C150.08 427.137 150.08 427.136 150.079 427.136C150.078 427.136 150.077 427.136 150.076 427.136C150.073 427.135 150.068 427.134 150.062 427.133C150.05 427.13 150.033 427.127 150.009 427.122C149.963 427.113 149.894 427.099 149.804 427.081C149.624 427.045 149.358 426.991 149.015 426.923C148.328 426.786 147.329 426.59 146.08 426.348C143.583 425.865 140.083 425.203 136.069 424.487C128.057 423.057 117.944 421.399 109.675 420.523L109.148 425.495C117.234 426.352 127.206 427.984 135.191 429.409C139.176 430.12 142.652 430.778 145.131 431.257C146.37 431.497 147.36 431.692 148.04 431.827C148.379 431.895 148.641 431.947 148.818 431.983C148.906 432 148.973 432.014 149.018 432.023C149.04 432.027 149.057 432.031 149.068 432.033C149.074 432.034 149.078 432.035 149.08 432.036C149.082 432.036 149.083 432.036 149.083 432.036C149.084 432.036 149.084 432.036 149.084 432.036C149.084 432.036 149.084 432.036 149.582 429.587ZM109.675 420.523C101.373 419.642 92.1727 419.403 85.08 419.38C81.5266 419.369 78.4876 419.412 76.3354 419.458C75.2591 419.481 74.404 419.505 73.8165 419.523C73.5227 419.532 73.2959 419.54 73.1417 419.545C73.0646 419.548 73.0057 419.55 72.9656 419.551C72.9456 419.552 72.9303 419.553 72.9198 419.553C72.9146 419.553 72.9105 419.554 72.9077 419.554C72.9063 419.554 72.9052 419.554 72.9044 419.554C72.904 419.554 72.9036 419.554 72.9034 419.554C72.9031 419.554 72.9029 419.554 72.9997 422.052C73.0966 424.55 73.0965 424.55 73.0965 424.55C73.0966 424.55 73.0967 424.55 73.0969 424.55C73.0973 424.55 73.098 424.55 73.0991 424.55C73.1011 424.55 73.1044 424.55 73.1088 424.55C73.1177 424.549 73.1315 424.549 73.1499 424.548C73.1867 424.547 73.2424 424.545 73.3162 424.542C73.4638 424.537 73.6838 424.53 73.9704 424.521C74.5436 424.503 75.3831 424.48 76.4426 424.457C78.5619 424.412 81.5592 424.369 85.0641 424.38C92.0882 424.402 101.094 424.641 109.148 425.495L109.675 420.523ZM551.619 419.416C552.462 421.769 552.462 421.769 552.462 421.769C552.462 421.769 552.462 421.769 552.462 421.769C552.462 421.769 552.463 421.769 552.464 421.769C552.465 421.768 552.468 421.767 552.472 421.765C552.481 421.763 552.493 421.758 552.51 421.752C552.544 421.74 552.596 421.721 552.666 421.697C552.804 421.648 553.011 421.576 553.281 421.483C553.821 421.296 554.616 421.024 555.624 420.69C557.641 420.022 560.511 419.102 563.911 418.1C570.726 416.092 579.61 413.773 588.017 412.474L587.253 407.532C578.532 408.88 569.408 411.268 562.498 413.304C559.035 414.324 556.111 415.261 554.051 415.944C553.021 416.286 552.206 416.564 551.647 416.757C551.367 416.854 551.151 416.929 551.005 416.981C550.931 417.007 550.875 417.027 550.837 417.04C550.817 417.047 550.803 417.052 550.793 417.056C550.787 417.058 550.784 417.059 550.781 417.06C550.779 417.061 550.778 417.061 550.777 417.061C550.777 417.062 550.777 417.062 550.776 417.062C550.776 417.062 550.776 417.062 551.619 419.416ZM588.017 412.474C596.477 411.166 605.986 410.338 613.408 409.838C617.113 409.588 620.286 409.42 622.531 409.315C623.653 409.263 624.543 409.226 625.151 409.202C625.455 409.19 625.689 409.182 625.846 409.176C625.925 409.174 625.984 409.172 626.023 409.17C626.043 409.17 626.058 409.169 626.067 409.169C626.072 409.169 626.076 409.168 626.078 409.168C626.079 409.168 626.08 409.168 626.08 409.168C626.081 409.168 626.081 409.168 626.081 409.168C626.081 409.168 626.081 409.168 626 406.67C625.919 404.171 625.919 404.171 625.919 404.171C625.919 404.171 625.918 404.171 625.918 404.171C625.917 404.171 625.916 404.171 625.914 404.171C625.912 404.171 625.907 404.171 625.902 404.171C625.891 404.172 625.875 404.172 625.854 404.173C625.812 404.174 625.75 404.177 625.669 404.18C625.506 404.185 625.267 404.194 624.957 404.206C624.337 404.23 623.434 404.268 622.297 404.321C620.025 404.427 616.817 404.597 613.072 404.849C605.593 405.354 595.92 406.193 587.253 407.532L588.017 412.474ZM556.121 442.849C556.502 445.32 556.501 445.32 556.501 445.32C556.501 445.32 556.501 445.32 556.502 445.32C556.502 445.32 556.502 445.32 556.503 445.32C556.504 445.32 556.507 445.319 556.51 445.319C556.516 445.318 556.526 445.316 556.54 445.314C556.568 445.31 556.609 445.304 556.665 445.295C556.776 445.279 556.944 445.254 557.162 445.223C557.6 445.159 558.244 445.069 559.065 444.96C560.706 444.742 563.05 444.451 565.849 444.159C571.456 443.576 578.848 442.996 586.069 442.996L586.069 437.996C578.609 437.996 571.028 438.593 565.331 439.186C562.478 439.483 560.087 439.78 558.407 440.003C557.566 440.115 556.903 440.208 556.449 440.274C556.221 440.307 556.046 440.332 555.927 440.35C555.867 440.359 555.821 440.366 555.79 440.371C555.774 440.373 555.762 440.375 555.754 440.376C555.75 440.377 555.746 440.377 555.744 440.378C555.743 440.378 555.742 440.378 555.741 440.378C555.741 440.378 555.741 440.378 555.74 440.378C555.74 440.378 555.74 440.378 556.121 442.849ZM586.069 442.996C593.375 442.996 601.08 443.167 606.965 443.338C609.906 443.424 612.389 443.509 614.136 443.574C615.01 443.606 615.699 443.632 616.17 443.651C616.405 443.66 616.586 443.668 616.708 443.673C616.768 443.675 616.814 443.677 616.845 443.678C616.86 443.679 616.872 443.679 616.879 443.68C616.883 443.68 616.886 443.68 616.888 443.68C616.889 443.68 616.89 443.68 616.89 443.68C616.89 443.68 616.89 443.68 616.89 443.68C616.89 443.68 616.89 443.68 616.996 441.182C617.102 438.685 617.101 438.685 617.101 438.685C617.101 438.685 617.101 438.685 617.101 438.685C617.1 438.685 617.099 438.685 617.098 438.685C617.096 438.684 617.093 438.684 617.089 438.684C617.081 438.684 617.069 438.683 617.053 438.683C617.021 438.681 616.974 438.679 616.912 438.677C616.789 438.672 616.606 438.664 616.368 438.655C615.893 438.636 615.199 438.609 614.32 438.577C612.562 438.512 610.066 438.426 607.11 438.34C601.202 438.168 593.444 437.996 586.069 437.996L586.069 442.996ZM347.526 422.861C348.942 420.801 348.942 420.801 348.942 420.801C348.942 420.801 348.942 420.801 348.942 420.801C348.942 420.801 348.942 420.8 348.941 420.8C348.94 420.799 348.939 420.798 348.936 420.797C348.932 420.794 348.925 420.789 348.916 420.783C348.897 420.77 348.869 420.75 348.832 420.725C348.757 420.673 348.646 420.596 348.503 420.495C348.215 420.295 347.798 420.001 347.283 419.634C346.252 418.898 344.832 417.868 343.275 416.691C340.116 414.302 336.556 411.426 334.483 409.194L330.82 412.597C333.222 415.183 337.1 418.29 340.259 420.679C341.862 421.891 343.321 422.949 344.379 423.704C344.909 424.082 345.339 424.385 345.638 424.594C345.788 424.698 345.904 424.779 345.984 424.834C346.024 424.862 346.055 424.883 346.076 424.898C346.087 424.905 346.095 424.911 346.1 424.915C346.103 424.917 346.105 424.918 346.107 424.919C346.108 424.92 346.108 424.92 346.109 424.921C346.109 424.921 346.109 424.921 346.109 424.921C346.11 424.921 346.11 424.921 347.526 422.861ZM334.483 409.194C332.378 406.929 330.57 404.407 329.234 402.222C327.846 399.955 327.117 398.297 326.978 397.738L322.126 398.948C322.462 400.296 323.544 402.504 324.969 404.832C326.444 407.243 328.447 410.043 330.82 412.597L334.483 409.194ZM364.544 399.269C364.152 403.344 362.485 405.856 358.751 409.889L362.421 413.286C366.379 409.009 368.97 405.484 369.521 399.747L364.544 399.269ZM358.751 409.889C356.097 412.757 352.937 415.489 350.41 417.523C349.152 418.534 348.065 419.363 347.294 419.936C346.909 420.223 346.604 420.446 346.396 420.595C346.293 420.67 346.214 420.727 346.162 420.764C346.135 420.782 346.116 420.796 346.104 420.805C346.098 420.809 346.093 420.812 346.091 420.814C346.089 420.815 346.088 420.816 346.088 420.816C346.088 420.816 346.088 420.816 346.088 420.816C346.088 420.816 346.088 420.816 346.088 420.816C346.088 420.816 346.088 420.816 347.526 422.861C348.964 424.906 348.964 424.906 348.964 424.906C348.964 424.906 348.965 424.906 348.965 424.905C348.965 424.905 348.966 424.905 348.967 424.904C348.968 424.903 348.97 424.902 348.972 424.9C348.977 424.897 348.983 424.892 348.992 424.887C349.008 424.875 349.032 424.858 349.062 424.837C349.123 424.793 349.21 424.731 349.323 424.649C349.549 424.486 349.874 424.249 350.28 423.947C351.091 423.343 352.23 422.476 353.544 421.418C356.161 419.312 359.531 416.407 362.421 413.286L358.751 409.889Z" fill="black"/>
</svg>
