<svg width="701" height="901" viewBox="0 0 701 901" fill="none" xmlns="http://www.w3.org/2000/svg">
<path fill-rule="evenodd" clip-rule="evenodd" d="M422.581 345.532C419.198 345.7 416.514 348.034 415.459 350.791C414.403 353.549 415.107 360.125 416.637 362.174C418.168 364.224 420.705 366 424.734 365.759C428.762 365.518 429.706 361.765 430.287 359.25C430.867 356.734 430.728 353.209 429.443 350.456C428.157 347.704 425.965 345.364 422.581 345.532ZM420.067 355.412C419.954 353.534 421.12 352.065 422.581 352.047C424.042 352.028 425.098 353.276 425.115 354.841C425.133 356.406 424.254 357.74 422.741 357.927C421.228 358.113 420.18 357.289 420.067 355.412Z" fill="white"/>
<path fill-rule="evenodd" clip-rule="evenodd" d="M440.454 363.646C442.969 363.833 445.502 362.584 446.768 360.926C448.035 359.268 448.263 358.468 448.263 358.468C448.263 358.468 447.989 355.356 447.989 354.946C447.989 354.536 447.789 352.748 447.789 352.748L446.375 346.159C446.375 346.159 445.871 345.296 445.168 344.439C444.464 343.582 443.497 342.725 443.497 342.725C443.497 342.725 442.16 341.458 438.607 341.775C435.054 342.091 433.33 345.333 432.714 347.215C432.099 349.096 432.099 350.655 432.099 352.748C432.099 354.841 432.503 358.262 433.594 359.92C434.684 361.578 437.938 363.46 440.454 363.646ZM436.483 352.242C436.189 350.01 437.999 348.887 439.239 348.887C440.48 348.887 441.772 348.804 442.168 351.564C442.563 354.324 441.012 354.841 439.239 354.841C437.467 354.841 436.776 354.474 436.483 352.242Z" fill="white"/>
<path d="M443.497 342.725C443.497 342.725 444.464 343.582 445.168 344.439C445.871 345.296 446.375 346.159 446.375 346.159C446.375 346.159 450.331 342.697 450.828 343C451.324 343.302 450.972 345.389 450.691 347.047C450.409 348.705 447.789 352.748 447.789 352.748C447.789 352.748 447.989 354.536 447.989 354.946C447.989 355.356 448.263 358.468 448.263 358.468C448.263 358.468 449.677 358.988 453.413 357.927C457.149 356.865 458.958 355.989 459.838 355.263C460.717 354.536 464.305 351.09 463.074 347.326C461.843 343.563 456.878 350.325 456.724 349.152C456.571 347.979 458.654 332.818 456.724 331.621C454.794 330.424 450.047 334.221 448.263 336.111C446.48 338.001 443.497 342.725 443.497 342.725Z" fill="white"/>
<path fill-rule="evenodd" clip-rule="evenodd" d="M385.292 316.684C385.292 316.684 396.585 322.144 389.064 321.837C385.251 321.681 322.147 318.997 296.432 316.368C270.717 313.74 235.713 300.594 234.279 299.328C234.279 299.328 213.41 317.455 203.779 327.971C194.149 338.487 173.495 359.499 167.813 371.125C162.131 382.752 161.791 389.242 161.356 392.532C160.921 395.822 161.743 407.167 163.293 417.289C164.843 427.411 169.621 438.49 171.816 444.098C174.012 449.707 182.083 465.847 182.083 465.847C184.214 467.557 191.446 473.507 196.354 473.575C201.261 473.643 207.147 470.568 217.727 464.616C228.306 458.663 237.744 452.442 237.744 452.442C238.956 461.75 240.49 479.843 240.975 481.64C241.189 482.433 245.408 483.667 250.897 484.917C260.953 487.206 269.578 491.251 289.913 492.543C310.249 493.835 365.608 493.591 400.675 490.676C435.741 487.762 489.721 479.737 489.721 479.737C493.62 478.735 496.741 477.473 500.163 473.301C503.586 469.13 499.842 387.811 501.133 375.087C502.424 362.363 507.647 334.35 517.774 333.509C527.901 332.668 543.543 339.502 544.436 336.873C545.33 334.244 544.679 328.215 544.679 328.215C544.679 328.215 534.318 294.916 529.553 284.611C524.787 274.306 512.972 258.953 504.533 256.534C504.533 256.534 487.805 248.467 477.13 249.173C466.455 249.879 434.172 269.477 434.172 269.477C435.518 278.724 437.146 285.459 435.728 294.075C434.311 302.691 429.771 316.368 423.417 318.892C417.063 321.416 396.201 317.754 385.292 316.684ZM415.459 350.791C416.514 348.034 419.198 345.7 422.581 345.532C425.965 345.364 428.157 347.704 429.443 350.456C430.728 353.209 430.867 356.734 430.287 359.25C429.706 361.765 428.762 365.518 424.734 365.759C420.705 366 418.168 364.224 416.637 362.174C415.107 360.125 414.403 353.549 415.459 350.791ZM446.768 360.926C445.502 362.584 442.969 363.833 440.454 363.646C437.938 363.46 434.684 361.578 433.594 359.92C432.503 358.262 432.099 354.841 432.099 352.748C432.099 350.655 432.099 349.096 432.714 347.215C433.33 345.333 435.054 342.091 438.607 341.775C442.16 341.458 443.497 342.725 443.497 342.725C443.497 342.725 446.48 338.001 448.263 336.111C450.047 334.221 454.794 330.424 456.724 331.621C458.654 332.818 456.571 347.979 456.724 349.152C456.878 350.325 461.843 343.563 463.074 347.326C464.305 351.09 460.717 354.536 459.838 355.263C458.958 355.989 457.149 356.865 453.413 357.927C449.677 358.988 448.263 358.468 448.263 358.468C448.263 358.468 448.035 359.268 446.768 360.926Z" fill="#31445F"/>
<path d="M422.581 352.047C421.12 352.065 419.954 353.534 420.067 355.412C420.18 357.289 421.228 358.113 422.741 357.927C424.254 357.74 425.133 356.406 425.115 354.841C425.098 353.276 424.042 352.028 422.581 352.047Z" fill="#31445F"/>
<path d="M439.239 348.887C437.999 348.887 436.189 350.01 436.483 352.242C436.776 354.474 437.467 354.841 439.239 354.841C441.012 354.841 442.563 354.324 442.168 351.564C441.772 348.804 440.48 348.887 439.239 348.887Z" fill="#31445F"/>
<path d="M447.789 352.748C447.789 352.748 450.409 348.705 450.691 347.047C450.972 345.389 451.324 343.302 450.828 343C450.331 342.697 446.375 346.159 446.375 346.159L447.789 352.748Z" fill="#31445F"/>
<path d="M489.721 479.737C489.721 479.737 435.741 487.762 400.675 490.676C365.608 493.591 310.249 493.835 289.913 492.543C269.578 491.251 260.953 487.206 250.897 484.917C252.222 489.273 255.349 493.225 261.531 496.45C266.644 498.353 306.563 507.977 359.38 506.578C412.198 505.179 474.126 505.013 474.126 505.013C482.79 504.137 491.1 499.591 490.824 497.088C490.548 494.586 489.721 479.737 489.721 479.737Z" fill="#31445F"/>
<path d="M372.583 311.952L385.292 316.684C396.201 317.754 417.063 321.416 423.417 318.892C429.771 316.368 434.311 302.691 435.728 294.075C437.146 285.459 435.518 278.724 434.172 269.477C433.895 267.574 433.634 265.821 433.41 264.342C423.915 264.235 415.594 267.319 414.382 267.576C413.855 267.687 412.132 270.709 409.666 274.814C406.466 280.143 402.016 287.298 397.305 292.287C388.965 301.121 373.871 312.249 372.583 311.952Z" fill="#EC93B4"/>
<path d="M222.862 268.943C223.358 279.353 231.37 296.76 234.279 299.328C235.713 300.594 270.717 313.74 296.432 316.368C322.147 318.997 385.251 321.681 389.064 321.837C396.585 322.144 385.292 316.684 385.292 316.684L372.583 311.952C350.057 309.17 304.509 300.179 294.645 298.071C284.78 295.963 247.286 283.665 237.357 273.149C236.273 272 235.247 270.929 234.279 269.944C226.389 261.91 222.419 259.669 222.862 268.943Z" fill="#EC93B4"/>
<path d="M359.38 506.578C306.563 507.977 266.644 498.353 261.531 496.45C259.837 501.344 250.788 519.26 248.269 531.981C245.751 544.701 236.84 586.078 236.84 586.078C236.84 586.078 246.183 591.002 250.897 590.181C255.61 589.361 256.341 582.248 261.636 579.923C266.931 577.597 280.168 579.17 285.269 580.948C290.37 582.727 293.149 590.55 296.827 591.617C300.505 592.685 336.022 594.969 336.022 594.969C336.906 586.998 347.581 551.54 352.101 544.359C356.621 537.178 367.753 528.25 366.436 533.007C365.118 537.763 365.919 585.052 365.919 585.052C365.919 585.052 382.062 588.813 392.264 589.566C402.467 590.318 416.672 591.344 418.61 589.566C420.547 587.788 421.128 585.599 425.971 581.769C430.814 577.939 432.672 578.542 443.599 577.871C454.525 577.2 458.265 583.452 460.517 585.804C462.768 588.157 469.298 588.061 469.298 588.061L474.126 505.013C474.126 505.013 412.198 505.179 359.38 506.578Z" fill="#242424"/>
<path fill-rule="evenodd" clip-rule="evenodd" d="M469.298 588.061C469.298 588.061 462.768 588.157 460.517 585.804C458.265 583.452 454.525 577.2 443.599 577.871C432.672 578.542 430.814 577.939 425.971 581.769C421.128 585.599 420.547 587.788 418.61 589.566C416.672 591.344 402.467 590.318 392.264 589.566C382.062 588.813 365.919 585.052 365.919 585.052C365.467 594.08 366.565 633.746 367.792 637.097C368.552 639.174 368.667 639.727 368.645 639.848C370.792 640.255 416.06 648.781 420.095 645.509C424.227 642.158 429.78 629.301 434.946 627.112C440.112 624.924 445.358 624.11 452.264 624.209C459.169 624.308 461.633 624.879 465.876 627.74C470.119 630.6 472.182 640.589 473 642.126C473.818 643.663 482.228 642.126 482.228 642.126C482.228 642.126 484.86 618.769 484.085 611.246C483.31 603.723 478.726 598.525 476.207 595.242C473.689 591.959 471.558 589.808 469.298 588.061ZM467.167 611.998C466.522 618.837 458.321 615.417 449.991 615.896C441.662 616.375 427.972 623.146 428.102 614.802C428.231 606.458 442.114 605.022 448.312 604.954C454.511 604.885 467.813 605.159 467.167 611.998Z" fill="#EC93B4"/>
<path fill-rule="evenodd" clip-rule="evenodd" d="M336.022 594.969C336.022 594.969 300.505 592.685 296.827 591.617C293.149 590.55 290.37 582.727 285.269 580.948C280.168 579.17 266.931 577.597 261.636 579.923C256.341 582.248 255.61 589.361 250.897 590.181C246.183 591.002 236.84 586.078 236.84 586.078C235.744 591.344 226.444 603.946 224.313 611.955C222.182 619.964 224.636 643.595 224.636 643.595C224.636 643.595 241.554 648.655 243.943 646.672C246.332 644.689 244.589 639.628 249.367 633.815C254.145 628.001 261.285 627.599 269.08 627.835C276.875 628.07 287.916 630.053 290.37 633.815C292.824 637.576 296.504 646.004 300.702 647.262C304.899 648.519 332.794 645.888 332.794 645.888C332.794 645.888 334.001 633.614 334.795 623.488C335.59 613.361 335.421 600.539 336.022 594.969ZM272.04 607.309C272.04 607.309 292.791 608.538 291.808 616.015C290.825 623.493 281.672 619.914 272.292 619.487C262.913 619.06 252.424 621.196 252.323 613.665C252.222 606.134 272.04 607.309 272.04 607.309Z" fill="#EC93B4"/>
<path d="M434.946 627.112C429.78 629.301 424.227 642.158 420.095 645.509C416.06 648.781 370.792 640.255 368.645 639.848C368.632 639.922 368.566 639.833 368.566 639.833C368.437 641.885 367.985 649.75 368.566 651.528C369.148 653.306 369.47 653.648 377.865 655.221C386.259 656.794 398.46 658.367 413.056 659.53C427.652 660.692 437.658 660.624 450.831 659.53C464.003 658.435 476.466 659.324 478.597 656.384C480.727 653.443 482.228 642.126 482.228 642.126C482.228 642.126 473.818 643.663 473 642.126C472.182 640.589 470.119 630.6 465.876 627.74C461.633 624.879 459.169 624.308 452.264 624.209C445.358 624.11 440.112 624.924 434.946 627.112Z" fill="#F4F4F4"/>
<path d="M243.943 646.672C241.554 648.655 224.636 643.595 224.636 643.595C225.282 648.997 225.411 655.768 227.284 658.435C229.156 661.103 233.289 662.128 240.65 662.881C248.011 663.633 261.693 663.77 272.028 663.975C282.363 664.18 305.674 663.086 314.068 662.128C322.462 661.171 327.575 660.189 329.501 658.435C331.427 656.681 332.794 645.888 332.794 645.888C332.794 645.888 304.899 648.519 300.702 647.262C296.504 646.004 292.824 637.576 290.37 633.815C287.916 630.053 276.875 628.07 269.08 627.835C261.285 627.599 254.145 628.001 249.367 633.815C244.589 639.628 246.332 644.689 243.943 646.672Z" fill="#F4F4F4"/>
<path d="M449.991 615.896C458.321 615.417 466.522 618.837 467.167 611.998C467.813 605.159 454.511 604.885 448.312 604.954C442.114 605.022 428.231 606.458 428.102 614.802C427.972 623.146 441.662 616.375 449.991 615.896Z" fill="#F4F4F4"/>
<path d="M291.808 616.015C292.791 608.538 272.04 607.309 272.04 607.309C272.04 607.309 252.222 606.134 252.323 613.665C252.424 621.196 262.913 619.06 272.292 619.487C281.672 619.914 290.825 623.493 291.808 616.015Z" fill="#F4F4F4"/>
<path d="M507.611 242.443C505.526 248.016 504.533 256.534 504.533 256.534C512.972 258.953 524.787 274.306 529.553 284.611C534.318 294.916 544.679 328.215 544.679 328.215C553.912 323.693 572.841 312.898 570.855 288.397C568.869 263.895 556.558 254.01 548.615 250.75C540.673 247.491 533.425 248.227 529.553 246.86C525.681 245.493 522.603 238.027 518.433 237.29C514.263 236.554 509.696 236.869 507.611 242.443Z" fill="#FFFBE5"/>
<path d="M171.816 444.098C169.621 438.49 164.843 427.411 163.293 417.289C161.743 407.167 160.921 395.822 161.356 392.532C146.762 397.593 136.883 406.757 133.073 416.879C129.263 427.001 129.328 441.978 131.459 447.381C133.59 452.784 140.499 462.838 143.469 465.847C146.44 468.856 155.351 473.848 163.68 473.575C172.01 473.301 182.083 465.847 182.083 465.847C182.083 465.847 174.012 449.707 171.816 444.098Z" fill="#FFFBE5"/>
<path d="M294.645 298.071C304.509 300.179 350.057 309.17 372.583 311.952C373.871 312.249 388.965 301.121 397.305 292.287C402.016 287.298 406.466 280.143 409.666 274.814L234.279 269.944C235.247 270.929 236.273 272 237.357 273.149C247.286 283.665 284.78 295.963 294.645 298.071Z" fill="#FFFBE5"/>
<path d="M222.862 268.943L221.363 269.014L222.862 268.943ZM389.064 321.837L389.003 323.335L389.064 321.837ZM372.583 311.952L372.921 310.49L372.845 310.473L372.767 310.463L372.583 311.952ZM237.357 273.149L236.267 274.179L237.357 273.149ZM397.305 292.287L398.396 293.317L398.396 293.317L397.305 292.287ZM414.382 267.576L414.071 266.108L414.382 267.576ZM433.41 264.342L434.893 264.117L434.702 262.856L433.427 262.842L433.41 264.342ZM504.533 256.534L503.881 257.885L503.997 257.941L504.12 257.976L504.533 256.534ZM240.975 481.64L242.423 481.249L242.423 481.249L240.975 481.64ZM244.361 417.041C244.677 416.275 244.312 415.398 243.546 415.082C242.781 414.766 241.904 415.131 241.588 415.896L244.361 417.041ZM250.897 484.917L251.23 483.454L251.23 483.454L250.897 484.917ZM236.84 586.078L235.374 585.762L235.372 585.772L236.84 586.078ZM224.636 643.595L223.144 643.749L223.145 643.761L223.147 643.773L224.636 643.595ZM332.794 645.888L334.282 646.076L334.284 646.055L334.287 646.034L332.794 645.888ZM367.792 637.097L366.383 637.613L366.383 637.613L367.792 637.097ZM420.095 645.509L419.15 644.344L419.15 644.344L420.095 645.509ZM482.228 642.126L483.715 642.323L483.717 642.309L483.719 642.294L482.228 642.126ZM368.566 639.833L368.848 638.36L367.176 638.04L367.069 639.739L368.566 639.833ZM272.04 607.309L271.951 608.807L271.952 608.807L272.04 607.309ZM443.497 342.725L442.465 343.813L442.483 343.831L442.502 343.847L443.497 342.725ZM234.279 269.944L233.209 270.995L233.209 270.995L234.279 269.944ZM409.666 274.814L410.952 275.586L409.666 274.814ZM221.363 269.014C221.624 274.479 223.83 281.624 226.276 287.641C227.508 290.671 228.821 293.464 230.019 295.675C230.618 296.781 231.196 297.755 231.729 298.548C232.245 299.317 232.775 300.001 233.287 300.452L235.272 298.203C235.057 298.013 234.699 297.59 234.219 296.875C233.755 296.184 233.226 295.297 232.657 294.246C231.519 292.147 230.252 289.456 229.055 286.511C226.644 280.58 224.596 273.817 224.36 268.871L221.363 269.014ZM389.003 323.335C389.985 323.376 390.83 323.334 391.482 323.144C391.811 323.047 392.211 322.88 392.547 322.558C392.925 322.196 393.149 321.703 393.148 321.158C393.147 320.674 392.969 320.279 392.814 320.016C392.653 319.742 392.45 319.502 392.255 319.299C391.865 318.896 391.365 318.503 390.862 318.149C389.847 317.434 388.608 316.728 387.65 316.212C387.166 315.951 386.742 315.733 386.439 315.579C386.287 315.503 386.165 315.442 386.081 315.4C386.038 315.379 386.005 315.363 385.982 315.352C385.971 315.346 385.962 315.342 385.955 315.339C385.952 315.337 385.95 315.336 385.948 315.335C385.947 315.335 385.946 315.334 385.946 315.334C385.945 315.334 385.945 315.334 385.945 315.334C385.945 315.334 385.945 315.333 385.292 316.684C384.639 318.034 384.639 318.034 384.639 318.034C384.639 318.034 384.639 318.034 384.639 318.034C384.639 318.034 384.639 318.034 384.64 318.035C384.64 318.035 384.642 318.036 384.644 318.037C384.649 318.039 384.656 318.043 384.666 318.047C384.685 318.057 384.714 318.071 384.753 318.09C384.83 318.128 384.943 318.185 385.085 318.257C385.37 318.401 385.77 318.607 386.227 318.853C387.152 319.351 388.267 319.991 389.134 320.602C389.573 320.911 389.898 321.178 390.097 321.384C390.143 321.432 390.177 321.471 390.2 321.5C390.224 321.529 390.232 321.543 390.23 321.54C390.229 321.538 390.211 321.507 390.192 321.45C390.172 321.392 390.148 321.294 390.148 321.165C390.147 320.854 390.283 320.572 390.471 320.392C390.616 320.253 390.723 320.24 390.642 320.264C390.471 320.313 390.024 320.375 389.126 320.338L389.003 323.335ZM385.815 315.278L373.107 310.546L372.06 313.358L384.768 318.09L385.815 315.278ZM372.767 310.463C350.311 307.69 304.818 298.712 294.958 296.604L294.331 299.538C304.2 301.647 349.803 310.65 372.399 313.441L372.767 310.463ZM294.958 296.604C290.135 295.573 278.379 292.002 266.573 287.367C260.679 285.052 254.808 282.486 249.808 279.855C244.773 277.207 240.752 274.56 238.448 272.119L236.267 274.179C238.926 276.996 243.315 279.83 248.411 282.51C253.542 285.209 259.523 287.821 265.477 290.159C277.367 294.828 289.29 298.46 294.331 299.538L294.958 296.604ZM372.246 313.413C372.58 313.491 372.871 313.449 373.023 313.42C373.198 313.387 373.362 313.335 373.499 313.285C373.773 313.184 374.073 313.04 374.376 312.88C374.99 312.554 375.763 312.079 376.643 311.499C378.41 310.332 380.71 308.669 383.217 306.73C388.225 302.857 394.151 297.813 398.396 293.317L396.214 291.258C392.12 295.595 386.328 300.532 381.382 304.357C378.912 306.267 376.676 307.882 374.99 308.995C374.143 309.554 373.461 309.969 372.97 310.23C372.721 310.362 372.556 310.435 372.464 310.469C372.418 310.486 372.422 310.481 372.465 310.473C372.483 310.469 372.667 310.432 372.921 310.49L372.246 313.413ZM414.693 269.043C416.196 268.725 424.116 265.737 433.393 265.842L433.427 262.842C423.714 262.733 414.993 265.913 414.071 266.108L414.693 269.043ZM434.248 293.832C433.556 298.036 432.099 303.486 430.05 308.167C429.026 310.507 427.873 312.609 426.626 314.256C425.367 315.919 424.094 317.009 422.863 317.498L423.971 320.286C425.917 319.513 427.594 317.947 429.018 316.067C430.453 314.171 431.716 311.842 432.798 309.37C434.962 304.427 436.482 298.731 437.208 294.319L434.248 293.832ZM422.863 317.498C421.563 318.015 419.321 318.267 416.316 318.262C413.368 318.257 409.88 318.008 406.211 317.643C402.547 317.278 398.737 316.802 395.146 316.347C391.567 315.894 388.192 315.461 385.438 315.191L385.145 318.177C387.846 318.442 391.17 318.868 394.769 319.323C398.357 319.778 402.205 320.259 405.914 320.628C409.619 320.997 413.219 321.257 416.311 321.262C419.345 321.268 422.094 321.032 423.971 320.286L422.863 317.498ZM431.927 264.567C432.151 266.043 432.411 267.793 432.688 269.693L435.656 269.261C435.379 267.355 435.118 265.6 434.893 264.117L431.927 264.567ZM432.688 269.693C434.055 279.087 435.618 285.509 434.248 293.832L437.208 294.319C438.675 285.409 436.981 278.36 435.656 269.261L432.688 269.693ZM434.172 269.477C434.951 270.76 434.951 270.76 434.951 270.759C434.951 270.759 434.951 270.759 434.952 270.759C434.953 270.758 434.954 270.757 434.956 270.756C434.959 270.754 434.965 270.751 434.973 270.746C434.988 270.737 435.011 270.723 435.041 270.705C435.101 270.668 435.192 270.614 435.31 270.543C435.547 270.4 435.897 270.19 436.347 269.923C437.246 269.388 438.544 268.623 440.135 267.702C443.318 265.86 447.67 263.398 452.351 260.915C457.036 258.43 462.031 255.936 466.504 254.022C471.038 252.083 474.844 250.827 477.229 250.67L477.031 247.676C474.079 247.872 469.846 249.33 465.325 251.264C460.743 253.224 455.665 255.762 450.945 258.265C446.221 260.77 441.836 263.251 438.632 265.106C437.029 266.033 435.721 266.805 434.814 267.345C434.36 267.614 434.005 267.827 433.764 267.971C433.644 268.044 433.552 268.1 433.489 268.137C433.458 268.156 433.434 268.17 433.418 268.18C433.41 268.185 433.404 268.189 433.4 268.191C433.398 268.192 433.397 268.193 433.396 268.194C433.395 268.194 433.395 268.195 433.394 268.195C433.394 268.195 433.394 268.195 434.172 269.477ZM477.229 250.67C482.24 250.339 488.841 252.083 494.34 254.005C497.057 254.955 499.449 255.928 501.16 256.663C502.016 257.03 502.7 257.338 503.168 257.552C503.403 257.66 503.583 257.744 503.703 257.801C503.764 257.829 503.809 257.851 503.839 257.865C503.854 257.872 503.865 257.877 503.872 257.881C503.876 257.882 503.878 257.884 503.88 257.884C503.881 257.885 503.881 257.885 503.881 257.885C503.881 257.885 503.881 257.885 503.882 257.885C503.881 257.885 503.881 257.885 504.533 256.534C505.184 255.183 505.184 255.183 505.184 255.183C505.184 255.183 505.183 255.182 505.183 255.182C505.182 255.182 505.181 255.181 505.18 255.181C505.177 255.18 505.174 255.178 505.169 255.176C505.16 255.171 505.147 255.165 505.13 255.157C505.096 255.141 505.046 255.117 504.981 255.087C504.852 255.026 504.662 254.937 504.418 254.825C503.93 254.602 503.224 254.284 502.344 253.906C500.586 253.151 498.128 252.151 495.33 251.173C489.796 249.238 482.696 247.302 477.031 247.676L477.229 250.67ZM504.533 256.534C506.023 256.708 506.023 256.708 506.023 256.708C506.023 256.708 506.023 256.708 506.023 256.708C506.023 256.708 506.023 256.707 506.023 256.707C506.023 256.706 506.023 256.705 506.023 256.703C506.024 256.7 506.024 256.695 506.025 256.687C506.027 256.672 506.03 256.649 506.034 256.619C506.041 256.558 506.052 256.467 506.067 256.348C506.098 256.11 506.144 255.762 506.206 255.327C506.329 254.455 506.516 253.235 506.766 251.844C507.271 249.041 508.022 245.626 509.016 242.968L506.206 241.917C505.115 244.833 504.327 248.463 503.814 251.313C503.555 252.748 503.363 254.006 503.235 254.905C503.172 255.356 503.124 255.717 503.092 255.967C503.076 256.092 503.064 256.189 503.056 256.255C503.052 256.289 503.048 256.314 503.046 256.332C503.045 256.341 503.045 256.347 503.044 256.352C503.044 256.355 503.043 256.357 503.043 256.358C503.043 256.359 503.043 256.359 503.043 256.36C503.043 256.36 503.043 256.36 503.043 256.36C503.043 256.36 503.043 256.36 504.533 256.534ZM509.016 242.968C509.917 240.559 511.272 239.436 512.742 238.914C514.302 238.36 516.179 238.416 518.172 238.767L518.694 235.813C516.516 235.429 514.025 235.274 511.738 236.087C509.36 236.932 507.389 238.754 506.206 241.917L509.016 242.968ZM518.172 238.767C518.825 238.883 519.55 239.286 520.393 240.029C521.231 240.768 522.061 241.729 522.952 242.799C523.815 243.834 524.747 244.986 525.704 245.949C526.655 246.905 527.765 247.819 529.053 248.274L530.052 245.445C529.404 245.216 528.678 244.685 527.832 243.834C526.993 242.989 526.169 241.973 525.257 240.878C524.373 239.818 523.41 238.689 522.377 237.779C521.349 236.872 520.126 236.066 518.694 235.813L518.172 238.767ZM529.053 248.274C530.178 248.671 531.487 248.897 532.856 249.073C534.18 249.245 535.826 249.398 537.379 249.585C540.617 249.973 544.259 250.584 548.046 252.138L549.185 249.363C545.029 247.657 541.076 247.006 537.736 246.606C536.001 246.398 534.612 246.275 533.24 246.098C531.912 245.927 530.864 245.732 530.052 245.445L529.053 248.274ZM548.046 252.138C555.461 255.181 567.419 264.573 569.36 288.518L572.35 288.275C570.319 263.217 557.655 252.839 549.185 249.363L548.046 252.138ZM569.36 288.518C571.261 311.979 553.224 322.36 544.019 326.868L545.338 329.562C554.601 325.026 574.42 313.818 572.35 288.275L569.36 288.518ZM530.914 283.981C528.466 278.688 524.243 272.161 519.564 266.645C517.222 263.883 514.741 261.345 512.283 259.332C509.844 257.334 507.338 255.778 504.946 255.092L504.12 257.976C505.948 258.5 508.083 259.77 510.382 261.653C512.662 263.52 515.015 265.919 517.276 268.585C521.807 273.927 525.873 280.228 528.191 285.241L530.914 283.981ZM544.679 328.215C546.111 327.769 546.111 327.769 546.111 327.769C546.111 327.768 546.11 327.768 546.11 327.768C546.11 327.766 546.11 327.765 546.109 327.763C546.108 327.759 546.106 327.753 546.103 327.744C546.098 327.728 546.091 327.704 546.081 327.672C546.061 327.609 546.031 327.514 545.993 327.391C545.915 327.144 545.802 326.78 545.655 326.314C545.362 325.382 544.938 324.039 544.415 322.396C543.368 319.109 541.922 314.619 540.327 309.806C537.149 300.217 533.34 289.227 530.914 283.981L528.191 285.241C530.531 290.3 534.285 301.113 537.479 310.749C539.069 315.549 540.512 320.027 541.556 323.306C542.078 324.946 542.501 326.285 542.793 327.214C542.939 327.678 543.053 328.04 543.129 328.286C543.168 328.409 543.197 328.503 543.217 328.566C543.227 328.597 543.234 328.621 543.239 328.637C543.241 328.645 543.243 328.651 543.244 328.655C543.245 328.657 543.246 328.658 543.246 328.659C543.246 328.659 543.246 328.66 543.246 328.66C543.246 328.66 543.246 328.66 544.679 328.215ZM544.679 328.215C543.187 328.376 543.187 328.376 543.187 328.376C543.187 328.376 543.187 328.376 543.187 328.376C543.187 328.376 543.187 328.376 543.187 328.376C543.187 328.376 543.187 328.377 543.187 328.378C543.188 328.38 543.188 328.384 543.189 328.389C543.19 328.399 543.191 328.414 543.193 328.435C543.198 328.476 543.204 328.539 543.211 328.62C543.227 328.783 543.248 329.02 543.271 329.314C543.317 329.903 543.368 330.713 543.393 331.6C543.445 333.459 543.365 335.365 543.016 336.39L545.857 337.356C546.402 335.752 546.442 333.329 546.392 331.516C546.366 330.567 546.31 329.705 546.262 329.082C546.238 328.769 546.215 328.515 546.198 328.338C546.19 328.249 546.183 328.18 546.178 328.131C546.176 328.107 546.174 328.089 546.172 328.076C546.172 328.069 546.171 328.064 546.171 328.06C546.17 328.058 546.17 328.057 546.17 328.056C546.17 328.055 546.17 328.055 546.17 328.055C546.17 328.054 546.17 328.054 546.17 328.054C546.17 328.054 546.17 328.054 544.679 328.215ZM543.016 336.39C543.198 335.854 543.665 335.91 543.264 335.96C542.94 336.001 542.38 335.978 541.536 335.854C539.871 335.609 537.6 335.049 534.919 334.403C529.694 333.144 523.002 331.57 517.65 332.014L517.899 335.004C522.674 334.607 528.866 336.03 534.216 337.32C536.823 337.948 539.264 338.552 541.099 338.822C542.005 338.956 542.893 339.029 543.635 338.937C544.3 338.854 545.451 338.549 545.857 337.356L543.016 336.39ZM517.65 332.014C514.414 332.283 511.841 334.686 509.83 337.747C507.785 340.858 506.093 344.987 504.709 349.392C501.936 358.219 500.292 368.511 499.641 374.935L502.625 375.238C503.264 368.939 504.878 358.862 507.571 350.292C508.92 345.998 510.513 342.17 512.337 339.395C514.193 336.57 516.071 335.156 517.899 335.004L517.65 332.014ZM499.641 374.935C499.307 378.222 499.303 385.794 499.418 395.233C499.534 404.711 499.775 416.218 499.948 427.424C500.121 438.645 500.227 449.576 500.077 457.958C500.002 462.152 499.863 465.68 499.64 468.277C499.528 469.578 499.398 470.612 499.252 471.365C499.178 471.741 499.107 472.018 499.042 472.209C498.969 472.427 498.939 472.429 499.004 472.35L501.323 474.253C501.602 473.913 501.772 473.504 501.885 473.168C502.007 472.806 502.109 472.388 502.197 471.937C502.372 471.034 502.513 469.88 502.629 468.534C502.861 465.835 503.001 462.226 503.077 458.012C503.228 449.575 503.121 438.599 502.947 427.378C502.774 416.142 502.534 404.674 502.418 395.196C502.302 385.678 502.313 378.314 502.625 375.238L499.641 374.935ZM499.004 472.35C497.393 474.313 495.895 475.544 494.381 476.403C492.855 477.269 491.249 477.796 489.348 478.284L490.094 481.189C492.092 480.676 493.996 480.071 495.861 479.013C497.738 477.948 499.511 476.461 501.323 474.253L499.004 472.35ZM489.721 479.737C489.501 478.253 489.5 478.253 489.5 478.253C489.5 478.253 489.499 478.253 489.498 478.253C489.497 478.253 489.494 478.254 489.491 478.254C489.485 478.255 489.475 478.257 489.462 478.259C489.436 478.262 489.397 478.268 489.346 478.276C489.243 478.291 489.089 478.314 488.888 478.343C488.485 478.403 487.888 478.49 487.117 478.603C485.574 478.828 483.33 479.152 480.528 479.551C474.923 480.348 467.084 481.442 458.151 482.626C440.277 484.996 418.045 487.727 400.55 489.182L400.799 492.171C418.371 490.711 440.662 487.972 458.545 485.6C467.49 484.414 475.338 483.319 480.95 482.521C483.756 482.122 486.004 481.797 487.55 481.571C488.323 481.459 488.92 481.371 489.325 481.311C489.527 481.282 489.681 481.259 489.785 481.243C489.837 481.236 489.876 481.23 489.902 481.226C489.915 481.224 489.925 481.223 489.932 481.222C489.935 481.221 489.937 481.221 489.939 481.221C489.94 481.22 489.941 481.22 489.941 481.22C489.942 481.22 489.942 481.22 489.721 479.737ZM400.55 489.182C365.551 492.091 310.265 492.333 290.008 491.046L289.818 494.04C310.233 495.337 365.665 495.091 400.799 492.171L400.55 489.182ZM242.423 481.249C242.393 481.139 242.328 480.763 242.234 480.054C242.145 479.385 242.042 478.508 241.927 477.464C241.697 475.378 241.423 472.665 241.125 469.707C240.53 463.806 239.841 456.929 239.231 452.248L236.257 452.636C236.859 457.263 237.543 464.087 238.14 470.008C238.437 472.962 238.713 475.69 238.945 477.793C239.061 478.844 239.167 479.747 239.26 480.448C239.347 481.109 239.435 481.692 239.527 482.031L242.423 481.249ZM237.744 452.442C239.242 452.522 239.242 452.522 239.242 452.522C239.242 452.521 239.242 452.521 239.242 452.521C239.242 452.52 239.242 452.519 239.242 452.518C239.242 452.515 239.242 452.51 239.243 452.504C239.243 452.491 239.245 452.473 239.246 452.448C239.249 452.398 239.253 452.323 239.258 452.225C239.27 452.029 239.287 451.74 239.31 451.368C239.356 450.623 239.426 449.548 239.522 448.228C239.713 445.588 240.009 441.975 240.422 438.076C240.836 434.174 241.366 430.003 242.027 426.244C242.693 422.458 243.474 419.19 244.361 417.041L241.588 415.896C240.57 418.363 239.745 421.9 239.072 425.725C238.395 429.576 237.856 433.822 237.439 437.759C237.021 441.7 236.723 445.348 236.529 448.011C236.433 449.343 236.362 450.429 236.315 451.183C236.292 451.56 236.275 451.854 236.263 452.054C236.258 452.154 236.253 452.231 236.25 452.283C236.249 452.309 236.248 452.328 236.247 452.342C236.247 452.348 236.247 452.354 236.246 452.357C236.246 452.359 236.246 452.36 236.246 452.361C236.246 452.361 236.246 452.362 236.246 452.362C236.246 452.362 236.246 452.363 237.744 452.442ZM237.744 452.442C236.918 451.19 236.918 451.19 236.918 451.19C236.918 451.19 236.918 451.19 236.918 451.19C236.918 451.19 236.918 451.19 236.917 451.191C236.916 451.191 236.914 451.192 236.912 451.194C236.908 451.197 236.901 451.201 236.893 451.207C236.875 451.218 236.848 451.236 236.813 451.259C236.742 451.305 236.637 451.374 236.499 451.465C236.222 451.645 235.814 451.91 235.292 452.246C234.247 452.919 232.742 453.879 230.908 455.025C227.238 457.316 222.255 460.347 216.991 463.308L218.462 465.923C223.778 462.932 228.803 459.876 232.497 457.569C234.345 456.415 235.861 455.448 236.916 454.768C237.444 454.429 237.856 454.161 238.137 453.978C238.278 453.886 238.385 453.816 238.458 453.768C238.494 453.744 238.522 453.726 238.541 453.714C238.55 453.707 238.557 453.703 238.562 453.7C238.564 453.698 238.566 453.697 238.567 453.696C238.568 453.696 238.569 453.695 238.569 453.695C238.569 453.695 238.569 453.695 238.569 453.695C238.569 453.695 238.57 453.695 237.744 452.442ZM216.991 463.308C211.691 466.291 207.637 468.511 204.307 469.981C200.976 471.452 198.511 472.105 196.374 472.075L196.333 475.075C199.104 475.113 202.036 474.263 205.519 472.725C209.004 471.187 213.183 468.893 218.462 465.923L216.991 463.308ZM173.213 443.552C170.984 437.859 166.293 426.976 164.776 417.062L161.81 417.516C163.392 427.846 168.257 439.122 170.42 444.645L173.213 443.552ZM169.161 371.784C171.899 366.181 178.345 358.165 185.44 350.124C192.51 342.112 200.031 334.285 204.885 328.984L202.673 326.958C197.897 332.173 190.276 340.11 183.191 348.139C176.131 356.14 169.409 364.444 166.465 370.467L169.161 371.784ZM204.885 328.984C209.65 323.782 217.229 316.662 223.651 310.815C226.855 307.898 229.759 305.308 231.862 303.448C232.913 302.518 233.764 301.77 234.352 301.256C234.646 300.998 234.874 300.799 235.029 300.664C235.106 300.597 235.165 300.546 235.204 300.512C235.224 300.494 235.239 300.482 235.248 300.473C235.253 300.469 235.257 300.465 235.26 300.463C235.261 300.462 235.262 300.461 235.262 300.461C235.263 300.461 235.263 300.46 235.263 300.46C235.263 300.46 235.263 300.46 234.279 299.328C233.296 298.195 233.296 298.195 233.296 298.196C233.295 298.196 233.295 298.196 233.295 298.196C233.294 298.197 233.293 298.198 233.292 298.199C233.289 298.201 233.285 298.205 233.28 298.209C233.27 298.218 233.255 298.231 233.235 298.249C233.194 298.284 233.135 298.335 233.057 298.403C232.901 298.539 232.671 298.74 232.376 298.999C231.785 299.516 230.93 300.267 229.874 301.201C227.763 303.068 224.848 305.668 221.631 308.597C215.21 314.443 207.539 321.644 202.673 326.958L204.885 328.984ZM164.776 417.062C164.007 412.041 163.418 406.712 163.076 402.234C162.729 397.696 162.649 394.193 162.843 392.728L159.869 392.335C159.627 394.16 159.741 397.975 160.084 402.463C160.432 407.011 161.029 412.416 161.81 417.516L164.776 417.062ZM162.843 392.728C163.273 389.473 163.589 383.183 169.161 371.784L166.465 370.467C160.672 382.321 160.308 389.011 159.869 392.335L162.843 392.728ZM160.864 391.115C145.964 396.282 135.674 405.711 131.669 416.351L134.477 417.407C138.092 407.804 147.561 398.903 161.847 393.949L160.864 391.115ZM131.669 416.351C129.688 421.613 128.736 428.062 128.539 433.849C128.344 439.585 128.882 444.935 130.064 447.932L132.855 446.831C131.906 444.425 131.346 439.584 131.538 433.951C131.728 428.367 132.648 422.267 134.477 417.407L131.669 416.351ZM130.064 447.932C131.19 450.787 133.523 454.759 135.899 458.341C138.274 461.92 140.809 465.287 142.402 466.901L144.537 464.793C143.159 463.397 140.755 460.233 138.399 456.682C136.046 453.135 133.859 449.379 132.855 446.831L130.064 447.932ZM142.402 466.901C144.062 468.583 147.214 470.678 150.965 472.316C154.731 473.962 159.269 475.221 163.729 475.074L163.631 472.076C159.762 472.203 155.68 471.102 152.165 469.567C148.636 468.026 145.847 466.12 144.537 464.793L142.402 466.901ZM163.729 475.074C168.251 474.926 173.104 472.855 176.711 470.932C178.539 469.957 180.098 468.992 181.2 468.271C181.752 467.91 182.192 467.609 182.495 467.396C182.647 467.29 182.764 467.206 182.845 467.147C182.886 467.118 182.917 467.095 182.939 467.079C182.95 467.071 182.958 467.065 182.965 467.061C182.968 467.058 182.97 467.057 182.972 467.055C182.973 467.055 182.974 467.054 182.974 467.054C182.974 467.053 182.975 467.053 182.975 467.053C182.975 467.053 182.976 467.053 182.083 465.847C181.191 464.641 181.191 464.641 181.191 464.641C181.191 464.641 181.191 464.641 181.191 464.641C181.191 464.641 181.191 464.641 181.191 464.641C181.19 464.642 181.189 464.642 181.187 464.644C181.184 464.646 181.177 464.651 181.169 464.657C181.152 464.669 181.126 464.688 181.091 464.714C181.02 464.765 180.913 464.841 180.773 464.939C180.493 465.135 180.08 465.419 179.558 465.761C178.511 466.446 177.031 467.362 175.3 468.285C171.787 470.157 167.439 471.951 163.631 472.076L163.729 475.074ZM196.374 472.075C195.421 472.062 194.253 471.755 192.939 471.198C191.639 470.647 190.285 469.889 188.982 469.061C186.375 467.402 184.098 465.54 183.022 464.677L181.144 467.017C182.199 467.863 184.603 469.831 187.372 471.592C188.758 472.473 190.264 473.323 191.768 473.96C193.256 474.591 194.832 475.054 196.333 475.075L196.374 472.075ZM182.083 465.847C183.425 465.176 183.425 465.176 183.425 465.176C183.425 465.176 183.425 465.175 183.424 465.175C183.424 465.175 183.424 465.174 183.423 465.173C183.422 465.171 183.421 465.168 183.419 465.164C183.415 465.157 183.41 465.145 183.402 465.13C183.387 465.1 183.364 465.054 183.334 464.995C183.275 464.875 183.187 464.7 183.075 464.474C182.851 464.023 182.527 463.372 182.133 462.573C181.343 460.974 180.267 458.785 179.123 456.422C176.824 451.671 174.285 446.291 173.213 443.552L170.42 444.645C171.543 447.514 174.138 453.008 176.423 457.729C177.571 460.102 178.651 462.298 179.443 463.902C179.839 464.703 180.164 465.357 180.389 465.81C180.502 466.037 180.59 466.214 180.65 466.334C180.68 466.394 180.703 466.44 180.718 466.471C180.726 466.486 180.732 466.498 180.736 466.506C180.738 466.51 180.739 466.513 180.74 466.515C180.741 466.516 180.741 466.516 180.741 466.517C180.741 466.517 180.741 466.517 180.742 466.517C180.742 466.518 180.742 466.518 182.083 465.847ZM290.008 491.046C269.83 489.764 261.51 485.795 251.23 483.454L250.564 486.379C260.396 488.618 269.325 492.738 289.818 494.04L290.008 491.046ZM251.23 483.454C248.499 482.832 246.12 482.222 244.414 481.678C243.553 481.404 242.912 481.161 242.495 480.96C242.283 480.858 242.181 480.79 242.149 480.766C242.066 480.702 242.316 480.852 242.423 481.249L239.527 482.031C239.687 482.626 240.116 482.988 240.326 483.149C240.587 483.348 240.892 483.517 241.192 483.662C241.797 483.954 242.594 484.247 243.502 484.536C245.33 485.119 247.806 485.751 250.564 486.379L251.23 483.454ZM249.462 485.353C250.925 490.162 254.366 494.404 260.838 497.78L262.225 495.12C256.332 492.046 253.519 488.384 252.332 484.48L249.462 485.353ZM261.008 497.856C263.721 498.865 275.109 501.765 292.354 504.237C309.643 506.716 332.913 508.78 359.42 508.077L359.341 505.078C333.03 505.775 309.932 503.727 292.779 501.267C275.582 498.802 264.455 495.937 262.054 495.044L261.008 497.856ZM359.42 508.077C385.817 507.378 414.494 506.987 436.575 506.771C447.614 506.663 457.004 506.598 463.633 506.561C466.948 506.542 469.572 506.53 471.368 506.523C472.266 506.519 472.957 506.517 473.423 506.515C473.656 506.515 473.833 506.514 473.951 506.514C474.011 506.514 474.055 506.513 474.085 506.513C474.1 506.513 474.111 506.513 474.119 506.513C474.123 506.513 474.126 506.513 474.127 506.513C474.128 506.513 474.129 506.513 474.129 506.513C474.13 506.513 474.13 506.513 474.126 505.013C474.122 503.513 474.122 503.513 474.121 503.513C474.121 503.513 474.12 503.513 474.119 503.513C474.117 503.513 474.114 503.513 474.111 503.513C474.103 503.513 474.092 503.513 474.077 503.513C474.047 503.513 474.002 503.514 473.942 503.514C473.823 503.514 473.646 503.515 473.413 503.515C472.946 503.517 472.255 503.519 471.356 503.523C469.559 503.53 466.933 503.542 463.616 503.561C456.983 503.598 447.59 503.663 436.545 503.771C414.458 503.987 385.762 504.379 359.341 505.078L359.42 508.077ZM474.277 506.506C478.8 506.048 483.219 504.638 486.497 503.003C488.131 502.188 489.544 501.287 490.556 500.372C491.061 499.915 491.51 499.415 491.83 498.879C492.145 498.349 492.397 497.674 492.315 496.924L489.333 497.252C489.319 497.128 489.372 497.142 489.252 497.344C489.136 497.538 488.914 497.811 488.543 498.147C487.804 498.815 486.649 499.575 485.158 500.318C482.184 501.801 478.116 503.102 473.975 503.521L474.277 506.506ZM492.315 496.924C492.182 495.72 491.909 491.434 491.666 487.384C491.546 485.373 491.434 483.441 491.352 482.01C491.311 481.295 491.278 480.706 491.255 480.295C491.243 480.09 491.234 479.929 491.228 479.82C491.225 479.765 491.223 479.724 491.221 479.696C491.22 479.682 491.22 479.671 491.219 479.664C491.219 479.66 491.219 479.658 491.219 479.656C491.219 479.655 491.219 479.654 491.219 479.654C491.219 479.654 491.219 479.653 491.219 479.653C491.219 479.653 491.219 479.653 489.721 479.737C488.224 479.82 488.224 479.82 488.224 479.82C488.224 479.82 488.224 479.82 488.224 479.821C488.224 479.821 488.224 479.822 488.224 479.823C488.224 479.825 488.224 479.827 488.224 479.831C488.225 479.838 488.225 479.849 488.226 479.863C488.227 479.891 488.23 479.933 488.233 479.988C488.239 480.097 488.248 480.258 488.26 480.464C488.283 480.875 488.316 481.465 488.357 482.181C488.439 483.613 488.551 485.549 488.672 487.564C488.912 491.564 489.19 495.953 489.333 497.252L492.315 496.924ZM472.629 504.926L467.801 587.974L470.796 588.148L475.624 505.1L472.629 504.926ZM469.298 588.061C469.276 586.561 469.277 586.561 469.277 586.561C469.277 586.561 469.277 586.561 469.277 586.561C469.277 586.561 469.277 586.561 469.277 586.561C469.277 586.561 469.277 586.561 469.276 586.561C469.274 586.561 469.271 586.561 469.266 586.561C469.257 586.561 469.242 586.562 469.221 586.562C469.178 586.562 469.114 586.562 469.03 586.561C468.861 586.559 468.613 586.554 468.307 586.541C467.693 586.514 466.857 586.456 465.961 586.33C465.059 586.202 464.135 586.011 463.33 585.732C462.503 585.446 461.928 585.109 461.6 584.767L459.433 586.841C460.231 587.675 461.316 588.209 462.347 588.567C463.399 588.931 464.53 589.157 465.542 589.3C466.56 589.444 467.498 589.509 468.178 589.538C468.52 589.553 468.8 589.558 468.997 589.561C469.096 589.562 469.174 589.562 469.228 589.562C469.256 589.562 469.277 589.561 469.293 589.561C469.3 589.561 469.307 589.561 469.311 589.561C469.313 589.561 469.315 589.561 469.317 589.561C469.318 589.561 469.318 589.561 469.319 589.561C469.319 589.561 469.319 589.561 469.32 589.561C469.32 589.561 469.32 589.561 469.298 588.061ZM461.6 584.767C460.667 583.792 458.91 581.356 456.16 579.467C453.299 577.503 449.3 576.018 443.507 576.374L443.691 579.368C448.824 579.053 452.159 580.359 454.462 581.94C456.876 583.598 458.115 585.464 459.433 586.841L461.6 584.767ZM443.507 576.374C438.177 576.701 434.793 576.727 432.253 577.156C429.513 577.62 427.609 578.561 425.04 580.593L426.901 582.946C429.175 581.148 430.622 580.475 432.753 580.114C435.085 579.72 438.094 579.712 443.691 579.368L443.507 576.374ZM425.04 580.593C422.521 582.585 421.084 584.173 420.027 585.503C418.914 586.901 418.449 587.677 417.595 588.461L419.624 590.671C420.707 589.676 421.501 588.469 422.374 587.371C423.302 586.204 424.578 584.783 426.901 582.946L425.04 580.593ZM365.919 585.052C367.419 585.027 367.419 585.026 367.419 585.026C367.419 585.026 367.419 585.025 367.419 585.024C367.419 585.023 367.419 585.021 367.419 585.018C367.419 585.012 367.418 585.004 367.418 584.993C367.418 584.97 367.417 584.936 367.417 584.891C367.415 584.802 367.413 584.669 367.41 584.496C367.405 584.149 367.397 583.639 367.387 582.988C367.368 581.687 367.342 579.823 367.314 577.571C367.26 573.066 367.201 567.011 367.183 560.809C367.165 554.604 367.189 548.262 367.299 543.178C367.354 540.634 367.43 538.419 367.532 536.698C367.639 534.913 367.767 533.82 367.881 533.407L364.99 532.606C364.775 533.382 364.64 534.807 364.538 536.519C364.432 538.295 364.355 540.554 364.299 543.113C364.189 548.233 364.165 554.605 364.183 560.817C364.201 567.032 364.26 573.096 364.315 577.607C364.342 579.862 364.368 581.729 364.387 583.033C364.397 583.685 364.405 584.196 364.411 584.544C364.413 584.718 364.415 584.851 364.417 584.941C364.418 584.986 364.418 585.02 364.419 585.043C364.419 585.054 364.419 585.063 364.419 585.069C364.419 585.071 364.419 585.074 364.419 585.075C364.419 585.076 364.419 585.076 364.419 585.077C364.419 585.077 364.419 585.077 365.919 585.052ZM367.881 533.407C367.987 533.024 368.061 532.608 368.039 532.192C368.017 531.77 367.887 531.239 367.471 530.801C367.046 530.354 366.513 530.202 366.083 530.176C365.671 530.15 365.279 530.23 364.954 530.328C363.724 530.699 362.119 531.762 360.523 533.033C357.245 535.643 353.203 539.792 350.831 543.56L353.37 545.158C355.518 541.746 359.303 537.84 362.392 535.38C363.979 534.116 365.192 533.39 365.821 533.2C365.96 533.158 365.972 533.175 365.896 533.17C365.801 533.164 365.533 533.117 365.296 532.867C365.067 532.627 365.045 532.384 365.043 532.351C365.042 532.323 365.049 532.394 364.99 532.606L367.881 533.407ZM350.831 543.56C349.606 545.507 348.044 549.212 346.399 553.655C344.737 558.146 342.943 563.527 341.266 568.923C337.931 579.649 334.992 590.649 334.531 594.803L337.513 595.134C337.936 591.318 340.776 580.603 344.13 569.813C345.797 564.451 347.574 559.123 349.213 554.696C350.868 550.223 352.335 546.803 353.37 545.158L350.831 543.56ZM336.022 594.969C336.118 593.472 336.118 593.472 336.118 593.472C336.118 593.472 336.117 593.472 336.117 593.472C336.116 593.472 336.114 593.471 336.112 593.471C336.108 593.471 336.101 593.471 336.093 593.47C336.076 593.469 336.051 593.467 336.017 593.465C335.95 593.461 335.85 593.454 335.72 593.446C335.459 593.429 335.076 593.404 334.588 593.372C333.61 593.307 332.21 593.214 330.517 593.099C327.132 592.868 322.582 592.549 317.917 592.198C313.251 591.846 308.477 591.461 304.645 591.098C302.727 590.917 301.055 590.741 299.753 590.579C298.404 590.412 297.57 590.271 297.245 590.177L296.409 593.058C297.004 593.231 298.084 593.395 299.382 593.557C300.727 593.724 302.432 593.902 304.362 594.085C308.223 594.45 313.019 594.837 317.691 595.189C322.366 595.542 326.924 595.861 330.313 596.092C332.008 596.207 333.411 596.301 334.39 596.365C334.88 596.397 335.264 596.423 335.525 596.44C335.656 596.448 335.756 596.455 335.823 596.459C335.857 596.461 335.883 596.463 335.9 596.464C335.909 596.464 335.915 596.465 335.919 596.465C335.922 596.465 335.923 596.465 335.924 596.465C335.925 596.465 335.925 596.466 335.926 596.466C335.926 596.466 335.926 596.466 336.022 594.969ZM297.245 590.177C296.721 590.025 296.085 589.579 295.279 588.722C294.485 587.877 293.69 586.821 292.767 585.63C291.027 583.386 288.802 580.591 285.763 579.532L284.775 582.365C286.837 583.084 288.552 585.09 290.396 587.468C291.265 588.589 292.174 589.8 293.094 590.778C294.003 591.744 295.094 592.676 296.409 593.058L297.245 590.177ZM285.763 579.532C283.039 578.583 278.31 577.73 273.63 577.4C271.276 577.235 268.891 577.198 266.735 577.356C264.604 577.512 262.586 577.867 261.033 578.549L262.239 581.296C263.333 580.816 264.955 580.495 266.955 580.348C268.929 580.203 271.165 580.234 273.419 580.393C277.958 580.713 282.397 581.536 284.775 582.365L285.763 579.532ZM261.033 578.549C257.91 579.921 256.177 582.699 254.796 584.79C253.282 587.083 252.253 588.423 250.639 588.704L251.154 591.659C254.254 591.119 255.947 588.492 257.3 586.443C258.787 584.191 260.067 582.25 262.239 581.296L261.033 578.549ZM250.639 588.704C249.75 588.858 248.511 588.754 247.041 588.423C245.6 588.099 244.064 587.587 242.641 587.038C241.222 586.49 239.941 585.916 239.015 585.478C238.552 585.26 238.18 585.076 237.924 584.948C237.797 584.883 237.699 584.833 237.633 584.8C237.601 584.783 237.576 584.77 237.561 584.762C237.553 584.758 237.547 584.755 237.543 584.753C237.542 584.752 237.54 584.751 237.54 584.751C237.539 584.751 237.539 584.751 237.539 584.751C237.539 584.751 237.539 584.751 237.539 584.751C237.539 584.751 237.54 584.751 236.84 586.078C236.141 587.405 236.141 587.405 236.141 587.405C236.141 587.405 236.142 587.405 236.142 587.405C236.142 587.406 236.143 587.406 236.144 587.406C236.146 587.407 236.148 587.408 236.15 587.41C236.156 587.413 236.164 587.417 236.174 587.422C236.193 587.432 236.222 587.447 236.259 587.466C236.333 587.504 236.44 587.559 236.577 587.628C236.851 587.766 237.246 587.96 237.733 588.191C238.705 588.65 240.055 589.256 241.561 589.837C243.062 590.416 244.746 590.982 246.383 591.35C247.99 591.711 249.686 591.915 251.154 591.659L250.639 588.704ZM236.84 586.078C238.307 586.394 238.307 586.393 238.307 586.393C238.307 586.393 238.307 586.392 238.307 586.392C238.307 586.39 238.308 586.389 238.308 586.386C238.309 586.381 238.311 586.373 238.313 586.364C238.317 586.344 238.324 586.314 238.332 586.274C238.349 586.196 238.374 586.079 238.407 585.926C238.473 585.619 238.57 585.169 238.694 584.59C238.943 583.434 239.301 581.768 239.738 579.729C240.613 575.65 241.806 570.08 243.077 564.112C245.619 552.181 248.479 538.645 249.741 532.272L246.798 531.689C245.541 538.037 242.687 551.549 240.143 563.487C238.872 569.453 237.68 575.022 236.805 579.099C236.368 581.138 236.01 582.804 235.761 583.96C235.637 584.538 235.54 584.988 235.474 585.294C235.441 585.448 235.416 585.564 235.399 585.643C235.391 585.682 235.384 585.712 235.38 585.732C235.378 585.742 235.376 585.749 235.375 585.755C235.375 585.757 235.374 585.759 235.374 585.76C235.374 585.761 235.374 585.761 235.374 585.762C235.374 585.762 235.374 585.762 236.84 586.078ZM249.741 532.272C250.968 526.071 253.808 518.531 256.593 511.858C257.981 508.533 259.344 505.452 260.472 502.88C261.587 500.339 262.5 498.235 262.949 496.941L260.114 495.959C259.715 497.112 258.862 499.083 257.725 501.675C256.601 504.236 255.226 507.347 253.825 510.702C251.033 517.391 248.089 525.17 246.798 531.689L249.741 532.272ZM235.372 585.772C235.144 586.867 234.448 588.479 233.388 590.527C232.346 592.542 231.033 594.828 229.66 597.248C226.963 602.003 223.989 607.338 222.864 611.569L225.763 612.34C226.768 608.562 229.51 603.592 232.27 598.728C233.625 596.338 234.976 593.986 236.052 591.906C237.111 589.86 237.989 587.922 238.309 586.383L235.372 585.772ZM222.864 611.569C222.282 613.757 222.035 616.889 221.965 620.246C221.894 623.637 222.003 627.38 222.178 630.853C222.352 634.329 222.594 637.551 222.791 639.903C222.89 641.079 222.978 642.039 223.042 642.705C223.073 643.039 223.099 643.299 223.117 643.476C223.125 643.565 223.132 643.632 223.137 643.678C223.139 643.701 223.141 643.719 223.142 643.731C223.143 643.737 223.143 643.741 223.144 643.744C223.144 643.746 223.144 643.747 223.144 643.748C223.144 643.748 223.144 643.749 223.144 643.749C223.144 643.749 223.144 643.749 224.636 643.595C226.128 643.44 226.128 643.44 226.128 643.439C226.128 643.439 226.128 643.439 226.128 643.439C226.128 643.438 226.128 643.437 226.128 643.436C226.128 643.433 226.127 643.429 226.127 643.424C226.125 643.413 226.124 643.396 226.121 643.375C226.117 643.331 226.11 643.265 226.102 643.178C226.085 643.005 226.059 642.75 226.028 642.421C225.966 641.764 225.879 640.816 225.781 639.651C225.585 637.322 225.346 634.136 225.174 630.703C225.001 627.267 224.896 623.601 224.964 620.308C225.034 616.982 225.279 614.157 225.763 612.34L222.864 611.569ZM224.636 643.595C224.206 645.032 224.206 645.032 224.207 645.032C224.207 645.032 224.207 645.032 224.207 645.032C224.208 645.032 224.209 645.032 224.21 645.033C224.213 645.033 224.216 645.034 224.22 645.036C224.229 645.038 224.242 645.042 224.258 645.047C224.292 645.057 224.34 645.071 224.404 645.09C224.531 645.127 224.716 645.181 224.953 645.25C225.426 645.386 226.102 645.577 226.922 645.801C228.558 646.248 230.771 646.825 233.065 647.341C235.349 647.854 237.756 648.316 239.767 648.52C240.768 648.622 241.723 648.666 242.539 648.605C243.274 648.55 244.217 648.394 244.901 647.826L242.985 645.518C243.072 645.446 242.963 645.565 242.316 645.613C241.75 645.656 240.991 645.629 240.07 645.536C238.237 645.349 235.966 644.918 233.723 644.414C231.488 643.912 229.322 643.347 227.712 642.907C226.908 642.688 226.244 642.5 225.783 642.367C225.552 642.3 225.372 642.248 225.25 642.212C225.189 642.194 225.142 642.18 225.111 642.171C225.096 642.166 225.084 642.163 225.077 642.161C225.073 642.159 225.07 642.159 225.068 642.158C225.067 642.158 225.067 642.158 225.066 642.158C225.066 642.157 225.066 642.157 225.066 642.157C225.066 642.157 225.066 642.157 224.636 643.595ZM244.901 647.826C245.829 647.056 246.281 646.038 246.566 645.065C246.836 644.143 247.02 642.995 247.229 641.981C247.664 639.86 248.355 637.409 250.526 634.767L248.208 632.862C245.601 636.034 244.774 639.02 244.29 641.378C244.038 642.604 243.911 643.456 243.687 644.222C243.478 644.938 243.252 645.296 242.985 645.518L244.901 647.826ZM250.526 634.767C254.791 629.578 261.193 629.097 269.035 629.334L269.125 626.335C261.377 626.101 253.5 626.425 248.208 632.862L250.526 634.767ZM269.035 629.334C272.844 629.449 277.446 629.993 281.369 630.959C283.332 631.442 285.079 632.02 286.457 632.68C287.871 633.356 288.724 634.037 289.114 634.634L291.626 632.995C290.789 631.711 289.342 630.734 287.752 629.973C286.126 629.195 284.165 628.558 282.087 628.046C277.927 627.021 273.11 626.456 269.125 626.335L269.035 629.334ZM289.114 634.634C289.694 635.524 290.356 636.705 291.123 638.063C291.877 639.4 292.718 640.879 293.619 642.286C294.517 643.689 295.506 645.067 296.574 646.192C297.626 647.3 298.86 648.276 300.271 648.698L301.132 645.825C300.444 645.619 299.645 645.069 298.75 644.126C297.87 643.199 296.998 642 296.145 640.668C295.295 639.341 294.493 637.93 293.736 636.588C292.991 635.269 292.273 633.986 291.626 632.995L289.114 634.634ZM300.271 648.698C300.995 648.915 302.061 649.014 303.223 649.062C304.432 649.112 305.901 649.112 307.519 649.077C310.758 649.006 314.664 648.794 318.422 648.543C322.182 648.292 325.81 648.001 328.496 647.774C329.84 647.66 330.948 647.562 331.722 647.492C332.108 647.457 332.411 647.43 332.617 647.41C332.721 647.401 332.8 647.394 332.853 647.389C332.88 647.386 332.9 647.384 332.914 647.383C332.92 647.382 332.926 647.382 332.929 647.381C332.931 647.381 332.932 647.381 332.933 647.381C332.934 647.381 332.934 647.381 332.934 647.381C332.934 647.381 332.935 647.381 332.794 645.888C332.653 644.394 332.653 644.394 332.653 644.394C332.652 644.394 332.652 644.394 332.652 644.394C332.651 644.394 332.65 644.394 332.648 644.395C332.645 644.395 332.64 644.395 332.633 644.396C332.62 644.397 332.6 644.399 332.574 644.402C332.522 644.406 332.444 644.414 332.341 644.423C332.137 644.442 331.837 644.47 331.452 644.504C330.684 644.573 329.58 644.671 328.243 644.784C325.568 645.011 321.959 645.3 318.222 645.549C314.481 645.799 310.626 646.008 307.454 646.078C305.867 646.112 304.468 646.111 303.348 646.065C302.181 646.016 301.457 645.922 301.132 645.825L300.271 648.698ZM332.794 645.888C334.287 646.034 334.287 646.034 334.287 646.034C334.287 646.034 334.287 646.034 334.287 646.034C334.287 646.033 334.287 646.033 334.287 646.032C334.287 646.03 334.287 646.028 334.287 646.025C334.288 646.019 334.289 646.01 334.29 645.998C334.292 645.975 334.296 645.94 334.3 645.893C334.309 645.801 334.323 645.664 334.34 645.486C334.375 645.13 334.425 644.61 334.488 643.955C334.614 642.645 334.789 640.792 334.99 638.623C335.391 634.286 335.893 628.678 336.291 623.605L333.3 623.37C332.903 628.423 332.404 634.015 332.003 638.347C331.803 640.512 331.627 642.361 331.502 643.668C331.439 644.322 331.389 644.84 331.354 645.195C331.337 645.373 331.324 645.509 331.315 645.601C331.31 645.647 331.307 645.682 331.304 645.706C331.303 645.717 331.302 645.726 331.302 645.732C331.301 645.735 331.301 645.737 331.301 645.739C331.301 645.739 331.301 645.74 331.301 645.74C331.301 645.74 331.301 645.741 331.301 645.741C331.301 645.741 331.301 645.741 332.794 645.888ZM336.291 623.605C336.692 618.496 336.849 612.719 336.981 607.558C337.114 602.354 337.221 597.837 337.514 595.13L334.531 594.808C334.222 597.671 334.113 602.35 333.982 607.481C333.85 612.656 333.694 618.353 333.3 623.37L336.291 623.605ZM332.794 645.888C331.306 645.699 331.306 645.699 331.306 645.699C331.306 645.699 331.306 645.699 331.306 645.699C331.306 645.699 331.306 645.7 331.305 645.7C331.305 645.701 331.305 645.703 331.305 645.705C331.304 645.71 331.303 645.717 331.302 645.726C331.3 645.746 331.296 645.775 331.291 645.813C331.281 645.89 331.265 646.004 331.245 646.15C331.205 646.443 331.145 646.864 331.067 647.376C330.911 648.401 330.684 649.781 330.398 651.21C330.112 652.646 329.773 654.099 329.398 655.281C329.21 655.874 329.023 656.367 328.842 656.745C328.752 656.932 328.672 657.075 328.603 657.179C328.569 657.23 328.542 657.267 328.521 657.293C328.5 657.318 328.489 657.328 328.491 657.326L330.511 659.544C330.966 659.129 331.299 658.561 331.548 658.04C331.811 657.492 332.046 656.855 332.258 656.188C332.681 654.854 333.045 653.279 333.34 651.797C333.638 650.309 333.872 648.881 334.033 647.827C334.113 647.3 334.175 646.864 334.217 646.56C334.238 646.407 334.254 646.288 334.265 646.205C334.27 646.164 334.275 646.133 334.277 646.111C334.279 646.1 334.28 646.092 334.281 646.086C334.281 646.083 334.281 646.081 334.281 646.079C334.282 646.078 334.282 646.077 334.282 646.077C334.282 646.077 334.282 646.077 334.282 646.076C334.282 646.076 334.282 646.076 332.794 645.888ZM328.491 657.326C327.842 657.917 326.431 658.537 323.877 659.118C321.394 659.683 318.086 660.16 313.898 660.638L314.238 663.619C318.444 663.139 321.89 662.647 324.543 662.043C327.125 661.456 329.233 660.708 330.511 659.544L328.491 657.326ZM313.898 660.638C305.574 661.588 282.33 662.679 272.058 662.475L271.999 665.475C282.396 665.681 305.774 664.584 314.238 663.619L313.898 660.638ZM272.058 662.475C261.67 662.269 248.083 662.133 240.802 661.388L240.497 664.373C247.939 665.133 261.717 665.271 271.999 665.475L272.058 662.475ZM240.802 661.388C237.137 661.014 234.39 660.581 232.356 659.944C230.333 659.312 229.183 658.53 228.511 657.573L226.056 659.297C227.257 661.007 229.109 662.072 231.461 662.808C233.801 663.54 236.802 663.995 240.497 664.373L240.802 661.388ZM228.511 657.573C228.193 657.12 227.889 656.396 227.622 655.372C227.36 654.367 227.158 653.173 226.988 651.85C226.818 650.529 226.685 649.119 226.553 647.68C226.421 646.252 226.29 644.792 226.126 643.417L223.147 643.773C223.305 645.098 223.432 646.511 223.565 647.955C223.697 649.389 223.835 650.851 224.012 652.232C224.189 653.61 224.411 654.947 224.719 656.13C225.023 657.294 225.438 658.417 226.056 659.297L228.511 657.573ZM364.421 584.977C364.191 589.563 364.356 601.798 364.726 613.252C364.912 618.991 365.151 624.562 365.421 628.914C365.555 631.088 365.699 632.971 365.848 634.423C365.923 635.148 366.001 635.78 366.082 636.294C366.158 636.776 366.252 637.255 366.383 637.613L369.2 636.582C369.178 636.521 369.119 636.297 369.045 635.826C368.976 635.386 368.904 634.813 368.832 634.116C368.689 632.722 368.549 630.885 368.415 628.728C368.148 624.418 367.91 618.879 367.725 613.155C367.353 601.681 367.195 589.569 367.417 585.127L364.421 584.977ZM421.039 646.675C422.256 645.688 423.483 644.094 424.666 642.382C425.863 640.65 427.138 638.611 428.389 636.695C429.661 634.747 430.927 632.894 432.177 631.402C433.455 629.877 434.581 628.896 435.531 628.493L434.361 625.731C432.728 626.423 431.223 627.87 429.878 629.476C428.505 631.114 427.156 633.096 425.877 635.055C424.577 637.046 423.366 638.986 422.198 640.676C421.017 642.385 420 643.655 419.15 644.344L421.039 646.675ZM435.531 628.493C440.453 626.408 445.479 625.612 452.242 625.709L452.285 622.709C445.237 622.608 439.771 623.439 434.361 625.731L435.531 628.493ZM452.242 625.709C455.682 625.758 457.872 625.927 459.698 626.392C461.481 626.847 462.998 627.608 465.037 628.984L466.714 626.496C464.512 625.011 462.674 624.056 460.439 623.486C458.246 622.926 455.751 622.759 452.285 622.709L452.242 625.709ZM465.037 628.984C465.832 629.519 466.619 630.463 467.372 631.74C468.113 632.999 468.76 634.475 469.319 635.958C469.876 637.437 470.332 638.882 470.707 640.08C470.892 640.671 471.062 641.217 471.211 641.661C471.35 642.076 471.507 642.514 471.676 642.831L474.324 641.421C474.288 641.354 474.202 641.143 474.055 640.706C473.918 640.299 473.76 639.79 473.57 639.184C473.195 637.987 472.717 636.468 472.126 634.9C471.536 633.336 470.82 631.683 469.956 630.217C469.103 628.768 468.041 627.391 466.714 626.496L465.037 628.984ZM471.676 642.831C472.048 643.529 472.716 643.84 473.148 643.987C473.624 644.149 474.159 644.229 474.668 644.27C475.696 644.352 476.922 644.295 478.051 644.197C479.195 644.097 480.305 643.948 481.124 643.826C481.535 643.764 481.875 643.708 482.115 643.668C482.234 643.648 482.329 643.632 482.394 643.62C482.426 643.614 482.452 643.61 482.469 643.607C482.478 643.605 482.485 643.604 482.49 643.603C482.492 643.603 482.494 643.602 482.495 643.602C482.496 643.602 482.497 643.602 482.497 643.602C482.497 643.602 482.497 643.602 482.498 643.602C482.498 643.602 482.498 643.602 482.228 642.126C481.959 640.65 481.959 640.65 481.959 640.65C481.959 640.65 481.959 640.65 481.959 640.65C481.959 640.65 481.959 640.65 481.958 640.65C481.958 640.651 481.956 640.651 481.955 640.651C481.952 640.652 481.946 640.653 481.939 640.654C481.925 640.657 481.903 640.66 481.874 640.666C481.815 640.676 481.728 640.691 481.616 640.71C481.392 640.748 481.069 640.8 480.679 640.859C479.896 640.976 478.852 641.116 477.791 641.208C476.715 641.302 475.685 641.341 474.906 641.279C474.512 641.248 474.256 641.195 474.115 641.147C473.931 641.084 474.157 641.107 474.324 641.421L471.676 642.831ZM482.228 642.126C483.719 642.294 483.719 642.294 483.719 642.294C483.719 642.293 483.719 642.293 483.719 642.293C483.719 642.292 483.719 642.291 483.719 642.289C483.72 642.286 483.72 642.282 483.721 642.276C483.722 642.265 483.724 642.248 483.727 642.225C483.732 642.18 483.739 642.113 483.749 642.026C483.768 641.852 483.796 641.596 483.831 641.268C483.902 640.612 484.002 639.668 484.12 638.511C484.355 636.197 484.661 633.033 484.942 629.631C485.5 622.893 485.982 615.021 485.577 611.092L482.593 611.399C482.963 614.993 482.517 622.561 481.952 629.383C481.673 632.761 481.369 635.906 481.135 638.207C481.018 639.357 480.919 640.296 480.849 640.947C480.813 641.272 480.786 641.526 480.767 641.697C480.757 641.783 480.75 641.849 480.745 641.892C480.743 641.914 480.741 641.931 480.74 641.942C480.739 641.947 480.738 641.951 480.738 641.954C480.738 641.956 480.738 641.957 480.738 641.957C480.738 641.957 480.738 641.958 480.738 641.958C480.738 641.958 480.738 641.958 482.228 642.126ZM485.577 611.092C484.75 603.063 479.84 597.513 477.398 594.329L475.017 596.155C477.611 599.537 481.87 604.382 482.593 611.399L485.577 611.092ZM477.398 594.329C474.819 590.968 472.599 588.716 470.215 586.874L468.381 589.248C470.517 590.899 472.559 592.951 475.017 596.155L477.398 594.329ZM482.228 642.126C480.741 641.929 480.741 641.929 480.741 641.929C480.741 641.929 480.741 641.929 480.741 641.929C480.741 641.929 480.741 641.929 480.741 641.93C480.741 641.931 480.741 641.933 480.74 641.935C480.74 641.94 480.739 641.948 480.737 641.958C480.735 641.978 480.731 642.009 480.725 642.049C480.714 642.13 480.697 642.25 480.675 642.405C480.63 642.714 480.565 643.161 480.479 643.707C480.307 644.8 480.056 646.285 479.741 647.857C479.424 649.433 479.048 651.073 478.626 652.486C478.188 653.951 477.753 654.992 477.382 655.503L479.811 657.264C480.506 656.305 481.057 654.829 481.5 653.344C481.959 651.808 482.357 650.068 482.682 648.447C483.008 646.822 483.266 645.294 483.442 644.173C483.53 643.612 483.598 643.152 483.644 642.831C483.667 642.67 483.685 642.545 483.697 642.458C483.703 642.415 483.707 642.382 483.71 642.359C483.712 642.348 483.713 642.339 483.714 642.333C483.714 642.33 483.715 642.328 483.715 642.326C483.715 642.325 483.715 642.325 483.715 642.324C483.715 642.324 483.715 642.324 483.715 642.324C483.715 642.323 483.715 642.323 482.228 642.126ZM477.382 655.503C477.325 655.582 477.152 655.752 476.711 655.953C476.279 656.149 475.684 656.332 474.907 656.493C473.349 656.816 471.274 657.011 468.77 657.151C463.864 657.427 457.296 657.487 450.707 658.035L450.955 661.024C457.538 660.478 463.788 660.436 468.938 660.147C471.464 660.005 473.727 659.802 475.516 659.431C476.413 659.245 477.244 659.006 477.953 658.684C478.652 658.366 479.335 657.92 479.811 657.264L477.382 655.503ZM450.707 658.035C437.615 659.122 427.691 659.191 413.175 658.034L412.937 661.025C427.614 662.194 437.701 662.125 450.955 661.024L450.707 658.035ZM413.175 658.034C398.613 656.874 386.467 655.307 378.141 653.747L377.588 656.695C386.051 658.281 398.308 659.86 412.937 661.025L413.175 658.034ZM378.141 653.747C373.881 652.948 371.887 652.496 370.866 652.068C370.406 651.875 370.293 651.745 370.259 651.702C370.202 651.63 370.141 651.516 369.992 651.062L367.141 651.994C367.283 652.429 367.479 653.024 367.909 653.566C368.361 654.137 368.963 654.523 369.706 654.835C371.089 655.415 373.454 655.921 377.588 656.695L378.141 653.747ZM369.992 651.062C369.922 650.847 369.84 650.229 369.802 649.184C369.766 648.207 369.772 647.027 369.8 645.818C369.855 643.402 369.999 640.947 370.063 639.927L367.069 639.739C367.004 640.771 366.858 643.274 366.8 645.748C366.772 646.984 366.765 648.232 366.804 649.294C366.841 650.288 366.92 651.319 367.141 651.994L369.992 651.062ZM450.077 617.394C452.053 617.28 454.043 617.397 455.986 617.543C457.887 617.685 459.812 617.864 461.489 617.832C463.149 617.801 464.85 617.567 466.205 616.68C467.662 615.725 468.467 614.189 468.661 612.139L465.674 611.857C465.545 613.226 465.083 613.828 464.56 614.17C463.935 614.58 462.945 614.804 461.433 614.832C459.937 614.861 458.21 614.701 456.211 614.551C454.253 614.404 452.094 614.273 449.905 614.399L450.077 617.394ZM468.661 612.139C468.878 609.838 467.876 608.07 466.293 606.824C464.783 605.635 462.734 604.899 460.639 604.423C456.43 603.465 451.396 603.42 448.296 603.454L448.329 606.454C451.428 606.419 456.144 606.477 459.974 607.348C461.899 607.786 463.442 608.397 464.438 609.181C465.361 609.908 465.78 610.738 465.674 611.857L468.661 612.139ZM448.296 603.454C445.133 603.489 439.935 603.869 435.46 605.351C431.095 606.795 426.682 609.565 426.602 614.779L429.601 614.825C429.65 611.695 432.243 609.575 436.402 608.199C440.451 606.859 445.293 606.487 448.329 606.454L448.296 603.454ZM426.602 614.779C426.583 616.019 426.818 617.13 427.387 618.052C427.967 618.991 428.81 619.6 429.762 619.962C431.56 620.646 433.871 620.496 436.111 620.139C438.403 619.773 440.973 619.122 443.379 618.561C445.839 617.988 448.14 617.505 450.077 617.394L449.905 614.399C447.678 614.527 445.144 615.07 442.698 615.64C440.199 616.222 437.793 616.832 435.638 617.176C433.43 617.528 431.822 617.536 430.83 617.158C430.386 616.99 430.116 616.762 429.94 616.476C429.753 616.173 429.588 615.671 429.601 614.825L426.602 614.779ZM293.295 616.211C293.652 613.494 291.957 611.538 289.947 610.24C287.929 608.937 285.234 608.035 282.65 607.401C280.038 606.761 277.41 606.365 275.446 606.129C274.461 606.01 273.637 605.932 273.057 605.882C272.767 605.857 272.538 605.84 272.38 605.829C272.301 605.823 272.239 605.819 272.197 605.816C272.176 605.815 272.16 605.814 272.148 605.813C272.142 605.813 272.138 605.812 272.135 605.812C272.133 605.812 272.132 605.812 272.131 605.812C272.13 605.812 272.13 605.812 272.13 605.812C272.129 605.812 272.129 605.812 272.04 607.309C271.952 608.807 271.951 608.807 271.951 608.807C271.951 608.807 271.951 608.807 271.951 608.807C271.952 608.807 271.952 608.807 271.953 608.807C271.955 608.807 271.958 608.807 271.962 608.807C271.971 608.808 271.984 608.809 272.002 608.81C272.039 608.812 272.094 608.816 272.166 608.821C272.312 608.831 272.527 608.848 272.802 608.871C273.353 608.918 274.143 608.994 275.088 609.107C276.984 609.335 279.483 609.714 281.935 610.315C284.416 610.923 286.724 611.73 288.32 612.761C289.925 613.796 290.455 614.798 290.321 615.82L293.295 616.211ZM272.04 607.309C272.129 605.812 272.129 605.812 272.128 605.812C272.128 605.812 272.127 605.812 272.127 605.812C272.126 605.812 272.125 605.812 272.123 605.812C272.12 605.811 272.116 605.811 272.11 605.811C272.099 605.81 272.083 605.809 272.063 605.808C272.022 605.806 271.963 605.803 271.887 605.8C271.736 605.792 271.516 605.783 271.237 605.774C270.68 605.756 269.888 605.74 268.939 605.743C267.047 605.751 264.505 605.841 261.949 606.176C259.421 606.507 256.749 607.094 254.675 608.161C252.592 609.233 250.787 610.985 250.823 613.685L253.823 613.645C253.809 612.58 254.443 611.655 256.048 610.829C257.661 609.999 259.925 609.467 262.339 609.15C264.725 608.838 267.131 608.751 268.951 608.743C269.859 608.74 270.614 608.756 271.141 608.773C271.404 608.781 271.609 608.79 271.748 608.796C271.817 608.8 271.869 608.802 271.904 608.804C271.921 608.805 271.934 608.806 271.942 608.806C271.946 608.806 271.948 608.806 271.95 608.807C271.951 608.807 271.951 608.807 271.952 608.807C271.952 608.807 271.952 608.807 271.952 608.807C271.952 608.807 271.951 608.807 272.04 607.309ZM250.823 613.685C250.854 615.973 251.705 617.71 253.262 618.888C254.724 619.994 256.658 620.488 258.648 620.729C260.661 620.973 262.947 620.978 265.244 620.956C267.576 620.933 269.932 620.881 272.224 620.985L272.361 617.988C269.962 617.879 267.491 617.934 265.215 617.956C262.904 617.979 260.802 617.968 259.008 617.751C257.191 617.531 255.897 617.12 255.072 616.495C254.34 615.942 253.843 615.122 253.823 613.645L250.823 613.685ZM272.224 620.985C274.497 621.089 276.765 621.384 278.971 621.664C281.143 621.94 283.292 622.208 285.193 622.215C287.074 622.222 288.949 621.981 290.454 621.047C292.053 620.054 293.003 618.431 293.295 616.211L290.321 615.82C290.121 617.338 289.558 618.072 288.872 618.498C288.091 618.982 286.907 619.222 285.204 619.215C283.522 619.209 281.563 618.97 279.35 618.688C277.171 618.411 274.778 618.098 272.361 617.988L272.224 620.985ZM233.287 300.452C233.455 300.6 233.647 300.715 233.769 300.784C233.916 300.868 234.087 300.956 234.274 301.047C234.648 301.23 235.137 301.448 235.721 301.696C236.893 302.193 238.5 302.829 240.455 303.56C244.367 305.021 249.707 306.875 255.805 308.769C267.982 312.553 283.273 316.531 296.279 317.861L296.584 314.876C283.875 313.577 268.807 309.668 256.695 305.904C250.649 304.026 245.362 302.191 241.505 300.75C239.574 300.028 238.011 299.409 236.893 298.935C236.333 298.697 235.897 298.501 235.589 298.351C235.434 298.275 235.324 298.217 235.253 298.177C235.157 298.122 235.194 298.134 235.272 298.203L233.287 300.452ZM296.279 317.861C322.05 320.495 385.209 323.18 389.003 323.335L389.126 320.338C385.293 320.181 322.243 317.499 296.584 314.876L296.279 317.861ZM417.595 588.461C417.653 588.408 417.544 588.517 416.994 588.648C416.505 588.763 415.835 588.858 414.99 588.927C413.305 589.062 411.091 589.079 408.574 589.015C403.548 588.888 397.484 588.447 392.375 588.07L392.154 591.062C397.247 591.437 403.387 591.885 408.498 592.014C411.05 592.079 413.388 592.065 415.231 591.917C416.15 591.843 416.987 591.732 417.686 591.567C418.323 591.416 419.082 591.168 419.624 590.671L417.595 588.461ZM392.375 588.07C387.368 587.701 380.855 586.587 375.553 585.554C372.91 585.04 370.585 584.548 368.92 584.186C368.088 584.005 367.421 583.856 366.963 583.752C366.734 583.7 366.558 583.66 366.439 583.632C366.379 583.619 366.334 583.608 366.304 583.601C366.289 583.598 366.277 583.595 366.27 583.594C366.266 583.593 366.264 583.592 366.262 583.592C366.261 583.591 366.26 583.591 366.26 583.591C366.26 583.591 366.26 583.591 366.259 583.591C366.259 583.591 366.259 583.591 365.919 585.052C365.579 586.513 365.579 586.513 365.579 586.513C365.579 586.513 365.579 586.513 365.58 586.513C365.58 586.513 365.581 586.513 365.582 586.514C365.584 586.514 365.587 586.515 365.591 586.516C365.6 586.518 365.612 586.52 365.627 586.524C365.659 586.531 365.706 586.542 365.767 586.556C365.889 586.584 366.069 586.626 366.302 586.678C366.767 586.783 367.441 586.934 368.281 587.117C369.962 587.483 372.31 587.979 374.979 588.499C380.299 589.535 386.959 590.679 392.154 591.062L392.375 588.07ZM422.507 344.034C418.457 344.234 415.298 347.015 414.058 350.255L416.86 351.328C417.73 349.054 419.94 347.165 422.656 347.03L422.507 344.034ZM414.058 350.255C413.4 351.975 413.345 354.6 413.587 356.905C413.711 358.094 413.923 359.279 414.214 360.322C414.497 361.334 414.888 362.339 415.435 363.072L417.839 361.277C417.621 360.985 417.351 360.4 417.104 359.516C416.866 358.663 416.681 357.648 416.57 356.592C416.341 354.407 416.462 352.366 416.86 351.328L414.058 350.255ZM415.435 363.072C417.223 365.466 420.22 367.532 424.823 367.256L424.644 364.262C421.19 364.468 419.112 362.982 417.839 361.277L415.435 363.072ZM424.823 367.256C427.398 367.103 429.046 365.779 430.071 364.16C431.039 362.631 431.464 360.82 431.748 359.587L428.825 358.912C428.529 360.195 428.192 361.518 427.536 362.555C426.937 363.502 426.098 364.175 424.644 364.262L424.823 367.256ZM440.343 365.142C443.362 365.366 446.386 363.899 447.96 361.837L445.576 360.016C444.618 361.27 442.576 362.299 440.564 362.15L440.343 365.142ZM430.802 349.821C429.408 346.837 426.788 343.821 422.507 344.034L422.656 347.03C425.141 346.907 426.906 348.57 428.083 351.091L430.802 349.821ZM446.327 343.487C445.925 342.997 445.462 342.524 445.115 342.186C444.939 342.014 444.785 341.87 444.675 341.769C444.62 341.718 444.576 341.678 444.544 341.649C444.529 341.635 444.516 341.624 444.507 341.616C444.503 341.612 444.499 341.609 444.497 341.606C444.495 341.605 444.494 341.604 444.493 341.604C444.493 341.603 444.492 341.603 444.492 341.603C444.492 341.602 444.492 341.602 444.492 341.602C444.492 341.602 444.492 341.602 444.491 341.602C444.491 341.602 444.491 341.602 443.497 342.725C442.502 343.847 442.502 343.847 442.502 343.847C442.502 343.847 442.502 343.847 442.502 343.847C442.502 343.847 442.502 343.847 442.502 343.847C442.502 343.847 442.502 343.847 442.502 343.847C442.502 343.847 442.502 343.847 442.502 343.848C442.503 343.849 442.505 343.85 442.508 343.853C442.514 343.858 442.523 343.866 442.535 343.877C442.559 343.899 442.596 343.932 442.642 343.975C442.736 344.061 442.868 344.185 443.022 344.335C443.334 344.639 443.707 345.024 444.008 345.39L446.327 343.487ZM443.497 342.725C444.528 341.636 444.528 341.635 444.527 341.634C444.527 341.634 444.526 341.633 444.525 341.633C444.524 341.632 444.523 341.631 444.522 341.63C444.52 341.628 444.517 341.626 444.515 341.623C444.51 341.619 444.505 341.614 444.499 341.609C444.488 341.599 444.475 341.587 444.461 341.575C444.432 341.55 444.398 341.522 444.356 341.489C444.274 341.425 444.166 341.347 444.031 341.262C443.761 341.092 443.384 340.894 442.887 340.718C441.889 340.362 440.448 340.104 438.474 340.28L438.74 343.269C440.318 343.128 441.322 343.345 441.881 343.544C442.163 343.644 442.342 343.744 442.433 343.801C442.479 343.83 442.504 343.849 442.508 343.852C442.51 343.854 442.508 343.852 442.501 343.846C442.497 343.843 442.492 343.839 442.486 343.833C442.483 343.83 442.48 343.828 442.476 343.824C442.475 343.823 442.473 343.821 442.471 343.819C442.47 343.818 442.469 343.817 442.468 343.816C442.467 343.816 442.467 343.815 442.466 343.815C442.466 343.814 442.465 343.813 443.497 342.725ZM443.497 342.725C444.765 343.526 444.765 343.526 444.765 343.526C444.765 343.526 444.765 343.526 444.765 343.526C444.765 343.526 444.765 343.525 444.765 343.525C444.766 343.525 444.766 343.524 444.767 343.523C444.768 343.521 444.77 343.518 444.772 343.514C444.778 343.505 444.786 343.493 444.797 343.476C444.818 343.442 444.85 343.392 444.892 343.327C444.975 343.197 445.096 343.008 445.248 342.775C445.551 342.31 445.973 341.67 446.45 340.973C447.423 339.549 448.554 337.988 449.354 337.141L447.173 335.081C446.189 336.123 444.937 337.87 443.973 339.28C443.481 340 443.045 340.66 442.734 341.139C442.578 341.378 442.452 341.574 442.365 341.709C442.322 341.777 442.288 341.83 442.265 341.867C442.253 341.885 442.244 341.899 442.238 341.908C442.235 341.913 442.233 341.917 442.231 341.919C442.23 341.921 442.23 341.922 442.229 341.922C442.229 341.923 442.229 341.923 442.229 341.923C442.229 341.923 442.229 341.924 442.229 341.924C442.228 341.924 442.228 341.924 443.497 342.725ZM449.354 337.141C450.167 336.279 451.703 334.941 453.236 333.979C454.006 333.496 454.703 333.154 455.259 332.992C455.863 332.816 455.997 332.935 455.934 332.896L457.515 330.346C456.486 329.709 455.303 329.854 454.419 330.112C453.486 330.384 452.523 330.885 451.642 331.438C449.873 332.547 448.144 334.053 447.173 335.081L449.354 337.141ZM455.934 332.896C455.735 332.773 455.682 332.641 455.706 332.687C455.724 332.721 455.766 332.823 455.814 333.021C455.91 333.419 455.981 334.007 456.019 334.773C456.093 336.294 456.023 338.27 455.893 340.3C455.765 342.321 455.581 344.343 455.437 345.953C455.365 346.752 455.303 347.458 455.263 348.002C455.243 348.274 455.228 348.518 455.221 348.721C455.215 348.889 455.209 349.134 455.237 349.347L458.211 348.957C458.22 349.024 458.212 349.013 458.219 348.829C458.224 348.68 458.237 348.478 458.255 348.22C458.293 347.706 458.353 347.026 458.425 346.22C458.568 344.619 458.756 342.557 458.887 340.491C459.018 338.435 459.098 336.322 459.015 334.627C458.974 333.786 458.89 332.983 458.73 332.319C458.65 331.986 458.539 331.638 458.375 331.318C458.217 331.01 457.954 330.619 457.515 330.346L455.934 332.896ZM455.237 349.347C455.283 349.699 455.508 350.417 456.31 350.699C456.916 350.911 457.434 350.698 457.58 350.636C457.954 350.476 458.319 350.187 458.552 349.998C459.191 349.48 459.689 349.004 460.402 348.463C461.111 347.925 461.573 347.704 461.784 347.675C461.824 347.67 461.718 347.688 461.594 347.602C461.495 347.532 461.557 347.513 461.648 347.793L464.5 346.86C464.283 346.199 463.92 345.567 463.314 345.143C462.683 344.702 461.985 344.621 461.384 344.702C460.314 344.847 459.294 345.537 458.588 346.073C457.887 346.605 457.037 347.364 456.664 347.667C456.391 347.888 456.333 347.906 456.402 347.877C456.435 347.862 456.525 347.826 456.657 347.806C456.787 347.786 457.025 347.77 457.304 347.868C458.017 348.118 458.185 348.752 458.211 348.957L455.237 349.347ZM461.648 347.793C462.073 349.092 461.702 350.425 460.961 351.662C460.223 352.893 459.239 353.812 458.882 354.106L460.793 356.419C461.316 355.987 462.566 354.819 463.534 353.205C464.499 351.595 465.306 349.324 464.5 346.86L461.648 347.793ZM458.882 354.106C458.262 354.618 456.72 355.428 453.003 356.484L453.823 359.37C457.578 358.303 459.654 357.36 460.793 356.419L458.882 354.106ZM447.96 361.837C448.638 360.95 449.058 360.266 449.317 359.777C449.446 359.532 449.536 359.335 449.597 359.186C449.627 359.112 449.65 359.049 449.668 358.998C449.677 358.972 449.684 358.95 449.691 358.93C449.694 358.92 449.697 358.911 449.699 358.903C449.7 358.899 449.702 358.895 449.703 358.891C449.703 358.889 449.704 358.887 449.704 358.885C449.705 358.885 449.705 358.884 449.705 358.883C449.705 358.882 449.705 358.882 449.705 358.881C449.706 358.881 449.706 358.88 448.263 358.468C446.821 358.056 446.821 358.055 446.822 358.055C446.822 358.054 446.822 358.054 446.822 358.053C446.822 358.053 446.822 358.052 446.823 358.051C446.823 358.049 446.824 358.048 446.824 358.046C446.825 358.043 446.826 358.04 446.827 358.038C446.828 358.033 446.829 358.028 446.831 358.025C446.833 358.018 446.834 358.014 446.834 358.013C446.835 358.013 446.83 358.025 446.819 358.052C446.798 358.104 446.751 358.212 446.665 358.374C446.493 358.699 446.166 359.244 445.576 360.016L447.96 361.837ZM448.263 358.468C449.758 358.336 449.758 358.336 449.758 358.336C449.758 358.336 449.758 358.336 449.758 358.336C449.758 358.336 449.758 358.336 449.758 358.336C449.758 358.335 449.758 358.335 449.758 358.334C449.757 358.333 449.757 358.331 449.757 358.328C449.756 358.322 449.756 358.313 449.755 358.302C449.753 358.279 449.75 358.246 449.746 358.203C449.739 358.118 449.728 357.995 449.715 357.846C449.689 357.549 449.655 357.149 449.621 356.737C449.587 356.324 449.553 355.902 449.528 355.559C449.515 355.387 449.505 355.24 449.498 355.125C449.49 354.995 449.489 354.945 449.489 354.946L446.489 354.946C446.489 355.231 446.567 356.203 446.631 356.984C446.666 357.401 446.7 357.805 446.726 358.104C446.739 358.254 446.75 358.378 446.757 358.464C446.761 358.507 446.764 358.541 446.766 358.564C446.767 358.576 446.768 358.584 446.768 358.59C446.769 358.593 446.769 358.596 446.769 358.597C446.769 358.598 446.769 358.599 446.769 358.599C446.769 358.599 446.769 358.599 446.769 358.6C446.769 358.6 446.769 358.6 446.769 358.6C446.769 358.6 446.769 358.6 448.263 358.468ZM453.003 356.484C451.243 356.984 450.093 357.093 449.432 357.095C449.102 357.097 448.894 357.071 448.792 357.054C448.741 357.045 448.716 357.038 448.715 357.038C448.715 357.038 448.72 357.039 448.731 357.043C448.737 357.045 448.744 357.047 448.752 357.05C448.757 357.051 448.761 357.053 448.766 357.055C448.768 357.056 448.771 357.056 448.774 357.057C448.775 357.058 448.776 357.058 448.778 357.059C448.778 357.059 448.779 357.059 448.78 357.06C448.781 357.06 448.782 357.06 448.263 358.468C447.745 359.876 447.746 359.876 447.747 359.876C447.748 359.877 447.749 359.877 447.75 359.877C447.751 359.878 447.752 359.878 447.754 359.879C447.757 359.88 447.76 359.881 447.763 359.882C447.769 359.884 447.776 359.887 447.783 359.889C447.797 359.894 447.812 359.899 447.829 359.904C447.863 359.915 447.902 359.926 447.948 359.938C448.039 359.962 448.154 359.988 448.293 360.012C448.573 360.059 448.952 360.097 449.442 360.095C450.422 360.092 451.847 359.931 453.823 359.37L453.003 356.484ZM449.489 354.946C449.489 354.646 449.428 354.003 449.381 353.543C449.356 353.289 449.33 353.049 449.311 352.872C449.302 352.784 449.294 352.711 449.288 352.661C449.285 352.635 449.283 352.616 449.282 352.602C449.281 352.595 449.28 352.59 449.28 352.586C449.28 352.584 449.28 352.583 449.279 352.582C449.279 352.582 449.279 352.581 449.279 352.581C449.279 352.581 449.279 352.581 449.279 352.581C449.279 352.581 449.279 352.581 449.279 352.58C449.279 352.58 449.279 352.58 447.789 352.748C446.298 352.915 446.298 352.915 446.298 352.915C446.298 352.915 446.298 352.915 446.298 352.915C446.298 352.915 446.298 352.915 446.298 352.915C446.298 352.915 446.298 352.915 446.298 352.916C446.298 352.917 446.298 352.918 446.298 352.919C446.299 352.923 446.299 352.927 446.3 352.934C446.301 352.947 446.304 352.965 446.306 352.99C446.312 353.039 446.319 353.109 446.329 353.195C446.347 353.366 446.372 353.599 446.396 353.843C446.421 354.089 446.445 354.341 446.463 354.554C446.472 354.661 446.479 354.753 446.484 354.827C446.486 354.864 446.487 354.893 446.488 354.916C446.489 354.939 446.489 354.948 446.489 354.946L449.489 354.946ZM447.789 352.748C449.047 353.564 449.047 353.564 449.047 353.563C449.047 353.563 449.048 353.563 449.048 353.563C449.048 353.563 449.048 353.563 449.048 353.562C449.049 353.561 449.049 353.561 449.05 353.559C449.052 353.557 449.054 353.554 449.057 353.549C449.062 353.541 449.07 353.528 449.08 353.512C449.101 353.48 449.131 353.434 449.168 353.374C449.243 353.256 449.35 353.087 449.479 352.878C449.735 352.463 450.082 351.889 450.439 351.259C450.795 350.632 451.17 349.933 451.478 349.271C451.771 348.643 452.063 347.924 452.17 347.298L449.212 346.796C449.178 346.998 449.037 347.407 448.759 348.003C448.497 348.566 448.164 349.188 447.829 349.779C447.496 350.367 447.17 350.908 446.926 351.302C446.805 351.498 446.705 351.658 446.635 351.767C446.601 351.822 446.574 351.864 446.556 351.892C446.547 351.906 446.54 351.916 446.536 351.923C446.533 351.926 446.532 351.929 446.531 351.93C446.53 351.931 446.53 351.931 446.53 351.932C446.53 351.932 446.53 351.932 446.53 351.932C446.53 351.932 446.53 351.932 446.53 351.932C446.53 351.932 446.53 351.932 447.789 352.748ZM452.17 347.298C452.307 346.487 452.479 345.48 452.546 344.634C452.579 344.217 452.595 343.758 452.544 343.344C452.519 343.137 452.469 342.876 452.36 342.613C452.252 342.356 452.036 341.979 451.608 341.719L450.047 344.28C449.743 344.095 449.625 343.85 449.592 343.771C449.557 343.687 449.56 343.652 449.567 343.709C449.581 343.823 449.584 344.046 449.556 344.396C449.501 345.083 449.356 345.949 449.212 346.796L452.17 347.298ZM449.255 352.433L447.841 345.845L444.908 346.474L446.322 353.062L449.255 352.433ZM446.375 346.159C447.671 345.404 447.671 345.404 447.671 345.404C447.671 345.404 447.67 345.404 447.67 345.404C447.67 345.403 447.67 345.403 447.67 345.403C447.67 345.403 447.67 345.402 447.669 345.402C447.669 345.401 447.668 345.399 447.667 345.398C447.665 345.395 447.663 345.391 447.661 345.387C447.655 345.378 447.648 345.366 447.639 345.35C447.62 345.32 447.595 345.277 447.562 345.224C447.496 345.118 447.403 344.969 447.286 344.793C447.054 344.442 446.721 343.967 446.327 343.487L444.008 345.39C444.318 345.767 444.589 346.153 444.784 346.448C444.881 346.595 444.957 346.716 445.008 346.798C445.034 346.84 445.053 346.871 445.065 346.891C445.071 346.901 445.075 346.908 445.077 346.912C445.078 346.914 445.079 346.915 445.079 346.916C445.08 346.916 445.08 346.916 445.079 346.916C445.079 346.916 445.079 346.916 445.079 346.915C445.079 346.915 445.079 346.915 445.079 346.915C445.079 346.915 445.079 346.915 445.079 346.915C445.079 346.915 445.079 346.915 446.375 346.159ZM451.608 341.719C451.129 341.427 450.655 341.474 450.466 341.503C450.239 341.538 450.043 341.61 449.911 341.667C449.638 341.782 449.359 341.946 449.114 342.102C448.61 342.425 448.023 342.865 447.487 343.288C446.943 343.716 446.419 344.151 446.033 344.477C445.839 344.641 445.679 344.778 445.566 344.875C445.51 344.923 445.466 344.962 445.435 344.988C445.42 345.002 445.408 345.012 445.4 345.019C445.396 345.023 445.393 345.025 445.391 345.027C445.39 345.028 445.389 345.029 445.388 345.03C445.388 345.03 445.388 345.03 445.387 345.03C445.387 345.03 445.387 345.03 445.387 345.03C445.387 345.03 445.387 345.031 446.375 346.159C447.363 347.288 447.362 347.288 447.362 347.288C447.362 347.288 447.362 347.288 447.362 347.288C447.363 347.288 447.363 347.288 447.363 347.288C447.363 347.288 447.364 347.287 447.364 347.287C447.366 347.285 447.369 347.283 447.372 347.28C447.379 347.274 447.389 347.265 447.403 347.253C447.431 347.229 447.472 347.193 447.525 347.147C447.631 347.056 447.784 346.925 447.969 346.769C448.34 346.456 448.836 346.044 449.343 345.645C449.858 345.239 450.353 344.871 450.731 344.629C450.927 344.504 451.038 344.447 451.077 344.43C451.1 344.421 451.041 344.45 450.926 344.467C450.849 344.479 450.464 344.535 450.047 344.28L451.608 341.719ZM422.562 350.547C419.974 350.58 418.423 353.066 418.57 355.502L421.565 355.322C421.485 354.002 422.267 353.551 422.601 353.546L422.562 350.547ZM418.57 355.502C418.641 356.688 419.025 357.795 419.877 358.56C420.747 359.34 421.859 359.547 422.924 359.416L422.558 356.438C422.11 356.493 421.942 356.382 421.881 356.327C421.803 356.257 421.606 356.013 421.565 355.322L418.57 355.502ZM422.924 359.416C425.408 359.11 426.639 356.917 426.615 354.824L423.616 354.858C423.627 355.894 423.099 356.371 422.558 356.438L422.924 359.416ZM426.615 354.824C426.591 352.638 425.047 350.515 422.562 350.547L422.601 353.546C423.038 353.541 423.605 353.913 423.616 354.858L426.615 354.824ZM439.239 347.387C438.219 347.387 437.082 347.827 436.236 348.656C435.339 349.535 434.785 350.839 434.996 352.437L437.97 352.046C437.887 351.412 438.091 351.039 438.336 350.798C438.632 350.508 439.02 350.387 439.239 350.387L439.239 347.387ZM434.996 352.437C435.148 353.6 435.444 354.755 436.328 355.516C437.216 356.279 438.352 356.341 439.239 356.341V353.341C438.355 353.341 438.259 353.219 438.285 353.241C438.307 353.261 438.111 353.116 437.97 352.046L434.996 352.437ZM439.239 356.341C440.184 356.341 441.493 356.223 442.486 355.382C443.598 354.44 443.888 352.996 443.652 351.351L440.683 351.777C440.843 352.892 440.555 353.086 440.547 353.093C440.421 353.2 440.067 353.341 439.239 353.341V356.341ZM443.652 351.351C443.428 349.784 442.888 348.578 441.806 347.913C440.841 347.32 439.715 347.387 439.239 347.387L439.239 350.387C439.593 350.387 439.797 350.385 439.99 350.407C440.159 350.427 440.217 350.458 440.235 350.469C440.239 350.471 440.299 350.503 440.384 350.669C440.48 350.854 440.599 351.191 440.683 351.777L443.652 351.351ZM428.083 351.091C429.205 353.493 429.343 356.669 428.825 358.912L431.748 359.587C432.392 356.8 432.251 352.924 430.802 349.821L428.083 351.091ZM430.599 352.748C430.599 353.876 430.706 355.344 430.961 356.762C431.207 358.136 431.623 359.653 432.34 360.744L434.847 359.096C434.474 358.529 434.142 357.507 433.914 356.232C433.693 355.002 433.599 353.712 433.599 352.748L430.599 352.748ZM438.474 340.28C433.956 340.683 431.94 344.757 431.289 346.748L434.14 347.681C434.72 345.909 436.151 343.499 438.74 343.269L438.474 340.28ZM432.34 360.744C433.075 361.861 434.397 362.89 435.762 363.647C437.146 364.415 438.801 365.028 440.343 365.142L440.564 362.15C439.591 362.078 438.361 361.658 437.217 361.023C436.053 360.378 435.203 359.637 434.847 359.096L432.34 360.744ZM431.289 346.748C430.589 348.887 430.599 350.673 430.599 352.748L433.599 352.748C433.599 350.636 433.608 349.305 434.14 347.681L431.289 346.748ZM366.383 637.613C366.759 638.64 366.965 639.262 367.072 639.628C367.127 639.814 367.149 639.909 367.156 639.945C367.159 639.962 367.155 639.945 367.151 639.904C367.149 639.879 367.138 639.751 367.17 639.579L370.121 640.117C370.182 639.781 370.12 639.473 370.101 639.374C370.068 639.207 370.018 639.011 369.951 638.784C369.816 638.324 369.584 637.631 369.2 636.582L366.383 637.613ZM368.366 641.322C369.445 641.526 381.323 643.764 393.444 645.542C399.501 646.431 405.648 647.209 410.549 647.558C412.995 647.733 415.171 647.804 416.886 647.72C417.743 647.679 418.524 647.597 419.186 647.457C419.805 647.326 420.505 647.108 421.039 646.675L419.15 644.344C419.18 644.32 419.053 644.419 418.565 644.522C418.119 644.616 417.513 644.686 416.741 644.724C415.2 644.799 413.161 644.737 410.762 644.566C405.974 644.224 399.913 643.459 393.88 642.574C381.822 640.805 369.993 638.576 368.925 638.374L368.366 641.322ZM368.566 639.833C368.285 641.306 368.285 641.306 368.285 641.306C368.285 641.306 368.285 641.306 368.285 641.306C368.285 641.306 368.285 641.306 368.285 641.306C368.285 641.306 368.285 641.306 368.285 641.306C368.285 641.306 368.285 641.306 368.285 641.306C368.285 641.306 368.285 641.306 368.285 641.306C368.286 641.306 368.286 641.307 368.287 641.307C368.287 641.307 368.289 641.307 368.291 641.307C368.294 641.308 368.299 641.309 368.306 641.31C368.32 641.313 368.34 641.317 368.366 641.322L368.925 638.374C368.899 638.369 368.879 638.366 368.867 638.363C368.86 638.362 368.855 638.361 368.852 638.36C368.851 638.36 368.85 638.36 368.849 638.36C368.848 638.36 368.848 638.36 368.848 638.36C368.848 638.36 368.848 638.36 368.848 638.36C368.848 638.36 368.848 638.36 368.848 638.36C368.848 638.36 368.848 638.36 368.848 638.36C368.848 638.36 368.848 638.36 368.848 638.36C368.848 638.36 368.848 638.36 368.848 638.36C368.848 638.36 368.848 638.36 368.566 639.833ZM367.17 639.579C367.189 639.475 367.238 639.266 367.387 639.041C367.555 638.787 367.843 638.53 368.253 638.424C368.63 638.327 368.945 638.401 369.118 638.463C369.293 638.525 369.415 638.606 369.478 638.652C369.602 638.741 369.679 638.828 369.702 638.854C369.719 638.874 369.734 638.891 369.745 638.905C369.751 638.913 369.756 638.919 369.761 638.926C369.764 638.929 369.766 638.933 369.768 638.936C369.77 638.937 369.771 638.939 369.772 638.94C369.773 638.941 369.773 638.942 369.774 638.943C369.774 638.943 369.774 638.944 369.775 638.944C369.775 638.944 369.775 638.944 369.775 638.945C369.775 638.945 369.775 638.945 368.566 639.833C367.357 640.721 367.358 640.721 367.358 640.721C367.358 640.721 367.358 640.722 367.358 640.722C367.359 640.722 367.359 640.723 367.359 640.723C367.36 640.724 367.36 640.725 367.361 640.726C367.362 640.727 367.363 640.729 367.365 640.731C367.367 640.734 367.37 640.738 367.373 640.742C367.379 640.75 367.386 640.759 367.393 640.768C367.408 640.787 367.428 640.811 367.452 640.838C367.487 640.878 367.582 640.983 367.724 641.085C367.769 641.118 368.285 641.514 369.001 641.33C369.905 641.097 370.092 640.278 370.121 640.117L367.17 639.579ZM238.448 272.119C237.36 270.966 236.326 269.887 235.35 268.893L233.209 270.995C234.167 271.97 235.186 273.035 236.267 274.179L238.448 272.119ZM235.35 268.893C233.365 266.873 231.591 265.178 230.049 263.929C228.559 262.721 227.096 261.768 225.755 261.485C225.039 261.334 224.25 261.352 223.512 261.733C222.777 262.112 222.292 262.747 221.98 263.444C221.392 264.76 221.252 266.669 221.363 269.014L224.36 268.871C224.251 266.579 224.441 265.291 224.719 264.67C224.84 264.398 224.923 264.381 224.887 264.399C224.848 264.419 224.892 264.369 225.137 264.421C225.719 264.544 226.701 265.077 228.16 266.26C229.568 267.4 231.248 268.998 233.209 270.995L235.35 268.893ZM398.396 293.317C403.234 288.193 407.76 280.902 410.952 275.586L408.38 274.042C405.173 279.384 400.798 286.403 396.214 291.258L398.396 293.317ZM410.952 275.586C412.198 273.513 413.227 271.76 414.021 270.495C414.419 269.86 414.733 269.389 414.966 269.08C415.085 268.923 415.156 268.845 415.184 268.817C415.198 268.803 415.177 268.826 415.124 268.863C415.084 268.89 414.933 268.992 414.693 269.043L414.071 266.108C413.765 266.173 413.539 266.311 413.414 266.398C413.277 266.493 413.163 266.596 413.074 266.684C412.898 266.859 412.728 267.067 412.572 267.272C412.257 267.69 411.887 268.252 411.48 268.9C410.665 270.199 409.6 272.01 408.38 274.042L410.952 275.586ZM234.238 271.443L409.625 276.314L409.708 273.315L234.321 268.444L234.238 271.443Z" fill="black"/>
</svg>
