<svg width="701" height="900" viewBox="0 0 701 900" fill="none" xmlns="http://www.w3.org/2000/svg">
<path d="M249.897 457.153C246.112 453.258 242.429 445.775 227.185 445.262C211.941 444.75 195.012 463.622 194.296 477.05C193.58 490.478 206.581 507.996 222.786 511.994C238.991 515.991 260.537 504.921 260.64 488.52C260.742 472.119 253.683 461.048 249.897 457.153Z" fill="white"/>
<path d="M158.23 561.094C171.162 567.71 191.484 573.038 206.891 575.621C187.171 562.005 180.366 548.044 177.119 535.049C173.871 522.053 172.851 495.023 178.58 477.926C184.31 460.828 191.883 446.923 207.915 437.109C223.946 427.296 181.55 428.864 167.227 431.837C152.904 434.809 134.941 452.163 130.875 459.275C126.81 466.387 121.666 477.633 120.789 492.377C119.912 507.122 124.008 531.228 124.008 531.228C133.201 543.315 145.251 554.453 158.23 561.094Z" fill="white"/>
<path d="M466.306 441.543C454.493 449.506 448.621 464.02 448.836 476.287C449.05 488.554 457.297 506.18 473.108 507.498C488.918 508.817 509.153 495.561 512.729 477.052C516.305 458.544 506.489 447.294 496.631 442.043C486.772 436.791 478.12 433.58 466.306 441.543Z" fill="white"/>
<path d="M492.201 520.002C478.349 520.612 473.126 528.192 472.43 537.632C471.735 547.072 479.784 552.894 491.078 552.176C502.371 551.459 511.294 541.508 509.984 533.631C508.673 525.753 506.053 519.392 492.201 520.002Z" fill="white"/>
<path d="M547.508 552.176C561.811 545.011 575.411 537.632 587.163 514.656C587.163 514.656 588.783 493.693 587.64 486.415C586.496 479.137 584.28 470.42 580.187 460.682C576.095 450.944 569.69 441.15 560.892 434.282C552.093 427.414 545.677 420.997 527.978 419.255C510.279 417.512 495.27 423.95 494.554 426.615C493.838 429.28 520.834 441.285 526.358 457.994C531.883 474.702 534.089 502.358 532.665 519.579C531.241 536.8 522.852 551.049 519.272 555.149C515.691 559.249 513.542 562.119 504.138 567.071C515.096 565.213 536.362 557.76 547.508 552.176Z" fill="white"/>
<path d="M218.747 527.182C209.576 527.182 201.052 535.189 201.052 544.225C201.052 553.262 211.479 559.515 219.889 559.248C228.299 558.981 236.937 551.698 237.127 543.081C237.318 534.464 227.918 527.182 218.747 527.182Z" fill="white"/>
<path fill-rule="evenodd" clip-rule="evenodd" d="M242.838 573.292C259.341 565.852 274.356 548.98 273.53 509.021C272.705 469.062 257.715 438.637 227.185 421.276C196.655 403.914 151.629 418.14 141.453 425.581C131.276 433.022 103.681 456.88 106.156 486.367C107.389 501.051 114.889 519.238 124.008 531.228C124.008 531.228 119.912 507.122 120.789 492.377C121.666 477.633 126.81 466.387 130.875 459.275C134.941 452.163 152.904 434.809 167.227 431.837C181.55 428.864 223.946 427.296 207.915 437.109C191.883 446.923 184.31 460.828 178.58 477.926C172.851 495.023 173.871 522.053 177.119 535.049C180.366 548.044 187.171 562.005 206.891 575.621C222.288 578.202 234.59 577.011 242.838 573.292ZM227.185 445.262C242.429 445.775 246.112 453.258 249.897 457.153C253.683 461.048 260.742 472.119 260.64 488.52C260.537 504.921 238.991 515.991 222.786 511.994C206.581 507.996 193.58 490.478 194.296 477.05C195.012 463.622 211.941 444.75 227.185 445.262ZM201.052 544.225C201.052 535.189 209.576 527.182 218.747 527.182C227.918 527.182 237.318 534.464 237.127 543.081C236.937 551.698 228.299 558.981 219.889 559.248C211.479 559.515 201.052 553.262 201.052 544.225Z" fill="black"/>
<path fill-rule="evenodd" clip-rule="evenodd" d="M439.801 468.078C435.611 500.253 440.475 538.782 454.227 551.459C467.98 564.135 473.233 564.784 480.906 566.424C488.58 568.065 501.035 567.597 504.138 567.071C513.542 562.119 515.691 559.249 519.272 555.149C522.852 551.049 531.241 536.8 532.665 519.579C534.089 502.358 531.883 474.702 526.358 457.994C520.834 441.285 493.838 429.28 494.554 426.615C495.27 423.95 510.279 417.512 527.978 419.255C545.677 420.997 552.093 427.414 560.892 434.282C569.69 441.15 576.095 450.944 580.187 460.682C584.28 470.42 586.496 479.137 587.64 486.415C588.783 493.693 587.163 514.656 587.163 514.656C598.914 491.681 597.277 448.223 583.418 431.27C569.559 414.317 550.85 400.177 512.587 402.362C474.324 404.547 443.991 435.903 439.801 468.078ZM448.836 476.287C448.621 464.02 454.493 449.506 466.306 441.543C478.12 433.58 486.772 436.791 496.631 442.043C506.489 447.294 516.305 458.544 512.729 477.052C509.153 495.561 488.918 508.817 473.108 507.498C457.297 506.18 449.05 488.554 448.836 476.287ZM472.43 537.632C473.126 528.192 478.349 520.612 492.201 520.002C506.053 519.392 508.673 525.753 509.984 533.631C511.294 541.508 502.371 551.459 491.078 552.176C479.784 552.894 471.735 547.072 472.43 537.632Z" fill="black"/>
<path d="M481.309 345.648C478.529 346.428 467.571 346.554 467.607 343.475C467.643 340.396 472.847 335.654 476.898 333.369C480.949 331.083 487.498 327.049 495.074 325.443C502.649 323.837 508.287 322.898 513.735 323.009C519.182 323.121 530.476 324.65 534.923 325.931C539.37 327.212 550.819 335.418 547.558 335.474C544.297 335.53 527.267 332.483 517.428 332.65C507.589 332.817 498.751 334.29 493.81 336.935C488.869 339.58 484.088 344.868 481.309 345.648Z" fill="black"/>
<path d="M225.178 353.441C220.97 353.441 214.094 347.442 213.027 347.145C211.96 346.848 207.892 343.272 201.023 342.549C194.153 341.826 181.084 341.824 173.952 342.549C166.82 343.274 166.722 343.343 159.44 345.126C152.158 346.908 148.294 345.315 151.023 343.284C153.752 341.254 167.487 335.011 173.952 333.841C180.417 332.671 193.404 332.413 199.63 333.188C205.856 333.963 217.117 336.811 219.547 337.702C221.977 338.592 235.315 344.65 235.255 348.63C235.196 352.609 229.387 353.441 225.178 353.441Z" fill="black"/>
</svg>
