<svg width="701" height="900" viewBox="0 0 701 900" fill="none" xmlns="http://www.w3.org/2000/svg">
<path d="M365.2 387.222C363.902 387.3 362.686 390.957 362.686 393.598C362.686 396.24 364.319 399.361 365.668 399.368C367.017 399.375 367.348 395.892 367.487 393.598C367.626 391.304 366.499 387.144 365.2 387.222Z" fill="black"/>
<path d="M319.098 390.695C317.769 390.615 316.931 394.43 316.931 397.072C316.931 399.713 318.779 403.278 319.566 402.842C320.354 402.405 321.536 399.366 321.675 397.072C321.814 394.778 320.428 390.776 319.098 390.695Z" fill="black"/>
<path d="M343.306 410.677C342.222 410.722 340.099 412.666 341.093 413.796C342.087 414.927 346.243 414.701 346.514 413.344C346.785 411.988 344.391 410.632 343.306 410.677Z" fill="black"/>
<path fill-rule="evenodd" clip-rule="evenodd" d="M400.605 456.65C396.993 447.682 388.835 438.87 388.658 434.544C388.481 430.217 392.339 425.784 395.326 418.276C395.831 417.006 396.217 415.752 396.507 414.514C397.929 408.438 397.026 402.771 396.507 397.63C395.882 391.442 390.464 383.172 390.395 377.818C390.325 372.464 395.048 363.776 396.507 357.311C397.966 350.845 399.702 341.67 399.424 331.45C399.146 321.231 397.399 311.07 390.731 311C384.063 310.931 374.002 320.675 369.697 324.568C365.392 328.462 357.888 338.818 355.666 340.14C353.445 341.461 344.832 339.932 338.649 340.696C332.466 341.46 326.634 344.381 322.395 344.033C318.157 343.685 302.67 338.263 297.112 336.386C291.555 334.508 279.609 330.894 274.955 333.605C270.301 336.316 273.009 345.076 277.177 355.225C281.344 365.374 293.152 378.374 294.611 381.502C296.07 384.631 292.735 390.818 290.721 397.561C290.304 398.957 290.006 400.61 289.813 402.405C289.311 407.069 289.518 412.697 290.184 417.297C290.5 419.477 290.919 421.427 291.415 422.934C293.361 428.843 300.584 433.084 301.765 437.672C302.946 442.26 298.848 459.5 297.111 471.457C295.375 483.414 297.666 513.097 299.681 525.124C301.697 537.151 308.501 546.791 310.378 554.043C312.255 561.294 312.74 566.069 315.379 574.481C318.019 582.892 320.382 584.005 324.27 584.422C328.157 584.839 329.132 581.015 329.824 575.94C329.824 575.94 331.035 588.329 337.237 588.927C343.439 589.525 345.499 586.298 346.472 584.422C347.444 582.545 348.928 578.686 348.928 578.686C348.928 578.686 350.111 575.037 351.984 569.962C353.857 564.887 356.151 562.524 356.36 550.567C354.336 542.898 354.385 524.996 361.5 522.691C368.614 520.386 372.025 527.899 375.669 540.14C379.314 552.38 387.755 555.642 393.034 555.85C398.313 556.059 406.995 553.465 409.01 544.658C411.024 535.851 410.582 520.327 410.19 512.958C410.19 512.958 409.382 501.986 409.01 496.831C408.638 491.675 404.217 465.618 400.605 456.65ZM362.686 393.598C362.686 390.957 363.902 387.3 365.2 387.222C366.499 387.144 367.626 391.304 367.487 393.598C367.348 395.892 367.017 399.375 365.668 399.368C364.319 399.361 362.686 396.24 362.686 393.598ZM316.931 397.072C316.931 394.43 317.769 390.615 319.098 390.695C320.428 390.776 321.814 394.778 321.675 397.072C321.536 399.366 320.354 402.405 319.566 402.842C318.779 403.278 316.931 399.713 316.931 397.072ZM341.093 413.796C340.099 412.666 342.222 410.722 343.306 410.677C344.391 410.632 346.785 411.988 346.514 413.344C346.243 414.701 342.087 414.927 341.093 413.796Z" fill="white"/>
<path d="M425.958 530.894C421.165 517.547 410.19 512.958 410.19 512.958C410.582 520.327 411.024 535.851 409.01 544.658C406.995 553.465 398.313 556.059 393.034 555.85C387.755 555.642 379.314 552.38 375.669 540.14C372.025 527.899 368.614 520.386 361.5 522.691C354.385 524.996 354.336 542.898 356.36 550.567C358.384 558.236 364.177 566.971 373.794 573.786C382.584 579.762 390.047 581.155 399.702 580.32C409.357 579.486 417.553 571.422 421.859 563.358C426.166 555.294 430.75 544.241 425.958 530.894Z" fill="white"/>
<path d="M373.794 573.786C364.177 566.971 358.384 558.236 356.36 550.567C356.151 562.524 353.857 564.887 351.984 569.962C350.111 575.037 348.928 578.686 348.928 578.686H359.833C366.163 578.686 369.734 575.244 373.794 573.786Z" fill="white"/>
<path d="M320.294 511.109C319.887 510.082 318.725 509.58 317.698 509.987C316.671 510.394 316.169 511.557 316.576 512.583L320.294 511.109ZM291.415 422.934L293.315 422.309L291.415 422.934ZM290.721 397.561L292.638 398.133L290.721 397.561ZM395.326 418.276L397.185 419.015L395.326 418.276ZM381.328 402.459C380.424 403.094 380.206 404.341 380.84 405.245C381.475 406.149 382.723 406.367 383.627 405.732L381.328 402.459ZM418.707 397.105C419.811 397.105 420.707 396.21 420.707 395.105C420.707 394.001 419.811 393.105 418.707 393.105V397.105ZM384.582 411.787C383.478 411.787 382.582 412.683 382.582 413.787C382.582 414.892 383.478 415.787 384.582 415.787V411.787ZM417.029 418.044C418.129 418.142 419.1 417.33 419.199 416.23C419.297 415.13 418.485 414.158 417.384 414.06L417.029 418.044ZM306.181 405.119C307.278 405.249 308.272 404.465 308.402 403.368C308.532 402.271 307.748 401.277 306.652 401.147L306.181 405.119ZM271.824 401.14C270.724 401.238 269.91 402.209 270.008 403.309C270.105 404.409 271.076 405.222 272.176 405.125L271.824 401.14ZM306.757 414.882C307.846 414.694 308.575 413.659 308.387 412.571C308.199 411.482 307.164 410.753 306.075 410.941L306.757 414.882ZM274.908 423.603C273.961 424.171 273.654 425.4 274.222 426.347C274.791 427.294 276.02 427.601 276.967 427.032L274.908 423.603ZM386.66 434.625C386.724 436.199 387.471 437.91 388.33 439.509C389.222 441.17 390.419 443.027 391.667 444.947C394.212 448.861 397.032 453.131 398.75 457.397L402.46 455.903C400.567 451.201 397.501 446.582 395.02 442.766C393.755 440.821 392.653 439.104 391.853 437.615C391.02 436.065 390.681 435.052 390.656 434.462L386.66 434.625ZM398.75 457.397C400.473 461.675 402.45 470.244 404.059 478.55C405.662 486.832 406.838 494.529 407.015 496.975L411.004 496.687C410.809 493.977 409.589 486.068 407.986 477.79C406.388 469.537 404.349 460.593 402.46 455.903L398.75 457.397ZM407.015 496.975C407.201 499.554 407.496 503.587 407.745 506.974C407.869 508.668 407.982 510.201 408.064 511.31C408.104 511.865 408.137 512.314 408.16 512.624C408.172 512.779 408.181 512.899 408.187 512.981C408.19 513.022 408.192 513.053 408.193 513.074C408.194 513.084 408.195 513.092 408.195 513.098C408.195 513.1 408.196 513.102 408.196 513.103C408.196 513.104 408.196 513.105 408.196 513.105C408.196 513.105 408.196 513.105 408.196 513.105C408.196 513.105 408.196 513.106 410.19 512.958C412.185 512.811 412.185 512.811 412.185 512.811C412.185 512.811 412.185 512.811 412.185 512.811C412.185 512.811 412.185 512.81 412.185 512.809C412.185 512.808 412.185 512.806 412.184 512.804C412.184 512.798 412.183 512.79 412.183 512.78C412.181 512.759 412.179 512.728 412.176 512.687C412.17 512.605 412.161 512.485 412.15 512.33C412.127 512.02 412.094 511.571 412.053 511.017C411.971 509.908 411.858 508.375 411.734 506.681C411.485 503.294 411.19 499.263 411.004 496.687L407.015 496.975ZM410.19 512.958C409.419 514.804 409.418 514.803 409.418 514.803C409.417 514.803 409.417 514.803 409.416 514.803C409.416 514.802 409.415 514.802 409.415 514.802C409.414 514.802 409.414 514.801 409.414 514.802C409.415 514.802 409.419 514.804 409.425 514.806C409.437 514.812 409.459 514.821 409.491 514.836C409.555 514.864 409.656 514.912 409.792 514.978C410.063 515.111 410.469 515.321 410.978 515.615C411.997 516.205 413.42 517.13 414.988 518.451C418.124 521.091 421.823 525.297 424.075 531.57L427.84 530.218C425.3 523.143 421.115 518.381 417.565 515.391C415.791 513.897 414.17 512.841 412.982 512.153C412.387 511.809 411.898 511.556 411.551 511.385C411.377 511.3 411.238 511.236 411.139 511.191C411.089 511.168 411.049 511.151 411.019 511.138C411.004 511.131 410.992 511.126 410.983 511.122C410.978 511.12 410.974 511.118 410.97 511.117C410.968 511.116 410.967 511.115 410.966 511.115C410.965 511.115 410.964 511.114 410.964 511.114C410.963 511.114 410.962 511.113 410.19 512.958ZM424.075 531.57C428.572 544.093 424.329 554.488 420.095 562.416L423.624 564.3C428.002 556.101 432.928 544.389 427.84 530.218L424.075 531.57ZM420.095 562.416C415.941 570.195 408.221 577.576 399.53 578.328L399.874 582.313C410.492 581.395 419.165 572.65 423.624 564.3L420.095 562.416ZM399.53 578.328C390.269 579.128 383.278 577.815 374.918 572.132L372.669 575.44C381.89 581.709 389.826 583.181 399.874 582.313L399.53 578.328ZM374.95 572.154C365.663 565.572 360.182 557.212 358.294 550.057L354.426 551.077C356.585 559.259 362.692 568.37 372.638 575.417L374.95 572.154ZM358.294 550.057C357.353 546.493 356.866 540.353 357.49 534.843C357.802 532.094 358.377 529.631 359.229 527.774C360.092 525.893 361.097 524.924 362.116 524.593L360.883 520.788C358.345 521.611 356.677 523.744 355.593 526.107C354.497 528.495 353.853 531.419 353.516 534.392C352.843 540.327 353.343 546.972 354.426 551.077L358.294 550.057ZM362.116 524.593C363.523 524.138 364.571 524.212 365.436 524.571C366.345 524.948 367.281 525.736 368.25 527.112C370.233 529.927 371.92 534.557 373.753 540.71L377.586 539.569C375.774 533.481 373.933 528.234 371.521 524.809C370.293 523.065 368.815 521.642 366.969 520.876C365.08 520.092 363.034 520.091 360.883 520.788L362.116 524.593ZM373.753 540.71C377.666 553.853 386.91 557.61 392.955 557.849L393.113 553.852C388.601 553.674 380.963 550.908 377.586 539.569L373.753 540.71ZM392.955 557.849C395.913 557.966 399.778 557.306 403.222 555.381C406.717 553.426 409.807 550.143 410.959 545.104L407.06 544.212C406.198 547.98 403.939 550.397 401.27 551.889C398.55 553.41 395.434 553.944 393.113 553.852L392.955 557.849ZM410.959 545.104C412.016 540.486 412.409 534.228 412.502 528.3C412.595 522.337 412.385 516.565 412.188 512.852L408.193 513.065C408.388 516.721 408.594 522.395 408.503 528.238C408.411 534.116 408.018 540.024 407.06 544.212L410.959 545.104ZM354.36 550.532C354.258 556.382 353.648 559.767 352.884 562.259C352.499 563.516 352.063 564.583 351.591 565.683C351.125 566.768 350.599 567.938 350.108 569.27L353.86 570.655C354.305 569.449 354.769 568.42 355.266 567.261C355.757 566.118 356.26 564.895 356.708 563.432C357.612 560.485 358.253 556.709 358.359 550.602L354.36 550.532ZM344.696 583.502C344.26 584.343 343.688 585.266 342.686 585.952C341.721 586.612 340.141 587.198 337.429 586.936L337.045 590.918C340.534 591.254 343.086 590.525 344.945 589.253C346.767 588.006 347.711 586.377 348.247 585.342L344.696 583.502ZM337.429 586.936C336.592 586.856 335.804 586.382 335.03 585.405C334.244 584.412 333.601 583.047 333.098 581.566C332.602 580.105 332.278 578.642 332.079 577.532C331.98 576.98 331.913 576.525 331.871 576.21C331.85 576.053 331.836 575.932 331.827 575.853C331.822 575.813 331.819 575.784 331.817 575.766C331.816 575.757 331.815 575.751 331.815 575.747C331.815 575.746 331.815 575.745 331.815 575.744C331.815 575.744 331.815 575.744 331.815 575.745C331.815 575.745 331.815 575.745 331.815 575.745C331.815 575.746 331.815 575.746 329.824 575.94C327.834 576.135 327.834 576.135 327.834 576.136C327.834 576.136 327.834 576.137 327.834 576.137C327.834 576.138 327.834 576.14 327.835 576.141C327.835 576.144 327.835 576.147 327.836 576.152C327.837 576.16 327.838 576.172 327.839 576.186C327.842 576.215 327.847 576.255 327.853 576.307C327.864 576.409 327.882 576.555 327.906 576.738C327.955 577.103 328.031 577.62 328.142 578.239C328.363 579.471 328.73 581.142 329.311 582.853C329.886 584.545 330.708 586.389 331.894 587.887C333.092 589.401 334.78 590.7 337.045 590.918L337.429 586.936ZM329.824 575.94C331.823 575.851 331.822 575.851 331.822 575.851C331.822 575.851 331.822 575.85 331.822 575.85C331.822 575.849 331.822 575.847 331.822 575.846C331.822 575.842 331.822 575.837 331.822 575.83C331.821 575.816 331.82 575.796 331.819 575.769C331.816 575.716 331.813 575.636 331.808 575.532C331.798 575.324 331.784 575.019 331.765 574.626C331.728 573.842 331.673 572.711 331.602 571.326C331.46 568.555 331.253 564.763 330.997 560.678C330.487 552.556 329.77 543.126 328.95 538.342L325.007 539.018C325.785 543.549 326.491 552.749 327.005 560.929C327.26 564.994 327.465 568.771 327.607 571.531C327.678 572.911 327.733 574.036 327.77 574.817C327.789 575.207 327.803 575.51 327.812 575.716C327.817 575.819 327.821 575.898 327.823 575.951C327.824 575.977 327.825 575.997 327.826 576.01C327.826 576.017 327.826 576.022 327.826 576.025C327.826 576.026 327.826 576.028 327.826 576.029C327.826 576.029 327.826 576.029 327.826 576.029C327.826 576.03 327.826 576.03 329.824 575.94ZM328.95 538.342C328.12 533.501 325.931 526.65 323.996 521.11C323.021 518.318 322.097 515.821 321.416 514.022C321.076 513.122 320.796 512.395 320.601 511.893C320.504 511.642 320.427 511.447 320.375 511.314C320.349 511.248 320.329 511.197 320.316 511.163C320.309 511.145 320.304 511.132 320.3 511.123C320.298 511.119 320.297 511.115 320.296 511.113C320.296 511.112 320.295 511.111 320.295 511.11C320.295 511.11 320.295 511.11 320.295 511.109C320.295 511.109 320.294 511.109 318.435 511.846C316.576 512.583 316.576 512.583 316.576 512.583C316.576 512.583 316.576 512.584 316.576 512.584C316.576 512.584 316.577 512.585 316.577 512.586C316.578 512.588 316.579 512.591 316.581 512.595C316.584 512.603 316.588 512.615 316.595 512.631C316.608 512.663 316.627 512.712 316.652 512.776C316.702 512.904 316.777 513.095 316.872 513.341C317.064 513.833 317.339 514.549 317.675 515.436C318.347 517.213 319.259 519.677 320.22 522.429C322.157 527.977 324.24 534.543 325.007 539.018L328.95 538.342ZM327.843 575.67C327.492 578.244 327.105 580.123 326.479 581.303C326.188 581.85 325.909 582.121 325.672 582.259C325.454 582.386 325.108 582.5 324.483 582.433L324.056 586.41C325.376 586.552 326.609 586.344 327.689 585.713C328.75 585.094 329.486 584.169 330.012 583.178C331.018 581.281 331.465 578.712 331.806 576.211L327.843 575.67ZM324.483 582.433C322.692 582.241 321.681 581.929 320.758 581.022C319.719 580.002 318.587 578.023 317.287 573.882L313.471 575.08C314.811 579.351 316.18 582.133 317.955 583.876C319.845 585.732 321.96 586.185 324.056 586.41L324.483 582.433ZM317.287 573.882C315.992 569.754 315.225 566.52 314.547 563.402C313.87 560.293 313.266 557.218 312.314 553.542L308.442 554.544C309.367 558.12 309.943 561.058 310.638 564.252C311.331 567.437 312.127 570.796 313.471 575.08L317.287 573.882ZM312.314 553.542C311.318 549.694 309.016 545.204 306.903 540.548C304.734 535.768 302.617 530.543 301.654 524.793L297.709 525.454C298.761 531.732 301.055 537.34 303.261 542.201C305.522 547.184 307.561 551.14 308.442 554.544L312.314 553.542ZM301.654 524.793C300.662 518.878 299.591 508.529 298.986 498.148C298.378 487.723 298.255 477.499 299.091 471.744L295.132 471.17C294.231 477.372 294.386 487.968 294.993 498.381C295.603 508.838 296.685 519.343 297.709 525.454L301.654 524.793ZM299.091 471.744C299.955 465.791 301.394 458.608 302.503 452.139C303.052 448.94 303.518 445.925 303.77 443.404C304.013 440.981 304.097 438.709 303.702 437.173L299.828 438.17C300.024 438.929 300.038 440.533 299.79 443.006C299.552 445.382 299.106 448.285 298.561 451.463C297.483 457.75 296.004 465.166 295.132 471.17L299.091 471.744ZM303.702 437.173C303.308 435.644 302.448 434.266 301.508 433.045C300.566 431.821 299.418 430.599 298.344 429.44C296.093 427.008 294.129 424.781 293.315 422.309L289.516 423.56C290.647 426.997 293.267 429.844 295.409 432.157C296.533 433.37 297.533 434.438 298.338 435.484C299.146 436.533 299.631 437.406 299.828 438.17L303.702 437.173ZM292.638 398.133C293.123 396.507 293.692 394.902 294.264 393.33C294.828 391.778 295.405 390.227 295.871 388.794C296.335 387.364 296.724 385.944 296.887 384.628C297.047 383.328 297.014 381.923 296.424 380.657L292.798 382.348C292.937 382.645 293.034 383.187 292.917 384.138C292.801 385.073 292.505 386.207 292.066 387.558C291.629 388.906 291.086 390.362 290.504 391.964C289.929 393.546 289.326 395.243 288.805 396.988L292.638 398.133ZM296.424 380.657C295.947 379.636 294.773 378.039 293.451 376.296C292.048 374.444 290.339 372.253 288.514 369.802C284.857 364.891 281.005 359.283 279.027 354.465L275.327 355.985C277.516 361.317 281.651 367.283 285.305 372.191C287.136 374.649 288.912 376.929 290.264 378.712C291.697 380.603 292.545 381.805 292.798 382.348L296.424 380.657ZM279.027 354.465C276.942 349.388 275.307 344.852 274.732 341.305C274.131 337.6 274.824 335.996 275.962 335.333L273.948 331.877C270.432 333.925 270.153 338.057 270.784 341.946C271.441 345.995 273.244 350.913 275.327 355.985L279.027 354.465ZM275.962 335.333C276.68 334.915 277.884 334.644 279.613 334.632C281.297 334.62 283.262 334.854 285.326 335.241C289.45 336.014 293.721 337.351 296.472 338.281L297.753 334.491C294.946 333.543 290.465 332.135 286.063 331.309C283.864 330.897 281.622 330.618 279.585 330.632C277.591 330.646 275.557 330.94 273.948 331.877L275.962 335.333ZM296.472 338.281C299.23 339.212 304.522 341.048 309.638 342.687C312.198 343.508 314.735 344.286 316.909 344.884C319.03 345.467 320.962 345.922 322.232 346.026L322.559 342.04C321.71 341.97 320.116 341.617 317.969 341.027C315.873 340.451 313.396 339.691 310.859 338.878C305.783 337.251 300.553 335.437 297.753 334.491L296.472 338.281ZM322.232 346.026C324.774 346.235 327.646 345.468 330.338 344.706C333.166 343.905 335.992 343.039 338.894 342.681L338.404 338.711C335.122 339.117 331.941 340.094 329.248 340.857C326.418 341.659 324.255 342.179 322.559 342.04L322.232 346.026ZM338.894 342.681C341.786 342.324 345.289 342.501 348.567 342.626C350.16 342.686 351.718 342.733 353.029 342.675C353.687 342.645 354.332 342.588 354.919 342.478C355.485 342.372 356.123 342.195 356.689 341.859L354.644 338.421C354.654 338.415 354.537 338.48 354.183 338.546C353.849 338.608 353.408 338.654 352.85 338.679C351.728 338.729 350.33 338.69 348.719 338.628C345.589 338.51 341.694 338.304 338.404 338.711L338.894 342.681ZM356.689 341.859C357.184 341.564 357.686 341.115 358.13 340.68C358.603 340.217 359.129 339.651 359.685 339.026C360.795 337.778 362.099 336.209 363.439 334.596C366.176 331.301 369.018 327.878 371.038 326.051L368.355 323.085C366.07 325.152 363.008 328.854 360.362 332.041C359.009 333.669 357.752 335.18 356.696 336.368C356.168 336.961 355.711 337.451 355.331 337.822C355.142 338.007 354.985 338.151 354.857 338.258C354.794 338.311 354.743 338.35 354.705 338.379C354.686 338.393 354.671 338.403 354.66 338.411C354.649 338.418 354.644 338.421 354.644 338.421L356.689 341.859ZM371.038 326.051C373.239 324.062 376.736 320.741 380.528 317.898C382.418 316.481 384.327 315.226 386.124 314.336C387.949 313.432 389.497 312.988 390.71 313L390.752 309C388.631 308.978 386.421 309.726 384.349 310.751C382.25 311.79 380.124 313.201 378.128 314.698C374.146 317.683 370.461 321.181 368.355 323.085L371.038 326.051ZM390.71 313C392.719 313.021 394.354 314.468 395.581 318.065C396.785 321.593 397.287 326.438 397.425 331.505L401.424 331.396C401.283 326.242 400.773 320.897 399.367 316.773C397.983 312.717 395.411 309.049 390.752 309L390.71 313ZM397.425 331.505C397.696 341.478 396.001 350.464 394.556 356.87L398.458 357.751C399.93 351.227 401.708 341.862 401.424 331.396L397.425 331.505ZM394.556 356.87C393.865 359.932 392.398 363.524 391.003 367.285C389.676 370.861 388.354 374.729 388.395 377.844L392.394 377.792C392.365 375.554 393.371 372.4 394.753 368.677C396.066 365.139 397.69 361.154 398.458 357.751L394.556 356.87ZM388.395 377.844C388.416 379.48 388.839 381.224 389.389 382.919C389.943 384.628 390.676 386.426 391.392 388.171C392.876 391.785 394.24 395.093 394.517 397.831L398.497 397.429C398.148 393.98 396.491 390.058 395.093 386.652C394.368 384.886 393.694 383.226 393.193 381.685C392.689 380.13 392.408 378.833 392.394 377.792L388.395 377.844ZM393.468 417.537C392.02 421.177 390.39 424.009 389.023 426.696C387.717 429.265 386.548 431.882 386.66 434.625L390.656 434.462C390.592 432.879 391.263 431.116 392.589 428.51C393.853 426.022 395.646 422.883 397.185 419.015L393.468 417.537ZM350.108 569.27C349.165 571.825 348.395 574.021 347.862 575.579C347.595 576.359 347.386 576.979 347.245 577.406C347.174 577.619 347.119 577.784 347.083 577.896C347.064 577.952 347.05 577.995 347.041 578.024C347.036 578.039 347.032 578.05 347.03 578.058C347.029 578.061 347.028 578.064 347.027 578.066C347.027 578.067 347.026 578.068 347.026 578.069C347.026 578.069 347.026 578.069 347.026 578.069C347.026 578.07 347.026 578.07 347.026 578.07C347.026 578.07 347.026 578.07 348.928 578.686C350.831 579.303 350.831 579.303 350.831 579.303C350.831 579.303 350.831 579.303 350.831 579.303C350.831 579.303 350.831 579.303 350.831 579.302C350.831 579.302 350.831 579.302 350.832 579.301C350.832 579.299 350.833 579.297 350.834 579.294C350.836 579.287 350.839 579.277 350.844 579.264C350.852 579.237 350.866 579.197 350.883 579.143C350.918 579.036 350.971 578.876 351.04 578.668C351.179 578.252 351.383 577.643 351.646 576.875C352.171 575.341 352.93 573.175 353.86 570.655L350.108 569.27ZM348.928 578.686C347.062 577.968 347.062 577.968 347.062 577.968C347.062 577.968 347.062 577.968 347.062 577.968C347.062 577.968 347.062 577.968 347.062 577.968C347.062 577.969 347.061 577.969 347.061 577.97C347.06 577.972 347.06 577.974 347.058 577.978C347.056 577.984 347.052 577.995 347.046 578.008C347.036 578.036 347.02 578.077 346.999 578.13C346.958 578.237 346.897 578.392 346.821 578.584C346.669 578.969 346.457 579.501 346.215 580.09C345.722 581.291 345.137 582.65 344.696 583.502L348.247 585.342C348.779 584.316 349.422 582.808 349.915 581.61C350.165 581 350.385 580.45 350.542 580.053C350.62 579.854 350.683 579.693 350.727 579.581C350.748 579.525 350.765 579.482 350.777 579.452C350.783 579.437 350.787 579.425 350.79 579.417C350.792 579.413 350.793 579.41 350.794 579.408C350.794 579.407 350.794 579.406 350.795 579.406C350.795 579.405 350.795 579.405 350.795 579.405C350.795 579.405 350.795 579.405 350.795 579.405C350.795 579.404 350.795 579.404 348.928 578.686ZM348.928 578.686C348.928 580.686 348.928 580.686 348.929 580.686C348.929 580.686 348.929 580.686 348.929 580.686C348.929 580.686 348.929 580.686 348.929 580.686C348.929 580.686 348.929 580.686 348.929 580.686C348.929 580.686 348.93 580.686 348.93 580.686C348.93 580.686 348.93 580.686 348.93 580.686C348.931 580.686 348.931 580.686 348.931 580.686C348.931 580.686 348.932 580.686 348.932 580.686C348.932 580.686 348.932 580.686 348.933 580.686C348.933 580.686 348.933 580.686 348.934 580.686C348.934 580.686 348.934 580.686 348.935 580.686C348.935 580.686 348.936 580.686 348.936 580.686C348.936 580.686 348.937 580.686 348.937 580.686C348.938 580.686 348.938 580.686 348.939 580.686C348.939 580.686 348.94 580.686 348.94 580.686C348.941 580.686 348.941 580.686 348.942 580.686C348.942 580.686 348.943 580.686 348.944 580.686C348.944 580.686 348.945 580.686 348.945 580.686C348.946 580.686 348.947 580.686 348.947 580.686C348.948 580.686 348.949 580.686 348.949 580.686C348.95 580.686 348.951 580.686 348.951 580.686C348.952 580.686 348.953 580.686 348.954 580.686C348.954 580.686 348.955 580.686 348.956 580.686C348.957 580.686 348.958 580.686 348.958 580.686C348.959 580.686 348.96 580.686 348.961 580.686C348.962 580.686 348.963 580.686 348.963 580.686C348.964 580.686 348.965 580.686 348.966 580.686C348.967 580.686 348.968 580.686 348.969 580.686C348.97 580.686 348.971 580.686 348.972 580.686C348.973 580.686 348.974 580.686 348.975 580.686C348.976 580.686 348.977 580.686 348.978 580.686C348.979 580.686 348.98 580.686 348.981 580.686C348.982 580.686 348.984 580.686 348.985 580.686C348.986 580.686 348.987 580.686 348.988 580.686C348.989 580.686 348.991 580.686 348.992 580.686C348.993 580.686 348.994 580.686 348.995 580.686C348.997 580.686 348.998 580.686 348.999 580.686C349 580.686 349.002 580.686 349.003 580.686C349.004 580.686 349.006 580.686 349.007 580.686C349.008 580.686 349.01 580.686 349.011 580.686C349.012 580.686 349.014 580.686 349.015 580.686C349.016 580.686 349.018 580.686 349.019 580.686C349.021 580.686 349.022 580.686 349.024 580.686C349.025 580.686 349.027 580.686 349.028 580.686C349.03 580.686 349.031 580.686 349.033 580.686C349.034 580.686 349.036 580.686 349.037 580.686C349.039 580.686 349.04 580.686 349.042 580.686C349.044 580.686 349.045 580.686 349.047 580.686C349.048 580.686 349.05 580.686 349.052 580.686C349.053 580.686 349.055 580.686 349.057 580.686C349.058 580.686 349.06 580.686 349.062 580.686C349.064 580.686 349.065 580.686 349.067 580.686C349.069 580.686 349.071 580.686 349.072 580.686C349.074 580.686 349.076 580.686 349.078 580.686C349.08 580.686 349.081 580.686 349.083 580.686C349.085 580.686 349.087 580.686 349.089 580.686C349.091 580.686 349.093 580.686 349.095 580.686C349.097 580.686 349.099 580.686 349.1 580.686C349.102 580.686 349.104 580.686 349.106 580.686C349.108 580.686 349.11 580.686 349.112 580.686C349.114 580.686 349.116 580.686 349.118 580.686C349.121 580.686 349.123 580.686 349.125 580.686C349.127 580.686 349.129 580.686 349.131 580.686C349.133 580.686 349.135 580.686 349.137 580.686C349.14 580.686 349.142 580.686 349.144 580.686C349.146 580.686 349.148 580.686 349.15 580.686C349.153 580.686 349.155 580.686 349.157 580.686C349.159 580.686 349.162 580.686 349.164 580.686C349.166 580.686 349.168 580.686 349.171 580.686C349.173 580.686 349.175 580.686 349.178 580.686C349.18 580.686 349.182 580.686 349.185 580.686C349.187 580.686 349.19 580.686 349.192 580.686C349.194 580.686 349.197 580.686 349.199 580.686C349.202 580.686 349.204 580.686 349.207 580.686C349.209 580.686 349.212 580.686 349.214 580.686C349.217 580.686 349.219 580.686 349.222 580.686C349.224 580.686 349.227 580.686 349.229 580.686C349.232 580.686 349.234 580.686 349.237 580.686C349.24 580.686 349.242 580.686 349.245 580.686C349.247 580.686 349.25 580.686 349.253 580.686C349.255 580.686 349.258 580.686 349.261 580.686C349.263 580.686 349.266 580.686 349.269 580.686C349.272 580.686 349.274 580.686 349.277 580.686C349.28 580.686 349.283 580.686 349.285 580.686C349.288 580.686 349.291 580.686 349.294 580.686C349.297 580.686 349.299 580.686 349.302 580.686C349.305 580.686 349.308 580.686 349.311 580.686C349.314 580.686 349.317 580.686 349.32 580.686C349.322 580.686 349.325 580.686 349.328 580.686C349.331 580.686 349.334 580.686 349.337 580.686C349.34 580.686 349.343 580.686 349.346 580.686C349.349 580.686 349.352 580.686 349.355 580.686C349.358 580.686 349.361 580.686 349.364 580.686C349.367 580.686 349.37 580.686 349.374 580.686C349.377 580.686 349.38 580.686 349.383 580.686C349.386 580.686 349.389 580.686 349.392 580.686C349.395 580.686 349.399 580.686 349.402 580.686C349.405 580.686 349.408 580.686 349.411 580.686C349.415 580.686 349.418 580.686 349.421 580.686C349.424 580.686 349.428 580.686 349.431 580.686C349.434 580.686 349.438 580.686 349.441 580.686C349.444 580.686 349.447 580.686 349.451 580.686C349.454 580.686 349.458 580.686 349.461 580.686C349.464 580.686 349.468 580.686 349.471 580.686C349.474 580.686 349.478 580.686 349.481 580.686C349.485 580.686 349.488 580.686 349.492 580.686C349.495 580.686 349.499 580.686 349.502 580.686C349.506 580.686 349.509 580.686 349.513 580.686C349.516 580.686 349.52 580.686 349.523 580.686C349.527 580.686 349.53 580.686 349.534 580.686C349.538 580.686 349.541 580.686 349.545 580.686C349.548 580.686 349.552 580.686 349.556 580.686C349.559 580.686 349.563 580.686 349.567 580.686C349.57 580.686 349.574 580.686 349.578 580.686C349.581 580.686 349.585 580.686 349.589 580.686C349.593 580.686 349.596 580.686 349.6 580.686C349.604 580.686 349.608 580.686 349.611 580.686C349.615 580.686 349.619 580.686 349.623 580.686C349.627 580.686 349.631 580.686 349.634 580.686C349.638 580.686 349.642 580.686 349.646 580.686C349.65 580.686 349.654 580.686 349.658 580.686C349.662 580.686 349.666 580.686 349.669 580.686C349.673 580.686 349.677 580.686 349.681 580.686C349.685 580.686 349.689 580.686 349.693 580.686C349.697 580.686 349.701 580.686 349.705 580.686C349.709 580.686 349.713 580.686 349.718 580.686C349.722 580.686 349.726 580.686 349.73 580.686C349.734 580.686 349.738 580.686 349.742 580.686C349.746 580.686 349.75 580.686 349.754 580.686C349.759 580.686 349.763 580.686 349.767 580.686C349.771 580.686 349.775 580.686 349.78 580.686C349.784 580.686 349.788 580.686 349.792 580.686C349.797 580.686 349.801 580.686 349.805 580.686C349.809 580.686 349.814 580.686 349.818 580.686C349.822 580.686 349.827 580.686 349.831 580.686C349.835 580.686 349.84 580.686 349.844 580.686C349.848 580.686 349.853 580.686 349.857 580.686C349.861 580.686 349.866 580.686 349.87 580.686C349.875 580.686 349.879 580.686 349.883 580.686C349.888 580.686 349.892 580.686 349.897 580.686C349.901 580.686 349.906 580.686 349.91 580.686C349.915 580.686 349.919 580.686 349.924 580.686C349.928 580.686 349.933 580.686 349.938 580.686C349.942 580.686 349.947 580.686 349.951 580.686C349.956 580.686 349.96 580.686 349.965 580.686C349.97 580.686 349.974 580.686 349.979 580.686C349.984 580.686 349.988 580.686 349.993 580.686C349.998 580.686 350.002 580.686 350.007 580.686C350.012 580.686 350.016 580.686 350.021 580.686C350.026 580.686 350.031 580.686 350.035 580.686C350.04 580.686 350.045 580.686 350.05 580.686C350.055 580.686 350.059 580.686 350.064 580.686C350.069 580.686 350.074 580.686 350.079 580.686C350.083 580.686 350.088 580.686 350.093 580.686C350.098 580.686 350.103 580.686 350.108 580.686C350.113 580.686 350.118 580.686 350.123 580.686C350.128 580.686 350.133 580.686 350.138 580.686C350.142 580.686 350.147 580.686 350.152 580.686C350.157 580.686 350.162 580.686 350.167 580.686C350.172 580.686 350.177 580.686 350.183 580.686C350.188 580.686 350.193 580.686 350.198 580.686C350.203 580.686 350.208 580.686 350.213 580.686C350.218 580.686 350.223 580.686 350.228 580.686C350.233 580.686 350.239 580.686 350.244 580.686C350.249 580.686 350.254 580.686 350.259 580.686C350.264 580.686 350.27 580.686 350.275 580.686C350.28 580.686 350.285 580.686 350.291 580.686C350.296 580.686 350.301 580.686 350.306 580.686C350.312 580.686 350.317 580.686 350.322 580.686C350.327 580.686 350.333 580.686 350.338 580.686C350.343 580.686 350.349 580.686 350.354 580.686C350.36 580.686 350.365 580.686 350.37 580.686C350.376 580.686 350.381 580.686 350.386 580.686C350.392 580.686 350.397 580.686 350.403 580.686C350.408 580.686 350.414 580.686 350.419 580.686C350.425 580.686 350.43 580.686 350.435 580.686C350.441 580.686 350.446 580.686 350.452 580.686C350.458 580.686 350.463 580.686 350.469 580.686C350.474 580.686 350.48 580.686 350.485 580.686C350.491 580.686 350.496 580.686 350.502 580.686C350.508 580.686 350.513 580.686 350.519 580.686C350.525 580.686 350.53 580.686 350.536 580.686C350.541 580.686 350.547 580.686 350.553 580.686C350.559 580.686 350.564 580.686 350.57 580.686C350.576 580.686 350.581 580.686 350.587 580.686C350.593 580.686 350.599 580.686 350.604 580.686C350.61 580.686 350.616 580.686 350.622 580.686C350.627 580.686 350.633 580.686 350.639 580.686C350.645 580.686 350.651 580.686 350.657 580.686C350.662 580.686 350.668 580.686 350.674 580.686C350.68 580.686 350.686 580.686 350.692 580.686C350.698 580.686 350.704 580.686 350.71 580.686C350.715 580.686 350.721 580.686 350.727 580.686C350.733 580.686 350.739 580.686 350.745 580.686C350.751 580.686 350.757 580.686 350.763 580.686C350.769 580.686 350.775 580.686 350.781 580.686C350.787 580.686 350.793 580.686 350.799 580.686C350.806 580.686 350.812 580.686 350.818 580.686C350.824 580.686 350.83 580.686 350.836 580.686C350.842 580.686 350.848 580.686 350.854 580.686C350.86 580.686 350.867 580.686 350.873 580.686C350.879 580.686 350.885 580.686 350.891 580.686C350.898 580.686 350.904 580.686 350.91 580.686C350.916 580.686 350.922 580.686 350.929 580.686C350.935 580.686 350.941 580.686 350.947 580.686C350.954 580.686 350.96 580.686 350.966 580.686C350.973 580.686 350.979 580.686 350.985 580.686C350.992 580.686 350.998 580.686 351.004 580.686C351.011 580.686 351.017 580.686 351.023 580.686C351.03 580.686 351.036 580.686 351.043 580.686C351.049 580.686 351.055 580.686 351.062 580.686C351.068 580.686 351.075 580.686 351.081 580.686C351.088 580.686 351.094 580.686 351.1 580.686C351.107 580.686 351.113 580.686 351.12 580.686C351.126 580.686 351.133 580.686 351.14 580.686C351.146 580.686 351.153 580.686 351.159 580.686C351.166 580.686 351.172 580.686 351.179 580.686C351.185 580.686 351.192 580.686 351.199 580.686C351.205 580.686 351.212 580.686 351.219 580.686C351.225 580.686 351.232 580.686 351.238 580.686C351.245 580.686 351.252 580.686 351.258 580.686C351.265 580.686 351.272 580.686 351.279 580.686C351.285 580.686 351.292 580.686 351.299 580.686C351.306 580.686 351.312 580.686 351.319 580.686C351.326 580.686 351.333 580.686 351.339 580.686C351.346 580.686 351.353 580.686 351.36 580.686C351.367 580.686 351.373 580.686 351.38 580.686C351.387 580.686 351.394 580.686 351.401 580.686C351.408 580.686 351.415 580.686 351.421 580.686C351.428 580.686 351.435 580.686 351.442 580.686C351.449 580.686 351.456 580.686 351.463 580.686C351.47 580.686 351.477 580.686 351.484 580.686C351.491 580.686 351.498 580.686 351.505 580.686C351.512 580.686 351.519 580.686 351.526 580.686C351.533 580.686 351.54 580.686 351.547 580.686C351.554 580.686 351.561 580.686 351.568 580.686C351.575 580.686 351.582 580.686 351.589 580.686C351.596 580.686 351.603 580.686 351.611 580.686C351.618 580.686 351.625 580.686 351.632 580.686C351.639 580.686 351.646 580.686 351.653 580.686C351.661 580.686 351.668 580.686 351.675 580.686C351.682 580.686 351.689 580.686 351.697 580.686C351.704 580.686 351.711 580.686 351.718 580.686C351.725 580.686 351.733 580.686 351.74 580.686C351.747 580.686 351.755 580.686 351.762 580.686C351.769 580.686 351.776 580.686 351.784 580.686C351.791 580.686 351.798 580.686 351.806 580.686C351.813 580.686 351.82 580.686 351.828 580.686C351.835 580.686 351.842 580.686 351.85 580.686C351.857 580.686 351.865 580.686 351.872 580.686C351.879 580.686 351.887 580.686 351.894 580.686C351.902 580.686 351.909 580.686 351.917 580.686C351.924 580.686 351.932 580.686 351.939 580.686C351.947 580.686 351.954 580.686 351.962 580.686C351.969 580.686 351.977 580.686 351.984 580.686C351.992 580.686 351.999 580.686 352.007 580.686C352.014 580.686 352.022 580.686 352.029 580.686C352.037 580.686 352.045 580.686 352.052 580.686C352.06 580.686 352.068 580.686 352.075 580.686C352.083 580.686 352.09 580.686 352.098 580.686C352.106 580.686 352.113 580.686 352.121 580.686C352.129 580.686 352.136 580.686 352.144 580.686C352.152 580.686 352.16 580.686 352.167 580.686C352.175 580.686 352.183 580.686 352.19 580.686C352.198 580.686 352.206 580.686 352.214 580.686C352.222 580.686 352.229 580.686 352.237 580.686C352.245 580.686 352.253 580.686 352.261 580.686C352.268 580.686 352.276 580.686 352.284 580.686C352.292 580.686 352.3 580.686 352.308 580.686C352.315 580.686 352.323 580.686 352.331 580.686C352.339 580.686 352.347 580.686 352.355 580.686C352.363 580.686 352.371 580.686 352.379 580.686C352.387 580.686 352.395 580.686 352.403 580.686C352.411 580.686 352.419 580.686 352.427 580.686C352.435 580.686 352.443 580.686 352.451 580.686C352.459 580.686 352.467 580.686 352.475 580.686C352.483 580.686 352.491 580.686 352.499 580.686C352.507 580.686 352.515 580.686 352.523 580.686C352.531 580.686 352.539 580.686 352.547 580.686C352.555 580.686 352.563 580.686 352.572 580.686C352.58 580.686 352.588 580.686 352.596 580.686C352.604 580.686 352.612 580.686 352.62 580.686C352.629 580.686 352.637 580.686 352.645 580.686C352.653 580.686 352.661 580.686 352.67 580.686C352.678 580.686 352.686 580.686 352.694 580.686C352.703 580.686 352.711 580.686 352.719 580.686C352.727 580.686 352.736 580.686 352.744 580.686C352.752 580.686 352.76 580.686 352.769 580.686C352.777 580.686 352.785 580.686 352.794 580.686C352.802 580.686 352.81 580.686 352.819 580.686C352.827 580.686 352.835 580.686 352.844 580.686C352.852 580.686 352.861 580.686 352.869 580.686C352.877 580.686 352.886 580.686 352.894 580.686C352.903 580.686 352.911 580.686 352.92 580.686C352.928 580.686 352.936 580.686 352.945 580.686C352.953 580.686 352.962 580.686 352.97 580.686C352.979 580.686 352.987 580.686 352.996 580.686C353.004 580.686 353.013 580.686 353.021 580.686C353.03 580.686 353.038 580.686 353.047 580.686C353.056 580.686 353.064 580.686 353.073 580.686C353.081 580.686 353.09 580.686 353.099 580.686C353.107 580.686 353.116 580.686 353.124 580.686C353.133 580.686 353.142 580.686 353.15 580.686C353.159 580.686 353.168 580.686 353.176 580.686C353.185 580.686 353.194 580.686 353.202 580.686C353.211 580.686 353.22 580.686 353.228 580.686C353.237 580.686 353.246 580.686 353.255 580.686C353.263 580.686 353.272 580.686 353.281 580.686C353.29 580.686 353.298 580.686 353.307 580.686C353.316 580.686 353.325 580.686 353.333 580.686C353.342 580.686 353.351 580.686 353.36 580.686C353.369 580.686 353.378 580.686 353.386 580.686C353.395 580.686 353.404 580.686 353.413 580.686C353.422 580.686 353.431 580.686 353.44 580.686C353.448 580.686 353.457 580.686 353.466 580.686C353.475 580.686 353.484 580.686 353.493 580.686C353.502 580.686 353.511 580.686 353.52 580.686C353.529 580.686 353.538 580.686 353.547 580.686C353.556 580.686 353.565 580.686 353.574 580.686C353.583 580.686 353.592 580.686 353.601 580.686C353.61 580.686 353.619 580.686 353.628 580.686C353.637 580.686 353.646 580.686 353.655 580.686C353.664 580.686 353.673 580.686 353.682 580.686C353.691 580.686 353.7 580.686 353.709 580.686C353.719 580.686 353.728 580.686 353.737 580.686C353.746 580.686 353.755 580.686 353.764 580.686C353.773 580.686 353.783 580.686 353.792 580.686C353.801 580.686 353.81 580.686 353.819 580.686C353.828 580.686 353.838 580.686 353.847 580.686C353.856 580.686 353.865 580.686 353.874 580.686C353.884 580.686 353.893 580.686 353.902 580.686C353.911 580.686 353.921 580.686 353.93 580.686C353.939 580.686 353.949 580.686 353.958 580.686C353.967 580.686 353.976 580.686 353.986 580.686C353.995 580.686 354.004 580.686 354.014 580.686C354.023 580.686 354.032 580.686 354.042 580.686C354.051 580.686 354.06 580.686 354.07 580.686C354.079 580.686 354.089 580.686 354.098 580.686C354.107 580.686 354.117 580.686 354.126 580.686C354.136 580.686 354.145 580.686 354.154 580.686C354.164 580.686 354.173 580.686 354.183 580.686C354.192 580.686 354.202 580.686 354.211 580.686C354.221 580.686 354.23 580.686 354.24 580.686C354.249 580.686 354.259 580.686 354.268 580.686C354.278 580.686 354.287 580.686 354.297 580.686C354.306 580.686 354.316 580.686 354.325 580.686C354.335 580.686 354.345 580.686 354.354 580.686C354.364 580.686 354.373 580.686 354.383 580.686C354.393 580.686 354.402 580.686 354.412 580.686C354.421 580.686 354.431 580.686 354.441 580.686C354.45 580.686 354.46 580.686 354.47 580.686C354.479 580.686 354.489 580.686 354.499 580.686C354.508 580.686 354.518 580.686 354.528 580.686C354.537 580.686 354.547 580.686 354.557 580.686C354.567 580.686 354.576 580.686 354.586 580.686C354.596 580.686 354.606 580.686 354.615 580.686C354.625 580.686 354.635 580.686 354.645 580.686C354.654 580.686 354.664 580.686 354.674 580.686C354.684 580.686 354.694 580.686 354.703 580.686C354.713 580.686 354.723 580.686 354.733 580.686C354.743 580.686 354.753 580.686 354.763 580.686C354.772 580.686 354.782 580.686 354.792 580.686C354.802 580.686 354.812 580.686 354.822 580.686C354.832 580.686 354.842 580.686 354.852 580.686C354.861 580.686 354.871 580.686 354.881 580.686C354.891 580.686 354.901 580.686 354.911 580.686C354.921 580.686 354.931 580.686 354.941 580.686C354.951 580.686 354.961 580.686 354.971 580.686C354.981 580.686 354.991 580.686 355.001 580.686C355.011 580.686 355.021 580.686 355.031 580.686C355.041 580.686 355.051 580.686 355.061 580.686C355.071 580.686 355.081 580.686 355.092 580.686C355.102 580.686 355.112 580.686 355.122 580.686C355.132 580.686 355.142 580.686 355.152 580.686C355.162 580.686 355.172 580.686 355.182 580.686C355.193 580.686 355.203 580.686 355.213 580.686C355.223 580.686 355.233 580.686 355.243 580.686C355.254 580.686 355.264 580.686 355.274 580.686C355.284 580.686 355.294 580.686 355.305 580.686C355.315 580.686 355.325 580.686 355.335 580.686C355.345 580.686 355.356 580.686 355.366 580.686C355.376 580.686 355.386 580.686 355.397 580.686C355.407 580.686 355.417 580.686 355.428 580.686C355.438 580.686 355.448 580.686 355.458 580.686C355.469 580.686 355.479 580.686 355.489 580.686C355.5 580.686 355.51 580.686 355.52 580.686C355.531 580.686 355.541 580.686 355.551 580.686C355.562 580.686 355.572 580.686 355.583 580.686C355.593 580.686 355.603 580.686 355.614 580.686C355.624 580.686 355.634 580.686 355.645 580.686C355.655 580.686 355.666 580.686 355.676 580.686C355.687 580.686 355.697 580.686 355.708 580.686C355.718 580.686 355.728 580.686 355.739 580.686C355.749 580.686 355.76 580.686 355.77 580.686C355.781 580.686 355.791 580.686 355.802 580.686C355.812 580.686 355.823 580.686 355.833 580.686C355.844 580.686 355.854 580.686 355.865 580.686C355.876 580.686 355.886 580.686 355.897 580.686C355.907 580.686 355.918 580.686 355.928 580.686C355.939 580.686 355.95 580.686 355.96 580.686C355.971 580.686 355.981 580.686 355.992 580.686C356.003 580.686 356.013 580.686 356.024 580.686C356.034 580.686 356.045 580.686 356.056 580.686C356.066 580.686 356.077 580.686 356.088 580.686C356.098 580.686 356.109 580.686 356.12 580.686C356.131 580.686 356.141 580.686 356.152 580.686C356.163 580.686 356.173 580.686 356.184 580.686C356.195 580.686 356.206 580.686 356.216 580.686C356.227 580.686 356.238 580.686 356.249 580.686C356.259 580.686 356.27 580.686 356.281 580.686C356.292 580.686 356.302 580.686 356.313 580.686C356.324 580.686 356.335 580.686 356.346 580.686C356.356 580.686 356.367 580.686 356.378 580.686C356.389 580.686 356.4 580.686 356.411 580.686C356.421 580.686 356.432 580.686 356.443 580.686C356.454 580.686 356.465 580.686 356.476 580.686C356.487 580.686 356.498 580.686 356.508 580.686C356.519 580.686 356.53 580.686 356.541 580.686C356.552 580.686 356.563 580.686 356.574 580.686C356.585 580.686 356.596 580.686 356.607 580.686C356.618 580.686 356.629 580.686 356.64 580.686C356.651 580.686 356.662 580.686 356.673 580.686C356.684 580.686 356.695 580.686 356.706 580.686C356.717 580.686 356.728 580.686 356.739 580.686C356.75 580.686 356.761 580.686 356.772 580.686C356.783 580.686 356.794 580.686 356.805 580.686C356.816 580.686 356.827 580.686 356.838 580.686C356.849 580.686 356.86 580.686 356.871 580.686C356.882 580.686 356.894 580.686 356.905 580.686C356.916 580.686 356.927 580.686 356.938 580.686C356.949 580.686 356.96 580.686 356.971 580.686C356.983 580.686 356.994 580.686 357.005 580.686C357.016 580.686 357.027 580.686 357.038 580.686C357.05 580.686 357.061 580.686 357.072 580.686C357.083 580.686 357.094 580.686 357.105 580.686C357.117 580.686 357.128 580.686 357.139 580.686C357.15 580.686 357.162 580.686 357.173 580.686C357.184 580.686 357.195 580.686 357.207 580.686C357.218 580.686 357.229 580.686 357.24 580.686C357.252 580.686 357.263 580.686 357.274 580.686C357.286 580.686 357.297 580.686 357.308 580.686C357.319 580.686 357.331 580.686 357.342 580.686C357.353 580.686 357.365 580.686 357.376 580.686C357.387 580.686 357.399 580.686 357.41 580.686C357.421 580.686 357.433 580.686 357.444 580.686C357.456 580.686 357.467 580.686 357.478 580.686C357.49 580.686 357.501 580.686 357.513 580.686C357.524 580.686 357.535 580.686 357.547 580.686C357.558 580.686 357.57 580.686 357.581 580.686C357.592 580.686 357.604 580.686 357.615 580.686C357.627 580.686 357.638 580.686 357.65 580.686C357.661 580.686 357.673 580.686 357.684 580.686C357.696 580.686 357.707 580.686 357.719 580.686C357.73 580.686 357.742 580.686 357.753 580.686C357.765 580.686 357.776 580.686 357.788 580.686C357.799 580.686 357.811 580.686 357.822 580.686C357.834 580.686 357.845 580.686 357.857 580.686C357.869 580.686 357.88 580.686 357.892 580.686C357.903 580.686 357.915 580.686 357.926 580.686C357.938 580.686 357.95 580.686 357.961 580.686C357.973 580.686 357.985 580.686 357.996 580.686C358.008 580.686 358.019 580.686 358.031 580.686C358.043 580.686 358.054 580.686 358.066 580.686C358.078 580.686 358.089 580.686 358.101 580.686C358.113 580.686 358.124 580.686 358.136 580.686C358.148 580.686 358.159 580.686 358.171 580.686C358.183 580.686 358.195 580.686 358.206 580.686C358.218 580.686 358.23 580.686 358.241 580.686C358.253 580.686 358.265 580.686 358.277 580.686C358.288 580.686 358.3 580.686 358.312 580.686C358.324 580.686 358.335 580.686 358.347 580.686C358.359 580.686 358.371 580.686 358.383 580.686C358.394 580.686 358.406 580.686 358.418 580.686C358.43 580.686 358.442 580.686 358.453 580.686C358.465 580.686 358.477 580.686 358.489 580.686C358.501 580.686 358.513 580.686 358.524 580.686C358.536 580.686 358.548 580.686 358.56 580.686C358.572 580.686 358.584 580.686 358.596 580.686C358.608 580.686 358.619 580.686 358.631 580.686C358.643 580.686 358.655 580.686 358.667 580.686C358.679 580.686 358.691 580.686 358.703 580.686C358.715 580.686 358.727 580.686 358.739 580.686C358.751 580.686 358.763 580.686 358.775 580.686C358.786 580.686 358.798 580.686 358.81 580.686C358.822 580.686 358.834 580.686 358.846 580.686C358.858 580.686 358.87 580.686 358.882 580.686C358.894 580.686 358.906 580.686 358.918 580.686C358.93 580.686 358.942 580.686 358.954 580.686C358.966 580.686 358.978 580.686 358.991 580.686C359.003 580.686 359.015 580.686 359.027 580.686C359.039 580.686 359.051 580.686 359.063 580.686C359.075 580.686 359.087 580.686 359.099 580.686C359.111 580.686 359.123 580.686 359.135 580.686C359.148 580.686 359.16 580.686 359.172 580.686C359.184 580.686 359.196 580.686 359.208 580.686C359.22 580.686 359.232 580.686 359.245 580.686C359.257 580.686 359.269 580.686 359.281 580.686C359.293 580.686 359.305 580.686 359.317 580.686C359.33 580.686 359.342 580.686 359.354 580.686C359.366 580.686 359.378 580.686 359.391 580.686C359.403 580.686 359.415 580.686 359.427 580.686C359.439 580.686 359.452 580.686 359.464 580.686C359.476 580.686 359.488 580.686 359.501 580.686C359.513 580.686 359.525 580.686 359.537 580.686C359.55 580.686 359.562 580.686 359.574 580.686C359.586 580.686 359.599 580.686 359.611 580.686C359.623 580.686 359.635 580.686 359.648 580.686C359.66 580.686 359.672 580.686 359.685 580.686C359.697 580.686 359.709 580.686 359.722 580.686C359.734 580.686 359.746 580.686 359.759 580.686C359.771 580.686 359.783 580.686 359.796 580.686C359.808 580.686 359.82 580.686 359.833 580.686V576.686C359.82 576.686 359.808 576.686 359.796 576.686C359.783 576.686 359.771 576.686 359.759 576.686C359.746 576.686 359.734 576.686 359.722 576.686C359.709 576.686 359.697 576.686 359.685 576.686C359.672 576.686 359.66 576.686 359.648 576.686C359.635 576.686 359.623 576.686 359.611 576.686C359.599 576.686 359.586 576.686 359.574 576.686C359.562 576.686 359.55 576.686 359.537 576.686C359.525 576.686 359.513 576.686 359.501 576.686C359.488 576.686 359.476 576.686 359.464 576.686C359.452 576.686 359.439 576.686 359.427 576.686C359.415 576.686 359.403 576.686 359.391 576.686C359.378 576.686 359.366 576.686 359.354 576.686C359.342 576.686 359.33 576.686 359.317 576.686C359.305 576.686 359.293 576.686 359.281 576.686C359.269 576.686 359.257 576.686 359.245 576.686C359.232 576.686 359.22 576.686 359.208 576.686C359.196 576.686 359.184 576.686 359.172 576.686C359.16 576.686 359.148 576.686 359.135 576.686C359.123 576.686 359.111 576.686 359.099 576.686C359.087 576.686 359.075 576.686 359.063 576.686C359.051 576.686 359.039 576.686 359.027 576.686C359.015 576.686 359.003 576.686 358.991 576.686C358.978 576.686 358.966 576.686 358.954 576.686C358.942 576.686 358.93 576.686 358.918 576.686C358.906 576.686 358.894 576.686 358.882 576.686C358.87 576.686 358.858 576.686 358.846 576.686C358.834 576.686 358.822 576.686 358.81 576.686C358.798 576.686 358.786 576.686 358.775 576.686C358.763 576.686 358.751 576.686 358.739 576.686C358.727 576.686 358.715 576.686 358.703 576.686C358.691 576.686 358.679 576.686 358.667 576.686C358.655 576.686 358.643 576.686 358.631 576.686C358.619 576.686 358.608 576.686 358.596 576.686C358.584 576.686 358.572 576.686 358.56 576.686C358.548 576.686 358.536 576.686 358.524 576.686C358.513 576.686 358.501 576.686 358.489 576.686C358.477 576.686 358.465 576.686 358.453 576.686C358.442 576.686 358.43 576.686 358.418 576.686C358.406 576.686 358.394 576.686 358.383 576.686C358.371 576.686 358.359 576.686 358.347 576.686C358.335 576.686 358.324 576.686 358.312 576.686C358.3 576.686 358.288 576.686 358.277 576.686C358.265 576.686 358.253 576.686 358.241 576.686C358.23 576.686 358.218 576.686 358.206 576.686C358.195 576.686 358.183 576.686 358.171 576.686C358.159 576.686 358.148 576.686 358.136 576.686C358.124 576.686 358.113 576.686 358.101 576.686C358.089 576.686 358.078 576.686 358.066 576.686C358.054 576.686 358.043 576.686 358.031 576.686C358.019 576.686 358.008 576.686 357.996 576.686C357.985 576.686 357.973 576.686 357.961 576.686C357.95 576.686 357.938 576.686 357.926 576.686C357.915 576.686 357.903 576.686 357.892 576.686C357.88 576.686 357.869 576.686 357.857 576.686C357.845 576.686 357.834 576.686 357.822 576.686C357.811 576.686 357.799 576.686 357.788 576.686C357.776 576.686 357.765 576.686 357.753 576.686C357.742 576.686 357.73 576.686 357.719 576.686C357.707 576.686 357.696 576.686 357.684 576.686C357.673 576.686 357.661 576.686 357.65 576.686C357.638 576.686 357.627 576.686 357.615 576.686C357.604 576.686 357.592 576.686 357.581 576.686C357.57 576.686 357.558 576.686 357.547 576.686C357.535 576.686 357.524 576.686 357.513 576.686C357.501 576.686 357.49 576.686 357.478 576.686C357.467 576.686 357.456 576.686 357.444 576.686C357.433 576.686 357.421 576.686 357.41 576.686C357.399 576.686 357.387 576.686 357.376 576.686C357.365 576.686 357.353 576.686 357.342 576.686C357.331 576.686 357.319 576.686 357.308 576.686C357.297 576.686 357.286 576.686 357.274 576.686C357.263 576.686 357.252 576.686 357.24 576.686C357.229 576.686 357.218 576.686 357.207 576.686C357.195 576.686 357.184 576.686 357.173 576.686C357.162 576.686 357.15 576.686 357.139 576.686C357.128 576.686 357.117 576.686 357.105 576.686C357.094 576.686 357.083 576.686 357.072 576.686C357.061 576.686 357.05 576.686 357.038 576.686C357.027 576.686 357.016 576.686 357.005 576.686C356.994 576.686 356.983 576.686 356.971 576.686C356.96 576.686 356.949 576.686 356.938 576.686C356.927 576.686 356.916 576.686 356.905 576.686C356.894 576.686 356.882 576.686 356.871 576.686C356.86 576.686 356.849 576.686 356.838 576.686C356.827 576.686 356.816 576.686 356.805 576.686C356.794 576.686 356.783 576.686 356.772 576.686C356.761 576.686 356.75 576.686 356.739 576.686C356.728 576.686 356.717 576.686 356.706 576.686C356.695 576.686 356.684 576.686 356.673 576.686C356.662 576.686 356.651 576.686 356.64 576.686C356.629 576.686 356.618 576.686 356.607 576.686C356.596 576.686 356.585 576.686 356.574 576.686C356.563 576.686 356.552 576.686 356.541 576.686C356.53 576.686 356.519 576.686 356.508 576.686C356.498 576.686 356.487 576.686 356.476 576.686C356.465 576.686 356.454 576.686 356.443 576.686C356.432 576.686 356.421 576.686 356.411 576.686C356.4 576.686 356.389 576.686 356.378 576.686C356.367 576.686 356.356 576.686 356.346 576.686C356.335 576.686 356.324 576.686 356.313 576.686C356.302 576.686 356.292 576.686 356.281 576.686C356.27 576.686 356.259 576.686 356.249 576.686C356.238 576.686 356.227 576.686 356.216 576.686C356.206 576.686 356.195 576.686 356.184 576.686C356.173 576.686 356.163 576.686 356.152 576.686C356.141 576.686 356.131 576.686 356.12 576.686C356.109 576.686 356.098 576.686 356.088 576.686C356.077 576.686 356.066 576.686 356.056 576.686C356.045 576.686 356.034 576.686 356.024 576.686C356.013 576.686 356.003 576.686 355.992 576.686C355.981 576.686 355.971 576.686 355.96 576.686C355.95 576.686 355.939 576.686 355.928 576.686C355.918 576.686 355.907 576.686 355.897 576.686C355.886 576.686 355.876 576.686 355.865 576.686C355.854 576.686 355.844 576.686 355.833 576.686C355.823 576.686 355.812 576.686 355.802 576.686C355.791 576.686 355.781 576.686 355.77 576.686C355.76 576.686 355.749 576.686 355.739 576.686C355.728 576.686 355.718 576.686 355.708 576.686C355.697 576.686 355.687 576.686 355.676 576.686C355.666 576.686 355.655 576.686 355.645 576.686C355.634 576.686 355.624 576.686 355.614 576.686C355.603 576.686 355.593 576.686 355.583 576.686C355.572 576.686 355.562 576.686 355.551 576.686C355.541 576.686 355.531 576.686 355.52 576.686C355.51 576.686 355.5 576.686 355.489 576.686C355.479 576.686 355.469 576.686 355.458 576.686C355.448 576.686 355.438 576.686 355.428 576.686C355.417 576.686 355.407 576.686 355.397 576.686C355.386 576.686 355.376 576.686 355.366 576.686C355.356 576.686 355.345 576.686 355.335 576.686C355.325 576.686 355.315 576.686 355.305 576.686C355.294 576.686 355.284 576.686 355.274 576.686C355.264 576.686 355.254 576.686 355.243 576.686C355.233 576.686 355.223 576.686 355.213 576.686C355.203 576.686 355.193 576.686 355.182 576.686C355.172 576.686 355.162 576.686 355.152 576.686C355.142 576.686 355.132 576.686 355.122 576.686C355.112 576.686 355.102 576.686 355.092 576.686C355.081 576.686 355.071 576.686 355.061 576.686C355.051 576.686 355.041 576.686 355.031 576.686C355.021 576.686 355.011 576.686 355.001 576.686C354.991 576.686 354.981 576.686 354.971 576.686C354.961 576.686 354.951 576.686 354.941 576.686C354.931 576.686 354.921 576.686 354.911 576.686C354.901 576.686 354.891 576.686 354.881 576.686C354.871 576.686 354.861 576.686 354.852 576.686C354.842 576.686 354.832 576.686 354.822 576.686C354.812 576.686 354.802 576.686 354.792 576.686C354.782 576.686 354.772 576.686 354.763 576.686C354.753 576.686 354.743 576.686 354.733 576.686C354.723 576.686 354.713 576.686 354.703 576.686C354.694 576.686 354.684 576.686 354.674 576.686C354.664 576.686 354.654 576.686 354.645 576.686C354.635 576.686 354.625 576.686 354.615 576.686C354.606 576.686 354.596 576.686 354.586 576.686C354.576 576.686 354.567 576.686 354.557 576.686C354.547 576.686 354.537 576.686 354.528 576.686C354.518 576.686 354.508 576.686 354.499 576.686C354.489 576.686 354.479 576.686 354.47 576.686C354.46 576.686 354.45 576.686 354.441 576.686C354.431 576.686 354.421 576.686 354.412 576.686C354.402 576.686 354.393 576.686 354.383 576.686C354.373 576.686 354.364 576.686 354.354 576.686C354.345 576.686 354.335 576.686 354.325 576.686C354.316 576.686 354.306 576.686 354.297 576.686C354.287 576.686 354.278 576.686 354.268 576.686C354.259 576.686 354.249 576.686 354.24 576.686C354.23 576.686 354.221 576.686 354.211 576.686C354.202 576.686 354.192 576.686 354.183 576.686C354.173 576.686 354.164 576.686 354.154 576.686C354.145 576.686 354.136 576.686 354.126 576.686C354.117 576.686 354.107 576.686 354.098 576.686C354.089 576.686 354.079 576.686 354.07 576.686C354.06 576.686 354.051 576.686 354.042 576.686C354.032 576.686 354.023 576.686 354.014 576.686C354.004 576.686 353.995 576.686 353.986 576.686C353.976 576.686 353.967 576.686 353.958 576.686C353.949 576.686 353.939 576.686 353.93 576.686C353.921 576.686 353.911 576.686 353.902 576.686C353.893 576.686 353.884 576.686 353.874 576.686C353.865 576.686 353.856 576.686 353.847 576.686C353.838 576.686 353.828 576.686 353.819 576.686C353.81 576.686 353.801 576.686 353.792 576.686C353.783 576.686 353.773 576.686 353.764 576.686C353.755 576.686 353.746 576.686 353.737 576.686C353.728 576.686 353.719 576.686 353.709 576.686C353.7 576.686 353.691 576.686 353.682 576.686C353.673 576.686 353.664 576.686 353.655 576.686C353.646 576.686 353.637 576.686 353.628 576.686C353.619 576.686 353.61 576.686 353.601 576.686C353.592 576.686 353.583 576.686 353.574 576.686C353.565 576.686 353.556 576.686 353.547 576.686C353.538 576.686 353.529 576.686 353.52 576.686C353.511 576.686 353.502 576.686 353.493 576.686C353.484 576.686 353.475 576.686 353.466 576.686C353.457 576.686 353.448 576.686 353.44 576.686C353.431 576.686 353.422 576.686 353.413 576.686C353.404 576.686 353.395 576.686 353.386 576.686C353.378 576.686 353.369 576.686 353.36 576.686C353.351 576.686 353.342 576.686 353.333 576.686C353.325 576.686 353.316 576.686 353.307 576.686C353.298 576.686 353.29 576.686 353.281 576.686C353.272 576.686 353.263 576.686 353.255 576.686C353.246 576.686 353.237 576.686 353.228 576.686C353.22 576.686 353.211 576.686 353.202 576.686C353.194 576.686 353.185 576.686 353.176 576.686C353.168 576.686 353.159 576.686 353.15 576.686C353.142 576.686 353.133 576.686 353.124 576.686C353.116 576.686 353.107 576.686 353.099 576.686C353.09 576.686 353.081 576.686 353.073 576.686C353.064 576.686 353.056 576.686 353.047 576.686C353.038 576.686 353.03 576.686 353.021 576.686C353.013 576.686 353.004 576.686 352.996 576.686C352.987 576.686 352.979 576.686 352.97 576.686C352.962 576.686 352.953 576.686 352.945 576.686C352.936 576.686 352.928 576.686 352.92 576.686C352.911 576.686 352.903 576.686 352.894 576.686C352.886 576.686 352.877 576.686 352.869 576.686C352.861 576.686 352.852 576.686 352.844 576.686C352.835 576.686 352.827 576.686 352.819 576.686C352.81 576.686 352.802 576.686 352.794 576.686C352.785 576.686 352.777 576.686 352.769 576.686C352.76 576.686 352.752 576.686 352.744 576.686C352.736 576.686 352.727 576.686 352.719 576.686C352.711 576.686 352.703 576.686 352.694 576.686C352.686 576.686 352.678 576.686 352.67 576.686C352.661 576.686 352.653 576.686 352.645 576.686C352.637 576.686 352.629 576.686 352.62 576.686C352.612 576.686 352.604 576.686 352.596 576.686C352.588 576.686 352.58 576.686 352.572 576.686C352.563 576.686 352.555 576.686 352.547 576.686C352.539 576.686 352.531 576.686 352.523 576.686C352.515 576.686 352.507 576.686 352.499 576.686C352.491 576.686 352.483 576.686 352.475 576.686C352.467 576.686 352.459 576.686 352.451 576.686C352.443 576.686 352.435 576.686 352.427 576.686C352.419 576.686 352.411 576.686 352.403 576.686C352.395 576.686 352.387 576.686 352.379 576.686C352.371 576.686 352.363 576.686 352.355 576.686C352.347 576.686 352.339 576.686 352.331 576.686C352.323 576.686 352.315 576.686 352.308 576.686C352.3 576.686 352.292 576.686 352.284 576.686C352.276 576.686 352.268 576.686 352.261 576.686C352.253 576.686 352.245 576.686 352.237 576.686C352.229 576.686 352.222 576.686 352.214 576.686C352.206 576.686 352.198 576.686 352.19 576.686C352.183 576.686 352.175 576.686 352.167 576.686C352.16 576.686 352.152 576.686 352.144 576.686C352.136 576.686 352.129 576.686 352.121 576.686C352.113 576.686 352.106 576.686 352.098 576.686C352.09 576.686 352.083 576.686 352.075 576.686C352.068 576.686 352.06 576.686 352.052 576.686C352.045 576.686 352.037 576.686 352.029 576.686C352.022 576.686 352.014 576.686 352.007 576.686C351.999 576.686 351.992 576.686 351.984 576.686C351.977 576.686 351.969 576.686 351.962 576.686C351.954 576.686 351.947 576.686 351.939 576.686C351.932 576.686 351.924 576.686 351.917 576.686C351.909 576.686 351.902 576.686 351.894 576.686C351.887 576.686 351.879 576.686 351.872 576.686C351.865 576.686 351.857 576.686 351.85 576.686C351.842 576.686 351.835 576.686 351.828 576.686C351.82 576.686 351.813 576.686 351.806 576.686C351.798 576.686 351.791 576.686 351.784 576.686C351.776 576.686 351.769 576.686 351.762 576.686C351.755 576.686 351.747 576.686 351.74 576.686C351.733 576.686 351.725 576.686 351.718 576.686C351.711 576.686 351.704 576.686 351.697 576.686C351.689 576.686 351.682 576.686 351.675 576.686C351.668 576.686 351.661 576.686 351.653 576.686C351.646 576.686 351.639 576.686 351.632 576.686C351.625 576.686 351.618 576.686 351.611 576.686C351.603 576.686 351.596 576.686 351.589 576.686C351.582 576.686 351.575 576.686 351.568 576.686C351.561 576.686 351.554 576.686 351.547 576.686C351.54 576.686 351.533 576.686 351.526 576.686C351.519 576.686 351.512 576.686 351.505 576.686C351.498 576.686 351.491 576.686 351.484 576.686C351.477 576.686 351.47 576.686 351.463 576.686C351.456 576.686 351.449 576.686 351.442 576.686C351.435 576.686 351.428 576.686 351.421 576.686C351.415 576.686 351.408 576.686 351.401 576.686C351.394 576.686 351.387 576.686 351.38 576.686C351.373 576.686 351.367 576.686 351.36 576.686C351.353 576.686 351.346 576.686 351.339 576.686C351.333 576.686 351.326 576.686 351.319 576.686C351.312 576.686 351.306 576.686 351.299 576.686C351.292 576.686 351.285 576.686 351.279 576.686C351.272 576.686 351.265 576.686 351.258 576.686C351.252 576.686 351.245 576.686 351.238 576.686C351.232 576.686 351.225 576.686 351.219 576.686C351.212 576.686 351.205 576.686 351.199 576.686C351.192 576.686 351.185 576.686 351.179 576.686C351.172 576.686 351.166 576.686 351.159 576.686C351.153 576.686 351.146 576.686 351.14 576.686C351.133 576.686 351.126 576.686 351.12 576.686C351.113 576.686 351.107 576.686 351.1 576.686C351.094 576.686 351.088 576.686 351.081 576.686C351.075 576.686 351.068 576.686 351.062 576.686C351.055 576.686 351.049 576.686 351.043 576.686C351.036 576.686 351.03 576.686 351.023 576.686C351.017 576.686 351.011 576.686 351.004 576.686C350.998 576.686 350.992 576.686 350.985 576.686C350.979 576.686 350.973 576.686 350.966 576.686C350.96 576.686 350.954 576.686 350.947 576.686C350.941 576.686 350.935 576.686 350.929 576.686C350.922 576.686 350.916 576.686 350.91 576.686C350.904 576.686 350.898 576.686 350.891 576.686C350.885 576.686 350.879 576.686 350.873 576.686C350.867 576.686 350.86 576.686 350.854 576.686C350.848 576.686 350.842 576.686 350.836 576.686C350.83 576.686 350.824 576.686 350.818 576.686C350.812 576.686 350.806 576.686 350.799 576.686C350.793 576.686 350.787 576.686 350.781 576.686C350.775 576.686 350.769 576.686 350.763 576.686C350.757 576.686 350.751 576.686 350.745 576.686C350.739 576.686 350.733 576.686 350.727 576.686C350.721 576.686 350.715 576.686 350.71 576.686C350.704 576.686 350.698 576.686 350.692 576.686C350.686 576.686 350.68 576.686 350.674 576.686C350.668 576.686 350.662 576.686 350.657 576.686C350.651 576.686 350.645 576.686 350.639 576.686C350.633 576.686 350.627 576.686 350.622 576.686C350.616 576.686 350.61 576.686 350.604 576.686C350.599 576.686 350.593 576.686 350.587 576.686C350.581 576.686 350.576 576.686 350.57 576.686C350.564 576.686 350.559 576.686 350.553 576.686C350.547 576.686 350.541 576.686 350.536 576.686C350.53 576.686 350.525 576.686 350.519 576.686C350.513 576.686 350.508 576.686 350.502 576.686C350.496 576.686 350.491 576.686 350.485 576.686C350.48 576.686 350.474 576.686 350.469 576.686C350.463 576.686 350.458 576.686 350.452 576.686C350.446 576.686 350.441 576.686 350.435 576.686C350.43 576.686 350.425 576.686 350.419 576.686C350.414 576.686 350.408 576.686 350.403 576.686C350.397 576.686 350.392 576.686 350.386 576.686C350.381 576.686 350.376 576.686 350.37 576.686C350.365 576.686 350.36 576.686 350.354 576.686C350.349 576.686 350.343 576.686 350.338 576.686C350.333 576.686 350.327 576.686 350.322 576.686C350.317 576.686 350.312 576.686 350.306 576.686C350.301 576.686 350.296 576.686 350.291 576.686C350.285 576.686 350.28 576.686 350.275 576.686C350.27 576.686 350.264 576.686 350.259 576.686C350.254 576.686 350.249 576.686 350.244 576.686C350.239 576.686 350.233 576.686 350.228 576.686C350.223 576.686 350.218 576.686 350.213 576.686C350.208 576.686 350.203 576.686 350.198 576.686C350.193 576.686 350.188 576.686 350.183 576.686C350.177 576.686 350.172 576.686 350.167 576.686C350.162 576.686 350.157 576.686 350.152 576.686C350.147 576.686 350.142 576.686 350.138 576.686C350.133 576.686 350.128 576.686 350.123 576.686C350.118 576.686 350.113 576.686 350.108 576.686C350.103 576.686 350.098 576.686 350.093 576.686C350.088 576.686 350.083 576.686 350.079 576.686C350.074 576.686 350.069 576.686 350.064 576.686C350.059 576.686 350.055 576.686 350.05 576.686C350.045 576.686 350.04 576.686 350.035 576.686C350.031 576.686 350.026 576.686 350.021 576.686C350.016 576.686 350.012 576.686 350.007 576.686C350.002 576.686 349.998 576.686 349.993 576.686C349.988 576.686 349.984 576.686 349.979 576.686C349.974 576.686 349.97 576.686 349.965 576.686C349.96 576.686 349.956 576.686 349.951 576.686C349.947 576.686 349.942 576.686 349.938 576.686C349.933 576.686 349.928 576.686 349.924 576.686C349.919 576.686 349.915 576.686 349.91 576.686C349.906 576.686 349.901 576.686 349.897 576.686C349.892 576.686 349.888 576.686 349.883 576.686C349.879 576.686 349.875 576.686 349.87 576.686C349.866 576.686 349.861 576.686 349.857 576.686C349.853 576.686 349.848 576.686 349.844 576.686C349.84 576.686 349.835 576.686 349.831 576.686C349.827 576.686 349.822 576.686 349.818 576.686C349.814 576.686 349.809 576.686 349.805 576.686C349.801 576.686 349.797 576.686 349.792 576.686C349.788 576.686 349.784 576.686 349.78 576.686C349.775 576.686 349.771 576.686 349.767 576.686C349.763 576.686 349.759 576.686 349.754 576.686C349.75 576.686 349.746 576.686 349.742 576.686C349.738 576.686 349.734 576.686 349.73 576.686C349.726 576.686 349.722 576.686 349.718 576.686C349.713 576.686 349.709 576.686 349.705 576.686C349.701 576.686 349.697 576.686 349.693 576.686C349.689 576.686 349.685 576.686 349.681 576.686C349.677 576.686 349.673 576.686 349.669 576.686C349.666 576.686 349.662 576.686 349.658 576.686C349.654 576.686 349.65 576.686 349.646 576.686C349.642 576.686 349.638 576.686 349.634 576.686C349.631 576.686 349.627 576.686 349.623 576.686C349.619 576.686 349.615 576.686 349.611 576.686C349.608 576.686 349.604 576.686 349.6 576.686C349.596 576.686 349.593 576.686 349.589 576.686C349.585 576.686 349.581 576.686 349.578 576.686C349.574 576.686 349.57 576.686 349.567 576.686C349.563 576.686 349.559 576.686 349.556 576.686C349.552 576.686 349.548 576.686 349.545 576.686C349.541 576.686 349.538 576.686 349.534 576.686C349.53 576.686 349.527 576.686 349.523 576.686C349.52 576.686 349.516 576.686 349.513 576.686C349.509 576.686 349.506 576.686 349.502 576.686C349.499 576.686 349.495 576.686 349.492 576.686C349.488 576.686 349.485 576.686 349.481 576.686C349.478 576.686 349.474 576.686 349.471 576.686C349.468 576.686 349.464 576.686 349.461 576.686C349.458 576.686 349.454 576.686 349.451 576.686C349.447 576.686 349.444 576.686 349.441 576.686C349.438 576.686 349.434 576.686 349.431 576.686C349.428 576.686 349.424 576.686 349.421 576.686C349.418 576.686 349.415 576.686 349.411 576.686C349.408 576.686 349.405 576.686 349.402 576.686C349.399 576.686 349.395 576.686 349.392 576.686C349.389 576.686 349.386 576.686 349.383 576.686C349.38 576.686 349.377 576.686 349.374 576.686C349.37 576.686 349.367 576.686 349.364 576.686C349.361 576.686 349.358 576.686 349.355 576.686C349.352 576.686 349.349 576.686 349.346 576.686C349.343 576.686 349.34 576.686 349.337 576.686C349.334 576.686 349.331 576.686 349.328 576.686C349.325 576.686 349.322 576.686 349.32 576.686C349.317 576.686 349.314 576.686 349.311 576.686C349.308 576.686 349.305 576.686 349.302 576.686C349.299 576.686 349.297 576.686 349.294 576.686C349.291 576.686 349.288 576.686 349.285 576.686C349.283 576.686 349.28 576.686 349.277 576.686C349.274 576.686 349.272 576.686 349.269 576.686C349.266 576.686 349.263 576.686 349.261 576.686C349.258 576.686 349.255 576.686 349.253 576.686C349.25 576.686 349.247 576.686 349.245 576.686C349.242 576.686 349.24 576.686 349.237 576.686C349.234 576.686 349.232 576.686 349.229 576.686C349.227 576.686 349.224 576.686 349.222 576.686C349.219 576.686 349.217 576.686 349.214 576.686C349.212 576.686 349.209 576.686 349.207 576.686C349.204 576.686 349.202 576.686 349.199 576.686C349.197 576.686 349.194 576.686 349.192 576.686C349.19 576.686 349.187 576.686 349.185 576.686C349.182 576.686 349.18 576.686 349.178 576.686C349.175 576.686 349.173 576.686 349.171 576.686C349.168 576.686 349.166 576.686 349.164 576.686C349.162 576.686 349.159 576.686 349.157 576.686C349.155 576.686 349.153 576.686 349.15 576.686C349.148 576.686 349.146 576.686 349.144 576.686C349.142 576.686 349.14 576.686 349.137 576.686C349.135 576.686 349.133 576.686 349.131 576.686C349.129 576.686 349.127 576.686 349.125 576.686C349.123 576.686 349.121 576.686 349.118 576.686C349.116 576.686 349.114 576.686 349.112 576.686C349.11 576.686 349.108 576.686 349.106 576.686C349.104 576.686 349.102 576.686 349.1 576.686C349.099 576.686 349.097 576.686 349.095 576.686C349.093 576.686 349.091 576.686 349.089 576.686C349.087 576.686 349.085 576.686 349.083 576.686C349.081 576.686 349.08 576.686 349.078 576.686C349.076 576.686 349.074 576.686 349.072 576.686C349.071 576.686 349.069 576.686 349.067 576.686C349.065 576.686 349.064 576.686 349.062 576.686C349.06 576.686 349.058 576.686 349.057 576.686C349.055 576.686 349.053 576.686 349.052 576.686C349.05 576.686 349.048 576.686 349.047 576.686C349.045 576.686 349.044 576.686 349.042 576.686C349.04 576.686 349.039 576.686 349.037 576.686C349.036 576.686 349.034 576.686 349.033 576.686C349.031 576.686 349.03 576.686 349.028 576.686C349.027 576.686 349.025 576.686 349.024 576.686C349.022 576.686 349.021 576.686 349.019 576.686C349.018 576.686 349.016 576.686 349.015 576.686C349.014 576.686 349.012 576.686 349.011 576.686C349.01 576.686 349.008 576.686 349.007 576.686C349.006 576.686 349.004 576.686 349.003 576.686C349.002 576.686 349 576.686 348.999 576.686C348.998 576.686 348.997 576.686 348.995 576.686C348.994 576.686 348.993 576.686 348.992 576.686C348.991 576.686 348.989 576.686 348.988 576.686C348.987 576.686 348.986 576.686 348.985 576.686C348.984 576.686 348.982 576.686 348.981 576.686C348.98 576.686 348.979 576.686 348.978 576.686C348.977 576.686 348.976 576.686 348.975 576.686C348.974 576.686 348.973 576.686 348.972 576.686C348.971 576.686 348.97 576.686 348.969 576.686C348.968 576.686 348.967 576.686 348.966 576.686C348.965 576.686 348.964 576.686 348.963 576.686C348.963 576.686 348.962 576.686 348.961 576.686C348.96 576.686 348.959 576.686 348.958 576.686C348.958 576.686 348.957 576.686 348.956 576.686C348.955 576.686 348.954 576.686 348.954 576.686C348.953 576.686 348.952 576.686 348.951 576.686C348.951 576.686 348.95 576.686 348.949 576.686C348.949 576.686 348.948 576.686 348.947 576.686C348.947 576.686 348.946 576.686 348.945 576.686C348.945 576.686 348.944 576.686 348.944 576.686C348.943 576.686 348.942 576.686 348.942 576.686C348.941 576.686 348.941 576.686 348.94 576.686C348.94 576.686 348.939 576.686 348.939 576.686C348.938 576.686 348.938 576.686 348.937 576.686C348.937 576.686 348.936 576.686 348.936 576.686C348.936 576.686 348.935 576.686 348.935 576.686C348.934 576.686 348.934 576.686 348.934 576.686C348.933 576.686 348.933 576.686 348.933 576.686C348.932 576.686 348.932 576.686 348.932 576.686C348.932 576.686 348.931 576.686 348.931 576.686C348.931 576.686 348.931 576.686 348.93 576.686C348.93 576.686 348.93 576.686 348.93 576.686C348.93 576.686 348.929 576.686 348.929 576.686C348.929 576.686 348.929 576.686 348.929 576.686C348.929 576.686 348.929 576.686 348.929 576.686C348.929 576.686 348.929 576.686 348.929 576.686C348.928 576.686 348.928 576.686 348.928 578.686ZM359.833 580.686C363.395 580.686 366.171 579.708 368.524 578.589C369.668 578.044 370.765 577.439 371.72 576.937C372.709 576.417 373.592 575.983 374.47 575.668L373.118 571.903C371.966 572.317 370.88 572.86 369.86 573.396C368.806 573.95 367.853 574.478 366.805 574.977C364.775 575.943 362.601 576.686 359.833 576.686V580.686ZM382.477 404.095C383.627 405.732 383.626 405.732 383.626 405.732C383.626 405.732 383.626 405.732 383.626 405.732C383.626 405.732 383.626 405.732 383.626 405.732C383.627 405.732 383.627 405.731 383.629 405.73C383.631 405.729 383.636 405.726 383.642 405.721C383.655 405.712 383.675 405.699 383.702 405.68C383.756 405.643 383.838 405.586 383.946 405.513C384.163 405.368 384.483 405.156 384.887 404.897C385.696 404.38 386.838 403.681 388.161 402.956C390.865 401.474 394.113 400.006 396.8 399.609L396.214 395.652C392.789 396.158 389.022 397.923 386.239 399.448C384.819 400.226 383.599 400.973 382.733 401.527C382.299 401.804 381.952 402.034 381.712 402.196C381.592 402.277 381.498 402.341 381.433 402.385C381.401 402.408 381.376 402.425 381.358 402.437C381.349 402.444 381.342 402.448 381.337 402.452C381.334 402.454 381.332 402.455 381.331 402.456C381.33 402.457 381.329 402.457 381.329 402.458C381.329 402.458 381.328 402.458 381.328 402.458C381.328 402.458 381.328 402.459 382.477 404.095ZM418.707 395.105C418.707 393.105 418.707 393.105 418.706 393.105C418.706 393.105 418.706 393.105 418.705 393.105C418.705 393.105 418.704 393.105 418.703 393.105C418.701 393.105 418.698 393.105 418.694 393.105C418.687 393.105 418.677 393.105 418.664 393.105C418.637 393.105 418.599 393.106 418.549 393.106C418.449 393.107 418.304 393.108 418.116 393.11C417.741 393.115 417.198 393.126 416.517 393.146C415.157 393.186 413.245 393.266 411.031 393.426C406.626 393.745 400.931 394.387 395.994 395.697L397.02 399.563C401.599 398.348 407.004 397.728 411.32 397.416C413.466 397.26 415.32 397.183 416.635 397.144C417.293 397.124 417.815 397.115 418.17 397.11C418.348 397.108 418.484 397.106 418.575 397.106C418.62 397.106 418.654 397.105 418.676 397.105C418.688 397.105 418.696 397.105 418.701 397.105C418.703 397.105 418.705 397.105 418.706 397.105C418.707 397.105 418.707 397.105 418.707 397.105C418.707 397.105 418.707 397.105 418.707 397.105C418.707 397.105 418.707 397.105 418.707 395.105ZM394.517 397.831C395.052 403.122 395.887 408.386 394.56 414.059L398.454 414.97C399.971 408.49 399.001 402.421 398.497 397.429L394.517 397.831ZM394.56 414.059C394.292 415.203 393.935 416.362 393.468 417.537L397.185 419.015C397.728 417.649 398.143 416.3 398.454 414.97L394.56 414.059ZM384.582 413.787C384.582 415.787 384.582 415.787 384.582 415.787C384.582 415.787 384.582 415.787 384.582 415.787C384.582 415.787 384.582 415.787 384.582 415.787C384.583 415.787 384.584 415.787 384.585 415.787C384.588 415.787 384.592 415.787 384.598 415.787C384.609 415.787 384.627 415.787 384.651 415.787C384.698 415.788 384.77 415.788 384.863 415.789C385.05 415.79 385.324 415.793 385.671 415.798C386.364 415.81 387.344 415.832 388.487 415.877C390.784 415.967 393.69 416.145 396.234 416.496L396.78 412.533C394.046 412.156 390.99 411.972 388.644 411.88C387.465 411.834 386.453 411.81 385.735 411.799C385.376 411.793 385.09 411.79 384.893 411.789C384.794 411.788 384.718 411.788 384.665 411.788C384.639 411.787 384.619 411.787 384.605 411.787C384.598 411.787 384.592 411.787 384.589 411.787C384.587 411.787 384.585 411.787 384.584 411.787C384.584 411.787 384.583 411.787 384.583 411.787C384.583 411.787 384.583 411.787 384.582 411.787C384.582 411.787 384.582 411.787 384.582 413.787ZM417.207 416.052C417.384 414.06 417.384 414.06 417.384 414.06C417.384 414.06 417.384 414.06 417.383 414.06C417.383 414.06 417.382 414.06 417.381 414.06C417.379 414.06 417.375 414.059 417.371 414.059C417.362 414.058 417.348 414.057 417.33 414.055C417.295 414.052 417.242 414.047 417.173 414.041C417.035 414.029 416.833 414.011 416.575 413.988C416.06 413.943 415.321 413.878 414.428 413.801C412.643 413.646 410.241 413.442 407.775 413.241C405.31 413.04 402.775 412.843 400.727 412.704C398.767 412.571 397.049 412.475 396.378 412.519L396.636 416.51C396.972 416.488 398.346 416.552 400.456 416.695C402.478 416.832 404.992 417.028 407.45 417.228C409.907 417.428 412.302 417.632 414.083 417.786C414.974 417.863 415.71 417.928 416.224 417.973C416.481 417.996 416.682 418.013 416.819 418.026C416.888 418.032 416.94 418.036 416.976 418.039C416.993 418.041 417.006 418.042 417.015 418.043C417.02 418.043 417.023 418.044 417.025 418.044C417.026 418.044 417.027 418.044 417.028 418.044C417.028 418.044 417.028 418.044 417.028 418.044C417.029 418.044 417.029 418.044 417.207 416.052ZM291.801 402.619C291.986 400.901 292.266 399.377 292.638 398.133L288.805 396.988C288.342 398.537 288.026 400.318 287.824 402.191L291.801 402.619ZM306.416 403.133C306.652 401.147 306.651 401.147 306.651 401.147C306.651 401.147 306.651 401.147 306.651 401.146C306.65 401.146 306.65 401.146 306.649 401.146C306.647 401.146 306.645 401.146 306.642 401.146C306.637 401.145 306.629 401.144 306.619 401.143C306.598 401.14 306.568 401.137 306.529 401.132C306.451 401.123 306.337 401.111 306.19 401.094C305.896 401.062 305.47 401.017 304.94 400.964C303.88 400.858 302.398 400.721 300.709 400.6C297.356 400.358 293.088 400.167 289.671 400.41L289.955 404.4C293.073 404.178 297.106 404.351 300.422 404.589C302.066 404.708 303.51 404.841 304.542 404.944C305.058 404.995 305.47 405.039 305.752 405.07C305.893 405.086 306.002 405.098 306.074 405.106C306.111 405.111 306.138 405.114 306.156 405.116C306.165 405.117 306.171 405.118 306.176 405.118C306.178 405.118 306.179 405.119 306.18 405.119C306.181 405.119 306.181 405.119 306.181 405.119C306.181 405.119 306.181 405.119 306.181 405.119C306.181 405.119 306.181 405.119 306.416 403.133ZM272 403.133C272.176 405.125 272.176 405.125 272.176 405.125C272.176 405.125 272.176 405.125 272.176 405.125C272.177 405.125 272.177 405.125 272.178 405.125C272.179 405.125 272.181 405.125 272.184 405.124C272.189 405.124 272.197 405.123 272.208 405.122C272.23 405.12 272.263 405.117 272.307 405.114C272.394 405.106 272.523 405.095 272.69 405.081C273.024 405.053 273.508 405.014 274.108 404.967C275.309 404.874 276.971 404.754 278.814 404.643C282.534 404.42 286.882 404.246 289.703 404.402L289.923 400.408C286.846 400.238 282.287 400.428 278.575 400.65C276.703 400.762 275.017 400.885 273.799 400.979C273.19 401.026 272.698 401.067 272.357 401.095C272.187 401.109 272.054 401.121 271.964 401.128C271.919 401.132 271.884 401.135 271.86 401.137C271.849 401.138 271.84 401.139 271.834 401.14C271.831 401.14 271.828 401.14 271.827 401.14C271.826 401.14 271.825 401.14 271.825 401.14C271.824 401.14 271.824 401.14 271.824 401.14C271.824 401.14 271.824 401.14 272 403.133ZM293.315 422.309C292.868 420.951 292.47 419.124 292.164 417.01L288.205 417.583C288.53 419.831 288.971 421.904 289.516 423.56L293.315 422.309ZM292.164 417.01C291.517 412.549 291.321 407.091 291.801 402.619L287.824 402.191C287.302 407.047 287.518 412.845 288.205 417.583L292.164 417.01ZM306.075 410.941C305.657 411.013 305.111 411.045 304.101 411.141C303.161 411.23 301.989 411.362 300.579 411.63C297.752 412.166 294.049 413.227 289.32 415.493L291.048 419.1C295.47 416.982 298.842 416.03 301.324 415.56C302.569 415.324 303.608 415.205 304.477 415.123C305.276 415.048 306.136 414.99 306.757 414.882L306.075 410.941ZM275.937 425.318C276.967 427.032 276.967 427.032 276.967 427.032C276.967 427.032 276.967 427.032 276.967 427.032C276.967 427.032 276.968 427.032 276.968 427.031C276.97 427.031 276.972 427.029 276.974 427.028C276.979 427.025 276.987 427.02 276.997 427.014C277.018 427.002 277.049 426.983 277.089 426.959C277.17 426.91 277.289 426.839 277.443 426.748C277.749 426.565 278.191 426.302 278.731 425.981C279.812 425.341 281.286 424.473 282.858 423.562C286.059 421.708 289.505 419.773 290.982 419.131L289.387 415.463C287.65 416.218 283.973 418.293 280.853 420.1C279.266 421.02 277.78 421.895 276.692 422.54C276.147 422.863 275.702 423.128 275.392 423.313C275.238 423.405 275.117 423.478 275.035 423.527C274.993 423.552 274.962 423.57 274.941 423.583C274.93 423.59 274.922 423.594 274.916 423.598C274.914 423.599 274.911 423.601 274.91 423.602C274.909 423.602 274.909 423.602 274.908 423.602C274.908 423.603 274.908 423.603 274.908 423.603C274.908 423.603 274.908 423.603 275.937 425.318ZM365.08 385.225C363.848 385.299 363.054 386.154 362.66 386.679C362.206 387.284 361.852 388.025 361.582 388.752C361.04 390.21 360.686 392.02 360.686 393.598L364.686 393.598C364.686 392.535 364.94 391.196 365.331 390.145C365.527 389.618 365.72 389.265 365.859 389.08C366.058 388.815 365.903 389.183 365.32 389.218L365.08 385.225ZM360.686 393.598C360.686 395.285 361.194 397.039 361.896 398.392C362.249 399.072 362.696 399.739 363.235 400.266C363.734 400.753 364.563 401.362 365.657 401.368L365.679 397.368C366.098 397.37 366.218 397.587 366.031 397.404C365.884 397.261 365.67 396.981 365.446 396.55C364.995 395.68 364.686 394.553 364.686 393.598L360.686 393.598ZM365.657 401.368C367.006 401.375 367.817 400.469 368.204 399.842C368.596 399.207 368.828 398.452 368.98 397.799C369.29 396.462 369.414 394.867 369.484 393.719L365.491 393.477C365.422 394.623 365.31 395.917 365.083 396.893C364.966 397.397 364.853 397.655 364.8 397.742C364.741 397.838 365.004 397.364 365.679 397.368L365.657 401.368ZM369.484 393.719C369.572 392.266 369.27 390.398 368.785 388.904C368.543 388.155 368.212 387.367 367.771 386.727C367.421 386.219 366.537 385.138 365.08 385.225L365.32 389.218C364.512 389.267 364.257 388.677 364.478 388.998C364.61 389.188 364.796 389.569 364.98 390.137C365.35 391.277 365.542 392.636 365.491 393.477L369.484 393.719ZM319.22 388.699C317.809 388.613 316.938 389.588 316.549 390.156C316.113 390.793 315.812 391.572 315.598 392.297C315.162 393.774 314.931 395.581 314.931 397.072L318.931 397.072C318.931 395.921 319.119 394.499 319.435 393.428C319.596 392.879 319.754 392.555 319.849 392.416C319.99 392.209 319.722 392.737 318.977 392.692L319.22 388.699ZM314.931 397.072C314.931 398.782 315.506 400.634 316.15 401.977C316.473 402.649 316.875 403.325 317.338 403.837C317.561 404.083 317.9 404.407 318.356 404.628C318.845 404.864 319.682 405.064 320.535 404.591L318.597 401.092C319.253 400.728 319.861 400.912 320.097 401.027C320.302 401.126 320.367 401.223 320.306 401.155C320.201 401.039 319.994 400.74 319.756 400.245C319.28 399.254 318.931 398.003 318.931 397.072L314.931 397.072ZM320.535 404.591C321.246 404.197 321.697 403.494 321.934 403.089C322.232 402.58 322.504 401.977 322.737 401.353C323.199 400.118 323.587 398.586 323.671 397.193L319.678 396.951C319.624 397.852 319.351 398.987 318.99 399.953C318.812 400.431 318.632 400.813 318.482 401.068C318.272 401.428 318.28 401.268 318.597 401.092L320.535 404.591ZM323.671 397.193C323.763 395.678 323.367 393.812 322.805 392.34C322.52 391.593 322.148 390.83 321.685 390.208C321.3 389.692 320.488 388.776 319.22 388.699L318.977 392.692C318.373 392.655 318.232 392.269 318.477 392.598C318.643 392.821 318.859 393.217 319.069 393.767C319.497 394.89 319.725 396.172 319.678 396.951L323.671 397.193ZM343.223 408.678C342.463 408.71 341.783 409.034 341.317 409.32C340.807 409.633 340.311 410.05 339.901 410.529C339.507 410.99 339.087 411.63 338.915 412.403C338.725 413.254 338.849 414.273 339.591 415.117L342.595 412.476C342.69 412.584 342.774 412.738 342.813 412.917C342.849 413.085 342.832 413.213 342.819 413.274C342.806 413.33 342.795 413.339 342.817 413.3C342.837 413.263 342.876 413.205 342.939 413.131C343.072 412.976 343.247 412.828 343.41 412.729C343.488 412.681 343.54 412.658 343.559 412.651C343.586 412.641 343.524 412.669 343.39 412.675L343.223 408.678ZM339.591 415.117C340.264 415.882 341.221 416.2 341.894 416.347C342.643 416.511 343.458 416.551 344.216 416.498C344.961 416.445 345.779 416.292 346.495 415.978C347.114 415.707 348.21 415.063 348.475 413.736L344.552 412.952C344.618 412.624 344.786 412.425 344.87 412.346C344.944 412.276 344.972 412.278 344.889 412.314C344.719 412.389 344.385 412.476 343.933 412.508C343.493 412.539 343.067 412.509 342.748 412.439C342.591 412.405 342.497 412.369 342.458 412.35C342.411 412.328 342.487 412.353 342.595 412.476L339.591 415.117ZM348.475 413.736C348.675 412.737 348.349 411.872 347.963 411.27C347.582 410.675 347.067 410.207 346.585 409.861C346.092 409.507 345.547 409.217 345.015 409.015C344.518 408.825 343.876 408.651 343.223 408.678L343.39 412.675C343.314 412.678 343.298 412.668 343.356 412.68C343.406 412.691 343.486 412.713 343.591 412.753C343.805 412.834 344.044 412.96 344.251 413.109C344.469 413.266 344.57 413.388 344.595 413.428C344.616 413.461 344.488 413.273 344.552 412.952L348.475 413.736ZM348.928 580.686H359.833V576.686H348.928V580.686Z" fill="black"/>
</svg>
