<svg width="701" height="900" viewBox="0 0 701 900" fill="none" xmlns="http://www.w3.org/2000/svg">
<g opacity="0">
<path d="M326.125 424.983C322.547 402.867 304.486 390.082 298.453 383.327C292.421 376.571 276.163 368.484 262.955 365.74C249.746 362.995 232.532 362.875 218.294 363.218C204.056 363.562 183.946 373.629 176.316 379.381C168.687 385.132 141.044 409.932 143.362 452.724C145.68 495.516 171.049 510.585 193.432 524.273C215.814 537.961 257.493 534.828 277.532 526.831C297.57 518.834 312.783 496.638 318.409 486.249C323.323 477.175 328.27 454.084 327.058 433.649C326.883 430.687 326.578 427.782 326.125 424.983Z" fill="white" fill-opacity="0.3"/>
<path d="M405.152 388.473C391.989 395.844 385.493 402.491 382.118 423.597C381.528 427.286 381.005 431.365 380.644 435.724C383.787 439.405 386.173 443.285 386.729 446.209C388.057 453.195 386.898 460.493 381.629 467.465C383.672 480.175 388.06 493.112 396.298 504.524C415.04 530.485 445.38 538.6 474.299 537.625C503.218 536.649 528.554 521.301 543.637 502.905C558.659 484.584 558.618 467.414 558.557 441.633L558.556 441.318C558.494 415.361 538.848 394.459 531.01 390.608C523.172 386.757 505.701 372.583 471.126 371.502C436.551 370.422 418.315 381.102 405.152 388.473Z" fill="white" fill-opacity="0.3"/>
<path d="M326.125 424.983L328.099 424.663L328.099 424.663L326.125 424.983ZM318.409 486.249L316.651 485.297L318.409 486.249ZM382.118 423.597L384.093 423.913L384.093 423.913L382.118 423.597ZM396.298 504.524L394.677 505.695L396.298 504.524ZM543.637 502.905L545.183 504.173L543.637 502.905ZM321.719 473.147C322.335 474.063 323.578 474.307 324.494 473.69C325.411 473.074 325.654 471.831 325.038 470.914L321.719 473.147ZM318.332 450.985L320.295 451.365L318.332 450.985ZM338.269 424.805L337.449 422.98L338.269 424.805ZM366.047 424.617L365.496 426.539L366.047 424.617ZM386.729 446.209L384.765 446.583L384.765 446.583L386.729 446.209ZM381.629 467.465L380.033 466.259L379.518 466.94L379.654 467.782L381.629 467.465ZM296.962 384.659C298.538 386.424 300.903 388.588 303.434 391.018C306.013 393.495 308.888 396.36 311.678 399.681C317.258 406.323 322.439 414.723 324.151 425.302L328.099 424.663C326.233 413.127 320.594 404.077 314.741 397.108C311.814 393.624 308.82 390.644 306.204 388.133C303.54 385.575 301.385 383.607 299.945 381.995L296.962 384.659ZM316.651 485.297C313.9 490.376 308.777 498.39 301.884 506.104C294.977 513.834 286.409 521.135 276.791 524.973L278.273 528.688C288.694 524.53 297.751 516.734 304.867 508.769C311.997 500.789 317.293 492.511 320.168 487.202L316.651 485.297ZM276.791 524.973C267.06 528.856 251.891 531.613 236.351 531.684C220.781 531.755 205.203 529.128 194.475 522.567L192.388 525.979C204.042 533.106 220.495 535.756 236.37 535.684C252.275 535.611 267.965 532.802 278.273 528.688L276.791 524.973ZM194.475 522.567C183.235 515.693 171.574 508.655 162.381 498.099C153.253 487.619 146.494 473.581 145.359 452.616L141.365 452.832C142.547 474.658 149.632 489.552 159.364 500.726C169.031 511.825 181.246 519.165 192.388 525.979L194.475 522.567ZM145.359 452.616C143.094 410.804 170.108 386.566 177.52 380.978L175.112 377.784C167.266 383.699 138.994 409.06 141.365 452.832L145.359 452.616ZM404.175 386.728C397.505 390.463 392.28 394.144 388.331 399.73C384.39 405.304 381.854 412.583 380.143 423.281L384.093 423.913C385.757 413.505 388.156 406.907 391.598 402.039C395.031 397.182 399.636 393.854 406.129 390.218L404.175 386.728ZM394.677 505.695C413.957 532.402 445.084 540.612 474.366 539.623L474.231 535.626C445.675 536.589 416.123 528.567 397.92 503.353L394.677 505.695ZM474.366 539.623C503.939 538.626 529.788 522.95 545.183 504.173L542.09 501.637C527.319 519.652 502.497 534.672 474.231 535.626L474.366 539.623ZM560.556 441.313C560.524 427.835 555.413 415.744 549.369 406.573C543.369 397.467 536.256 390.957 531.892 388.813L530.128 392.403C533.602 394.11 540.232 399.976 546.029 408.774C551.783 417.505 556.526 428.843 556.556 441.322L560.556 441.313ZM323.378 472.031C325.038 470.914 325.038 470.915 325.038 470.915C325.038 470.915 325.039 470.916 325.039 470.916C325.039 470.916 325.039 470.916 325.039 470.916C325.039 470.916 325.039 470.916 325.038 470.914C325.036 470.912 325.033 470.907 325.028 470.9C325.018 470.885 325.002 470.86 324.98 470.826C324.936 470.758 324.869 470.651 324.781 470.51C324.607 470.227 324.355 469.803 324.056 469.258C323.458 468.168 322.677 466.606 321.958 464.734C320.505 460.952 319.378 456.1 320.295 451.365L316.368 450.604C315.249 456.385 316.645 462.057 318.224 466.168C319.021 468.243 319.884 469.971 320.55 471.183C320.884 471.791 321.169 472.272 321.374 472.605C321.477 472.772 321.559 472.902 321.618 472.993C321.648 473.039 321.671 473.075 321.688 473.1C321.696 473.113 321.703 473.124 321.708 473.131C321.711 473.135 321.713 473.138 321.715 473.141C321.716 473.142 321.716 473.143 321.717 473.144C321.717 473.145 321.718 473.145 321.718 473.146C321.718 473.146 321.719 473.147 323.378 472.031ZM339.088 426.629C347.776 422.726 358.006 424.393 365.496 426.539L366.597 422.694C358.921 420.495 347.497 418.465 337.449 422.98L339.088 426.629ZM384.765 446.583C385.994 453.054 384.938 459.769 380.033 466.259L383.224 468.671C388.859 461.216 390.12 453.336 388.694 445.836L384.765 446.583ZM177.52 380.978C181.168 378.228 187.948 374.349 195.605 371.114C203.282 367.871 211.596 365.381 218.342 365.218L218.246 361.219C210.755 361.4 201.894 364.115 194.049 367.429C186.184 370.752 179.094 374.782 175.112 377.784L177.52 380.978ZM218.342 365.218C232.582 364.875 249.588 365.005 262.548 367.698L263.361 363.782C249.904 360.985 232.482 360.876 218.246 361.219L218.342 365.218ZM262.548 367.698C268.954 369.029 276.158 371.672 282.506 374.821C288.899 377.992 294.2 381.566 296.962 384.659L299.945 381.995C296.674 378.331 290.83 374.485 284.284 371.237C277.693 367.968 270.164 365.195 263.361 363.782L262.548 367.698ZM406.129 390.218C419.189 382.905 437.036 372.438 471.063 373.501L471.188 369.503C436.065 368.406 417.441 379.299 404.175 386.728L406.129 390.218ZM471.063 373.501C505.079 374.564 522.001 388.41 530.128 392.403L531.892 388.813C524.343 385.105 506.323 370.601 471.188 369.503L471.063 373.501ZM380.143 423.281C379.546 427.015 379.017 431.144 378.651 435.558L382.637 435.889C382.994 431.586 383.51 427.557 384.093 423.913L380.143 423.281ZM379.123 437.022C382.218 440.648 384.311 444.194 384.765 446.583L388.694 445.836C388.036 442.375 385.356 438.163 382.165 434.425L379.123 437.022ZM379.654 467.782C381.734 480.719 386.213 493.971 394.677 505.695L397.92 503.353C389.907 492.254 385.611 479.63 383.603 467.147L379.654 467.782ZM545.183 504.173C560.716 485.228 560.618 467.342 560.557 441.628L556.557 441.638C556.618 467.486 556.601 483.939 542.09 501.637L545.183 504.173ZM560.557 441.628L560.556 441.313L556.556 441.322L556.557 441.638L560.557 441.628ZM560.557 441.628C560.556 441.523 560.556 441.418 560.556 441.313L556.556 441.322C556.556 441.427 556.556 441.533 556.557 441.638L560.557 441.628ZM365.496 426.539C367.347 427.07 369.67 428.395 372.136 430.307C374.572 432.196 377.021 434.561 379.123 437.022L382.165 434.425C379.901 431.774 377.257 429.216 374.587 427.146C371.947 425.098 369.154 423.427 366.597 422.694L365.496 426.539ZM378.651 435.558C376.929 456.324 378.801 483.704 394.677 505.695L397.92 503.353C382.864 482.499 380.947 456.274 382.637 435.889L378.651 435.558ZM320.168 487.202C322.775 482.388 325.286 474.102 326.999 464.563C328.721 454.98 329.672 443.937 329.055 433.53L325.062 433.767C325.656 443.796 324.74 454.517 323.062 463.856C321.377 473.24 318.958 481.037 316.651 485.297L320.168 487.202ZM329.055 433.53C328.876 430.51 328.565 427.537 328.099 424.663L324.151 425.302C324.592 428.026 324.89 430.864 325.062 433.767L329.055 433.53ZM320.295 451.365C321.376 445.783 324.45 439.809 328.583 434.943L325.534 432.354C321.038 437.648 317.601 444.234 316.368 450.604L320.295 451.365ZM328.583 434.943C331.719 431.25 335.38 428.295 339.088 426.629L337.449 422.98C333.069 424.948 328.952 428.329 325.534 432.354L328.583 434.943Z" fill="black"/>
</g>
</svg>
