<svg width="701" height="900" viewBox="0 0 701 900" fill="none" xmlns="http://www.w3.org/2000/svg">
<path d="M208.638 470.49C208.638 459.201 206.459 420.953 206.459 420.953L176.758 412.424C172.462 432.573 178.39 471.638 178.39 471.638C178.39 471.638 184.755 504.936 195.525 504.116C206.296 503.296 208.638 481.779 208.638 470.49Z" fill="black"/>
<path d="M528.473 402.008L497.818 413.413C497.818 413.413 496.524 445.125 496.524 455.729C496.524 466.334 500.903 494.945 512.548 495.745C524.193 496.546 528.473 467.512 528.473 456.83V402.008Z" fill="black"/>
<path d="M563.407 391.104C548.179 395.206 528.473 402.008 528.473 402.008V456.83C528.473 467.512 524.193 496.546 512.548 495.745C500.903 494.945 496.524 466.334 496.524 455.729C496.524 445.125 497.818 413.413 497.818 413.413C497.818 413.413 465.372 426.318 454.723 431.72C444.073 437.122 415.509 451.328 415.509 451.328C415.509 451.328 428.447 486.742 444.471 497.046C460.495 507.35 481.993 511.852 497.52 513.352C513.046 514.853 553.852 508.85 572.464 490.343C591.076 471.836 593.663 459.731 596.45 443.725C599.237 427.718 597.445 383.001 597.445 383.001C597.445 383.001 578.635 387.002 563.407 391.104Z" fill="#FBCC70"/>
<path d="M140.041 403.074C127.638 400.942 114.746 398.809 104.138 397.661C104.138 397.661 104.139 435.88 107.239 448.346C110.34 460.812 115.562 477.707 125.68 488.861C135.798 500.015 157.175 515.27 175.779 517.894C194.383 520.519 219.677 521.364 235.67 516.418C251.663 511.473 262.596 505.1 274.404 492.605C286.212 480.111 288.217 452.447 288.217 452.447C288.217 452.447 255.253 436.372 238.934 431.123C222.615 425.874 206.459 420.953 206.459 420.953C206.459 420.953 208.638 459.201 208.638 470.49C208.638 481.779 206.296 503.296 195.525 504.116C184.755 504.936 178.39 471.638 178.39 471.638C178.39 471.638 172.462 432.573 176.758 412.424C176.758 412.424 152.443 405.207 140.041 403.074Z" fill="#FBCC70"/>
<path d="M295.99 457.123C296.761 457.427 297.632 457.048 297.935 456.278C298.239 455.507 297.861 454.636 297.09 454.332L295.99 457.123ZM95.187 395.025C94.365 394.921 93.615 395.504 93.5117 396.326C93.4084 397.148 93.991 397.898 94.813 398.001L95.187 395.025ZM410.427 452.326C409.695 452.714 409.416 453.622 409.804 454.354C410.193 455.086 411.101 455.364 411.832 454.976L410.427 452.326ZM528.473 402.008L527.983 400.59L527.966 400.596L527.95 400.602L528.473 402.008ZM607.308 382.468C608.118 382.298 608.638 381.503 608.468 380.693C608.298 379.882 607.503 379.362 606.693 379.532L607.308 382.468ZM597.445 383.001L597.138 381.533L597.133 381.534L597.445 383.001ZM415.509 451.328L414.841 449.985L414.823 449.993L414.806 450.003L415.509 451.328ZM497.818 413.413L497.295 412.007L497.279 412.013L497.264 412.019L497.818 413.413ZM206.459 420.953L206.896 419.518L206.885 419.515L206.873 419.512L206.459 420.953ZM178.39 471.638L176.907 471.863L176.911 471.892L176.917 471.92L178.39 471.638ZM140.295 401.596C127.896 399.464 114.96 397.324 104.3 396.17L103.977 399.152C114.531 400.295 127.38 402.419 139.786 404.552L140.295 401.596ZM104.325 396.173L95.187 395.025L94.813 398.001L103.951 399.15L104.325 396.173ZM104.138 397.661C102.638 397.661 102.638 397.661 102.638 397.662C102.638 397.662 102.638 397.663 102.638 397.663C102.638 397.664 102.638 397.666 102.638 397.669C102.638 397.673 102.638 397.681 102.638 397.69C102.638 397.709 102.638 397.737 102.638 397.773C102.638 397.847 102.639 397.955 102.639 398.097C102.64 398.382 102.641 398.8 102.644 399.336C102.65 400.409 102.663 401.954 102.687 403.847C102.735 407.632 102.833 412.811 103.027 418.381C103.413 429.451 104.188 442.292 105.784 448.708L108.695 447.984C107.19 441.934 106.414 429.433 106.025 418.277C105.832 412.734 105.735 407.579 105.687 403.808C105.662 401.924 105.65 400.386 105.644 399.319C105.641 398.786 105.64 398.371 105.639 398.089C105.639 397.949 105.638 397.841 105.638 397.769C105.638 397.733 105.638 397.706 105.638 397.688C105.638 397.679 105.638 397.672 105.638 397.668C105.638 397.665 105.638 397.664 105.638 397.663C105.638 397.662 105.638 397.662 105.638 397.662C105.638 397.661 105.638 397.661 104.138 397.661ZM105.784 448.708C108.885 461.177 114.174 478.41 124.569 489.869L126.791 487.854C116.95 477.005 111.795 460.447 108.695 447.984L105.784 448.708ZM124.569 489.869C129.733 495.563 137.72 502.252 146.757 507.852C155.784 513.445 165.982 518.027 175.57 519.38L175.989 516.409C166.973 515.137 157.18 510.78 148.337 505.301C139.506 499.829 131.744 493.314 126.791 487.854L124.569 489.869ZM175.57 519.38C194.221 522.011 219.791 522.899 236.113 517.851L235.227 514.985C219.564 519.828 194.544 519.027 175.989 516.409L175.57 519.38ZM236.113 517.851C252.331 512.836 263.494 506.334 275.494 493.636L273.314 491.575C261.698 503.866 250.994 510.109 235.227 514.985L236.113 517.851ZM297.09 454.332L288.767 451.051L287.667 453.842L295.99 457.123L297.09 454.332ZM288.217 452.447C288.875 451.099 288.875 451.099 288.874 451.098C288.874 451.098 288.874 451.098 288.873 451.098C288.872 451.097 288.87 451.097 288.868 451.096C288.864 451.094 288.858 451.091 288.85 451.087C288.834 451.079 288.81 451.067 288.778 451.052C288.715 451.021 288.621 450.975 288.498 450.915C288.251 450.796 287.888 450.62 287.42 450.395C286.485 449.944 285.131 449.294 283.455 448.498C280.104 446.907 275.466 444.73 270.316 442.388C260.041 437.716 247.646 432.35 239.393 429.695L238.474 432.551C246.541 435.145 258.788 440.441 269.074 445.119C274.205 447.452 278.828 449.622 282.168 451.208C283.838 452.001 285.187 452.648 286.118 453.097C286.583 453.321 286.944 453.496 287.189 453.615C287.311 453.674 287.404 453.719 287.466 453.75C287.497 453.765 287.521 453.776 287.537 453.784C287.544 453.788 287.55 453.79 287.554 453.792C287.556 453.793 287.557 453.794 287.558 453.794C287.559 453.795 287.559 453.795 287.559 453.795C287.56 453.795 287.56 453.795 288.217 452.447ZM275.494 493.636C281.688 487.081 285.212 476.702 287.199 468.181C288.202 463.884 288.829 459.987 289.206 457.163C289.395 455.751 289.521 454.604 289.601 453.809C289.64 453.411 289.668 453.101 289.686 452.888C289.695 452.782 289.702 452.7 289.706 452.644C289.709 452.616 289.71 452.595 289.711 452.58C289.712 452.573 289.712 452.567 289.713 452.563C289.713 452.561 289.713 452.559 289.713 452.558C289.713 452.557 289.713 452.557 289.713 452.556C289.713 452.556 289.713 452.555 288.217 452.447C286.721 452.338 286.721 452.338 286.721 452.338C286.721 452.338 286.721 452.338 286.721 452.339C286.721 452.339 286.721 452.34 286.721 452.341C286.721 452.344 286.72 452.348 286.72 452.354C286.719 452.366 286.718 452.384 286.716 452.409C286.712 452.458 286.706 452.533 286.697 452.633C286.68 452.832 286.654 453.128 286.615 453.511C286.539 454.277 286.416 455.39 286.233 456.766C285.865 459.52 285.253 463.319 284.278 467.5C282.31 475.934 278.927 485.635 273.314 491.575L275.494 493.636ZM528.473 402.008C528.962 403.426 528.962 403.426 528.962 403.426C528.962 403.426 528.963 403.426 528.963 403.426C528.963 403.426 528.964 403.425 528.965 403.425C528.968 403.424 528.971 403.423 528.976 403.421C528.985 403.418 528.999 403.413 529.018 403.407C529.055 403.394 529.111 403.375 529.185 403.35C529.332 403.299 529.55 403.224 529.834 403.128C530.4 402.934 531.228 402.653 532.268 402.303C534.349 401.603 537.283 400.626 540.692 399.521C547.514 397.31 556.219 394.593 563.797 392.552L563.017 389.656C555.367 391.716 546.605 394.451 539.767 396.667C536.345 397.776 533.401 398.756 531.311 399.46C530.266 399.811 529.435 400.094 528.865 400.288C528.58 400.386 528.36 400.461 528.211 400.512C528.136 400.538 528.08 400.557 528.041 400.57C528.022 400.577 528.008 400.582 527.998 400.585C527.993 400.587 527.99 400.588 527.987 400.589C527.986 400.59 527.985 400.59 527.984 400.59C527.984 400.59 527.984 400.59 527.983 400.59C527.983 400.59 527.983 400.59 528.473 402.008ZM563.797 392.552C571.384 390.509 579.873 388.488 586.471 386.977C589.769 386.221 592.592 385.594 594.59 385.156C595.589 384.936 596.381 384.765 596.924 384.647C597.195 384.589 597.404 384.544 597.545 384.514C597.615 384.499 597.668 384.487 597.704 384.48C597.722 384.476 597.735 384.473 597.744 384.471C597.749 384.47 597.752 384.47 597.754 384.469C597.755 384.469 597.756 384.469 597.757 384.469C597.757 384.469 597.757 384.469 597.757 384.468C597.757 384.468 597.757 384.468 597.445 383.001C597.133 381.534 597.133 381.534 597.133 381.534C597.133 381.534 597.133 381.534 597.132 381.534C597.132 381.534 597.131 381.535 597.13 381.535C597.127 381.535 597.124 381.536 597.119 381.537C597.11 381.539 597.096 381.542 597.078 381.546C597.041 381.554 596.987 381.565 596.916 381.58C596.774 381.611 596.564 381.656 596.291 381.715C595.745 381.833 594.949 382.005 593.947 382.225C591.942 382.665 589.11 383.295 585.802 384.052C579.188 385.567 570.657 387.598 563.017 389.656L563.797 392.552ZM597.753 384.469L607.308 382.468L606.693 379.532L597.138 381.533L597.753 384.469ZM597.445 383.001C595.947 383.061 595.947 383.061 595.947 383.062C595.947 383.062 595.947 383.062 595.947 383.063C595.947 383.064 595.947 383.066 595.947 383.069C595.947 383.074 595.947 383.082 595.948 383.093C595.949 383.114 595.95 383.146 595.952 383.188C595.955 383.273 595.96 383.399 595.966 383.564C595.978 383.894 595.996 384.381 596.018 385.006C596.061 386.257 596.12 388.063 596.182 390.28C596.307 394.716 596.443 400.795 596.493 407.372C596.593 420.583 596.338 435.622 594.972 443.467L597.928 443.982C599.349 435.821 599.592 420.498 599.493 407.349C599.443 400.746 599.306 394.646 599.181 390.196C599.119 387.972 599.06 386.159 599.016 384.902C598.994 384.273 598.976 383.784 598.964 383.451C598.957 383.285 598.953 383.158 598.949 383.072C598.948 383.029 598.946 382.996 598.945 382.975C598.945 382.964 598.945 382.955 598.944 382.95C598.944 382.947 598.944 382.945 598.944 382.943C598.944 382.943 598.944 382.942 598.944 382.942C598.944 382.941 598.944 382.941 597.445 383.001ZM594.972 443.467C593.579 451.47 592.26 458.328 589.025 465.478C585.796 472.613 580.618 480.12 571.406 489.279L573.522 491.407C582.922 482.059 588.343 474.26 591.758 466.714C595.166 459.183 596.535 451.985 597.928 443.982L594.972 443.467ZM571.406 489.279C562.387 498.248 547.848 504.292 533.47 507.896C519.111 511.495 505.207 512.588 497.664 511.859L497.375 514.845C505.359 515.617 519.621 514.459 534.2 510.806C548.76 507.156 563.929 500.945 573.522 491.407L571.406 489.279ZM497.664 511.859C482.233 510.368 461.013 505.899 445.283 495.784L443.66 498.307C459.978 508.8 481.754 513.335 497.375 514.845L497.664 511.859ZM411.832 454.976L416.212 452.653L414.806 450.003L410.427 452.326L411.832 454.976ZM415.509 451.328C416.177 452.671 416.177 452.671 416.177 452.671C416.177 452.671 416.178 452.67 416.178 452.67C416.179 452.67 416.18 452.669 416.182 452.668C416.185 452.666 416.191 452.664 416.197 452.66C416.211 452.654 416.232 452.643 416.259 452.63C416.313 452.603 416.394 452.563 416.5 452.51C416.712 452.405 417.024 452.249 417.425 452.05C418.227 451.651 419.385 451.075 420.807 450.366C423.651 448.95 427.555 447.005 431.792 444.892C440.263 440.666 450.071 435.762 455.401 433.058L454.044 430.382C448.724 433.081 438.926 437.98 430.452 442.207C426.217 444.321 422.314 446.265 419.47 447.681C418.048 448.389 416.89 448.965 416.089 449.364C415.688 449.563 415.376 449.719 415.164 449.824C415.058 449.877 414.977 449.917 414.923 449.944C414.896 449.957 414.875 449.968 414.862 449.974C414.855 449.978 414.849 449.98 414.846 449.982C414.844 449.983 414.843 449.984 414.842 449.984C414.842 449.984 414.841 449.984 414.841 449.984C414.841 449.985 414.841 449.985 415.509 451.328ZM445.283 495.784C441.502 493.353 437.818 489.377 434.399 484.673C430.992 479.986 427.912 474.665 425.314 469.634C422.718 464.608 420.616 459.896 419.164 456.441C418.438 454.714 417.875 453.303 417.494 452.325C417.303 451.836 417.158 451.456 417.062 451.199C417.013 451.071 416.977 450.973 416.953 450.908C416.941 450.876 416.932 450.851 416.926 450.835C416.923 450.827 416.921 450.821 416.919 450.818C416.919 450.816 416.918 450.815 416.918 450.814C416.918 450.813 416.918 450.813 416.918 450.813C416.918 450.813 416.918 450.813 415.509 451.328C414.1 451.842 414.1 451.843 414.1 451.843C414.1 451.844 414.1 451.844 414.101 451.845C414.101 451.846 414.102 451.848 414.103 451.851C414.105 451.855 414.107 451.862 414.111 451.872C414.117 451.89 414.127 451.916 414.14 451.951C414.166 452.021 414.204 452.123 414.254 452.257C414.355 452.524 414.504 452.914 414.698 453.414C415.088 454.413 415.661 455.849 416.398 457.603C417.872 461.11 420.007 465.896 422.648 471.011C425.288 476.122 428.446 481.586 431.972 486.437C435.486 491.272 439.429 495.586 443.66 498.307L445.283 495.784ZM455.401 433.058C460.664 430.388 471.38 425.834 480.837 421.927C485.553 419.978 489.938 418.198 493.143 416.905C494.746 416.258 496.054 415.733 496.96 415.37C497.414 415.189 497.767 415.048 498.007 414.952C498.127 414.904 498.218 414.868 498.28 414.844C498.31 414.831 498.334 414.822 498.349 414.816C498.357 414.813 498.363 414.81 498.367 414.809C498.369 414.808 498.37 414.808 498.371 414.807C498.372 414.807 498.372 414.807 498.372 414.807C498.372 414.807 498.372 414.807 497.818 413.413C497.264 412.019 497.264 412.019 497.263 412.019C497.263 412.019 497.263 412.019 497.262 412.02C497.261 412.02 497.26 412.021 497.258 412.021C497.254 412.023 497.248 412.025 497.24 412.029C497.224 412.035 497.201 412.044 497.17 412.056C497.108 412.081 497.016 412.118 496.895 412.166C496.655 412.262 496.3 412.403 495.846 412.585C494.937 412.949 493.626 413.475 492.021 414.123C488.81 415.418 484.417 417.201 479.691 419.154C470.263 423.05 459.431 427.65 454.044 430.382L455.401 433.058ZM498.341 414.819L528.996 403.414L527.95 400.602L497.295 412.007L498.341 414.819ZM497.818 413.413C496.319 413.352 496.319 413.352 496.319 413.352C496.319 413.352 496.319 413.353 496.319 413.353C496.319 413.354 496.319 413.356 496.319 413.358C496.319 413.361 496.319 413.367 496.318 413.375C496.318 413.39 496.317 413.413 496.316 413.443C496.313 413.504 496.31 413.594 496.305 413.711C496.295 413.946 496.281 414.292 496.264 414.736C496.228 415.625 496.178 416.906 496.117 418.476C495.996 421.616 495.834 425.913 495.672 430.542C495.349 439.789 495.024 450.396 495.024 455.729H498.024C498.024 450.459 498.347 439.908 498.67 430.647C498.832 426.023 498.994 421.729 499.115 418.592C499.175 417.023 499.226 415.743 499.261 414.856C499.279 414.412 499.293 414.067 499.302 413.832C499.307 413.715 499.311 413.625 499.313 413.565C499.314 413.535 499.315 413.512 499.316 413.497C499.316 413.489 499.316 413.483 499.317 413.48C499.317 413.478 499.317 413.476 499.317 413.475C499.317 413.475 499.317 413.475 499.317 413.474C499.317 413.474 499.317 413.474 497.818 413.413ZM495.024 455.729C495.024 461.168 496.138 471.117 498.732 479.841C500.028 484.2 501.722 488.353 503.898 491.5C506.063 494.63 508.877 496.996 512.445 497.242L512.651 494.249C510.397 494.094 508.296 492.584 506.365 489.793C504.446 487.018 502.862 483.206 501.607 478.986C499.1 470.554 498.024 460.895 498.024 455.729H495.024ZM512.445 497.242C516.086 497.492 518.971 495.37 521.158 492.392C523.345 489.414 525.032 485.336 526.315 481.021C528.886 472.376 529.973 462.301 529.973 456.83H526.973C526.973 462.04 525.92 471.824 523.439 480.166C522.197 484.344 520.63 488.043 518.74 490.617C516.849 493.191 514.833 494.399 512.651 494.249L512.445 497.242ZM529.973 456.83C529.973 456.809 529.973 456.788 529.973 456.767C529.973 456.746 529.973 456.725 529.973 456.703C529.973 456.682 529.973 456.66 529.973 456.639C529.973 456.617 529.973 456.595 529.973 456.573C529.973 456.552 529.973 456.53 529.973 456.507C529.973 456.485 529.973 456.463 529.973 456.441C529.973 456.418 529.973 456.396 529.973 456.373C529.973 456.351 529.973 456.328 529.973 456.305C529.973 456.282 529.973 456.259 529.973 456.236C529.973 456.213 529.973 456.19 529.973 456.166C529.973 456.143 529.973 456.119 529.973 456.096C529.973 456.072 529.973 456.049 529.973 456.025C529.973 456.001 529.973 455.977 529.973 455.953C529.973 455.929 529.973 455.905 529.973 455.88C529.973 455.856 529.973 455.831 529.973 455.807C529.973 455.782 529.973 455.758 529.973 455.733C529.973 455.708 529.973 455.683 529.973 455.658C529.973 455.633 529.973 455.608 529.973 455.583C529.973 455.557 529.973 455.532 529.973 455.506C529.973 455.481 529.973 455.455 529.973 455.43C529.973 455.404 529.973 455.378 529.973 455.352C529.973 455.326 529.973 455.3 529.973 455.274C529.973 455.248 529.973 455.221 529.973 455.195C529.973 455.168 529.973 455.142 529.973 455.115C529.973 455.089 529.973 455.062 529.973 455.035C529.973 455.008 529.973 454.981 529.973 454.954C529.973 454.927 529.973 454.9 529.973 454.872C529.973 454.845 529.973 454.817 529.973 454.79C529.973 454.762 529.973 454.735 529.973 454.707C529.973 454.679 529.973 454.651 529.973 454.623C529.973 454.595 529.973 454.567 529.973 454.539C529.973 454.511 529.973 454.482 529.973 454.454C529.973 454.425 529.973 454.397 529.973 454.368C529.973 454.34 529.973 454.311 529.973 454.282C529.973 454.253 529.973 454.224 529.973 454.195C529.973 454.166 529.973 454.137 529.973 454.107C529.973 454.078 529.973 454.049 529.973 454.019C529.973 453.99 529.973 453.96 529.973 453.93C529.973 453.901 529.973 453.871 529.973 453.841C529.973 453.811 529.973 453.781 529.973 453.751C529.973 453.721 529.973 453.69 529.973 453.66C529.973 453.63 529.973 453.599 529.973 453.569C529.973 453.538 529.973 453.507 529.973 453.477C529.973 453.446 529.973 453.415 529.973 453.384C529.973 453.353 529.973 453.322 529.973 453.291C529.973 453.259 529.973 453.228 529.973 453.197C529.973 453.165 529.973 453.134 529.973 453.102C529.973 453.071 529.973 453.039 529.973 453.007C529.973 452.976 529.973 452.944 529.973 452.912C529.973 452.88 529.973 452.848 529.973 452.815C529.973 452.783 529.973 452.751 529.973 452.719C529.973 452.686 529.973 452.654 529.973 452.621C529.973 452.589 529.973 452.556 529.973 452.523C529.973 452.49 529.973 452.458 529.973 452.425C529.973 452.392 529.973 452.359 529.973 452.325C529.973 452.292 529.973 452.259 529.973 452.226C529.973 452.192 529.973 452.159 529.973 452.125C529.973 452.092 529.973 452.058 529.973 452.024C529.973 451.991 529.973 451.957 529.973 451.923C529.973 451.889 529.973 451.855 529.973 451.821C529.973 451.787 529.973 451.753 529.973 451.718C529.973 451.684 529.973 451.65 529.973 451.615C529.973 451.581 529.973 451.546 529.973 451.512C529.973 451.477 529.973 451.442 529.973 451.407C529.973 451.373 529.973 451.338 529.973 451.303C529.973 451.268 529.973 451.232 529.973 451.197C529.973 451.162 529.973 451.127 529.973 451.091C529.973 451.056 529.973 451.021 529.973 450.985C529.973 450.95 529.973 450.914 529.973 450.878C529.973 450.842 529.973 450.807 529.973 450.771C529.973 450.735 529.973 450.699 529.973 450.663C529.973 450.627 529.973 450.591 529.973 450.554C529.973 450.518 529.973 450.482 529.973 450.445C529.973 450.409 529.973 450.372 529.973 450.336C529.973 450.299 529.973 450.263 529.973 450.226C529.973 450.189 529.973 450.152 529.973 450.115C529.973 450.078 529.973 450.041 529.973 450.004C529.973 449.967 529.973 449.93 529.973 449.893C529.973 449.855 529.973 449.818 529.973 449.781C529.973 449.743 529.973 449.706 529.973 449.668C529.973 449.631 529.973 449.593 529.973 449.555C529.973 449.517 529.973 449.48 529.973 449.442C529.973 449.404 529.973 449.366 529.973 449.328C529.973 449.29 529.973 449.252 529.973 449.213C529.973 449.175 529.973 449.137 529.973 449.098C529.973 449.06 529.973 449.022 529.973 448.983C529.973 448.944 529.973 448.906 529.973 448.867C529.973 448.828 529.973 448.79 529.973 448.751C529.973 448.712 529.973 448.673 529.973 448.634C529.973 448.595 529.973 448.556 529.973 448.517C529.973 448.478 529.973 448.438 529.973 448.399C529.973 448.36 529.973 448.32 529.973 448.281C529.973 448.242 529.973 448.202 529.973 448.162C529.973 448.123 529.973 448.083 529.973 448.043C529.973 448.004 529.973 447.964 529.973 447.924C529.973 447.884 529.973 447.844 529.973 447.804C529.973 447.764 529.973 447.724 529.973 447.684C529.973 447.644 529.973 447.603 529.973 447.563C529.973 447.523 529.973 447.482 529.973 447.442C529.973 447.401 529.973 447.361 529.973 447.32C529.973 447.28 529.973 447.239 529.973 447.198C529.973 447.157 529.973 447.117 529.973 447.076C529.973 447.035 529.973 446.994 529.973 446.953C529.973 446.912 529.973 446.871 529.973 446.83C529.973 446.788 529.973 446.747 529.973 446.706C529.973 446.665 529.973 446.623 529.973 446.582C529.973 446.54 529.973 446.499 529.973 446.457C529.973 446.416 529.973 446.374 529.973 446.332C529.973 446.291 529.973 446.249 529.973 446.207C529.973 446.165 529.973 446.123 529.973 446.082C529.973 446.04 529.973 445.998 529.973 445.955C529.973 445.913 529.973 445.871 529.973 445.829C529.973 445.787 529.973 445.745 529.973 445.702C529.973 445.66 529.973 445.618 529.973 445.575C529.973 445.533 529.973 445.49 529.973 445.448C529.973 445.405 529.973 445.362 529.973 445.32C529.973 445.277 529.973 445.234 529.973 445.191C529.973 445.149 529.973 445.106 529.973 445.063C529.973 445.02 529.973 444.977 529.973 444.934C529.973 444.891 529.973 444.848 529.973 444.804C529.973 444.761 529.973 444.718 529.973 444.675C529.973 444.632 529.973 444.588 529.973 444.545C529.973 444.501 529.973 444.458 529.973 444.414C529.973 444.371 529.973 444.327 529.973 444.284C529.973 444.24 529.973 444.196 529.973 444.153C529.973 444.109 529.973 444.065 529.973 444.021C529.973 443.977 529.973 443.934 529.973 443.89C529.973 443.846 529.973 443.802 529.973 443.758C529.973 443.713 529.973 443.669 529.973 443.625C529.973 443.581 529.973 443.537 529.973 443.493C529.973 443.448 529.973 443.404 529.973 443.36C529.973 443.315 529.973 443.271 529.973 443.226C529.973 443.182 529.973 443.137 529.973 443.093C529.973 443.048 529.973 443.003 529.973 442.959C529.973 442.914 529.973 442.869 529.973 442.824C529.973 442.78 529.973 442.735 529.973 442.69C529.973 442.645 529.973 442.6 529.973 442.555C529.973 442.51 529.973 442.465 529.973 442.42C529.973 442.375 529.973 442.33 529.973 442.285C529.973 442.24 529.973 442.194 529.973 442.149C529.973 442.104 529.973 442.058 529.973 442.013C529.973 441.968 529.973 441.922 529.973 441.877C529.973 441.831 529.973 441.786 529.973 441.74C529.973 441.695 529.973 441.649 529.973 441.604C529.973 441.558 529.973 441.512 529.973 441.467C529.973 441.421 529.973 441.375 529.973 441.329C529.973 441.283 529.973 441.238 529.973 441.192C529.973 441.146 529.973 441.1 529.973 441.054C529.973 441.008 529.973 440.962 529.973 440.916C529.973 440.87 529.973 440.824 529.973 440.778C529.973 440.731 529.973 440.685 529.973 440.639C529.973 440.593 529.973 440.547 529.973 440.5C529.973 440.454 529.973 440.408 529.973 440.361C529.973 440.315 529.973 440.268 529.973 440.222C529.973 440.175 529.973 440.129 529.973 440.082C529.973 440.036 529.973 439.989 529.973 439.943C529.973 439.896 529.973 439.849 529.973 439.803C529.973 439.756 529.973 439.709 529.973 439.663C529.973 439.616 529.973 439.569 529.973 439.522C529.973 439.475 529.973 439.428 529.973 439.382C529.973 439.335 529.973 439.288 529.973 439.241C529.973 439.194 529.973 439.147 529.973 439.1C529.973 439.053 529.973 439.006 529.973 438.958C529.973 438.911 529.973 438.864 529.973 438.817C529.973 438.77 529.973 438.723 529.973 438.675C529.973 438.628 529.973 438.581 529.973 438.534C529.973 438.486 529.973 438.439 529.973 438.392C529.973 438.344 529.973 438.297 529.973 438.249C529.973 438.202 529.973 438.154 529.973 438.107C529.973 438.06 529.973 438.012 529.973 437.964C529.973 437.917 529.973 437.869 529.973 437.822C529.973 437.774 529.973 437.726 529.973 437.679C529.973 437.631 529.973 437.583 529.973 437.536C529.973 437.488 529.973 437.44 529.973 437.392C529.973 437.345 529.973 437.297 529.973 437.249C529.973 437.201 529.973 437.153 529.973 437.106C529.973 437.058 529.973 437.01 529.973 436.962C529.973 436.914 529.973 436.866 529.973 436.818C529.973 436.77 529.973 436.722 529.973 436.674C529.973 436.626 529.973 436.578 529.973 436.53C529.973 436.482 529.973 436.434 529.973 436.385C529.973 436.337 529.973 436.289 529.973 436.241C529.973 436.193 529.973 436.145 529.973 436.096C529.973 436.048 529.973 436 529.973 435.952C529.973 435.903 529.973 435.855 529.973 435.807C529.973 435.759 529.973 435.71 529.973 435.662C529.973 435.614 529.973 435.565 529.973 435.517C529.973 435.468 529.973 435.42 529.973 435.372C529.973 435.323 529.973 435.275 529.973 435.226C529.973 435.178 529.973 435.129 529.973 435.081C529.973 435.032 529.973 434.984 529.973 434.935C529.973 434.887 529.973 434.838 529.973 434.79C529.973 434.741 529.973 434.693 529.973 434.644C529.973 434.595 529.973 434.547 529.973 434.498C529.973 434.45 529.973 434.401 529.973 434.352C529.973 434.304 529.973 434.255 529.973 434.206C529.973 434.158 529.973 434.109 529.973 434.06C529.973 434.011 529.973 433.963 529.973 433.914C529.973 433.865 529.973 433.816 529.973 433.768C529.973 433.719 529.973 433.67 529.973 433.621C529.973 433.573 529.973 433.524 529.973 433.475C529.973 433.426 529.973 433.377 529.973 433.329C529.973 433.28 529.973 433.231 529.973 433.182C529.973 433.133 529.973 433.084 529.973 433.035C529.973 432.986 529.973 432.938 529.973 432.889C529.973 432.84 529.973 432.791 529.973 432.742C529.973 432.693 529.973 432.644 529.973 432.595C529.973 432.546 529.973 432.497 529.973 432.448C529.973 432.399 529.973 432.351 529.973 432.302C529.973 432.253 529.973 432.204 529.973 432.155C529.973 432.106 529.973 432.057 529.973 432.008C529.973 431.959 529.973 431.91 529.973 431.861C529.973 431.812 529.973 431.763 529.973 431.714C529.973 431.665 529.973 431.616 529.973 431.567C529.973 431.518 529.973 431.469 529.973 431.42C529.973 431.371 529.973 431.322 529.973 431.273C529.973 431.224 529.973 431.175 529.973 431.126C529.973 431.077 529.973 431.027 529.973 430.978C529.973 430.929 529.973 430.88 529.973 430.831C529.973 430.782 529.973 430.733 529.973 430.684C529.973 430.635 529.973 430.586 529.973 430.537C529.973 430.488 529.973 430.439 529.973 430.39C529.973 430.341 529.973 430.292 529.973 430.243C529.973 430.194 529.973 430.145 529.973 430.096C529.973 430.047 529.973 429.998 529.973 429.949C529.973 429.9 529.973 429.851 529.973 429.802C529.973 429.753 529.973 429.704 529.973 429.655C529.973 429.606 529.973 429.557 529.973 429.508C529.973 429.459 529.973 429.41 529.973 429.361C529.973 429.312 529.973 429.263 529.973 429.214C529.973 429.165 529.973 429.116 529.973 429.067C529.973 429.018 529.973 428.969 529.973 428.92C529.973 428.871 529.973 428.822 529.973 428.773C529.973 428.724 529.973 428.675 529.973 428.626C529.973 428.577 529.973 428.528 529.973 428.479C529.973 428.43 529.973 428.381 529.973 428.332C529.973 428.284 529.973 428.235 529.973 428.186C529.973 428.137 529.973 428.088 529.973 428.039C529.973 427.99 529.973 427.941 529.973 427.893C529.973 427.844 529.973 427.795 529.973 427.746C529.973 427.697 529.973 427.648 529.973 427.6C529.973 427.551 529.973 427.502 529.973 427.453C529.973 427.404 529.973 427.356 529.973 427.307C529.973 427.258 529.973 427.209 529.973 427.161C529.973 427.112 529.973 427.063 529.973 427.015C529.973 426.966 529.973 426.917 529.973 426.868C529.973 426.82 529.973 426.771 529.973 426.723C529.973 426.674 529.973 426.625 529.973 426.577C529.973 426.528 529.973 426.479 529.973 426.431C529.973 426.382 529.973 426.334 529.973 426.285C529.973 426.237 529.973 426.188 529.973 426.14C529.973 426.091 529.973 426.043 529.973 425.994C529.973 425.946 529.973 425.897 529.973 425.849C529.973 425.8 529.973 425.752 529.973 425.704C529.973 425.655 529.973 425.607 529.973 425.558C529.973 425.51 529.973 425.462 529.973 425.413C529.973 425.365 529.973 425.317 529.973 425.268C529.973 425.22 529.973 425.172 529.973 425.124C529.973 425.075 529.973 425.027 529.973 424.979C529.973 424.931 529.973 424.883 529.973 424.835C529.973 424.786 529.973 424.738 529.973 424.69C529.973 424.642 529.973 424.594 529.973 424.546C529.973 424.498 529.973 424.45 529.973 424.402C529.973 424.354 529.973 424.306 529.973 424.258C529.973 424.21 529.973 424.162 529.973 424.114C529.973 424.066 529.973 424.018 529.973 423.97C529.973 423.923 529.973 423.875 529.973 423.827C529.973 423.779 529.973 423.731 529.973 423.684C529.973 423.636 529.973 423.588 529.973 423.54C529.973 423.493 529.973 423.445 529.973 423.397C529.973 423.35 529.973 423.302 529.973 423.255C529.973 423.207 529.973 423.159 529.973 423.112C529.973 423.064 529.973 423.017 529.973 422.969C529.973 422.922 529.973 422.875 529.973 422.827C529.973 422.78 529.973 422.732 529.973 422.685C529.973 422.638 529.973 422.59 529.973 422.543C529.973 422.496 529.973 422.449 529.973 422.401C529.973 422.354 529.973 422.307 529.973 422.26C529.973 422.213 529.973 422.166 529.973 422.119C529.973 422.071 529.973 422.024 529.973 421.977C529.973 421.93 529.973 421.883 529.973 421.837C529.973 421.79 529.973 421.743 529.973 421.696C529.973 421.649 529.973 421.602 529.973 421.555C529.973 421.508 529.973 421.462 529.973 421.415C529.973 421.368 529.973 421.322 529.973 421.275C529.973 421.228 529.973 421.182 529.973 421.135C529.973 421.089 529.973 421.042 529.973 420.995C529.973 420.949 529.973 420.902 529.973 420.856C529.973 420.81 529.973 420.763 529.973 420.717C529.973 420.671 529.973 420.624 529.973 420.578C529.973 420.532 529.973 420.486 529.973 420.439C529.973 420.393 529.973 420.347 529.973 420.301C529.973 420.255 529.973 420.209 529.973 420.163C529.973 420.117 529.973 420.071 529.973 420.025C529.973 419.979 529.973 419.933 529.973 419.887C529.973 419.841 529.973 419.795 529.973 419.75C529.973 419.704 529.973 419.658 529.973 419.612C529.973 419.567 529.973 419.521 529.973 419.476C529.973 419.43 529.973 419.384 529.973 419.339C529.973 419.293 529.973 419.248 529.973 419.203C529.973 419.157 529.973 419.112 529.973 419.066C529.973 419.021 529.973 418.976 529.973 418.931C529.973 418.885 529.973 418.84 529.973 418.795C529.973 418.75 529.973 418.705 529.973 418.66C529.973 418.615 529.973 418.57 529.973 418.525C529.973 418.48 529.973 418.435 529.973 418.39C529.973 418.345 529.973 418.301 529.973 418.256C529.973 418.211 529.973 418.166 529.973 418.122C529.973 418.077 529.973 418.033 529.973 417.988C529.973 417.944 529.973 417.899 529.973 417.855C529.973 417.81 529.973 417.766 529.973 417.721C529.973 417.677 529.973 417.633 529.973 417.589C529.973 417.544 529.973 417.5 529.973 417.456C529.973 417.412 529.973 417.368 529.973 417.324C529.973 417.28 529.973 417.236 529.973 417.192C529.973 417.148 529.973 417.104 529.973 417.061C529.973 417.017 529.973 416.973 529.973 416.929C529.973 416.886 529.973 416.842 529.973 416.798C529.973 416.755 529.973 416.711 529.973 416.668C529.973 416.624 529.973 416.581 529.973 416.538C529.973 416.494 529.973 416.451 529.973 416.408C529.973 416.365 529.973 416.321 529.973 416.278C529.973 416.235 529.973 416.192 529.973 416.149C529.973 416.106 529.973 416.063 529.973 416.02C529.973 415.977 529.973 415.935 529.973 415.892C529.973 415.849 529.973 415.806 529.973 415.764C529.973 415.721 529.973 415.679 529.973 415.636C529.973 415.594 529.973 415.551 529.973 415.509C529.973 415.466 529.973 415.424 529.973 415.382C529.973 415.339 529.973 415.297 529.973 415.255C529.973 415.213 529.973 415.171 529.973 415.129C529.973 415.087 529.973 415.045 529.973 415.003C529.973 414.961 529.973 414.919 529.973 414.878C529.973 414.836 529.973 414.794 529.973 414.752C529.973 414.711 529.973 414.669 529.973 414.628C529.973 414.586 529.973 414.545 529.973 414.504C529.973 414.462 529.973 414.421 529.973 414.38C529.973 414.338 529.973 414.297 529.973 414.256C529.973 414.215 529.973 414.174 529.973 414.133C529.973 414.092 529.973 414.051 529.973 414.01C529.973 413.97 529.973 413.929 529.973 413.888C529.973 413.848 529.973 413.807 529.973 413.766C529.973 413.726 529.973 413.685 529.973 413.645C529.973 413.605 529.973 413.564 529.973 413.524C529.973 413.484 529.973 413.444 529.973 413.403C529.973 413.363 529.973 413.323 529.973 413.283C529.973 413.243 529.973 413.203 529.973 413.164C529.973 413.124 529.973 413.084 529.973 413.044C529.973 413.005 529.973 412.965 529.973 412.926C529.973 412.886 529.973 412.847 529.973 412.807C529.973 412.768 529.973 412.728 529.973 412.689C529.973 412.65 529.973 412.611 529.973 412.572C529.973 412.533 529.973 412.494 529.973 412.455C529.973 412.416 529.973 412.377 529.973 412.338C529.973 412.299 529.973 412.261 529.973 412.222C529.973 412.183 529.973 412.145 529.973 412.106C529.973 412.068 529.973 412.03 529.973 411.991C529.973 411.953 529.973 411.915 529.973 411.877C529.973 411.838 529.973 411.8 529.973 411.762C529.973 411.724 529.973 411.687 529.973 411.649C529.973 411.611 529.973 411.573 529.973 411.535C529.973 411.498 529.973 411.46 529.973 411.423C529.973 411.385 529.973 411.348 529.973 411.31C529.973 411.273 529.973 411.236 529.973 411.199C529.973 411.161 529.973 411.124 529.973 411.087C529.973 411.05 529.973 411.013 529.973 410.977C529.973 410.94 529.973 410.903 529.973 410.866C529.973 410.83 529.973 410.793 529.973 410.757C529.973 410.72 529.973 410.684 529.973 410.647C529.973 410.611 529.973 410.575 529.973 410.539C529.973 410.502 529.973 410.466 529.973 410.43C529.973 410.394 529.973 410.358 529.973 410.323C529.973 410.287 529.973 410.251 529.973 410.215C529.973 410.18 529.973 410.144 529.973 410.109C529.973 410.073 529.973 410.038 529.973 410.003C529.973 409.967 529.973 409.932 529.973 409.897C529.973 409.862 529.973 409.827 529.973 409.792C529.973 409.757 529.973 409.722 529.973 409.687C529.973 409.653 529.973 409.618 529.973 409.584C529.973 409.549 529.973 409.515 529.973 409.48C529.973 409.446 529.973 409.411 529.973 409.377C529.973 409.343 529.973 409.309 529.973 409.275C529.973 409.241 529.973 409.207 529.973 409.173C529.973 409.139 529.973 409.106 529.973 409.072C529.973 409.038 529.973 409.005 529.973 408.971C529.973 408.938 529.973 408.905 529.973 408.871C529.973 408.838 529.973 408.805 529.973 408.772C529.973 408.739 529.973 408.706 529.973 408.673C529.973 408.64 529.973 408.607 529.973 408.575C529.973 408.542 529.973 408.509 529.973 408.477C529.973 408.444 529.973 408.412 529.973 408.38C529.973 408.348 529.973 408.315 529.973 408.283C529.973 408.251 529.973 408.219 529.973 408.187C529.973 408.155 529.973 408.124 529.973 408.092C529.973 408.06 529.973 408.029 529.973 407.997C529.973 407.966 529.973 407.934 529.973 407.903C529.973 407.872 529.973 407.841 529.973 407.809C529.973 407.778 529.973 407.747 529.973 407.717C529.973 407.686 529.973 407.655 529.973 407.624C529.973 407.594 529.973 407.563 529.973 407.533C529.973 407.502 529.973 407.472 529.973 407.441C529.973 407.411 529.973 407.381 529.973 407.351C529.973 407.321 529.973 407.291 529.973 407.261C529.973 407.231 529.973 407.202 529.973 407.172C529.973 407.142 529.973 407.113 529.973 407.083C529.973 407.054 529.973 407.025 529.973 406.995C529.973 406.966 529.973 406.937 529.973 406.908C529.973 406.879 529.973 406.85 529.973 406.822C529.973 406.793 529.973 406.764 529.973 406.736C529.973 406.707 529.973 406.679 529.973 406.65C529.973 406.622 529.973 406.594 529.973 406.566C529.973 406.537 529.973 406.509 529.973 406.482C529.973 406.454 529.973 406.426 529.973 406.398C529.973 406.371 529.973 406.343 529.973 406.316C529.973 406.288 529.973 406.261 529.973 406.234C529.973 406.206 529.973 406.179 529.973 406.152C529.973 406.125 529.973 406.098 529.973 406.072C529.973 406.045 529.973 406.018 529.973 405.992C529.973 405.965 529.973 405.939 529.973 405.912C529.973 405.886 529.973 405.86 529.973 405.834C529.973 405.808 529.973 405.782 529.973 405.756C529.973 405.73 529.973 405.704 529.973 405.678C529.973 405.653 529.973 405.627 529.973 405.602C529.973 405.577 529.973 405.551 529.973 405.526C529.973 405.501 529.973 405.476 529.973 405.451C529.973 405.426 529.973 405.401 529.973 405.377C529.973 405.352 529.973 405.327 529.973 405.303C529.973 405.278 529.973 405.254 529.973 405.23C529.973 405.206 529.973 405.182 529.973 405.158C529.973 405.134 529.973 405.11 529.973 405.086C529.973 405.062 529.973 405.039 529.973 405.015C529.973 404.992 529.973 404.968 529.973 404.945C529.973 404.922 529.973 404.899 529.973 404.876C529.973 404.853 529.973 404.83 529.973 404.807C529.973 404.784 529.973 404.762 529.973 404.739C529.973 404.717 529.973 404.694 529.973 404.672C529.973 404.65 529.973 404.628 529.973 404.606C529.973 404.584 529.973 404.562 529.973 404.54C529.973 404.518 529.973 404.497 529.973 404.475C529.973 404.454 529.973 404.432 529.973 404.411C529.973 404.39 529.973 404.369 529.973 404.348C529.973 404.327 529.973 404.306 529.973 404.285C529.973 404.264 529.973 404.244 529.973 404.223C529.973 404.203 529.973 404.183 529.973 404.162C529.973 404.142 529.973 404.122 529.973 404.102C529.973 404.082 529.973 404.062 529.973 404.042C529.973 404.023 529.973 404.003 529.973 403.984C529.973 403.964 529.973 403.945 529.973 403.926C529.973 403.907 529.973 403.888 529.973 403.869C529.973 403.85 529.973 403.831 529.973 403.812C529.973 403.794 529.973 403.775 529.973 403.757C529.973 403.738 529.973 403.72 529.973 403.702C529.973 403.684 529.973 403.666 529.973 403.648C529.973 403.63 529.973 403.612 529.973 403.595C529.973 403.577 529.973 403.56 529.973 403.542C529.973 403.525 529.973 403.508 529.973 403.491C529.973 403.474 529.973 403.457 529.973 403.44C529.973 403.423 529.973 403.407 529.973 403.39C529.973 403.374 529.973 403.357 529.973 403.341C529.973 403.325 529.973 403.309 529.973 403.293C529.973 403.277 529.973 403.261 529.973 403.246C529.973 403.23 529.973 403.214 529.973 403.199C529.973 403.184 529.973 403.168 529.973 403.153C529.973 403.138 529.973 403.123 529.973 403.108C529.973 403.093 529.973 403.079 529.973 403.064C529.973 403.05 529.973 403.035 529.973 403.021C529.973 403.007 529.973 402.993 529.973 402.979C529.973 402.965 529.973 402.951 529.973 402.937C529.973 402.923 529.973 402.91 529.973 402.896C529.973 402.883 529.973 402.87 529.973 402.857C529.973 402.843 529.973 402.83 529.973 402.818C529.973 402.805 529.973 402.792 529.973 402.78C529.973 402.767 529.973 402.755 529.973 402.742C529.973 402.73 529.973 402.718 529.973 402.706C529.973 402.694 529.973 402.682 529.973 402.671C529.973 402.659 529.973 402.647 529.973 402.636C529.973 402.625 529.973 402.613 529.973 402.602C529.973 402.591 529.973 402.58 529.973 402.57C529.973 402.559 529.973 402.548 529.973 402.538C529.973 402.527 529.973 402.517 529.973 402.507C529.973 402.496 529.973 402.486 529.973 402.477C529.973 402.467 529.973 402.457 529.973 402.447C529.973 402.438 529.973 402.428 529.973 402.419C529.973 402.41 529.973 402.401 529.973 402.392C529.973 402.383 529.973 402.374 529.973 402.365C529.973 402.357 529.973 402.348 529.973 402.34C529.973 402.331 529.973 402.323 529.973 402.315C529.973 402.307 529.973 402.299 529.973 402.291C529.973 402.284 529.973 402.276 529.973 402.269C529.973 402.261 529.973 402.254 529.973 402.247C529.973 402.24 529.973 402.233 529.973 402.226C529.973 402.219 529.973 402.212 529.973 402.206C529.973 402.199 529.973 402.193 529.973 402.187C529.973 402.181 529.973 402.175 529.973 402.169C529.973 402.163 529.973 402.157 529.973 402.151C529.973 402.146 529.973 402.141 529.973 402.135C529.973 402.13 529.973 402.125 529.973 402.12C529.973 402.115 529.973 402.11 529.973 402.106C529.973 402.101 529.973 402.097 529.973 402.092C529.973 402.088 529.973 402.084 529.973 402.08C529.973 402.076 529.973 402.072 529.973 402.069C529.973 402.065 529.973 402.062 529.973 402.058C529.973 402.055 529.973 402.052 529.973 402.049C529.973 402.046 529.973 402.043 529.973 402.04C529.973 402.038 529.973 402.035 529.973 402.033C529.973 402.031 529.973 402.028 529.973 402.026C529.973 402.024 529.973 402.023 529.973 402.021C529.973 402.019 529.973 402.018 529.973 402.016C529.973 402.015 529.973 402.014 529.973 402.013C529.973 402.012 529.973 402.011 529.973 402.01C529.973 402.01 529.973 402.009 529.973 402.009C529.973 402.009 529.973 402.008 528.473 402.008C526.973 402.008 526.973 402.009 526.973 402.009C526.973 402.009 526.973 402.01 526.973 402.01C526.973 402.011 526.973 402.012 526.973 402.013C526.973 402.014 526.973 402.015 526.973 402.016C526.973 402.018 526.973 402.019 526.973 402.021C526.973 402.023 526.973 402.024 526.973 402.026C526.973 402.028 526.973 402.031 526.973 402.033C526.973 402.035 526.973 402.038 526.973 402.04C526.973 402.043 526.973 402.046 526.973 402.049C526.973 402.052 526.973 402.055 526.973 402.058C526.973 402.062 526.973 402.065 526.973 402.069C526.973 402.072 526.973 402.076 526.973 402.08C526.973 402.084 526.973 402.088 526.973 402.092C526.973 402.097 526.973 402.101 526.973 402.106C526.973 402.11 526.973 402.115 526.973 402.12C526.973 402.125 526.973 402.13 526.973 402.135C526.973 402.141 526.973 402.146 526.973 402.151C526.973 402.157 526.973 402.163 526.973 402.169C526.973 402.175 526.973 402.181 526.973 402.187C526.973 402.193 526.973 402.199 526.973 402.206C526.973 402.212 526.973 402.219 526.973 402.226C526.973 402.233 526.973 402.24 526.973 402.247C526.973 402.254 526.973 402.261 526.973 402.269C526.973 402.276 526.973 402.284 526.973 402.291C526.973 402.299 526.973 402.307 526.973 402.315C526.973 402.323 526.973 402.331 526.973 402.34C526.973 402.348 526.973 402.357 526.973 402.365C526.973 402.374 526.973 402.383 526.973 402.392C526.973 402.401 526.973 402.41 526.973 402.419C526.973 402.428 526.973 402.438 526.973 402.447C526.973 402.457 526.973 402.467 526.973 402.477C526.973 402.486 526.973 402.496 526.973 402.507C526.973 402.517 526.973 402.527 526.973 402.538C526.973 402.548 526.973 402.559 526.973 402.57C526.973 402.58 526.973 402.591 526.973 402.602C526.973 402.613 526.973 402.625 526.973 402.636C526.973 402.647 526.973 402.659 526.973 402.671C526.973 402.682 526.973 402.694 526.973 402.706C526.973 402.718 526.973 402.73 526.973 402.742C526.973 402.755 526.973 402.767 526.973 402.78C526.973 402.792 526.973 402.805 526.973 402.818C526.973 402.83 526.973 402.843 526.973 402.857C526.973 402.87 526.973 402.883 526.973 402.896C526.973 402.91 526.973 402.923 526.973 402.937C526.973 402.951 526.973 402.965 526.973 402.979C526.973 402.993 526.973 403.007 526.973 403.021C526.973 403.035 526.973 403.05 526.973 403.064C526.973 403.079 526.973 403.093 526.973 403.108C526.973 403.123 526.973 403.138 526.973 403.153C526.973 403.168 526.973 403.184 526.973 403.199C526.973 403.214 526.973 403.23 526.973 403.246C526.973 403.261 526.973 403.277 526.973 403.293C526.973 403.309 526.973 403.325 526.973 403.341C526.973 403.357 526.973 403.374 526.973 403.39C526.973 403.407 526.973 403.423 526.973 403.44C526.973 403.457 526.973 403.474 526.973 403.491C526.973 403.508 526.973 403.525 526.973 403.542C526.973 403.56 526.973 403.577 526.973 403.595C526.973 403.612 526.973 403.63 526.973 403.648C526.973 403.666 526.973 403.684 526.973 403.702C526.973 403.72 526.973 403.738 526.973 403.757C526.973 403.775 526.973 403.794 526.973 403.812C526.973 403.831 526.973 403.85 526.973 403.869C526.973 403.888 526.973 403.907 526.973 403.926C526.973 403.945 526.973 403.964 526.973 403.984C526.973 404.003 526.973 404.023 526.973 404.042C526.973 404.062 526.973 404.082 526.973 404.102C526.973 404.122 526.973 404.142 526.973 404.162C526.973 404.183 526.973 404.203 526.973 404.223C526.973 404.244 526.973 404.264 526.973 404.285C526.973 404.306 526.973 404.327 526.973 404.348C526.973 404.369 526.973 404.39 526.973 404.411C526.973 404.432 526.973 404.454 526.973 404.475C526.973 404.497 526.973 404.518 526.973 404.54C526.973 404.562 526.973 404.584 526.973 404.606C526.973 404.628 526.973 404.65 526.973 404.672C526.973 404.694 526.973 404.717 526.973 404.739C526.973 404.762 526.973 404.784 526.973 404.807C526.973 404.83 526.973 404.853 526.973 404.876C526.973 404.899 526.973 404.922 526.973 404.945C526.973 404.968 526.973 404.992 526.973 405.015C526.973 405.039 526.973 405.062 526.973 405.086C526.973 405.11 526.973 405.134 526.973 405.158C526.973 405.182 526.973 405.206 526.973 405.23C526.973 405.254 526.973 405.278 526.973 405.303C526.973 405.327 526.973 405.352 526.973 405.377C526.973 405.401 526.973 405.426 526.973 405.451C526.973 405.476 526.973 405.501 526.973 405.526C526.973 405.551 526.973 405.577 526.973 405.602C526.973 405.627 526.973 405.653 526.973 405.678C526.973 405.704 526.973 405.73 526.973 405.756C526.973 405.782 526.973 405.808 526.973 405.834C526.973 405.86 526.973 405.886 526.973 405.912C526.973 405.939 526.973 405.965 526.973 405.992C526.973 406.018 526.973 406.045 526.973 406.072C526.973 406.098 526.973 406.125 526.973 406.152C526.973 406.179 526.973 406.206 526.973 406.234C526.973 406.261 526.973 406.288 526.973 406.316C526.973 406.343 526.973 406.371 526.973 406.398C526.973 406.426 526.973 406.454 526.973 406.482C526.973 406.509 526.973 406.537 526.973 406.566C526.973 406.594 526.973 406.622 526.973 406.65C526.973 406.679 526.973 406.707 526.973 406.736C526.973 406.764 526.973 406.793 526.973 406.822C526.973 406.85 526.973 406.879 526.973 406.908C526.973 406.937 526.973 406.966 526.973 406.995C526.973 407.025 526.973 407.054 526.973 407.083C526.973 407.113 526.973 407.142 526.973 407.172C526.973 407.202 526.973 407.231 526.973 407.261C526.973 407.291 526.973 407.321 526.973 407.351C526.973 407.381 526.973 407.411 526.973 407.441C526.973 407.472 526.973 407.502 526.973 407.533C526.973 407.563 526.973 407.594 526.973 407.624C526.973 407.655 526.973 407.686 526.973 407.717C526.973 407.747 526.973 407.778 526.973 407.809C526.973 407.841 526.973 407.872 526.973 407.903C526.973 407.934 526.973 407.966 526.973 407.997C526.973 408.029 526.973 408.06 526.973 408.092C526.973 408.124 526.973 408.155 526.973 408.187C526.973 408.219 526.973 408.251 526.973 408.283C526.973 408.315 526.973 408.348 526.973 408.38C526.973 408.412 526.973 408.444 526.973 408.477C526.973 408.509 526.973 408.542 526.973 408.575C526.973 408.607 526.973 408.64 526.973 408.673C526.973 408.706 526.973 408.739 526.973 408.772C526.973 408.805 526.973 408.838 526.973 408.871C526.973 408.905 526.973 408.938 526.973 408.971C526.973 409.005 526.973 409.038 526.973 409.072C526.973 409.106 526.973 409.139 526.973 409.173C526.973 409.207 526.973 409.241 526.973 409.275C526.973 409.309 526.973 409.343 526.973 409.377C526.973 409.411 526.973 409.446 526.973 409.48C526.973 409.515 526.973 409.549 526.973 409.584C526.973 409.618 526.973 409.653 526.973 409.687C526.973 409.722 526.973 409.757 526.973 409.792C526.973 409.827 526.973 409.862 526.973 409.897C526.973 409.932 526.973 409.967 526.973 410.003C526.973 410.038 526.973 410.073 526.973 410.109C526.973 410.144 526.973 410.18 526.973 410.215C526.973 410.251 526.973 410.287 526.973 410.323C526.973 410.358 526.973 410.394 526.973 410.43C526.973 410.466 526.973 410.502 526.973 410.539C526.973 410.575 526.973 410.611 526.973 410.647C526.973 410.684 526.973 410.72 526.973 410.757C526.973 410.793 526.973 410.83 526.973 410.866C526.973 410.903 526.973 410.94 526.973 410.977C526.973 411.013 526.973 411.05 526.973 411.087C526.973 411.124 526.973 411.161 526.973 411.199C526.973 411.236 526.973 411.273 526.973 411.31C526.973 411.348 526.973 411.385 526.973 411.423C526.973 411.46 526.973 411.498 526.973 411.535C526.973 411.573 526.973 411.611 526.973 411.649C526.973 411.687 526.973 411.724 526.973 411.762C526.973 411.8 526.973 411.838 526.973 411.877C526.973 411.915 526.973 411.953 526.973 411.991C526.973 412.03 526.973 412.068 526.973 412.106C526.973 412.145 526.973 412.183 526.973 412.222C526.973 412.261 526.973 412.299 526.973 412.338C526.973 412.377 526.973 412.416 526.973 412.455C526.973 412.494 526.973 412.533 526.973 412.572C526.973 412.611 526.973 412.65 526.973 412.689C526.973 412.728 526.973 412.768 526.973 412.807C526.973 412.847 526.973 412.886 526.973 412.926C526.973 412.965 526.973 413.005 526.973 413.044C526.973 413.084 526.973 413.124 526.973 413.164C526.973 413.203 526.973 413.243 526.973 413.283C526.973 413.323 526.973 413.363 526.973 413.403C526.973 413.444 526.973 413.484 526.973 413.524C526.973 413.564 526.973 413.605 526.973 413.645C526.973 413.685 526.973 413.726 526.973 413.766C526.973 413.807 526.973 413.848 526.973 413.888C526.973 413.929 526.973 413.97 526.973 414.01C526.973 414.051 526.973 414.092 526.973 414.133C526.973 414.174 526.973 414.215 526.973 414.256C526.973 414.297 526.973 414.338 526.973 414.38C526.973 414.421 526.973 414.462 526.973 414.504C526.973 414.545 526.973 414.586 526.973 414.628C526.973 414.669 526.973 414.711 526.973 414.752C526.973 414.794 526.973 414.836 526.973 414.878C526.973 414.919 526.973 414.961 526.973 415.003C526.973 415.045 526.973 415.087 526.973 415.129C526.973 415.171 526.973 415.213 526.973 415.255C526.973 415.297 526.973 415.339 526.973 415.382C526.973 415.424 526.973 415.466 526.973 415.509C526.973 415.551 526.973 415.594 526.973 415.636C526.973 415.679 526.973 415.721 526.973 415.764C526.973 415.806 526.973 415.849 526.973 415.892C526.973 415.935 526.973 415.977 526.973 416.02C526.973 416.063 526.973 416.106 526.973 416.149C526.973 416.192 526.973 416.235 526.973 416.278C526.973 416.321 526.973 416.365 526.973 416.408C526.973 416.451 526.973 416.494 526.973 416.538C526.973 416.581 526.973 416.624 526.973 416.668C526.973 416.711 526.973 416.755 526.973 416.798C526.973 416.842 526.973 416.886 526.973 416.929C526.973 416.973 526.973 417.017 526.973 417.061C526.973 417.104 526.973 417.148 526.973 417.192C526.973 417.236 526.973 417.28 526.973 417.324C526.973 417.368 526.973 417.412 526.973 417.456C526.973 417.5 526.973 417.544 526.973 417.589C526.973 417.633 526.973 417.677 526.973 417.721C526.973 417.766 526.973 417.81 526.973 417.855C526.973 417.899 526.973 417.944 526.973 417.988C526.973 418.033 526.973 418.077 526.973 418.122C526.973 418.166 526.973 418.211 526.973 418.256C526.973 418.301 526.973 418.345 526.973 418.39C526.973 418.435 526.973 418.48 526.973 418.525C526.973 418.57 526.973 418.615 526.973 418.66C526.973 418.705 526.973 418.75 526.973 418.795C526.973 418.84 526.973 418.885 526.973 418.931C526.973 418.976 526.973 419.021 526.973 419.066C526.973 419.112 526.973 419.157 526.973 419.203C526.973 419.248 526.973 419.293 526.973 419.339C526.973 419.384 526.973 419.43 526.973 419.476C526.973 419.521 526.973 419.567 526.973 419.612C526.973 419.658 526.973 419.704 526.973 419.75C526.973 419.795 526.973 419.841 526.973 419.887C526.973 419.933 526.973 419.979 526.973 420.025C526.973 420.071 526.973 420.117 526.973 420.163C526.973 420.209 526.973 420.255 526.973 420.301C526.973 420.347 526.973 420.393 526.973 420.439C526.973 420.486 526.973 420.532 526.973 420.578C526.973 420.624 526.973 420.671 526.973 420.717C526.973 420.763 526.973 420.81 526.973 420.856C526.973 420.902 526.973 420.949 526.973 420.995C526.973 421.042 526.973 421.089 526.973 421.135C526.973 421.182 526.973 421.228 526.973 421.275C526.973 421.322 526.973 421.368 526.973 421.415C526.973 421.462 526.973 421.508 526.973 421.555C526.973 421.602 526.973 421.649 526.973 421.696C526.973 421.743 526.973 421.79 526.973 421.837C526.973 421.883 526.973 421.93 526.973 421.977C526.973 422.024 526.973 422.071 526.973 422.119C526.973 422.166 526.973 422.213 526.973 422.26C526.973 422.307 526.973 422.354 526.973 422.401C526.973 422.449 526.973 422.496 526.973 422.543C526.973 422.59 526.973 422.638 526.973 422.685C526.973 422.732 526.973 422.78 526.973 422.827C526.973 422.875 526.973 422.922 526.973 422.969C526.973 423.017 526.973 423.064 526.973 423.112C526.973 423.159 526.973 423.207 526.973 423.255C526.973 423.302 526.973 423.35 526.973 423.397C526.973 423.445 526.973 423.493 526.973 423.54C526.973 423.588 526.973 423.636 526.973 423.684C526.973 423.731 526.973 423.779 526.973 423.827C526.973 423.875 526.973 423.923 526.973 423.97C526.973 424.018 526.973 424.066 526.973 424.114C526.973 424.162 526.973 424.21 526.973 424.258C526.973 424.306 526.973 424.354 526.973 424.402C526.973 424.45 526.973 424.498 526.973 424.546C526.973 424.594 526.973 424.642 526.973 424.69C526.973 424.738 526.973 424.786 526.973 424.835C526.973 424.883 526.973 424.931 526.973 424.979C526.973 425.027 526.973 425.075 526.973 425.124C526.973 425.172 526.973 425.22 526.973 425.268C526.973 425.317 526.973 425.365 526.973 425.413C526.973 425.462 526.973 425.51 526.973 425.558C526.973 425.607 526.973 425.655 526.973 425.704C526.973 425.752 526.973 425.8 526.973 425.849C526.973 425.897 526.973 425.946 526.973 425.994C526.973 426.043 526.973 426.091 526.973 426.14C526.973 426.188 526.973 426.237 526.973 426.285C526.973 426.334 526.973 426.382 526.973 426.431C526.973 426.479 526.973 426.528 526.973 426.577C526.973 426.625 526.973 426.674 526.973 426.723C526.973 426.771 526.973 426.82 526.973 426.868C526.973 426.917 526.973 426.966 526.973 427.015C526.973 427.063 526.973 427.112 526.973 427.161C526.973 427.209 526.973 427.258 526.973 427.307C526.973 427.356 526.973 427.404 526.973 427.453C526.973 427.502 526.973 427.551 526.973 427.6C526.973 427.648 526.973 427.697 526.973 427.746C526.973 427.795 526.973 427.844 526.973 427.893C526.973 427.941 526.973 427.99 526.973 428.039C526.973 428.088 526.973 428.137 526.973 428.186C526.973 428.235 526.973 428.284 526.973 428.332C526.973 428.381 526.973 428.43 526.973 428.479C526.973 428.528 526.973 428.577 526.973 428.626C526.973 428.675 526.973 428.724 526.973 428.773C526.973 428.822 526.973 428.871 526.973 428.92C526.973 428.969 526.973 429.018 526.973 429.067C526.973 429.116 526.973 429.165 526.973 429.214C526.973 429.263 526.973 429.312 526.973 429.361C526.973 429.41 526.973 429.459 526.973 429.508C526.973 429.557 526.973 429.606 526.973 429.655C526.973 429.704 526.973 429.753 526.973 429.802C526.973 429.851 526.973 429.9 526.973 429.949C526.973 429.998 526.973 430.047 526.973 430.096C526.973 430.145 526.973 430.194 526.973 430.243C526.973 430.292 526.973 430.341 526.973 430.39C526.973 430.439 526.973 430.488 526.973 430.537C526.973 430.586 526.973 430.635 526.973 430.684C526.973 430.733 526.973 430.782 526.973 430.831C526.973 430.88 526.973 430.929 526.973 430.978C526.973 431.027 526.973 431.077 526.973 431.126C526.973 431.175 526.973 431.224 526.973 431.273C526.973 431.322 526.973 431.371 526.973 431.42C526.973 431.469 526.973 431.518 526.973 431.567C526.973 431.616 526.973 431.665 526.973 431.714C526.973 431.763 526.973 431.812 526.973 431.861C526.973 431.91 526.973 431.959 526.973 432.008C526.973 432.057 526.973 432.106 526.973 432.155C526.973 432.204 526.973 432.253 526.973 432.302C526.973 432.351 526.973 432.399 526.973 432.448C526.973 432.497 526.973 432.546 526.973 432.595C526.973 432.644 526.973 432.693 526.973 432.742C526.973 432.791 526.973 432.84 526.973 432.889C526.973 432.938 526.973 432.986 526.973 433.035C526.973 433.084 526.973 433.133 526.973 433.182C526.973 433.231 526.973 433.28 526.973 433.329C526.973 433.377 526.973 433.426 526.973 433.475C526.973 433.524 526.973 433.573 526.973 433.621C526.973 433.67 526.973 433.719 526.973 433.768C526.973 433.816 526.973 433.865 526.973 433.914C526.973 433.963 526.973 434.011 526.973 434.06C526.973 434.109 526.973 434.158 526.973 434.206C526.973 434.255 526.973 434.304 526.973 434.352C526.973 434.401 526.973 434.45 526.973 434.498C526.973 434.547 526.973 434.595 526.973 434.644C526.973 434.693 526.973 434.741 526.973 434.79C526.973 434.838 526.973 434.887 526.973 434.935C526.973 434.984 526.973 435.032 526.973 435.081C526.973 435.129 526.973 435.178 526.973 435.226C526.973 435.275 526.973 435.323 526.973 435.372C526.973 435.42 526.973 435.468 526.973 435.517C526.973 435.565 526.973 435.614 526.973 435.662C526.973 435.71 526.973 435.759 526.973 435.807C526.973 435.855 526.973 435.903 526.973 435.952C526.973 436 526.973 436.048 526.973 436.096C526.973 436.145 526.973 436.193 526.973 436.241C526.973 436.289 526.973 436.337 526.973 436.385C526.973 436.434 526.973 436.482 526.973 436.53C526.973 436.578 526.973 436.626 526.973 436.674C526.973 436.722 526.973 436.77 526.973 436.818C526.973 436.866 526.973 436.914 526.973 436.962C526.973 437.01 526.973 437.058 526.973 437.106C526.973 437.153 526.973 437.201 526.973 437.249C526.973 437.297 526.973 437.345 526.973 437.392C526.973 437.44 526.973 437.488 526.973 437.536C526.973 437.583 526.973 437.631 526.973 437.679C526.973 437.726 526.973 437.774 526.973 437.822C526.973 437.869 526.973 437.917 526.973 437.964C526.973 438.012 526.973 438.06 526.973 438.107C526.973 438.154 526.973 438.202 526.973 438.249C526.973 438.297 526.973 438.344 526.973 438.392C526.973 438.439 526.973 438.486 526.973 438.534C526.973 438.581 526.973 438.628 526.973 438.675C526.973 438.723 526.973 438.77 526.973 438.817C526.973 438.864 526.973 438.911 526.973 438.958C526.973 439.006 526.973 439.053 526.973 439.1C526.973 439.147 526.973 439.194 526.973 439.241C526.973 439.288 526.973 439.335 526.973 439.382C526.973 439.428 526.973 439.475 526.973 439.522C526.973 439.569 526.973 439.616 526.973 439.663C526.973 439.709 526.973 439.756 526.973 439.803C526.973 439.849 526.973 439.896 526.973 439.943C526.973 439.989 526.973 440.036 526.973 440.082C526.973 440.129 526.973 440.175 526.973 440.222C526.973 440.268 526.973 440.315 526.973 440.361C526.973 440.408 526.973 440.454 526.973 440.5C526.973 440.547 526.973 440.593 526.973 440.639C526.973 440.685 526.973 440.731 526.973 440.778C526.973 440.824 526.973 440.87 526.973 440.916C526.973 440.962 526.973 441.008 526.973 441.054C526.973 441.1 526.973 441.146 526.973 441.192C526.973 441.238 526.973 441.283 526.973 441.329C526.973 441.375 526.973 441.421 526.973 441.467C526.973 441.512 526.973 441.558 526.973 441.604C526.973 441.649 526.973 441.695 526.973 441.74C526.973 441.786 526.973 441.831 526.973 441.877C526.973 441.922 526.973 441.968 526.973 442.013C526.973 442.058 526.973 442.104 526.973 442.149C526.973 442.194 526.973 442.24 526.973 442.285C526.973 442.33 526.973 442.375 526.973 442.42C526.973 442.465 526.973 442.51 526.973 442.555C526.973 442.6 526.973 442.645 526.973 442.69C526.973 442.735 526.973 442.78 526.973 442.824C526.973 442.869 526.973 442.914 526.973 442.959C526.973 443.003 526.973 443.048 526.973 443.093C526.973 443.137 526.973 443.182 526.973 443.226C526.973 443.271 526.973 443.315 526.973 443.36C526.973 443.404 526.973 443.448 526.973 443.493C526.973 443.537 526.973 443.581 526.973 443.625C526.973 443.669 526.973 443.713 526.973 443.758C526.973 443.802 526.973 443.846 526.973 443.89C526.973 443.934 526.973 443.977 526.973 444.021C526.973 444.065 526.973 444.109 526.973 444.153C526.973 444.196 526.973 444.24 526.973 444.284C526.973 444.327 526.973 444.371 526.973 444.414C526.973 444.458 526.973 444.501 526.973 444.545C526.973 444.588 526.973 444.632 526.973 444.675C526.973 444.718 526.973 444.761 526.973 444.804C526.973 444.848 526.973 444.891 526.973 444.934C526.973 444.977 526.973 445.02 526.973 445.063C526.973 445.106 526.973 445.149 526.973 445.191C526.973 445.234 526.973 445.277 526.973 445.32C526.973 445.362 526.973 445.405 526.973 445.448C526.973 445.49 526.973 445.533 526.973 445.575C526.973 445.618 526.973 445.66 526.973 445.702C526.973 445.745 526.973 445.787 526.973 445.829C526.973 445.871 526.973 445.913 526.973 445.955C526.973 445.998 526.973 446.04 526.973 446.082C526.973 446.123 526.973 446.165 526.973 446.207C526.973 446.249 526.973 446.291 526.973 446.332C526.973 446.374 526.973 446.416 526.973 446.457C526.973 446.499 526.973 446.54 526.973 446.582C526.973 446.623 526.973 446.665 526.973 446.706C526.973 446.747 526.973 446.788 526.973 446.83C526.973 446.871 526.973 446.912 526.973 446.953C526.973 446.994 526.973 447.035 526.973 447.076C526.973 447.117 526.973 447.157 526.973 447.198C526.973 447.239 526.973 447.28 526.973 447.32C526.973 447.361 526.973 447.401 526.973 447.442C526.973 447.482 526.973 447.523 526.973 447.563C526.973 447.603 526.973 447.644 526.973 447.684C526.973 447.724 526.973 447.764 526.973 447.804C526.973 447.844 526.973 447.884 526.973 447.924C526.973 447.964 526.973 448.004 526.973 448.043C526.973 448.083 526.973 448.123 526.973 448.162C526.973 448.202 526.973 448.242 526.973 448.281C526.973 448.32 526.973 448.36 526.973 448.399C526.973 448.438 526.973 448.478 526.973 448.517C526.973 448.556 526.973 448.595 526.973 448.634C526.973 448.673 526.973 448.712 526.973 448.751C526.973 448.79 526.973 448.828 526.973 448.867C526.973 448.906 526.973 448.944 526.973 448.983C526.973 449.022 526.973 449.06 526.973 449.098C526.973 449.137 526.973 449.175 526.973 449.213C526.973 449.252 526.973 449.29 526.973 449.328C526.973 449.366 526.973 449.404 526.973 449.442C526.973 449.48 526.973 449.517 526.973 449.555C526.973 449.593 526.973 449.631 526.973 449.668C526.973 449.706 526.973 449.743 526.973 449.781C526.973 449.818 526.973 449.855 526.973 449.893C526.973 449.93 526.973 449.967 526.973 450.004C526.973 450.041 526.973 450.078 526.973 450.115C526.973 450.152 526.973 450.189 526.973 450.226C526.973 450.263 526.973 450.299 526.973 450.336C526.973 450.372 526.973 450.409 526.973 450.445C526.973 450.482 526.973 450.518 526.973 450.554C526.973 450.591 526.973 450.627 526.973 450.663C526.973 450.699 526.973 450.735 526.973 450.771C526.973 450.807 526.973 450.842 526.973 450.878C526.973 450.914 526.973 450.95 526.973 450.985C526.973 451.021 526.973 451.056 526.973 451.091C526.973 451.127 526.973 451.162 526.973 451.197C526.973 451.232 526.973 451.268 526.973 451.303C526.973 451.338 526.973 451.373 526.973 451.407C526.973 451.442 526.973 451.477 526.973 451.512C526.973 451.546 526.973 451.581 526.973 451.615C526.973 451.65 526.973 451.684 526.973 451.718C526.973 451.753 526.973 451.787 526.973 451.821C526.973 451.855 526.973 451.889 526.973 451.923C526.973 451.957 526.973 451.991 526.973 452.024C526.973 452.058 526.973 452.092 526.973 452.125C526.973 452.159 526.973 452.192 526.973 452.226C526.973 452.259 526.973 452.292 526.973 452.325C526.973 452.359 526.973 452.392 526.973 452.425C526.973 452.458 526.973 452.49 526.973 452.523C526.973 452.556 526.973 452.589 526.973 452.621C526.973 452.654 526.973 452.686 526.973 452.719C526.973 452.751 526.973 452.783 526.973 452.815C526.973 452.848 526.973 452.88 526.973 452.912C526.973 452.944 526.973 452.976 526.973 453.007C526.973 453.039 526.973 453.071 526.973 453.102C526.973 453.134 526.973 453.165 526.973 453.197C526.973 453.228 526.973 453.259 526.973 453.291C526.973 453.322 526.973 453.353 526.973 453.384C526.973 453.415 526.973 453.446 526.973 453.477C526.973 453.507 526.973 453.538 526.973 453.569C526.973 453.599 526.973 453.63 526.973 453.66C526.973 453.69 526.973 453.721 526.973 453.751C526.973 453.781 526.973 453.811 526.973 453.841C526.973 453.871 526.973 453.901 526.973 453.93C526.973 453.96 526.973 453.99 526.973 454.019C526.973 454.049 526.973 454.078 526.973 454.107C526.973 454.137 526.973 454.166 526.973 454.195C526.973 454.224 526.973 454.253 526.973 454.282C526.973 454.311 526.973 454.34 526.973 454.368C526.973 454.397 526.973 454.425 526.973 454.454C526.973 454.482 526.973 454.511 526.973 454.539C526.973 454.567 526.973 454.595 526.973 454.623C526.973 454.651 526.973 454.679 526.973 454.707C526.973 454.735 526.973 454.762 526.973 454.79C526.973 454.817 526.973 454.845 526.973 454.872C526.973 454.9 526.973 454.927 526.973 454.954C526.973 454.981 526.973 455.008 526.973 455.035C526.973 455.062 526.973 455.089 526.973 455.115C526.973 455.142 526.973 455.168 526.973 455.195C526.973 455.221 526.973 455.248 526.973 455.274C526.973 455.3 526.973 455.326 526.973 455.352C526.973 455.378 526.973 455.404 526.973 455.43C526.973 455.455 526.973 455.481 526.973 455.506C526.973 455.532 526.973 455.557 526.973 455.583C526.973 455.608 526.973 455.633 526.973 455.658C526.973 455.683 526.973 455.708 526.973 455.733C526.973 455.758 526.973 455.782 526.973 455.807C526.973 455.831 526.973 455.856 526.973 455.88C526.973 455.905 526.973 455.929 526.973 455.953C526.973 455.977 526.973 456.001 526.973 456.025C526.973 456.049 526.973 456.072 526.973 456.096C526.973 456.119 526.973 456.143 526.973 456.166C526.973 456.19 526.973 456.213 526.973 456.236C526.973 456.259 526.973 456.282 526.973 456.305C526.973 456.328 526.973 456.351 526.973 456.373C526.973 456.396 526.973 456.418 526.973 456.441C526.973 456.463 526.973 456.485 526.973 456.507C526.973 456.53 526.973 456.552 526.973 456.573C526.973 456.595 526.973 456.617 526.973 456.639C526.973 456.66 526.973 456.682 526.973 456.703C526.973 456.725 526.973 456.746 526.973 456.767C526.973 456.788 526.973 456.809 526.973 456.83H529.973ZM239.393 429.695C231.227 427.069 223.103 424.524 217.021 422.637C213.98 421.694 211.449 420.914 209.679 420.37C208.793 420.098 208.098 419.886 207.624 419.741C207.386 419.668 207.205 419.613 207.082 419.575C207.021 419.556 206.974 419.542 206.943 419.533C206.928 419.528 206.916 419.524 206.908 419.522C206.904 419.521 206.901 419.52 206.899 419.519C206.898 419.519 206.897 419.519 206.897 419.519C206.897 419.519 206.896 419.518 206.896 419.518C206.896 419.518 206.896 419.518 206.459 420.953C206.022 422.388 206.022 422.388 206.022 422.388C206.022 422.388 206.022 422.388 206.023 422.388C206.023 422.389 206.024 422.389 206.025 422.389C206.027 422.39 206.03 422.391 206.033 422.392C206.041 422.394 206.053 422.398 206.068 422.402C206.099 422.412 206.146 422.426 206.207 422.445C206.329 422.482 206.51 422.537 206.746 422.609C207.22 422.754 207.914 422.967 208.798 423.238C210.566 423.781 213.094 424.56 216.132 425.502C222.208 427.388 230.322 429.929 238.474 432.551L239.393 429.695ZM206.459 420.953C204.961 421.039 204.961 421.039 204.961 421.039C204.961 421.039 204.961 421.04 204.961 421.04C204.962 421.041 204.962 421.043 204.962 421.045C204.962 421.05 204.962 421.057 204.963 421.066C204.964 421.085 204.966 421.112 204.968 421.148C204.972 421.221 204.978 421.329 204.986 421.47C205.002 421.753 205.025 422.169 205.055 422.702C205.114 423.77 205.199 425.307 205.302 427.187C205.506 430.948 205.778 436.079 206.05 441.563C206.595 452.549 207.138 464.891 207.138 470.49L210.138 470.49C210.138 464.8 209.59 452.374 209.046 441.414C208.774 435.924 208.501 430.788 208.297 427.025C208.195 425.143 208.11 423.604 208.05 422.535C208.02 422.001 207.997 421.584 207.981 421.301C207.973 421.16 207.967 421.051 207.963 420.978C207.961 420.942 207.959 420.914 207.958 420.896C207.958 420.887 207.957 420.88 207.957 420.875C207.957 420.873 207.957 420.871 207.957 420.87C207.957 420.869 207.957 420.869 207.957 420.868C207.957 420.868 207.957 420.868 206.459 420.953ZM207.138 470.49C207.138 476.064 206.556 484.115 204.676 490.824C203.734 494.184 202.495 497.103 200.918 499.203C199.359 501.279 197.55 502.457 195.411 502.62L195.639 505.612C198.886 505.364 201.409 503.546 203.317 501.004C205.209 498.486 206.574 495.167 207.565 491.634C209.548 484.557 210.138 476.205 210.138 470.49L207.138 470.49ZM195.411 502.62C193.565 502.761 191.584 501.448 189.532 498.525C187.536 495.683 185.784 491.747 184.331 487.68C182.886 483.633 181.767 479.55 181.009 476.47C180.631 474.932 180.344 473.649 180.151 472.753C180.055 472.304 179.983 471.953 179.935 471.715C179.911 471.596 179.893 471.505 179.881 471.445C179.875 471.414 179.87 471.392 179.867 471.377C179.866 471.37 179.865 471.364 179.864 471.361C179.864 471.359 179.864 471.358 179.864 471.357C179.864 471.357 179.864 471.357 179.864 471.357C179.864 471.357 179.864 471.357 178.39 471.638C176.917 471.92 176.917 471.92 176.917 471.921C176.917 471.921 176.917 471.922 176.917 471.922C176.918 471.924 176.918 471.925 176.918 471.928C176.919 471.932 176.921 471.939 176.922 471.948C176.926 471.965 176.93 471.99 176.937 472.023C176.95 472.088 176.969 472.185 176.994 472.309C177.044 472.558 177.119 472.921 177.218 473.382C177.416 474.303 177.71 475.616 178.096 477.187C178.868 480.324 180.014 484.514 181.506 488.689C182.991 492.845 184.85 497.079 187.076 500.249C189.246 503.339 192.1 505.881 195.639 505.612L195.411 502.62ZM206.873 419.512L177.172 410.982L176.344 413.866L206.045 422.395L206.873 419.512ZM176.758 412.424C177.185 410.986 177.185 410.986 177.185 410.986C177.185 410.986 177.184 410.986 177.184 410.985C177.183 410.985 177.182 410.985 177.18 410.984C177.177 410.984 177.173 410.982 177.167 410.98C177.155 410.977 177.137 410.972 177.114 410.965C177.067 410.951 176.997 410.93 176.906 410.903C176.724 410.85 176.456 410.771 176.11 410.67C175.419 410.468 174.418 410.177 173.179 409.821C170.701 409.11 167.267 408.139 163.443 407.101C155.816 405.031 146.574 402.676 140.295 401.596L139.786 404.552C145.909 405.605 155.026 407.925 162.657 409.996C166.463 411.029 169.883 411.996 172.351 412.705C173.585 413.059 174.581 413.348 175.268 413.549C175.612 413.65 175.878 413.728 176.058 413.781C176.148 413.808 176.217 413.828 176.263 413.841C176.286 413.848 176.303 413.853 176.314 413.857C176.32 413.858 176.325 413.86 176.327 413.861C176.329 413.861 176.33 413.861 176.331 413.862C176.331 413.862 176.331 413.862 176.331 413.862C176.331 413.862 176.331 413.862 176.758 412.424ZM178.39 471.638C179.873 471.413 179.873 471.413 179.873 471.413C179.873 471.413 179.873 471.412 179.873 471.412C179.873 471.411 179.873 471.409 179.872 471.407C179.872 471.403 179.871 471.396 179.869 471.387C179.867 471.369 179.862 471.341 179.857 471.305C179.846 471.232 179.83 471.122 179.809 470.979C179.767 470.691 179.706 470.264 179.63 469.714C179.477 468.613 179.263 467.017 179.02 465.037C178.533 461.076 177.929 455.586 177.459 449.472C176.513 437.186 176.127 422.578 178.225 412.737L175.291 412.111C173.093 422.419 173.522 437.417 174.467 449.702C174.942 455.873 175.552 461.409 176.042 465.402C176.288 467.4 176.503 469.012 176.658 470.127C176.735 470.684 176.797 471.117 176.84 471.411C176.862 471.558 176.878 471.67 176.89 471.746C176.895 471.784 176.9 471.813 176.903 471.833C176.904 471.843 176.905 471.85 176.906 471.855C176.906 471.858 176.907 471.86 176.907 471.861C176.907 471.862 176.907 471.862 176.907 471.863C176.907 471.863 176.907 471.863 178.39 471.638ZM529.973 456.83V402.008H526.973V456.83H529.973Z" fill="black"/>
</svg>
