<svg width="700" height="900" viewBox="0 0 700 900" fill="none" xmlns="http://www.w3.org/2000/svg">
<path d="M190.373 468.188C193.763 453.087 198.871 441.255 198.871 441.255C198.871 441.255 208.893 447.67 220.04 448.068C231.186 448.467 235.471 445.992 243.66 439.178C249.128 434.627 250.246 427.435 250.982 422.698C251.348 420.342 251.619 418.593 252.285 418.079C252.926 417.584 254.987 418.666 258.153 420.329C264.894 423.868 276.646 430.038 290.369 429.225C310.539 428.031 323.175 416.97 329.131 405.383C335.088 393.795 334.735 377.289 333.484 373.033C332.91 371.082 334.539 373.426 336.83 376.817L337.297 377.509C339.943 381.43 343.287 386.385 345.194 387.868C348.925 390.77 355.354 395.717 368.437 396.397C381.521 397.076 392.08 390.757 399.956 379.164C399.601 387.344 403.558 395.913 406.529 402.043C409.499 408.174 412.671 412.116 419.808 418.233C426.944 424.35 437.839 424.45 449.86 424.554C457.86 424.623 466.865 418.836 472.443 415.251C475.247 413.449 477.185 412.204 477.694 412.539C478.527 413.088 478.705 416.565 478.918 420.74C479.093 424.177 479.293 428.087 479.902 431.23C481.253 438.19 485.68 444.143 490.097 448.561C494.515 452.979 502.332 458.586 513.036 457.567C523.741 456.547 529.348 453.319 529.348 453.319C530.339 460.285 534.708 483.407 532.669 503.287C532.669 511.126 531.848 530.906 534.291 535.646C536.33 539.604 543.668 546.547 546.832 562.046C547.458 565.111 547.92 568.512 548.146 572.29C549.37 592.775 531.782 607.905 516.376 619.091C516.376 619.091 573.875 616.115 581.949 584.289C590.022 552.462 555.47 556.962 553.308 553.23C551.147 549.497 604.878 525.592 601.976 485.707C599.074 445.821 566.79 433.009 558.97 436.633C551.15 440.257 569.26 424.554 558.97 410.249C548.681 395.945 530.476 406.001 536.28 398.64C542.085 391.28 562.853 349.039 546.57 321.336C530.287 293.633 499.64 285.479 472.443 290.003C445.246 294.526 433.606 306.691 432.922 309.446C432.238 312.2 432.923 282.024 404.626 277.011C376.329 271.999 366.774 291.706 363.995 295.744C361.216 299.782 326.794 239.019 264.264 259.07C201.735 279.122 202.165 339.243 205 341.849C207.836 344.455 183.353 328.295 167.645 338.851C151.937 349.407 157.493 369.433 159.1 371.147C160.707 372.861 126.277 361.234 113.613 396.397C100.949 431.559 129.203 452.831 132.738 452.419C135.617 452.084 105.65 457.984 98.893 495.747C92.1362 533.511 125.994 558.405 124.385 558.244C122.775 558.083 100.16 565.466 107.791 601.138C115.422 636.81 209.655 618.485 209.655 618.485C198.465 611.867 191.088 604.799 185.42 600.161C174.391 591.137 165.552 578.374 167.645 557.866C167.722 557.112 167.812 556.375 167.913 555.655C170.568 536.805 181.225 529.58 181.409 523.501C181.499 520.55 186.984 483.289 190.373 468.188Z" fill="#FFF3F3"/>
<path d="M198.871 441.255C198.871 441.255 193.763 453.087 190.373 468.188C186.984 483.289 181.499 520.55 181.409 523.501C181.225 529.58 170.568 536.805 167.913 555.655C167.812 556.375 167.722 557.112 167.645 557.866C165.552 578.374 174.391 591.137 185.42 600.161C191.088 604.799 198.465 611.867 209.655 618.485C220.239 624.745 234.234 630.601 253.421 633.614C292.89 639.813 326.343 646.649 368.183 644.644C410.022 642.639 421.884 641.271 433.706 640.591C445.529 639.912 494.779 634.34 511.096 622.854C512.803 621.652 514.575 620.398 516.376 619.091C531.782 607.905 549.37 592.775 548.146 572.29C547.92 568.512 547.458 565.111 546.832 562.046C543.668 546.547 536.33 539.604 534.291 535.646C531.848 530.906 532.669 511.126 532.669 503.287C534.708 483.407 530.339 460.285 529.348 453.319C529.348 453.319 523.741 456.547 513.036 457.567C502.332 458.586 494.515 452.979 490.097 448.561C485.68 444.143 481.253 438.19 479.902 431.23C479.293 428.087 479.093 424.177 478.918 420.74C478.705 416.565 478.527 413.088 477.694 412.539C477.185 412.204 475.247 413.449 472.443 415.251C466.865 418.836 457.86 424.623 449.86 424.554C437.839 424.45 426.944 424.35 419.808 418.233C412.671 412.116 409.499 408.174 406.529 402.043C403.558 395.913 399.601 387.344 399.956 379.164C392.08 390.757 381.521 397.076 368.437 396.397C355.354 395.717 348.925 390.77 345.194 387.868C343.287 386.385 339.943 381.43 337.297 377.509L336.83 376.817C334.539 373.426 332.91 371.082 333.484 373.033C334.735 377.289 335.088 393.795 329.131 405.383C323.175 416.97 310.539 428.031 290.369 429.225C276.646 430.038 264.894 423.868 258.153 420.329C254.987 418.666 252.926 417.584 252.285 418.079C251.619 418.593 251.348 420.342 250.982 422.698C250.246 427.435 249.128 434.627 243.66 439.178C235.471 445.992 231.186 448.467 220.04 448.068C208.893 447.67 198.871 441.255 198.871 441.255Z" fill="#FFF9EC"/>
<path d="M195.897 431.294C195.75 430.478 194.97 429.936 194.155 430.083C193.34 430.23 192.798 431.01 192.945 431.825L195.897 431.294ZM243.66 439.178L242.7 438.025L242.7 438.025L243.66 439.178ZM252.285 418.079L251.368 416.892L251.368 416.892L252.285 418.079ZM290.369 429.225L290.458 430.723L290.458 430.723L290.369 429.225ZM333.484 373.033L332.045 373.456L332.045 373.456L333.484 373.033ZM345.194 387.868L346.115 386.684L346.115 386.684L345.194 387.868ZM402.083 373.148C402.147 372.322 401.529 371.601 400.703 371.538C399.877 371.474 399.156 372.092 399.092 372.918L402.083 373.148ZM449.86 424.554L449.873 423.054L449.873 423.054L449.86 424.554ZM477.694 412.539L476.868 413.792L476.868 413.792L477.694 412.539ZM479.902 431.23L481.375 430.944L481.375 430.944L479.902 431.23ZM538.796 447.518C539.346 446.898 539.289 445.95 538.669 445.4C538.05 444.85 537.102 444.907 536.552 445.527L538.796 447.518ZM532.669 503.287L531.177 503.134L531.169 503.21V503.287H532.669ZM132.738 452.419L132.565 450.929L132.738 452.419ZM250.982 422.698L252.464 422.928L252.464 422.928L250.982 422.698ZM258.153 420.329L257.456 421.657L257.456 421.657L258.153 420.329ZM337.297 377.509L338.54 376.669L338.54 376.669L337.297 377.509ZM472.443 415.251L473.254 416.513L473.254 416.513L472.443 415.251ZM478.918 420.74L480.416 420.664L480.416 420.664L478.918 420.74ZM253.421 633.614L253.653 632.133L253.653 632.133L253.421 633.614ZM185.42 600.161L186.37 599L186.37 599L185.42 600.161ZM167.645 557.866L166.153 557.714L166.153 557.714L167.645 557.866ZM534.291 535.646L532.958 536.334L532.958 536.334L534.291 535.646ZM548.146 572.29L546.649 572.38L546.649 572.38L548.146 572.29ZM511.096 622.854L511.959 624.081L511.096 622.854ZM181.409 523.501L182.909 523.547L182.909 523.547L181.409 523.501ZM167.913 555.655L169.399 555.864L169.399 555.864L167.913 555.655ZM546.832 562.046L548.302 561.746L548.302 561.746L546.832 562.046ZM191.837 468.516C193.516 461.038 195.621 454.362 197.309 449.555C198.152 447.153 198.889 445.22 199.415 443.891C199.678 443.226 199.888 442.713 200.031 442.367C200.103 442.194 200.158 442.063 200.194 441.976C200.213 441.932 200.227 441.9 200.236 441.879C200.24 441.868 200.244 441.86 200.246 441.855C200.247 441.853 200.248 441.851 200.248 441.85C200.248 441.85 200.248 441.849 200.248 441.849C200.249 441.849 200.249 441.849 200.249 441.849C200.248 441.849 200.248 441.849 198.871 441.255C197.494 440.66 197.494 440.66 197.494 440.66C197.494 440.661 197.494 440.661 197.494 440.661C197.493 440.662 197.493 440.662 197.493 440.663C197.492 440.665 197.491 440.668 197.489 440.671C197.487 440.678 197.483 440.687 197.477 440.699C197.467 440.724 197.452 440.76 197.432 440.806C197.392 440.9 197.334 441.038 197.259 441.218C197.11 441.578 196.894 442.107 196.625 442.788C196.087 444.149 195.336 446.118 194.478 448.561C192.764 453.446 190.621 460.237 188.91 467.859L191.837 468.516ZM199.71 440.011C199.223 439.683 198.7 439.052 198.187 438.133C197.686 437.236 197.26 436.182 196.913 435.15C196.568 434.123 196.312 433.153 196.143 432.437C196.059 432.08 195.996 431.789 195.955 431.59C195.935 431.49 195.92 431.413 195.91 431.363C195.905 431.338 195.902 431.319 195.9 431.307C195.899 431.301 195.898 431.297 195.897 431.295C195.897 431.294 195.897 431.293 195.897 431.293C195.897 431.293 195.897 431.293 195.897 431.293C195.897 431.293 195.897 431.293 195.897 431.293C195.897 431.293 195.897 431.294 194.421 431.559C192.945 431.825 192.945 431.825 192.945 431.826C192.945 431.826 192.945 431.826 192.945 431.827C192.945 431.827 192.945 431.828 192.945 431.829C192.946 431.83 192.946 431.832 192.946 431.835C192.947 431.84 192.949 431.847 192.95 431.855C192.953 431.872 192.958 431.897 192.964 431.928C192.976 431.99 192.993 432.079 193.016 432.192C193.063 432.417 193.131 432.738 193.224 433.128C193.408 433.905 193.687 434.969 194.07 436.106C194.45 437.238 194.945 438.479 195.567 439.595C196.177 440.688 196.98 441.788 198.032 442.498L199.71 440.011ZM198.871 441.255C198.063 442.518 198.063 442.518 198.063 442.518C198.063 442.518 198.064 442.519 198.064 442.519C198.065 442.519 198.066 442.52 198.067 442.521C198.069 442.522 198.071 442.524 198.075 442.526C198.081 442.53 198.09 442.535 198.101 442.542C198.124 442.557 198.156 442.577 198.198 442.602C198.28 442.654 198.401 442.727 198.556 442.82C198.867 443.005 199.318 443.266 199.893 443.58C201.042 444.207 202.687 445.044 204.69 445.893C208.679 447.585 214.161 449.359 219.986 449.567L220.093 446.569C214.773 446.379 209.67 444.747 205.861 443.131C203.965 442.327 202.409 441.535 201.33 440.947C200.791 440.652 200.372 440.41 200.091 440.242C199.951 440.159 199.845 440.094 199.776 440.051C199.741 440.03 199.716 440.014 199.7 440.004C199.692 439.999 199.686 439.995 199.683 439.993C199.681 439.992 199.68 439.991 199.68 439.991C199.679 439.991 199.679 439.991 199.679 439.991C199.679 439.991 199.68 439.991 199.68 439.991C199.68 439.991 199.68 439.991 198.871 441.255ZM219.986 449.567C225.678 449.771 229.769 449.246 233.525 447.717C237.247 446.201 240.519 443.743 244.619 440.331L242.7 438.025C238.612 441.427 235.648 443.613 232.393 444.938C229.173 446.25 225.548 446.764 220.093 446.569L219.986 449.567ZM290.458 430.723C311.2 429.495 324.287 418.088 330.465 406.068L327.797 404.697C322.063 415.852 309.878 426.568 290.28 427.728L290.458 430.723ZM330.465 406.068C333.568 400.033 334.997 392.793 335.505 386.581C336.011 380.411 335.626 375.003 334.923 372.61L332.045 373.456C332.592 375.32 333.01 380.292 332.515 386.336C332.024 392.338 330.651 399.145 327.797 404.697L330.465 406.068ZM344.273 389.052C348.118 392.043 354.84 397.192 368.36 397.895L368.515 394.899C355.868 394.242 349.732 389.497 346.115 386.684L344.273 389.052ZM368.36 397.895C382.075 398.607 393.093 391.937 401.197 380.007L398.715 378.321C391.068 389.578 380.967 395.545 368.515 394.899L368.36 397.895ZM399.956 379.164C401.446 379.332 401.446 379.332 401.446 379.332C401.446 379.332 401.446 379.332 401.446 379.332C401.446 379.331 401.446 379.331 401.447 379.331C401.447 379.33 401.447 379.33 401.447 379.328C401.447 379.326 401.447 379.323 401.448 379.319C401.449 379.31 401.45 379.297 401.452 379.28C401.456 379.247 401.461 379.198 401.469 379.134C401.483 379.008 401.503 378.826 401.528 378.602C401.577 378.154 401.645 377.54 401.716 376.875C401.858 375.552 402.018 373.996 402.083 373.148L399.092 372.918C399.031 373.713 398.876 375.223 398.733 376.555C398.662 377.216 398.595 377.827 398.546 378.272C398.521 378.495 398.501 378.676 398.487 378.801C398.48 378.864 398.475 378.913 398.471 378.946C398.469 378.962 398.468 378.975 398.467 378.983C398.466 378.988 398.466 378.991 398.466 378.993C398.466 378.994 398.465 378.995 398.465 378.995C398.465 378.995 398.465 378.996 398.465 378.996C398.465 378.996 398.465 378.996 398.465 378.996C398.465 378.996 398.465 378.996 399.956 379.164ZM398.457 379.099C398.084 387.715 402.232 396.616 405.179 402.697L407.879 401.389C404.884 395.209 401.119 386.974 401.454 379.229L398.457 379.099ZM405.179 402.697C408.263 409.062 411.586 413.161 418.831 419.371L420.784 417.094C413.757 411.071 410.736 407.286 407.879 401.389L405.179 402.697ZM418.831 419.371C422.692 422.68 427.505 424.304 432.77 425.13C438.018 425.953 443.864 426.002 449.847 426.054L449.873 423.054C443.835 423.002 438.223 422.949 433.235 422.166C428.262 421.387 424.06 419.902 420.784 417.094L418.831 419.371ZM478.43 431.515C479.863 438.9 484.527 445.112 489.037 449.622L491.158 447.501C486.832 443.175 482.643 437.48 481.375 430.944L478.43 431.515ZM489.037 449.622C493.601 454.187 501.835 460.14 513.178 459.06L512.894 456.074C502.828 457.032 495.429 451.772 491.158 447.501L489.037 449.622ZM513.178 459.06C518.656 458.538 522.848 457.45 525.691 456.48C527.112 455.996 528.194 455.541 528.931 455.202C529.3 455.033 529.582 454.892 529.776 454.791C529.874 454.741 529.949 454.701 530.002 454.671C530.029 454.657 530.05 454.645 530.066 454.636C530.074 454.632 530.08 454.628 530.085 454.625C530.088 454.624 530.09 454.622 530.092 454.621C530.093 454.621 530.094 454.62 530.095 454.62C530.095 454.62 530.095 454.619 530.096 454.619C530.096 454.619 530.097 454.619 529.348 453.319C528.6 452.019 528.6 452.019 528.6 452.018C528.601 452.018 528.601 452.018 528.601 452.018C528.602 452.018 528.602 452.018 528.602 452.018C528.603 452.017 528.603 452.017 528.603 452.017C528.602 452.017 528.6 452.018 528.597 452.02C528.591 452.024 528.58 452.03 528.563 452.039C528.529 452.058 528.473 452.088 528.396 452.128C528.242 452.207 528.003 452.327 527.678 452.476C527.029 452.775 526.041 453.191 524.722 453.641C522.085 454.54 518.121 455.576 512.894 456.074L513.178 459.06ZM530.203 454.551C533.239 452.445 535.367 450.709 536.746 449.489C537.436 448.878 537.938 448.397 538.273 448.063C538.441 447.895 538.567 447.765 538.653 447.673C538.696 447.627 538.729 447.591 538.753 447.565C538.765 447.552 538.775 447.542 538.782 447.534C538.785 447.53 538.788 447.527 538.791 447.524C538.792 447.522 538.793 447.521 538.794 447.52C538.794 447.52 538.795 447.519 538.795 447.519C538.795 447.519 538.796 447.518 538.796 447.518C538.796 447.518 538.796 447.518 537.674 446.522C536.552 445.527 536.552 445.527 536.552 445.526C536.552 445.526 536.553 445.526 536.553 445.526C536.553 445.526 536.553 445.525 536.553 445.525C536.554 445.525 536.554 445.525 536.554 445.525C536.554 445.524 536.554 445.525 536.553 445.526C536.55 445.528 536.546 445.533 536.539 445.541C536.526 445.556 536.503 445.58 536.47 445.615C536.404 445.685 536.3 445.794 536.154 445.939C535.861 446.231 535.403 446.671 534.758 447.242C533.469 448.383 531.434 450.046 528.493 452.087L530.203 454.551ZM527.863 453.53C528.869 460.605 533.192 483.486 531.177 503.134L534.161 503.44C536.224 483.327 531.808 459.966 530.833 453.108L527.863 453.53ZM583.402 584.657C585.48 576.467 584.873 570.378 582.514 565.842C580.159 561.312 576.188 558.581 572.048 556.841C567.923 555.108 563.497 554.303 560.09 553.704C558.35 553.399 556.931 553.156 555.869 552.879C555.341 552.741 554.972 552.612 554.731 552.495C554.463 552.365 554.52 552.329 554.606 552.478L552.01 553.981C552.367 554.597 552.947 554.964 553.419 555.193C553.918 555.436 554.505 555.624 555.112 555.782C556.322 556.098 557.894 556.365 559.571 556.659C562.999 557.261 567.111 558.021 570.885 559.607C574.644 561.187 577.932 563.532 579.853 567.226C581.77 570.914 582.454 576.197 580.495 583.92L583.402 584.657ZM554.606 552.478C554.961 553.09 554.513 553.506 554.758 553.157C554.922 552.923 555.272 552.553 555.88 552.026C557.076 550.99 558.926 549.637 561.288 547.929C565.966 544.547 572.452 539.919 578.919 534.145C591.797 522.646 604.976 506.274 603.472 485.598L600.48 485.816C601.878 505.025 589.642 520.548 576.921 531.907C570.588 537.561 564.228 542.102 559.53 545.498C557.204 547.179 555.233 548.618 553.916 549.759C553.267 550.321 552.687 550.886 552.303 551.432C552 551.863 551.386 552.903 552.01 553.981L554.606 552.478ZM603.472 485.598C601.99 465.23 592.986 451.682 583.27 443.695C578.424 439.712 573.396 437.108 569.032 435.732C566.85 435.045 564.808 434.656 563.019 434.567C561.252 434.479 559.621 434.678 558.34 435.272L559.601 437.994C560.274 437.682 561.363 437.488 562.87 437.563C564.354 437.637 566.14 437.966 568.13 438.593C572.109 439.847 576.799 442.26 581.365 446.012C590.47 453.497 599.06 466.298 600.48 485.816L603.472 485.598ZM558.34 435.272C557.881 435.485 557.583 435.595 557.405 435.643C557.15 435.711 557.359 435.594 557.709 435.736C557.945 435.831 558.171 436.016 558.313 436.276C558.438 436.505 558.448 436.7 558.448 436.767C558.448 436.866 558.428 436.835 558.526 436.57C558.708 436.076 559.069 435.357 559.588 434.322C560.087 433.326 560.689 432.117 561.274 430.757C563.597 425.36 565.81 417.19 560.188 409.373L557.753 411.125C562.42 417.614 560.723 424.447 558.519 429.572C557.972 430.843 557.404 431.984 556.906 432.978C556.428 433.931 555.966 434.84 555.711 435.532C555.59 435.861 555.447 436.312 555.448 436.773C555.449 437.021 555.49 437.366 555.68 437.715C555.888 438.094 556.212 438.367 556.585 438.517C557.209 438.769 557.84 438.632 558.184 438.54C558.605 438.426 559.083 438.234 559.601 437.994L558.34 435.272ZM560.188 409.373C554.633 401.651 546.912 400.542 541.647 400.342C540.365 400.293 539.128 400.297 538.229 400.277C537.234 400.254 536.661 400.201 536.361 400.111C536.223 400.07 536.319 400.069 536.45 400.213C536.631 400.414 536.673 400.656 536.662 400.789C536.656 400.859 536.645 400.796 536.781 400.547C536.909 400.314 537.123 399.994 537.458 399.569L535.102 397.712C534.712 398.207 534.388 398.671 534.15 399.106C533.92 399.526 533.715 400.016 533.672 400.543C533.623 401.133 533.784 401.737 534.224 402.225C534.614 402.657 535.111 402.868 535.498 402.984C536.25 403.21 537.229 403.255 538.162 403.276C539.191 403.299 540.259 403.291 541.533 403.34C546.492 403.528 553.018 404.543 557.753 411.125L560.188 409.373ZM537.458 399.569C540.522 395.684 547.241 383.079 551.16 367.994C555.077 352.918 556.308 334.944 547.863 320.576L545.277 322.096C553.115 335.431 552.104 352.429 548.256 367.24C544.411 382.041 537.843 394.236 535.102 397.712L537.458 399.569ZM547.863 320.576C531.176 292.186 499.812 283.93 472.197 288.523L472.689 291.482C499.468 287.028 529.397 295.08 545.277 322.096L547.863 320.576ZM472.197 288.523C458.417 290.815 448.522 295.052 441.952 299.111C438.67 301.139 436.208 303.128 434.505 304.816C433.655 305.66 432.981 306.441 432.485 307.127C432.015 307.778 431.622 308.457 431.467 309.084L434.378 309.807C434.378 309.808 434.384 309.784 434.405 309.733C434.426 309.683 434.457 309.616 434.502 309.532C434.593 309.362 434.728 309.145 434.918 308.883C435.296 308.359 435.856 307.702 436.617 306.947C438.139 305.438 440.416 303.587 443.529 301.664C449.749 297.821 459.272 293.714 472.689 291.482L472.197 288.523ZM431.467 309.084C431.463 309.098 431.468 309.073 431.486 309.027C431.492 309.011 431.553 308.836 431.709 308.648C431.872 308.453 432.456 307.919 433.302 308.197C433.873 308.385 434.101 308.838 434.114 308.861C434.206 309.028 434.224 309.152 434.2 309.052C434.189 309.003 434.171 308.919 434.147 308.785C434.065 308.321 433.897 307.194 433.666 305.967C433.18 303.385 432.29 299.592 430.501 295.536C426.907 287.387 419.657 278.151 404.887 275.534L404.364 278.488C417.891 280.885 424.447 289.243 427.756 296.747C429.419 300.516 430.255 304.065 430.718 306.522C430.961 307.816 431.073 308.633 431.194 309.312C431.221 309.463 431.25 309.614 431.282 309.748C431.302 309.83 431.36 310.082 431.492 310.32C431.524 310.378 431.772 310.852 432.363 311.046C433.227 311.331 433.831 310.789 434.013 310.57C434.19 310.358 434.27 310.145 434.297 310.075C434.334 309.974 434.36 309.879 434.378 309.807L431.467 309.084ZM404.887 275.534C390.322 272.954 380.434 276.734 373.829 281.793C367.31 286.786 364.042 293.029 362.759 294.894L365.23 296.594C366.726 294.421 369.626 288.791 375.653 284.174C381.595 279.623 390.632 276.056 404.364 278.488L404.887 275.534ZM362.759 294.894C362.943 294.626 363.269 294.447 363.601 294.438C363.824 294.432 363.913 294.507 363.796 294.446C363.571 294.33 363.156 294.019 362.498 293.406C361.212 292.211 359.45 290.306 357.118 287.862C352.506 283.029 345.914 276.36 337.417 270.188C320.398 257.827 295.665 247.425 263.806 257.642L264.722 260.499C295.392 250.664 319.136 260.618 335.654 272.616C343.927 278.624 350.369 285.135 354.947 289.933C357.21 292.304 359.082 294.327 360.455 295.604C361.126 296.227 361.796 296.788 362.412 297.108C362.714 297.265 363.162 297.451 363.683 297.437C364.311 297.419 364.872 297.115 365.23 296.594L362.759 294.894ZM263.806 257.642C232.064 267.821 216.232 288.218 208.733 306.431C204.992 315.518 203.326 324.056 202.776 330.508C202.502 333.732 202.504 336.458 202.673 338.491C202.758 339.503 202.886 340.376 203.054 341.066C203.138 341.41 203.24 341.74 203.365 342.032C203.479 342.296 203.667 342.661 203.985 342.953L206.015 340.744C206.157 340.874 206.172 340.964 206.121 340.846C206.083 340.757 206.028 340.599 205.969 340.354C205.85 339.868 205.739 339.162 205.663 338.242C205.51 336.409 205.502 333.855 205.765 330.762C206.292 324.582 207.895 316.348 211.507 307.573C218.717 290.061 233.935 270.371 264.722 260.499L263.806 257.642ZM203.985 342.953C204.064 343.025 204.051 343.021 204.009 342.968C203.998 342.954 203.895 342.827 203.818 342.622C203.756 342.457 203.53 341.698 204.16 341.068C204.635 340.593 205.21 340.638 205.242 340.639C205.381 340.644 205.475 340.67 205.485 340.673C205.519 340.682 205.506 340.681 205.412 340.643C205.029 340.489 204.317 340.147 203.195 339.632C201.031 338.638 197.677 337.162 193.721 335.936C185.905 333.515 175.262 331.925 166.809 337.606L168.482 340.096C175.736 335.221 185.188 336.433 192.833 338.801C196.606 339.97 199.823 341.385 201.943 342.358C202.963 342.827 203.821 343.237 204.296 343.428C204.416 343.476 204.573 343.535 204.729 343.576C204.801 343.595 204.945 343.629 205.122 343.636C205.192 343.639 205.792 343.678 206.281 343.19C206.925 342.546 206.7 341.765 206.628 341.571C206.54 341.336 206.413 341.171 206.366 341.111C206.251 340.966 206.114 340.835 206.015 340.744L203.985 342.953ZM166.809 337.606C158.458 343.218 155.774 351.367 155.382 358.229C155.186 361.653 155.556 364.785 156.083 367.184C156.347 368.383 156.653 369.417 156.957 370.227C157.109 370.632 157.266 370.995 157.425 371.304C157.571 371.588 157.762 371.913 158.006 372.173L160.194 370.121C160.237 370.166 160.197 370.134 160.093 369.932C160.001 369.753 159.889 369.5 159.766 369.172C159.52 368.518 159.251 367.624 159.013 366.54C158.537 364.372 158.199 361.516 158.377 358.4C158.732 352.182 161.125 345.04 168.482 340.096L166.809 337.606ZM158.006 372.173C157.974 372.139 157.839 371.994 157.746 371.747C157.634 371.45 157.575 370.954 157.876 370.473C158.125 370.077 158.474 369.935 158.584 369.896C158.719 369.847 158.819 369.836 158.836 369.835C158.856 369.833 158.726 369.836 158.283 369.79C157.571 369.715 156.168 369.524 154.592 369.377C151.324 369.071 146.631 368.868 141.456 369.75C136.276 370.633 130.588 372.608 125.367 376.675C120.138 380.747 115.454 386.858 112.202 395.888L115.024 396.905C118.104 388.354 122.472 382.732 127.211 379.041C131.957 375.345 137.151 373.527 141.96 372.707C146.776 371.886 151.18 372.071 154.312 372.364C155.935 372.516 157.057 372.678 157.97 372.773C158.339 372.812 158.797 372.855 159.15 372.818C159.251 372.808 159.419 372.784 159.605 372.716C159.766 372.658 160.151 372.493 160.418 372.067C160.737 371.557 160.68 371.026 160.553 370.688C160.444 370.4 160.276 370.208 160.194 370.121L158.006 372.173ZM112.202 395.888C105.693 413.959 109.698 428.541 115.822 438.532C118.873 443.51 122.45 447.35 125.511 449.931C127.04 451.22 128.461 452.213 129.647 452.88C130.238 453.212 130.796 453.478 131.299 453.657C131.754 453.82 132.339 453.976 132.912 453.909L132.565 450.929C132.696 450.914 132.646 450.953 132.305 450.831C132.011 450.727 131.613 450.544 131.117 450.265C130.131 449.71 128.864 448.834 127.444 447.637C124.609 445.247 121.25 441.648 118.38 436.964C112.659 427.632 108.868 413.997 115.024 396.905L112.202 395.888ZM97.4164 495.483C93.9446 514.887 100.922 530.949 108.467 542.06C112.243 547.62 116.178 551.967 119.059 554.907C120.496 556.374 121.682 557.502 122.427 558.228C122.818 558.609 123.047 558.84 123.154 558.965C123.255 559.081 123.124 558.961 123.033 558.723C123.015 558.677 122.719 557.944 123.285 557.27C123.805 556.65 124.516 556.75 124.534 556.752L124.235 559.737C124.303 559.744 125.047 559.837 125.583 559.198C126.165 558.504 125.869 557.74 125.835 557.65C125.71 557.325 125.481 557.069 125.424 557.003C125.216 556.762 124.888 556.438 124.521 556.08C123.749 555.328 122.607 554.242 121.202 552.808C118.398 549.946 114.592 545.739 110.949 540.375C103.658 529.638 97.0845 514.371 100.37 496.012L97.4164 495.483ZM124.534 556.752C124.182 556.717 123.801 556.784 123.535 556.841C123.215 556.909 122.837 557.015 122.416 557.157C121.572 557.443 120.505 557.894 119.316 558.548C116.937 559.859 114.032 562.007 111.44 565.331C106.214 572.033 102.435 583.272 106.324 601.452L109.257 600.824C105.515 583.332 109.229 573.044 113.805 567.176C116.114 564.216 118.688 562.319 120.763 561.176C121.802 560.604 122.706 560.226 123.377 559.999C123.713 559.885 123.979 559.814 124.163 559.774C124.402 559.723 124.386 559.752 124.235 559.737L124.534 556.752ZM244.619 440.331C250.587 435.365 251.741 427.579 252.464 422.928L249.499 422.468C248.75 427.291 247.67 433.889 242.7 438.025L244.619 440.331ZM252.464 422.928C252.651 421.726 252.8 420.775 252.977 420.058C253.065 419.703 253.146 419.463 253.216 419.31C253.293 419.143 253.308 419.184 253.202 419.266L251.368 416.892C250.929 417.231 250.661 417.684 250.488 418.063C250.308 418.456 250.174 418.896 250.065 419.338C249.848 420.213 249.679 421.314 249.499 422.468L252.464 422.928ZM253.202 419.266C252.843 419.544 252.542 419.426 252.77 419.466C252.935 419.495 253.228 419.583 253.691 419.778C254.608 420.163 255.848 420.813 257.456 421.657L258.851 419.001C257.292 418.183 255.918 417.46 254.853 417.012C254.325 416.79 253.785 416.597 253.284 416.51C252.846 416.434 252.048 416.367 251.368 416.892L253.202 419.266ZM257.456 421.657C264.177 425.186 276.27 431.563 290.458 430.723L290.28 427.728C277.022 428.513 265.612 422.551 258.851 419.001L257.456 421.657ZM336.053 378.348C337.373 380.303 338.888 382.548 340.314 384.49C341.7 386.379 343.129 388.162 344.273 389.052L346.115 386.684C345.353 386.091 344.156 384.655 342.732 382.715C341.348 380.829 339.867 378.636 338.54 376.669L336.053 378.348ZM449.847 426.054C454.183 426.091 458.678 424.55 462.706 422.626C466.752 420.694 470.473 418.3 473.254 416.513L471.632 413.989C468.835 415.787 465.265 418.079 461.413 419.919C457.544 421.767 453.537 423.086 449.873 423.054L449.847 426.054ZM473.254 416.513C474.675 415.6 475.809 414.872 476.653 414.408C477.08 414.173 477.36 414.046 477.522 413.993C477.604 413.966 477.591 413.98 477.514 413.984C477.444 413.987 477.17 413.991 476.868 413.792L478.519 411.286C478.09 411.004 477.644 410.973 477.36 410.987C477.068 411.002 476.799 411.072 476.584 411.143C476.152 411.286 475.677 411.52 475.206 411.78C474.252 412.305 473.016 413.1 471.632 413.989L473.254 416.513ZM476.868 413.792C476.69 413.674 476.639 413.557 476.66 413.597C476.676 413.626 476.716 413.713 476.767 413.887C476.87 414.237 476.965 414.757 477.049 415.459C477.217 416.856 477.312 418.71 477.42 420.817L480.416 420.664C480.31 418.596 480.211 416.623 480.028 415.101C479.937 414.343 479.818 413.63 479.646 413.043C479.56 412.749 479.448 412.442 479.293 412.159C479.145 411.887 478.905 411.541 478.519 411.286L476.868 413.792ZM477.42 420.817C477.594 424.223 477.796 428.248 478.43 431.515L481.375 430.944C480.79 427.927 480.593 424.131 480.416 420.664L477.42 420.817ZM338.54 376.669C338.382 376.435 338.226 376.204 338.073 375.977L335.587 377.657C335.74 377.883 335.895 378.113 336.053 378.348L338.54 376.669ZM334.923 372.61C334.857 372.384 334.863 372.35 334.867 372.421C334.868 372.433 334.887 372.672 334.758 372.967C334.684 373.137 334.542 373.367 334.283 373.553C334.014 373.747 333.718 373.821 333.465 373.824C333.04 373.831 332.764 373.645 332.737 373.628C332.666 373.582 332.637 373.551 332.657 373.569C332.692 373.603 332.777 373.693 332.918 373.867C333.488 374.57 334.425 375.937 335.587 377.657L338.073 375.977C336.944 374.306 335.921 372.806 335.247 371.977C335.078 371.768 334.896 371.558 334.716 371.388C334.629 371.306 334.504 371.196 334.351 371.099C334.243 371.03 333.899 370.818 333.42 370.825C333.14 370.829 332.821 370.91 332.532 371.117C332.254 371.317 332.095 371.569 332.008 371.768C331.855 372.119 331.864 372.444 331.871 372.572C331.886 372.875 331.968 373.194 332.045 373.456L334.923 372.61ZM335.587 377.656L336.054 378.348L338.54 376.669L338.073 375.978L335.587 377.656ZM265.233 639.213L265.237 639.214L265.588 636.234L265.584 636.234L265.233 639.213ZM132.912 453.909C133.05 453.893 132.938 453.915 132.779 453.901C132.75 453.898 132.53 453.883 132.28 453.762C132.146 453.699 131.877 453.545 131.67 453.224C131.429 452.848 131.385 452.417 131.478 452.048C131.557 451.737 131.715 451.533 131.792 451.443C131.879 451.342 131.961 451.274 132.006 451.239C132.096 451.169 132.172 451.128 132.194 451.116C132.266 451.077 132.303 451.068 132.195 451.109C132.12 451.137 132.018 451.174 131.874 451.227C131.309 451.433 130.313 451.796 129.015 452.363C126.42 453.496 122.62 455.441 118.513 458.609C110.276 464.963 100.868 476.194 97.4164 495.483L100.37 496.012C103.675 477.537 112.629 466.937 120.345 460.984C124.215 457.999 127.789 456.171 130.215 455.112C131.427 454.583 132.352 454.245 132.901 454.045C133.036 453.996 133.162 453.95 133.261 453.913C133.328 453.888 133.485 453.829 133.62 453.756C133.658 453.735 133.746 453.686 133.844 453.61C133.894 453.571 133.979 453.501 134.069 453.397C134.148 453.304 134.307 453.098 134.387 452.784C134.481 452.413 134.437 451.979 134.194 451.601C133.986 451.279 133.714 451.123 133.578 451.058C133.321 450.935 133.091 450.917 133.049 450.913C132.835 450.894 132.607 450.925 132.565 450.929L132.912 453.909ZM368.111 643.146C326.463 645.142 293.195 638.343 253.653 632.133L253.188 635.096C292.585 641.283 326.224 648.157 368.254 646.142L368.111 643.146ZM186.37 599C175.622 590.206 167.108 577.9 169.137 558.018L166.153 557.714C163.996 578.847 173.159 592.068 184.47 601.322L186.37 599ZM531.169 503.287C531.169 507.119 530.964 514.14 531.064 520.652C531.114 523.927 531.242 527.138 531.515 529.844C531.78 532.473 532.201 534.865 532.958 536.334L535.624 534.959C535.16 534.058 534.767 532.2 534.499 529.543C534.239 526.961 534.114 523.848 534.064 520.606C533.963 514.083 534.169 507.294 534.169 503.287H531.169ZM510.232 621.628C506.354 624.358 500.403 626.804 493.348 628.94C486.324 631.066 478.328 632.849 470.444 634.3C454.672 637.203 439.466 638.758 433.62 639.094L433.793 642.089C439.769 641.745 455.1 640.174 470.987 637.25C478.934 635.788 487.048 633.981 494.217 631.811C501.356 629.65 507.679 627.093 511.959 624.081L510.232 621.628ZM433.62 639.094C421.705 639.779 409.974 641.139 368.111 643.146L368.254 646.142C410.07 644.138 422.062 642.763 433.793 642.089L433.62 639.094ZM182.909 523.547C182.928 522.913 183.27 520.14 183.857 515.945C184.435 511.81 185.234 506.411 186.136 500.632C187.942 489.058 190.154 476.013 191.837 468.516L188.91 467.859C187.203 475.464 184.978 488.6 183.172 500.169C182.268 505.962 181.467 511.376 180.886 515.529C180.313 519.623 179.936 522.614 179.91 523.456L182.909 523.547ZM169.137 558.018C169.213 557.283 169.3 556.565 169.399 555.864L166.428 555.446C166.324 556.185 166.232 556.94 166.153 557.714L169.137 558.018ZM169.399 555.864C170.688 546.711 173.912 540.39 176.866 535.573C177.61 534.361 178.334 533.247 179.017 532.191C179.695 531.143 180.338 530.143 180.891 529.195C181.977 527.336 182.85 525.467 182.909 523.547L179.91 523.456C179.876 524.575 179.348 525.888 178.301 527.683C177.787 528.562 177.181 529.506 176.498 530.561C175.821 531.608 175.075 532.755 174.309 534.005C171.225 539.032 167.793 545.749 166.428 555.446L169.399 555.864ZM532.958 536.334C535.249 540.78 542.248 547.09 545.362 562.346L548.302 561.746C545.089 546.004 537.411 538.427 535.624 534.959L532.958 536.334ZM545.362 562.346C545.974 565.34 546.427 568.67 546.649 572.38L549.644 572.201C549.414 568.354 548.942 564.883 548.302 561.746L545.362 562.346ZM546.649 572.38C547.232 582.134 543.349 590.683 537.324 598.243C531.286 605.818 523.175 612.3 515.494 617.877L517.257 620.304C524.982 614.695 533.368 608.019 539.67 600.112C545.985 592.19 550.285 582.931 549.644 572.201L546.649 572.38ZM515.494 617.877C513.702 619.178 511.938 620.427 510.232 621.628L511.959 624.081C513.669 622.877 515.447 621.619 517.257 620.304L515.494 617.877ZM580.495 583.92C576.672 598.99 561.035 607.482 545.694 612.19C538.1 614.521 530.743 615.874 525.277 616.643C522.546 617.027 520.294 617.265 518.727 617.407C517.944 617.477 517.332 617.524 516.919 617.553C516.712 617.568 516.555 617.578 516.45 617.584C516.398 617.587 516.359 617.589 516.333 617.591C516.321 617.591 516.311 617.592 516.305 617.592C516.302 617.592 516.3 617.593 516.299 617.593C516.298 617.593 516.298 617.593 516.298 617.593C516.298 617.593 516.298 617.593 516.376 619.091C516.453 620.589 516.454 620.589 516.455 620.589C516.455 620.589 516.456 620.588 516.457 620.588C516.46 620.588 516.463 620.588 516.467 620.588C516.475 620.587 516.486 620.587 516.501 620.586C516.531 620.584 516.575 620.582 516.631 620.578C516.745 620.572 516.911 620.561 517.128 620.546C517.56 620.516 518.192 620.467 518.997 620.395C520.606 620.249 522.909 620.006 525.695 619.614C531.263 618.83 538.784 617.45 546.575 615.058C562.002 610.323 579.152 601.413 583.402 584.657L580.495 583.92ZM253.653 632.133C234.661 629.15 220.845 623.361 210.418 617.194L208.891 619.776C219.632 626.129 233.807 632.053 253.188 635.096L253.653 632.133ZM210.418 617.194C199.359 610.653 192.129 603.712 186.37 599L184.47 601.322C190.048 605.886 197.572 613.082 208.891 619.776L210.418 617.194ZM106.324 601.452C108.394 611.128 116.326 616.95 126.452 620.321C136.59 623.696 149.277 624.75 161.592 624.689C173.931 624.627 186.015 623.444 195.004 622.279C199.502 621.696 203.23 621.116 205.837 620.683C207.14 620.466 208.163 620.285 208.862 620.158C209.211 620.095 209.48 620.045 209.661 620.011C209.752 619.994 209.821 619.981 209.868 619.972C209.892 619.967 209.909 619.964 209.922 619.961C209.928 619.96 209.932 619.959 209.936 619.959C209.937 619.958 209.939 619.958 209.939 619.958C209.94 619.958 209.941 619.958 209.655 618.485C209.368 617.013 209.368 617.013 209.368 617.013C209.367 617.013 209.366 617.013 209.365 617.013C209.363 617.014 209.359 617.015 209.353 617.016C209.343 617.018 209.326 617.021 209.304 617.025C209.261 617.033 209.194 617.046 209.107 617.063C208.931 617.096 208.67 617.144 208.327 617.206C207.641 617.331 206.633 617.509 205.344 617.723C202.768 618.152 199.075 618.726 194.619 619.304C185.701 620.459 173.749 621.628 161.577 621.689C149.38 621.75 137.077 620.696 127.4 617.475C117.711 614.249 111.003 608.984 109.257 600.824L106.324 601.452Z" fill="black"/>
<path d="M239.584 560.114C233.677 559.803 220.73 563.849 219.315 574.183C217.9 584.517 235.543 586.591 239.584 586.591C243.626 586.591 257.935 583.304 258.542 574.183C259.148 565.063 245.491 560.425 239.584 560.114Z" fill="#FF8DAF"/>
<path d="M494.866 562.66C488.958 562.349 476.012 566.395 474.596 576.729C473.181 587.063 490.824 589.137 494.866 589.137C498.907 589.137 513.216 585.85 513.823 576.729C514.43 567.608 500.773 562.971 494.866 562.66Z" fill="#FF8DAF"/>
</svg>
