<svg width="700" height="900" viewBox="0 0 700 900" fill="none" xmlns="http://www.w3.org/2000/svg">
<path d="M226.819 437.721C224.787 412.986 208.91 397.886 192.63 391.327C176.35 384.769 138.859 378.697 116.747 391.327C94.636 403.958 86.523 428.734 83.7018 453.753C80.8805 478.771 86.6174 490.186 99.9816 501.846C113.346 513.506 136.429 522.493 156.11 520.793C175.792 519.093 194.744 516.421 206.651 503.547C218.557 490.673 217.342 489.459 223.25 470.735C223.25 470.735 228.851 462.455 226.819 437.721Z" fill="#E8BE7C"/>
<path d="M492.012 418.152C503.698 388.354 534.322 376.735 558.831 379.36C583.34 381.985 609.654 396.637 614.847 420.777C620.04 444.917 615.977 468.856 601.155 487.074C586.333 505.291 564.708 508.449 551.101 507.477C537.494 506.506 532.877 504.833 521.7 499.462C510.523 494.091 502.018 485.131 494.729 471.285C487.439 457.44 486.053 433.345 492.012 418.152Z" fill="#E8BE7C"/>
<path d="M521.7 499.462C532.877 504.833 537.494 506.506 551.101 507.477C564.708 508.449 586.333 505.291 601.155 487.074C615.977 468.856 620.04 444.917 614.847 420.777C609.654 396.637 583.34 381.985 558.831 379.36C534.322 376.735 503.698 388.354 492.012 418.152C486.053 433.345 487.439 457.44 494.729 471.285C502.018 485.131 510.523 494.091 521.7 499.462ZM521.7 499.462C521.7 499.462 503.962 459.988 519.27 441.166C534.578 422.344 541.139 425.134 552.802 425.134C564.465 425.134 572.483 438.251 572.241 448.939C571.998 459.626 570.54 462.055 565.923 466.67C561.306 471.285 554.746 472.014 543.326 469.099M223.25 470.735C217.342 489.459 218.557 490.673 206.651 503.547C194.744 516.421 175.792 519.093 156.11 520.793C136.429 522.493 113.346 513.506 99.9816 501.846C86.6174 490.186 80.8805 478.771 83.7018 453.753C86.523 428.734 94.636 403.958 116.747 391.327C138.859 378.697 176.35 384.769 192.63 391.327C208.91 397.886 224.787 412.986 226.819 437.721C228.851 462.455 223.25 470.735 223.25 470.735ZM223.25 470.735C212.969 436.506 194.745 426.993 189.399 424.078C184.054 421.164 172.148 415.86 151.008 419.017C129.868 422.175 121.364 435.777 119.906 448.894C118.448 462.011 127.925 475.613 142.99 477.313C158.055 479.014 168.26 468.792 174.334 456.91" stroke="black" stroke-width="3" stroke-linecap="round"/>
</svg>
