<svg width="700" height="900" viewBox="0 0 700 900" fill="none" xmlns="http://www.w3.org/2000/svg">
<path d="M345.926 395.627C337.914 410.912 337.586 417.304 320.019 434.379C302.452 451.455 293.549 456.787 273.728 458.979C273.728 458.979 274.157 492.819 279 506.258C283.844 519.696 293.531 531.728 306.5 541.415C319.469 551.103 335.666 555.839 352.646 554.878C369.625 553.916 388.375 545.478 398.433 533.873C408.491 522.269 415.25 515.789 421.031 497.507C426.813 479.225 422.906 451.567 422.906 451.567C415.094 451.724 396.969 445.473 379.313 434.379C361.656 423.285 356.863 417.66 345.926 395.627Z" fill="white"/>
<path d="M321.969 350.156C321.969 350.156 329.156 362.657 345.926 361.719M345.926 361.719C359.313 362.032 372.281 345 372.281 345M345.926 361.719V395.627M345.926 395.627C337.914 410.912 337.586 417.304 320.019 434.379C302.452 451.455 293.549 456.787 273.728 458.979M345.926 395.627C356.863 417.66 361.656 423.285 379.313 434.379C396.969 445.473 415.094 451.724 422.906 451.567M273.728 458.979C257.623 458.407 252.764 451.069 250 443.54M273.728 458.979C273.728 458.979 274.157 492.819 279 506.258C283.844 519.696 293.531 531.728 306.5 541.416C319.469 551.103 335.666 555.839 352.646 554.878C369.625 553.916 388.375 545.478 398.433 533.873C408.491 522.269 415.25 515.789 421.031 497.507C426.813 479.225 422.906 451.567 422.906 451.567M422.906 451.567C430.719 451.411 439 446.88 449 434.379" stroke="white" stroke-width="10" stroke-linecap="round"/>
<path d="M345.926 395.627C337.914 410.912 337.586 417.304 320.019 434.379C302.452 451.455 293.549 456.787 273.728 458.979C273.728 458.979 274.157 492.819 279 506.258C283.844 519.696 293.531 531.728 306.5 541.416C319.469 551.103 335.666 555.839 352.646 554.878C369.625 553.916 388.375 545.478 398.433 533.873C408.491 522.269 415.25 515.789 421.031 497.507C426.813 479.225 422.906 451.567 422.906 451.567C415.094 451.724 396.969 445.473 379.313 434.379C361.656 423.285 356.863 417.66 345.926 395.627Z" fill="#FF4949"/>
<path d="M321.969 350.156C321.969 350.156 329.156 362.657 345.926 361.719M345.926 361.719C359.313 362.032 372.281 345 372.281 345M345.926 361.719V395.627M345.926 395.627C337.914 410.912 337.586 417.304 320.019 434.379C302.452 451.455 293.549 456.787 273.728 458.979M345.926 395.627C356.863 417.66 361.656 423.285 379.313 434.379C396.969 445.473 415.094 451.724 422.906 451.567M273.728 458.979C257.623 458.407 252.764 451.069 250 443.54M273.728 458.979C273.728 458.979 274.157 492.819 279 506.258C283.844 519.696 293.531 531.728 306.5 541.416C319.469 551.103 335.666 555.839 352.646 554.878C369.625 553.916 388.375 545.478 398.433 533.873C408.491 522.269 415.25 515.789 421.031 497.507C426.813 479.225 422.906 451.567 422.906 451.567M422.906 451.567C430.719 451.411 439 446.88 449 434.379" stroke="black" stroke-width="10" stroke-linecap="round"/>
</svg>
