<svg width="700" height="900" viewBox="0 0 700 900" fill="none" xmlns="http://www.w3.org/2000/svg">
<path d="M346.567 632C384.063 631.991 465.223 618.542 497.71 600.339C530.196 582.136 562.438 543.13 570.046 511.058C577.655 478.986 570.046 421.777 553.153 391.873C536.261 361.968 532.795 358.501 505.94 331.63C479.084 304.759 435.769 285.256 404.149 276.155C372.529 267.053 310.155 266.187 275.936 276.155C241.717 286.123 206.631 304.326 188.439 322.529C170.247 340.732 153.354 365.435 141.658 391.873C129.963 418.311 123.465 462.518 126.931 486.788C130.397 511.058 143.39 556.999 165.915 575.202C188.439 593.405 223.524 613.341 248.647 619.409C273.77 625.477 309.071 632.009 346.567 632Z" fill="#FFE3E2" stroke="black" stroke-width="3" stroke-linecap="round"/>
</svg>
