<svg width="701" height="900" viewBox="0 0 701 900" fill="none" xmlns="http://www.w3.org/2000/svg">
<path d="M458.797 424.051C451.872 428.682 447.17 432.835 448.007 438.183C448.845 443.531 461.141 437.281 466.863 433.327C472.586 429.373 475.543 426.13 475.122 422.601C474.7 419.072 465.721 419.42 458.797 424.051Z" fill="white"/>
<path d="M430.562 371.188C426.604 373.575 421.734 374.207 421.759 372.075C421.785 369.943 425.395 366.66 428.205 365.078C431.015 363.496 435.558 360.703 440.813 359.591C446.068 358.479 449.98 357.828 453.759 357.906C457.538 357.983 465.372 359.041 468.457 359.928C471.542 360.815 478.904 362.763 477.222 366.536C475.539 370.309 463.146 364.465 456.321 364.58C449.495 364.696 447.837 365.078 442.623 365.974C437.409 366.871 434.519 368.801 430.562 371.188Z" fill="black"/>
<path d="M257.514 372.406C255.262 371.763 254.288 370.395 251.159 369.269C248.031 368.143 246.031 367.115 241.266 366.615C236.5 366.114 225.822 365.73 221.72 366.615C217.617 367.499 214.625 370.474 209.574 371.708C204.522 372.942 204.377 369.412 206.27 368.007C208.164 366.601 217.691 362.278 222.176 361.469C226.661 360.659 235.67 360.48 239.989 361.016C244.308 361.553 252.12 363.525 253.806 364.141C255.492 364.758 264.744 368.952 264.703 371.708C264.661 374.463 259.766 373.05 257.514 372.406Z" fill="black"/>
<path d="M524.744 440.447C525.787 443.164 526.03 449.947 526.03 449.947C526.03 449.947 537.837 447.425 538.001 443.924C538.166 440.423 524.744 440.447 524.744 440.447Z" fill="black"/>
<path d="M161.951 439.686C161.662 443.658 173.242 445.305 173.242 445.305C173.954 442.651 174.961 440.104 176.169 437.686C176.169 437.686 162.239 435.715 161.951 439.686Z" fill="black"/>
<path fill-rule="evenodd" clip-rule="evenodd" d="M417.177 448.085C414.27 470.362 417.644 497.037 427.184 505.814C436.724 514.591 440.369 515.04 445.692 516.176C451.014 517.311 459.655 516.988 461.807 516.623C468.331 513.195 469.822 511.208 472.306 508.369C474.79 505.53 480.609 495.665 481.597 483.742C482.584 471.819 480.835 453.565 475.927 437.967C471.018 422.369 455.588 414.193 456.085 412.348C456.581 410.502 469.319 407.898 481.597 409.105C493.875 410.311 497.356 412.515 503.459 417.27C509.563 422.025 513.553 427.605 516.391 434.347C518.152 438.528 519.426 444.025 520.319 447.593C520.403 447.93 520.974 449.334 520.974 449.334C521.943 450.516 524.307 450.28 524.307 450.28L526.03 449.947C526.03 449.947 525.787 443.164 524.744 440.447C524.215 439.07 523.004 434.771 521.611 431.17C519.939 426.848 517.728 423.729 516.804 422.601C507.19 410.863 494.211 401.073 467.668 402.586C441.125 404.099 420.083 425.809 417.177 448.085ZM448.007 438.183C447.17 432.835 451.872 428.682 458.797 424.051C465.721 419.42 474.7 419.072 475.122 422.601C475.543 426.13 472.586 429.373 466.863 433.327C461.141 437.281 448.845 443.531 448.007 438.183Z" fill="black"/>
<path d="M491.894 506.311C501.815 501.35 511.25 496.241 519.402 480.334C523.588 472.165 526.03 449.947 526.03 449.947L524.307 450.28C524.307 450.28 521.943 450.516 520.974 449.334L520.319 447.593C519.426 444.025 518.152 438.528 516.391 434.347C513.553 427.605 509.563 422.025 503.459 417.27C497.356 412.515 493.875 410.311 481.597 409.105C469.319 407.898 456.581 410.502 456.085 412.348C455.588 414.193 471.018 422.369 475.927 437.967C480.835 453.565 482.584 471.819 481.597 483.742C480.609 495.665 474.79 505.53 472.306 508.369C469.822 511.208 468.331 513.195 461.807 516.623C469.409 515.337 484.161 510.177 491.894 506.311Z" fill="white"/>
<path d="M208.318 508.181C217.289 512.762 231.219 515.116 242.074 518.239C228.394 508.811 223.673 499.146 221.421 490.148C219.168 481.151 218.461 462.436 222.435 450.599L222.511 450.373C222.943 449.086 223.371 447.767 223.805 446.429C225.718 440.533 227.207 435.096 230.214 429.629C231.689 426.947 234.996 422.661 237.04 420.502C238.568 418.888 239.228 418.427 241.172 417.239C252.293 410.445 225.074 410.27 215.138 412.328C205.202 414.386 196.992 421.207 193.129 424.594C189.266 427.98 186.149 432.567 184.879 434.895C184.051 436.412 180.92 442.761 180.22 443.846C179.52 444.93 177.943 445.518 176.487 445.561C175.031 445.604 173.242 445.305 173.242 445.305C172.293 448.844 171.869 452.573 172.194 456.443C173.049 466.61 178.252 479.202 184.578 487.503C190.955 495.872 199.314 503.583 208.318 508.181Z" fill="white"/>
<path fill-rule="evenodd" clip-rule="evenodd" d="M288.302 472.128C288.299 471.981 288.296 471.834 288.292 471.688C288.302 471.832 288.305 471.978 288.302 472.128Z" fill="white"/>
<path d="M246.628 424.594C243.483 422.983 239.974 421.258 237.04 420.502C232.851 419.421 227.744 420.119 226.338 422.678C225.136 424.867 226.98 427.799 230.214 429.629C233.408 431.436 237.14 432.85 239.341 433.944C243.771 436.144 252.841 437.836 254.681 434.895C256.522 431.954 249.773 426.204 246.628 424.594Z" fill="white"/>
<path d="M267.011 516.627C278.459 511.475 288.875 499.794 288.302 472.128C288.299 471.981 288.296 471.834 288.292 471.688C287.619 444.239 277.218 423.334 256.152 411.377C234.973 399.357 203.739 409.206 196.679 414.358C191.961 417.801 181.847 426.32 176.169 437.686C174.961 440.104 173.954 442.651 173.242 445.305C173.242 445.305 175.031 445.604 176.487 445.561C177.943 445.518 179.52 444.93 180.22 443.846C180.92 442.761 184.051 436.412 184.879 434.895C186.149 432.567 189.266 427.98 193.129 424.594C196.992 421.207 205.202 414.386 215.138 412.328C225.074 410.27 252.293 410.445 241.172 417.239C239.228 418.427 238.568 418.888 237.04 420.502C239.974 421.258 243.483 422.983 246.628 424.594C249.773 426.204 256.522 431.954 254.681 434.895C252.841 437.836 243.771 436.144 239.341 433.944C237.14 432.85 233.408 431.436 230.214 429.629C227.207 435.096 225.718 440.533 223.805 446.429C223.371 447.767 222.943 449.086 222.511 450.373L222.435 450.599C218.461 462.436 219.168 481.151 221.421 490.148C223.673 499.146 228.394 508.811 242.074 518.239C252.929 521.361 261.289 519.201 267.011 516.627Z" fill="black"/>
</svg>
