<svg width="700" height="900" viewBox="0 0 700 900" fill="none" xmlns="http://www.w3.org/2000/svg">
<path d="M316.122 451.956C310.364 452.477 308.792 460.777 309.079 464.626C309.366 468.475 311.338 476.25 318.265 475.981C325.192 475.713 326.705 467.81 326.023 462.486C325.34 457.162 321.879 451.435 316.122 451.956Z" fill="white"/>
<path d="M386.749 451.788C380.992 452.309 379.419 460.609 379.706 464.458C379.993 468.307 381.965 476.082 388.893 475.814C395.82 475.545 397.333 467.642 396.65 462.318C395.968 456.995 392.507 451.267 386.749 451.788Z" fill="white"/>
<path fill-rule="evenodd" clip-rule="evenodd" d="M265.275 426.169C235.043 461.98 239.737 489.633 254.921 507.054C270.106 524.475 282.41 525.996 300.338 525.996C318.265 525.996 332.502 506.224 354.175 507.054C375.848 507.884 383.164 525.858 403.318 525.996C423.473 526.135 429.508 522.389 438.519 518.392C463.116 507.482 462.852 446.262 430.712 416.11C398.571 385.959 366.375 375.713 352.294 375.021C338.214 374.33 295.506 390.359 265.275 426.169ZM309.079 464.626C308.792 460.777 310.364 452.477 316.122 451.956C321.879 451.435 325.34 457.162 326.023 462.486C326.705 467.81 325.192 475.713 318.265 475.981C311.338 476.25 309.366 468.475 309.079 464.626ZM379.706 464.458C379.419 460.609 380.992 452.309 386.749 451.788C392.507 451.267 395.968 456.995 396.65 462.318C397.333 467.642 395.82 475.545 388.893 475.814C381.965 476.082 379.993 468.307 379.706 464.458Z" fill="white"/>
<path d="M438.519 518.392L437.911 517.021L438.519 518.392ZM264.128 425.202C248.872 443.274 242.298 459.441 241.569 473.43C240.838 487.441 245.982 499.08 253.791 508.04L256.052 506.068C248.676 497.606 243.881 486.708 244.565 473.586C245.25 460.44 251.446 444.875 266.421 427.137L264.128 425.202ZM439.127 519.763C445.769 516.817 450.582 510.546 453.599 502.579C456.62 494.599 457.902 484.767 457.39 474.393C456.367 453.667 448.158 430.42 431.738 415.016L429.685 417.204C445.406 431.952 453.399 454.391 454.394 474.541C454.891 484.604 453.636 494.007 450.793 501.517C447.945 509.038 443.568 514.512 437.911 517.021L439.127 519.763ZM431.738 415.016C399.391 384.672 366.871 374.235 352.368 373.523L352.221 376.52C365.878 377.19 397.75 387.245 429.685 417.204L431.738 415.016ZM352.368 373.523C348.593 373.338 343.09 374.267 336.572 376.251C330.02 378.245 322.332 381.339 314.151 385.575C297.794 394.046 279.393 407.12 264.128 425.202L266.421 427.137C281.388 409.408 299.457 396.563 315.531 388.239C323.566 384.078 331.085 381.057 337.445 379.121C343.84 377.175 348.955 376.359 352.221 376.52L352.368 373.523ZM315.987 450.462C312.285 450.797 310.11 453.639 308.946 456.473C307.773 459.329 307.424 462.602 307.583 464.737L310.575 464.514C310.447 462.801 310.741 459.999 311.721 457.613C312.711 455.204 314.201 453.636 316.257 453.45L315.987 450.462ZM307.583 464.737C307.736 466.791 308.336 469.945 309.886 472.603C311.472 475.321 314.15 477.642 318.323 477.48L318.207 474.482C315.454 474.589 313.682 473.157 312.478 471.092C311.238 468.967 310.708 466.309 310.575 464.514L307.583 464.737ZM318.323 477.48C322.502 477.318 325.047 474.789 326.374 471.726C327.669 468.736 327.876 465.141 327.511 462.295L324.535 462.677C324.853 465.154 324.644 468.173 323.621 470.533C322.631 472.819 320.955 474.376 318.207 474.482L318.323 477.48ZM327.511 462.295C327.141 459.413 326.018 456.369 324.134 454.077C322.223 451.751 319.466 450.147 315.987 450.462L316.257 453.45C318.535 453.243 320.387 454.243 321.816 455.982C323.273 457.754 324.222 460.235 324.535 462.677L327.511 462.295ZM386.614 450.294C382.913 450.629 380.738 453.471 379.573 456.305C378.4 459.161 378.051 462.434 378.21 464.57L381.202 464.346C381.074 462.633 381.368 459.831 382.348 457.445C383.338 455.036 384.828 453.468 386.884 453.282L386.614 450.294ZM378.21 464.57C378.363 466.623 378.963 469.778 380.514 472.436C382.099 475.154 384.777 477.474 388.951 477.312L388.835 474.315C386.081 474.422 384.309 472.989 383.105 470.924C381.866 468.8 381.336 466.142 381.202 464.346L378.21 464.57ZM388.951 477.312C393.13 477.15 395.674 474.621 397.001 471.558C398.297 468.569 398.503 464.974 398.138 462.128L395.162 462.509C395.48 464.987 395.271 468.005 394.249 470.365C393.258 472.651 391.583 474.208 388.835 474.315L388.951 477.312ZM398.138 462.128C397.768 459.246 396.646 456.202 394.762 453.909C392.85 451.584 390.093 449.979 386.614 450.294L386.884 453.282C389.163 453.076 391.015 454.075 392.444 455.814C393.9 457.586 394.849 460.067 395.162 462.509L398.138 462.128ZM253.791 508.04C261.508 516.894 268.585 521.808 276.1 524.472C283.576 527.123 291.359 527.496 300.338 527.496V524.496C291.389 524.496 284.056 524.11 277.102 521.644C270.187 519.193 263.52 514.636 256.052 506.068L253.791 508.04ZM300.338 527.496C309.787 527.496 318.217 522.282 326.593 517.518C335.114 512.672 343.753 508.156 354.117 508.553L354.232 505.555C342.923 505.122 333.607 510.078 325.11 514.91C316.468 519.825 308.816 524.496 300.338 524.496V527.496ZM354.117 508.553C364.499 508.95 371.436 513.424 378.495 518.04C385.528 522.638 392.737 527.424 403.308 527.496L403.329 524.496C393.745 524.431 387.219 520.16 380.137 515.529C373.081 510.916 365.524 505.987 354.232 505.555L354.117 508.553ZM403.308 527.496C413.48 527.566 420.172 526.656 425.496 525.191C430.791 523.734 434.702 521.726 439.127 519.763L437.911 517.021C433.326 519.055 429.714 520.919 424.7 522.299C419.714 523.671 413.311 524.565 403.329 524.496L403.308 527.496Z" fill="white"/>
<path d="M316.122 451.956C310.364 452.477 308.792 460.777 309.079 464.626C309.366 468.475 311.338 476.25 318.265 475.981C325.192 475.713 326.705 467.81 326.023 462.486C325.34 457.162 321.879 451.435 316.122 451.956Z" fill="black"/>
<path d="M386.749 451.788C380.992 452.309 379.419 460.609 379.706 464.458C379.993 468.307 381.965 476.082 388.893 475.814C395.82 475.545 397.333 467.642 396.65 462.318C395.968 456.995 392.507 451.267 386.749 451.788Z" fill="black"/>
<path fill-rule="evenodd" clip-rule="evenodd" d="M265.275 426.169C235.043 461.98 239.737 489.633 254.921 507.054C270.106 524.475 282.41 525.996 300.338 525.996C318.265 525.996 332.502 506.224 354.175 507.054C375.848 507.884 383.164 525.858 403.318 525.996C423.473 526.135 429.508 522.389 438.519 518.392C463.116 507.482 462.852 446.262 430.711 416.11C398.571 385.959 366.375 375.713 352.294 375.021C338.214 374.33 295.506 390.359 265.275 426.169ZM309.079 464.626C308.792 460.777 310.364 452.477 316.122 451.956C321.879 451.435 325.34 457.162 326.023 462.486C326.705 467.81 325.192 475.713 318.265 475.981C311.338 476.25 309.366 468.475 309.079 464.626ZM379.706 464.458C379.419 460.609 380.992 452.309 386.749 451.788C392.507 451.267 395.968 456.995 396.65 462.318C397.333 467.642 395.82 475.545 388.893 475.814C381.965 476.082 379.993 468.307 379.706 464.458Z" fill="#FEC8C8"/>
<path d="M438.519 518.392L437.911 517.021L437.911 517.021L438.519 518.392ZM264.128 425.202C248.872 443.274 242.298 459.441 241.569 473.43C240.838 487.441 245.982 499.08 253.791 508.04L256.052 506.068C248.676 497.606 243.881 486.708 244.565 473.586C245.25 460.44 251.446 444.875 266.421 427.137L264.128 425.202ZM439.127 519.763C445.769 516.817 450.582 510.546 453.599 502.579C456.62 494.599 457.902 484.767 457.39 474.393C456.367 453.667 448.158 430.42 431.738 415.016L429.685 417.204C445.406 431.952 453.399 454.391 454.394 474.541C454.891 484.604 453.636 494.007 450.793 501.517C447.945 509.038 443.568 514.512 437.911 517.021L439.127 519.763ZM431.738 415.016C399.391 384.672 366.871 374.235 352.368 373.523L352.221 376.52C365.878 377.19 397.75 387.245 429.685 417.204L431.738 415.016ZM352.368 373.523C348.593 373.338 343.09 374.267 336.572 376.251C330.02 378.245 322.332 381.339 314.151 385.575C297.794 394.046 279.393 407.12 264.128 425.202L266.421 427.137C281.388 409.408 299.457 396.563 315.531 388.239C323.566 384.078 331.085 381.057 337.445 379.121C343.84 377.175 348.955 376.359 352.221 376.52L352.368 373.523ZM315.987 450.462C312.285 450.797 310.11 453.639 308.946 456.473C307.773 459.329 307.424 462.602 307.583 464.737L310.575 464.514C310.447 462.801 310.741 459.999 311.721 457.613C312.711 455.204 314.201 453.636 316.257 453.45L315.987 450.462ZM307.583 464.737C307.736 466.791 308.336 469.945 309.886 472.603C311.472 475.321 314.15 477.642 318.323 477.48L318.207 474.482C315.454 474.589 313.682 473.157 312.478 471.092C311.238 468.967 310.708 466.309 310.575 464.514L307.583 464.737ZM318.323 477.48C322.502 477.318 325.047 474.789 326.374 471.726C327.669 468.736 327.876 465.141 327.511 462.295L324.535 462.677C324.853 465.154 324.644 468.173 323.621 470.533C322.631 472.819 320.955 474.376 318.207 474.482L318.323 477.48ZM327.511 462.295C327.141 459.413 326.018 456.369 324.134 454.077C322.223 451.751 319.466 450.147 315.987 450.462L316.257 453.45C318.535 453.243 320.387 454.243 321.816 455.982C323.273 457.754 324.222 460.235 324.535 462.677L327.511 462.295ZM386.614 450.294C382.913 450.629 380.738 453.471 379.573 456.305C378.4 459.161 378.051 462.434 378.21 464.57L381.202 464.346C381.074 462.633 381.368 459.831 382.348 457.445C383.338 455.036 384.828 453.468 386.884 453.282L386.614 450.294ZM378.21 464.57C378.363 466.623 378.963 469.778 380.514 472.436C382.099 475.154 384.777 477.474 388.951 477.312L388.834 474.315C386.081 474.422 384.309 472.989 383.105 470.924C381.866 468.8 381.336 466.142 381.202 464.346L378.21 464.57ZM388.951 477.312C393.13 477.15 395.674 474.621 397.001 471.558C398.297 468.569 398.503 464.974 398.138 462.128L395.162 462.509C395.48 464.987 395.271 468.005 394.249 470.365C393.258 472.651 391.583 474.208 388.834 474.315L388.951 477.312ZM398.138 462.128C397.768 459.246 396.646 456.202 394.762 453.909C392.85 451.584 390.093 449.979 386.614 450.294L386.884 453.282C389.163 453.076 391.015 454.075 392.444 455.814C393.9 457.586 394.849 460.067 395.162 462.509L398.138 462.128ZM253.791 508.04C261.508 516.894 268.585 521.808 276.1 524.472C283.576 527.123 291.359 527.496 300.338 527.496V524.496C291.389 524.496 284.056 524.11 277.102 521.644C270.187 519.193 263.52 514.636 256.052 506.068L253.791 508.04ZM300.338 527.496C309.787 527.496 318.217 522.282 326.593 517.518C335.114 512.672 343.753 508.156 354.117 508.553L354.232 505.555C342.923 505.122 333.607 510.078 325.11 514.91C316.468 519.825 308.816 524.496 300.338 524.496V527.496ZM354.117 508.553C364.499 508.95 371.436 513.424 378.495 518.04C385.528 522.638 392.737 527.424 403.308 527.496L403.329 524.496C393.745 524.431 387.219 520.16 380.137 515.529C373.081 510.916 365.524 505.987 354.232 505.555L354.117 508.553ZM403.308 527.496C413.48 527.566 420.172 526.656 425.496 525.191C430.791 523.734 434.702 521.726 439.127 519.763L437.911 517.021C433.326 519.055 429.714 520.919 424.7 522.299C419.714 523.671 413.311 524.565 403.329 524.496L403.308 527.496Z" fill="black"/>
</svg>
