<svg width="700" height="900" viewBox="0 0 700 900" fill="none" xmlns="http://www.w3.org/2000/svg">
<path d="M341.915 345.008C317.013 343.792 198.061 475.718 198.061 475.718C259.06 472.549 319.606 472.323 340.843 471.193C362.079 470.062 409.132 464.775 431.806 464.775C454.481 464.775 500.649 455.814 500.649 455.814C500.649 455.814 447.589 400.766 427.144 388.201C406.7 375.636 366.817 346.224 341.915 345.008Z" fill="#FEE581"/>
<path d="M198.061 475.718C195.576 489.962 269.434 530.622 291.14 540.616C312.847 550.61 333.84 556.22 348.073 555.993C362.306 555.767 415.314 538.581 431.806 525.917C448.299 513.254 506.018 463.425 500.649 455.814C500.649 455.814 454.481 464.775 431.806 464.775C409.132 464.775 362.079 470.062 340.843 471.193C319.606 472.323 259.06 472.549 198.061 475.718Z" fill="#BCA95B"/>
<path d="M198.061 475.718L196.947 474.714L196.658 475.035L196.584 475.46L198.061 475.718ZM500.649 455.814L501.875 454.95L501.808 454.856L501.729 454.773L500.649 455.814ZM341.988 343.51C340.12 343.419 337.962 343.95 335.637 344.884C333.29 345.827 330.655 347.229 327.795 349C322.073 352.545 315.323 357.648 307.973 363.766C293.267 376.007 276.026 392.421 259.59 408.846C243.148 425.277 227.488 441.743 215.941 454.099C210.166 460.278 205.419 465.431 202.115 469.039C200.463 470.843 199.171 472.261 198.293 473.228C197.854 473.712 197.517 474.083 197.291 474.333C197.178 474.458 197.092 474.553 197.034 474.617C197.006 474.649 196.984 474.673 196.969 474.689C196.962 474.697 196.957 474.703 196.953 474.707C196.951 474.709 196.95 474.711 196.949 474.712C196.948 474.713 196.947 474.714 198.061 475.718C199.175 476.723 199.176 476.722 199.177 476.721C199.177 476.72 199.179 476.719 199.18 476.717C199.184 476.713 199.189 476.707 199.197 476.699C199.211 476.683 199.232 476.659 199.261 476.628C199.318 476.565 199.403 476.471 199.515 476.346C199.741 476.097 200.076 475.728 200.514 475.245C201.39 474.281 202.678 472.866 204.327 471.065C207.626 467.463 212.366 462.318 218.132 456.148C229.666 443.806 245.301 427.367 261.71 410.968C278.125 394.564 295.291 378.225 309.892 366.072C317.196 359.992 323.824 354.989 329.374 351.551C332.15 349.832 334.624 348.524 336.755 347.668C338.908 346.803 340.598 346.446 341.842 346.507L341.988 343.51ZM196.584 475.46C196.161 477.881 197.377 480.516 199.246 483.072C201.167 485.699 204.03 488.58 207.523 491.597C214.521 497.641 224.272 504.417 234.727 511.029C255.645 524.255 279.594 536.951 290.513 541.979L291.768 539.254C280.98 534.287 257.147 521.656 236.33 508.493C225.919 501.909 216.314 495.225 209.484 489.327C206.064 486.373 203.395 483.663 201.668 481.301C199.888 478.868 199.34 477.116 199.539 475.976L196.584 475.46ZM290.513 541.979C312.308 552.014 333.54 557.725 348.097 557.493L348.049 554.494C334.14 554.715 313.386 549.207 291.768 539.254L290.513 541.979ZM348.097 557.493C351.847 557.434 357.98 556.275 365.212 554.433C372.487 552.58 381.003 550.002 389.582 547.037C406.667 541.132 424.258 533.604 432.72 527.107L430.893 524.728C422.862 530.894 405.703 538.291 388.602 544.202C380.089 547.144 371.653 549.697 364.471 551.526C357.246 553.366 351.415 554.44 348.049 554.494L348.097 557.493ZM432.72 527.107C441.012 520.74 459.604 505.082 475.457 490.06C483.38 482.552 490.66 475.165 495.632 469.154C498.111 466.158 500.07 463.441 501.24 461.183C501.824 460.057 502.253 458.968 502.421 457.965C502.589 456.963 502.523 455.869 501.875 454.95L499.423 456.679C499.446 456.711 499.558 456.898 499.462 457.469C499.367 458.038 499.09 458.812 498.577 459.802C497.554 461.775 495.756 464.298 493.321 467.242C488.466 473.11 481.291 480.399 473.394 487.882C457.606 502.843 439.093 518.431 430.893 524.728L432.72 527.107ZM500.649 455.814C501.729 454.773 501.729 454.773 501.728 454.773C501.728 454.772 501.727 454.772 501.726 454.771C501.725 454.769 501.722 454.766 501.719 454.763C501.712 454.756 501.703 454.746 501.69 454.733C501.664 454.706 501.625 454.666 501.575 454.614C501.473 454.509 501.323 454.353 501.125 454.149C500.731 453.742 500.15 453.144 499.403 452.378C497.91 450.846 495.755 448.644 493.106 445.962C487.807 440.6 480.527 433.318 472.607 425.642C456.824 410.346 438.322 393.31 427.93 386.923L426.359 389.479C436.411 395.657 454.661 412.427 470.519 427.797C478.42 435.453 485.683 442.719 490.972 448.071C493.616 450.747 495.766 452.944 497.255 454.471C497.999 455.235 498.578 455.832 498.971 456.237C499.167 456.439 499.317 456.594 499.417 456.698C499.468 456.75 499.506 456.79 499.531 456.816C499.544 456.829 499.553 456.839 499.559 456.846C499.563 456.849 499.565 456.851 499.567 456.853C499.567 456.854 499.568 456.854 499.568 456.855C499.569 456.855 499.569 456.855 500.649 455.814ZM427.93 386.923C417.852 380.729 402.574 370.116 386.954 361.051C379.105 356.496 371.082 352.277 363.436 349.117C355.806 345.963 348.461 343.826 341.988 343.51L341.842 346.507C347.82 346.798 354.799 348.794 362.29 351.889C369.764 354.979 377.659 359.126 385.448 363.646C401.106 372.732 415.992 383.107 426.359 389.479L427.93 386.923ZM198.139 477.216C228.617 475.633 258.986 474.784 284.398 474.191C309.786 473.597 330.275 473.257 340.923 472.69L340.763 469.695C330.175 470.258 309.772 470.597 284.328 471.191C258.908 471.785 228.504 472.635 197.983 474.22L198.139 477.216ZM340.923 472.69C351.572 472.123 368.69 470.515 385.912 469.054C403.178 467.59 420.544 466.275 431.806 466.275L431.806 463.275C420.394 463.275 402.896 464.603 385.659 466.065C368.377 467.531 351.35 469.131 340.763 469.695L340.923 472.69ZM431.806 466.275C443.274 466.275 460.591 464.016 474.961 461.777C482.164 460.654 488.655 459.532 493.346 458.691C495.691 458.27 497.587 457.919 498.897 457.674C499.552 457.551 500.061 457.454 500.406 457.388C500.579 457.355 500.711 457.33 500.799 457.313C500.844 457.304 500.877 457.298 500.9 457.294C500.911 457.291 500.92 457.29 500.926 457.289C500.929 457.288 500.931 457.288 500.932 457.287C500.933 457.287 500.934 457.287 500.934 457.287C500.934 457.287 500.935 457.287 500.649 455.814C500.363 454.342 500.363 454.342 500.363 454.342C500.362 454.342 500.362 454.342 500.361 454.342C500.36 454.342 500.358 454.343 500.355 454.343C500.35 454.344 500.341 454.346 500.331 454.348C500.309 454.352 500.276 454.359 500.232 454.367C500.145 454.384 500.014 454.409 499.843 454.442C499.501 454.507 498.996 454.603 498.344 454.725C497.041 454.969 495.153 455.319 492.816 455.738C488.141 456.577 481.674 457.695 474.5 458.812C460.118 461.053 443.013 463.275 431.806 463.275L431.806 466.275Z" fill="black"/>
</svg>
