<svg width="700" height="900" viewBox="0 0 700 900" fill="none" xmlns="http://www.w3.org/2000/svg">
<path d="M185.358 325.137C157.484 356.678 154.687 392.591 152.279 415.16C152.279 415.16 215.523 412.371 253.925 430.122C272.232 438.584 304.496 453.198 321.225 463.468C337.955 473.739 364.997 493.193 368.247 493.392C371.291 493.578 388.637 474.864 407.283 459.411C426.676 443.34 429.59 442.8 447.334 430.502C465.078 418.203 491.567 403.368 509.437 396.395C527.308 389.421 543.584 387.761 543.584 387.761C541.234 376.803 538.162 366.985 534.912 360.005C526.675 342.309 513.796 315.935 492.961 298.257C472.126 280.579 451.238 270.6 432.505 265.544C432.505 265.544 415.356 262.281 399.679 258.19C385.991 256.034 361.403 255.907 346.574 256.034C331.745 256.161 307.411 256.668 284.851 261.359C279.508 261.893 264.192 265.924 245.307 275.814C226.423 285.704 213.232 293.595 185.358 325.137Z" fill="#383838"/>
<path d="M185.992 591.91C198.92 616.254 235.522 634.232 250.123 638.697C264.724 643.162 308.044 644.231 308.044 644.231C308.044 644.231 357.93 645.961 383.076 644.231C408.221 642.501 457.445 630.255 457.445 630.255C457.445 630.255 487.004 621.707 510.324 605.984C533.645 590.262 539.442 572.388 541.883 555.394C544.325 538.399 539.602 523.214 535.8 514.439C531.999 505.665 531.997 497.069 536.56 487.432C541.123 477.796 544.418 466.638 547.333 440.138C549.098 424.091 547.192 404.583 543.584 387.761C543.584 387.761 527.308 389.421 509.437 396.395C491.567 403.368 465.078 418.203 447.334 430.502C429.59 442.8 426.676 443.34 407.283 459.411C388.637 474.864 371.291 493.578 368.247 493.392C364.997 493.193 337.955 473.739 321.225 463.468C304.496 453.198 272.232 438.584 253.925 430.122C215.523 412.371 152.279 415.16 152.279 415.16C151.21 425.174 153.166 459.157 158.996 484.136C164.826 509.114 184.366 526.738 182.95 539.925C181.534 553.111 173.064 567.566 185.992 591.91Z" fill="white"/>
<path d="M152.279 415.16L150.787 415.001L152.279 415.16ZM534.912 360.005L536.272 359.372L536.272 359.372L534.912 360.005ZM547.333 440.138L545.842 439.974L547.333 440.138ZM457.445 630.255L457.807 631.711L457.835 631.704L457.862 631.696L457.445 630.255ZM308.044 644.231L308.096 642.732L308.089 642.732L308.081 642.731L308.044 644.231ZM284.851 261.359L285 262.852L285.079 262.844L285.156 262.828L284.851 261.359ZM432.505 265.544L432.896 264.095L432.841 264.081L432.785 264.07L432.505 265.544ZM399.679 258.19L400.057 256.738L399.986 256.72L399.912 256.708L399.679 258.19ZM253.925 430.122L253.296 431.483L253.925 430.122ZM368.247 493.392L368.155 494.889L368.247 493.392ZM543.584 387.761L545.05 387.446L543.584 387.761ZM407.283 459.411L408.24 460.566L408.24 460.566L407.283 459.411ZM250.562 637.262C243.408 635.075 230.732 629.527 218.241 621.496C205.728 613.452 193.601 603.042 187.317 591.207L184.667 592.614C191.31 605.123 203.948 615.874 216.619 624.02C229.312 632.18 242.237 637.854 249.685 640.131L250.562 637.262ZM187.317 591.207C174.676 567.402 182.971 553.782 184.441 540.085L181.459 539.765C180.098 552.441 171.453 567.73 184.667 592.614L187.317 591.207ZM153.77 415.319C156.182 392.712 158.964 357.269 186.482 326.13L184.234 324.143C156.005 356.087 153.191 392.47 150.787 415.001L153.77 415.319ZM186.482 326.13C200.386 310.397 210.584 300.612 219.628 293.537C228.661 286.471 236.583 282.076 246.003 277.143L244.611 274.485C235.146 279.442 227.031 283.937 217.779 291.174C208.538 298.403 198.204 308.335 184.234 324.143L186.482 326.13ZM491.99 299.4C512.545 316.84 525.307 342.924 533.552 360.638L536.272 359.372C528.043 341.693 515.047 315.029 493.931 297.113L491.99 299.4ZM545.842 439.974C542.935 466.398 539.665 477.369 535.204 486.79L537.916 488.074C542.58 478.223 545.901 466.878 548.824 440.302L545.842 439.974ZM535.204 486.79C530.461 496.808 530.447 505.855 534.424 515.036L537.177 513.843C533.551 505.474 533.534 497.329 537.916 488.074L535.204 486.79ZM534.424 515.036C538.167 523.675 542.785 538.566 540.398 555.18L543.368 555.607C545.864 538.232 541.037 522.753 537.177 513.843L534.424 515.036ZM540.398 555.18C539.191 563.587 537.167 572.108 532.617 580.448C528.072 588.776 520.965 597.001 509.486 604.74L511.163 607.228C523.004 599.245 530.456 590.672 535.25 581.884C540.039 573.108 542.134 564.195 543.368 555.607L540.398 555.18ZM509.486 604.74C497.95 612.518 484.84 618.539 474.585 622.622C469.463 624.661 465.066 626.211 461.953 627.251C460.396 627.771 459.161 628.163 458.317 628.424C457.895 628.555 457.571 628.653 457.353 628.718C457.244 628.751 457.162 628.775 457.107 628.791C457.08 628.799 457.06 628.805 457.047 628.809C457.04 628.811 457.035 628.812 457.032 628.813C457.031 628.813 457.029 628.814 457.029 628.814C457.028 628.814 457.028 628.814 457.028 628.814C457.028 628.814 457.028 628.814 457.445 630.255C457.862 631.696 457.862 631.696 457.862 631.696C457.863 631.696 457.863 631.696 457.864 631.695C457.865 631.695 457.867 631.695 457.869 631.694C457.873 631.693 457.879 631.691 457.886 631.689C457.902 631.684 457.924 631.678 457.954 631.669C458.012 631.652 458.099 631.626 458.212 631.592C458.439 631.525 458.773 631.424 459.204 631.29C460.068 631.022 461.324 630.624 462.903 630.096C466.061 629.042 470.511 627.473 475.694 625.409C486.049 621.287 499.378 615.173 511.163 607.228L509.486 604.74ZM457.445 630.255C457.083 628.799 457.083 628.799 457.082 628.8C457.082 628.8 457.082 628.8 457.081 628.8C457.079 628.8 457.077 628.801 457.074 628.802C457.069 628.803 457.06 628.805 457.048 628.808C457.025 628.814 456.99 628.823 456.943 628.834C456.85 628.857 456.711 628.892 456.528 628.936C456.163 629.026 455.623 629.158 454.927 629.327C453.535 629.664 451.518 630.149 449.018 630.735C444.018 631.908 437.09 633.491 429.378 635.127C413.926 638.405 395.428 641.877 382.973 642.735L383.179 645.727C395.868 644.854 414.555 641.339 430.001 638.062C437.739 636.42 444.688 634.833 449.703 633.656C452.211 633.067 454.236 632.581 455.634 632.242C456.333 632.073 456.876 631.94 457.244 631.85C457.428 631.804 457.569 631.77 457.663 631.746C457.71 631.735 457.746 631.726 457.77 631.72C457.782 631.717 457.791 631.715 457.798 631.713C457.801 631.712 457.803 631.712 457.805 631.711C457.805 631.711 457.806 631.711 457.806 631.711C457.807 631.711 457.807 631.711 457.445 630.255ZM382.973 642.735C370.469 643.595 351.767 643.596 336.151 643.38C328.352 643.272 321.337 643.11 316.272 642.975C313.739 642.907 311.695 642.847 310.284 642.803C309.578 642.781 309.031 642.763 308.66 642.751C308.475 642.745 308.334 642.74 308.239 642.737C308.192 642.735 308.156 642.734 308.132 642.733C308.12 642.733 308.111 642.732 308.105 642.732C308.102 642.732 308.1 642.732 308.098 642.732C308.098 642.732 308.097 642.732 308.097 642.732C308.096 642.732 308.096 642.732 308.044 644.231C307.992 645.73 307.993 645.73 307.993 645.73C307.993 645.73 307.994 645.73 307.995 645.73C307.996 645.73 307.999 645.73 308.002 645.73C308.008 645.731 308.017 645.731 308.029 645.731C308.053 645.732 308.09 645.733 308.137 645.735C308.233 645.738 308.375 645.743 308.561 645.749C308.934 645.761 309.483 645.779 310.19 645.801C311.606 645.845 313.655 645.906 316.192 645.974C321.266 646.109 328.294 646.271 336.11 646.38C351.723 646.596 370.537 646.597 383.179 645.727L382.973 642.735ZM308.044 644.231C308.081 642.731 308.081 642.731 308.081 642.731C308.081 642.731 308.08 642.731 308.08 642.731C308.078 642.731 308.076 642.731 308.074 642.731C308.069 642.731 308.061 642.731 308.051 642.731C308.03 642.73 308 642.729 307.959 642.728C307.877 642.726 307.756 642.723 307.596 642.718C307.277 642.71 306.806 642.696 306.201 642.677C304.992 642.639 303.247 642.58 301.107 642.495C296.826 642.326 290.968 642.053 284.657 641.642C271.958 640.813 257.664 639.434 250.562 637.262L249.685 640.131C257.184 642.425 271.85 643.813 284.462 644.635C290.805 645.049 296.69 645.323 300.988 645.493C303.137 645.578 304.891 645.638 306.107 645.676C306.716 645.695 307.19 645.708 307.513 645.717C307.674 645.722 307.797 645.725 307.88 645.727C307.922 645.728 307.953 645.729 307.975 645.73C307.985 645.73 307.993 645.73 307.999 645.73C308.002 645.73 308.004 645.73 308.005 645.73C308.006 645.73 308.006 645.731 308.007 645.731C308.007 645.731 308.007 645.731 308.044 644.231ZM246.003 277.143C264.784 267.307 279.911 263.361 285 262.852L284.701 259.867C279.105 260.426 263.599 264.541 244.611 274.485L246.003 277.143ZM285.156 262.828C307.558 258.17 331.762 257.661 346.587 257.534L346.561 254.534C331.728 254.661 307.263 255.167 284.545 259.891L285.156 262.828ZM432.114 266.992C450.634 271.991 471.324 281.866 491.99 299.4L493.931 297.113C472.927 279.291 451.841 269.209 432.896 264.095L432.114 266.992ZM346.587 257.534C361.446 257.407 385.903 257.539 399.445 259.672L399.912 256.708C386.078 254.529 361.359 254.408 346.561 254.534L346.587 257.534ZM399.3 259.641C407.17 261.695 415.401 263.539 421.659 264.868C424.79 265.533 427.429 266.07 429.287 266.441C430.216 266.626 430.949 266.77 431.451 266.868C431.702 266.917 431.895 266.954 432.025 266.979C432.09 266.992 432.14 267.001 432.173 267.007C432.19 267.011 432.203 267.013 432.211 267.015C432.216 267.015 432.219 267.016 432.221 267.017C432.222 267.017 432.223 267.017 432.224 267.017C432.224 267.017 432.224 267.017 432.224 267.017C432.224 267.017 432.225 267.017 432.505 265.544C432.785 264.07 432.785 264.07 432.785 264.07C432.785 264.07 432.785 264.07 432.785 264.07C432.784 264.07 432.783 264.07 432.782 264.07C432.781 264.069 432.778 264.069 432.773 264.068C432.765 264.066 432.753 264.064 432.737 264.061C432.705 264.055 432.656 264.045 432.592 264.033C432.463 264.008 432.273 263.971 432.024 263.923C431.527 263.826 430.798 263.683 429.874 263.499C428.026 263.13 425.399 262.596 422.283 261.934C416.047 260.609 407.865 258.776 400.057 256.738L399.3 259.641ZM184.441 540.085C184.837 536.401 183.76 532.538 181.996 528.55C180.229 524.556 177.687 520.256 174.981 515.688C169.529 506.485 163.311 496.025 160.457 483.795L157.535 484.477C160.511 497.225 166.978 508.066 172.4 517.217C175.13 521.825 177.572 525.965 179.253 529.764C180.936 533.57 181.771 536.855 181.459 539.765L184.441 540.085ZM160.457 483.795C157.564 471.401 155.625 456.738 154.545 443.91C153.462 431.049 153.252 420.173 153.77 415.319L150.787 415.001C150.237 420.161 150.471 431.283 151.556 444.162C152.643 457.074 154.598 471.892 157.535 484.477L160.457 483.795ZM152.279 415.16C152.345 416.659 152.345 416.659 152.345 416.659C152.345 416.659 152.346 416.659 152.347 416.659C152.348 416.658 152.351 416.658 152.354 416.658C152.362 416.658 152.372 416.657 152.387 416.657C152.416 416.656 152.461 416.654 152.52 416.651C152.638 416.647 152.816 416.64 153.049 416.632C153.517 416.616 154.209 416.595 155.106 416.575C156.899 416.533 159.506 416.494 162.757 416.502C169.259 416.517 178.328 416.723 188.591 417.48C209.16 418.999 234.349 422.725 253.296 431.483L254.555 428.76C235.099 419.767 209.465 416.013 188.811 414.488C178.462 413.724 169.32 413.518 162.764 413.502C159.486 413.494 156.852 413.533 155.037 413.575C154.129 413.596 153.425 413.618 152.947 413.634C152.708 413.642 152.526 413.649 152.402 413.654C152.341 413.656 152.294 413.658 152.262 413.659C152.246 413.66 152.234 413.661 152.226 413.661C152.222 413.661 152.219 413.661 152.216 413.661C152.215 413.661 152.214 413.661 152.214 413.662C152.213 413.662 152.213 413.662 152.279 415.16ZM533.552 360.638C536.738 367.482 539.781 377.183 542.117 388.075L545.05 387.446C542.686 376.423 539.585 366.488 536.272 359.372L533.552 360.638ZM542.117 388.075C545.704 404.8 547.584 424.138 545.842 439.974L548.824 440.302C550.613 424.044 548.679 404.366 545.05 387.446L542.117 388.075ZM448.188 431.735C465.863 419.484 492.248 404.712 509.983 397.792L508.892 394.997C490.885 402.024 464.292 416.923 446.479 429.269L448.188 431.735ZM509.983 397.792C518.817 394.345 527.267 392.207 533.512 390.932C536.633 390.295 539.198 389.874 540.979 389.613C541.869 389.483 542.563 389.392 543.032 389.334C543.267 389.305 543.445 389.285 543.564 389.272C543.623 389.265 543.667 389.26 543.696 389.257C543.71 389.255 543.721 389.254 543.728 389.254C543.731 389.253 543.733 389.253 543.735 389.253C543.735 389.253 543.736 389.253 543.736 389.253C543.736 389.253 543.736 389.253 543.736 389.253C543.736 389.253 543.736 389.253 543.584 387.761C543.431 386.268 543.431 386.268 543.431 386.268C543.431 386.268 543.43 386.268 543.43 386.268C543.429 386.269 543.428 386.269 543.427 386.269C543.424 386.269 543.42 386.269 543.416 386.27C543.407 386.271 543.394 386.272 543.377 386.274C543.343 386.278 543.294 386.283 543.229 386.29C543.101 386.305 542.912 386.327 542.666 386.357C542.176 386.417 541.458 386.511 540.544 386.645C538.715 386.913 536.094 387.343 532.912 387.993C526.552 389.291 517.928 391.471 508.892 394.997L509.983 397.792ZM253.296 431.483C271.656 439.97 303.807 454.536 320.441 464.747L322.01 462.19C305.184 451.86 272.809 437.198 254.555 428.76L253.296 431.483ZM320.441 464.747C328.774 469.862 339.68 477.268 348.959 483.455C353.587 486.54 357.814 489.325 361.092 491.352C362.729 492.364 364.151 493.202 365.28 493.797C365.843 494.094 366.355 494.342 366.798 494.524C367.2 494.688 367.69 494.86 368.155 494.889L368.338 491.894C368.398 491.898 368.296 491.895 367.935 491.748C367.617 491.617 367.199 491.417 366.679 491.143C365.641 490.596 364.287 489.801 362.67 488.801C359.441 486.804 355.253 484.045 350.623 480.959C341.387 474.801 330.407 467.345 322.01 462.19L320.441 464.747ZM368.155 494.889C368.702 494.922 369.211 494.747 369.583 494.585C369.987 494.408 370.416 494.161 370.854 493.875C371.731 493.301 372.785 492.48 373.973 491.483C376.354 489.483 379.42 486.65 382.939 483.362C390 476.762 398.96 468.257 408.24 460.566L406.326 458.256C396.961 466.018 387.924 474.596 380.89 481.17C377.361 484.469 374.354 487.245 372.044 489.185C370.886 490.157 369.94 490.888 369.213 491.363C368.848 491.601 368.574 491.752 368.381 491.836C368.155 491.935 368.172 491.884 368.338 491.894L368.155 494.889ZM408.24 460.566C427.567 444.549 430.356 444.094 448.188 431.735L446.479 429.269C428.824 441.506 425.784 442.13 406.326 458.256L408.24 460.566Z" fill="black"/>
</svg>
