<svg width="701" height="900" viewBox="0 0 701 900" fill="none" xmlns="http://www.w3.org/2000/svg">
<path d="M265.227 448.748C266.388 450.524 259.219 452.508 255.665 456.602C252.111 460.696 250.858 463.844 250.17 465.493C249.481 467.142 248.564 469.441 247.13 474.085C245.696 478.729 245.674 480.554 247.795 483.969C249.917 487.384 243.802 488.632 242.281 486.515C240.76 484.398 239.549 480.164 240.163 475.519C240.776 470.875 243.167 462.407 244.943 459.539C246.719 456.67 250.822 450.592 254.914 447.655C259.006 444.719 260.22 443.916 261.607 444.377C262.995 444.838 264.066 446.972 265.227 448.748Z" fill="#183716"/>
<path d="M438.236 456.87C438.236 456.87 446.966 460.723 449.709 465.067C452.453 469.411 452.808 473.704 453.672 478.251C454.536 482.798 457.533 485.466 459.82 484.373C462.106 483.281 461.039 480.08 460.328 476.371L460.275 476.097C459.598 472.562 459.217 470.575 457.508 466.439C455.755 462.196 453.824 458.208 449.912 454.702C446 451.197 438.236 448.84 438.236 448.84V456.87Z" fill="#183716"/>
<path d="M376.05 538.413C376.05 542.781 376.544 550.49 376.511 555.694C376.479 560.899 377.064 569.096 378.463 571.341C379.862 573.585 382.779 575.166 385.457 575.667C388.135 576.168 390.6 575.686 391.019 573.65C391.438 571.614 386.476 570.428 384.936 569.096C383.397 567.764 383.679 556.706 383.635 551.173C383.592 545.64 383.592 530.623 382.822 530.81C382.052 530.997 377.689 531.515 376.674 531.786C375.66 532.057 376.05 534.046 376.05 538.413Z" fill="#183716"/>
<path d="M333.768 536.577C335.581 536.791 334.699 541.537 334.393 545.698C334.088 549.858 334.088 558.285 334.088 562.872C334.088 567.458 333.647 575.681 335.048 576.099C336.449 576.516 339.954 576.099 339.901 578.979C339.848 581.859 336.701 581.912 334.088 581.485C331.474 581.059 329.127 578.979 328.221 576.952C327.314 574.925 326.351 566.444 326.354 561.698C326.357 556.952 326.4 536.152 327.581 536.311C328.761 536.469 331.954 536.364 333.768 536.577Z" fill="#183716"/>
<path fill-rule="evenodd" clip-rule="evenodd" d="M357.418 535.721C336.433 536.67 322.815 525.867 308.648 514.557C294.481 503.247 289.572 482.081 289.042 465.622C288.513 449.163 302.592 421.278 308.079 408.963C313.566 396.647 316.701 374.807 322.86 358.989C329.019 343.171 345.592 335.726 360.709 334.83C375.826 333.934 388.816 343.418 394.527 352.859C400.238 362.3 408.387 387.99 411.436 396.419C414.485 404.848 431.847 437.696 431.48 458.903C431.114 480.111 421.756 496.425 411.1 510.638C400.444 524.851 378.402 534.772 357.418 535.721ZM328.936 442.619C336.894 428.277 350.449 427.053 360.593 426.353C370.738 425.654 379.133 428.627 388.49 434.923C397.847 441.22 404.931 459.497 403.444 472.265C401.958 485.032 397.48 491.768 390.589 496.838C383.424 502.109 374.669 506.079 366.015 506.503C357.778 506.907 346.601 504.796 337.856 498.063C329.111 491.329 324.21 485.828 322.815 474.888C321.052 461.073 320.978 456.961 328.936 442.619Z" fill="#FFFAD2"/>
<path fill-rule="evenodd" clip-rule="evenodd" d="M357.418 541.425C339.681 540.297 320.612 535.286 307.183 526.539C293.755 517.792 291.73 511.87 285.011 502.576C278.292 493.281 274.821 474.245 274.709 459.24C274.597 444.234 291.058 413.216 295.702 400.835C300.346 388.453 303.07 367.497 310.99 352.859C318.911 338.221 339.881 329.12 350.295 328.224C360.709 327.328 385.793 327.664 398.334 344.461C410.876 361.258 416.251 379.734 421.178 392.836C426.105 405.937 443.126 439.646 442.262 459.934C441.398 480.223 437.079 493.953 433.884 499.278C430.688 504.602 424.985 514.669 412.556 524.523C400.126 534.377 375.155 542.552 357.418 541.425ZM308.648 514.557C322.815 525.867 336.433 536.67 357.418 535.721C378.402 534.772 400.444 524.851 411.1 510.638C421.756 496.425 431.114 480.111 431.48 458.903C431.847 437.696 414.485 404.848 411.436 396.419C408.387 387.99 400.238 362.3 394.527 352.859C388.816 343.418 375.826 333.934 360.709 334.83C345.592 335.726 329.019 343.171 322.86 358.989C316.701 374.807 313.566 396.647 308.079 408.963C302.592 421.278 288.513 449.163 289.042 465.622C289.572 482.081 294.481 503.247 308.648 514.557Z" fill="#A4D277"/>
<path fill-rule="evenodd" clip-rule="evenodd" d="M354.214 549.047C337.977 548.711 306.856 547.255 288.483 533.034C270.109 518.813 265.415 511.422 260.823 503.471C256.232 495.521 250.745 476.932 250.186 465.622C249.628 454.312 255.337 430.685 259.928 421.167C264.519 411.648 271.798 393.844 276.613 383.765C281.428 373.687 288.147 350.172 299.904 337.63C311.662 325.088 333.386 319.154 344.92 318.258C356.454 317.362 376.386 317.921 395.647 334.83C414.907 351.739 419.498 375.255 424.761 387.461C430.024 399.667 445.375 427.192 448.002 449.728C450.629 472.265 448.28 477.049 442.262 493.174C436.244 509.299 425.209 521.956 412.556 531.69C399.902 541.425 370.451 549.383 354.214 549.047ZM307.183 526.539C320.612 535.286 339.681 540.297 357.418 541.425C375.155 542.552 400.126 534.377 412.556 524.523C424.985 514.669 430.688 504.602 433.884 499.278C437.079 493.953 441.398 480.223 442.262 459.934C443.126 439.646 426.105 405.937 421.178 392.836C416.251 379.734 410.876 361.258 398.334 344.461C385.793 327.664 360.709 327.328 350.295 328.224C339.881 329.12 318.911 338.221 310.99 352.859C303.07 367.497 300.346 388.453 295.702 400.835C291.058 413.216 274.597 444.234 274.709 459.24C274.821 474.245 278.292 493.281 285.011 502.576C291.73 511.87 293.755 517.792 307.183 526.539Z" fill="#335127"/>
<path fill-rule="evenodd" clip-rule="evenodd" d="M360.593 426.353C350.449 427.053 336.894 428.277 328.936 442.619C320.978 456.961 321.052 461.073 322.815 474.888C324.21 485.828 329.111 491.329 337.856 498.063C346.601 504.796 357.778 506.907 366.015 506.503C374.669 506.079 383.424 502.109 390.589 496.838C397.48 491.768 401.958 485.032 403.444 472.265C404.931 459.497 397.847 441.22 388.49 434.923C379.133 428.627 370.738 425.654 360.593 426.353ZM370.477 438.09C371.616 440.097 375.634 441.087 378.123 443.45C380.613 445.812 382.194 449.51 386.151 450.283C390.107 451.056 391.276 448.561 391.206 445.711C391.136 442.86 386.374 438.649 383.56 436.464C380.745 434.279 375.041 432.316 372.611 432.704C370.181 433.093 369.338 436.082 370.477 438.09Z" fill="#AC612A"/>
<path d="M378.123 443.45C375.634 441.087 371.616 440.097 370.477 438.09C369.338 436.082 370.181 433.093 372.611 432.704C375.041 432.316 380.745 434.279 383.56 436.464C386.374 438.649 391.136 442.86 391.206 445.711C391.276 448.561 390.107 451.056 386.151 450.283C382.194 449.51 380.613 445.812 378.123 443.45Z" fill="#C16B30"/>
<path d="M265.227 448.748C266.388 450.524 259.219 452.508 255.665 456.602C252.111 460.696 250.858 463.844 250.17 465.493C249.481 467.142 248.564 469.441 247.13 474.085C245.696 478.729 245.674 480.554 247.795 483.969C249.917 487.384 243.802 488.632 242.281 486.515C240.76 484.398 239.549 480.164 240.163 475.519C240.776 470.875 243.167 462.407 244.943 459.539C246.719 456.67 250.822 450.592 254.914 447.655C259.006 444.719 260.22 443.916 261.607 444.377C262.995 444.838 264.066 446.972 265.227 448.748Z" fill="#183716"/>
<path d="M378.019 370.838C376.739 370.918 375.504 372.037 375.584 373.433C375.665 374.829 376.95 375.675 378.26 375.653C379.571 375.63 380.659 374.587 380.659 373.164C380.659 371.741 379.298 370.757 378.019 370.838Z" fill="#44300F"/>
<path d="M346.813 370.759C345.533 370.839 344.298 371.958 344.379 373.354C344.459 374.75 345.744 375.596 347.055 375.574C348.365 375.551 349.453 374.508 349.453 373.085C349.453 371.662 348.093 370.678 346.813 370.759Z" fill="#44300F"/>
<path d="M352.877 380.071C352.877 380.071 357.785 381.082 362.285 381.034C366.784 380.985 372.005 380.24 372.005 380.24M378.019 370.838C376.739 370.918 375.504 372.037 375.584 373.433C375.665 374.829 376.95 375.675 378.26 375.653C379.571 375.63 380.659 374.587 380.659 373.164C380.659 371.741 379.298 370.757 378.019 370.838ZM346.813 370.759C345.533 370.839 344.298 371.958 344.379 373.354C344.459 374.75 345.744 375.596 347.055 375.574C348.365 375.551 349.453 374.508 349.453 373.085C349.453 371.662 348.093 370.678 346.813 370.759Z" stroke="#44300F" stroke-linecap="round"/>
</svg>
