<svg width="700" height="900" viewBox="0 0 700 900" fill="none" xmlns="http://www.w3.org/2000/svg">
<path d="M194.438 377.015L239.139 399.892M463.347 404.468L505.233 373.846" stroke="black" stroke-width="4" stroke-linecap="round"/>
<path d="M488.645 405.15C466.654 410.676 469.893 446.23 473.907 460.644C477.922 475.058 495.092 502.092 514.434 493.918C533.777 485.743 531.869 456.5 527.905 442.798C523.941 429.097 510.635 399.623 488.645 405.15Z" fill="black"/>
<path d="M488.401 404.18C476.781 407.1 471.984 417.941 470.532 429.439C469.074 440.981 470.91 453.609 472.944 460.912L474.871 460.376C472.89 453.265 471.099 440.909 472.516 429.689C473.939 418.424 478.517 408.726 488.888 406.119L488.401 404.18ZM472.944 460.912C474.993 468.267 480.367 478.777 487.7 486.443C495.017 494.091 504.574 499.17 514.824 494.839L514.045 492.996C504.952 496.839 496.253 492.489 489.146 485.06C482.055 477.649 476.837 467.435 474.871 460.376L472.944 460.912ZM514.824 494.839C524.962 490.554 529.432 480.776 530.9 470.573C532.369 460.36 530.879 449.479 528.866 442.52L526.944 443.076C528.896 449.819 530.341 460.41 528.92 470.288C527.497 480.176 523.25 489.106 514.045 492.996L514.824 494.839ZM528.866 442.52C526.863 435.598 522.499 424.673 515.822 416.147C509.151 407.629 499.963 401.274 488.401 404.18L488.888 406.119C499.316 403.499 507.776 409.117 514.247 417.38C520.712 425.634 524.983 436.296 526.944 443.076L528.866 442.52Z" fill="black"/>
<path d="M487.428 416.633C480.762 416.673 475.983 424.063 475.742 430.408C475.501 436.753 481.096 442.014 487.428 442.376C493.761 442.737 499.419 435.468 499.419 429.082C499.419 422.695 494.095 416.593 487.428 416.633Z" fill="white"/>
<path d="M499.637 442.094C495.001 441.773 493.412 445.669 493.412 448.199C493.412 450.729 494.863 453.982 499.419 454.223C503.974 454.464 505.26 449.926 505.219 448.199C505.179 446.472 504.273 442.416 499.637 442.094Z" fill="white"/>
<path d="M207.663 412.072C192.811 410.576 177.026 422.776 171.269 451.789C165.512 480.803 174.387 499.685 189.469 503.139C204.55 506.593 223.248 484.645 227.102 459.734C230.957 434.822 222.515 413.569 207.663 412.072Z" fill="black"/>
<path d="M207.763 411.077C192.159 409.505 176.09 422.353 170.288 451.595L172.25 451.984C177.961 423.199 193.463 411.646 207.563 413.067L207.763 411.077ZM170.288 451.595C167.385 466.225 168.15 478.403 171.621 487.409C175.101 496.434 181.319 502.298 189.245 504.114L189.692 502.164C182.537 500.526 176.777 495.222 173.488 486.689C170.191 478.138 169.396 466.367 172.25 451.984L170.288 451.595ZM189.245 504.114C197.34 505.968 206.135 500.985 213.253 492.726C220.418 484.414 226.135 472.525 228.091 459.887L226.114 459.581C224.215 471.854 218.656 483.395 211.738 491.42C204.774 499.5 196.678 503.764 189.692 502.164L189.245 504.114ZM228.091 459.887C230.039 447.293 228.891 435.564 225.325 426.747C221.764 417.945 215.701 411.877 207.763 411.077L207.563 413.067C214.478 413.764 220.062 419.071 223.471 427.498C226.874 435.91 228.02 447.262 226.114 459.581L228.091 459.887Z" fill="black"/>
<path d="M207.674 423.821C202.325 423.875 195.899 428.392 195.538 436.72C195.178 445.047 201.468 449.937 207.416 450.253C213.365 450.569 218.678 447.135 219.141 437.8C219.604 428.464 213.022 423.767 207.674 423.821Z" fill="white"/>
<path d="M195.538 448.813C191.367 448.813 189.326 452.869 189.476 455.601C189.627 458.333 191.676 461.618 195.538 461.669C199.401 461.72 201.355 457.247 201.355 455.344C201.355 453.441 199.71 448.813 195.538 448.813Z" fill="white"/>
</svg>
