<svg width="700" height="900" viewBox="0 0 700 900" fill="none" xmlns="http://www.w3.org/2000/svg">
<path d="M512.027 394.401C506.382 387.871 480.526 412.824 480.526 412.824L350.429 651.656C379.292 659.18 450.226 651.656 450.226 651.656C450.226 651.656 465.604 622.904 476.965 572.597C488.326 522.289 499.024 508.836 501.06 505.409C505.493 497.946 512.027 487.685 515.993 473.226C519.96 458.767 521.43 439.929 520.893 426.584C520.356 413.238 517.671 400.931 512.027 394.401Z" fill="#272727"/>
<path d="M216.857 514.038C192.644 540.044 182.198 559.543 179.062 579.478C172.428 621.644 198.319 651.814 216.856 651.656C244.157 651.423 325.229 647.691 350.429 651.656L480.526 412.824C480.526 412.824 462.326 345.66 456.822 329.206C451.319 312.751 438.526 280.594 431.993 268.001C425.459 255.408 416.659 246.106 409.592 245.146C402.526 244.186 397.926 247.944 393.464 257.104C389.003 266.263 376.925 321.639 357.792 358.253C338.658 394.867 318.127 416.092 299.458 438.478C280.789 460.863 216.857 514.038 216.857 514.038Z" fill="#3D3D3D"/>
<path d="M216.856 651.656L216.869 653.156L216.856 651.656ZM216.857 514.038L215.898 512.885L215.825 512.946L215.76 513.016L216.857 514.038ZM501.06 505.409L499.77 504.643L501.06 505.409ZM450.226 651.656L450.384 653.148L451.174 653.064L451.548 652.363L450.226 651.656ZM179.062 579.478L180.544 579.711L179.062 579.478ZM216.857 514.038C217.817 515.191 217.817 515.191 217.817 515.19C217.818 515.19 217.819 515.189 217.82 515.189C217.822 515.187 217.825 515.184 217.829 515.181C217.836 515.175 217.848 515.165 217.864 515.152C217.895 515.126 217.941 515.088 218.002 515.037C218.124 514.935 218.305 514.784 218.542 514.586C219.015 514.191 219.712 513.608 220.605 512.858C222.392 511.359 224.964 509.193 228.109 506.523C234.399 501.184 242.981 493.832 252.147 485.779C270.442 469.707 291.187 450.738 300.61 439.438L298.306 437.517C289.061 448.603 268.505 467.414 250.167 483.525C241.017 491.564 232.449 498.905 226.168 504.236C223.028 506.901 220.459 509.064 218.677 510.56C217.785 511.308 217.09 511.89 216.618 512.284C216.382 512.481 216.202 512.631 216.081 512.732C216.02 512.783 215.975 512.821 215.944 512.847C215.929 512.859 215.917 512.869 215.91 512.875C215.906 512.878 215.903 512.881 215.901 512.882C215.9 512.883 215.899 512.884 215.899 512.884C215.898 512.884 215.898 512.885 216.857 514.038ZM300.61 439.438C319.222 417.121 339.894 395.742 359.121 358.948L356.462 357.558C337.423 393.992 317.031 415.064 298.306 437.517L300.61 439.438ZM359.121 358.948C368.756 340.51 376.592 317.4 382.565 297.821C385.553 288.026 388.085 279.081 390.139 272.044C392.216 264.929 393.768 259.906 394.813 257.761L392.116 256.447C390.93 258.881 389.299 264.215 387.259 271.203C385.196 278.27 382.676 287.174 379.696 296.945C373.731 316.498 365.961 339.382 356.462 357.558L359.121 358.948ZM394.813 257.761C397.006 253.258 399.145 250.279 401.458 248.525C403.698 246.826 406.206 246.199 409.39 246.632L409.794 243.659C405.912 243.132 402.586 243.904 399.645 246.135C396.775 248.311 394.384 251.79 392.116 256.447L394.813 257.761ZM409.39 246.632C412.424 247.044 416.096 249.319 419.916 253.256C423.694 257.149 427.447 262.496 430.661 268.692L433.324 267.31C430.005 260.913 426.091 255.312 422.069 251.166C418.089 247.064 413.828 244.208 409.794 243.659L409.39 246.632ZM430.661 268.692C437.144 281.188 449.908 313.264 455.4 329.681L458.245 328.73C452.729 312.239 439.908 280.001 433.324 267.31L430.661 268.692ZM455.4 329.681C458.136 337.863 464.05 358.722 469.293 377.587C471.911 387.008 474.358 395.916 476.15 402.468C477.046 405.745 477.778 408.432 478.286 410.3C478.54 411.234 478.738 411.963 478.873 412.459C478.94 412.707 478.992 412.896 479.026 413.024C479.044 413.088 479.057 413.136 479.065 413.168C479.07 413.184 479.073 413.196 479.075 413.205C479.076 413.209 479.077 413.212 479.078 413.214C479.078 413.215 479.078 413.215 479.078 413.216C479.079 413.216 479.079 413.217 480.526 412.824C481.974 412.432 481.974 412.432 481.974 412.431C481.974 412.431 481.974 412.43 481.973 412.429C481.973 412.427 481.972 412.424 481.971 412.42C481.969 412.412 481.965 412.399 481.961 412.383C481.952 412.351 481.939 412.302 481.922 412.239C481.887 412.111 481.836 411.921 481.768 411.673C481.634 411.177 481.435 410.447 481.181 409.512C480.672 407.643 479.94 404.955 479.043 401.677C477.251 395.122 474.803 386.21 472.184 376.784C466.95 357.953 461.012 337.003 458.245 328.73L455.4 329.681ZM480.526 412.824C481.568 413.904 481.568 413.904 481.568 413.904C481.568 413.904 481.568 413.903 481.569 413.903C481.569 413.902 481.57 413.902 481.572 413.9C481.575 413.897 481.579 413.893 481.585 413.888C481.596 413.876 481.614 413.859 481.638 413.836C481.686 413.791 481.757 413.722 481.851 413.633C482.039 413.455 482.316 413.193 482.671 412.862C483.382 412.199 484.406 411.258 485.652 410.148C488.148 407.925 491.523 405.038 495.065 402.36C498.625 399.668 502.274 397.246 505.329 395.897C506.864 395.219 508.141 394.861 509.121 394.816C510.069 394.772 510.578 395.019 510.892 395.382L513.161 393.42C512.064 392.15 510.53 391.748 508.984 391.819C507.47 391.889 505.801 392.409 504.117 393.153C500.737 394.646 496.864 397.238 493.255 399.967C489.627 402.711 486.186 405.655 483.657 407.907C482.391 409.035 481.35 409.992 480.625 410.668C480.263 411.006 479.979 411.274 479.785 411.458C479.688 411.55 479.614 411.621 479.563 411.67C479.538 411.694 479.519 411.712 479.506 411.725C479.499 411.731 479.494 411.736 479.49 411.74C479.489 411.741 479.487 411.743 479.486 411.743C479.486 411.744 479.485 411.744 479.485 411.745C479.485 411.745 479.485 411.745 480.526 412.824ZM510.892 395.382C513.503 398.402 515.508 402.864 516.923 408.313C518.333 413.744 519.129 420.045 519.395 426.644L522.392 426.524C522.121 419.777 521.305 413.252 519.827 407.56C518.354 401.886 516.195 396.929 513.161 393.42L510.892 395.382ZM519.395 426.644C519.927 439.871 518.464 458.55 514.547 472.829L517.44 473.623C521.456 458.984 522.934 439.987 522.392 426.524L519.395 426.644ZM514.547 472.829C510.642 487.061 504.22 497.152 499.77 504.643L502.35 506.175C506.766 498.74 513.411 488.309 517.44 473.623L514.547 472.829ZM351.746 652.373L481.844 413.542L479.209 412.107L349.112 650.938L351.746 652.373ZM216.869 653.156C230.507 653.039 257.695 652.047 284.456 651.581C311.335 651.114 337.754 651.18 350.196 653.138L350.662 650.174C337.905 648.167 311.187 648.116 284.404 648.582C257.505 649.049 230.506 650.039 216.844 650.156L216.869 653.156ZM350.051 653.107C364.735 656.935 389.908 656.915 411.217 655.976C421.912 655.505 431.701 654.798 438.815 654.209C442.373 653.914 445.263 653.649 447.264 653.458C448.265 653.362 449.044 653.284 449.573 653.231C449.837 653.204 450.04 653.183 450.176 653.169C450.244 653.162 450.296 653.157 450.331 653.153C450.348 653.151 450.361 653.15 450.37 653.149C450.374 653.148 450.378 653.148 450.38 653.148C450.381 653.148 450.382 653.148 450.383 653.148C450.383 653.148 450.384 653.148 450.226 651.656C450.067 650.164 450.067 650.164 450.067 650.164C450.066 650.164 450.066 650.164 450.065 650.165C450.063 650.165 450.059 650.165 450.055 650.166C450.047 650.166 450.034 650.168 450.018 650.169C449.984 650.173 449.933 650.178 449.867 650.185C449.733 650.199 449.533 650.22 449.271 650.246C448.747 650.299 447.974 650.376 446.978 650.471C444.988 650.662 442.111 650.926 438.567 651.219C431.48 651.806 421.731 652.51 411.085 652.979C389.711 653.921 364.986 653.901 350.808 650.204L350.051 653.107ZM499.77 504.643C498.798 506.28 495.532 510.631 491.132 520.828C486.738 531.012 481.198 547.044 475.502 572.266L478.428 572.927C484.093 547.842 489.582 531.993 493.887 522.017C498.186 512.053 501.287 507.965 502.35 506.175L499.77 504.643ZM475.502 572.266C469.839 597.338 463.178 617.031 457.938 630.446C455.317 637.153 453.053 642.29 451.446 645.745C450.642 647.472 450.004 648.779 449.567 649.651C449.349 650.087 449.181 650.414 449.069 650.631C449.013 650.739 448.971 650.82 448.943 650.873C448.929 650.9 448.918 650.919 448.912 650.932C448.908 650.938 448.906 650.943 448.905 650.945C448.904 650.947 448.903 650.948 448.903 650.948C448.903 650.948 448.903 650.949 448.903 650.949C448.903 650.949 448.903 650.948 450.226 651.656C451.548 652.363 451.549 652.363 451.549 652.362C451.549 652.362 451.549 652.362 451.55 652.361C451.55 652.36 451.551 652.358 451.552 652.356C451.555 652.352 451.558 652.346 451.562 652.338C451.57 652.322 451.582 652.3 451.597 652.271C451.628 652.212 451.674 652.125 451.733 652.01C451.852 651.782 452.025 651.442 452.25 650.994C452.699 650.097 453.35 648.764 454.166 647.01C455.798 643.502 458.087 638.307 460.732 631.537C466.021 617.999 472.729 598.162 478.428 572.927L475.502 572.266ZM215.76 513.016C191.443 539.133 180.781 558.897 177.58 579.245L180.544 579.711C183.615 560.19 193.846 540.955 217.955 515.06L215.76 513.016ZM177.58 579.245C174.207 600.685 179.096 619.133 187.246 632.231C195.338 645.234 206.851 653.241 216.869 653.156L216.844 650.156C208.325 650.229 197.624 643.23 189.794 630.646C182.022 618.157 177.283 600.437 180.544 579.711L177.58 579.245Z" fill="black"/>
</svg>
