<svg width="700" height="900" viewBox="0 0 700 900" fill="none" xmlns="http://www.w3.org/2000/svg">
<path fill-rule="evenodd" clip-rule="evenodd" d="M236.368 393.553C253.51 408.438 280.096 444.895 272.243 451.508C268.402 454.743 241.438 474.226 214.025 494.032C209.174 497.538 204.309 501.053 199.556 504.49C199.556 504.49 181.06 502.033 171.046 487.813C164.969 479.185 162.328 474.063 159.196 467.989C157.166 464.052 154.929 459.715 151.417 453.764C146.612 445.621 143.898 438.378 141.171 431.103C138.83 424.857 136.48 418.586 132.79 411.703C132.427 411.025 132.062 410.339 131.695 409.649C123.987 395.17 115.094 378.465 92.5999 378.686C94.6352 367.149 97.5909 358.907 101.177 358.139C108.911 356.484 144.701 355.47 172.622 362.04C200.543 368.61 219.225 378.669 236.368 393.553Z" fill="#ECAE5A"/>
<path fill-rule="evenodd" clip-rule="evenodd" d="M441.724 400.957C427.813 412.851 419.207 420.209 435.065 440.468C444.392 452.383 461.374 475.579 477.145 497.152C477.145 497.152 501.323 489.415 515.143 479.2C528.963 468.986 544.385 451.16 552.797 439.343C557.377 432.91 560.769 427.902 564.815 421.928L564.819 421.922C568.205 416.923 572.05 411.246 577.433 403.491C589.25 386.466 606.722 384.664 606.722 384.664C606.12 368.933 604.406 363.936 600.676 357.127C595.104 346.954 553.947 353.327 528.855 357.213C526.717 357.544 524.696 357.857 522.823 358.14C498.97 361.746 466.265 378.832 448.728 394.83C446.31 397.036 443.949 399.054 441.724 400.957ZM482.054 503.869C481.163 502.65 480.266 501.422 479.363 500.187L479.359 500.182C480.263 501.419 481.162 502.649 482.054 503.869Z" fill="#ECAE5A"/>
<path d="M89.68 425.478C90.7199 454.732 108.654 499.222 118.422 511.294C128.19 523.365 145.111 545.374 152.502 539.009C155.637 536.309 176.256 521.338 199.556 504.49C199.556 504.49 181.06 502.033 171.046 487.813C164.969 479.185 162.328 474.063 159.196 467.989C157.166 464.052 154.929 459.715 151.417 453.764C146.612 445.621 143.898 438.378 141.171 431.103C138.83 424.857 136.48 418.586 132.79 411.703C132.427 411.025 132.062 410.339 131.695 409.649C123.987 395.17 115.094 378.465 92.5999 378.686C90.2452 392.032 89.1222 409.787 89.68 425.478Z" fill="#FFDFB3"/>
<path d="M586.849 485.175C596.681 468.001 605.754 449.688 606.722 423.747C607.093 413.808 607.097 394.435 606.722 384.664C606.722 384.664 589.25 386.466 577.433 403.491C572.05 411.246 568.205 416.923 564.819 421.922L564.815 421.928C560.769 427.902 557.377 432.91 552.797 439.343C544.385 451.16 528.963 468.986 515.143 479.2C501.323 489.415 477.145 497.152 477.145 497.152L479.359 500.182L479.363 500.187L482.054 503.869C495.43 522.166 507.195 538.226 511.558 543.622C521.478 555.892 536.006 540.205 555.388 523.259C574.724 506.354 577.005 502.369 586.778 485.298L586.849 485.175Z" fill="#FFDFB3"/>
<path d="M272.243 451.508L271.277 450.361L272.243 451.508ZM101.177 358.139L100.863 356.673L101.177 358.139ZM89.68 425.478L91.1791 425.425L91.1791 425.425L89.68 425.478ZM152.502 539.009L153.48 540.146L152.502 539.009ZM435.065 440.468L436.247 439.544L436.247 439.544L435.065 440.468ZM448.728 394.83L449.739 395.938L449.739 395.938L448.728 394.83ZM522.823 358.14L522.599 356.657L522.599 356.657L522.823 358.14ZM600.676 357.127L601.991 356.406L601.991 356.406L600.676 357.127ZM606.722 423.747L605.223 423.691L606.722 423.747ZM555.388 523.259L554.401 522.13L554.401 522.13L555.388 523.259ZM511.558 543.622L512.724 542.679L511.558 543.622ZM586.778 485.298L588.08 486.044L588.08 486.044L586.778 485.298ZM577.433 403.491L576.201 402.636L576.201 402.636L577.433 403.491ZM552.797 439.343L554.019 440.213L554.019 440.213L552.797 439.343ZM132.79 411.703L131.468 412.411L131.468 412.411L132.79 411.703ZM151.417 453.764L150.126 454.526L150.126 454.526L151.417 453.764ZM171.046 487.813L169.819 488.677L169.819 488.677L171.046 487.813ZM199.556 504.49L200.435 505.706L200.435 505.706L199.556 504.49ZM214.025 494.032L213.147 492.817L213.147 492.817L214.025 494.032ZM159.196 467.989L157.863 468.676L157.863 468.676L159.196 467.989ZM141.171 431.103L139.766 431.629L139.766 431.629L141.171 431.103ZM131.695 409.649L133.019 408.944L133.019 408.944L131.695 409.649ZM441.724 400.957L440.749 399.817L440.749 399.817L441.724 400.957ZM564.815 421.928L566.057 422.769L566.058 422.768L564.815 421.928ZM528.855 357.213L529.084 358.695L529.084 358.695L528.855 357.213ZM482.054 503.869L480.843 504.754L480.843 504.754L482.054 503.869ZM479.363 500.187L480.574 499.302L480.573 499.3L479.363 500.187ZM564.819 421.922L563.577 421.081L563.576 421.082L564.819 421.922ZM273.21 452.655C274.657 451.436 275.17 449.631 275.16 447.722C275.149 445.819 274.627 443.611 273.772 441.246C272.057 436.502 268.86 430.745 264.93 424.805C257.064 412.916 246.046 399.971 237.351 392.421L235.384 394.686C243.832 402.021 254.678 414.746 262.428 426.46C266.305 432.321 269.354 437.849 270.951 442.266C271.752 444.481 272.152 446.322 272.16 447.738C272.167 449.146 271.793 449.926 271.277 450.361L273.21 452.655ZM237.351 392.421C220.016 377.369 201.111 367.202 172.965 360.58L172.278 363.5C199.974 370.017 218.434 379.969 235.384 394.686L237.351 392.421ZM172.965 360.58C158.868 357.263 142.83 355.868 129.37 355.506C115.957 355.145 104.92 355.804 100.863 356.673L101.491 359.606C105.169 358.819 115.894 358.144 129.289 358.505C142.638 358.864 158.454 360.247 172.278 363.5L172.965 360.58ZM88.181 425.531C88.7089 440.383 93.5099 458.987 99.366 475.335C105.209 491.647 112.203 505.993 117.256 512.237L119.588 510.35C114.873 504.524 108.016 490.588 102.19 474.323C96.3771 458.095 91.691 439.827 91.1791 425.425L88.181 425.531ZM117.256 512.237C122.108 518.234 128.851 526.845 135.306 533.139C138.524 536.277 141.776 538.945 144.774 540.409C147.754 541.865 150.949 542.326 153.48 540.146L151.523 537.873C150.359 538.875 148.667 538.972 146.091 537.714C143.532 536.464 140.557 534.069 137.4 530.991C131.106 524.854 124.504 516.425 119.588 510.35L117.256 512.237ZM449.739 395.938C458.381 388.054 470.819 379.856 484.082 373.178C497.351 366.497 511.333 361.394 523.047 359.623L522.599 356.657C510.46 358.492 496.164 363.736 482.733 370.498C469.296 377.264 456.613 385.607 447.717 393.721L449.739 395.938ZM605.223 423.691C604.269 449.267 595.34 467.325 585.547 484.43L588.15 485.921C598.022 468.678 607.24 450.11 608.221 423.803L605.223 423.691ZM554.401 522.13C544.604 530.695 536.291 538.701 529.136 543.121C525.575 545.321 522.509 546.491 519.861 546.5C517.323 546.508 514.963 545.449 512.724 542.679L510.391 544.565C513.112 547.931 516.289 549.512 519.871 549.5C523.342 549.489 526.98 547.979 530.713 545.673C538.148 541.08 546.79 532.769 556.375 524.388L554.401 522.13ZM585.547 484.43L585.477 484.553L588.08 486.043L588.151 485.921L585.547 484.43ZM585.477 484.553C580.577 493.112 577.621 498.267 573.5 503.402C569.379 508.535 564.06 513.685 554.401 522.13L556.375 524.388C566.052 515.928 571.542 510.633 575.839 505.28C580.135 499.927 583.207 494.555 588.08 486.044L585.477 484.553ZM585.547 484.43C585.539 484.445 585.484 484.539 585.477 484.553L588.08 486.044C588.119 485.976 588.112 485.988 588.15 485.921L585.547 484.43ZM599.36 357.847C601.189 361.185 602.485 364.007 603.413 367.898C604.349 371.823 604.923 376.89 605.223 384.721L608.221 384.606C607.919 376.707 607.335 371.41 606.331 367.202C605.319 362.959 603.893 359.877 601.991 356.406L599.36 357.847ZM605.223 384.721C605.596 394.454 605.593 413.788 605.223 423.691L608.221 423.803C608.593 413.827 608.597 394.417 608.221 384.606L605.223 384.721ZM606.722 384.664C606.568 383.172 606.568 383.172 606.567 383.172C606.566 383.172 606.566 383.172 606.565 383.172C606.564 383.172 606.562 383.172 606.56 383.173C606.556 383.173 606.551 383.174 606.545 383.174C606.533 383.176 606.517 383.177 606.497 383.18C606.456 383.185 606.399 383.192 606.326 383.201C606.18 383.221 605.971 383.251 605.705 383.294C605.172 383.382 604.408 383.526 603.459 383.752C601.563 384.205 598.922 384.989 595.904 386.321C589.865 388.985 582.3 393.849 576.201 402.636L578.665 404.346C584.384 396.108 591.463 391.559 597.115 389.066C599.941 387.818 602.407 387.088 604.156 386.67C605.03 386.462 605.724 386.332 606.192 386.255C606.427 386.216 606.605 386.191 606.72 386.175C606.778 386.167 606.821 386.162 606.847 386.159C606.86 386.158 606.869 386.157 606.874 386.156C606.876 386.156 606.878 386.156 606.878 386.156C606.878 386.156 606.878 386.156 606.878 386.156C606.878 386.156 606.877 386.156 606.877 386.156C606.877 386.156 606.876 386.156 606.722 384.664ZM551.575 438.473C543.213 450.221 527.897 467.909 514.251 477.994L516.035 480.407C530.03 470.063 545.558 452.099 554.019 440.213L551.575 438.473ZM478.356 496.267C462.593 474.704 445.592 451.483 436.247 439.544L433.884 441.393C443.191 453.283 460.156 476.453 475.934 498.038L478.356 496.267ZM514.251 477.994C507.494 482.989 498.134 487.421 490.389 490.621C486.53 492.215 483.1 493.492 480.635 494.371C479.403 494.81 478.413 495.149 477.732 495.378C477.392 495.493 477.129 495.58 476.952 495.638C476.864 495.667 476.797 495.688 476.752 495.703C476.73 495.71 476.713 495.715 476.703 495.719C476.697 495.721 476.693 495.722 476.691 495.723C476.689 495.723 476.688 495.723 476.688 495.724C476.688 495.724 476.688 495.724 476.687 495.724C476.687 495.724 476.687 495.724 477.145 497.152C477.602 498.581 477.602 498.581 477.602 498.581C477.603 498.581 477.603 498.581 477.603 498.58C477.604 498.58 477.606 498.58 477.607 498.579C477.611 498.578 477.616 498.577 477.622 498.575C477.634 498.57 477.653 498.565 477.676 498.557C477.724 498.541 477.795 498.518 477.887 498.488C478.071 498.428 478.341 498.339 478.689 498.222C479.385 497.988 480.392 497.642 481.642 497.197C484.142 496.305 487.62 495.01 491.534 493.393C499.333 490.171 508.972 485.627 516.035 480.407L514.251 477.994ZM100.863 356.673C99.4689 356.971 98.3346 357.945 97.4196 359.139C96.4911 360.35 95.6617 361.951 94.9145 363.816C93.4175 367.553 92.1481 372.613 91.1227 378.425L94.0771 378.946C95.087 373.222 96.3131 368.392 97.6993 364.932C98.3936 363.199 99.1028 361.874 99.8006 360.964C100.512 360.036 101.092 359.691 101.491 359.606L100.863 356.673ZM91.1227 378.425C88.7474 391.888 87.62 409.75 88.181 425.531L91.1791 425.425C90.6245 409.825 91.743 392.176 94.0771 378.946L91.1227 378.425ZM153.48 540.146C156.552 537.501 177.083 522.591 200.435 505.706L198.677 503.275C175.428 520.085 154.723 535.117 151.523 537.873L153.48 540.146ZM169.819 488.677C175.051 496.106 182.464 500.42 188.491 502.873C191.512 504.103 194.212 504.876 196.16 505.343C197.135 505.576 197.924 505.733 198.475 505.833C198.75 505.883 198.965 505.918 199.115 505.941C199.19 505.953 199.248 505.961 199.289 505.967C199.309 505.97 199.325 505.972 199.337 505.974C199.343 505.975 199.347 505.976 199.351 505.976C199.353 505.976 199.354 505.976 199.355 505.977C199.356 505.977 199.357 505.977 199.357 505.977C199.358 505.977 199.358 505.977 199.556 504.49C199.753 503.003 199.754 503.003 199.754 503.003C199.754 503.003 199.754 503.003 199.754 503.003C199.754 503.003 199.754 503.003 199.754 503.003C199.753 503.003 199.751 503.003 199.748 503.002C199.742 503.001 199.731 503 199.716 502.998C199.686 502.994 199.639 502.987 199.576 502.977C199.45 502.957 199.258 502.926 199.008 502.881C198.508 502.79 197.774 502.644 196.858 502.425C195.026 501.987 192.476 501.257 189.622 500.095C183.897 497.764 177.054 493.74 172.272 486.949L169.819 488.677ZM271.277 450.361C267.493 453.548 240.608 472.974 213.147 492.817L214.904 495.248C242.267 475.477 269.312 455.938 273.21 452.655L271.277 450.361ZM213.147 492.817C208.296 496.322 203.431 499.837 198.677 503.275L200.435 505.706C205.188 502.269 210.053 498.753 214.904 495.248L213.147 492.817ZM172.272 486.949C166.254 478.404 163.649 473.352 160.529 467.301L157.863 468.676C161.007 474.774 163.685 479.966 169.819 488.677L172.272 486.949ZM160.529 467.301C158.496 463.36 156.244 458.991 152.709 453.001L150.126 454.526C153.615 460.439 155.835 464.744 157.863 468.676L160.529 467.301ZM152.709 453.001C147.978 444.984 145.303 437.854 142.575 430.576L139.766 431.629C142.492 438.902 145.246 446.258 150.126 454.526L152.709 453.001ZM142.575 430.576C140.236 424.335 137.855 417.977 134.113 410.994L131.468 412.411C135.105 419.196 137.423 425.378 139.766 431.629L142.575 430.576ZM134.113 410.994C133.75 410.318 133.386 409.635 133.019 408.944L130.371 410.354C130.738 411.044 131.104 411.731 131.468 412.411L134.113 410.994ZM133.019 408.944C129.185 401.743 124.936 393.736 118.749 387.591C112.494 381.378 104.272 377.071 92.5852 377.186L92.6146 380.186C103.422 380.08 110.893 384.015 116.635 389.719C122.445 395.491 126.496 403.076 130.371 410.354L133.019 408.944ZM440.749 399.817C437.289 402.775 434.074 405.522 431.491 408.273C428.903 411.029 426.855 413.886 425.805 417.111C423.658 423.703 425.865 431.148 433.884 441.393L436.247 439.544C428.407 429.529 426.988 423.165 428.657 418.04C429.515 415.407 431.236 412.927 433.678 410.326C436.126 407.719 439.203 405.085 442.699 402.097L440.749 399.817ZM554.019 440.213C558.61 433.764 562.011 428.743 566.057 422.769L563.573 421.086C559.527 427.061 556.143 432.056 551.575 438.473L554.019 440.213ZM601.991 356.406C601.088 354.757 599.53 353.561 597.65 352.69C595.768 351.817 593.454 351.218 590.859 350.82C585.671 350.024 579.097 349.995 572 350.401C557.792 351.213 541.155 353.79 528.625 355.73L529.084 358.695C541.647 356.75 558.135 354.198 572.171 353.396C579.197 352.994 585.525 353.036 590.404 353.785C592.844 354.159 594.856 354.701 596.388 355.411C597.924 356.123 598.871 356.953 599.36 357.847L601.991 356.406ZM528.625 355.73C526.487 356.062 524.468 356.374 522.599 356.657L523.047 359.623C524.923 359.339 526.947 359.026 529.084 358.695L528.625 355.73ZM447.717 393.721C445.32 395.909 442.977 397.912 440.749 399.817L442.699 402.097C444.922 400.196 447.301 398.162 449.739 395.938L447.717 393.721ZM483.265 502.983C482.374 501.765 481.477 500.537 480.574 499.302L478.152 501.072C479.055 502.307 479.952 503.536 480.843 504.754L483.265 502.983ZM480.573 499.3L480.569 499.295L478.149 501.068L478.153 501.073L480.573 499.3ZM478.148 501.067C479.052 502.304 479.951 503.534 480.843 504.754L483.265 502.983C482.373 501.763 481.474 500.534 480.57 499.296L478.148 501.067ZM512.724 542.679C508.391 537.319 496.658 521.304 483.265 502.983L480.843 504.754C494.203 523.029 505.999 539.132 510.391 544.565L512.724 542.679ZM480.57 499.296C479.835 498.291 479.097 497.281 478.356 496.267L475.934 498.038C476.675 499.051 477.413 500.061 478.148 501.067L480.57 499.296ZM576.201 402.636C570.813 410.398 566.964 416.081 563.577 421.081L566.061 422.763C569.447 417.765 573.288 412.094 578.665 404.346L576.201 402.636ZM563.576 421.082L563.573 421.087L566.058 422.768L566.061 422.763L563.576 421.082ZM475.934 498.037L478.148 501.067L480.57 499.296L478.356 496.267L475.934 498.037ZM478.152 501.072L480.843 504.754L483.265 502.983L480.574 499.302L478.152 501.072Z" fill="black"/>
</svg>
