<svg width="700" height="900" viewBox="0 0 700 900" fill="none" xmlns="http://www.w3.org/2000/svg">
<path d="M244.405 682.257C276.171 689.36 304.787 691.445 343.904 691.971C383.021 692.496 444.978 685.932 475.956 678.056C506.935 670.181 529.25 663.092 545.79 647.34C562.329 631.589 569.155 602.185 567.842 575.67C566.529 549.154 547.85 525.789 543.387 518.176C538.924 510.562 545.79 469.709 539.589 439.941C533.388 410.174 515.599 393.736 498.009 374.309C480.419 354.882 452.912 340.6 444.738 336.574C436.565 332.548 444.738 326.205 435.509 323.482C423.496 320.045 410.221 317.092 396.306 314.861C389.542 313.776 391.649 323.088 381.182 321.325C370.716 319.562 362.286 320.073 349.477 320.229C336.668 320.385 327.507 320.096 321.041 321.325C314.576 322.554 315.61 315.331 308.647 316.237C294.402 318.091 281.148 320.804 270.309 324.015C263.864 325.925 271.189 331.472 263.34 334.256C255.492 337.04 208.456 360.92 196.642 374.309C184.828 387.698 164.858 410.013 157.769 439.941C150.681 469.87 158.133 509.811 154.982 518.474C151.832 527.138 134.142 546.529 131.516 572.257C128.891 597.985 136.401 617.412 151.155 636.314C165.908 655.216 212.638 675.154 244.405 682.257Z" fill="#ECAE5A"/>
<path d="M308.647 316.237C308.647 316.237 293.93 282.192 281.266 284.755C268.602 287.318 270.309 324.015 270.309 324.015C281.148 320.804 294.402 318.091 308.647 316.237Z" fill="white"/>
<path d="M425.89 284.755C412.028 282.017 396.306 314.861 396.306 314.861C410.221 317.092 423.496 320.045 435.509 323.482C435.509 323.482 439.752 287.493 425.89 284.755Z" fill="white"/>
<path d="M343.924 690.471C304.854 689.946 276.354 687.864 244.732 680.793L244.077 683.72C275.987 690.856 304.719 692.945 343.883 693.47L343.924 690.471ZM244.732 680.793C228.966 677.268 209.447 670.546 192.039 662.353C174.566 654.129 159.48 644.543 152.337 635.391L149.972 637.237C157.582 646.987 173.238 656.82 190.761 665.067C208.348 673.344 228.077 680.143 244.077 683.72L244.732 680.793ZM152.337 635.391C137.775 616.734 130.43 597.682 133.009 572.409L130.024 572.104C127.353 598.287 135.027 618.09 149.972 637.237L152.337 635.391ZM133.009 572.409C134.291 559.839 139.26 548.768 144.36 539.702C146.911 535.166 149.475 531.165 151.629 527.708C153.748 524.307 155.54 521.33 156.392 518.987L153.573 517.961C152.85 519.95 151.249 522.645 149.083 526.121C146.952 529.541 144.339 533.62 141.745 538.231C136.555 547.458 131.367 558.946 130.024 572.104L133.009 572.409ZM156.392 518.987C156.864 517.689 157.1 515.935 157.214 513.924C157.329 511.883 157.322 509.447 157.25 506.717C157.105 501.286 156.687 494.468 156.398 487.123C155.815 472.321 155.736 455.034 159.229 440.287L156.31 439.596C152.714 454.777 152.817 472.425 153.4 487.241C153.694 494.705 154.106 501.367 154.251 506.797C154.323 509.498 154.326 511.837 154.218 513.755C154.108 515.704 153.888 517.094 153.573 517.961L156.392 518.987ZM159.229 440.287C166.219 410.772 185.93 388.717 197.767 375.302L195.518 373.317C183.727 386.679 163.496 409.254 156.31 439.596L159.229 440.287ZM197.767 375.302C200.585 372.108 205.602 368.194 211.781 364.039C217.93 359.903 225.125 355.598 232.213 351.613C246.431 343.621 260.052 337.014 263.842 335.67L262.839 332.842C258.78 334.282 244.959 341.007 230.743 348.998C223.614 353.005 216.345 357.354 210.107 361.549C203.899 365.724 198.607 369.816 195.518 373.317L197.767 375.302ZM444.076 337.92C452.241 341.941 479.516 356.119 496.897 375.316L499.121 373.302C481.323 353.645 453.583 339.258 445.401 335.228L444.076 337.92ZM496.897 375.316C514.585 394.852 532.02 410.966 538.12 440.247L541.057 439.636C534.755 409.383 516.612 392.621 499.121 373.302L496.897 375.316ZM538.12 440.247C541.18 454.937 541.024 472.426 540.64 487.328C540.449 494.741 540.202 501.542 540.283 506.948C540.324 509.655 540.447 512.058 540.71 514.046C540.967 515.992 541.377 517.713 542.093 518.934L544.682 517.417C544.282 516.736 543.93 515.514 543.684 513.653C543.444 511.833 543.323 509.563 543.283 506.903C543.203 501.578 543.447 494.878 543.639 487.405C544.022 472.535 544.198 454.713 541.057 439.636L538.12 440.247ZM542.093 518.934C543.233 520.878 545.294 523.852 547.651 527.462C550.038 531.119 552.806 535.541 555.473 540.541C560.815 550.555 565.703 562.8 566.344 575.744L569.34 575.596C568.668 562.025 563.561 549.329 558.12 539.129C555.395 534.02 552.574 529.516 550.163 525.822C547.721 522.082 545.774 519.281 544.682 517.417L542.093 518.934ZM566.344 575.744C567.647 602.072 560.834 630.94 544.755 646.254L546.824 648.427C563.823 632.237 570.662 602.299 569.34 575.596L566.344 575.744ZM544.755 646.254C528.537 661.7 506.598 668.718 475.587 676.603L476.326 679.51C507.272 671.643 529.964 664.484 546.824 648.427L544.755 646.254ZM475.587 676.603C444.759 684.44 382.936 690.994 343.924 690.471L343.883 693.47C383.105 693.997 445.197 687.424 476.326 679.51L475.587 676.603ZM308.647 316.237C310.024 315.642 310.024 315.642 310.024 315.641C310.024 315.641 310.023 315.64 310.023 315.64C310.023 315.638 310.022 315.636 310.021 315.634C310.019 315.629 310.016 315.623 310.012 315.614C310.004 315.596 309.993 315.57 309.978 315.537C309.949 315.47 309.906 315.372 309.849 315.245C309.736 314.991 309.569 314.62 309.352 314.151C308.919 313.213 308.288 311.878 307.491 310.286C305.899 307.106 303.637 302.88 300.968 298.724C298.308 294.584 295.196 290.439 291.888 287.476C288.631 284.559 284.856 282.498 280.969 283.285L281.564 286.225C284.008 285.73 286.821 286.965 289.886 289.71C292.899 292.41 295.841 296.295 298.444 300.346C301.036 304.381 303.245 308.506 304.809 311.629C305.589 313.189 306.207 314.494 306.628 315.408C306.839 315.865 307.001 316.223 307.109 316.466C307.163 316.588 307.204 316.681 307.231 316.742C307.245 316.773 307.255 316.796 307.261 316.812C307.265 316.819 307.267 316.825 307.269 316.828C307.269 316.83 307.27 316.831 307.27 316.832C307.27 316.832 307.27 316.832 307.271 316.833C307.271 316.833 307.271 316.833 308.647 316.237ZM263.842 335.67C266.016 334.899 267.395 333.843 268.148 332.473C268.877 331.147 268.873 329.766 268.851 328.774C268.825 327.635 268.799 327.069 268.992 326.6C269.109 326.316 269.406 325.848 270.735 325.454L269.883 322.577C267.99 323.138 266.786 324.079 266.218 325.459C265.726 326.654 265.833 328.007 265.852 328.842C265.874 329.823 265.826 330.47 265.52 331.027C265.238 331.54 264.589 332.222 262.839 332.842L263.842 335.67ZM270.735 325.454C281.483 322.269 294.658 319.57 308.841 317.725L308.454 314.75C294.147 316.611 280.813 319.339 269.883 322.577L270.735 325.454ZM396.306 314.861C397.659 315.509 397.659 315.509 397.659 315.509C397.659 315.509 397.659 315.508 397.66 315.508C397.66 315.507 397.66 315.506 397.661 315.505C397.663 315.501 397.665 315.496 397.669 315.489C397.676 315.474 397.687 315.452 397.701 315.423C397.73 315.363 397.773 315.274 397.831 315.157C397.947 314.923 398.119 314.578 398.344 314.139C398.794 313.259 399.455 312.002 400.29 310.502C401.963 307.496 404.331 303.529 407.118 299.657C409.914 295.772 413.083 292.051 416.347 289.483C419.643 286.889 422.774 285.669 425.599 286.226L426.181 283.283C422.075 282.472 418.043 284.33 414.492 287.125C410.909 289.945 407.549 293.922 404.683 297.905C401.806 301.902 399.377 305.975 397.669 309.042C396.814 310.578 396.138 311.866 395.674 312.772C395.442 313.225 395.263 313.582 395.142 313.828C395.081 313.951 395.034 314.046 395.003 314.111C394.987 314.143 394.975 314.168 394.967 314.186C394.963 314.194 394.959 314.201 394.957 314.205C394.956 314.208 394.955 314.21 394.955 314.211C394.954 314.212 394.954 314.212 394.954 314.212C394.954 314.213 394.953 314.213 396.306 314.861ZM396.069 316.342C409.928 318.565 423.144 321.505 435.097 324.924L435.922 322.04C423.848 318.585 410.514 315.62 396.544 313.38L396.069 316.342ZM435.085 324.921C437.194 325.543 438.034 326.29 438.429 326.913C438.854 327.584 438.955 328.383 439.022 329.621C439.084 330.754 439.114 332.312 439.772 333.815C440.469 335.404 441.782 336.79 444.076 337.92L445.401 335.228C443.608 334.345 442.878 333.428 442.52 332.611C442.124 331.707 442.088 330.754 442.018 329.458C441.953 328.266 441.856 326.717 440.963 325.307C440.039 323.849 438.44 322.782 435.934 322.043L435.085 324.921ZM425.599 286.226C428.348 286.769 430.387 288.978 431.854 292.533C433.316 296.075 434.07 300.645 434.402 305.253C434.732 309.839 434.637 314.356 434.458 317.736C434.368 319.424 434.258 320.822 434.171 321.796C434.127 322.283 434.089 322.663 434.062 322.921C434.048 323.049 434.038 323.147 434.03 323.212C434.027 323.245 434.024 323.269 434.022 323.285C434.021 323.293 434.021 323.298 434.02 323.302C434.02 323.304 434.02 323.305 434.02 323.306C434.02 323.306 434.02 323.306 434.02 323.306C434.02 323.306 434.02 323.306 435.509 323.482C436.999 323.657 436.999 323.657 436.999 323.656C436.999 323.656 436.999 323.655 436.999 323.655C437 323.653 437 323.651 437 323.649C437.001 323.643 437.002 323.636 437.003 323.627C437.005 323.608 437.008 323.58 437.012 323.545C437.02 323.473 437.031 323.369 437.046 323.233C437.074 322.962 437.113 322.567 437.159 322.064C437.249 321.06 437.362 319.625 437.454 317.895C437.637 314.442 437.736 309.791 437.394 305.038C437.054 300.306 436.269 295.366 434.628 291.389C432.992 287.426 430.363 284.109 426.181 283.283L425.599 286.226ZM280.969 283.285C277.057 284.076 274.51 287.446 272.832 291.382C271.129 295.374 270.134 300.364 269.55 305.165C268.962 309.985 268.778 314.712 268.74 318.225C268.721 319.984 268.738 321.444 268.761 322.466C268.772 322.977 268.784 323.38 268.794 323.655C268.799 323.793 268.803 323.899 268.806 323.971C268.807 324.008 268.808 324.035 268.809 324.054C268.81 324.064 268.81 324.071 268.81 324.076C268.81 324.079 268.81 324.081 268.81 324.082C268.81 324.083 268.811 324.084 268.811 324.084C268.811 324.085 268.811 324.085 270.309 324.015C271.807 323.946 271.807 323.946 271.807 323.946C271.807 323.946 271.807 323.946 271.807 323.945C271.807 323.944 271.807 323.943 271.807 323.941C271.807 323.937 271.807 323.931 271.806 323.923C271.806 323.907 271.805 323.882 271.803 323.849C271.8 323.782 271.797 323.682 271.792 323.55C271.783 323.287 271.771 322.898 271.76 322.401C271.738 321.406 271.721 319.979 271.74 318.258C271.778 314.81 271.958 310.202 272.528 305.528C273.099 300.833 274.052 296.168 275.591 292.559C277.154 288.893 279.143 286.715 281.564 286.225L280.969 283.285ZM308.841 317.725C310.307 317.534 311.225 317.779 311.9 318.143C312.631 318.538 313.199 319.129 313.928 319.92C314.604 320.652 315.466 321.615 316.652 322.246C317.914 322.918 319.417 323.161 321.321 322.799L320.761 319.852C319.433 320.104 318.64 319.906 318.061 319.597C317.404 319.248 316.878 318.692 316.133 317.885C315.442 317.137 314.56 316.169 313.324 315.503C312.033 314.806 310.469 314.488 308.454 314.75L308.841 317.725ZM321.321 322.799C324.424 322.209 328.226 321.975 332.912 321.875C337.614 321.774 343.042 321.808 349.495 321.729L349.459 318.729C343.103 318.807 337.546 318.774 332.848 318.875C328.135 318.976 324.124 319.212 320.761 319.852L321.321 322.799ZM349.495 321.729C362.384 321.572 370.635 321.07 380.933 322.804L381.431 319.846C370.796 318.055 362.187 318.574 349.459 318.729L349.495 321.729ZM380.933 322.804C383.758 323.28 385.9 323.034 387.614 322.279C389.318 321.528 390.428 320.346 391.29 319.302C392.222 318.173 392.735 317.41 393.466 316.858C394.045 316.421 394.766 316.133 396.069 316.342L396.544 313.38C394.465 313.046 392.913 313.516 391.657 314.464C390.554 315.298 389.671 316.55 388.976 317.393C388.21 318.321 387.462 319.068 386.405 319.534C385.359 319.995 383.839 320.252 381.431 319.846L380.933 322.804Z" fill="black"/>
</svg>
