<svg width="701" height="900" viewBox="0 0 701 900" fill="none" xmlns="http://www.w3.org/2000/svg">
<path fill-rule="evenodd" clip-rule="evenodd" d="M186.83 510.715C205.773 514.274 219.032 483.667 220.216 463.262C221.4 442.856 214.771 412.011 196.538 410.824C187.498 410.236 180.494 417.699 175.5 427.687C170.423 437.842 167.422 450.608 166.467 460.177C164.572 479.159 167.888 507.156 186.83 510.715ZM205.729 433.643C204.904 442.948 198.724 451.088 191.467 450.962C184.209 450.836 177.811 446.532 177.33 433.643C176.848 420.754 183.79 413.928 191.467 413.886C199.143 413.844 206.555 424.338 205.729 433.643Z" fill="black"/>
<path fill-rule="evenodd" clip-rule="evenodd" d="M508.283 503.356C528.245 503.582 532.7 478.445 533.884 458.039C535.068 437.634 527.343 408.766 503.885 408.653C480.427 408.54 479.525 442.896 479.525 460.638C479.525 478.381 488.322 503.13 508.283 503.356ZM511.837 432.963C511.012 442.268 504.832 450.408 497.575 450.282C490.317 450.156 483.919 445.852 483.438 432.963C482.956 420.075 489.898 413.249 497.575 413.207C505.251 413.165 512.663 423.659 511.837 432.963Z" fill="black"/>
<path d="M497.575 450.282C504.832 450.408 511.012 442.268 511.837 432.963C512.663 423.659 505.251 413.165 497.575 413.207C489.898 413.249 482.956 420.075 483.438 432.963C483.919 445.852 490.317 450.156 497.575 450.282Z" fill="white"/>
<path d="M191.467 450.962C198.724 451.088 204.904 442.948 205.729 433.643C206.555 424.338 199.143 413.844 191.467 413.886C183.79 413.928 176.848 420.754 177.33 433.643C177.811 446.532 184.209 450.836 191.467 450.962Z" fill="white"/>
<path d="M196.538 410.824L196.636 409.327L196.636 409.327L196.538 410.824ZM166.467 460.177L167.959 460.326L166.467 460.177ZM175.5 427.687L176.842 428.358L176.842 428.358L175.5 427.687ZM490.809 390.737L490.278 389.334L490.088 389.406L489.923 389.527L490.809 390.737ZM186.553 512.19C197.011 514.154 205.566 506.626 211.47 496.745C217.432 486.768 221.109 473.778 221.714 463.349L218.719 463.175C218.14 473.15 214.595 485.667 208.895 495.206C203.138 504.84 195.592 510.835 187.107 509.241L186.553 512.19ZM221.714 463.349C222.315 452.981 220.938 439.959 217.068 429.323C213.237 418.794 206.704 409.982 196.636 409.327L196.441 412.321C204.606 412.852 210.503 420.057 214.249 430.349C217.955 440.534 219.301 453.137 218.719 463.175L221.714 463.349ZM164.974 460.028C164.015 469.642 164.364 481.598 167.398 491.663C170.424 501.699 176.268 510.257 186.553 512.19L187.107 509.241C178.45 507.614 173.164 500.394 170.271 490.797C167.386 481.227 167.024 469.694 167.959 460.326L164.974 460.028ZM191.441 452.461C195.67 452.535 199.432 450.199 202.18 446.778C204.933 443.349 206.787 438.702 207.224 433.775L204.235 433.51C203.847 437.889 202.198 441.964 199.84 444.9C197.477 447.843 194.52 449.515 191.493 449.462L191.441 452.461ZM207.224 433.775C207.673 428.706 205.886 423.406 203.006 419.386C200.15 415.4 195.979 412.361 191.458 412.386L191.475 415.386C194.631 415.369 198.004 417.556 200.567 421.133C203.105 424.676 204.611 429.275 204.235 433.51L207.224 433.775ZM196.636 409.327C186.6 408.674 179.186 416.962 174.159 427.017L176.842 428.358C181.803 418.436 188.396 411.797 196.441 412.321L196.636 409.327ZM174.159 427.017C168.981 437.372 165.943 450.323 164.974 460.028L167.959 460.326C168.901 450.892 171.865 438.313 176.842 428.358L174.159 427.017ZM175.831 433.699C176.08 440.37 177.87 445.068 180.77 448.121C183.682 451.188 187.522 452.393 191.441 452.461L191.493 449.462C188.154 449.404 185.166 448.394 182.945 446.055C180.711 443.703 179.061 439.805 178.829 433.587L175.831 433.699ZM191.458 412.386C187.156 412.41 183.075 414.343 180.164 418.015C177.26 421.677 175.58 426.981 175.831 433.699L178.829 433.587C178.598 427.416 180.149 422.862 182.514 419.879C184.872 416.905 188.101 415.404 191.475 415.386L191.458 412.386ZM508.266 504.856C513.603 504.917 517.967 503.272 521.486 500.403C524.978 497.557 527.567 493.566 529.505 489.023C533.37 479.964 534.788 468.358 535.381 458.126L532.386 457.953C531.796 468.127 530.395 479.292 526.746 487.846C524.927 492.11 522.586 495.637 519.591 498.078C516.624 500.496 512.945 501.909 508.3 501.857L508.266 504.856ZM535.381 458.126C535.984 447.738 534.329 435.152 529.476 425.085C524.606 414.983 516.384 407.214 503.892 407.153L503.878 410.153C514.844 410.206 522.213 416.927 526.774 426.388C531.352 435.885 532.968 447.936 532.386 457.953L535.381 458.126ZM478.025 460.638C478.025 469.717 480.268 480.601 485.108 489.296C489.956 498.005 497.557 504.735 508.266 504.856L508.3 501.857C499.048 501.752 492.27 495.994 487.729 487.837C483.18 479.665 481.025 469.303 481.025 460.638L478.025 460.638ZM497.548 451.782C501.778 451.856 505.54 449.52 508.287 446.099C511.041 442.669 512.894 438.022 513.331 433.096L510.343 432.831C509.955 437.209 508.305 441.285 505.948 444.22C503.585 447.164 500.628 448.835 497.601 448.782L497.548 451.782ZM513.331 433.096C513.781 428.026 511.994 422.727 509.114 418.706C506.258 414.721 502.087 411.682 497.566 411.707L497.583 414.707C500.739 414.689 504.112 416.876 506.675 420.454C509.213 423.996 510.719 428.596 510.343 432.831L513.331 433.096ZM503.892 407.153C497.612 407.123 492.768 409.419 489.107 413.188C485.487 416.913 483.084 422.009 481.469 427.529C478.243 438.554 478.025 451.781 478.025 460.638L481.025 460.638C481.025 451.753 481.258 438.931 484.348 428.371C485.891 423.098 488.111 418.518 491.258 415.279C494.363 412.083 498.43 410.127 503.878 410.153L503.892 407.153ZM481.939 433.019C482.188 439.691 483.978 444.389 486.878 447.442C489.79 450.509 493.63 451.714 497.548 451.782L497.601 448.782C494.262 448.724 491.274 447.715 489.053 445.376C486.819 443.023 485.169 439.125 484.937 432.907L481.939 433.019ZM497.566 411.707C493.264 411.73 489.183 413.663 486.271 417.336C483.367 420.998 481.688 426.301 481.939 433.019L484.937 432.907C484.706 426.737 486.257 422.183 488.622 419.199C490.98 416.226 494.209 414.725 497.583 414.707L497.566 411.707ZM217.395 396.452C217.932 396.761 218.459 397.013 218.936 397.122C219.164 397.174 219.539 397.232 219.95 397.123C220.455 396.99 220.927 396.621 221.125 396.033C221.285 395.561 221.201 395.138 221.14 394.918C221.071 394.668 220.964 394.443 220.862 394.259C220.656 393.887 220.367 393.502 220.048 393.134C219.403 392.391 218.497 391.564 217.475 390.861C216.465 390.165 215.248 389.527 213.984 389.268L213.383 392.207C214.108 392.355 214.946 392.762 215.774 393.332C216.591 393.894 217.306 394.553 217.782 395.101C218.024 395.379 218.17 395.59 218.239 395.714C218.274 395.778 218.264 395.775 218.248 395.717C218.24 395.687 218.164 395.423 218.283 395.073C218.441 394.605 218.823 394.318 219.184 394.223C219.33 394.184 219.445 394.183 219.504 394.186C219.566 394.188 219.602 394.197 219.604 394.197C219.605 394.197 219.546 394.183 219.411 394.122C219.282 394.065 219.109 393.977 218.889 393.851L217.395 396.452ZM213.984 389.268C209.077 388.263 206.612 391.521 205.983 392.641L208.599 394.109C208.938 393.506 210.335 391.583 213.383 392.207L213.984 389.268ZM205.983 392.641C205.954 392.693 205.888 392.81 205.837 392.938C205.82 392.982 205.742 393.171 205.725 393.421C205.716 393.551 205.713 393.821 205.844 394.126C205.998 394.486 206.294 394.786 206.685 394.938C207.02 395.067 207.311 395.044 207.452 395.023C207.606 395.001 207.724 394.96 207.788 394.935C207.914 394.886 208.01 394.83 208.048 394.808C208.131 394.758 208.213 394.7 208.251 394.674C208.444 394.539 208.688 394.362 209.04 394.186C209.719 393.849 210.805 393.518 212.296 393.953L213.137 391.074C210.761 390.379 208.892 390.91 207.704 391.5C207.123 391.789 206.706 392.093 206.531 392.216C206.477 392.253 206.486 392.246 206.514 392.229C206.524 392.223 206.598 392.179 206.706 392.137C206.761 392.116 206.871 392.077 207.018 392.055C207.153 392.035 207.438 392.012 207.769 392.14C208.156 392.29 208.448 392.587 208.601 392.943C208.73 393.244 208.726 393.507 208.718 393.63C208.701 393.866 208.63 394.035 208.623 394.051C208.593 394.127 208.568 394.165 208.599 394.109L205.983 392.641ZM212.296 393.953C213.287 394.243 213.822 394.394 214.174 394.507C214.5 394.61 214.546 394.643 214.579 394.664C214.7 394.739 215.436 395.327 217.395 396.452L218.889 393.851C216.819 392.661 216.776 392.495 216.159 392.113C215.822 391.905 215.509 391.783 215.084 391.648C214.686 391.521 214.08 391.349 213.137 391.074L212.296 393.953ZM495.429 392.157C495.748 392.266 496.099 392.375 496.378 392.406C496.421 392.411 496.666 392.443 496.953 392.373C497.084 392.341 497.493 392.226 497.804 391.814C498.196 391.295 498.14 390.72 498.013 390.379C497.909 390.097 497.745 389.918 497.684 389.854C497.606 389.772 497.532 389.713 497.487 389.679C497.396 389.609 497.309 389.558 497.255 389.528C496.878 389.316 496.17 389.057 495.377 388.858C494.552 388.651 493.494 388.474 492.398 388.503C491.31 388.532 490.071 388.768 488.999 389.497L490.686 391.977C491.118 391.684 491.725 391.522 492.477 391.502C493.221 391.483 493.996 391.605 494.648 391.768C494.97 391.849 495.247 391.936 495.458 392.012C495.689 392.094 495.79 392.146 495.785 392.143C495.783 392.142 495.737 392.117 495.675 392.07C495.645 392.047 495.583 391.998 495.513 391.924C495.461 391.87 495.303 391.699 495.201 391.424C495.077 391.09 495.021 390.521 495.409 390.007C495.716 389.6 496.118 389.489 496.239 389.459C496.398 389.42 496.526 389.418 496.578 389.418C496.642 389.418 496.69 389.423 496.714 389.425C496.805 389.436 496.748 389.437 496.396 389.317L495.429 392.157ZM488.999 389.497C487.493 390.52 485.714 391.745 484.246 392.826C483.514 393.365 482.841 393.882 482.311 394.329C482.047 394.551 481.803 394.77 481.598 394.976C481.417 395.158 481.179 395.414 481.014 395.708L483.63 397.177C483.586 397.255 483.58 397.236 483.724 397.093C483.844 396.972 484.017 396.815 484.245 396.622C484.701 396.238 485.314 395.766 486.025 395.242C487.444 394.197 489.183 392.999 490.686 391.977L488.999 389.497ZM481.014 395.708C480.976 395.776 480.917 395.892 480.871 396.041C480.831 396.173 480.761 396.463 480.838 396.821C480.933 397.253 481.21 397.624 481.602 397.836C481.928 398.012 482.229 398.023 482.368 398.02C482.644 398.015 482.862 397.936 482.932 397.911C483.036 397.873 483.131 397.829 483.206 397.793C483.491 397.654 483.866 397.425 484.253 397.178C485.055 396.665 486.154 395.908 487.247 395.14C488.346 394.368 489.458 393.57 490.294 392.965C490.712 392.663 491.062 392.409 491.308 392.23C491.43 392.141 491.527 392.07 491.593 392.022C491.626 391.998 491.652 391.979 491.669 391.967C491.678 391.96 491.684 391.956 491.689 391.952C491.691 391.951 491.692 391.95 491.694 391.949C491.694 391.948 491.695 391.948 491.695 391.948C491.695 391.948 491.695 391.948 491.695 391.947C491.695 391.947 491.695 391.947 490.809 390.737C489.923 389.527 489.923 389.527 489.923 389.527C489.923 389.527 489.923 389.527 489.923 389.527C489.923 389.527 489.922 389.527 489.922 389.528C489.921 389.528 489.919 389.53 489.917 389.531C489.913 389.534 489.907 389.539 489.898 389.545C489.882 389.557 489.857 389.575 489.824 389.599C489.759 389.647 489.664 389.716 489.542 389.805C489.299 389.982 488.952 390.234 488.537 390.534C487.706 391.134 486.606 391.924 485.522 392.686C484.433 393.451 483.38 394.175 482.636 394.651C482.249 394.898 482.003 395.041 481.89 395.097C481.866 395.108 481.876 395.102 481.909 395.09C481.927 395.084 481.965 395.071 482.019 395.057C482.067 395.046 482.17 395.023 482.308 395.021C482.428 395.018 482.713 395.027 483.027 395.196C483.408 395.402 483.678 395.764 483.77 396.183C483.845 396.528 483.776 396.802 483.741 396.914C483.702 397.044 483.653 397.136 483.63 397.177L481.014 395.708ZM490.809 390.737C491.34 392.14 491.34 392.14 491.339 392.14C491.339 392.14 491.339 392.14 491.339 392.141C491.338 392.141 491.338 392.141 491.337 392.141C491.336 392.142 491.335 392.142 491.334 392.142C491.333 392.143 491.332 392.143 491.332 392.143C491.331 392.143 491.333 392.143 491.336 392.141C491.344 392.139 491.359 392.133 491.383 392.126C491.43 392.11 491.509 392.086 491.615 392.058C491.827 392.001 492.145 391.93 492.535 391.883C493.322 391.787 494.358 391.792 495.429 392.157L496.396 389.317C494.78 388.767 493.265 388.772 492.172 388.905C491.623 388.972 491.168 389.072 490.843 389.159C490.68 389.202 490.549 389.242 490.454 389.273C490.406 389.289 490.367 389.302 490.338 389.312C490.323 389.318 490.311 389.322 490.301 389.326C490.296 389.328 490.292 389.329 490.288 389.331C490.286 389.331 490.284 389.332 490.283 389.333C490.282 389.333 490.281 389.333 490.28 389.333C490.28 389.334 490.279 389.334 490.279 389.334C490.279 389.334 490.278 389.334 490.809 390.737Z" fill="black"/>
</svg>
