<svg width="701" height="900" viewBox="0 0 701 900" fill="none" xmlns="http://www.w3.org/2000/svg">
<path d="M330.266 374.566C338.568 374.534 346.368 374.878 352.286 375.696C356.269 376.246 360.235 376.719 364.157 377.172C364.157 377.172 361.488 359.882 359.378 349.136C357.268 338.389 350.762 318.482 344.432 319.01C338.103 319.539 333.707 335.041 331.421 344.731C329.136 354.42 330.266 374.566 330.266 374.566Z" fill="#BAE0E1"/>
<path d="M355.51 518.273C346.357 518.336 333.385 517.57 323.034 516.64C323.034 516.64 325.358 535.971 328.249 544.953C331.14 553.935 331.974 562.769 338.509 562.997C345.044 563.226 347.972 548.984 349.871 541.776C351.769 534.567 355.51 518.273 355.51 518.273Z" fill="#BAE0E1"/>
<path d="M251.085 452.053C251.634 466.224 253.833 476.405 260.424 489.062C266.317 500.379 276.051 505.537 287.467 509.747C281.159 495.71 282.366 484.611 282.542 466.818C282.559 465.074 282.573 463.339 282.587 461.612L282.589 461.355C282.715 445.555 282.849 430.463 285.531 416.08C288.52 400.049 287.467 391.416 297.708 376.466C290.263 377.357 284.239 378.511 281.159 379.822C271.135 384.087 264.954 392.48 258.775 405.963C252.596 419.446 250.536 437.882 251.085 452.053Z" fill="#B9E1E0"/>
<path d="M389.677 439.344C389.259 436.911 384.401 428.352 380.8 426.842C377.199 425.331 372.593 422.562 369.244 425.08C365.894 427.597 364.889 434.897 365.224 440.099C365.559 445.302 367.569 449.581 370.081 452.098C372.593 454.616 375.441 455.371 377.451 455.203C379.46 455.035 384.82 453.727 386.914 449.581C389.007 445.435 390.096 441.778 389.677 439.344Z" fill="#D3EBED"/>
<path fill-rule="evenodd" clip-rule="evenodd" d="M458.976 447.375C460.075 417.52 423.001 391.104 407.347 385.188C394.825 380.455 379.843 378.981 364.157 377.172C360.235 376.719 356.269 376.246 352.286 375.696C346.368 374.878 338.568 374.534 330.266 374.566C319.222 374.61 307.288 375.32 297.708 376.466C287.467 391.416 288.52 400.049 285.531 416.08C282.849 430.463 282.715 445.555 282.589 461.355C282.589 461.355 302.059 455.367 323.034 453.781C344.01 452.195 386.806 454.838 404.389 456.424C421.971 458.009 456.738 461.355 456.738 461.355C458 456.988 458.794 452.327 458.976 447.375ZM380.8 426.842C384.401 428.352 389.259 436.911 389.677 439.344C390.096 441.778 389.007 445.435 386.914 449.581C384.82 453.727 379.46 455.035 377.451 455.203C375.441 455.371 372.593 454.616 370.081 452.098C367.569 449.581 365.559 445.302 365.224 440.099C364.889 434.897 365.894 427.597 369.244 425.08C372.593 422.562 377.199 425.331 380.8 426.842Z" fill="#8DC8CE"/>
<path d="M355.51 518.273C375.694 518.136 406.798 513.002 420.666 504.747C432.234 497.861 450.394 483.317 456.738 461.355C456.738 461.355 421.971 458.009 404.389 456.424C386.806 454.838 344.01 452.195 323.034 453.781C302.059 455.367 282.589 461.355 282.589 461.355L282.587 461.612C282.573 463.339 282.559 465.074 282.542 466.818C282.366 484.611 281.159 495.71 287.467 509.747C288.82 510.246 290.197 510.732 291.594 511.213C298.798 513.695 310.557 515.518 323.034 516.64C333.385 517.57 346.357 518.336 355.51 518.273Z" fill="white"/>
<path d="M449.653 459.663C449.653 456.361 460.56 454.82 460.973 458.136C461.385 461.452 456.983 461.452 456.983 461.452C456.983 461.452 449.653 462.965 449.653 459.663Z" fill="black"/>
<path d="M454.484 448.384C454.433 449.763 455.511 450.923 456.891 450.974C458.27 451.025 459.43 449.948 459.481 448.568L454.484 448.384ZM419.008 504.747L420.284 506.896L419.008 504.747ZM353.72 518.273L353.703 515.773L353.72 518.273ZM289.675 511.213L290.488 508.849L289.675 511.213ZM258.443 489.062L260.659 487.906L260.659 487.906L258.443 489.062ZM249.085 452.053L251.583 451.956L249.085 452.053ZM256.791 405.963L254.519 404.919L256.791 405.963ZM279.22 379.822L278.242 377.521L279.22 379.822ZM350.49 375.696L350.148 378.172L350.148 378.172L350.49 375.696ZM405.661 385.188L406.544 382.849L405.661 385.188ZM362.385 377.172L362.099 379.655L362.385 377.172ZM295.802 376.466L295.505 373.984L295.802 376.466ZM285.541 509.747L284.677 512.093L285.541 509.747ZM454.293 469.12C454.677 467.794 453.913 466.408 452.587 466.024C451.261 465.64 449.874 466.404 449.49 467.73L454.293 469.12ZM385.493 439.769C385.727 441.13 387.02 442.042 388.381 441.808C389.742 441.573 390.654 440.28 390.42 438.919L385.493 439.769ZM375.913 457.695C377.288 457.58 378.311 456.371 378.196 454.996C378.082 453.62 376.873 452.597 375.497 452.712L375.913 457.695ZM456.983 461.452V458.952H456.727L456.477 459.003L456.983 461.452ZM252.28 474.058L249.88 474.757L252.28 474.058ZM271.545 471.545C272.812 470.996 273.394 469.524 272.846 468.257C272.297 466.99 270.825 466.408 269.558 466.956L271.545 471.545ZM270.112 442.56C271.471 442.803 272.77 441.899 273.013 440.539C273.256 439.18 272.351 437.881 270.992 437.638L270.112 442.56ZM276.117 410.682C277.432 411.104 278.839 410.38 279.261 409.065C279.683 407.751 278.959 406.343 277.644 405.921L276.117 410.682ZM432.671 427.753C433.687 426.818 433.754 425.237 432.819 424.22C431.885 423.204 430.303 423.137 429.287 424.072L432.671 427.753ZM420.756 431.914C419.74 432.848 419.673 434.43 420.608 435.446C421.542 436.463 423.124 436.529 424.14 435.595L420.756 431.914ZM423.182 424.76C422.032 423.995 420.48 424.308 419.716 425.458C418.952 426.608 419.264 428.159 420.414 428.924L423.182 424.76ZM429.595 435.026C430.745 435.79 432.296 435.478 433.061 434.328C433.825 433.178 433.512 431.626 432.363 430.862L429.595 435.026ZM417.731 502.597C411.169 506.495 400.256 509.779 388.262 512.1C376.336 514.407 363.643 515.706 353.703 515.773L353.737 520.773C364.022 520.703 377.024 519.366 389.212 517.009C401.332 514.664 412.95 511.253 420.284 506.896L417.731 502.597ZM404.779 387.527C412.21 390.33 425.016 398.451 435.822 409.595C446.663 420.774 454.997 434.48 454.484 448.384L459.481 448.568C460.069 432.617 450.585 417.636 439.411 406.114C428.203 394.557 414.798 385.962 406.544 382.849L404.779 387.527ZM353.703 515.773C344.646 515.835 331.736 515.077 321.402 514.15L320.956 519.13C331.365 520.064 344.452 520.837 353.737 520.773L353.703 515.773ZM321.402 514.15C308.925 513.031 297.402 511.225 290.488 508.849L288.863 513.577C296.388 516.164 308.427 518.006 320.956 519.13L321.402 514.15ZM321.179 516.64C318.697 516.939 318.697 516.939 318.697 516.939C318.697 516.939 318.697 516.94 318.697 516.94C318.697 516.941 318.697 516.942 318.697 516.943C318.698 516.946 318.698 516.95 318.699 516.955C318.7 516.965 318.702 516.979 318.704 516.998C318.709 517.036 318.716 517.092 318.725 517.166C318.743 517.312 318.77 517.527 318.805 517.803C318.875 518.355 318.978 519.152 319.111 520.135C319.376 522.101 319.76 524.818 320.236 527.82C321.179 533.766 322.51 541.023 324.025 545.721L328.783 544.186C327.402 539.902 326.12 533.002 325.174 527.037C324.706 524.083 324.327 521.405 324.066 519.466C323.935 518.497 323.833 517.714 323.765 517.173C323.731 516.903 323.704 516.694 323.687 516.553C323.678 516.482 323.672 516.429 323.667 516.393C323.665 516.375 323.664 516.362 323.663 516.353C323.662 516.349 323.662 516.346 323.661 516.344C323.661 516.343 323.661 516.342 323.661 516.341C323.661 516.341 323.661 516.341 323.661 516.341C323.661 516.341 323.661 516.341 321.179 516.64ZM324.025 545.721C324.73 547.906 325.305 550.068 325.905 552.205C326.493 554.299 327.108 556.382 327.865 558.213C328.618 560.034 329.589 561.804 330.994 563.15C332.468 564.561 334.327 565.417 336.598 565.496L336.772 560.499C335.77 560.464 335.069 560.129 334.453 559.539C333.769 558.884 333.122 557.841 332.486 556.302C331.854 554.774 331.307 552.95 330.719 550.854C330.143 548.802 329.527 546.491 328.783 544.186L324.025 545.721ZM336.598 565.496C339.266 565.589 341.343 564.168 342.849 562.428C344.339 560.707 345.502 558.428 346.438 556.111C348.305 551.487 349.572 545.879 350.487 542.414L345.652 541.138C344.665 544.881 343.514 549.999 341.802 554.239C340.947 556.355 340.03 558.045 339.069 559.155C338.124 560.247 337.379 560.52 336.772 560.499L336.598 565.496ZM350.487 542.414C351.447 538.773 352.867 532.867 354.041 527.896C354.629 525.405 355.158 523.14 355.539 521.498C355.73 520.677 355.884 520.011 355.991 519.55C356.044 519.32 356.085 519.141 356.113 519.02C356.127 518.959 356.138 518.913 356.145 518.881C356.149 518.866 356.151 518.854 356.153 518.846C356.154 518.842 356.155 518.839 356.155 518.837C356.156 518.836 356.156 518.835 356.156 518.835C356.156 518.834 356.156 518.834 356.156 518.834C356.156 518.834 356.156 518.834 353.72 518.273C351.283 517.713 351.283 517.713 351.283 517.713C351.283 517.713 351.283 517.713 351.283 517.714C351.283 517.714 351.283 517.715 351.283 517.716C351.282 517.718 351.282 517.721 351.281 517.724C351.279 517.732 351.276 517.744 351.273 517.759C351.266 517.79 351.255 517.836 351.241 517.897C351.213 518.017 351.172 518.195 351.119 518.425C351.013 518.883 350.859 519.547 350.669 520.366C350.289 522.004 349.761 524.263 349.175 526.747C347.999 531.724 346.594 537.57 345.652 541.138L350.487 542.414ZM328.435 377.066C336.701 377.034 344.384 377.377 350.148 378.172L350.832 373.219C344.734 372.378 336.787 372.034 328.415 372.066L328.435 377.066ZM328.425 374.566C330.921 374.426 330.921 374.426 330.921 374.426C330.921 374.426 330.921 374.426 330.921 374.426C330.921 374.426 330.921 374.425 330.921 374.424C330.921 374.422 330.921 374.419 330.921 374.414C330.92 374.405 330.919 374.392 330.918 374.374C330.916 374.337 330.914 374.282 330.91 374.209C330.902 374.063 330.891 373.846 330.878 373.566C330.852 373.005 330.817 372.19 330.783 371.181C330.713 369.162 330.644 366.371 330.645 363.283C330.649 357.025 330.946 349.834 332.016 345.306L327.15 344.156C325.93 349.317 325.649 357.044 325.645 363.281C325.644 366.441 325.714 369.292 325.786 371.353C325.821 372.384 325.857 373.219 325.884 373.798C325.897 374.087 325.908 374.313 325.916 374.467C325.92 374.544 325.924 374.603 325.926 374.643C325.927 374.663 325.928 374.679 325.928 374.689C325.929 374.695 325.929 374.699 325.929 374.702C325.929 374.703 325.929 374.704 325.929 374.705C325.929 374.706 325.929 374.706 325.929 374.706C325.929 374.706 325.929 374.707 328.425 374.566ZM332.016 345.306C333.155 340.487 334.79 334.359 336.885 329.409C337.936 326.926 339.047 324.872 340.183 323.449C341.356 321.981 342.255 321.549 342.828 321.502L342.413 316.519C339.814 316.735 337.785 318.44 336.276 320.33C334.731 322.265 333.409 324.792 332.28 327.461C330.014 332.817 328.301 339.285 327.15 344.156L332.016 345.306ZM342.828 321.502C343.046 321.483 343.907 321.658 345.371 323.525C346.713 325.237 348.088 327.785 349.397 330.832C352.002 336.896 354.113 344.386 355.143 349.618L360.049 348.653C358.964 343.139 356.759 335.302 353.991 328.858C352.613 325.651 351.037 322.649 349.306 320.441C347.698 318.389 345.366 316.273 342.413 316.519L342.828 321.502ZM350.148 378.172C354.168 378.727 358.164 379.202 362.099 379.655L362.671 374.688C358.746 374.236 354.794 373.766 350.832 373.219L350.148 378.172ZM362.099 379.655C377.945 381.479 392.589 382.929 404.779 387.527L406.544 382.849C393.639 377.981 378.259 376.483 362.671 374.688L362.099 379.655ZM355.143 349.618C356.192 354.952 357.384 361.929 358.316 367.59C358.782 370.417 359.182 372.909 359.465 374.694C359.607 375.587 359.719 376.302 359.796 376.795C359.835 377.041 359.864 377.231 359.884 377.359C359.894 377.424 359.902 377.472 359.907 377.505C359.909 377.522 359.911 377.534 359.913 377.542C359.913 377.546 359.914 377.549 359.914 377.551C359.914 377.552 359.914 377.553 359.914 377.553C359.914 377.554 359.914 377.554 359.914 377.554C359.914 377.554 359.914 377.554 362.385 377.172C364.856 376.79 364.856 376.789 364.856 376.789C364.856 376.789 364.856 376.789 364.856 376.789C364.855 376.788 364.855 376.787 364.855 376.786C364.855 376.784 364.854 376.781 364.854 376.776C364.852 376.768 364.85 376.755 364.848 376.739C364.843 376.705 364.835 376.656 364.825 376.591C364.805 376.461 364.775 376.269 364.736 376.021C364.658 375.526 364.545 374.807 364.403 373.911C364.119 372.118 363.717 369.616 363.25 366.778C362.316 361.108 361.114 354.067 360.049 348.653L355.143 349.618ZM280.197 382.123C282.913 380.97 288.614 379.842 296.098 378.948L295.505 373.984C288.07 374.872 281.699 376.053 278.242 377.521L280.197 382.123ZM296.098 378.948C305.593 377.814 317.455 377.109 328.435 377.066L328.415 372.066C317.264 372.11 305.209 372.825 295.505 373.984L296.098 378.948ZM290.488 508.849C289.1 508.372 287.738 507.892 286.404 507.401L284.677 512.093C286.055 512.6 287.452 513.092 288.863 513.577L290.488 508.849ZM286.404 507.401C275.128 503.251 266.121 498.374 260.659 487.906L256.226 490.219C262.574 502.384 273.074 507.823 284.677 512.093L286.404 507.401ZM449.49 467.73C443.443 488.623 429.414 495.657 417.731 502.597L420.284 506.896C431.783 500.065 447.627 492.151 454.293 469.12L449.49 467.73ZM390.42 438.919C390.234 437.84 389.59 436.536 388.959 435.41C388.269 434.18 387.38 432.798 386.43 431.454C385.479 430.109 384.442 428.766 383.446 427.62C382.487 426.515 381.443 425.449 380.483 424.785L377.64 428.898C378.062 429.19 378.77 429.861 379.671 430.899C380.537 431.896 381.472 433.103 382.347 434.34C383.223 435.579 384.012 436.812 384.598 437.856C384.891 438.378 385.118 438.828 385.278 439.191C385.357 439.372 385.412 439.515 385.449 439.624C385.488 439.739 385.495 439.783 385.493 439.769L390.42 438.919ZM380.483 424.785C378.91 423.698 376.575 422.474 374.082 421.87C371.638 421.278 368.529 421.169 365.981 423.08L368.981 427.08C369.791 426.473 371.088 426.289 372.904 426.729C374.67 427.157 376.447 428.074 377.64 428.898L380.483 424.785ZM365.981 423.08C363.563 424.894 362.306 428.1 361.644 431.032C360.955 434.088 360.778 437.457 360.959 440.26L365.948 439.938C365.794 437.54 365.952 434.657 366.522 432.133C367.119 429.485 368.044 427.783 368.981 427.08L365.981 423.08ZM360.959 440.26C361.328 445.977 363.545 450.859 366.553 453.866L370.088 450.331C368.061 448.304 366.251 444.627 365.948 439.938L360.959 440.26ZM366.553 453.866C369.565 456.879 373.132 457.926 375.913 457.695L375.497 452.712C374.25 452.816 372.11 452.353 370.088 450.331L366.553 453.866ZM452.153 459.663C452.153 460.311 451.684 460.235 452.554 459.764C453.247 459.389 454.314 459.058 455.5 458.894C456.695 458.729 457.753 458.769 458.423 458.936C459.266 459.147 458.592 459.246 458.492 458.445L463.454 457.827C463.147 455.367 460.955 454.415 459.636 454.086C458.145 453.713 456.4 453.723 454.816 453.941C453.224 454.161 451.539 454.628 450.174 455.367C448.986 456.01 447.153 457.365 447.153 459.663H452.153ZM458.492 458.445C458.521 458.675 458.464 458.631 458.534 458.539C458.552 458.516 458.492 458.602 458.214 458.712C457.948 458.817 457.632 458.884 457.348 458.92C457.214 458.937 457.105 458.945 457.036 458.949C457.002 458.951 456.979 458.952 456.969 458.952C456.964 458.952 456.963 458.952 456.965 458.952C456.966 458.952 456.968 458.952 456.971 458.952C456.972 458.952 456.974 458.952 456.976 458.952C456.977 458.952 456.978 458.952 456.979 458.952C456.98 458.952 456.981 458.952 456.981 458.952C456.982 458.952 456.983 458.952 456.983 461.452C456.983 463.952 456.984 463.952 456.985 463.952C456.985 463.952 456.986 463.952 456.987 463.952C456.988 463.952 456.989 463.952 456.991 463.952C456.994 463.952 456.997 463.952 457.001 463.952C457.008 463.952 457.016 463.952 457.026 463.952C457.044 463.951 457.068 463.951 457.095 463.95C457.149 463.949 457.221 463.946 457.306 463.942C457.477 463.932 457.708 463.915 457.98 463.88C458.509 463.813 459.267 463.672 460.051 463.362C460.822 463.058 461.786 462.523 462.513 461.566C463.293 460.542 463.631 459.255 463.454 457.827L458.492 458.445ZM456.983 461.452C456.477 459.003 456.478 459.003 456.478 459.003C456.478 459.003 456.479 459.003 456.479 459.003C456.479 459.003 456.48 459.003 456.48 459.003C456.48 459.003 456.481 459.003 456.48 459.003C456.48 459.003 456.477 459.003 456.473 459.004C456.465 459.006 456.451 459.009 456.43 459.013C456.389 459.02 456.324 459.033 456.238 459.048C456.067 459.077 455.815 459.118 455.512 459.158C454.892 459.239 454.111 459.31 453.365 459.296C452.561 459.281 452.068 459.17 451.861 459.073C451.786 459.037 451.877 459.062 451.988 459.214C452.12 459.395 452.153 459.581 452.153 459.663H447.153C447.153 460.571 447.416 461.432 447.949 462.162C448.461 462.863 449.124 463.312 449.736 463.599C450.904 464.147 452.243 464.276 453.271 464.295C454.358 464.316 455.408 464.215 456.163 464.115C456.547 464.065 456.868 464.013 457.097 463.973C457.212 463.953 457.304 463.936 457.37 463.923C457.404 463.917 457.43 463.912 457.45 463.908C457.46 463.906 457.468 463.904 457.474 463.903C457.478 463.902 457.48 463.902 457.483 463.901C457.484 463.901 457.485 463.901 457.486 463.901C457.486 463.901 457.487 463.9 457.487 463.9C457.488 463.9 457.488 463.9 456.983 461.452ZM260.659 487.906C257.971 482.753 256.05 478.061 254.68 473.359L249.88 474.757C251.355 479.822 253.41 484.82 256.226 490.219L260.659 487.906ZM254.68 473.359C252.765 466.784 251.899 460.093 251.583 451.956L246.587 452.15C246.913 460.542 247.814 467.666 249.88 474.757L254.68 473.359ZM252.28 474.058C252.588 476.539 252.588 476.539 252.589 476.539C252.589 476.539 252.589 476.539 252.589 476.539C252.589 476.539 252.59 476.539 252.59 476.539C252.591 476.539 252.593 476.538 252.594 476.538C252.597 476.538 252.602 476.537 252.607 476.537C252.618 476.535 252.634 476.533 252.655 476.531C252.695 476.525 252.754 476.518 252.83 476.508C252.982 476.487 253.201 476.458 253.477 476.419C254.029 476.34 254.81 476.224 255.734 476.07C257.575 475.764 260.021 475.305 262.371 474.698L261.121 469.857C258.969 470.413 256.682 470.844 254.915 471.138C254.035 471.284 253.294 471.394 252.774 471.468C252.515 471.505 252.311 471.533 252.174 471.551C252.105 471.56 252.053 471.567 252.019 471.571C252.001 471.573 251.989 471.575 251.981 471.576C251.977 471.576 251.974 471.577 251.973 471.577C251.972 471.577 251.971 471.577 251.971 471.577C251.971 471.577 251.971 471.577 251.971 471.577C251.971 471.577 251.971 471.577 251.971 471.577C251.971 471.577 251.971 471.577 252.28 474.058ZM262.371 474.698C264.737 474.087 267.027 473.298 268.711 472.67C269.557 472.355 270.259 472.076 270.751 471.875C270.998 471.775 271.193 471.694 271.328 471.637C271.395 471.609 271.448 471.586 271.484 471.571C271.502 471.563 271.517 471.557 271.527 471.553C271.532 471.55 271.536 471.549 271.539 471.547C271.541 471.547 271.542 471.546 271.543 471.546C271.543 471.545 271.544 471.545 271.544 471.545C271.544 471.545 271.545 471.545 271.545 471.545C271.545 471.545 271.545 471.545 270.552 469.251C269.558 466.956 269.558 466.956 269.558 466.956C269.559 466.956 269.559 466.956 269.559 466.956C269.559 466.956 269.559 466.956 269.559 466.956C269.559 466.956 269.558 466.956 269.558 466.957C269.557 466.957 269.555 466.958 269.551 466.959C269.545 466.962 269.535 466.967 269.52 466.973C269.491 466.985 269.447 467.004 269.388 467.029C269.27 467.078 269.093 467.152 268.866 467.244C268.412 467.43 267.756 467.69 266.963 467.985C265.37 468.58 263.257 469.305 261.121 469.857L262.371 474.698ZM251.583 451.956C251.441 448.297 251.477 444.337 251.72 440.248L246.729 439.951C246.477 444.199 246.438 448.322 246.587 452.15L251.583 451.956ZM251.72 440.248C252.399 428.81 254.683 416.544 259.063 407.006L254.519 404.919C249.787 415.224 247.428 428.165 246.729 439.951L251.72 440.248ZM249.224 440.099C249.457 442.589 249.457 442.589 249.457 442.589C249.457 442.589 249.457 442.589 249.457 442.589C249.458 442.589 249.458 442.588 249.458 442.588C249.459 442.588 249.46 442.588 249.461 442.588C249.464 442.588 249.468 442.587 249.474 442.587C249.486 442.586 249.504 442.584 249.528 442.582C249.576 442.578 249.647 442.571 249.74 442.563C249.925 442.546 250.197 442.522 250.538 442.492C251.22 442.433 252.182 442.353 253.294 442.268C255.526 442.098 258.336 441.913 260.719 441.843L260.572 436.845C258.072 436.919 255.172 437.111 252.914 437.283C251.782 437.369 250.803 437.451 250.107 437.511C249.759 437.541 249.481 437.566 249.29 437.583C249.194 437.592 249.12 437.598 249.07 437.603C249.045 437.605 249.025 437.607 249.012 437.608C249.006 437.609 249.001 437.609 248.997 437.61C248.995 437.61 248.994 437.61 248.993 437.61C248.993 437.61 248.992 437.61 248.992 437.61C248.992 437.61 248.992 437.61 248.992 437.61C248.991 437.61 248.991 437.61 249.224 440.099ZM260.719 441.843C262.999 441.776 265.349 441.953 267.154 442.153C268.05 442.252 268.799 442.356 269.32 442.434C269.58 442.473 269.783 442.505 269.918 442.528C269.986 442.539 270.037 442.547 270.07 442.553C270.086 442.556 270.098 442.558 270.105 442.559C270.108 442.56 270.111 442.56 270.112 442.56C270.112 442.561 270.113 442.561 270.113 442.561C270.113 442.561 270.112 442.561 270.112 442.561C270.112 442.56 270.112 442.56 270.112 442.56C270.112 442.56 270.112 442.56 270.552 440.099C270.992 437.638 270.991 437.638 270.991 437.638C270.991 437.638 270.991 437.638 270.99 437.638C270.99 437.638 270.989 437.638 270.989 437.638C270.988 437.638 270.986 437.637 270.984 437.637C270.98 437.636 270.976 437.636 270.969 437.635C270.957 437.632 270.94 437.629 270.918 437.626C270.875 437.618 270.813 437.608 270.734 437.595C270.575 437.568 270.348 437.532 270.061 437.489C269.487 437.403 268.674 437.291 267.704 437.183C265.777 436.97 263.174 436.769 260.572 436.845L260.719 441.843ZM259.063 407.006C259.309 406.47 259.554 405.944 259.8 405.426L255.282 403.284C255.027 403.821 254.773 404.366 254.519 404.919L259.063 407.006ZM259.8 405.426C265.654 393.078 271.401 385.858 280.197 382.123L278.242 377.521C267.761 381.972 261.324 390.54 255.282 403.284L259.8 405.426ZM257.159 406.825C258.949 407.102 260.927 407.299 262.765 407.517C264.653 407.742 266.48 407.997 268.194 408.397L269.332 403.528C267.335 403.062 265.283 402.781 263.355 402.552C261.376 402.317 259.598 402.143 257.923 401.884L257.159 406.825ZM268.194 408.397C271.788 409.236 273.662 409.895 276.117 410.682L277.644 405.921C275.237 405.149 273.16 404.422 269.332 403.528L268.194 408.397ZM429.287 424.072L420.756 431.914L424.14 435.595L432.671 427.753L429.287 424.072ZM420.414 428.924L429.595 435.026L432.363 430.862L423.182 424.76L420.414 428.924Z" fill="black"/>
</svg>
