<svg width="700" height="900" viewBox="0 0 700 900" fill="none" xmlns="http://www.w3.org/2000/svg">
<path d="M319.174 600.186C319.174 600.186 339.392 594.757 354.203 590.336C369.014 585.915 333.87 434.33 333.87 434.33C333.87 434.33 329.054 397.905 324.152 379.918C319.249 361.931 311.645 332.41 311.645 332.41C311.645 332.41 300.65 299.89 286.514 283.107C272.378 266.324 254.639 260.318 235.27 255.901C215.902 251.485 206.998 251.958 180.669 258.374C154.341 264.79 138.438 283.637 131.9 299.89C125.362 316.143 127.129 359.425 127.482 381.331C127.836 403.237 130.84 433.83 142.148 463.494C153.457 493.158 236.742 649.451 248.297 646.971C259.851 644.49 283.872 614.686 283.872 614.686C283.872 614.686 246.569 545.304 241.956 536.429C237.342 527.553 220.478 491.045 218.06 483.972C212.865 468.779 207.705 456.942 203.111 442.753C198.516 428.563 193.215 411.01 192.685 396.171C192.155 381.331 193.781 362.608 218.06 359.957C242.338 357.305 249.76 376.208 255.414 387.161C261.069 398.114 265.536 413.625 269.841 428.823C274.145 444.022 276.668 453.498 278.507 462.508C279.334 466.56 286.518 494.379 291.525 513.068C296.533 531.756 319.174 600.186 319.174 600.186Z" fill="#FEF0FE"/>
<path d="M396.34 588.156C399.973 588.156 410.193 589.324 410.193 589.324C410.193 589.324 418.945 458.179 419.635 450.715C420.325 443.251 421.567 424.226 424.741 411.671C427.915 399.116 433.021 381.043 437.023 374.145C441.024 367.246 449.58 351.932 466.83 353.036C484.079 354.14 489.323 361.473 493.187 371.247C497.051 381.021 496.361 398.377 495.533 409.326C494.705 420.274 488.909 438.574 485.321 449.887C481.733 461.2 437.898 597 437.898 597C437.898 597 461.968 611.868 471.578 611.441C481.189 611.013 520.217 529.547 527.457 516.2C534.698 502.854 541.938 488.376 548.5 471.862C555.062 455.349 564.112 429.108 569.769 404.225C575.426 379.341 572.484 358.077 569.769 342.242C567.054 326.407 558.456 309.667 548.5 293.833C538.544 277.998 518.633 265.918 501.89 261.258C485.146 256.598 467.045 256.055 451.885 259.674C436.725 263.294 422.471 269.854 409.347 283.427C396.224 297 390.568 308.31 383.327 327.086C376.087 345.862 369.417 376.658 367.774 391.104C366.131 405.551 375.31 586.321 375.31 586.321L396.34 588.156Z" fill="#FEF0FE"/>
<path d="M410.193 589.324C436.693 595.746 437.898 597 437.898 597C437.898 597 481.733 461.2 485.321 449.887C488.909 438.574 494.705 420.274 495.533 409.326C496.361 398.377 497.051 381.021 493.187 371.247C489.323 361.473 484.079 354.14 466.83 353.036C449.58 351.932 441.024 367.246 437.023 374.145C433.021 381.043 427.915 399.116 424.741 411.671C421.567 424.226 420.325 443.251 419.635 450.715C418.945 458.179 410.193 589.324 410.193 589.324Z" fill="#BC6A89"/>
<path d="M298.65 607.026C305.827 603.855 319.174 600.186 319.174 600.186C319.174 600.186 296.533 531.756 291.525 513.068C286.518 494.379 279.334 466.56 278.507 462.508C276.668 453.498 274.145 444.022 269.841 428.823C265.536 413.625 261.069 398.114 255.414 387.161C249.76 376.208 242.338 357.305 218.06 359.957C193.781 362.608 192.155 381.331 192.685 396.171C193.215 411.01 198.516 428.563 203.111 442.753C207.705 456.942 212.865 468.779 218.06 483.972C220.478 491.045 237.342 527.553 241.956 536.429C246.569 545.304 283.872 614.686 283.872 614.686C283.872 614.686 291.473 610.196 298.65 607.026Z" fill="#BC6A89"/>
<path d="M396.34 588.156L396.209 589.651L396.274 589.656H396.34V588.156ZM437.898 597L436.817 598.04L436.948 598.176L437.11 598.276L437.898 597ZM311.645 332.41L313.098 332.036L313.084 331.982L313.066 331.929L311.645 332.41ZM333.87 434.33L332.383 434.526L332.393 434.598L332.409 434.668L333.87 434.33ZM375.31 586.321L373.812 586.397L373.878 587.702L375.18 587.815L375.31 586.321ZM218.06 483.972L216.641 484.457L218.06 483.972ZM278.507 462.508L277.037 462.808L278.507 462.508ZM299.256 608.398C302.759 606.85 307.818 605.162 312.048 603.849C314.153 603.196 316.036 602.641 317.393 602.25C318.071 602.054 318.617 601.899 318.993 601.793C319.181 601.741 319.326 601.7 319.424 601.673C319.473 601.659 319.511 601.649 319.535 601.642C319.548 601.639 319.557 601.636 319.563 601.634C319.566 601.633 319.569 601.633 319.57 601.632C319.571 601.632 319.571 601.632 319.572 601.632C319.572 601.632 319.572 601.632 319.572 601.632C319.572 601.632 319.572 601.632 319.174 600.186C318.777 598.739 318.777 598.739 318.777 598.739C318.776 598.739 318.776 598.739 318.776 598.739C318.775 598.74 318.775 598.74 318.774 598.74C318.772 598.741 318.77 598.741 318.766 598.742C318.759 598.744 318.749 598.747 318.736 598.75C318.71 598.758 318.672 598.768 318.621 598.782C318.52 598.81 318.372 598.852 318.181 598.905C317.799 599.013 317.246 599.169 316.561 599.367C315.19 599.763 313.288 600.324 311.159 600.984C306.921 602.299 301.718 604.03 298.044 605.653L299.256 608.398ZM319.174 600.186C319.563 601.634 319.564 601.634 319.564 601.634C319.564 601.634 319.564 601.634 319.564 601.634C319.565 601.634 319.566 601.634 319.567 601.633C319.57 601.633 319.573 601.632 319.578 601.63C319.588 601.628 319.603 601.624 319.622 601.618C319.661 601.608 319.719 601.592 319.795 601.572C319.947 601.531 320.172 601.47 320.463 601.392C321.046 601.235 321.894 601.005 322.958 600.716C325.087 600.137 328.079 599.32 331.534 598.364C338.443 596.454 347.212 593.988 354.632 591.773L353.774 588.899C346.383 591.105 337.638 593.564 330.735 595.473C327.284 596.427 324.297 597.243 322.171 597.821C321.109 598.11 320.262 598.339 319.681 598.496C319.391 598.574 319.166 598.634 319.015 598.675C318.939 598.695 318.882 598.711 318.843 598.721C318.824 598.727 318.81 598.73 318.8 598.733C318.795 598.734 318.791 598.735 318.789 598.736C318.788 598.736 318.787 598.737 318.786 598.737C318.786 598.737 318.786 598.737 318.786 598.737C318.785 598.737 318.785 598.737 319.174 600.186ZM409.839 590.782C423.079 593.991 429.971 595.901 433.541 597.004C435.328 597.556 436.257 597.898 436.723 598.09C436.956 598.187 437.051 598.236 437.069 598.246C437.077 598.251 437.055 598.239 437.016 598.212C436.995 598.197 436.968 598.177 436.935 598.15C436.919 598.136 436.9 598.12 436.881 598.102C436.871 598.093 436.86 598.083 436.85 598.073C436.845 598.068 436.839 598.062 436.834 598.057C436.831 598.054 436.827 598.05 436.825 598.048C436.821 598.044 436.817 598.04 437.898 597C438.98 595.961 438.976 595.956 438.971 595.952C438.97 595.951 438.966 595.946 438.963 595.943C438.957 595.938 438.952 595.932 438.946 595.927C438.935 595.916 438.925 595.906 438.914 595.896C438.893 595.877 438.873 595.859 438.853 595.843C438.814 595.811 438.777 595.782 438.741 595.757C438.671 595.708 438.597 595.663 438.521 595.621C438.369 595.537 438.163 595.439 437.869 595.318C437.281 595.074 436.252 594.701 434.426 594.137C430.768 593.007 423.807 591.08 410.546 587.867L409.839 590.782ZM248.611 648.437C251.88 647.736 255.789 645.195 259.675 642.045C263.62 638.846 267.755 634.839 271.5 630.937C275.249 627.031 278.632 623.206 281.077 620.359C282.299 618.935 283.288 617.755 283.973 616.929C284.315 616.516 284.581 616.192 284.762 615.97C284.852 615.86 284.921 615.774 284.968 615.717C284.991 615.688 285.009 615.666 285.021 615.651C285.027 615.643 285.032 615.638 285.035 615.634C285.037 615.632 285.038 615.63 285.039 615.629C285.039 615.629 285.04 615.628 285.04 615.628C285.04 615.628 285.04 615.628 283.872 614.686C282.704 613.745 282.704 613.745 282.704 613.745C282.704 613.745 282.704 613.746 282.704 613.746C282.703 613.747 282.702 613.748 282.701 613.75C282.698 613.753 282.694 613.758 282.688 613.765C282.677 613.779 282.661 613.799 282.638 613.827C282.593 613.882 282.526 613.965 282.438 614.073C282.261 614.289 282 614.608 281.663 615.015C280.988 615.829 280.01 616.996 278.8 618.405C276.38 621.224 273.035 625.005 269.335 628.86C265.631 632.719 261.594 636.627 257.785 639.715C253.917 642.851 250.491 644.966 247.982 645.504L248.611 648.437ZM247.982 645.504C248.058 645.488 247.972 645.536 247.624 645.379C247.29 645.229 246.841 644.945 246.272 644.482C245.135 643.556 243.715 642.076 242.035 640.057C238.687 636.031 234.479 630.071 229.684 622.702C220.102 607.978 208.274 587.781 196.44 566.556C172.754 524.072 149.16 477.675 143.55 462.96L140.747 464.029C146.446 478.978 170.149 525.559 193.82 568.017C205.666 589.264 217.532 609.529 227.169 624.339C231.984 631.737 236.267 637.813 239.729 641.975C241.454 644.05 243.019 645.702 244.377 646.808C245.056 647.36 245.731 647.817 246.391 648.114C247.037 648.406 247.813 648.609 248.611 648.437L247.982 645.504ZM143.55 462.96C132.326 433.519 129.334 403.116 128.982 381.307L125.982 381.355C126.337 403.359 129.353 434.142 140.747 464.029L143.55 462.96ZM128.982 381.307C128.805 370.32 128.276 354.076 128.606 338.522C128.772 330.75 129.151 323.181 129.892 316.558C130.636 309.909 131.735 304.32 133.291 300.45L130.508 299.33C128.796 303.586 127.663 309.503 126.911 316.224C126.156 322.973 125.773 330.641 125.607 338.459C125.275 354.087 125.806 370.437 125.982 381.355L128.982 381.307ZM133.291 300.45C139.681 284.565 155.244 266.114 181.025 259.832L180.314 256.917C153.437 263.466 137.194 282.709 130.508 299.33L133.291 300.45ZM181.025 259.832C194.18 256.626 202.867 254.935 210.65 254.574C218.398 254.214 225.318 255.17 234.937 257.364L235.604 254.439C225.854 252.215 218.639 251.2 210.51 251.577C202.416 251.953 193.487 253.707 180.314 256.917L181.025 259.832ZM234.937 257.364C254.22 261.761 271.555 267.675 285.367 284.073L287.661 282.141C273.201 264.972 255.058 258.875 235.604 254.439L234.937 257.364ZM285.367 284.073C292.29 292.293 298.503 304.455 303.008 314.658C305.253 319.741 307.059 324.305 308.303 327.597C308.925 329.242 309.407 330.569 309.732 331.483C309.895 331.94 310.018 332.293 310.101 332.532C310.142 332.651 310.173 332.741 310.194 332.802C310.204 332.832 310.212 332.854 310.217 332.869C310.22 332.877 310.221 332.882 310.223 332.886C310.223 332.887 310.224 332.889 310.224 332.889C310.224 332.89 310.224 332.89 310.224 332.89C310.224 332.89 310.224 332.89 311.645 332.41C313.066 331.929 313.066 331.929 313.066 331.929C313.066 331.928 313.066 331.928 313.065 331.927C313.065 331.926 313.064 331.924 313.064 331.922C313.062 331.918 313.06 331.911 313.057 331.903C313.052 331.887 313.043 331.862 313.032 331.83C313.01 331.766 312.978 331.672 312.935 331.549C312.85 331.303 312.724 330.942 312.558 330.477C312.227 329.546 311.739 328.201 311.109 326.536C309.85 323.206 308.024 318.59 305.753 313.446C301.226 303.194 294.874 290.704 287.661 282.141L285.367 284.073ZM311.645 332.41C310.193 332.784 310.193 332.784 310.193 332.784C310.193 332.784 310.193 332.785 310.193 332.785C310.193 332.786 310.193 332.788 310.194 332.789C310.195 332.793 310.196 332.798 310.198 332.805C310.202 332.82 310.207 332.841 310.215 332.869C310.229 332.926 310.251 333.01 310.279 333.12C310.336 333.341 310.42 333.667 310.529 334.088C310.747 334.931 311.063 336.155 311.458 337.679C312.247 340.729 313.351 344.982 314.608 349.797C317.122 359.427 320.251 371.31 322.704 380.312L325.599 379.523C323.15 370.538 320.025 358.668 317.511 349.04C316.255 344.227 315.151 339.975 314.362 336.927C313.967 335.403 313.651 334.18 313.434 333.338C313.325 332.917 313.241 332.592 313.184 332.371C313.156 332.261 313.134 332.177 313.12 332.121C313.112 332.093 313.107 332.071 313.103 332.057C313.101 332.05 313.1 332.045 313.099 332.041C313.099 332.039 313.098 332.038 313.098 332.037C313.098 332.037 313.098 332.036 313.098 332.036C313.098 332.036 313.098 332.036 311.645 332.41ZM354.632 591.773C356.201 591.305 357.179 589.942 357.803 588.426C358.439 586.878 358.84 584.857 359.074 582.513C359.544 577.807 359.377 571.415 358.769 563.973C357.551 549.065 354.536 529.645 351.067 510.409C347.595 491.162 343.662 472.059 340.597 457.769C339.064 450.624 337.748 444.681 336.815 440.523C336.348 438.445 335.978 436.812 335.724 435.699C335.596 435.143 335.499 434.716 335.432 434.428C335.399 434.284 335.374 434.175 335.357 434.102C335.349 434.065 335.342 434.038 335.338 434.019C335.336 434.01 335.334 434.003 335.333 433.998C335.333 433.996 335.332 433.994 335.332 433.993C335.332 433.991 335.331 433.991 333.87 434.33C332.409 434.668 332.409 434.669 332.409 434.67C332.41 434.671 332.41 434.673 332.41 434.675C332.411 434.68 332.413 434.686 332.415 434.695C332.419 434.714 332.426 434.741 332.434 434.777C332.451 434.85 332.476 434.958 332.509 435.101C332.575 435.387 332.672 435.812 332.799 436.367C333.052 437.477 333.422 439.105 333.888 441.18C334.819 445.33 336.133 451.264 337.663 458.399C340.725 472.67 344.651 491.739 348.114 510.941C351.58 530.154 354.573 549.459 355.779 564.217C356.383 571.608 356.532 577.784 356.089 582.214C355.867 584.438 355.504 586.127 355.028 587.285C354.539 588.475 354.056 588.814 353.774 588.899L354.632 591.773ZM322.704 380.312C325.132 389.219 327.551 402.75 329.368 414.106C330.275 419.773 331.029 424.879 331.556 428.569C331.82 430.414 332.027 431.904 332.168 432.933C332.238 433.447 332.292 433.846 332.328 434.116C332.346 434.251 332.36 434.354 332.369 434.423C332.374 434.457 332.377 434.483 332.38 434.501C332.381 434.509 332.382 434.516 332.382 434.52C332.383 434.522 332.383 434.524 332.383 434.525C332.383 434.525 332.383 434.526 332.383 434.526C332.383 434.526 332.383 434.526 333.87 434.33C335.357 434.133 335.357 434.133 335.357 434.132C335.357 434.132 335.357 434.132 335.357 434.131C335.357 434.13 335.357 434.128 335.356 434.126C335.356 434.121 335.355 434.115 335.354 434.106C335.351 434.088 335.348 434.061 335.343 434.026C335.334 433.956 335.32 433.852 335.301 433.716C335.265 433.444 335.211 433.043 335.14 432.526C334.998 431.492 334.79 429.996 334.526 428.145C333.997 424.443 333.241 419.319 332.331 413.632C330.514 402.279 328.074 388.603 325.599 379.523L322.704 380.312ZM375.18 587.815L396.209 589.651L396.47 586.662L375.441 584.827L375.18 587.815ZM375.31 586.321C376.808 586.245 376.808 586.244 376.808 586.243C376.808 586.241 376.808 586.239 376.808 586.237C376.808 586.231 376.807 586.223 376.807 586.212C376.805 586.19 376.804 586.157 376.802 586.114C376.797 586.027 376.791 585.897 376.782 585.726C376.765 585.384 376.739 584.875 376.706 584.212C376.639 582.885 376.541 580.936 376.417 578.451C376.169 573.48 375.817 566.363 375.4 557.777C374.565 540.605 373.469 517.56 372.424 494.064C371.38 470.566 370.387 446.622 369.758 427.652C369.443 418.166 369.22 409.93 369.126 403.618C369.032 397.257 369.072 392.963 369.264 391.274L366.284 390.935C366.065 392.858 366.033 397.373 366.126 403.663C366.22 410.002 366.444 418.259 366.759 427.751C367.389 446.739 368.383 470.696 369.427 494.197C370.472 517.699 371.568 540.749 372.403 557.923C372.821 566.51 373.173 573.628 373.421 578.6C373.545 581.086 373.643 583.035 373.709 584.363C373.743 585.027 373.768 585.535 373.786 585.878C373.794 586.049 373.801 586.179 373.805 586.266C373.808 586.309 373.809 586.342 373.81 586.364C373.811 586.375 373.811 586.383 373.812 586.389C373.812 586.391 373.812 586.393 373.812 586.395C373.812 586.396 373.812 586.397 375.31 586.321ZM369.264 391.274C370.896 376.932 377.539 346.264 384.727 327.626L381.928 326.546C374.634 345.46 367.939 376.383 366.284 390.935L369.264 391.274ZM384.727 327.626C391.932 308.941 397.499 297.839 410.426 284.469L408.269 282.384C394.949 296.161 389.203 307.68 381.928 326.546L384.727 327.626ZM410.426 284.469C423.312 271.142 437.292 264.701 452.234 261.133L451.537 258.215C436.159 261.887 421.63 268.566 408.269 282.384L410.426 284.469ZM452.234 261.133C467.121 257.579 484.963 258.104 501.487 262.703L502.292 259.813C485.329 255.092 466.969 254.531 451.537 258.215L452.234 261.133ZM501.487 262.703C517.98 267.293 537.526 279.196 547.23 294.631L549.77 293.034C539.563 276.799 519.287 264.542 502.292 259.813L501.487 262.703ZM547.23 294.631C557.162 310.429 565.627 326.962 568.291 342.496L571.247 341.989C568.48 325.852 559.749 308.906 549.77 293.034L547.23 294.631ZM568.291 342.496C570.997 358.281 573.895 379.305 568.306 403.892L571.232 404.557C576.956 379.377 573.971 357.874 571.247 341.989L568.291 342.496ZM568.306 403.892C562.672 428.679 553.648 454.844 547.106 471.309L549.894 472.416C556.475 455.854 565.553 429.537 571.232 404.557L568.306 403.892ZM547.106 471.309C540.574 487.749 533.362 502.17 526.139 515.485L528.776 516.916C536.034 503.537 543.303 489.003 549.894 472.416L547.106 471.309ZM437.898 597C437.11 598.276 437.11 598.276 437.111 598.277C437.111 598.277 437.111 598.277 437.112 598.277C437.113 598.278 437.114 598.279 437.115 598.28C437.119 598.282 437.123 598.285 437.129 598.288C437.142 598.296 437.16 598.307 437.183 598.321C437.23 598.35 437.3 598.393 437.391 598.448C437.572 598.559 437.839 598.72 438.18 598.925C438.863 599.334 439.849 599.918 441.06 600.616C443.482 602.012 446.816 603.871 450.455 605.718C454.091 607.563 458.057 609.41 461.741 610.772C465.372 612.114 468.921 613.06 471.645 612.939L471.512 609.942C469.43 610.035 466.366 609.283 462.781 607.958C459.249 606.652 455.397 604.862 451.813 603.043C448.234 601.227 444.95 599.395 442.558 598.017C441.363 597.328 440.393 596.753 439.722 596.352C439.387 596.151 439.127 595.993 438.951 595.886C438.863 595.832 438.797 595.792 438.752 595.764C438.73 595.751 438.713 595.74 438.702 595.734C438.697 595.73 438.693 595.728 438.69 595.726C438.689 595.725 438.688 595.725 438.687 595.724C438.687 595.724 438.687 595.724 438.687 595.724C438.687 595.724 438.687 595.724 437.898 597ZM526.139 515.485C524.316 518.846 520.501 526.476 515.685 535.974C510.859 545.492 505.008 556.927 499.085 567.955C493.158 578.991 487.176 589.587 482.087 597.44C479.539 601.372 477.243 604.572 475.311 606.787C474.343 607.897 473.503 608.718 472.799 609.256C472.055 609.824 471.644 609.936 471.512 609.942L471.645 612.939C472.713 612.892 473.734 612.317 474.621 611.639C475.548 610.93 476.539 609.944 477.572 608.759C479.643 606.385 482.029 603.046 484.604 599.072C489.762 591.112 495.792 580.428 501.728 569.375C507.668 558.315 513.533 546.854 518.361 537.33C523.2 527.786 526.979 520.228 528.776 516.916L526.139 515.485ZM437.898 597C439.326 597.461 439.326 597.46 439.326 597.459C439.327 597.458 439.327 597.457 439.328 597.455C439.329 597.451 439.331 597.444 439.334 597.436C439.339 597.42 439.347 597.395 439.358 597.362C439.379 597.297 439.41 597.2 439.452 597.071C439.535 596.814 439.658 596.432 439.819 595.933C440.141 594.936 440.614 593.471 441.216 591.604C442.422 587.868 444.148 582.519 446.231 576.065C450.397 563.157 455.988 545.829 461.692 528.147C473.098 492.786 484.956 456.002 486.751 450.341L483.891 449.434C482.099 455.086 470.245 491.858 458.837 527.226C453.133 544.908 447.542 562.236 443.376 575.144C441.293 581.598 439.567 586.947 438.361 590.682C437.759 592.55 437.286 594.014 436.964 595.012C436.803 595.51 436.68 595.892 436.597 596.149C436.555 596.278 436.524 596.376 436.503 596.441C436.492 596.474 436.484 596.498 436.479 596.515C436.476 596.523 436.474 596.529 436.473 596.533C436.472 596.535 436.472 596.537 436.471 596.538C436.471 596.539 436.471 596.539 437.898 597ZM486.751 450.341C490.314 439.105 496.184 420.605 497.029 409.439L494.037 409.213C493.226 419.944 487.504 438.043 483.891 449.434L486.751 450.341ZM497.029 409.439C497.444 403.942 497.828 396.807 497.619 389.801C497.411 382.834 496.613 375.835 494.582 370.696L491.792 371.799C493.624 376.434 494.414 383 494.62 389.891C494.825 396.744 494.449 403.76 494.037 409.213L497.029 409.439ZM494.582 370.696C492.618 365.729 490.224 361.162 485.971 357.724C481.705 354.276 475.749 352.104 466.925 351.539L466.734 354.533C475.16 355.072 480.45 357.119 484.085 360.057C487.732 363.005 489.892 366.992 491.792 371.799L494.582 370.696ZM466.925 351.539C457.778 350.954 450.937 354.743 445.925 359.502C440.95 364.226 437.712 369.967 435.725 373.392L438.32 374.897C440.335 371.424 443.376 366.059 447.991 361.677C452.57 357.33 458.631 354.014 466.734 354.533L466.925 351.539ZM435.725 373.392C433.629 377.005 431.309 383.4 429.14 390.339C426.955 397.325 424.877 405.01 423.287 411.303L426.195 412.039C427.778 405.777 429.841 398.149 432.003 391.234C434.18 384.273 436.414 378.182 438.32 374.897L435.725 373.392ZM423.287 411.303C420.075 424.006 418.823 443.205 418.141 450.577L421.129 450.853C421.827 443.297 423.058 424.446 426.195 412.039L423.287 411.303ZM396.34 589.656C398.07 589.656 401.457 589.94 404.484 590.233C405.981 590.379 407.367 590.524 408.378 590.633C408.884 590.688 409.295 590.733 409.58 590.765C409.723 590.781 409.834 590.793 409.909 590.802C409.946 590.806 409.975 590.809 409.994 590.811C410.003 590.813 410.011 590.813 410.015 590.814C410.018 590.814 410.02 590.814 410.021 590.815C410.021 590.815 410.022 590.815 410.022 590.815C410.022 590.815 410.022 590.815 410.022 590.815C410.022 590.815 410.022 590.815 410.193 589.324C410.363 587.834 410.363 587.834 410.363 587.834C410.363 587.834 410.363 587.834 410.362 587.834C410.362 587.834 410.362 587.834 410.361 587.834C410.36 587.834 410.358 587.834 410.355 587.833C410.35 587.833 410.342 587.832 410.333 587.831C410.313 587.828 410.284 587.825 410.245 587.821C410.169 587.812 410.057 587.8 409.913 587.783C409.625 587.751 409.209 587.706 408.7 587.651C407.681 587.541 406.285 587.394 404.774 587.247C401.782 586.957 398.243 586.656 396.34 586.656V589.656ZM418.141 450.577C417.794 454.334 415.431 489.018 413.158 522.718C412.021 539.578 410.906 556.204 410.074 568.616C409.659 574.822 409.314 579.974 409.073 583.575C408.953 585.375 408.859 586.787 408.794 587.75C408.762 588.231 408.738 588.6 408.721 588.848C408.713 588.972 408.707 589.066 408.702 589.129C408.7 589.161 408.699 589.185 408.698 589.201C408.697 589.209 408.697 589.215 408.696 589.219C408.696 589.221 408.696 589.222 408.696 589.223C408.696 589.224 408.696 589.225 410.193 589.324C411.689 589.424 411.689 589.424 411.689 589.423C411.689 589.422 411.69 589.42 411.69 589.418C411.69 589.414 411.69 589.408 411.691 589.4C411.692 589.385 411.694 589.361 411.696 589.329C411.7 589.266 411.706 589.172 411.714 589.048C411.731 588.8 411.756 588.431 411.788 587.95C411.852 586.987 411.946 585.575 412.067 583.775C412.307 580.174 412.652 575.022 413.068 568.817C413.899 556.405 415.015 539.779 416.152 522.92C418.427 489.181 420.786 454.561 421.129 450.853L418.141 450.577ZM283.872 614.686C284.635 615.978 284.635 615.978 284.635 615.978C284.635 615.978 284.635 615.978 284.635 615.978C284.636 615.978 284.636 615.977 284.636 615.977C284.637 615.977 284.638 615.976 284.64 615.975C284.643 615.973 284.648 615.97 284.655 615.966C284.669 615.958 284.69 615.945 284.718 615.929C284.774 615.896 284.858 615.847 284.967 615.784C285.185 615.657 285.507 615.471 285.915 615.238C286.733 614.772 287.898 614.117 289.286 613.363C292.066 611.853 295.721 609.959 299.256 608.398L298.044 605.653C294.403 607.262 290.668 609.199 287.854 610.727C286.445 611.492 285.261 612.157 284.429 612.632C284.013 612.87 283.684 613.059 283.459 613.19C283.346 613.256 283.26 613.306 283.201 613.341C283.171 613.358 283.149 613.372 283.134 613.381C283.126 613.385 283.12 613.389 283.116 613.391C283.114 613.392 283.112 613.393 283.111 613.394C283.111 613.394 283.11 613.394 283.11 613.394C283.11 613.395 283.11 613.395 283.11 613.395C283.109 613.395 283.109 613.395 283.872 614.686ZM219.479 483.486C216.872 475.862 214.274 469.079 211.763 462.454C209.249 455.823 206.822 449.347 204.538 442.291L201.684 443.215C203.993 450.348 206.443 456.885 208.957 463.518C211.474 470.156 214.053 476.889 216.641 484.457L219.479 483.486ZM204.538 442.291C199.935 428.077 194.706 410.716 194.184 396.117L191.186 396.224C191.725 411.304 197.097 429.05 201.684 443.215L204.538 442.291ZM194.184 396.117C193.92 388.717 194.219 380.659 197.415 374.155C200.539 367.8 206.534 362.724 218.223 361.448L217.897 358.465C205.307 359.84 198.35 365.452 194.723 372.831C191.17 380.061 190.92 388.785 191.186 396.224L194.184 396.117ZM218.223 361.448C229.875 360.175 237.351 364.05 242.645 369.502C248.045 375.062 251.191 382.251 254.082 387.849L256.747 386.473C253.983 381.118 250.592 373.379 244.797 367.412C238.897 361.337 230.523 357.086 217.897 358.465L218.223 361.448ZM254.082 387.849C259.652 398.64 264.08 413.989 268.397 429.232L271.284 428.415C266.992 413.262 262.485 397.588 256.747 386.473L254.082 387.849ZM268.397 429.232C272.701 444.429 275.21 453.858 277.037 462.808L279.977 462.208C278.125 453.138 275.588 443.614 271.284 428.415L268.397 429.232ZM277.037 462.808C277.876 466.916 285.076 494.791 290.077 513.456L292.974 512.679C287.961 493.966 280.793 466.203 279.977 462.208L277.037 462.808ZM290.077 513.456C292.592 522.846 299.519 544.668 305.8 564.096C308.944 573.821 311.932 582.961 314.133 589.669C315.234 593.024 316.138 595.77 316.767 597.678C317.082 598.633 317.327 599.377 317.495 599.883C317.578 600.136 317.642 600.329 317.685 600.46C317.707 600.525 317.723 600.574 317.734 600.607C317.739 600.623 317.743 600.636 317.746 600.644C317.748 600.648 317.749 600.652 317.749 600.654C317.75 600.655 317.75 600.655 317.75 600.656C317.75 600.657 317.75 600.657 319.174 600.186C320.598 599.714 320.598 599.714 320.598 599.714C320.598 599.713 320.598 599.712 320.597 599.711C320.597 599.709 320.596 599.706 320.594 599.702C320.592 599.694 320.588 599.681 320.582 599.665C320.571 599.632 320.555 599.583 320.533 599.518C320.491 599.388 320.427 599.195 320.343 598.942C320.176 598.437 319.931 597.693 319.616 596.739C318.988 594.832 318.084 592.087 316.984 588.734C314.783 582.028 311.797 572.892 308.655 563.173C302.364 543.715 295.466 521.978 292.974 512.679L290.077 513.456ZM283.872 614.686C285.193 613.976 285.193 613.976 285.193 613.975C285.193 613.975 285.192 613.974 285.192 613.973C285.191 613.971 285.189 613.968 285.187 613.963C285.182 613.955 285.175 613.942 285.166 613.926C285.148 613.892 285.122 613.842 285.086 613.777C285.016 613.645 284.911 613.45 284.773 613.195C284.499 612.684 284.096 611.935 283.582 610.978C282.553 609.063 281.078 606.318 279.293 602.997C275.724 596.353 270.917 587.404 265.966 578.176C256.059 559.714 245.587 540.163 243.287 535.737L240.625 537.12C242.937 541.569 253.423 561.147 263.322 579.595C268.274 588.823 273.081 597.773 276.65 604.417C278.435 607.738 279.91 610.483 280.939 612.398C281.454 613.355 281.857 614.105 282.131 614.615C282.268 614.87 282.373 615.066 282.444 615.197C282.479 615.263 282.506 615.313 282.524 615.346C282.533 615.363 282.54 615.376 282.544 615.384C282.547 615.388 282.548 615.391 282.549 615.393C282.55 615.394 282.55 615.395 282.551 615.396C282.551 615.396 282.551 615.397 283.872 614.686ZM243.287 535.737C241 531.337 235.645 520.024 230.548 508.899C225.438 497.745 220.658 486.934 219.479 483.486L216.641 484.457C217.88 488.083 222.742 499.062 227.821 510.149C232.914 521.266 238.298 532.645 240.625 537.12L243.287 535.737Z" fill="black"/>
</svg>
