<svg width="701" height="900" viewBox="0 0 701 900" fill="none" xmlns="http://www.w3.org/2000/svg">
<path d="M167.546 420.818C157.273 426.967 146.999 436.259 147 453.275C147.001 470.291 155.133 480.64 170.542 480.64C185.95 480.64 196.51 470.624 199.648 447.44C202.785 424.256 177.818 414.669 167.546 420.818Z" fill="black"/>
<path d="M512.922 423.525C496.634 435.424 497.753 452.583 503.224 462.603C508.695 472.623 519.139 486.401 539.406 480.639C559.672 474.878 554.201 447.575 550.098 437.931C545.995 428.286 529.21 411.626 512.922 423.525Z" fill="black"/>
<path d="M167.546 420.818C157.273 426.967 146.999 436.259 147 453.275C147.001 470.291 155.133 480.64 170.542 480.64C185.95 480.64 196.51 470.624 199.648 447.44C202.785 424.256 177.818 414.669 167.546 420.818Z" stroke="black" stroke-width="3"/>
<path d="M512.922 423.525C496.634 435.424 497.753 452.583 503.224 462.603C508.695 472.623 519.139 486.401 539.406 480.639C559.672 474.878 554.201 447.575 550.098 437.931C545.995 428.286 529.21 411.626 512.922 423.525Z" stroke="black" stroke-width="3"/>
</svg>
