<svg width="700" height="900" viewBox="0 0 700 900" fill="none" xmlns="http://www.w3.org/2000/svg">
<path fill-rule="evenodd" clip-rule="evenodd" d="M199.444 631.606C218.916 641.435 306.562 657.239 353.282 656.997C400.002 656.755 431.472 653.609 458.584 642.959C485.697 632.31 498.042 625.291 509.904 616.819C521.766 608.348 532.901 601.813 540.889 592.616C548.878 583.419 550.746 581.742 554.888 576.881C559.03 572.019 565.963 562.837 565.963 557.345C565.963 551.853 549.395 554.194 549.395 550.503C549.395 546.811 562.181 539.879 567.764 533.757C573.347 527.635 573.527 519.9 572.536 515.031C571.546 510.163 566.773 506.119 559.93 508.099C553.087 510.08 538.363 519.359 534.808 517.102C531.253 514.845 532.737 503.688 532.017 494.505C531.297 485.322 528.956 448.825 524.012 430.079C519.068 411.332 508.872 388.371 499.275 374.163C489.678 359.955 472.808 342.408 472.808 342.408L444.232 318.799C441.395 328.764 427.755 330.756 428.004 333.488C428.253 336.219 442.608 342.787 444.982 353.268C447.357 363.749 446.563 372.015 441.395 381.905C436.228 391.795 425.051 398.29 421.213 400.209C417.374 402.128 399.777 405.376 391.537 401.243C383.298 397.109 383.417 384.71 381.941 384.415C380.465 384.119 370.72 394.426 361.715 403.886C352.709 413.347 342.817 418.513 328.607 418.366C314.398 418.218 302.364 410.099 296.901 403.886C291.439 397.673 285.681 382.2 286.259 374.122C286.259 374.122 268.85 373.399 263.388 371.895C257.925 370.391 249.037 367.321 243.752 352.087C238.467 336.853 248.949 318.799 248.949 318.799C242.128 323.893 214.001 345.81 214.001 345.81C214.001 345.81 194.15 363.2 186.589 371.895C179.027 380.59 164.092 407.052 157.286 436.539C150.48 466.026 159.555 522.731 157.286 526.134C155.017 529.536 146.699 525.378 140.461 522.92C134.222 520.463 128.173 521.408 126.283 531.237C124.392 541.066 139.777 555.999 138.607 557.511C137.436 559.023 127.795 559.023 126.283 565.261C124.77 571.498 129.307 579.437 140.461 590.022C151.615 600.607 179.972 621.777 199.444 631.606ZM197.688 569.048C202.73 562.296 212.725 559.055 225.151 563.736C237.577 568.418 243.7 579.221 241.269 586.694C238.838 594.166 226.772 597.227 214.076 592.996C201.38 588.764 192.646 575.8 197.688 569.048ZM469.68 580.095C465.883 572.15 471.719 561.112 483.322 556.401C494.925 551.69 507.02 551.409 509.903 561.041C512.786 570.673 507.16 577.423 498.511 582.555C489.862 587.688 473.477 588.039 469.68 580.095Z" fill="#FEF0FE"/>
<path d="M290.996 301.102C294.965 302.784 275.146 299.536 265.307 304.998C255.468 310.46 248.949 318.799 248.949 318.799C248.949 318.799 238.467 336.853 243.752 352.087C249.037 367.321 257.925 370.391 263.388 371.895C268.85 373.399 286.259 374.122 286.259 374.122C285.681 382.2 291.439 397.673 296.901 403.886C302.364 410.099 314.398 418.218 328.607 418.366C342.817 418.513 352.709 413.347 361.715 403.886C370.72 394.426 380.465 384.119 381.941 384.415C383.417 384.71 383.298 397.109 391.537 401.243C399.777 405.376 417.374 402.128 421.213 400.209C425.051 398.29 436.228 391.795 441.395 381.905C446.563 372.015 447.357 363.749 444.982 353.268C442.608 342.787 428.253 336.219 428.004 333.488C427.755 330.756 441.395 328.764 444.232 318.799C447.068 308.835 442.325 296.025 439.52 292.097C439.52 292.097 432.286 281.823 422.984 279.672C413.683 277.521 407.925 277.394 398.624 280.494C398.624 280.494 390.356 288.17 388.142 290.237C385.927 292.303 384.451 270.456 377.364 262.928C370.278 255.4 356.971 248.462 356.971 248.462C356.971 248.462 349.018 245.952 342.817 244.476C336.616 243 328.644 243 328.644 243C328.644 243 312.846 243.955 298.564 251.098C284.281 258.242 283.909 280.494 283.909 280.494C284.057 290.237 287.027 299.42 290.996 301.102Z" fill="white"/>
<path d="M483.322 556.401C471.719 561.112 465.883 572.15 469.68 580.095C473.477 588.039 489.862 587.688 498.511 582.555C507.16 577.423 512.786 570.673 509.903 561.041C507.02 551.409 494.925 551.69 483.322 556.401Z" fill="#EC93B4"/>
<path d="M225.151 563.736C212.725 559.055 202.73 562.296 197.688 569.048C192.646 575.8 201.38 588.764 214.076 592.996C226.772 597.227 238.838 594.166 241.269 586.694C243.7 579.221 237.577 568.418 225.151 563.736Z" fill="#EC93B4"/>
<path d="M283.909 280.494L282.409 280.469L282.409 280.493L282.409 280.517L283.909 280.494ZM398.624 280.494L398.15 279.071L397.842 279.174L397.604 279.395L398.624 280.494ZM439.52 292.097L438.293 292.961L438.299 292.969L439.52 292.097ZM381.941 384.415L381.647 385.885L381.941 384.415ZM286.259 374.122L287.755 374.229L287.773 373.979L287.709 373.737L286.259 374.122ZM214.001 345.81L213.079 344.627L213.045 344.654L213.012 344.682L214.001 345.81ZM328.644 243L328.644 241.5L328.598 241.5L328.553 241.503L328.644 243ZM356.971 248.462L357.665 247.132L357.548 247.071L357.422 247.031L356.971 248.462ZM472.808 342.408L473.89 341.368L473.83 341.306L473.764 341.252L472.808 342.408ZM353.274 655.497C330.043 655.618 296.55 651.744 266.397 646.6C251.33 644.029 237.125 641.147 225.483 638.297C213.794 635.436 204.818 632.638 200.12 630.267L198.768 632.945C203.806 635.488 213.088 638.352 224.769 641.211C236.497 644.081 250.774 646.978 265.893 649.557C296.11 654.712 329.801 658.619 353.29 658.497L353.274 655.497ZM200.12 630.267C180.795 620.512 152.556 599.432 141.493 588.934L139.428 591.11C150.674 601.782 179.149 623.042 198.768 632.945L200.12 630.267ZM141.493 588.934C135.963 583.685 132.159 579.171 129.924 575.266C127.69 571.364 127.108 568.223 127.74 565.614L124.825 564.907C123.945 568.536 124.874 572.483 127.32 576.756C129.764 581.026 133.805 585.773 139.428 591.11L141.493 588.934ZM127.74 565.614C128.302 563.296 130.398 561.971 133.072 561.028C134.386 560.565 135.653 560.254 136.81 559.925C137.361 559.769 137.912 559.601 138.377 559.408C138.787 559.238 139.389 558.95 139.793 558.429L137.421 556.593C137.532 556.449 137.577 556.492 137.229 556.636C136.937 556.757 136.53 556.886 135.99 557.039C134.962 557.331 133.505 557.694 132.074 558.199C129.256 559.193 125.775 560.987 124.825 564.907L127.74 565.614ZM139.793 558.429C140.305 557.767 140.172 557.02 140.097 556.716C140.005 556.342 139.833 555.97 139.659 555.645C139.305 554.981 138.758 554.167 138.134 553.284C136.841 551.455 135.144 549.22 133.419 546.656C131.709 544.113 130.064 541.374 128.962 538.704C127.85 536.011 127.363 533.559 127.756 531.521L124.81 530.954C124.256 533.83 124.984 536.931 126.189 539.849C127.403 542.791 129.176 545.722 130.93 548.33C132.669 550.916 134.48 553.312 135.684 555.016C136.308 555.899 136.756 556.576 137.012 557.056C137.073 557.171 137.116 557.262 137.146 557.332C137.176 557.404 137.184 557.435 137.184 557.433C137.183 557.43 137.179 557.412 137.175 557.379C137.171 557.347 137.168 557.293 137.173 557.222C137.183 557.077 137.234 556.833 137.421 556.593L139.793 558.429ZM127.756 531.521C128.651 526.867 130.445 524.715 132.366 523.835C134.354 522.925 136.953 523.151 139.911 524.316L141.011 521.525C137.73 520.233 134.186 519.703 131.117 521.108C127.981 522.544 125.805 525.778 124.81 530.954L127.756 531.521ZM139.911 524.316C142.916 525.5 146.712 527.217 149.94 528.164C151.564 528.64 153.198 528.972 154.64 528.911C156.105 528.85 157.603 528.363 158.534 526.966L156.038 525.302C155.835 525.606 155.442 525.875 154.514 525.914C153.564 525.954 152.303 525.731 150.784 525.285C147.726 524.389 144.244 522.799 141.011 521.525L139.911 524.316ZM158.534 526.966C158.75 526.642 158.86 526.283 158.925 526.009C158.996 525.711 159.044 525.381 159.078 525.037C159.145 524.35 159.167 523.491 159.158 522.503C159.14 520.521 158.995 517.874 158.783 514.744C158.354 508.437 157.65 500.18 157.082 491.025C155.946 472.714 155.401 451.377 158.748 436.877L155.824 436.202C152.365 451.188 152.955 472.947 154.087 491.211C154.654 500.344 155.368 508.744 155.789 514.948C156.002 518.073 156.141 520.644 156.158 522.53C156.167 523.476 156.144 524.213 156.092 524.744C156.066 525.01 156.035 525.195 156.007 525.313C155.973 525.455 155.964 525.413 156.038 525.302L158.534 526.966ZM158.748 436.877C165.507 407.589 180.345 381.36 187.72 372.879L185.457 370.911C177.708 379.82 162.676 406.516 155.824 436.202L158.748 436.877ZM266.035 306.309C270.586 303.783 277.641 303.214 283.351 303.132C284.754 303.112 286.053 303.121 287.19 303.134C288.315 303.146 289.309 303.161 290.058 303.152C290.433 303.148 290.778 303.137 291.066 303.113C291.282 303.095 291.699 303.057 292.059 302.893C292.195 302.83 292.81 302.537 292.977 301.781C293.157 300.969 292.659 300.43 292.526 300.298C292.344 300.117 292.145 299.999 292.024 299.932C291.884 299.855 291.732 299.785 291.581 299.721L290.411 302.483C290.508 302.524 290.558 302.549 290.575 302.559C290.611 302.579 290.525 302.538 290.413 302.427C290.35 302.365 289.881 301.888 290.048 301.132C290.204 300.43 290.766 300.185 290.812 300.164C290.99 300.082 291.073 300.102 290.818 300.123C290.636 300.138 290.374 300.148 290.022 300.152C289.318 300.161 288.378 300.146 287.222 300.134C286.078 300.122 284.749 300.112 283.308 300.133C277.641 300.213 269.867 300.751 264.579 303.687L266.035 306.309ZM291.581 299.721C290.963 299.459 290.235 298.831 289.48 297.706C288.737 296.599 288.041 295.119 287.441 293.341C286.241 289.786 285.481 285.212 285.409 280.471L282.409 280.517C282.485 285.519 283.284 290.408 284.598 294.3C285.255 296.246 286.055 297.986 286.989 299.378C287.912 300.753 289.044 301.904 290.411 302.483L291.581 299.721ZM283.909 280.494C285.409 280.519 285.409 280.519 285.409 280.52C285.409 280.52 285.409 280.52 285.409 280.52C285.409 280.52 285.409 280.519 285.409 280.519C285.409 280.517 285.409 280.515 285.409 280.51C285.409 280.502 285.41 280.489 285.41 280.47C285.411 280.433 285.413 280.376 285.416 280.299C285.422 280.145 285.432 279.914 285.45 279.615C285.487 279.017 285.555 278.148 285.68 277.08C285.931 274.941 286.411 272.022 287.321 268.894C289.158 262.578 292.656 255.73 299.235 252.44L297.893 249.757C290.189 253.61 286.359 261.46 284.44 268.056C283.472 271.384 282.966 274.474 282.701 276.731C282.568 277.86 282.495 278.786 282.456 279.432C282.436 279.756 282.425 280.01 282.418 280.186C282.415 280.274 282.413 280.342 282.411 280.39C282.411 280.413 282.41 280.432 282.41 280.445C282.41 280.452 282.41 280.457 282.41 280.461C282.41 280.463 282.41 280.465 282.41 280.466C282.409 280.467 282.409 280.467 282.409 280.468C282.409 280.468 282.409 280.469 283.909 280.494ZM376.272 263.956C377.841 265.623 379.178 268.181 380.324 271.195C381.461 274.183 382.362 277.485 383.125 280.543C383.874 283.548 384.51 286.412 385.083 288.33C385.361 289.262 385.678 290.163 386.072 290.776C386.251 291.056 386.611 291.543 387.225 291.764C388.035 292.056 388.743 291.727 389.165 291.333L387.118 289.14C387.263 289.005 387.7 288.747 388.242 288.942C388.588 289.067 388.682 289.289 388.596 289.155C388.457 288.939 388.239 288.414 387.957 287.47C387.41 285.638 386.818 282.957 386.035 279.818C385.266 276.731 384.331 273.289 383.128 270.128C381.936 266.993 380.43 263.997 378.456 261.9L376.272 263.956ZM399.098 281.917C403.65 280.4 407.263 279.696 410.839 279.613C414.424 279.531 418.051 280.07 422.646 281.133L423.322 278.21C418.617 277.122 414.714 276.523 410.77 276.614C406.816 276.706 402.899 277.488 398.15 279.071L399.098 281.917ZM438.299 292.969C439.554 294.726 441.379 298.712 442.532 303.534C443.683 308.344 444.109 313.752 442.789 318.389L445.674 319.21C447.191 313.882 446.663 307.903 445.45 302.835C444.24 297.779 442.291 293.397 440.741 291.226L438.299 292.969ZM442.789 318.389C441.544 322.763 437.897 325.498 434.229 327.546C433.324 328.052 432.438 328.505 431.602 328.93C430.778 329.349 429.978 329.752 429.299 330.135C428.635 330.51 427.977 330.924 427.483 331.391C427.008 331.84 426.416 332.595 426.51 333.624L429.498 333.351C429.53 333.698 429.309 333.793 429.544 333.571C429.759 333.368 430.149 333.1 430.773 332.748C431.381 332.405 432.111 332.036 432.961 331.605C433.798 331.179 434.731 330.703 435.692 330.166C439.491 328.044 444.083 324.8 445.674 319.21L442.789 318.389ZM426.51 333.624C426.59 334.5 427.162 335.223 427.6 335.703C428.097 336.248 428.757 336.826 429.477 337.416C430.202 338.012 431.05 338.669 431.933 339.363C432.825 340.063 433.772 340.813 434.731 341.62C438.627 344.896 442.451 348.882 443.52 353.599L446.445 352.936C445.139 347.173 440.598 342.634 436.662 339.324C435.662 338.483 434.684 337.708 433.786 337.003C432.88 336.292 432.072 335.665 431.38 335.097C430.681 334.524 430.161 334.059 429.816 333.681C429.412 333.238 429.48 333.158 429.498 333.351L426.51 333.624ZM443.52 353.599C445.821 363.756 445.058 371.656 440.066 381.21L442.725 382.6C448.068 372.373 448.894 363.741 446.445 352.936L443.52 353.599ZM440.066 381.21C437.617 385.898 433.706 389.84 429.875 392.87C426.054 395.892 422.392 397.943 420.542 398.868L421.883 401.551C423.872 400.557 427.718 398.401 431.736 395.223C435.745 392.053 440.007 387.802 442.725 382.6L440.066 381.21ZM420.542 398.868C419.757 399.26 418.091 399.791 415.793 400.296C413.536 400.793 410.781 401.24 407.89 401.502C402.012 402.034 395.925 401.765 392.21 399.902L390.865 402.583C395.389 404.853 402.221 405.027 408.161 404.489C411.179 404.216 414.058 403.75 416.437 403.226C418.777 402.712 420.749 402.118 421.883 401.551L420.542 398.868ZM392.21 399.902C388.647 398.115 386.782 394.48 385.63 390.927C385.057 389.159 384.697 387.538 384.358 386.215C384.196 385.585 384.025 384.967 383.827 384.483C383.728 384.243 383.591 383.956 383.395 383.698C383.208 383.452 382.837 383.064 382.235 382.944L381.647 385.885C381.229 385.802 381.031 385.545 381.008 385.515C380.976 385.473 380.996 385.487 381.052 385.623C381.161 385.89 381.288 386.32 381.452 386.96C381.763 388.174 382.165 389.966 382.776 391.852C383.993 395.606 386.188 400.237 390.865 402.583L392.21 399.902ZM382.235 382.944C381.707 382.838 381.246 382.995 381.015 383.087C380.736 383.198 380.462 383.353 380.209 383.515C379.699 383.841 379.102 384.307 378.453 384.859C377.145 385.971 375.474 387.56 373.594 389.428C369.829 393.169 365.124 398.129 360.628 402.852L362.801 404.92C367.311 400.183 371.981 395.26 375.709 391.556C377.575 389.701 379.18 388.178 380.396 387.145C381.008 386.624 381.485 386.26 381.826 386.042C381.998 385.932 382.093 385.887 382.124 385.874C382.202 385.843 381.99 385.954 381.647 385.885L382.235 382.944ZM360.628 402.852C351.864 412.058 342.356 417.009 328.623 416.866L328.592 419.866C343.278 420.018 353.553 414.636 362.801 404.92L360.628 402.852ZM328.623 416.866C314.936 416.724 303.281 408.87 298.028 402.896L295.775 404.877C301.447 411.329 313.859 419.713 328.592 419.866L328.623 416.866ZM298.028 402.896C295.476 399.993 292.748 394.772 290.725 389.192C288.698 383.6 287.489 377.951 287.755 374.229L284.763 374.015C284.451 378.372 285.832 384.498 287.905 390.215C289.982 395.944 292.865 401.566 295.775 404.877L298.028 402.896ZM286.259 374.122C287.709 373.737 287.709 373.738 287.709 373.739C287.71 373.74 287.71 373.741 287.71 373.742C287.71 373.743 287.711 373.744 287.711 373.746C287.712 373.748 287.712 373.75 287.713 373.752C287.714 373.755 287.714 373.757 287.714 373.757C287.714 373.757 287.712 373.75 287.71 373.737C287.704 373.711 287.694 373.659 287.683 373.581C287.66 373.425 287.631 373.164 287.622 372.802C287.605 372.08 287.666 370.944 288.019 369.416C288.722 366.363 290.595 361.698 295.378 355.602L293.017 353.751C288.009 360.135 285.913 365.193 285.095 368.743C284.687 370.516 284.6 371.902 284.623 372.875C284.635 373.362 284.675 373.743 284.715 374.016C284.735 374.153 284.755 374.263 284.772 374.345C284.78 374.386 284.788 374.42 284.794 374.447C284.798 374.461 284.801 374.473 284.803 374.483C284.804 374.488 284.806 374.492 284.807 374.497C284.807 374.499 284.808 374.501 284.808 374.502C284.808 374.503 284.809 374.505 284.809 374.505C284.809 374.507 284.81 374.508 286.259 374.122ZM295.378 355.602C300.057 349.638 307.235 345.274 313.718 342.247C320.247 339.197 325.677 337.657 327.292 337.024L326.197 334.231C324.987 334.706 319.038 336.451 312.448 339.528C305.811 342.628 298.128 347.236 293.017 353.751L295.378 355.602ZM248.949 318.799C247.652 318.046 247.652 318.047 247.651 318.047C247.651 318.047 247.651 318.048 247.651 318.048C247.65 318.05 247.649 318.051 247.648 318.052C247.646 318.056 247.644 318.06 247.641 318.065C247.635 318.076 247.626 318.091 247.615 318.111C247.593 318.149 247.561 318.205 247.521 318.278C247.441 318.422 247.326 318.633 247.183 318.905C246.896 319.447 246.496 320.234 246.034 321.224C245.112 323.202 243.939 326.001 242.934 329.292C240.937 335.83 239.539 344.52 242.335 352.579L245.169 351.595C242.679 344.42 243.88 336.466 245.803 330.168C246.758 327.042 247.875 324.375 248.753 322.492C249.192 321.552 249.57 320.809 249.836 320.305C249.969 320.053 250.074 319.861 250.144 319.734C250.179 319.67 250.206 319.623 250.223 319.593C250.232 319.577 250.238 319.566 250.242 319.56C250.244 319.556 250.245 319.554 250.246 319.553C250.247 319.552 250.247 319.552 250.247 319.552C250.247 319.552 250.247 319.552 250.247 319.552C250.247 319.552 250.246 319.553 248.949 318.799ZM242.335 352.579C245.056 360.424 248.749 365.25 252.564 368.31C256.371 371.363 260.195 372.572 262.989 373.341L263.786 370.449C261.117 369.714 257.766 368.636 254.441 365.97C251.126 363.311 247.732 358.984 245.169 351.595L242.335 352.579ZM262.989 373.341C265.892 374.14 271.771 374.703 276.762 375.069C279.293 375.254 281.65 375.392 283.374 375.484C284.236 375.53 284.941 375.564 285.431 375.587C285.675 375.598 285.866 375.607 285.996 375.612C286.062 375.615 286.111 375.617 286.145 375.619C286.162 375.62 286.175 375.62 286.183 375.62C286.188 375.621 286.191 375.621 286.193 375.621C286.194 375.621 286.195 375.621 286.196 375.621C286.196 375.621 286.196 375.621 286.197 375.621C286.197 375.621 286.197 375.621 286.259 374.122C286.322 372.624 286.322 372.624 286.321 372.624C286.321 372.624 286.321 372.624 286.321 372.624C286.32 372.624 286.32 372.624 286.319 372.624C286.317 372.623 286.314 372.623 286.31 372.623C286.302 372.623 286.289 372.622 286.273 372.622C286.241 372.62 286.192 372.618 286.128 372.615C286.001 372.61 285.812 372.601 285.57 372.59C285.087 372.567 284.388 372.533 283.533 372.488C281.823 372.397 279.486 372.26 276.981 372.077C271.903 371.705 266.346 371.154 263.786 370.449L262.989 373.341ZM498.032 375.003C507.525 389.056 517.655 411.859 522.561 430.461L525.462 429.696C520.48 410.805 510.22 387.686 500.518 373.323L498.032 375.003ZM522.561 430.461C527.461 449.04 529.794 485.349 530.522 494.622L533.512 494.388C532.799 485.295 530.45 448.611 525.462 429.696L522.561 430.461ZM530.522 494.622C530.697 496.861 530.739 499.235 530.757 501.604C530.775 503.952 530.768 506.318 530.851 508.459C530.933 510.592 531.108 512.61 531.517 514.27C531.915 515.879 532.612 517.484 534.004 518.368L535.612 515.836C535.227 515.591 534.777 514.955 534.43 513.551C534.096 512.197 533.929 510.429 533.849 508.343C533.768 506.264 533.775 503.978 533.757 501.581C533.739 499.205 533.697 496.74 533.512 494.388L530.522 494.622ZM534.004 518.368C534.83 518.893 535.817 518.991 536.71 518.942C537.628 518.892 538.645 518.673 539.694 518.366C541.792 517.749 544.264 516.699 546.762 515.553C549.21 514.43 551.939 513.092 554.249 512.02C556.651 510.905 558.76 510 560.347 509.54L559.513 506.658C557.679 507.189 555.381 508.187 552.986 509.298C550.5 510.452 548.043 511.665 545.511 512.827C543.028 513.966 540.724 514.936 538.848 515.487C537.91 515.763 537.14 515.914 536.545 515.947C535.926 515.981 535.675 515.876 535.612 515.836L534.004 518.368ZM560.347 509.54C563.394 508.658 565.849 509.142 567.627 510.265C569.431 511.405 570.647 513.27 571.066 515.331L574.006 514.732C573.435 511.925 571.77 509.334 569.229 507.729C566.662 506.108 563.309 505.56 559.513 506.658L560.347 509.54ZM571.066 515.331C572.002 519.93 571.799 527.107 566.656 532.747L568.872 534.768C574.894 528.164 575.051 519.869 574.006 514.732L571.066 515.331ZM566.656 532.747C563.984 535.676 559.56 538.821 555.578 541.847C553.633 543.326 551.79 544.781 550.429 546.12C549.747 546.79 549.142 547.474 548.698 548.157C548.266 548.822 547.895 549.625 547.895 550.503L550.895 550.503C550.895 550.458 550.924 550.237 551.213 549.792C551.491 549.365 551.927 548.854 552.532 548.259C553.742 547.069 555.445 545.717 557.394 544.236C561.201 541.342 565.961 537.961 568.872 534.768L566.656 532.747ZM547.895 550.503C547.895 551.64 548.575 552.416 549.279 552.882C549.949 553.325 550.796 553.607 551.623 553.812C553.28 554.224 555.484 554.464 557.477 554.735C559.566 555.019 561.464 555.339 562.826 555.874C564.234 556.428 564.463 556.947 564.463 557.345H567.463C567.463 554.997 565.621 553.749 563.923 553.082C562.178 552.396 559.934 552.041 557.881 551.762C555.733 551.47 553.794 551.26 552.345 550.901C551.619 550.721 551.172 550.537 550.935 550.38C550.733 550.247 550.895 550.288 550.895 550.503L547.895 550.503ZM564.463 557.345C564.463 558.432 564.112 559.824 563.431 561.452C562.759 563.06 561.807 564.799 560.708 566.552C558.509 570.058 555.79 573.509 553.746 575.908L556.03 577.854C558.127 575.392 560.946 571.82 563.249 568.146C564.401 566.309 565.442 564.419 566.199 562.609C566.948 560.819 567.463 559.003 567.463 557.345H564.463ZM553.746 575.908C551.694 578.317 550.209 579.932 548.222 582.112C546.234 584.294 543.761 587.022 539.757 591.632L542.022 593.6C546.006 589.012 548.462 586.303 550.44 584.133C552.42 581.96 553.94 580.307 556.03 577.854L553.746 575.908ZM539.757 591.632C531.923 600.652 521.054 607.013 509.032 615.599L510.776 618.04C522.478 609.683 533.879 602.975 542.022 593.6L539.757 591.632ZM509.032 615.599C497.297 623.98 485.068 630.945 458.036 641.563L459.133 644.355C486.325 633.674 498.788 626.601 510.776 618.04L509.032 615.599ZM458.036 641.563C431.197 652.105 399.964 655.255 353.274 655.497L353.29 658.497C400.041 658.255 431.747 655.112 459.133 644.355L458.036 641.563ZM187.72 372.879C191.438 368.604 198.231 362.137 204.146 356.696C207.093 353.985 209.804 351.545 211.78 349.783C212.767 348.901 213.57 348.19 214.126 347.699C214.404 347.453 214.62 347.263 214.766 347.134C214.84 347.07 214.895 347.021 214.933 346.988C214.952 346.972 214.966 346.959 214.975 346.951C214.98 346.947 214.983 346.944 214.986 346.942C214.987 346.941 214.988 346.94 214.988 346.939C214.989 346.939 214.989 346.939 214.989 346.939C214.989 346.939 214.989 346.939 214.001 345.81C213.012 344.682 213.012 344.682 213.012 344.682C213.012 344.683 213.011 344.683 213.011 344.683C213.01 344.684 213.01 344.684 213.008 344.686C213.006 344.688 213.002 344.691 212.997 344.695C212.987 344.704 212.973 344.717 212.954 344.733C212.916 344.767 212.859 344.816 212.785 344.882C212.637 345.012 212.419 345.203 212.14 345.45C211.581 345.944 210.774 346.659 209.782 347.544C207.799 349.314 205.076 351.765 202.115 354.488C196.214 359.916 189.301 366.491 185.457 370.911L187.72 372.879ZM214.001 345.81C214.923 346.994 214.923 346.994 214.923 346.993C214.923 346.993 214.923 346.993 214.924 346.993C214.925 346.992 214.926 346.991 214.928 346.99C214.931 346.987 214.936 346.983 214.943 346.978C214.956 346.967 214.977 346.951 215.003 346.931C215.057 346.889 215.136 346.827 215.24 346.746C215.448 346.585 215.753 346.347 216.144 346.042C216.926 345.433 218.052 344.557 219.423 343.49C222.166 341.356 225.895 338.458 229.836 335.4C237.726 329.28 246.45 322.538 249.847 320.001L248.052 317.597C244.627 320.154 235.877 326.918 227.997 333.03C224.054 336.088 220.325 338.988 217.581 341.122C216.209 342.19 215.083 343.066 214.301 343.675C213.91 343.98 213.604 344.218 213.396 344.38C213.292 344.461 213.213 344.523 213.16 344.564C213.133 344.585 213.113 344.601 213.099 344.611C213.092 344.617 213.087 344.621 213.084 344.623C213.082 344.625 213.081 344.626 213.08 344.626C213.079 344.627 213.079 344.627 213.079 344.627C213.079 344.627 213.079 344.627 214.001 345.81ZM299.235 252.44C306.214 248.949 313.592 246.959 319.25 245.842C322.074 245.285 324.456 244.948 326.128 244.751C326.964 244.652 327.621 244.588 328.067 244.549C328.29 244.53 328.46 244.517 328.572 244.508C328.629 244.504 328.671 244.501 328.698 244.5C328.711 244.499 328.721 244.498 328.727 244.498C328.73 244.498 328.732 244.497 328.734 244.497C328.734 244.497 328.734 244.497 328.735 244.497C328.735 244.497 328.735 244.497 328.735 244.497C328.734 244.497 328.734 244.497 328.644 243C328.553 241.503 328.553 241.503 328.552 241.503C328.552 241.503 328.552 241.503 328.551 241.503C328.55 241.503 328.549 241.503 328.548 241.503C328.545 241.503 328.542 241.503 328.537 241.504C328.528 241.504 328.515 241.505 328.498 241.506C328.464 241.509 328.416 241.512 328.353 241.516C328.227 241.526 328.044 241.54 327.807 241.561C327.333 241.602 326.645 241.669 325.776 241.771C324.04 241.976 321.58 242.324 318.669 242.899C312.858 244.046 305.196 246.104 297.893 249.757L299.235 252.44ZM328.644 243C328.644 244.5 328.644 244.5 328.643 244.5C328.643 244.5 328.643 244.5 328.643 244.5C328.644 244.5 328.644 244.5 328.644 244.5C328.645 244.5 328.646 244.5 328.647 244.5C328.65 244.5 328.655 244.5 328.662 244.5C328.676 244.5 328.697 244.5 328.726 244.5C328.782 244.501 328.868 244.501 328.98 244.503C329.203 244.506 329.531 244.511 329.945 244.523C330.774 244.545 331.944 244.59 333.305 244.681C336.041 244.864 339.489 245.226 342.47 245.935L343.164 243.017C339.944 242.25 336.305 241.874 333.505 241.688C332.097 241.594 330.887 241.547 330.027 241.524C329.597 241.512 329.254 241.506 329.017 241.503C328.899 241.502 328.807 241.501 328.744 241.5C328.712 241.5 328.688 241.5 328.671 241.5C328.663 241.5 328.656 241.5 328.652 241.5C328.649 241.5 328.648 241.5 328.646 241.5C328.646 241.5 328.645 241.5 328.645 241.5C328.644 241.5 328.644 241.5 328.644 241.5C328.644 241.5 328.644 241.5 328.644 243ZM342.47 245.935C345.532 246.664 349.042 247.652 351.796 248.462C353.171 248.866 354.354 249.224 355.192 249.481C355.611 249.609 355.944 249.712 356.171 249.783C356.285 249.819 356.373 249.846 356.431 249.864C356.461 249.874 356.483 249.881 356.498 249.885C356.505 249.888 356.511 249.889 356.515 249.891C356.516 249.891 356.518 249.892 356.519 249.892C356.519 249.892 356.519 249.892 356.52 249.892C356.52 249.892 356.52 249.892 356.52 249.892C356.52 249.892 356.52 249.892 356.971 248.462C357.422 247.031 357.422 247.031 357.422 247.031C357.422 247.031 357.422 247.031 357.422 247.031C357.422 247.031 357.421 247.031 357.421 247.031C357.42 247.03 357.418 247.03 357.416 247.029C357.412 247.028 357.406 247.026 357.398 247.024C357.382 247.019 357.359 247.011 357.329 247.002C357.268 246.983 357.179 246.955 357.063 246.919C356.832 246.847 356.495 246.742 356.071 246.612C355.224 246.353 354.031 245.991 352.642 245.583C349.87 244.769 346.302 243.764 343.164 243.017L342.47 245.935ZM356.971 248.462C356.278 249.792 356.277 249.792 356.277 249.792C356.277 249.792 356.277 249.792 356.278 249.792C356.278 249.792 356.278 249.792 356.279 249.792C356.28 249.793 356.282 249.794 356.285 249.796C356.291 249.799 356.299 249.803 356.311 249.809C356.335 249.822 356.371 249.841 356.419 249.866C356.515 249.917 356.658 249.994 356.843 250.094C357.213 250.294 357.752 250.59 358.423 250.969C359.764 251.728 361.626 252.817 363.706 254.138C367.891 256.796 372.861 260.332 376.272 263.956L378.456 261.9C374.781 257.995 369.554 254.298 365.314 251.606C363.182 250.251 361.275 249.135 359.899 248.358C359.211 247.969 358.656 247.664 358.271 247.455C358.078 247.351 357.928 247.271 357.826 247.217C357.774 247.189 357.735 247.169 357.708 247.154C357.694 247.147 357.684 247.142 357.677 247.138C357.673 247.136 357.67 247.135 357.668 247.134C357.667 247.133 357.666 247.133 357.666 247.132C357.665 247.132 357.665 247.132 357.665 247.132C357.665 247.132 357.665 247.132 356.971 248.462ZM443.276 319.956L471.853 343.564L473.764 341.252L445.187 317.643L443.276 319.956ZM472.808 342.408C471.727 343.448 471.727 343.448 471.727 343.448C471.727 343.448 471.727 343.448 471.728 343.448C471.728 343.449 471.729 343.449 471.73 343.45C471.731 343.452 471.734 343.455 471.738 343.459C471.746 343.467 471.758 343.48 471.774 343.496C471.805 343.529 471.852 343.579 471.915 343.644C472.039 343.774 472.224 343.968 472.462 344.22C472.939 344.725 473.632 345.462 474.494 346.392C476.219 348.251 478.618 350.878 481.316 353.948C486.722 360.097 493.288 367.979 498.032 375.003L500.518 373.323C495.665 366.139 488.998 358.143 483.569 351.967C480.85 348.874 478.432 346.226 476.694 344.352C475.825 343.414 475.125 342.67 474.642 342.159C474.4 341.904 474.213 341.707 474.086 341.573C474.022 341.506 473.973 341.456 473.94 341.421C473.924 341.404 473.911 341.391 473.903 341.382C473.899 341.378 473.895 341.374 473.893 341.372C473.892 341.371 473.891 341.37 473.891 341.369C473.89 341.369 473.89 341.369 473.89 341.369C473.89 341.369 473.89 341.368 472.808 342.408ZM422.646 281.133C426.908 282.119 430.804 285.007 433.704 287.776C435.138 289.145 436.293 290.451 437.088 291.414C437.485 291.894 437.791 292.287 437.995 292.557C438.097 292.692 438.174 292.796 438.224 292.865C438.249 292.9 438.268 292.925 438.279 292.941C438.285 292.949 438.289 292.955 438.292 292.958C438.293 292.96 438.293 292.961 438.294 292.962C438.294 292.962 438.294 292.962 438.294 292.962C438.294 292.962 438.294 292.961 438.294 292.961C438.294 292.961 438.293 292.961 439.52 292.097C440.746 291.234 440.746 291.234 440.746 291.233C440.746 291.233 440.745 291.233 440.745 291.232C440.745 291.231 440.744 291.231 440.743 291.23C440.742 291.227 440.74 291.225 440.738 291.222C440.733 291.215 440.726 291.206 440.718 291.194C440.702 291.172 440.679 291.139 440.648 291.098C440.588 291.015 440.5 290.896 440.387 290.746C440.159 290.446 439.827 290.019 439.401 289.503C438.549 288.472 437.314 287.075 435.776 285.606C432.733 282.7 428.362 279.376 423.322 278.21L422.646 281.133ZM389.165 291.333C390.271 290.301 392.89 287.867 395.234 285.689C396.406 284.601 397.509 283.577 398.318 282.825C398.723 282.449 399.055 282.141 399.285 281.927C399.4 281.82 399.49 281.737 399.551 281.68C399.582 281.652 399.605 281.63 399.621 281.615C399.629 281.608 399.635 281.603 399.639 281.599C399.641 281.597 399.642 281.596 399.643 281.595C399.644 281.594 399.644 281.594 399.644 281.594C399.644 281.594 399.645 281.593 399.645 281.593C399.645 281.593 399.645 281.593 398.624 280.494C397.604 279.395 397.603 279.395 397.603 279.395C397.603 279.395 397.603 279.395 397.603 279.395C397.603 279.395 397.603 279.396 397.602 279.396C397.601 279.397 397.6 279.398 397.598 279.4C397.594 279.404 397.588 279.41 397.58 279.417C397.564 279.431 397.541 279.453 397.51 279.481C397.449 279.538 397.359 279.622 397.244 279.729C397.013 279.943 396.682 280.251 396.277 280.627C395.467 281.378 394.364 282.403 393.193 283.491C390.849 285.668 388.227 288.105 387.118 289.14L389.165 291.333ZM248.949 318.799C250.131 319.723 250.131 319.723 250.131 319.724C250.131 319.724 250.131 319.724 250.13 319.724C250.13 319.724 250.13 319.724 250.131 319.724C250.131 319.723 250.132 319.722 250.133 319.721C250.135 319.718 250.139 319.713 250.144 319.707C250.154 319.693 250.171 319.672 250.194 319.644C250.24 319.587 250.31 319.5 250.404 319.386C250.592 319.159 250.875 318.824 251.246 318.403C251.989 317.561 253.084 316.377 254.482 315.025C257.283 312.314 261.267 308.956 266.035 306.309L264.579 303.687C259.508 306.501 255.314 310.045 252.395 312.869C250.933 314.284 249.783 315.527 248.997 316.419C248.603 316.865 248.3 317.224 248.093 317.474C247.989 317.599 247.91 317.697 247.855 317.765C247.828 317.799 247.807 317.825 247.792 317.844C247.785 317.853 247.779 317.86 247.775 317.866C247.773 317.868 247.771 317.87 247.77 317.872C247.769 317.873 247.769 317.874 247.768 317.874C247.768 317.874 247.768 317.875 247.768 317.875C247.768 317.875 247.767 317.876 248.949 318.799ZM225.68 562.333C212.775 557.471 202.015 560.748 196.486 568.151L198.89 569.946C203.446 563.844 212.675 560.639 224.622 565.14L225.68 562.333ZM196.486 568.151C193.375 572.317 194.733 578.026 197.99 582.811C201.313 587.694 206.939 592.198 213.601 594.419L214.55 591.573C208.517 589.562 203.427 585.468 200.47 581.123C197.446 576.681 196.959 572.532 198.89 569.946L196.486 568.151ZM213.601 594.419C220.172 596.609 226.649 596.938 231.87 595.693C237.056 594.456 241.256 591.58 242.695 587.158L239.842 586.23C238.85 589.28 235.802 591.671 231.174 592.774C226.579 593.87 220.675 593.614 214.55 591.573L213.601 594.419ZM242.695 587.158C244.092 582.864 242.983 577.82 240.034 573.343C237.068 568.842 232.169 564.778 225.68 562.333L224.622 565.14C230.559 567.377 234.934 571.055 237.529 574.994C240.14 578.957 240.876 583.051 239.842 586.23L242.695 587.158ZM482.758 555.011C476.667 557.484 472.032 561.64 469.418 566.301C466.808 570.956 466.168 576.224 468.327 580.742L471.033 579.448C469.395 576.021 469.775 571.797 472.034 567.769C474.29 563.747 478.375 560.028 483.886 557.791L482.758 555.011ZM468.327 580.742C470.601 585.5 476.418 587.457 482.206 587.727C488.099 588.002 494.659 586.586 499.276 583.845L497.745 581.265C493.714 583.658 487.757 584.983 482.346 584.731C476.83 584.473 472.556 582.634 471.033 579.448L468.327 580.742ZM499.276 583.845C503.701 581.22 507.508 578.094 509.816 574.259C512.164 570.361 512.901 565.828 511.34 560.611L508.466 561.471C509.787 565.887 509.153 569.544 507.246 572.712C505.301 575.943 501.97 578.759 497.745 581.265L499.276 583.845ZM511.34 560.611C510.53 557.906 509.048 555.836 507.048 554.378C505.067 552.933 502.655 552.146 500.05 551.852C494.87 551.268 488.68 552.607 482.758 555.011L483.886 557.791C489.566 555.485 495.225 554.327 499.714 554.833C501.943 555.084 503.822 555.738 505.281 556.802C506.723 557.854 507.834 559.361 508.466 561.471L511.34 560.611Z" fill="black"/>
</svg>
