<svg width="700" height="900" viewBox="0 0 700 900" fill="none" xmlns="http://www.w3.org/2000/svg">
<path d="M346.359 339.009C336.876 338.55 319.936 355.541 323.619 365.459C327.301 375.378 364.037 376.113 368.272 366.011C372.507 355.908 355.842 339.468 346.359 339.009Z" fill="white"/>
<path d="M438.797 526.549C446.925 518.865 465.25 509.463 464.997 473.613C464.745 437.764 437.817 423.825 422.038 421.64C406.258 419.454 395.04 427.52 395.04 427.52L397.207 551.306C397.207 551.306 430.669 534.232 438.797 526.549Z" fill="white"/>
<path d="M348.405 444.15C335.147 443.599 305.323 428.108 305.323 428.108V552.412C305.323 552.412 321.46 562.088 349.765 561.999C378.07 561.911 397.207 551.306 397.207 551.306L395.04 427.52C395.04 427.52 361.663 444.701 348.405 444.15Z" fill="white"/>
<path d="M282.095 422.86C265.799 423.136 239.835 438.198 235.784 469.24C231.733 500.282 244.163 511.854 255.119 523.242C266.075 534.631 305.323 552.412 305.323 552.412V428.108C305.323 428.108 298.392 422.585 282.095 422.86Z" fill="white"/>
<path d="M346.432 337.511C343.64 337.376 340.501 338.513 337.527 340.26C334.519 342.028 331.513 344.519 328.944 347.331C326.379 350.139 324.198 353.325 322.896 356.51C321.602 359.675 321.11 363.013 322.212 365.982L325.025 364.937C324.286 362.946 324.53 360.441 325.673 357.645C326.808 354.869 328.765 351.976 331.159 349.354C333.551 346.736 336.328 344.445 339.048 342.847C341.802 341.228 344.337 340.413 346.287 340.507L346.432 337.511ZM322.212 365.982C322.814 367.603 324.045 368.92 325.564 369.977C327.088 371.037 328.988 371.896 331.091 372.578C335.297 373.941 340.522 374.661 345.714 374.743C350.906 374.825 356.167 374.271 360.446 373.021C364.611 371.805 368.314 369.79 369.655 366.59L366.888 365.431C366.112 367.283 363.635 368.964 359.605 370.141C355.69 371.285 350.743 371.822 345.762 371.743C340.78 371.665 335.866 370.972 332.016 369.724C330.091 369.1 328.484 368.353 327.277 367.514C326.066 366.671 325.344 365.796 325.025 364.937L322.212 365.982ZM369.655 366.59C370.913 363.59 370.567 360.247 369.372 357.067C368.176 353.879 366.077 350.708 363.581 347.898C361.081 345.082 358.133 342.573 355.173 340.728C352.242 338.901 349.166 337.643 346.432 337.511L346.287 340.507C348.294 340.605 350.858 341.574 353.586 343.274C356.286 344.957 359.016 347.275 361.338 349.89C363.665 352.51 365.531 355.371 366.564 358.121C367.6 360.88 367.748 363.38 366.888 365.431L369.655 366.59ZM282.07 421.36C265.096 421.647 238.453 437.203 234.297 469.046L237.272 469.434C241.218 439.192 266.503 424.624 282.121 424.36L282.07 421.36ZM234.297 469.046C232.24 484.802 234.354 495.76 238.474 504.265C242.568 512.718 248.604 518.634 254.038 524.282L256.2 522.202C250.677 516.462 245.02 510.898 241.174 502.958C237.353 495.069 235.277 484.72 237.272 469.434L234.297 469.046ZM439.827 527.639C443.643 524.032 450.589 519.455 456.26 511.515C462.029 503.439 466.626 491.81 466.497 473.603L463.497 473.624C463.622 491.266 459.182 502.263 453.819 509.771C448.359 517.416 442.079 521.382 437.767 525.459L439.827 527.639ZM466.497 473.603C466.238 436.772 438.5 422.405 422.243 420.154L421.832 423.125C437.135 425.245 463.252 438.755 463.497 473.624L466.497 473.603ZM348.467 442.652C345.367 442.523 341.178 441.506 336.548 439.986C331.947 438.476 327.022 436.507 322.488 434.546C317.957 432.586 313.836 430.642 310.847 429.188C309.352 428.461 308.142 427.857 307.307 427.435C306.889 427.224 306.565 427.059 306.346 426.947C306.236 426.891 306.153 426.848 306.097 426.819C306.069 426.805 306.048 426.794 306.035 426.787C306.028 426.783 306.023 426.781 306.019 426.779C306.018 426.778 306.016 426.777 306.016 426.777C306.015 426.777 306.015 426.777 306.015 426.777C306.015 426.777 306.015 426.777 305.323 428.108C304.632 429.439 304.632 429.439 304.632 429.439C304.633 429.439 304.633 429.439 304.634 429.44C304.635 429.44 304.636 429.441 304.638 429.442C304.642 429.444 304.648 429.447 304.655 429.451C304.67 429.459 304.692 429.47 304.721 429.485C304.779 429.515 304.865 429.559 304.977 429.617C305.202 429.732 305.531 429.9 305.955 430.113C306.802 430.541 308.025 431.152 309.534 431.886C312.551 433.353 316.714 435.317 321.297 437.299C325.876 439.28 330.893 441.287 335.612 442.836C340.303 444.376 344.814 445.502 348.343 445.649L348.467 442.652ZM305.323 428.108C306.258 426.935 306.257 426.934 306.257 426.933C306.256 426.933 306.256 426.933 306.255 426.932C306.254 426.931 306.253 426.93 306.251 426.929C306.249 426.927 306.246 426.925 306.242 426.922C306.235 426.916 306.226 426.91 306.216 426.902C306.195 426.886 306.167 426.864 306.132 426.839C306.062 426.787 305.964 426.717 305.837 426.63C305.583 426.458 305.214 426.222 304.726 425.945C303.749 425.39 302.295 424.671 300.325 423.968C296.382 422.56 290.395 421.22 282.07 421.36L282.121 424.36C290.092 424.225 295.719 425.509 299.316 426.793C301.116 427.436 302.413 428.081 303.245 428.553C303.661 428.79 303.961 428.983 304.15 429.111C304.245 429.176 304.311 429.224 304.351 429.253C304.371 429.267 304.384 429.277 304.39 429.282C304.393 429.284 304.394 429.286 304.394 429.285C304.394 429.285 304.394 429.285 304.393 429.284C304.392 429.284 304.392 429.283 304.391 429.283C304.391 429.282 304.39 429.282 304.39 429.282C304.389 429.281 304.389 429.281 305.323 428.108ZM254.038 524.282C256.912 527.27 261.552 530.597 266.789 533.876C272.054 537.172 278.024 540.482 283.632 543.426C289.244 546.371 294.51 548.958 298.371 550.809C300.303 551.734 301.884 552.476 302.983 552.986C303.533 553.242 303.962 553.439 304.255 553.573C304.401 553.64 304.513 553.691 304.588 553.726C304.626 553.743 304.655 553.756 304.674 553.765C304.684 553.769 304.691 553.773 304.696 553.775C304.699 553.776 304.701 553.777 304.702 553.778C304.703 553.778 304.703 553.778 304.704 553.778C304.704 553.778 304.704 553.779 305.323 552.412C305.942 551.046 305.942 551.046 305.942 551.046C305.942 551.046 305.941 551.045 305.941 551.045C305.94 551.045 305.938 551.044 305.936 551.043C305.931 551.041 305.924 551.038 305.915 551.034C305.897 551.025 305.869 551.013 305.832 550.996C305.759 550.962 305.649 550.912 305.505 550.846C305.217 550.714 304.792 550.519 304.247 550.266C303.157 549.759 301.587 549.023 299.668 548.103C295.828 546.264 290.597 543.693 285.027 540.77C279.454 537.845 273.557 534.574 268.381 531.333C263.179 528.076 258.804 524.909 256.2 522.202L254.038 524.282ZM305.323 552.412C304.552 553.699 304.552 553.699 304.553 553.699C304.553 553.7 304.554 553.7 304.555 553.7C304.556 553.701 304.557 553.702 304.559 553.703C304.562 553.705 304.566 553.707 304.572 553.71C304.582 553.717 304.597 553.725 304.615 553.736C304.652 553.757 304.704 553.788 304.772 553.826C304.908 553.903 305.107 554.013 305.367 554.152C305.887 554.429 306.653 554.819 307.656 555.284C309.664 556.214 312.624 557.444 316.475 558.668C324.178 561.118 335.444 563.544 349.77 563.499L349.761 560.499C335.782 560.543 324.826 558.176 317.384 555.809C313.663 554.626 310.82 553.443 308.917 552.562C307.966 552.121 307.25 551.756 306.777 551.504C306.54 551.378 306.365 551.28 306.251 551.216C306.194 551.183 306.152 551.159 306.126 551.144C306.113 551.136 306.104 551.131 306.099 551.128C306.096 551.126 306.094 551.126 306.094 551.125C306.093 551.125 306.093 551.125 306.093 551.125C306.093 551.125 306.094 551.125 306.094 551.125C306.094 551.125 306.095 551.126 305.323 552.412ZM303.823 428.108V552.412H306.823V428.108H303.823ZM422.243 420.154C414.053 419.02 407.052 420.547 402.107 422.351C399.633 423.254 397.666 424.229 396.31 424.983C395.632 425.36 395.105 425.683 394.744 425.914C394.563 426.03 394.423 426.124 394.326 426.19C394.277 426.223 394.239 426.249 394.212 426.268C394.199 426.277 394.188 426.285 394.18 426.29C394.176 426.293 394.173 426.296 394.17 426.298C394.169 426.299 394.168 426.299 394.167 426.3C394.166 426.3 394.166 426.301 394.165 426.301C394.165 426.301 394.164 426.302 395.04 427.52C395.916 428.738 395.915 428.738 395.915 428.738C395.915 428.738 395.914 428.738 395.914 428.739C395.914 428.739 395.914 428.739 395.914 428.739C395.914 428.739 395.915 428.738 395.916 428.737C395.919 428.735 395.925 428.731 395.933 428.725C395.949 428.714 395.976 428.695 396.014 428.67C396.089 428.619 396.205 428.541 396.362 428.44C396.675 428.24 397.148 427.949 397.768 427.605C399.009 426.915 400.832 426.01 403.135 425.169C407.744 423.487 414.242 422.074 421.832 423.125L422.243 420.154ZM395.04 427.52C394.353 426.186 394.353 426.186 394.353 426.186C394.353 426.186 394.353 426.186 394.352 426.187C394.352 426.187 394.35 426.188 394.348 426.189C394.345 426.191 394.339 426.194 394.331 426.197C394.316 426.205 394.292 426.217 394.261 426.233C394.199 426.265 394.106 426.313 393.983 426.375C393.738 426.499 393.376 426.682 392.91 426.915C391.977 427.381 390.629 428.046 388.968 428.844C385.646 430.439 381.083 432.559 376.11 434.66C371.134 436.763 365.77 438.838 360.844 440.35C355.875 441.876 351.51 442.778 348.467 442.652L348.343 445.649C351.928 445.798 356.707 444.759 361.725 443.218C366.786 441.664 372.253 439.547 377.278 437.423C382.307 435.298 386.916 433.157 390.267 431.548C391.943 430.743 393.306 430.071 394.25 429.599C394.722 429.363 395.09 429.177 395.341 429.05C395.466 428.987 395.562 428.938 395.627 428.905C395.659 428.888 395.684 428.875 395.7 428.867C395.709 428.862 395.715 428.859 395.72 428.857C395.722 428.856 395.723 428.855 395.725 428.854C395.725 428.854 395.726 428.854 395.726 428.854C395.726 428.853 395.727 428.853 395.04 427.52ZM349.77 563.499C364.107 563.455 376.122 560.747 384.558 558.048C388.777 556.699 392.105 555.35 394.385 554.335C395.525 553.827 396.404 553.402 397.002 553.103C397.301 552.953 397.53 552.834 397.686 552.751C397.764 552.71 397.824 552.678 397.866 552.655C397.886 552.644 397.903 552.635 397.914 552.629C397.92 552.626 397.924 552.623 397.928 552.622C397.929 552.621 397.931 552.62 397.932 552.619C397.932 552.619 397.933 552.619 397.933 552.618C397.934 552.618 397.934 552.618 397.207 551.306C396.48 549.994 396.481 549.994 396.481 549.994C396.481 549.994 396.481 549.993 396.481 549.993C396.481 549.993 396.481 549.994 396.48 549.994C396.479 549.995 396.476 549.996 396.473 549.998C396.466 550.002 396.454 550.008 396.437 550.017C396.405 550.035 396.354 550.062 396.285 550.099C396.147 550.172 395.937 550.281 395.657 550.421C395.098 550.701 394.261 551.106 393.165 551.594C390.973 552.57 387.747 553.878 383.644 555.191C375.435 557.817 363.729 560.456 349.761 560.499L349.77 563.499ZM397.207 551.306C397.889 552.642 397.889 552.642 397.89 552.642C397.89 552.642 397.89 552.641 397.891 552.641C397.892 552.641 397.893 552.64 397.896 552.639C397.9 552.636 397.906 552.633 397.914 552.629C397.931 552.621 397.955 552.608 397.987 552.592C398.051 552.559 398.146 552.51 398.271 552.446C398.519 552.319 398.884 552.131 399.351 551.889C400.284 551.406 401.627 550.707 403.262 549.845C406.533 548.121 410.981 545.741 415.685 543.119C420.386 540.498 425.356 537.63 429.666 534.93C433.946 532.249 437.676 529.672 439.827 527.639L437.767 525.459C435.854 527.267 432.354 529.706 428.073 532.387C423.824 535.049 418.904 537.89 414.224 540.498C409.546 543.105 405.12 545.474 401.863 547.191C400.235 548.05 398.899 548.745 397.971 549.225C397.507 549.465 397.145 549.652 396.9 549.778C396.777 549.841 396.683 549.889 396.62 549.921C396.589 549.938 396.565 549.95 396.549 549.958C396.541 549.962 396.535 549.965 396.531 549.967C396.529 549.968 396.528 549.969 396.527 549.969C396.526 549.969 396.526 549.969 396.526 549.97C396.526 549.97 396.526 549.97 397.207 551.306ZM393.54 427.546L395.708 551.332L398.707 551.28L396.54 427.493L393.54 427.546Z" fill="white"/>
<path d="M346.359 339.009C336.876 338.55 319.936 355.541 323.619 365.459C327.301 375.378 364.037 376.113 368.272 366.011C372.507 355.908 355.842 339.468 346.359 339.009Z" fill="black"/>
<path d="M438.797 526.549C446.925 518.865 465.25 509.463 464.997 473.613C464.745 437.764 437.817 423.825 422.038 421.64C406.258 419.454 395.04 427.52 395.04 427.52L397.207 551.306C397.207 551.306 430.669 534.232 438.797 526.549Z" fill="white"/>
<path d="M348.405 444.15C335.147 443.599 305.323 428.108 305.323 428.108V552.412C305.323 552.412 321.46 562.088 349.765 561.999C378.07 561.911 397.207 551.306 397.207 551.306L395.04 427.52C395.04 427.52 361.663 444.701 348.405 444.15Z" fill="white"/>
<path d="M282.095 422.86C265.799 423.136 239.835 438.198 235.784 469.24C231.733 500.282 244.163 511.854 255.119 523.242C266.075 534.631 305.323 552.412 305.323 552.412V428.108C305.323 428.108 298.392 422.585 282.095 422.86Z" fill="white"/>
<path d="M346.432 337.511C343.64 337.376 340.501 338.513 337.527 340.26C334.519 342.028 331.513 344.519 328.944 347.331C326.379 350.139 324.198 353.325 322.896 356.51C321.602 359.675 321.11 363.013 322.212 365.982L325.025 364.937C324.286 362.946 324.53 360.441 325.673 357.645C326.808 354.869 328.765 351.976 331.159 349.354C333.551 346.736 336.328 344.445 339.048 342.847C341.802 341.228 344.337 340.413 346.287 340.507L346.432 337.511ZM322.212 365.982C322.814 367.603 324.045 368.92 325.564 369.977C327.088 371.037 328.988 371.896 331.091 372.578C335.297 373.941 340.522 374.661 345.714 374.743C350.906 374.825 356.167 374.271 360.446 373.021C364.611 371.805 368.314 369.79 369.655 366.59L366.888 365.431C366.112 367.283 363.635 368.964 359.605 370.141C355.69 371.285 350.743 371.822 345.762 371.743C340.78 371.665 335.866 370.972 332.016 369.724C330.091 369.1 328.484 368.353 327.277 367.514C326.066 366.671 325.344 365.796 325.025 364.937L322.212 365.982ZM369.655 366.59C370.913 363.59 370.567 360.247 369.372 357.067C368.176 353.879 366.077 350.708 363.581 347.898C361.081 345.082 358.133 342.573 355.173 340.728C352.242 338.901 349.166 337.643 346.432 337.511L346.287 340.507C348.294 340.605 350.858 341.574 353.586 343.274C356.286 344.957 359.016 347.275 361.338 349.89C363.665 352.51 365.531 355.371 366.564 358.121C367.6 360.88 367.748 363.38 366.888 365.431L369.655 366.59ZM282.07 421.36C265.096 421.647 238.453 437.203 234.297 469.046L237.272 469.434C241.218 439.192 266.503 424.624 282.121 424.36L282.07 421.36ZM234.297 469.046C232.24 484.802 234.354 495.76 238.474 504.265C242.568 512.718 248.604 518.634 254.038 524.282L256.2 522.203C250.677 516.462 245.02 510.898 241.174 502.958C237.353 495.069 235.277 484.72 237.272 469.434L234.297 469.046ZM439.827 527.639C443.643 524.032 450.589 519.455 456.26 511.515C462.029 503.439 466.626 491.81 466.497 473.603L463.497 473.624C463.622 491.266 459.182 502.263 453.819 509.771C448.359 517.416 442.079 521.382 437.767 525.459L439.827 527.639ZM466.497 473.603C466.238 436.772 438.5 422.405 422.243 420.154L421.832 423.125C437.135 425.245 463.252 438.755 463.497 473.624L466.497 473.603ZM348.467 442.652C345.367 442.523 341.178 441.506 336.548 439.986C331.947 438.476 327.022 436.507 322.488 434.546C317.957 432.586 313.836 430.642 310.847 429.188C309.352 428.461 308.142 427.857 307.307 427.435C306.889 427.224 306.565 427.059 306.346 426.947C306.236 426.891 306.153 426.848 306.097 426.819C306.069 426.805 306.048 426.794 306.035 426.787C306.028 426.783 306.023 426.781 306.019 426.779C306.018 426.778 306.016 426.777 306.016 426.777C306.015 426.777 306.015 426.777 306.015 426.777C306.015 426.777 306.015 426.777 305.323 428.108C304.632 429.439 304.632 429.439 304.632 429.439C304.633 429.439 304.633 429.439 304.634 429.44C304.635 429.44 304.636 429.441 304.638 429.442C304.642 429.444 304.648 429.447 304.655 429.451C304.67 429.459 304.692 429.47 304.721 429.485C304.779 429.515 304.865 429.559 304.977 429.617C305.202 429.732 305.531 429.9 305.955 430.113C306.802 430.541 308.025 431.152 309.534 431.886C312.551 433.353 316.714 435.317 321.297 437.299C325.876 439.28 330.893 441.287 335.612 442.836C340.303 444.376 344.814 445.502 348.343 445.649L348.467 442.652ZM305.323 428.108C306.258 426.935 306.257 426.934 306.257 426.933C306.256 426.933 306.256 426.933 306.255 426.932C306.254 426.931 306.253 426.93 306.251 426.929C306.249 426.927 306.246 426.925 306.242 426.922C306.235 426.916 306.226 426.91 306.216 426.902C306.195 426.886 306.167 426.864 306.132 426.839C306.062 426.787 305.964 426.717 305.837 426.63C305.583 426.458 305.214 426.222 304.726 425.945C303.749 425.39 302.295 424.671 300.325 423.968C296.382 422.56 290.395 421.22 282.07 421.36L282.121 424.36C290.092 424.225 295.719 425.509 299.316 426.793C301.116 427.436 302.413 428.081 303.245 428.553C303.661 428.79 303.961 428.983 304.15 429.111C304.245 429.176 304.311 429.224 304.351 429.253C304.371 429.267 304.384 429.277 304.39 429.282C304.393 429.284 304.394 429.286 304.394 429.285C304.394 429.285 304.394 429.285 304.393 429.284C304.392 429.284 304.392 429.283 304.391 429.283C304.391 429.282 304.39 429.282 304.39 429.282C304.389 429.281 304.389 429.281 305.323 428.108ZM254.038 524.282C256.912 527.27 261.552 530.597 266.789 533.876C272.054 537.172 278.024 540.482 283.632 543.426C289.244 546.371 294.51 548.958 298.371 550.809C300.303 551.734 301.884 552.476 302.983 552.986C303.533 553.242 303.962 553.439 304.255 553.573C304.401 553.64 304.513 553.691 304.588 553.726C304.626 553.743 304.655 553.756 304.674 553.765C304.684 553.769 304.691 553.773 304.696 553.775C304.699 553.776 304.701 553.777 304.702 553.778C304.703 553.778 304.703 553.778 304.704 553.778C304.704 553.778 304.704 553.779 305.323 552.412C305.942 551.046 305.942 551.046 305.942 551.046C305.942 551.046 305.941 551.045 305.941 551.045C305.94 551.045 305.938 551.044 305.936 551.043C305.931 551.041 305.924 551.038 305.915 551.034C305.897 551.025 305.869 551.013 305.832 550.996C305.759 550.962 305.649 550.912 305.505 550.846C305.217 550.714 304.792 550.519 304.247 550.266C303.157 549.759 301.587 549.023 299.668 548.103C295.828 546.264 290.597 543.693 285.027 540.77C279.454 537.845 273.557 534.574 268.381 531.333C263.179 528.076 258.804 524.909 256.2 522.203L254.038 524.282ZM305.323 552.412C304.552 553.699 304.552 553.699 304.553 553.699C304.553 553.7 304.554 553.7 304.555 553.7C304.556 553.701 304.557 553.702 304.559 553.703C304.562 553.705 304.566 553.707 304.572 553.71C304.582 553.717 304.597 553.725 304.615 553.736C304.652 553.757 304.704 553.788 304.772 553.826C304.908 553.903 305.107 554.013 305.367 554.152C305.887 554.429 306.653 554.819 307.656 555.284C309.664 556.214 312.624 557.444 316.475 558.668C324.178 561.118 335.444 563.544 349.77 563.499L349.761 560.499C335.782 560.543 324.826 558.176 317.384 555.809C313.663 554.626 310.82 553.443 308.917 552.562C307.966 552.121 307.25 551.756 306.777 551.504C306.54 551.378 306.365 551.28 306.251 551.216C306.194 551.183 306.152 551.159 306.126 551.144C306.113 551.136 306.104 551.131 306.099 551.128C306.096 551.126 306.094 551.126 306.094 551.125C306.093 551.125 306.093 551.125 306.093 551.125C306.093 551.125 306.094 551.125 306.094 551.125C306.094 551.125 306.095 551.126 305.323 552.412ZM303.823 428.108V552.412H306.823V428.108H303.823ZM422.243 420.154C414.053 419.02 407.052 420.547 402.107 422.351C399.633 423.254 397.666 424.229 396.31 424.983C395.632 425.36 395.105 425.683 394.744 425.914C394.563 426.03 394.423 426.124 394.326 426.19C394.277 426.223 394.239 426.249 394.212 426.268C394.199 426.277 394.188 426.285 394.18 426.29C394.176 426.293 394.173 426.296 394.17 426.298C394.169 426.299 394.168 426.299 394.167 426.3C394.166 426.3 394.166 426.301 394.165 426.301C394.165 426.301 394.164 426.302 395.04 427.52C395.916 428.738 395.915 428.738 395.915 428.738C395.915 428.738 395.914 428.738 395.914 428.739C395.914 428.739 395.914 428.739 395.914 428.739C395.914 428.739 395.915 428.738 395.916 428.737C395.919 428.735 395.925 428.731 395.933 428.725C395.949 428.714 395.976 428.695 396.014 428.67C396.089 428.619 396.205 428.541 396.362 428.44C396.675 428.24 397.148 427.949 397.768 427.605C399.009 426.915 400.832 426.01 403.135 425.169C407.744 423.487 414.242 422.074 421.832 423.125L422.243 420.154ZM395.04 427.52C394.353 426.186 394.353 426.186 394.353 426.186C394.353 426.186 394.353 426.186 394.352 426.187C394.352 426.187 394.35 426.188 394.348 426.189C394.345 426.191 394.339 426.194 394.331 426.197C394.316 426.205 394.292 426.217 394.261 426.233C394.199 426.265 394.106 426.313 393.983 426.375C393.738 426.499 393.376 426.682 392.91 426.915C391.977 427.381 390.629 428.046 388.968 428.844C385.646 430.439 381.083 432.559 376.11 434.66C371.134 436.763 365.77 438.838 360.844 440.35C355.875 441.876 351.51 442.778 348.467 442.652L348.343 445.649C351.928 445.798 356.707 444.759 361.725 443.218C366.786 441.664 372.253 439.547 377.278 437.423C382.307 435.298 386.916 433.157 390.267 431.548C391.943 430.743 393.306 430.071 394.25 429.599C394.722 429.363 395.09 429.177 395.341 429.05C395.466 428.987 395.562 428.938 395.627 428.905C395.659 428.888 395.684 428.875 395.7 428.867C395.709 428.862 395.715 428.859 395.72 428.857C395.722 428.856 395.723 428.855 395.725 428.854C395.725 428.854 395.726 428.854 395.726 428.854C395.726 428.853 395.727 428.853 395.04 427.52ZM349.77 563.499C364.107 563.455 376.122 560.747 384.558 558.048C388.777 556.699 392.105 555.35 394.385 554.335C395.525 553.827 396.404 553.402 397.002 553.103C397.301 552.953 397.53 552.834 397.686 552.751C397.764 552.71 397.824 552.678 397.866 552.655C397.886 552.644 397.903 552.635 397.914 552.629C397.92 552.626 397.924 552.623 397.928 552.622C397.929 552.621 397.931 552.62 397.932 552.619C397.932 552.619 397.933 552.619 397.933 552.618C397.934 552.618 397.934 552.618 397.207 551.306C396.48 549.994 396.481 549.994 396.481 549.994C396.481 549.994 396.481 549.993 396.481 549.993C396.481 549.993 396.481 549.994 396.48 549.994C396.479 549.995 396.476 549.996 396.473 549.998C396.466 550.002 396.454 550.008 396.437 550.017C396.405 550.035 396.354 550.062 396.285 550.099C396.147 550.172 395.937 550.281 395.657 550.421C395.098 550.701 394.261 551.106 393.165 551.594C390.973 552.57 387.747 553.878 383.644 555.191C375.435 557.817 363.729 560.456 349.761 560.499L349.77 563.499ZM397.207 551.306C397.889 552.642 397.889 552.642 397.89 552.642C397.89 552.642 397.89 552.641 397.891 552.641C397.892 552.641 397.893 552.64 397.896 552.639C397.9 552.636 397.906 552.633 397.914 552.629C397.931 552.621 397.955 552.608 397.987 552.592C398.051 552.559 398.146 552.51 398.271 552.446C398.519 552.319 398.884 552.131 399.351 551.889C400.284 551.406 401.627 550.707 403.262 549.845C406.533 548.121 410.981 545.741 415.685 543.119C420.386 540.498 425.356 537.63 429.666 534.93C433.946 532.249 437.676 529.672 439.827 527.639L437.767 525.459C435.854 527.267 432.354 529.706 428.073 532.387C423.824 535.049 418.904 537.89 414.224 540.498C409.546 543.106 405.12 545.474 401.863 547.191C400.235 548.05 398.899 548.745 397.971 549.225C397.507 549.465 397.145 549.652 396.9 549.778C396.777 549.841 396.683 549.889 396.62 549.921C396.589 549.938 396.565 549.95 396.549 549.958C396.541 549.962 396.535 549.965 396.531 549.967C396.529 549.968 396.528 549.969 396.527 549.969C396.526 549.969 396.526 549.969 396.526 549.97C396.526 549.97 396.526 549.97 397.207 551.306ZM393.54 427.546L395.708 551.332L398.707 551.28L396.54 427.493L393.54 427.546Z" fill="black"/>
</svg>
