<svg width="701" height="900" viewBox="0 0 701 900" fill="none" xmlns="http://www.w3.org/2000/svg">
<path d="M279.843 368.005C258.694 368.29 252.369 379.855 251.344 384.452C250.319 389.049 251.282 398.531 258.417 404.372C264.935 409.709 274.214 411.056 279.843 410.91C291.632 410.604 305.165 402.738 308.65 390.793C312.136 378.848 300.992 367.721 279.843 368.005Z" fill="#FFEEAB"/>
<path d="M397.571 368.372C376.422 368.656 372.25 379.813 371.225 384.41C370.2 389.007 371.164 397.774 378.298 403.615C384.816 408.951 390.149 411.524 404.809 410.911C419.469 410.298 426.789 403.097 427.917 392.072C429.045 381.047 418.72 368.087 397.571 368.372Z" fill="#FFEEAB"/>
<path d="M157 499.994C157 499.994 171.421 486.039 190.972 479.638C210.522 473.238 228.377 473.933 228.377 473.933M159.641 502.251C159.641 502.251 174.063 488.296 193.613 481.896C213.163 475.495 231.018 476.191 231.018 476.191M159.509 506.368C159.509 506.368 173.931 492.413 193.481 486.013C213.031 479.612 230.886 480.308 230.886 480.308M162.71 509.917C162.71 509.917 178.654 495.859 198.204 489.459C217.754 483.059 231.018 484.286 231.018 484.286M163.502 514.3C163.502 514.3 179.446 500.242 198.996 493.842C218.546 487.441 231.811 488.668 231.811 488.668M167.068 517.221C167.068 517.221 183.012 503.164 202.562 496.763C222.112 490.363 235.377 491.59 235.377 491.59M167.068 521.471C167.068 521.471 183.012 507.414 202.562 501.013C222.112 494.613 235.377 495.84 235.377 495.84M169.577 522.71C169.577 522.71 185.521 508.652 205.071 502.251C224.621 495.851 237.886 497.078 237.886 497.078M169.577 525.625C169.577 525.625 185.521 511.568 205.071 505.167C224.621 498.767 237.886 499.994 237.886 499.994M170.501 527.883C170.501 527.883 186.445 513.825 205.996 507.425C225.546 501.025 238.81 502.251 238.81 502.251M171.69 530.375C171.69 530.375 187.634 516.318 207.184 509.917C226.734 503.517 239.999 504.744 239.999 504.744M173.011 532C173.011 532 188.59 520.7 208.14 514.3C227.69 507.899 238.81 507.425 238.81 507.425M459.785 469.26C459.785 469.26 485.32 468.068 504.429 470.79C523.538 473.511 542.14 486.436 542.14 486.436M461.645 472.831C461.645 472.831 487.18 471.639 506.289 474.361C525.398 477.082 544 490.007 544 490.007M459.785 474.532C459.785 474.532 485.32 473.34 504.429 476.062C523.538 478.783 542.14 491.707 542.14 491.707M461.645 476.402C461.645 476.402 487.18 475.211 506.289 477.932C525.398 480.654 544 493.578 544 493.578M459.785 477.593C459.785 477.593 485.32 476.401 504.429 479.123C523.538 481.844 542.14 494.768 542.14 494.768M460.602 478.731C460.602 478.731 486.137 477.54 505.247 480.261C524.356 482.983 542.958 495.907 542.958 495.907M460.162 481.641C460.162 481.641 485.697 480.449 504.806 483.171C523.915 485.892 542.517 498.817 542.517 498.817M461.043 483.475C461.043 483.475 486.578 482.284 505.687 485.005C524.796 487.727 543.398 500.651 543.398 500.651M460.162 485.879C460.162 485.879 485.697 484.687 504.806 487.409C523.915 490.13 542.517 503.055 542.517 503.055M461.043 486.828C461.043 486.828 486.578 485.636 505.687 488.358C524.796 491.079 543.398 504.004 543.398 504.004M460.162 488.979C460.162 488.979 485.697 487.787 504.806 490.508C523.915 493.23 542.517 506.154 542.517 506.154M461.043 490.75C461.043 490.75 486.578 489.558 505.687 492.279C524.796 495.001 543.398 507.925 543.398 507.925M459.785 493.239C459.785 493.239 485.32 492.047 504.429 494.768C523.538 497.49 542.14 510.414 542.14 510.414M460.162 496.275C460.162 496.275 485.697 495.083 504.806 497.805C523.915 500.526 542.517 513.451 542.517 513.451M459.03 498.817C459.03 498.817 484.565 497.625 503.674 500.346C522.783 503.068 541.385 515.992 541.385 515.992M458.715 501.525C458.715 501.525 484.25 500.333 503.36 503.055C522.469 505.776 541.07 518.701 541.07 518.701M460.602 502.474C460.602 502.474 486.137 501.282 505.247 504.004C524.356 506.725 542.958 519.649 542.958 519.649M460.162 504.004C460.162 504.004 485.697 502.812 504.806 505.533C523.915 508.255 542.517 521.179 542.517 521.179M460.162 505.533C460.162 505.533 485.32 506.901 504.429 509.623C523.538 512.344 542.517 522.709 542.517 522.709" stroke="black" stroke-width="8" stroke-linecap="round"/>
</svg>
