<svg width="700" height="900" viewBox="0 0 700 900" fill="none" xmlns="http://www.w3.org/2000/svg">
<path d="M344.912 370.196C330.787 370.951 307.56 379.533 309.059 394.96C310.559 410.387 337.059 416.046 346.08 415.578C358.894 415.455 383.903 409.624 384.765 391.241C385.627 372.858 359.038 369.44 344.912 370.196Z" fill="white"/>
<path d="M344.402 437.055C342.058 450.945 320.156 461.235 303.67 466.567C302.42 466.971 301.085 467.342 299.684 467.682C299.684 467.682 298.172 495.215 287.756 496.031C277.34 496.847 273.109 471.027 273.109 471.027C263.386 471.553 255.745 471.443 255.745 471.443C255.745 471.443 273.579 502.633 284.186 512.099C294.793 521.566 311.709 528.508 326.5 528.637C341.291 528.766 367.445 530.006 379.192 526.584C390.94 523.162 403.143 519.513 420.251 506.283C437.359 493.052 448.536 471.13 448.536 471.13C448.536 471.13 439.783 471.397 430.172 471.297C430.172 471.297 421.768 495.083 413.513 494.752C405.259 494.42 400.403 468.718 400.403 468.718C389.482 466.773 377.664 463.761 371.299 460.494C361.806 455.622 350.17 449.875 344.402 437.055Z" fill="white"/>
<path d="M416.922 469.918C412.742 469.573 405.768 469.673 400.403 468.718C400.403 468.718 405.259 494.42 413.513 494.752C421.768 495.083 430.172 471.297 430.172 471.297C424.983 471.244 421.37 470.285 416.922 469.918Z" fill="white"/>
<path d="M273.109 471.027C273.109 471.027 277.34 496.847 287.756 496.031C298.172 495.215 299.684 467.682 299.684 467.682C291.712 469.618 281.614 470.566 273.109 471.027Z" fill="white"/>
<path d="M346.08 415.578L346.032 410.578L345.927 410.579L345.821 410.585L346.08 415.578ZM303.67 466.567L302.131 461.809L303.67 466.567ZM212.041 438.943C211.717 436.201 209.23 434.241 206.488 434.565C203.746 434.89 201.786 437.376 202.111 440.118L212.041 438.943ZM371.299 460.494L373.582 456.046L371.299 460.494ZM416.922 469.918L417.333 464.935L416.922 469.918ZM495.854 434.935C496.066 432.181 494.005 429.778 491.251 429.567C488.498 429.356 486.095 431.417 485.884 434.17L495.854 434.935ZM273.109 471.027L272.839 466.034L273.109 471.027ZM400.403 468.718L401.28 463.795L400.403 468.718ZM344.645 365.203C336.899 365.617 326.797 368.135 318.669 372.722C310.735 377.2 303.039 384.702 304.083 395.444L314.036 394.477C313.581 389.792 316.749 385.289 323.584 381.431C330.227 377.682 338.8 375.53 345.18 375.189L344.645 365.203ZM304.083 395.444C305.122 406.14 314.611 412.447 322.838 415.85C331.37 419.38 340.99 420.849 346.339 420.571L345.821 410.585C342.149 410.775 334.009 409.649 326.66 406.61C319.006 403.443 314.496 399.207 314.036 394.477L304.083 395.444ZM346.128 420.578C353.086 420.511 363.288 418.923 372.045 414.776C380.774 410.641 389.204 403.333 389.759 391.475L379.77 391.007C379.464 397.532 374.959 402.331 367.764 405.738C360.598 409.133 351.889 410.522 346.032 410.578L346.128 420.578ZM389.759 391.475C390.038 385.523 388.049 380.591 384.612 376.755C381.286 373.043 376.787 370.543 372.186 368.85C363.024 365.476 352.106 364.804 344.645 365.203L345.18 375.189C351.845 374.832 361.283 375.491 368.731 378.234C372.436 379.598 375.305 381.353 377.164 383.428C378.912 385.379 379.922 387.768 379.77 391.007L389.759 391.475ZM341.095 415.189L339.417 436.665L349.387 437.444L351.065 415.968L341.095 415.189ZM339.472 436.223C338.675 440.947 334.251 445.975 326.658 450.8C319.32 455.463 310.159 459.213 302.131 461.809L305.208 471.324C313.666 468.589 323.7 464.528 332.021 459.241C340.086 454.115 347.786 447.053 349.332 437.887L339.472 436.223ZM255.745 471.443C256.187 466.462 256.187 466.462 256.187 466.462C256.187 466.462 256.187 466.462 256.187 466.462C256.187 466.462 256.186 466.462 256.186 466.462C256.184 466.462 256.181 466.462 256.177 466.462C256.17 466.461 256.158 466.46 256.141 466.458C256.109 466.455 256.059 466.451 255.994 466.445C255.863 466.433 255.667 466.415 255.415 466.391C254.911 466.343 254.18 466.272 253.282 466.179C251.484 465.994 249.025 465.725 246.375 465.387C240.858 464.684 235.199 463.766 232.578 462.851L229.282 472.292C233.076 473.617 239.825 474.634 245.112 475.307C247.863 475.657 250.405 475.936 252.258 476.127C253.185 476.222 253.942 476.296 254.469 476.346C254.733 476.371 254.939 476.39 255.081 476.403C255.151 476.41 255.206 476.415 255.244 476.418C255.262 476.42 255.277 476.421 255.287 476.422C255.292 476.422 255.296 476.423 255.299 476.423C255.3 476.423 255.301 476.423 255.302 476.423C255.302 476.423 255.303 476.423 255.303 476.423C255.303 476.423 255.304 476.423 255.745 471.443ZM232.578 462.851C228.962 461.589 224.726 460.507 220.746 457.282C217.021 454.264 213.237 449.044 212.041 438.943L202.111 440.118C203.584 452.566 208.52 460.247 214.451 465.052C220.127 469.651 226.484 471.315 229.282 472.292L232.578 462.851ZM339.842 439.106C346.436 453.762 359.771 460.198 369.016 464.943L373.582 456.046C363.842 451.047 353.904 445.989 348.962 435.003L339.842 439.106ZM479.811 465.671C487.356 460.68 491.289 452.701 493.346 446.539C494.396 443.391 495.017 440.539 495.377 438.469C495.558 437.43 495.675 436.577 495.748 435.971C495.784 435.667 495.809 435.424 495.826 435.249C495.835 435.162 495.841 435.091 495.846 435.038C495.848 435.012 495.85 434.99 495.851 434.973C495.852 434.964 495.853 434.957 495.853 434.95C495.854 434.947 495.854 434.944 495.854 434.942C495.854 434.94 495.854 434.939 495.854 434.938C495.854 434.936 495.854 434.935 490.869 434.553C485.884 434.17 485.884 434.169 485.884 434.168C485.884 434.167 485.884 434.166 485.884 434.165C485.884 434.164 485.884 434.163 485.884 434.162C485.885 434.16 485.885 434.159 485.885 434.159C485.885 434.16 485.884 434.165 485.883 434.175C485.882 434.194 485.878 434.229 485.873 434.281C485.863 434.385 485.846 434.553 485.819 434.779C485.765 435.23 485.672 435.907 485.525 436.755C485.229 438.458 484.716 440.807 483.86 443.373C482.103 448.638 479.128 454.133 474.294 457.331L479.811 465.671ZM448.536 471.13C448.98 476.11 448.981 476.11 448.983 476.11C448.983 476.11 448.984 476.11 448.985 476.11C448.987 476.11 448.989 476.109 448.992 476.109C448.997 476.109 449.002 476.108 449.009 476.108C449.023 476.106 449.04 476.105 449.062 476.103C449.104 476.098 449.162 476.093 449.235 476.085C449.38 476.07 449.585 476.048 449.844 476.017C450.362 475.955 451.098 475.86 452.012 475.719C453.839 475.437 456.393 474.974 459.355 474.239C465.22 472.785 472.959 470.204 479.811 465.671L474.294 457.331C468.767 460.986 462.247 463.22 456.949 464.533C454.329 465.182 452.075 465.591 450.489 465.835C449.697 465.957 449.076 466.038 448.663 466.087C448.456 466.112 448.302 466.128 448.205 466.138C448.157 466.143 448.123 466.147 448.103 466.149C448.094 466.149 448.088 466.15 448.086 466.15C448.085 466.15 448.085 466.15 448.086 466.15C448.086 466.15 448.087 466.15 448.088 466.15C448.088 466.15 448.089 466.15 448.089 466.15C448.09 466.15 448.091 466.15 448.536 471.13ZM448.536 471.13C444.081 468.859 444.082 468.858 444.082 468.858C444.082 468.857 444.082 468.857 444.082 468.857C444.083 468.856 444.083 468.856 444.083 468.856C444.082 468.857 444.081 468.859 444.08 468.862C444.077 468.868 444.071 468.879 444.062 468.896C444.045 468.929 444.018 468.982 443.98 469.054C443.903 469.199 443.785 469.422 443.627 469.715C443.309 470.3 442.83 471.164 442.2 472.249C440.937 474.42 439.075 477.461 436.696 480.901C431.902 487.836 425.171 496.158 417.193 502.327L423.31 510.238C432.44 503.177 439.851 493.923 444.922 486.588C447.476 482.895 449.477 479.628 450.845 477.275C451.529 476.098 452.057 475.146 452.418 474.481C452.598 474.148 452.737 473.887 452.833 473.704C452.881 473.613 452.918 473.542 452.944 473.491C452.957 473.465 452.968 473.445 452.975 473.43C452.979 473.423 452.982 473.416 452.985 473.411C452.986 473.409 452.987 473.407 452.988 473.405C452.989 473.404 452.989 473.403 452.989 473.403C452.99 473.402 452.99 473.401 448.536 471.13ZM417.193 502.327C400.806 514.999 389.294 518.434 377.794 521.783L380.591 531.384C392.585 527.891 405.481 524.026 423.31 510.238L417.193 502.327ZM377.794 521.783C372.673 523.275 363.86 523.84 353.936 523.942C344.118 524.043 334.14 523.703 326.543 523.637L326.456 533.637C333.651 533.7 344.144 534.044 354.039 533.942C363.826 533.841 373.964 533.314 380.591 531.384L377.794 521.783ZM326.543 523.637C313.027 523.519 297.264 517.069 287.515 508.369L280.857 515.83C292.322 526.062 310.391 533.497 326.456 533.637L326.543 523.637ZM287.515 508.369C282.804 504.164 276.041 494.595 270.192 485.514C267.338 481.082 264.807 476.937 262.989 473.897C262.08 472.379 261.351 471.139 260.851 470.282C260.601 469.853 260.408 469.52 260.279 469.296C260.214 469.183 260.165 469.098 260.132 469.042C260.116 469.014 260.104 468.993 260.096 468.979C260.093 468.973 260.09 468.968 260.088 468.965C260.087 468.963 260.087 468.962 260.086 468.961C260.086 468.961 260.086 468.961 260.086 468.961C260.086 468.961 260.086 468.961 255.745 471.443C251.405 473.925 251.405 473.925 251.405 473.926C251.406 473.926 251.406 473.927 251.406 473.927C251.407 473.928 251.408 473.93 251.409 473.933C251.412 473.937 251.416 473.943 251.42 473.952C251.43 473.968 251.443 473.992 251.461 474.023C251.497 474.085 251.55 474.177 251.618 474.295C251.755 474.532 251.955 474.879 252.214 475.321C252.73 476.206 253.478 477.478 254.407 479.031C256.264 482.136 258.855 486.379 261.785 490.929C267.504 499.809 274.962 510.568 280.857 515.83L287.515 508.369ZM272.839 466.034C268.063 466.293 263.794 466.395 260.72 466.433C259.184 466.451 257.95 466.454 257.104 466.452C256.68 466.451 256.354 466.449 256.136 466.447C256.028 466.446 255.946 466.445 255.892 466.444C255.865 466.444 255.846 466.444 255.833 466.444C255.827 466.444 255.822 466.443 255.82 466.443C255.819 466.443 255.818 466.443 255.817 466.443C255.817 466.443 255.817 466.443 255.817 466.443C255.817 466.443 255.817 466.443 255.817 466.443C255.818 466.443 255.818 466.443 255.745 471.443C255.673 476.442 255.673 476.442 255.674 476.442C255.674 476.442 255.674 476.442 255.674 476.442C255.675 476.442 255.675 476.442 255.676 476.442C255.678 476.442 255.68 476.442 255.682 476.442C255.687 476.443 255.694 476.443 255.702 476.443C255.719 476.443 255.744 476.443 255.775 476.444C255.838 476.444 255.93 476.445 256.049 476.446C256.287 476.448 256.634 476.451 257.079 476.452C257.969 476.454 259.252 476.451 260.842 476.432C264.019 476.393 268.432 476.287 273.38 476.02L272.839 466.034ZM273.109 471.027C268.175 471.835 268.175 471.836 268.175 471.837C268.175 471.838 268.176 471.839 268.176 471.84C268.176 471.842 268.177 471.845 268.177 471.848C268.178 471.853 268.179 471.861 268.181 471.87C268.184 471.887 268.188 471.911 268.193 471.941C268.203 472.001 268.217 472.084 268.236 472.19C268.274 472.402 268.329 472.704 268.402 473.083C268.548 473.839 268.767 474.906 269.063 476.18C269.65 478.71 270.56 482.133 271.839 485.576C273.093 488.951 274.823 492.687 277.182 495.609C279.522 498.507 283.177 501.405 288.146 501.016L287.365 491.046C287.126 491.065 286.347 491.041 284.964 489.328C283.6 487.638 282.32 485.072 281.214 482.094C280.133 479.184 279.334 476.203 278.803 473.917C278.54 472.783 278.347 471.839 278.221 471.187C278.158 470.861 278.112 470.609 278.082 470.443C278.068 470.36 278.057 470.299 278.051 470.261C278.047 470.242 278.045 470.229 278.044 470.221C278.043 470.218 278.043 470.216 278.043 470.215C278.043 470.215 278.043 470.215 278.043 470.216C278.043 470.216 278.043 470.217 278.043 470.217C278.043 470.218 278.043 470.218 273.109 471.027ZM302.131 461.809C301.019 462.169 299.806 462.507 298.504 462.823L300.864 472.541C302.364 472.176 303.821 471.773 305.208 471.324L302.131 461.809ZM298.504 462.823C290.992 464.647 281.267 465.578 272.839 466.034L273.38 476.02C281.961 475.555 292.432 474.589 300.864 472.541L298.504 462.823ZM288.146 501.016C293.156 500.623 296.381 497.052 298.309 493.817C300.293 490.487 301.601 486.404 302.487 482.72C303.389 478.969 303.932 475.291 304.251 472.58C304.411 471.216 304.516 470.078 304.582 469.274C304.615 468.872 304.638 468.552 304.653 468.328C304.66 468.216 304.666 468.128 304.67 468.065C304.672 468.034 304.673 468.009 304.674 467.991C304.675 467.982 304.675 467.974 304.675 467.968C304.676 467.965 304.676 467.963 304.676 467.961C304.676 467.96 304.676 467.959 304.676 467.958C304.676 467.957 304.676 467.956 299.684 467.682C294.691 467.408 294.691 467.407 294.691 467.406C294.691 467.406 294.691 467.405 294.691 467.405C294.691 467.405 294.691 467.405 294.691 467.405C294.691 467.406 294.691 467.409 294.691 467.413C294.69 467.421 294.69 467.436 294.688 467.457C294.686 467.498 294.682 467.565 294.676 467.655C294.663 467.835 294.644 468.107 294.615 468.459C294.557 469.164 294.463 470.183 294.319 471.414C294.028 473.89 293.542 477.147 292.764 480.381C291.971 483.682 290.948 486.635 289.719 488.698C288.433 490.854 287.564 491.031 287.365 491.046L288.146 501.016ZM369.016 464.943C376.101 468.579 388.568 471.689 399.526 473.64L401.28 463.795C390.396 461.857 379.227 458.943 373.582 456.046L369.016 464.943ZM399.526 473.64C402.547 474.178 405.904 474.402 408.873 474.542C412.016 474.689 414.532 474.738 416.511 474.901L417.333 464.935C415.132 464.753 412.072 464.68 409.341 464.552C406.437 464.416 403.624 464.213 401.28 463.795L399.526 473.64ZM400.403 468.718C395.49 469.646 395.49 469.647 395.49 469.648C395.49 469.648 395.49 469.649 395.491 469.65C395.491 469.652 395.491 469.654 395.492 469.657C395.493 469.662 395.494 469.668 395.496 469.677C395.499 469.693 395.503 469.716 395.509 469.744C395.52 469.801 395.536 469.882 395.556 469.985C395.597 470.191 395.657 470.486 395.736 470.858C395.893 471.602 396.126 472.654 396.431 473.915C397.038 476.423 397.946 479.814 399.139 483.251C400.313 486.631 401.854 490.327 403.805 493.292C405.56 495.959 408.643 499.56 413.312 499.748L413.714 489.756C414.256 489.778 413.637 490.041 412.159 487.796C410.878 485.849 409.658 483.057 408.586 479.97C407.534 476.94 406.712 473.884 406.15 471.563C405.871 470.409 405.66 469.451 405.519 468.787C405.449 468.456 405.397 468.199 405.363 468.028C405.346 467.943 405.333 467.879 405.325 467.839C405.322 467.819 405.319 467.805 405.317 467.796C405.316 467.792 405.316 467.789 405.316 467.788C405.316 467.788 405.316 467.788 405.316 467.788C405.316 467.788 405.316 467.788 405.316 467.788C405.316 467.789 405.316 467.79 400.403 468.718ZM416.511 474.901C418.551 475.069 420.323 475.364 422.582 475.678C424.779 475.982 427.218 476.267 430.12 476.297L430.223 466.298C427.937 466.274 425.975 466.053 423.956 465.773C421.999 465.501 419.74 465.134 417.333 464.935L416.511 474.901ZM430.12 476.297C434.983 476.347 439.621 476.305 443.038 476.25C444.748 476.223 446.156 476.192 447.139 476.169C447.63 476.157 448.015 476.147 448.279 476.139C448.41 476.136 448.511 476.133 448.58 476.131C448.615 476.13 448.641 476.129 448.659 476.128C448.668 476.128 448.675 476.128 448.68 476.128C448.682 476.128 448.684 476.128 448.686 476.128C448.686 476.128 448.687 476.128 448.687 476.128C448.688 476.128 448.688 476.128 448.688 476.128C448.688 476.128 448.688 476.128 448.536 471.13C448.383 466.132 448.383 466.132 448.383 466.132C448.383 466.132 448.383 466.132 448.383 466.132C448.383 466.132 448.383 466.132 448.383 466.132C448.382 466.132 448.381 466.132 448.379 466.132C448.375 466.133 448.369 466.133 448.361 466.133C448.346 466.133 448.322 466.134 448.29 466.135C448.226 466.137 448.13 466.14 448.003 466.143C447.75 466.15 447.377 466.16 446.897 466.172C445.938 466.195 444.557 466.225 442.878 466.252C439.516 466.305 434.972 466.347 430.223 466.298L430.12 476.297ZM413.312 499.748C417.767 499.927 421.199 496.943 423.329 494.556C425.669 491.935 427.713 488.586 429.355 485.492C431.022 482.35 432.398 479.229 433.352 476.914C433.832 475.75 434.21 474.777 434.471 474.089C434.601 473.744 434.702 473.47 434.772 473.279C434.807 473.183 434.834 473.108 434.853 473.055C434.863 473.028 434.87 473.007 434.876 472.992C434.878 472.984 434.881 472.978 434.882 472.973C434.883 472.971 434.884 472.969 434.885 472.967C434.885 472.966 434.885 472.965 434.885 472.965C434.886 472.964 434.886 472.963 430.172 471.297C425.457 469.632 425.457 469.631 425.458 469.631C425.458 469.63 425.458 469.63 425.458 469.63C425.458 469.63 425.458 469.63 425.458 469.63C425.457 469.631 425.457 469.634 425.455 469.637C425.453 469.645 425.448 469.658 425.441 469.676C425.428 469.713 425.407 469.771 425.378 469.85C425.321 470.007 425.234 470.244 425.118 470.549C424.887 471.16 424.544 472.042 424.107 473.104C423.227 475.238 421.987 478.043 420.521 480.806C419.03 483.616 417.426 486.153 415.868 487.898C414.101 489.878 413.387 489.743 413.714 489.756L413.312 499.748Z" fill="white"/>
<path d="M342.07 360.563C327.141 361.361 302.592 370.432 304.176 386.737C305.761 403.042 333.77 409.023 343.304 408.528C356.848 408.398 383.28 402.235 384.191 382.806C385.102 363.377 357 359.764 342.07 360.563Z" fill="black"/>
<path d="M341.531 431.227C339.053 445.908 315.904 456.784 298.48 462.419C297.159 462.846 295.748 463.238 294.267 463.597C294.267 463.597 292.669 492.698 281.66 493.56C270.651 494.423 266.18 467.133 266.18 467.133C255.903 467.689 247.828 467.572 247.828 467.572C247.828 467.572 266.677 500.538 277.887 510.543C289.098 520.548 306.977 527.886 322.609 528.022C338.242 528.158 365.885 529.468 378.301 525.852C390.717 522.236 403.615 518.378 421.697 504.395C439.779 490.412 451.591 467.242 451.591 467.242C451.591 467.242 442.341 467.524 432.182 467.419C432.182 467.419 423.3 492.559 414.575 492.208C405.851 491.858 400.719 464.692 400.719 464.692C389.176 462.637 376.686 459.454 369.958 456.001C359.926 450.851 347.627 444.777 341.531 431.227Z" fill="#8F2F34"/>
<path d="M418.178 465.961C413.761 465.597 406.39 465.702 400.719 464.692C400.719 464.692 405.851 491.858 414.575 492.208C423.3 492.559 432.182 467.419 432.182 467.419C426.698 467.362 422.879 466.349 418.178 465.961Z" fill="white"/>
<path d="M266.18 467.133C266.18 467.133 270.651 494.423 281.66 493.56C292.669 492.698 294.267 463.597 294.267 463.597C285.842 465.644 275.169 466.646 266.18 467.133Z" fill="white"/>
<path d="M343.304 408.528L343.256 403.528L343.151 403.529L343.045 403.535L343.304 408.528ZM298.48 462.419L296.941 457.661L298.48 462.419ZM201.354 433.256C201.029 430.514 198.543 428.554 195.801 428.879C193.058 429.203 191.098 431.689 191.423 434.432L201.354 433.256ZM369.958 456.001L372.241 451.552L369.958 456.001ZM418.178 465.961L418.589 460.978L418.178 465.961ZM501.32 428.965C501.531 426.211 499.47 423.808 496.716 423.597C493.963 423.386 491.56 425.447 491.349 428.2L501.32 428.965ZM266.18 467.133L265.91 462.14L266.18 467.133ZM400.719 464.692L401.596 459.77L400.719 464.692ZM341.803 355.57C333.655 356.006 323.021 358.656 314.473 363.481C306.118 368.196 298.113 376.039 299.2 387.22L309.153 386.253C308.655 381.129 312.132 376.285 319.388 372.189C326.451 368.203 335.556 365.918 342.337 365.556L341.803 355.57ZM299.2 387.22C300.282 398.356 310.169 404.963 318.848 408.553C327.832 412.269 337.958 413.812 343.563 413.521L343.045 403.535C339.116 403.739 330.471 402.539 322.67 399.312C314.565 395.959 309.655 391.423 309.153 386.253L299.2 387.22ZM343.353 413.528C350.674 413.457 361.415 411.785 370.625 407.423C379.807 403.074 388.605 395.421 389.185 383.04L379.196 382.572C378.866 389.62 373.992 394.763 366.345 398.385C358.725 401.994 349.478 403.468 343.256 403.528L343.353 413.528ZM389.185 383.04C389.477 376.826 387.401 371.686 383.817 367.685C380.344 363.808 375.635 361.188 370.798 359.407C361.163 355.859 349.665 355.15 341.803 355.57L342.337 365.556C349.404 365.178 359.422 365.875 367.343 368.791C371.284 370.242 374.363 372.118 376.369 374.358C378.264 376.474 379.36 379.071 379.196 382.572L389.185 383.04ZM338.32 408.139L336.546 430.838L346.516 431.617L348.289 408.918L338.32 408.139ZM336.6 430.395C335.737 435.515 330.968 440.887 322.929 445.995C315.145 450.942 305.438 454.914 296.941 457.661L300.018 467.176C308.946 464.289 319.526 460.006 328.292 454.435C336.803 449.027 344.848 441.621 346.461 432.059L336.6 430.395ZM247.828 467.572C248.27 462.592 248.27 462.592 248.27 462.592C248.27 462.592 248.27 462.592 248.27 462.592C248.269 462.592 248.269 462.592 248.268 462.592C248.266 462.592 248.263 462.591 248.259 462.591C248.251 462.59 248.238 462.589 248.221 462.588C248.186 462.585 248.134 462.58 248.064 462.573C247.925 462.561 247.719 462.542 247.452 462.516C246.918 462.465 246.145 462.39 245.195 462.292C243.293 462.096 240.692 461.811 237.888 461.454C232.063 460.713 226.052 459.739 223.248 458.76L219.952 468.202C223.928 469.59 231.03 470.662 236.625 471.374C239.53 471.744 242.215 472.038 244.171 472.24C245.15 472.341 245.95 472.418 246.506 472.471C246.784 472.498 247.002 472.518 247.151 472.532C247.226 472.539 247.284 472.544 247.323 472.547C247.343 472.549 247.358 472.55 247.369 472.551C247.374 472.552 247.378 472.552 247.381 472.552C247.382 472.553 247.384 472.553 247.384 472.553C247.385 472.553 247.385 472.553 247.386 472.553C247.386 472.553 247.386 472.553 247.828 467.572ZM223.248 458.76C219.45 457.434 214.912 456.274 210.657 452.827C206.658 449.586 202.625 443.999 201.354 433.256L191.423 434.432C192.972 447.521 198.156 455.569 204.362 460.597C210.314 465.419 216.971 467.161 219.952 468.202L223.248 458.76ZM336.971 433.279C343.893 448.664 357.89 455.427 367.675 460.449L372.241 451.552C361.961 446.276 351.361 440.891 346.09 429.176L336.971 433.279ZM484.49 461.235C492.387 456.01 496.517 447.648 498.682 441.161C499.786 437.851 500.44 434.85 500.818 432.673C501.008 431.58 501.131 430.684 501.208 430.047C501.246 429.729 501.273 429.474 501.291 429.291C501.299 429.2 501.306 429.126 501.311 429.071C501.313 429.044 501.315 429.021 501.317 429.004C501.317 428.995 501.318 428.987 501.318 428.98C501.319 428.977 501.319 428.974 501.319 428.972C501.319 428.97 501.319 428.969 501.319 428.968C501.319 428.966 501.32 428.965 496.334 428.582C491.349 428.2 491.349 428.199 491.349 428.198C491.349 428.197 491.349 428.196 491.349 428.195C491.349 428.194 491.349 428.193 491.35 428.192C491.35 428.19 491.35 428.19 491.35 428.19C491.35 428.191 491.349 428.197 491.348 428.208C491.346 428.229 491.343 428.267 491.337 428.323C491.327 428.435 491.308 428.615 491.279 428.855C491.221 429.337 491.123 430.057 490.966 430.959C490.651 432.769 490.107 435.266 489.196 437.995C487.33 443.585 484.159 449.463 478.973 452.894L484.49 461.235ZM451.591 467.242C452.036 472.222 452.037 472.222 452.038 472.222C452.039 472.222 452.04 472.222 452.041 472.222C452.043 472.221 452.045 472.221 452.048 472.221C452.052 472.22 452.058 472.22 452.065 472.219C452.079 472.218 452.098 472.216 452.12 472.214C452.164 472.21 452.225 472.204 452.301 472.196C452.453 472.18 452.668 472.157 452.941 472.124C453.485 472.06 454.259 471.959 455.223 471.81C457.146 471.514 459.837 471.025 462.958 470.252C469.141 468.719 477.285 466 484.49 461.235L478.973 452.894C473.094 456.783 466.168 459.153 460.552 460.546C457.773 461.234 455.383 461.668 453.699 461.927C452.859 462.057 452.199 462.142 451.759 462.194C451.539 462.221 451.375 462.238 451.271 462.249C451.219 462.255 451.183 462.258 451.162 462.26C451.151 462.261 451.145 462.262 451.142 462.262C451.141 462.262 451.141 462.262 451.141 462.262C451.142 462.262 451.143 462.262 451.143 462.262C451.144 462.262 451.145 462.262 451.145 462.262C451.146 462.262 451.147 462.262 451.591 467.242ZM451.591 467.242C447.137 464.971 447.137 464.97 447.138 464.969C447.138 464.969 447.138 464.969 447.138 464.969C447.138 464.968 447.138 464.968 447.138 464.968C447.138 464.969 447.137 464.971 447.135 464.974C447.132 464.981 447.125 464.993 447.116 465.011C447.098 465.046 447.068 465.103 447.028 465.18C446.947 465.335 446.821 465.571 446.653 465.882C446.316 466.502 445.809 467.419 445.141 468.567C443.803 470.868 441.831 474.088 439.312 477.731C434.237 485.072 427.103 493.894 418.638 500.44L424.756 508.35C434.373 500.913 442.186 491.159 447.538 483.418C450.232 479.522 452.343 476.075 453.786 473.594C454.508 472.352 455.064 471.349 455.444 470.648C455.634 470.297 455.78 470.022 455.881 469.83C455.931 469.735 455.97 469.66 455.998 469.606C456.012 469.58 456.023 469.558 456.031 469.543C456.035 469.535 456.038 469.529 456.04 469.524C456.042 469.521 456.043 469.519 456.044 469.517C456.044 469.516 456.045 469.515 456.045 469.515C456.045 469.514 456.046 469.513 451.591 467.242ZM418.638 500.44C401.278 513.865 389.072 517.507 376.903 521.052L379.699 530.653C392.363 526.964 405.953 522.892 424.756 508.35L418.638 500.44ZM376.903 521.052C371.447 522.641 362.095 523.236 351.61 523.345C341.232 523.452 330.67 523.092 322.653 523.022L322.566 533.022C330.181 533.088 341.258 533.452 351.713 533.344C362.062 533.237 372.739 532.68 379.699 530.653L376.903 521.052ZM322.653 523.022C308.295 522.897 291.569 516.052 281.217 506.813L274.558 514.273C286.627 525.044 305.659 532.874 322.566 533.022L322.653 523.022ZM281.217 506.813C276.203 502.338 269.036 492.191 262.857 482.598C259.838 477.911 257.162 473.527 255.239 470.313C254.278 468.707 253.508 467.396 252.978 466.489C252.714 466.035 252.51 465.683 252.373 465.445C252.304 465.327 252.252 465.236 252.218 465.177C252.201 465.147 252.188 465.125 252.18 465.11C252.176 465.103 252.173 465.098 252.171 465.095C252.17 465.093 252.169 465.092 252.169 465.091C252.169 465.091 252.168 465.091 252.168 465.09C252.168 465.091 252.168 465.091 247.828 467.572C243.487 470.054 243.488 470.055 243.488 470.055C243.488 470.056 243.488 470.056 243.489 470.057C243.49 470.058 243.491 470.06 243.492 470.062C243.495 470.067 243.499 470.074 243.504 470.083C243.513 470.1 243.528 470.125 243.547 470.158C243.584 470.224 243.64 470.32 243.712 470.445C243.856 470.695 244.068 471.061 244.341 471.528C244.886 472.463 245.676 473.806 246.657 475.446C248.619 478.726 251.355 483.208 254.45 488.013C260.499 497.404 268.361 508.743 274.558 514.273L281.217 506.813ZM265.91 462.14C260.857 462.414 256.341 462.522 253.089 462.562C251.464 462.582 250.158 462.584 249.263 462.582C248.815 462.581 248.47 462.579 248.239 462.577C248.123 462.576 248.036 462.575 247.979 462.574C247.951 462.574 247.93 462.573 247.917 462.573C247.91 462.573 247.905 462.573 247.903 462.573C247.901 462.573 247.9 462.573 247.9 462.573C247.9 462.573 247.9 462.573 247.9 462.573C247.9 462.573 247.9 462.573 247.9 462.573C247.9 462.573 247.9 462.573 247.828 467.572C247.756 472.572 247.756 472.572 247.756 472.572C247.756 472.572 247.756 472.572 247.757 472.572C247.757 472.572 247.758 472.572 247.759 472.572C247.76 472.572 247.762 472.572 247.765 472.572C247.77 472.572 247.777 472.572 247.786 472.572C247.804 472.573 247.829 472.573 247.863 472.573C247.929 472.574 248.026 472.575 248.151 472.576C248.402 472.578 248.768 472.581 249.238 472.582C250.177 472.584 251.533 472.581 253.211 472.561C256.566 472.52 261.226 472.408 266.45 472.125L265.91 462.14ZM266.18 467.133C261.246 467.941 261.246 467.942 261.246 467.943C261.246 467.944 261.246 467.945 261.247 467.946C261.247 467.948 261.247 467.951 261.248 467.954C261.249 467.96 261.25 467.967 261.252 467.977C261.255 467.995 261.259 468.02 261.264 468.051C261.275 468.114 261.29 468.201 261.31 468.313C261.349 468.536 261.407 468.853 261.484 469.252C261.638 470.048 261.869 471.173 262.18 472.515C262.8 475.182 263.759 478.787 265.105 482.411C266.425 485.967 268.242 489.882 270.706 492.935C273.152 495.965 276.933 498.946 282.051 498.545L281.27 488.575C280.883 488.606 279.977 488.499 278.488 486.654C277.018 484.833 275.652 482.087 274.479 478.929C273.331 475.838 272.484 472.675 271.921 470.252C271.641 469.049 271.437 468.048 271.303 467.356C271.236 467.01 271.187 466.742 271.156 466.565C271.14 466.477 271.129 466.412 271.122 466.371C271.119 466.351 271.116 466.336 271.115 466.329C271.114 466.325 271.114 466.322 271.114 466.322C271.114 466.321 271.114 466.321 271.114 466.322C271.114 466.322 271.114 466.323 271.114 466.323C271.114 466.323 271.114 466.324 266.18 467.133ZM296.941 457.661C295.758 458.044 294.469 458.403 293.087 458.739L295.447 468.456C297.027 468.072 298.56 467.648 300.018 467.176L296.941 457.661ZM293.087 458.739C285.122 460.673 274.822 461.657 265.91 462.14L266.45 472.125C275.516 471.634 286.561 470.614 295.447 468.456L293.087 458.739ZM282.051 498.545C287.208 498.141 290.551 494.463 292.57 491.074C294.645 487.591 296.019 483.308 296.953 479.424C297.903 475.475 298.476 471.6 298.811 468.741C298.98 467.303 299.091 466.104 299.16 465.257C299.195 464.833 299.219 464.496 299.235 464.261C299.243 464.143 299.249 464.051 299.253 463.985C299.255 463.953 299.256 463.927 299.257 463.908C299.258 463.898 299.258 463.89 299.259 463.884C299.259 463.881 299.259 463.879 299.259 463.877C299.259 463.875 299.259 463.874 299.259 463.874C299.259 463.873 299.26 463.872 294.267 463.597C289.275 463.323 289.275 463.322 289.275 463.322C289.275 463.322 289.275 463.321 289.275 463.321C289.275 463.321 289.275 463.321 289.275 463.321C289.275 463.322 289.274 463.325 289.274 463.33C289.274 463.338 289.273 463.354 289.271 463.377C289.269 463.421 289.264 463.492 289.258 463.588C289.245 463.779 289.224 464.069 289.194 464.442C289.132 465.19 289.033 466.271 288.879 467.575C288.571 470.199 288.056 473.653 287.231 477.086C286.389 480.585 285.3 483.739 283.979 485.955C282.603 488.265 281.617 488.548 281.27 488.575L282.051 498.545ZM367.675 460.449C375.123 464.272 388.262 467.552 399.842 469.615L401.596 459.77C390.09 457.721 378.248 454.636 372.241 451.552L367.675 460.449ZM399.842 469.615C403.016 470.18 406.548 470.416 409.685 470.563C412.994 470.718 415.67 470.771 417.767 470.944L418.589 460.978C416.269 460.786 413.05 460.71 410.152 460.574C407.081 460.43 404.093 460.215 401.596 459.77L399.842 469.615ZM400.719 464.692C395.806 465.621 395.806 465.621 395.806 465.622C395.806 465.623 395.806 465.624 395.807 465.625C395.807 465.627 395.807 465.629 395.808 465.631C395.809 465.637 395.81 465.644 395.812 465.652C395.815 465.669 395.82 465.693 395.825 465.723C395.837 465.783 395.854 465.868 395.875 465.976C395.919 466.193 395.982 466.504 396.065 466.896C396.231 467.679 396.476 468.789 396.797 470.118C397.437 472.764 398.395 476.338 399.652 479.959C400.89 483.523 402.51 487.404 404.553 490.509C406.4 493.316 409.588 497.012 414.375 497.204L414.776 487.212C415.201 487.229 414.476 487.398 412.907 485.013C411.534 482.926 410.235 479.949 409.099 476.679C407.983 473.465 407.112 470.225 406.517 467.767C406.221 466.544 405.997 465.529 405.848 464.825C405.774 464.473 405.718 464.2 405.682 464.019C405.664 463.928 405.651 463.861 405.642 463.818C405.638 463.796 405.635 463.781 405.633 463.772C405.633 463.767 405.632 463.764 405.632 463.763C405.632 463.762 405.632 463.762 405.632 463.762C405.632 463.762 405.632 463.763 405.632 463.763C405.632 463.763 405.632 463.764 400.719 464.692ZM417.767 470.944C419.934 471.123 421.821 471.437 424.2 471.767C426.516 472.088 429.081 472.387 432.13 472.418L432.234 462.419C429.8 462.394 427.713 462.158 425.573 461.861C423.497 461.573 421.123 461.187 418.589 460.978L417.767 470.944ZM432.13 472.418C437.267 472.472 442.166 472.427 445.776 472.369C447.583 472.34 449.07 472.308 450.108 472.283C450.627 472.27 451.034 472.259 451.312 472.252C451.451 472.248 451.558 472.245 451.63 472.243C451.667 472.242 451.694 472.241 451.713 472.24C451.723 472.24 451.73 472.24 451.735 472.24C451.738 472.24 451.74 472.24 451.741 472.24C451.742 472.24 451.743 472.239 451.743 472.239C451.743 472.239 451.743 472.239 451.744 472.239C451.744 472.239 451.744 472.239 451.591 467.242C451.439 462.244 451.439 462.244 451.439 462.244C451.439 462.244 451.439 462.244 451.439 462.244C451.439 462.244 451.439 462.244 451.438 462.244C451.437 462.244 451.436 462.244 451.434 462.244C451.43 462.244 451.424 462.245 451.416 462.245C451.399 462.245 451.374 462.246 451.34 462.247C451.272 462.249 451.17 462.252 451.036 462.256C450.769 462.263 450.373 462.273 449.866 462.286C448.852 462.31 447.392 462.342 445.616 462.37C442.061 462.427 437.256 462.471 432.234 462.419L432.13 472.418ZM414.375 497.204C418.947 497.388 422.496 494.323 424.737 491.812C427.188 489.066 429.336 485.55 431.067 482.288C432.823 478.978 434.274 475.688 435.281 473.247C435.786 472.02 436.185 470.994 436.46 470.268C436.597 469.905 436.703 469.617 436.777 469.416C436.814 469.315 436.842 469.236 436.862 469.18C436.872 469.152 436.88 469.13 436.886 469.114C436.889 469.106 436.891 469.1 436.893 469.095C436.894 469.092 436.894 469.09 436.895 469.088C436.895 469.088 436.896 469.087 436.896 469.086C436.896 469.085 436.896 469.084 432.182 467.419C427.468 465.753 427.468 465.752 427.468 465.752C427.468 465.752 427.468 465.751 427.468 465.751C427.468 465.751 427.468 465.751 427.468 465.752C427.468 465.753 427.467 465.756 427.465 465.76C427.462 465.768 427.457 465.782 427.45 465.801C427.436 465.841 427.414 465.903 427.383 465.986C427.322 466.153 427.23 466.405 427.107 466.728C426.862 467.377 426.498 468.312 426.035 469.436C425.103 471.697 423.788 474.671 422.233 477.602C420.653 480.58 418.945 483.284 417.277 485.153C415.398 487.258 414.566 487.204 414.776 487.212L414.375 497.204Z" fill="black"/>
</svg>
