<svg width="700" height="900" viewBox="0 0 700 900" fill="none" xmlns="http://www.w3.org/2000/svg">
<path d="M136.915 483.064C150.682 510.619 165.564 508.068 171.942 511.044C178.32 514.02 210.539 510.769 223.816 505.942C231.653 503.092 263.374 497.438 271.438 483.064C279.501 468.691 286.319 461.141 277.556 428.575C277.556 428.575 271.021 414.095 266.745 408.816C262.47 403.537 252.075 393.229 242.837 388.895C233.6 384.561 219.525 381.997 200.958 383.373C182.39 384.748 163.136 396.438 152.972 406.976C142.809 417.513 133.598 427.553 132.206 448.328C130.815 469.103 136.915 483.064 136.915 483.064Z" fill="white"/>
<path d="M419.016 429.719C407.925 461.141 413.878 471.926 425.358 487.658C436.839 503.39 450.691 507.425 462.776 511.044C489.083 518.921 512.949 519.548 523.153 514.871C533.358 510.194 545.264 511.044 564.71 479.469C564.71 479.469 568.52 470.272 567.748 461.141C566.977 452.01 562.125 438.81 557.007 429.719C551.89 420.627 542.259 408.286 532.453 401.635C522.648 394.985 499.03 385.776 486.118 385.852C473.205 385.927 457.232 388.895 442.617 397.667C428.003 406.438 419.016 429.719 419.016 429.719Z" fill="white"/>
<path d="M136.915 483.064C150.682 510.619 165.564 508.068 171.942 511.044C178.32 514.02 210.539 510.769 223.816 505.942C231.653 503.092 263.374 497.438 271.438 483.064C279.501 468.691 286.319 461.141 277.556 428.575C277.556 428.575 271.021 414.095 266.745 408.816C262.47 403.537 252.075 393.229 242.837 388.895C233.6 384.561 219.525 381.997 200.958 383.373C182.39 384.748 163.136 396.438 152.972 406.976C142.809 417.513 133.598 427.553 132.206 448.328C130.815 469.103 136.915 483.064 136.915 483.064Z" stroke="black" stroke-width="3" stroke-linecap="round"/>
<path d="M419.016 429.719C407.925 461.141 413.878 471.926 425.358 487.658C436.839 503.39 450.691 507.425 462.776 511.044C489.083 518.921 512.949 519.548 523.153 514.871C533.358 510.194 545.264 511.044 564.71 479.469C564.71 479.469 568.52 470.272 567.748 461.141C566.977 452.01 562.125 438.81 557.007 429.719C551.89 420.627 542.259 408.286 532.453 401.635C522.648 394.985 499.03 385.776 486.118 385.852C473.205 385.927 457.232 388.895 442.617 397.667C428.003 406.438 419.016 429.719 419.016 429.719Z" stroke="black" stroke-width="3" stroke-linecap="round"/>
</svg>
