<svg width="700" height="900" viewBox="0 0 700 900" fill="none" xmlns="http://www.w3.org/2000/svg">
<path d="M130.139 422.421C122.148 457.482 126.335 493.825 137.501 520.301C148.666 546.777 164.534 568.136 179.526 580.324C194.519 592.512 218.916 604.827 242.487 611.404C266.059 617.982 306.379 616.806 322.817 617.982C339.255 619.159 398.34 623.131 421.136 619.159C443.932 615.187 478.98 608.938 497.124 599.071C515.268 589.204 540.855 573.417 555.277 552.368C569.7 531.319 581.795 496.62 579.78 463.402C577.764 430.183 576.368 396.801 551.639 361.853C538.76 343.653 520.851 329.045 506.644 319.224C493.571 310.187 483.632 305.203 483.632 305.203C483.632 305.203 447.996 289.52 401.536 281.164C385.659 278.309 368.518 276.309 351.103 276.084C332.118 275.839 314.717 277.607 299.483 280.289C259.851 287.268 234.889 300.435 234.889 300.435C234.889 300.435 216.402 309.513 198.021 321.975C188.116 328.69 178.242 336.388 171.307 344.177C151.503 366.423 138.129 387.361 130.139 422.421Z" fill="white" stroke="black" stroke-width="3" stroke-linecap="round"/>
<path d="M204.778 469.616C198.938 469.053 189.048 470.378 185.484 472.645C181.92 474.913 180.313 481.332 181.909 486.063C183.504 490.795 194.046 493.953 198.661 494.92C203.275 495.887 226.004 498.999 230.778 497.818C235.552 496.636 241.633 492.218 241.217 487.288C240.8 482.357 234.623 477.049 231.238 475.552C227.852 474.055 210.619 470.179 204.778 469.616Z" fill="black"/>
<path d="M201.653 514.166C197.543 513.996 189.331 514.567 184.332 517.615C179.333 520.663 178.303 526.66 180.302 530.834C182.301 535.009 187.3 537.129 192.299 538.62C197.297 540.111 221.055 542.463 225.054 541.668C229.053 540.873 239.8 537.626 239.269 530.834C238.738 524.043 233.489 520.464 229.553 518.543C225.616 516.621 205.764 514.335 201.653 514.166Z" fill="black"/>
<path d="M523.25 505.042C516.189 506.731 513.127 512.96 511.971 516.472C510.815 519.983 510.347 526.874 516.439 528.929C522.531 530.983 542.723 525.429 547.628 521.983C552.533 518.538 557 513.502 557 509.361C557 505.219 555.095 501.84 551.221 499.885C547.346 497.931 530.311 503.352 523.25 505.042Z" fill="black"/>
<path d="M536.806 455.629C530.385 456.518 511.74 459.784 509.293 469.616C506.845 479.448 507.824 483.743 514.186 485.622C520.549 487.5 543.808 482.039 548.727 479.674C553.647 477.309 556.858 473.96 557.354 469.616C557.849 465.272 557.504 459.714 553.674 457.472C549.844 455.229 543.227 454.74 536.806 455.629Z" fill="black"/>
<path d="M397.807 340.64C396.534 340.318 395.007 340.062 393.338 339.862C387.094 339.114 378.856 339.151 374.404 339.452C373.519 339.512 372.373 339.646 371.054 339.849C363.967 340.939 351.875 344.028 348.3 348.427C344.06 353.645 347.14 361.663 354.221 363.699C357.688 364.696 365.813 365.331 373.954 365.641C382.439 365.963 390.941 365.931 394.207 365.584C394.677 365.535 395.158 365.484 395.646 365.432C401.797 364.775 409.118 363.872 412.009 361.003C415.13 357.906 415.53 350.1 411.569 346.622C407.609 343.143 403.848 342.167 397.807 340.64Z" fill="black"/>
<path d="M377.383 304.085C375.087 303.985 368.97 303.979 362.606 304.186C355.443 304.419 347.968 304.923 345.278 305.866C340.197 307.648 338.717 310.575 338.797 314.945C338.877 319.314 346.478 323.641 350.559 324.405C352.752 324.815 360.451 325.311 368.309 325.656C375.073 325.953 381.954 326.138 385.544 326.059C387.29 326.021 389.198 325.957 391.152 325.861C397.883 325.531 405.146 324.82 408.107 323.472C411.927 321.732 412.948 316.896 410.828 313.502C408.707 310.109 402.146 307.309 396.946 305.866C394.39 305.158 390.801 304.766 387.233 304.527C383.538 304.278 379.866 304.192 377.383 304.085Z" fill="black"/>
<path d="M374.404 339.452C378.856 339.151 387.094 339.114 393.338 339.862C393.037 337.336 392.722 335.028 392.398 333.081C392.035 330.9 391.606 328.424 391.152 325.861C389.198 325.957 387.29 326.021 385.544 326.059C381.954 326.138 375.073 325.953 368.309 325.656C368.985 328.695 369.574 331.498 370.07 333.864C370.378 335.331 370.711 337.398 371.054 339.849C372.373 339.646 373.519 339.512 374.404 339.452Z" fill="black"/>
<path d="M362.606 304.186C368.97 303.979 375.087 303.985 377.383 304.085C379.866 304.192 383.538 304.278 387.233 304.527C387.178 304.238 387.149 304.085 387.149 304.085C387.149 304.085 385.109 296.685 382.534 289.537C379.959 282.39 377.383 277.947 377.383 277.947L348.3 276.659C348.3 276.659 355.031 286.216 359.736 296.685C360.745 298.929 361.703 301.476 362.606 304.186Z" fill="black"/>
<path d="M394.207 365.584C390.941 365.931 382.439 365.963 373.954 365.641C374.713 373.377 375.237 379.36 375.237 379.36C375.237 379.36 377.352 390.499 387.149 391.272C396.946 392.045 396.827 383.078 396.273 374.565C396.127 372.317 395.914 369.12 395.646 365.432C395.158 365.484 394.677 365.535 394.207 365.584Z" fill="black"/>
<path d="M393.338 339.862C387.094 339.114 378.856 339.151 374.404 339.452C373.519 339.512 372.373 339.646 371.054 339.849M393.338 339.862C393.037 337.336 392.722 335.028 392.398 333.081C392.035 330.9 391.606 328.424 391.152 325.861M393.338 339.862C395.007 340.062 396.534 340.318 397.807 340.64C403.848 342.167 407.609 343.143 411.569 346.622C415.53 350.1 415.13 357.906 412.009 361.003C409.118 363.872 401.797 364.775 395.646 365.432M393.338 339.862C394.274 347.708 395.082 357.66 395.646 365.432M391.152 325.861C389.198 325.957 387.29 326.021 385.544 326.059C381.954 326.138 375.073 325.953 368.309 325.656M391.152 325.861C397.883 325.531 405.146 324.82 408.107 323.472C411.927 321.732 412.948 316.896 410.828 313.502C408.707 310.109 402.146 307.309 396.946 305.866C394.39 305.158 390.801 304.766 387.233 304.527M391.152 325.861C389.554 316.842 387.65 306.737 387.233 304.527M368.309 325.656C368.985 328.695 369.574 331.498 370.07 333.864C370.378 335.331 370.711 337.398 371.054 339.849M368.309 325.656C360.451 325.311 352.752 324.815 350.559 324.405C346.478 323.641 338.877 319.314 338.797 314.945C338.717 310.575 340.197 307.648 345.278 305.866C347.968 304.923 355.443 304.419 362.606 304.186M368.309 325.656C366.81 318.921 364.885 311.03 362.606 304.186M371.054 339.849C363.967 340.939 351.875 344.028 348.3 348.427C344.06 353.645 347.14 361.663 354.221 363.699C357.688 364.696 365.813 365.331 373.954 365.641M371.054 339.849C372.051 346.964 373.139 357.317 373.954 365.641M362.606 304.186C368.97 303.979 375.087 303.985 377.383 304.085C379.866 304.192 383.538 304.278 387.233 304.527M362.606 304.186C361.703 301.476 360.745 298.929 359.736 296.685C355.031 286.216 348.3 276.659 348.3 276.659L377.383 277.947C377.383 277.947 379.959 282.39 382.534 289.537C385.109 296.685 387.149 304.085 387.149 304.085C387.149 304.085 387.178 304.238 387.233 304.527M373.954 365.641C382.439 365.963 390.941 365.931 394.207 365.584C394.677 365.535 395.158 365.484 395.646 365.432M373.954 365.641C374.713 373.377 375.237 379.36 375.237 379.36C375.237 379.36 377.352 390.499 387.149 391.272C396.946 392.045 396.827 383.078 396.273 374.565C396.127 372.317 395.914 369.12 395.646 365.432M204.778 469.616C198.938 469.053 189.048 470.378 185.484 472.645C181.92 474.913 180.313 481.332 181.909 486.063C183.504 490.795 194.046 493.953 198.661 494.92C203.275 495.887 226.004 498.999 230.778 497.818C235.552 496.636 241.633 492.218 241.217 487.288C240.8 482.357 234.623 477.049 231.238 475.552C227.852 474.055 210.619 470.179 204.778 469.616ZM201.653 514.166C197.543 513.996 189.331 514.567 184.332 517.615C179.333 520.663 178.303 526.66 180.302 530.834C182.301 535.009 187.3 537.129 192.299 538.62C197.297 540.111 221.055 542.463 225.054 541.668C229.053 540.873 239.8 537.626 239.269 530.834C238.738 524.043 233.489 520.464 229.553 518.543C225.616 516.621 205.764 514.335 201.653 514.166ZM536.806 455.629C530.385 456.518 511.74 459.784 509.293 469.616C506.845 479.448 507.824 483.743 514.186 485.622C520.549 487.5 543.808 482.039 548.727 479.674C553.647 477.309 556.858 473.96 557.354 469.616C557.849 465.272 557.504 459.714 553.674 457.472C549.844 455.229 543.227 454.74 536.806 455.629ZM523.25 505.042C516.189 506.731 513.127 512.96 511.971 516.472C510.815 519.983 510.347 526.874 516.439 528.929C522.531 530.983 542.723 525.429 547.628 521.983C552.533 518.538 557 513.502 557 509.361C557 505.219 555.095 501.84 551.221 499.885C547.346 497.931 530.311 503.352 523.25 505.042Z" stroke="black" stroke-width="3" stroke-linecap="round"/>
</svg>
