<svg width="701" height="900" viewBox="0 0 701 900" fill="none" xmlns="http://www.w3.org/2000/svg">
<g clip-path="url(#clip0_234_163)">
<rect width="700" height="900" transform="translate(0.359375)" fill="#DEFDFF"/>
<path d="M504.061 509.453C514.427 515.656 543.713 539.811 554.091 541.216C564.468 542.621 570.924 544.999 586.206 529.966C586.206 529.966 584.192 520.914 586.206 514.304C588.219 507.695 606.623 490.864 606.623 490.864C606.623 490.864 581.156 477.018 555.084 479.675C529.011 482.332 504.061 509.453 504.061 509.453Z" fill="#5C9989"/>
<path d="M639.916 494.64C670.568 487.247 695.402 498.101 697.482 498.102L724.875 507.326L722.101 446.811C722.101 446.811 699.538 449.868 689.697 453.188C679.856 456.508 658.807 470.675 647.849 471.789C636.891 472.903 606.623 490.864 606.623 490.864C606.623 490.864 588.219 507.695 586.206 514.304C584.192 520.914 586.206 529.966 586.206 529.966C601.487 514.934 609.264 502.033 639.916 494.64Z" fill="#72BDAA"/>
<path d="M195.677 501.441C212.25 491.041 232.695 480.219 250.817 477.408C268.939 474.597 269.714 465.461 276.47 461.147C260.575 454.992 246.182 457.303 234.873 454.992C223.564 452.682 211.703 433.645 183.646 432.873C155.59 432.102 133.94 448.654 124.597 454.992C115.254 461.331 93.6211 481.989 83.1354 482.418C72.6498 482.846 38.7368 475.303 31.4629 471.275C24.1891 467.246 11.6252 459.103 0.449202 454.992C-10.7268 450.882 -17.47 450.102 -21.4808 450.564C-25.4915 451.025 -24.7312 476.986 -24.7312 476.986L-22.5695 512.013C-22.364 503.172 -20.6641 494.273 -14.6942 493.992C-2.73688 493.43 15.224 518.869 26.4566 525.053C37.6893 531.236 58.9091 543.464 75.4823 543.745C92.0554 544.026 118.091 538.346 137.135 532.894C156.18 527.442 179.103 511.841 195.677 501.441Z" fill="#72BDAA"/>
<path d="M697.482 498.102C695.402 498.101 670.568 487.247 639.916 494.64C609.264 502.033 601.487 514.934 586.206 529.966C570.924 544.999 564.468 542.621 554.091 541.216C543.713 539.811 514.427 515.656 504.061 509.453C504.061 509.453 485.784 496.382 470.915 487.387C456.046 478.392 440.521 465.202 436.22 463.073C431.919 460.944 428.347 460.122 422.744 460.122C417.142 460.122 389.443 416.412 353.493 417.7C317.542 418.988 304.409 438.196 294.496 449.158C284.583 460.121 276.47 461.147 276.47 461.147C269.714 465.461 268.939 474.597 250.817 477.408C232.695 480.219 212.25 491.041 195.677 501.441C179.103 511.841 156.18 527.442 137.135 532.894C118.091 538.346 92.0554 544.026 75.4823 543.745C58.9091 543.464 37.6893 531.236 26.4566 525.053C15.224 518.869 -2.73688 493.43 -14.6942 493.992C-20.6641 494.273 -22.364 503.172 -22.5695 512.013L-21.4785 529.69L-17.9304 555.056C-3.71306 553.273 -4.70104 551.313 13.0167 549.163C30.7345 547.014 60.1122 553.27 75.4823 557.66C90.8524 562.051 112.967 576.171 120.125 575.88C127.283 575.59 141.144 566.839 149.565 567.957C157.986 569.075 168.147 575.441 178.791 577.088C189.436 578.734 222.209 586.248 236.607 590.613C251.005 594.978 280.819 611.314 294.52 622.08C308.22 632.845 324.343 649.456 324.343 649.456L338.214 795.248C465.251 799.968 719.881 809.534 722.101 810.038C724.32 810.541 724.297 583.58 724.875 507.326L697.482 498.102Z" fill="#56C77D"/>
<path d="M13.0167 549.163C-4.70104 551.313 -3.71306 553.273 -17.9304 555.056L-25.9062 792.416L338.214 795.248L324.343 649.456C324.343 649.456 308.22 632.845 294.52 622.08C280.819 611.314 251.005 594.978 236.607 590.613C222.209 586.248 189.436 578.734 178.791 577.088C168.147 575.441 157.986 569.075 149.565 567.957C141.144 566.839 127.283 575.59 120.125 575.88C112.967 576.171 90.8524 562.051 75.4823 557.66C60.1122 553.27 30.7345 547.014 13.0167 549.163Z" fill="#40B668"/>
<path d="M-33.7022 791.253C-33.7022 791.253 210.362 701.532 353.597 708.806C496.832 716.081 724.877 798.528 724.877 798.528L711.07 911.69C454.645 911.152 -58.2031 909.104 -58.2031 905.224V832.477L-33.7022 791.253Z" fill="#BA7340"/>
<path d="M737.852 123.873C729.837 121.253 710.107 120.166 701.266 120.584L700.775 120.607C692.074 121.016 682.711 121.456 668.78 127.831C654.586 134.326 650.321 141.288 647.428 142.381C644.534 143.474 628.646 139.482 608.983 150.123C589.321 160.763 583.74 172.652 582.271 173.99C580.803 175.328 562.327 172.708 545.992 191.662C529.657 210.616 554.302 234.632 562.694 237.319C571.086 240.006 594.538 239.225 596.282 239.493C598.025 239.761 611.063 249.377 621.732 249.918C632.402 250.459 644.308 249.026 646.327 249.472C648.346 249.918 665.361 259.586 674.163 259.283C682.966 258.981 689.642 254.545 692.762 254.768C695.882 254.991 726.783 257.855 731.781 257.222C736.779 256.589 745.866 126.493 737.852 123.873Z" fill="white"/>
<path d="M313.879 115.768C335.239 116.858 376.681 115.287 385.455 114.145C394.229 113.003 417.417 111.79 422.353 109.648C427.288 107.507 435.906 101.51 433.32 85.6631C430.735 69.8159 413.187 69.3162 411.228 69.3876C409.27 69.459 404.256 51.5415 390.703 44.4745C377.151 37.4076 345.345 29.4125 328.423 42.1189C311.502 54.8252 318.31 66.1334 317.299 65.9611C316.288 65.7887 298.106 63.0344 291.29 81.5942C284.475 100.154 292.519 114.679 313.879 115.768Z" fill="white"/>
<path d="M55.4919 237.2C78.7076 236.684 88.6956 235.829 133.335 234.823C177.974 233.818 191.015 222.392 193.322 218.187C195.629 213.983 203.253 197.987 187.905 182.905C172.557 167.823 151.592 170.93 150.482 170.849C149.372 170.768 153.297 143.052 131.028 126.141C108.758 109.231 82.9777 120.566 81.1721 119.103C79.3664 117.641 73.8655 98.289 63.2161 88.2993C52.5666 78.3097 29.6114 64.808 -13.6236 75.9595C-56.8585 87.1111 -41.6437 166.988 -27.2758 206.353C-13.5031 244.086 44.1296 237.452 55.4919 237.2Z" fill="white"/>
</g>
<defs>
<clipPath id="clip0_234_163">
<rect width="700" height="900" fill="white" transform="translate(0.359375)"/>
</clipPath>
</defs>
</svg>
