<svg width="701" height="900" viewBox="0 0 701 900" fill="none" xmlns="http://www.w3.org/2000/svg">
<path fill-rule="evenodd" clip-rule="evenodd" d="M367.249 451.857H419.16V433.688C419.16 433.04 412.347 411.248 408.94 400.433L390.609 379.144L367.249 367.177L335.94 365.068L304.145 375.937L286.137 397.837C283.488 405.191 278.124 420.062 277.865 420.71C277.605 421.359 274.836 437.636 273.484 445.693V451.857L318.258 450.884L367.249 451.857ZM378.526 385.706L378.626 385.788C382.491 388.945 388.784 398.692 385.26 401.406C381.737 404.119 377.543 396.532 373.207 392.056C368.872 387.579 359.072 382.914 362.512 379.144C365.923 375.407 374.612 382.507 378.526 385.706ZM394.601 408.737C390.69 402.585 385.259 404.75 386.396 410.49C387.533 416.23 398.512 414.889 394.601 408.737Z" fill="#43DDFF"/>
<path d="M362.512 379.144C359.072 382.914 368.872 387.579 373.207 392.056C377.543 396.532 381.737 404.119 385.26 401.406C388.784 398.692 382.491 388.945 378.626 385.788L378.526 385.706C374.612 382.507 365.923 375.407 362.512 379.144Z" fill="white"/>
<path d="M394.601 408.737C390.69 402.585 385.259 404.75 386.396 410.49C387.533 416.23 398.512 414.889 394.601 408.737Z" fill="white"/>
<path d="M255.212 391.089C256.915 376.103 243.632 375.762 243.632 375.762C243.632 375.762 233.074 377.465 232.052 389.045C231.03 400.625 253.509 406.075 255.212 391.089Z" fill="#FF0000"/>
<path d="M352.509 505.567H301.735C301.735 505.567 303.762 521.274 307.689 532.802C311.616 544.331 320.73 555.44 347.216 555.099C373.701 554.759 385.095 540.53 390.29 532.042C395.484 523.554 396.877 505.567 396.877 505.567H352.509Z" fill="#FECD25"/>
<path d="M419.319 505.567H396.877C396.877 505.567 395.484 523.554 390.29 532.042C393.318 537.11 397.011 543.824 421.835 543.444C446.659 543.064 444.142 504.886 444.142 504.886C434.884 504.886 424.84 505.955 419.319 505.567Z" fill="#FECD25"/>
<path d="M301.735 505.567H273.393C267.45 505.079 256.235 505.014 245.442 502.866C245.442 502.866 248.526 546.738 276.777 546.104C305.029 545.471 307.689 532.802 307.689 532.802C303.762 521.274 301.735 505.567 301.735 505.567Z" fill="#FECD25"/>
<path d="M482.007 478.256C484.49 450.945 420.36 450.95 420.36 450.95H273.393C273.393 450.95 218 450.945 218 478.256C218 493.717 231.362 500.064 245.442 502.866C256.235 505.014 267.45 505.079 273.393 505.567H301.735H352.509H396.877H419.319C424.84 505.955 434.884 504.886 444.142 504.886C461.502 502.687 480.394 496.005 482.007 478.256Z" fill="#211E6B"/>
<path d="M273.393 450.95L273.393 453.45H273.393V450.95ZM420.36 450.95L420.36 453.45L420.361 453.45L420.36 450.95ZM482.007 478.256L484.497 478.483L482.007 478.256ZM273.393 505.567L273.188 508.059L273.29 508.067H273.393V505.567ZM419.319 505.567L419.494 503.074L419.406 503.067H419.319V505.567ZM245.442 502.866L245.93 500.414L245.442 502.866ZM275.846 451.43C276.39 448.65 276.827 445.2 277.31 441.411C277.796 437.587 278.336 433.351 279.09 428.87C280.599 419.901 282.947 410.072 287.33 400.955C291.703 391.861 298.083 383.511 307.664 377.418C317.245 371.325 330.208 367.374 347.934 367.374L347.934 362.374C329.448 362.374 315.511 366.503 304.981 373.199C294.451 379.895 287.509 389.044 282.824 398.788C278.15 408.51 275.704 418.86 274.159 428.04C273.387 432.634 272.835 436.965 272.35 440.78C271.86 444.629 271.444 447.89 270.939 450.47L275.846 451.43ZM347.934 367.374C365.505 367.374 378.531 372.58 388.253 380.283C398.013 388.016 404.585 398.381 409.003 408.881C413.42 419.381 415.64 429.914 416.753 437.848C417.308 441.808 417.585 445.104 417.723 447.401C417.792 448.55 417.827 449.448 417.844 450.053C417.852 450.356 417.856 450.586 417.858 450.737C417.859 450.812 417.86 450.868 417.86 450.904C417.86 450.922 417.86 450.935 417.86 450.942C417.86 450.946 417.86 450.949 417.86 450.95C417.86 450.951 417.86 450.951 417.86 450.951C417.86 450.95 417.86 450.95 420.36 450.95C422.86 450.95 422.86 450.948 422.86 450.947C422.86 450.946 422.86 450.944 422.86 450.942C422.86 450.938 422.86 450.932 422.86 450.926C422.86 450.913 422.86 450.894 422.86 450.871C422.86 450.824 422.859 450.756 422.858 450.669C422.856 450.494 422.851 450.241 422.842 449.913C422.823 449.258 422.787 448.306 422.714 447.101C422.57 444.692 422.281 441.263 421.705 437.153C420.554 428.947 418.248 417.962 413.612 406.943C408.976 395.924 401.968 384.77 391.358 376.364C380.711 367.928 366.577 362.374 347.934 362.374L347.934 367.374ZM484.497 478.483C485.227 470.451 480.955 464.556 474.825 460.399C468.769 456.292 460.617 453.649 452.645 451.918C444.627 450.178 436.56 449.313 430.52 448.882C427.494 448.666 424.964 448.558 423.187 448.504C422.298 448.477 421.597 448.463 421.115 448.457C420.874 448.453 420.688 448.451 420.561 448.451C420.498 448.45 420.449 448.45 420.415 448.45C420.398 448.45 420.385 448.45 420.376 448.45C420.372 448.45 420.368 448.45 420.365 448.45C420.364 448.45 420.363 448.45 420.362 448.45C420.361 448.45 420.36 448.45 420.36 450.95C420.361 453.45 420.36 453.45 420.36 453.45C420.361 453.45 420.361 453.45 420.361 453.45C420.363 453.45 420.365 453.45 420.368 453.45C420.374 453.45 420.385 453.45 420.399 453.45C420.427 453.45 420.47 453.45 420.527 453.451C420.643 453.451 420.816 453.453 421.045 453.456C421.501 453.463 422.175 453.476 423.035 453.502C424.755 453.554 427.216 453.659 430.164 453.869C436.07 454.291 443.881 455.132 451.584 456.805C459.335 458.487 466.75 460.964 472.019 464.537C477.215 468.061 480.029 472.407 479.517 478.03L484.497 478.483ZM273.393 508.067C273.511 508.067 273.629 508.067 273.747 508.067C273.865 508.067 273.983 508.067 274.101 508.067C274.218 508.067 274.336 508.067 274.454 508.067C274.571 508.067 274.689 508.067 274.806 508.067C274.924 508.067 275.041 508.067 275.159 508.067C275.276 508.067 275.393 508.067 275.51 508.067C275.627 508.067 275.744 508.067 275.861 508.067C275.978 508.067 276.095 508.067 276.212 508.067C276.329 508.067 276.446 508.067 276.563 508.067C276.679 508.067 276.796 508.067 276.912 508.067C277.029 508.067 277.145 508.067 277.262 508.067C277.378 508.067 277.494 508.067 277.611 508.067C277.727 508.067 277.843 508.067 277.959 508.067C278.075 508.067 278.191 508.067 278.307 508.067C278.423 508.067 278.539 508.067 278.655 508.067C278.77 508.067 278.886 508.067 279.002 508.067C279.117 508.067 279.233 508.067 279.348 508.067C279.464 508.067 279.579 508.067 279.694 508.067C279.81 508.067 279.925 508.067 280.04 508.067C280.155 508.067 280.27 508.067 280.385 508.067C280.5 508.067 280.615 508.067 280.73 508.067C280.845 508.067 280.96 508.067 281.074 508.067C281.189 508.067 281.304 508.067 281.418 508.067C281.533 508.067 281.647 508.067 281.761 508.067C281.876 508.067 281.99 508.067 282.104 508.067C282.219 508.067 282.333 508.067 282.447 508.067C282.561 508.067 282.675 508.067 282.789 508.067C282.903 508.067 283.017 508.067 283.131 508.067C283.244 508.067 283.358 508.067 283.472 508.067C283.585 508.067 283.699 508.067 283.812 508.067C283.926 508.067 284.039 508.067 284.153 508.067C284.266 508.067 284.379 508.067 284.492 508.067C284.606 508.067 284.719 508.067 284.832 508.067C284.945 508.067 285.058 508.067 285.171 508.067C285.284 508.067 285.397 508.067 285.509 508.067C285.622 508.067 285.735 508.067 285.847 508.067C285.96 508.067 286.073 508.067 286.185 508.067C286.298 508.067 286.41 508.067 286.522 508.067C286.635 508.067 286.747 508.067 286.859 508.067C286.971 508.067 287.083 508.067 287.195 508.067C287.307 508.067 287.419 508.067 287.531 508.067C287.643 508.067 287.755 508.067 287.867 508.067C287.978 508.067 288.09 508.067 288.202 508.067C288.313 508.067 288.425 508.067 288.536 508.067C288.648 508.067 288.759 508.067 288.871 508.067C288.982 508.067 289.093 508.067 289.204 508.067C289.316 508.067 289.427 508.067 289.538 508.067C289.649 508.067 289.76 508.067 289.871 508.067C289.982 508.067 290.092 508.067 290.203 508.067C290.314 508.067 290.425 508.067 290.535 508.067C290.646 508.067 290.756 508.067 290.867 508.067C290.977 508.067 291.088 508.067 291.198 508.067C291.308 508.067 291.419 508.067 291.529 508.067C291.639 508.067 291.749 508.067 291.859 508.067C291.969 508.067 292.079 508.067 292.189 508.067C292.299 508.067 292.409 508.067 292.519 508.067C292.629 508.067 292.738 508.067 292.848 508.067C292.958 508.067 293.067 508.067 293.177 508.067C293.286 508.067 293.396 508.067 293.505 508.067C293.615 508.067 293.724 508.067 293.833 508.067C293.942 508.067 294.052 508.067 294.161 508.067C294.27 508.067 294.379 508.067 294.488 508.067C294.597 508.067 294.706 508.067 294.815 508.067C294.923 508.067 295.032 508.067 295.141 508.067C295.25 508.067 295.358 508.067 295.467 508.067C295.575 508.067 295.684 508.067 295.792 508.067C295.901 508.067 296.009 508.067 296.118 508.067C296.226 508.067 296.334 508.067 296.442 508.067C296.55 508.067 296.659 508.067 296.767 508.067C296.875 508.067 296.983 508.067 297.091 508.067C297.198 508.067 297.306 508.067 297.414 508.067C297.522 508.067 297.63 508.067 297.737 508.067C297.845 508.067 297.953 508.067 298.06 508.067C298.168 508.067 298.275 508.067 298.382 508.067C298.49 508.067 298.597 508.067 298.704 508.067C298.812 508.067 298.919 508.067 299.026 508.067C299.133 508.067 299.24 508.067 299.347 508.067C299.454 508.067 299.561 508.067 299.668 508.067C299.775 508.067 299.882 508.067 299.988 508.067C300.095 508.067 300.202 508.067 300.309 508.067C300.415 508.067 300.522 508.067 300.628 508.067C300.735 508.067 300.841 508.067 300.948 508.067C301.054 508.067 301.16 508.067 301.266 508.067C301.373 508.067 301.479 508.067 301.585 508.067C301.691 508.067 301.797 508.067 301.903 508.067C302.009 508.067 302.115 508.067 302.221 508.067C302.327 508.067 302.433 508.067 302.538 508.067C302.644 508.067 302.75 508.067 302.855 508.067C302.961 508.067 303.067 508.067 303.172 508.067C303.278 508.067 303.383 508.067 303.488 508.067C303.594 508.067 303.699 508.067 303.804 508.067C303.91 508.067 304.015 508.067 304.12 508.067C304.225 508.067 304.33 508.067 304.435 508.067C304.54 508.067 304.645 508.067 304.75 508.067C304.855 508.067 304.96 508.067 305.064 508.067C305.169 508.067 305.274 508.067 305.378 508.067C305.483 508.067 305.588 508.067 305.692 508.067C305.797 508.067 305.901 508.067 306.005 508.067C306.11 508.067 306.214 508.067 306.319 508.067C306.423 508.067 306.527 508.067 306.631 508.067C306.735 508.067 306.839 508.067 306.943 508.067C307.048 508.067 307.151 508.067 307.255 508.067C307.359 508.067 307.463 508.067 307.567 508.067C307.671 508.067 307.775 508.067 307.878 508.067C307.982 508.067 308.086 508.067 308.189 508.067C308.293 508.067 308.396 508.067 308.5 508.067C308.603 508.067 308.706 508.067 308.81 508.067C308.913 508.067 309.016 508.067 309.12 508.067C309.223 508.067 309.326 508.067 309.429 508.067C309.532 508.067 309.635 508.067 309.738 508.067C309.841 508.067 309.944 508.067 310.047 508.067C310.15 508.067 310.253 508.067 310.356 508.067C310.458 508.067 310.561 508.067 310.664 508.067C310.766 508.067 310.869 508.067 310.971 508.067C311.074 508.067 311.176 508.067 311.279 508.067C311.381 508.067 311.484 508.067 311.586 508.067C311.688 508.067 311.79 508.067 311.893 508.067C311.995 508.067 312.097 508.067 312.199 508.067C312.301 508.067 312.403 508.067 312.505 508.067C312.607 508.067 312.709 508.067 312.811 508.067C312.913 508.067 313.015 508.067 313.116 508.067C313.218 508.067 313.32 508.067 313.421 508.067C313.523 508.067 313.625 508.067 313.726 508.067C313.828 508.067 313.929 508.067 314.031 508.067C314.132 508.067 314.233 508.067 314.335 508.067C314.436 508.067 314.537 508.067 314.638 508.067C314.74 508.067 314.841 508.067 314.942 508.067C315.043 508.067 315.144 508.067 315.245 508.067C315.346 508.067 315.447 508.067 315.548 508.067C315.649 508.067 315.749 508.067 315.85 508.067C315.951 508.067 316.052 508.067 316.152 508.067C316.253 508.067 316.354 508.067 316.454 508.067C316.555 508.067 316.655 508.067 316.756 508.067C316.856 508.067 316.957 508.067 317.057 508.067C317.157 508.067 317.257 508.067 317.358 508.067C317.458 508.067 317.558 508.067 317.658 508.067C317.758 508.067 317.859 508.067 317.959 508.067C318.059 508.067 318.159 508.067 318.258 508.067C318.358 508.067 318.458 508.067 318.558 508.067C318.658 508.067 318.758 508.067 318.857 508.067C318.957 508.067 319.057 508.067 319.156 508.067C319.256 508.067 319.356 508.067 319.455 508.067C319.555 508.067 319.654 508.067 319.754 508.067C319.853 508.067 319.952 508.067 320.052 508.067C320.151 508.067 320.25 508.067 320.349 508.067C320.449 508.067 320.548 508.067 320.647 508.067C320.746 508.067 320.845 508.067 320.944 508.067C321.043 508.067 321.142 508.067 321.241 508.067C321.34 508.067 321.439 508.067 321.538 508.067C321.636 508.067 321.735 508.067 321.834 508.067C321.933 508.067 322.031 508.067 322.13 508.067C322.228 508.067 322.327 508.067 322.426 508.067C322.524 508.067 322.623 508.067 322.721 508.067C322.819 508.067 322.918 508.067 323.016 508.067C323.114 508.067 323.213 508.067 323.311 508.067C323.409 508.067 323.507 508.067 323.605 508.067C323.704 508.067 323.802 508.067 323.9 508.067C323.998 508.067 324.096 508.067 324.194 508.067C324.292 508.067 324.389 508.067 324.487 508.067C324.585 508.067 324.683 508.067 324.781 508.067C324.878 508.067 324.976 508.067 325.074 508.067C325.171 508.067 325.269 508.067 325.367 508.067C325.464 508.067 325.562 508.067 325.659 508.067C325.757 508.067 325.854 508.067 325.951 508.067C326.049 508.067 326.146 508.067 326.243 508.067C326.341 508.067 326.438 508.067 326.535 508.067C326.632 508.067 326.729 508.067 326.826 508.067C326.924 508.067 327.021 508.067 327.118 508.067C327.215 508.067 327.312 508.067 327.408 508.067C327.505 508.067 327.602 508.067 327.699 508.067C327.796 508.067 327.893 508.067 327.989 508.067C328.086 508.067 328.183 508.067 328.279 508.067C328.376 508.067 328.473 508.067 328.569 508.067C328.666 508.067 328.762 508.067 328.859 508.067C328.955 508.067 329.052 508.067 329.148 508.067C329.244 508.067 329.341 508.067 329.437 508.067C329.533 508.067 329.63 508.067 329.726 508.067C329.822 508.067 329.918 508.067 330.014 508.067C330.11 508.067 330.206 508.067 330.302 508.067C330.398 508.067 330.494 508.067 330.59 508.067C330.686 508.067 330.782 508.067 330.878 508.067C330.974 508.067 331.07 508.067 331.165 508.067C331.261 508.067 331.357 508.067 331.453 508.067C331.548 508.067 331.644 508.067 331.74 508.067C331.835 508.067 331.931 508.067 332.026 508.067C332.122 508.067 332.217 508.067 332.313 508.067C332.408 508.067 332.503 508.067 332.599 508.067C332.694 508.067 332.789 508.067 332.885 508.067C332.98 508.067 333.075 508.067 333.17 508.067C333.265 508.067 333.361 508.067 333.456 508.067C333.551 508.067 333.646 508.067 333.741 508.067C333.836 508.067 333.931 508.067 334.026 508.067C334.121 508.067 334.216 508.067 334.31 508.067C334.405 508.067 334.5 508.067 334.595 508.067C334.69 508.067 334.784 508.067 334.879 508.067C334.974 508.067 335.068 508.067 335.163 508.067C335.258 508.067 335.352 508.067 335.447 508.067C335.541 508.067 335.636 508.067 335.73 508.067C335.825 508.067 335.919 508.067 336.013 508.067C336.108 508.067 336.202 508.067 336.296 508.067C336.391 508.067 336.485 508.067 336.579 508.067C336.673 508.067 336.767 508.067 336.862 508.067C336.956 508.067 337.05 508.067 337.144 508.067C337.238 508.067 337.332 508.067 337.426 508.067C337.52 508.067 337.614 508.067 337.708 508.067C337.802 508.067 337.896 508.067 337.989 508.067C338.083 508.067 338.177 508.067 338.271 508.067C338.364 508.067 338.458 508.067 338.552 508.067C338.646 508.067 338.739 508.067 338.833 508.067C338.926 508.067 339.02 508.067 339.113 508.067C339.207 508.067 339.3 508.067 339.394 508.067C339.487 508.067 339.581 508.067 339.674 508.067C339.768 508.067 339.861 508.067 339.954 508.067C340.048 508.067 340.141 508.067 340.234 508.067C340.327 508.067 340.42 508.067 340.514 508.067C340.607 508.067 340.7 508.067 340.793 508.067C340.886 508.067 340.979 508.067 341.072 508.067C341.165 508.067 341.258 508.067 341.351 508.067C341.444 508.067 341.537 508.067 341.63 508.067C341.723 508.067 341.816 508.067 341.908 508.067C342.001 508.067 342.094 508.067 342.187 508.067C342.279 508.067 342.372 508.067 342.465 508.067C342.557 508.067 342.65 508.067 342.743 508.067C342.835 508.067 342.928 508.067 343.02 508.067C343.113 508.067 343.205 508.067 343.298 508.067C343.39 508.067 343.483 508.067 343.575 508.067C343.667 508.067 343.76 508.067 343.852 508.067C343.944 508.067 344.037 508.067 344.129 508.067C344.221 508.067 344.314 508.067 344.406 508.067C344.498 508.067 344.59 508.067 344.682 508.067C344.774 508.067 344.866 508.067 344.958 508.067C345.051 508.067 345.143 508.067 345.235 508.067C345.327 508.067 345.418 508.067 345.51 508.067C345.602 508.067 345.694 508.067 345.786 508.067C345.878 508.067 345.97 508.067 346.062 508.067C346.153 508.067 346.245 508.067 346.337 508.067C346.429 508.067 346.52 508.067 346.612 508.067C346.704 508.067 346.795 508.067 346.887 508.067C346.979 508.067 347.07 508.067 347.162 508.067C347.253 508.067 347.345 508.067 347.436 508.067C347.528 508.067 347.619 508.067 347.711 508.067C347.802 508.067 347.893 508.067 347.985 508.067C348.076 508.067 348.167 508.067 348.259 508.067C348.35 508.067 348.441 508.067 348.533 508.067C348.624 508.067 348.715 508.067 348.806 508.067C348.897 508.067 348.989 508.067 349.08 508.067C349.171 508.067 349.262 508.067 349.353 508.067C349.444 508.067 349.535 508.067 349.626 508.067C349.717 508.067 349.808 508.067 349.899 508.067C349.99 508.067 350.081 508.067 350.172 508.067C350.263 508.067 350.353 508.067 350.444 508.067C350.535 508.067 350.626 508.067 350.717 508.067C350.807 508.067 350.898 508.067 350.989 508.067C351.08 508.067 351.17 508.067 351.261 508.067C351.352 508.067 351.442 508.067 351.533 508.067C351.623 508.067 351.714 508.067 351.805 508.067C351.895 508.067 351.986 508.067 352.076 508.067C352.167 508.067 352.257 508.067 352.347 508.067C352.438 508.067 352.528 508.067 352.619 508.067C352.709 508.067 352.799 508.067 352.89 508.067C352.98 508.067 353.07 508.067 353.161 508.067C353.251 508.067 353.341 508.067 353.431 508.067C353.522 508.067 353.612 508.067 353.702 508.067C353.792 508.067 353.882 508.067 353.972 508.067C354.062 508.067 354.153 508.067 354.243 508.067C354.333 508.067 354.423 508.067 354.513 508.067C354.603 508.067 354.693 508.067 354.783 508.067C354.873 508.067 354.963 508.067 355.053 508.067C355.142 508.067 355.232 508.067 355.322 508.067C355.412 508.067 355.502 508.067 355.592 508.067C355.681 508.067 355.771 508.067 355.861 508.067C355.951 508.067 356.041 508.067 356.13 508.067C356.22 508.067 356.31 508.067 356.399 508.067C356.489 508.067 356.579 508.067 356.668 508.067C356.758 508.067 356.847 508.067 356.937 508.067C357.027 508.067 357.116 508.067 357.206 508.067C357.295 508.067 357.385 508.067 357.474 508.067C357.564 508.067 357.653 508.067 357.742 508.067C357.832 508.067 357.921 508.067 358.011 508.067C358.1 508.067 358.189 508.067 358.279 508.067C358.368 508.067 358.457 508.067 358.547 508.067C358.636 508.067 358.725 508.067 358.814 508.067C358.904 508.067 358.993 508.067 359.082 508.067C359.171 508.067 359.26 508.067 359.35 508.067C359.439 508.067 359.528 508.067 359.617 508.067C359.706 508.067 359.795 508.067 359.884 508.067C359.973 508.067 360.062 508.067 360.151 508.067C360.24 508.067 360.329 508.067 360.418 508.067C360.507 508.067 360.596 508.067 360.685 508.067C360.774 508.067 360.863 508.067 360.952 508.067C361.041 508.067 361.13 508.067 361.219 508.067C361.308 508.067 361.396 508.067 361.485 508.067C361.574 508.067 361.663 508.067 361.752 508.067C361.84 508.067 361.929 508.067 362.018 508.067C362.107 508.067 362.195 508.067 362.284 508.067C362.373 508.067 362.461 508.067 362.55 508.067C362.639 508.067 362.727 508.067 362.816 508.067C362.905 508.067 362.993 508.067 363.082 508.067C363.17 508.067 363.259 508.067 363.347 508.067C363.436 508.067 363.524 508.067 363.613 508.067C363.701 508.067 363.79 508.067 363.878 508.067C363.967 508.067 364.055 508.067 364.144 508.067C364.232 508.067 364.321 508.067 364.409 508.067C364.497 508.067 364.586 508.067 364.674 508.067C364.762 508.067 364.851 508.067 364.939 508.067C365.027 508.067 365.116 508.067 365.204 508.067C365.292 508.067 365.381 508.067 365.469 508.067C365.557 508.067 365.645 508.067 365.733 508.067C365.822 508.067 365.91 508.067 365.998 508.067C366.086 508.067 366.174 508.067 366.263 508.067C366.351 508.067 366.439 508.067 366.527 508.067C366.615 508.067 366.703 508.067 366.791 508.067C366.879 508.067 366.967 508.067 367.055 508.067C367.143 508.067 367.232 508.067 367.32 508.067C367.408 508.067 367.496 508.067 367.584 508.067C367.672 508.067 367.759 508.067 367.847 508.067C367.935 508.067 368.023 508.067 368.111 508.067C368.199 508.067 368.287 508.067 368.375 508.067C368.463 508.067 368.551 508.067 368.639 508.067C368.726 508.067 368.814 508.067 368.902 508.067C368.99 508.067 369.078 508.067 369.166 508.067C369.253 508.067 369.341 508.067 369.429 508.067C369.517 508.067 369.605 508.067 369.692 508.067C369.78 508.067 369.868 508.067 369.955 508.067C370.043 508.067 370.131 508.067 370.219 508.067C370.306 508.067 370.394 508.067 370.482 508.067C370.569 508.067 370.657 508.067 370.745 508.067C370.832 508.067 370.92 508.067 371.007 508.067C371.095 508.067 371.183 508.067 371.27 508.067C371.358 508.067 371.445 508.067 371.533 508.067C371.621 508.067 371.708 508.067 371.796 508.067C371.883 508.067 371.971 508.067 372.058 508.067C372.146 508.067 372.233 508.067 372.321 508.067C372.408 508.067 372.496 508.067 372.583 508.067C372.671 508.067 372.758 508.067 372.845 508.067C372.933 508.067 373.02 508.067 373.108 508.067C373.195 508.067 373.283 508.067 373.37 508.067C373.457 508.067 373.545 508.067 373.632 508.067C373.72 508.067 373.807 508.067 373.894 508.067C373.982 508.067 374.069 508.067 374.156 508.067C374.244 508.067 374.331 508.067 374.418 508.067C374.506 508.067 374.593 508.067 374.68 508.067C374.767 508.067 374.855 508.067 374.942 508.067C375.029 508.067 375.116 508.067 375.204 508.067C375.291 508.067 375.378 508.067 375.465 508.067C375.553 508.067 375.64 508.067 375.727 508.067C375.814 508.067 375.901 508.067 375.989 508.067C376.076 508.067 376.163 508.067 376.25 508.067C376.337 508.067 376.425 508.067 376.512 508.067C376.599 508.067 376.686 508.067 376.773 508.067C376.86 508.067 376.947 508.067 377.035 508.067C377.122 508.067 377.209 508.067 377.296 508.067C377.383 508.067 377.47 508.067 377.557 508.067C377.644 508.067 377.731 508.067 377.818 508.067C377.905 508.067 377.993 508.067 378.08 508.067C378.167 508.067 378.254 508.067 378.341 508.067C378.428 508.067 378.515 508.067 378.602 508.067C378.689 508.067 378.776 508.067 378.863 508.067C378.95 508.067 379.037 508.067 379.124 508.067C379.211 508.067 379.298 508.067 379.385 508.067C379.472 508.067 379.559 508.067 379.646 508.067C379.733 508.067 379.82 508.067 379.907 508.067C379.994 508.067 380.081 508.067 380.168 508.067C380.255 508.067 380.342 508.067 380.429 508.067C380.515 508.067 380.602 508.067 380.689 508.067C380.776 508.067 380.863 508.067 380.95 508.067C381.037 508.067 381.124 508.067 381.211 508.067C381.298 508.067 381.385 508.067 381.472 508.067C381.558 508.067 381.645 508.067 381.732 508.067C381.819 508.067 381.906 508.067 381.993 508.067C382.08 508.067 382.167 508.067 382.253 508.067C382.34 508.067 382.427 508.067 382.514 508.067C382.601 508.067 382.688 508.067 382.775 508.067C382.862 508.067 382.948 508.067 383.035 508.067C383.122 508.067 383.209 508.067 383.296 508.067C383.383 508.067 383.469 508.067 383.556 508.067C383.643 508.067 383.73 508.067 383.817 508.067C383.904 508.067 383.99 508.067 384.077 508.067C384.164 508.067 384.251 508.067 384.338 508.067C384.424 508.067 384.511 508.067 384.598 508.067C384.685 508.067 384.772 508.067 384.859 508.067C384.945 508.067 385.032 508.067 385.119 508.067C385.206 508.067 385.293 508.067 385.379 508.067C385.466 508.067 385.553 508.067 385.64 508.067C385.727 508.067 385.813 508.067 385.9 508.067C385.987 508.067 386.074 508.067 386.16 508.067C386.247 508.067 386.334 508.067 386.421 508.067C386.508 508.067 386.594 508.067 386.681 508.067C386.768 508.067 386.855 508.067 386.942 508.067C387.028 508.067 387.115 508.067 387.202 508.067C387.289 508.067 387.375 508.067 387.462 508.067C387.549 508.067 387.636 508.067 387.723 508.067C387.809 508.067 387.896 508.067 387.983 508.067C388.07 508.067 388.156 508.067 388.243 508.067C388.33 508.067 388.417 508.067 388.504 508.067C388.59 508.067 388.677 508.067 388.764 508.067C388.851 508.067 388.938 508.067 389.024 508.067C389.111 508.067 389.198 508.067 389.285 508.067C389.372 508.067 389.458 508.067 389.545 508.067C389.632 508.067 389.719 508.067 389.805 508.067C389.892 508.067 389.979 508.067 390.066 508.067C390.153 508.067 390.239 508.067 390.326 508.067C390.413 508.067 390.5 508.067 390.587 508.067C390.673 508.067 390.76 508.067 390.847 508.067C390.934 508.067 391.021 508.067 391.108 508.067C391.194 508.067 391.281 508.067 391.368 508.067C391.455 508.067 391.542 508.067 391.628 508.067C391.715 508.067 391.802 508.067 391.889 508.067C391.976 508.067 392.063 508.067 392.15 508.067C392.236 508.067 392.323 508.067 392.41 508.067C392.497 508.067 392.584 508.067 392.671 508.067C392.757 508.067 392.844 508.067 392.931 508.067C393.018 508.067 393.105 508.067 393.192 508.067C393.279 508.067 393.366 508.067 393.452 508.067C393.539 508.067 393.626 508.067 393.713 508.067C393.8 508.067 393.887 508.067 393.974 508.067C394.061 508.067 394.148 508.067 394.235 508.067C394.321 508.067 394.408 508.067 394.495 508.067C394.582 508.067 394.669 508.067 394.756 508.067C394.843 508.067 394.93 508.067 395.017 508.067C395.104 508.067 395.191 508.067 395.278 508.067C395.365 508.067 395.452 508.067 395.539 508.067C395.626 508.067 395.713 508.067 395.8 508.067C395.886 508.067 395.973 508.067 396.06 508.067C396.147 508.067 396.234 508.067 396.321 508.067C396.408 508.067 396.495 508.067 396.583 508.067C396.67 508.067 396.757 508.067 396.844 508.067C396.931 508.067 397.018 508.067 397.105 508.067C397.192 508.067 397.279 508.067 397.366 508.067C397.453 508.067 397.54 508.067 397.627 508.067C397.714 508.067 397.801 508.067 397.888 508.067C397.975 508.067 398.063 508.067 398.15 508.067C398.237 508.067 398.324 508.067 398.411 508.067C398.498 508.067 398.585 508.067 398.672 508.067C398.76 508.067 398.847 508.067 398.934 508.067C399.021 508.067 399.108 508.067 399.195 508.067C399.283 508.067 399.37 508.067 399.457 508.067C399.544 508.067 399.631 508.067 399.719 508.067C399.806 508.067 399.893 508.067 399.98 508.067C400.068 508.067 400.155 508.067 400.242 508.067C400.329 508.067 400.417 508.067 400.504 508.067C400.591 508.067 400.678 508.067 400.766 508.067C400.853 508.067 400.94 508.067 401.028 508.067C401.115 508.067 401.202 508.067 401.29 508.067C401.377 508.067 401.464 508.067 401.552 508.067C401.639 508.067 401.726 508.067 401.814 508.067C401.901 508.067 401.989 508.067 402.076 508.067C402.163 508.067 402.251 508.067 402.338 508.067C402.426 508.067 402.513 508.067 402.601 508.067C402.688 508.067 402.775 508.067 402.863 508.067C402.95 508.067 403.038 508.067 403.125 508.067C403.213 508.067 403.3 508.067 403.388 508.067C403.475 508.067 403.563 508.067 403.65 508.067C403.738 508.067 403.826 508.067 403.913 508.067C404.001 508.067 404.088 508.067 404.176 508.067C404.264 508.067 404.351 508.067 404.439 508.067C404.526 508.067 404.614 508.067 404.702 508.067C404.789 508.067 404.877 508.067 404.965 508.067C405.052 508.067 405.14 508.067 405.228 508.067C405.315 508.067 405.403 508.067 405.491 508.067C405.579 508.067 405.666 508.067 405.754 508.067C405.842 508.067 405.93 508.067 406.017 508.067C406.105 508.067 406.193 508.067 406.281 508.067C406.369 508.067 406.456 508.067 406.544 508.067C406.632 508.067 406.72 508.067 406.808 508.067C406.896 508.067 406.984 508.067 407.072 508.067C407.16 508.067 407.247 508.067 407.335 508.067C407.423 508.067 407.511 508.067 407.599 508.067C407.687 508.067 407.775 508.067 407.863 508.067C407.951 508.067 408.039 508.067 408.127 508.067C408.215 508.067 408.303 508.067 408.391 508.067C408.479 508.067 408.567 508.067 408.656 508.067C408.744 508.067 408.832 508.067 408.92 508.067C409.008 508.067 409.096 508.067 409.184 508.067C409.273 508.067 409.361 508.067 409.449 508.067C409.537 508.067 409.625 508.067 409.714 508.067C409.802 508.067 409.89 508.067 409.978 508.067C410.067 508.067 410.155 508.067 410.243 508.067C410.331 508.067 410.42 508.067 410.508 508.067C410.596 508.067 410.685 508.067 410.773 508.067C410.861 508.067 410.95 508.067 411.038 508.067C411.127 508.067 411.215 508.067 411.304 508.067C411.392 508.067 411.48 508.067 411.569 508.067C411.657 508.067 411.746 508.067 411.834 508.067C411.923 508.067 412.011 508.067 412.1 508.067C412.189 508.067 412.277 508.067 412.366 508.067C412.454 508.067 412.543 508.067 412.632 508.067C412.72 508.067 412.809 508.067 412.898 508.067C412.986 508.067 413.075 508.067 413.164 508.067C413.252 508.067 413.341 508.067 413.43 508.067C413.519 508.067 413.607 508.067 413.696 508.067C413.785 508.067 413.874 508.067 413.963 508.067C414.051 508.067 414.14 508.067 414.229 508.067C414.318 508.067 414.407 508.067 414.496 508.067C414.585 508.067 414.674 508.067 414.763 508.067C414.852 508.067 414.941 508.067 415.03 508.067C415.119 508.067 415.208 508.067 415.297 508.067C415.386 508.067 415.475 508.067 415.564 508.067C415.653 508.067 415.742 508.067 415.831 508.067C415.92 508.067 416.009 508.067 416.099 508.067C416.188 508.067 416.277 508.067 416.366 508.067C416.455 508.067 416.545 508.067 416.634 508.067C416.723 508.067 416.812 508.067 416.902 508.067C416.991 508.067 417.08 508.067 417.17 508.067C417.259 508.067 417.348 508.067 417.438 508.067C417.527 508.067 417.617 508.067 417.706 508.067C417.796 508.067 417.885 508.067 417.974 508.067C418.064 508.067 418.153 508.067 418.243 508.067C418.333 508.067 418.422 508.067 418.512 508.067C418.601 508.067 418.691 508.067 418.781 508.067C418.87 508.067 418.96 508.067 419.05 508.067C419.139 508.067 419.229 508.067 419.319 508.067V503.067C419.229 503.067 419.139 503.067 419.05 503.067C418.96 503.067 418.87 503.067 418.781 503.067C418.691 503.067 418.601 503.067 418.512 503.067C418.422 503.067 418.333 503.067 418.243 503.067C418.153 503.067 418.064 503.067 417.974 503.067C417.885 503.067 417.796 503.067 417.706 503.067C417.617 503.067 417.527 503.067 417.438 503.067C417.348 503.067 417.259 503.067 417.17 503.067C417.08 503.067 416.991 503.067 416.902 503.067C416.812 503.067 416.723 503.067 416.634 503.067C416.545 503.067 416.455 503.067 416.366 503.067C416.277 503.067 416.188 503.067 416.099 503.067C416.009 503.067 415.92 503.067 415.831 503.067C415.742 503.067 415.653 503.067 415.564 503.067C415.475 503.067 415.386 503.067 415.297 503.067C415.208 503.067 415.119 503.067 415.03 503.067C414.941 503.067 414.852 503.067 414.763 503.067C414.674 503.067 414.585 503.067 414.496 503.067C414.407 503.067 414.318 503.067 414.229 503.067C414.14 503.067 414.051 503.067 413.963 503.067C413.874 503.067 413.785 503.067 413.696 503.067C413.607 503.067 413.519 503.067 413.43 503.067C413.341 503.067 413.252 503.067 413.164 503.067C413.075 503.067 412.986 503.067 412.898 503.067C412.809 503.067 412.72 503.067 412.632 503.067C412.543 503.067 412.454 503.067 412.366 503.067C412.277 503.067 412.189 503.067 412.1 503.067C412.011 503.067 411.923 503.067 411.834 503.067C411.746 503.067 411.657 503.067 411.569 503.067C411.48 503.067 411.392 503.067 411.304 503.067C411.215 503.067 411.127 503.067 411.038 503.067C410.95 503.067 410.861 503.067 410.773 503.067C410.685 503.067 410.596 503.067 410.508 503.067C410.42 503.067 410.331 503.067 410.243 503.067C410.155 503.067 410.067 503.067 409.978 503.067C409.89 503.067 409.802 503.067 409.714 503.067C409.625 503.067 409.537 503.067 409.449 503.067C409.361 503.067 409.273 503.067 409.184 503.067C409.096 503.067 409.008 503.067 408.92 503.067C408.832 503.067 408.744 503.067 408.656 503.067C408.567 503.067 408.479 503.067 408.391 503.067C408.303 503.067 408.215 503.067 408.127 503.067C408.039 503.067 407.951 503.067 407.863 503.067C407.775 503.067 407.687 503.067 407.599 503.067C407.511 503.067 407.423 503.067 407.335 503.067C407.247 503.067 407.16 503.067 407.072 503.067C406.984 503.067 406.896 503.067 406.808 503.067C406.72 503.067 406.632 503.067 406.544 503.067C406.456 503.067 406.369 503.067 406.281 503.067C406.193 503.067 406.105 503.067 406.017 503.067C405.93 503.067 405.842 503.067 405.754 503.067C405.666 503.067 405.579 503.067 405.491 503.067C405.403 503.067 405.315 503.067 405.228 503.067C405.14 503.067 405.052 503.067 404.965 503.067C404.877 503.067 404.789 503.067 404.702 503.067C404.614 503.067 404.526 503.067 404.439 503.067C404.351 503.067 404.264 503.067 404.176 503.067C404.088 503.067 404.001 503.067 403.913 503.067C403.826 503.067 403.738 503.067 403.65 503.067C403.563 503.067 403.475 503.067 403.388 503.067C403.3 503.067 403.213 503.067 403.125 503.067C403.038 503.067 402.95 503.067 402.863 503.067C402.775 503.067 402.688 503.067 402.601 503.067C402.513 503.067 402.426 503.067 402.338 503.067C402.251 503.067 402.163 503.067 402.076 503.067C401.989 503.067 401.901 503.067 401.814 503.067C401.726 503.067 401.639 503.067 401.552 503.067C401.464 503.067 401.377 503.067 401.29 503.067C401.202 503.067 401.115 503.067 401.028 503.067C400.94 503.067 400.853 503.067 400.766 503.067C400.678 503.067 400.591 503.067 400.504 503.067C400.417 503.067 400.329 503.067 400.242 503.067C400.155 503.067 400.068 503.067 399.98 503.067C399.893 503.067 399.806 503.067 399.719 503.067C399.631 503.067 399.544 503.067 399.457 503.067C399.37 503.067 399.283 503.067 399.195 503.067C399.108 503.067 399.021 503.067 398.934 503.067C398.847 503.067 398.76 503.067 398.672 503.067C398.585 503.067 398.498 503.067 398.411 503.067C398.324 503.067 398.237 503.067 398.15 503.067C398.063 503.067 397.975 503.067 397.888 503.067C397.801 503.067 397.714 503.067 397.627 503.067C397.54 503.067 397.453 503.067 397.366 503.067C397.279 503.067 397.192 503.067 397.105 503.067C397.018 503.067 396.931 503.067 396.844 503.067C396.757 503.067 396.67 503.067 396.583 503.067C396.495 503.067 396.408 503.067 396.321 503.067C396.234 503.067 396.147 503.067 396.06 503.067C395.973 503.067 395.886 503.067 395.8 503.067C395.713 503.067 395.626 503.067 395.539 503.067C395.452 503.067 395.365 503.067 395.278 503.067C395.191 503.067 395.104 503.067 395.017 503.067C394.93 503.067 394.843 503.067 394.756 503.067C394.669 503.067 394.582 503.067 394.495 503.067C394.408 503.067 394.321 503.067 394.235 503.067C394.148 503.067 394.061 503.067 393.974 503.067C393.887 503.067 393.8 503.067 393.713 503.067C393.626 503.067 393.539 503.067 393.452 503.067C393.366 503.067 393.279 503.067 393.192 503.067C393.105 503.067 393.018 503.067 392.931 503.067C392.844 503.067 392.757 503.067 392.671 503.067C392.584 503.067 392.497 503.067 392.41 503.067C392.323 503.067 392.236 503.067 392.15 503.067C392.063 503.067 391.976 503.067 391.889 503.067C391.802 503.067 391.715 503.067 391.628 503.067C391.542 503.067 391.455 503.067 391.368 503.067C391.281 503.067 391.194 503.067 391.108 503.067C391.021 503.067 390.934 503.067 390.847 503.067C390.76 503.067 390.673 503.067 390.587 503.067C390.5 503.067 390.413 503.067 390.326 503.067C390.239 503.067 390.153 503.067 390.066 503.067C389.979 503.067 389.892 503.067 389.805 503.067C389.719 503.067 389.632 503.067 389.545 503.067C389.458 503.067 389.372 503.067 389.285 503.067C389.198 503.067 389.111 503.067 389.024 503.067C388.938 503.067 388.851 503.067 388.764 503.067C388.677 503.067 388.59 503.067 388.504 503.067C388.417 503.067 388.33 503.067 388.243 503.067C388.156 503.067 388.07 503.067 387.983 503.067C387.896 503.067 387.809 503.067 387.723 503.067C387.636 503.067 387.549 503.067 387.462 503.067C387.375 503.067 387.289 503.067 387.202 503.067C387.115 503.067 387.028 503.067 386.942 503.067C386.855 503.067 386.768 503.067 386.681 503.067C386.594 503.067 386.508 503.067 386.421 503.067C386.334 503.067 386.247 503.067 386.16 503.067C386.074 503.067 385.987 503.067 385.9 503.067C385.813 503.067 385.727 503.067 385.64 503.067C385.553 503.067 385.466 503.067 385.379 503.067C385.293 503.067 385.206 503.067 385.119 503.067C385.032 503.067 384.945 503.067 384.859 503.067C384.772 503.067 384.685 503.067 384.598 503.067C384.511 503.067 384.424 503.067 384.338 503.067C384.251 503.067 384.164 503.067 384.077 503.067C383.99 503.067 383.904 503.067 383.817 503.067C383.73 503.067 383.643 503.067 383.556 503.067C383.469 503.067 383.383 503.067 383.296 503.067C383.209 503.067 383.122 503.067 383.035 503.067C382.948 503.067 382.862 503.067 382.775 503.067C382.688 503.067 382.601 503.067 382.514 503.067C382.427 503.067 382.34 503.067 382.253 503.067C382.167 503.067 382.08 503.067 381.993 503.067C381.906 503.067 381.819 503.067 381.732 503.067C381.645 503.067 381.558 503.067 381.472 503.067C381.385 503.067 381.298 503.067 381.211 503.067C381.124 503.067 381.037 503.067 380.95 503.067C380.863 503.067 380.776 503.067 380.689 503.067C380.602 503.067 380.515 503.067 380.429 503.067C380.342 503.067 380.255 503.067 380.168 503.067C380.081 503.067 379.994 503.067 379.907 503.067C379.82 503.067 379.733 503.067 379.646 503.067C379.559 503.067 379.472 503.067 379.385 503.067C379.298 503.067 379.211 503.067 379.124 503.067C379.037 503.067 378.95 503.067 378.863 503.067C378.776 503.067 378.689 503.067 378.602 503.067C378.515 503.067 378.428 503.067 378.341 503.067C378.254 503.067 378.167 503.067 378.08 503.067C377.993 503.067 377.905 503.067 377.818 503.067C377.731 503.067 377.644 503.067 377.557 503.067C377.47 503.067 377.383 503.067 377.296 503.067C377.209 503.067 377.122 503.067 377.035 503.067C376.947 503.067 376.86 503.067 376.773 503.067C376.686 503.067 376.599 503.067 376.512 503.067C376.425 503.067 376.337 503.067 376.25 503.067C376.163 503.067 376.076 503.067 375.989 503.067C375.901 503.067 375.814 503.067 375.727 503.067C375.64 503.067 375.553 503.067 375.465 503.067C375.378 503.067 375.291 503.067 375.204 503.067C375.116 503.067 375.029 503.067 374.942 503.067C374.855 503.067 374.767 503.067 374.68 503.067C374.593 503.067 374.506 503.067 374.418 503.067C374.331 503.067 374.244 503.067 374.156 503.067C374.069 503.067 373.982 503.067 373.894 503.067C373.807 503.067 373.72 503.067 373.632 503.067C373.545 503.067 373.457 503.067 373.37 503.067C373.283 503.067 373.195 503.067 373.108 503.067C373.02 503.067 372.933 503.067 372.845 503.067C372.758 503.067 372.671 503.067 372.583 503.067C372.496 503.067 372.408 503.067 372.321 503.067C372.233 503.067 372.146 503.067 372.058 503.067C371.971 503.067 371.883 503.067 371.796 503.067C371.708 503.067 371.621 503.067 371.533 503.067C371.445 503.067 371.358 503.067 371.27 503.067C371.183 503.067 371.095 503.067 371.007 503.067C370.92 503.067 370.832 503.067 370.745 503.067C370.657 503.067 370.569 503.067 370.482 503.067C370.394 503.067 370.306 503.067 370.219 503.067C370.131 503.067 370.043 503.067 369.955 503.067C369.868 503.067 369.78 503.067 369.692 503.067C369.605 503.067 369.517 503.067 369.429 503.067C369.341 503.067 369.253 503.067 369.166 503.067C369.078 503.067 368.99 503.067 368.902 503.067C368.814 503.067 368.726 503.067 368.639 503.067C368.551 503.067 368.463 503.067 368.375 503.067C368.287 503.067 368.199 503.067 368.111 503.067C368.023 503.067 367.935 503.067 367.847 503.067C367.759 503.067 367.672 503.067 367.584 503.067C367.496 503.067 367.408 503.067 367.32 503.067C367.232 503.067 367.143 503.067 367.055 503.067C366.967 503.067 366.879 503.067 366.791 503.067C366.703 503.067 366.615 503.067 366.527 503.067C366.439 503.067 366.351 503.067 366.263 503.067C366.174 503.067 366.086 503.067 365.998 503.067C365.91 503.067 365.822 503.067 365.733 503.067C365.645 503.067 365.557 503.067 365.469 503.067C365.381 503.067 365.292 503.067 365.204 503.067C365.116 503.067 365.027 503.067 364.939 503.067C364.851 503.067 364.762 503.067 364.674 503.067C364.586 503.067 364.497 503.067 364.409 503.067C364.321 503.067 364.232 503.067 364.144 503.067C364.055 503.067 363.967 503.067 363.878 503.067C363.79 503.067 363.701 503.067 363.613 503.067C363.524 503.067 363.436 503.067 363.347 503.067C363.259 503.067 363.17 503.067 363.082 503.067C362.993 503.067 362.905 503.067 362.816 503.067C362.727 503.067 362.639 503.067 362.55 503.067C362.461 503.067 362.373 503.067 362.284 503.067C362.195 503.067 362.107 503.067 362.018 503.067C361.929 503.067 361.84 503.067 361.752 503.067C361.663 503.067 361.574 503.067 361.485 503.067C361.396 503.067 361.308 503.067 361.219 503.067C361.13 503.067 361.041 503.067 360.952 503.067C360.863 503.067 360.774 503.067 360.685 503.067C360.596 503.067 360.507 503.067 360.418 503.067C360.329 503.067 360.24 503.067 360.151 503.067C360.062 503.067 359.973 503.067 359.884 503.067C359.795 503.067 359.706 503.067 359.617 503.067C359.528 503.067 359.439 503.067 359.35 503.067C359.26 503.067 359.171 503.067 359.082 503.067C358.993 503.067 358.904 503.067 358.814 503.067C358.725 503.067 358.636 503.067 358.547 503.067C358.457 503.067 358.368 503.067 358.279 503.067C358.189 503.067 358.1 503.067 358.011 503.067C357.921 503.067 357.832 503.067 357.742 503.067C357.653 503.067 357.564 503.067 357.474 503.067C357.385 503.067 357.295 503.067 357.206 503.067C357.116 503.067 357.027 503.067 356.937 503.067C356.847 503.067 356.758 503.067 356.668 503.067C356.579 503.067 356.489 503.067 356.399 503.067C356.31 503.067 356.22 503.067 356.13 503.067C356.041 503.067 355.951 503.067 355.861 503.067C355.771 503.067 355.681 503.067 355.592 503.067C355.502 503.067 355.412 503.067 355.322 503.067C355.232 503.067 355.142 503.067 355.053 503.067C354.963 503.067 354.873 503.067 354.783 503.067C354.693 503.067 354.603 503.067 354.513 503.067C354.423 503.067 354.333 503.067 354.243 503.067C354.153 503.067 354.062 503.067 353.972 503.067C353.882 503.067 353.792 503.067 353.702 503.067C353.612 503.067 353.522 503.067 353.431 503.067C353.341 503.067 353.251 503.067 353.161 503.067C353.07 503.067 352.98 503.067 352.89 503.067C352.799 503.067 352.709 503.067 352.619 503.067C352.528 503.067 352.438 503.067 352.347 503.067C352.257 503.067 352.167 503.067 352.076 503.067C351.986 503.067 351.895 503.067 351.805 503.067C351.714 503.067 351.623 503.067 351.533 503.067C351.442 503.067 351.352 503.067 351.261 503.067C351.17 503.067 351.08 503.067 350.989 503.067C350.898 503.067 350.807 503.067 350.717 503.067C350.626 503.067 350.535 503.067 350.444 503.067C350.353 503.067 350.263 503.067 350.172 503.067C350.081 503.067 349.99 503.067 349.899 503.067C349.808 503.067 349.717 503.067 349.626 503.067C349.535 503.067 349.444 503.067 349.353 503.067C349.262 503.067 349.171 503.067 349.08 503.067C348.989 503.067 348.897 503.067 348.806 503.067C348.715 503.067 348.624 503.067 348.533 503.067C348.441 503.067 348.35 503.067 348.259 503.067C348.167 503.067 348.076 503.067 347.985 503.067C347.893 503.067 347.802 503.067 347.711 503.067C347.619 503.067 347.528 503.067 347.436 503.067C347.345 503.067 347.253 503.067 347.162 503.067C347.07 503.067 346.979 503.067 346.887 503.067C346.795 503.067 346.704 503.067 346.612 503.067C346.52 503.067 346.429 503.067 346.337 503.067C346.245 503.067 346.153 503.067 346.062 503.067C345.97 503.067 345.878 503.067 345.786 503.067C345.694 503.067 345.602 503.067 345.51 503.067C345.418 503.067 345.327 503.067 345.235 503.067C345.143 503.067 345.051 503.067 344.958 503.067C344.866 503.067 344.774 503.067 344.682 503.067C344.59 503.067 344.498 503.067 344.406 503.067C344.314 503.067 344.221 503.067 344.129 503.067C344.037 503.067 343.944 503.067 343.852 503.067C343.76 503.067 343.667 503.067 343.575 503.067C343.483 503.067 343.39 503.067 343.298 503.067C343.205 503.067 343.113 503.067 343.02 503.067C342.928 503.067 342.835 503.067 342.743 503.067C342.65 503.067 342.557 503.067 342.465 503.067C342.372 503.067 342.279 503.067 342.187 503.067C342.094 503.067 342.001 503.067 341.908 503.067C341.816 503.067 341.723 503.067 341.63 503.067C341.537 503.067 341.444 503.067 341.351 503.067C341.258 503.067 341.165 503.067 341.072 503.067C340.979 503.067 340.886 503.067 340.793 503.067C340.7 503.067 340.607 503.067 340.514 503.067C340.42 503.067 340.327 503.067 340.234 503.067C340.141 503.067 340.048 503.067 339.954 503.067C339.861 503.067 339.768 503.067 339.674 503.067C339.581 503.067 339.487 503.067 339.394 503.067C339.3 503.067 339.207 503.067 339.113 503.067C339.02 503.067 338.926 503.067 338.833 503.067C338.739 503.067 338.646 503.067 338.552 503.067C338.458 503.067 338.364 503.067 338.271 503.067C338.177 503.067 338.083 503.067 337.989 503.067C337.896 503.067 337.802 503.067 337.708 503.067C337.614 503.067 337.52 503.067 337.426 503.067C337.332 503.067 337.238 503.067 337.144 503.067C337.05 503.067 336.956 503.067 336.862 503.067C336.767 503.067 336.673 503.067 336.579 503.067C336.485 503.067 336.391 503.067 336.296 503.067C336.202 503.067 336.108 503.067 336.013 503.067C335.919 503.067 335.825 503.067 335.73 503.067C335.636 503.067 335.541 503.067 335.447 503.067C335.352 503.067 335.258 503.067 335.163 503.067C335.068 503.067 334.974 503.067 334.879 503.067C334.784 503.067 334.69 503.067 334.595 503.067C334.5 503.067 334.405 503.067 334.31 503.067C334.216 503.067 334.121 503.067 334.026 503.067C333.931 503.067 333.836 503.067 333.741 503.067C333.646 503.067 333.551 503.067 333.456 503.067C333.361 503.067 333.265 503.067 333.17 503.067C333.075 503.067 332.98 503.067 332.885 503.067C332.789 503.067 332.694 503.067 332.599 503.067C332.503 503.067 332.408 503.067 332.313 503.067C332.217 503.067 332.122 503.067 332.026 503.067C331.931 503.067 331.835 503.067 331.74 503.067C331.644 503.067 331.548 503.067 331.453 503.067C331.357 503.067 331.261 503.067 331.165 503.067C331.07 503.067 330.974 503.067 330.878 503.067C330.782 503.067 330.686 503.067 330.59 503.067C330.494 503.067 330.398 503.067 330.302 503.067C330.206 503.067 330.11 503.067 330.014 503.067C329.918 503.067 329.822 503.067 329.726 503.067C329.63 503.067 329.533 503.067 329.437 503.067C329.341 503.067 329.244 503.067 329.148 503.067C329.052 503.067 328.955 503.067 328.859 503.067C328.762 503.067 328.666 503.067 328.569 503.067C328.473 503.067 328.376 503.067 328.279 503.067C328.183 503.067 328.086 503.067 327.989 503.067C327.893 503.067 327.796 503.067 327.699 503.067C327.602 503.067 327.505 503.067 327.408 503.067C327.312 503.067 327.215 503.067 327.118 503.067C327.021 503.067 326.924 503.067 326.826 503.067C326.729 503.067 326.632 503.067 326.535 503.067C326.438 503.067 326.341 503.067 326.243 503.067C326.146 503.067 326.049 503.067 325.951 503.067C325.854 503.067 325.757 503.067 325.659 503.067C325.562 503.067 325.464 503.067 325.367 503.067C325.269 503.067 325.171 503.067 325.074 503.067C324.976 503.067 324.878 503.067 324.781 503.067C324.683 503.067 324.585 503.067 324.487 503.067C324.389 503.067 324.292 503.067 324.194 503.067C324.096 503.067 323.998 503.067 323.9 503.067C323.802 503.067 323.704 503.067 323.605 503.067C323.507 503.067 323.409 503.067 323.311 503.067C323.213 503.067 323.114 503.067 323.016 503.067C322.918 503.067 322.819 503.067 322.721 503.067C322.623 503.067 322.524 503.067 322.426 503.067C322.327 503.067 322.228 503.067 322.13 503.067C322.031 503.067 321.933 503.067 321.834 503.067C321.735 503.067 321.636 503.067 321.538 503.067C321.439 503.067 321.34 503.067 321.241 503.067C321.142 503.067 321.043 503.067 320.944 503.067C320.845 503.067 320.746 503.067 320.647 503.067C320.548 503.067 320.449 503.067 320.349 503.067C320.25 503.067 320.151 503.067 320.052 503.067C319.952 503.067 319.853 503.067 319.754 503.067C319.654 503.067 319.555 503.067 319.455 503.067C319.356 503.067 319.256 503.067 319.156 503.067C319.057 503.067 318.957 503.067 318.857 503.067C318.758 503.067 318.658 503.067 318.558 503.067C318.458 503.067 318.358 503.067 318.258 503.067C318.159 503.067 318.059 503.067 317.959 503.067C317.859 503.067 317.758 503.067 317.658 503.067C317.558 503.067 317.458 503.067 317.358 503.067C317.257 503.067 317.157 503.067 317.057 503.067C316.957 503.067 316.856 503.067 316.756 503.067C316.655 503.067 316.555 503.067 316.454 503.067C316.354 503.067 316.253 503.067 316.152 503.067C316.052 503.067 315.951 503.067 315.85 503.067C315.749 503.067 315.649 503.067 315.548 503.067C315.447 503.067 315.346 503.067 315.245 503.067C315.144 503.067 315.043 503.067 314.942 503.067C314.841 503.067 314.74 503.067 314.638 503.067C314.537 503.067 314.436 503.067 314.335 503.067C314.233 503.067 314.132 503.067 314.031 503.067C313.929 503.067 313.828 503.067 313.726 503.067C313.625 503.067 313.523 503.067 313.421 503.067C313.32 503.067 313.218 503.067 313.116 503.067C313.015 503.067 312.913 503.067 312.811 503.067C312.709 503.067 312.607 503.067 312.505 503.067C312.403 503.067 312.301 503.067 312.199 503.067C312.097 503.067 311.995 503.067 311.893 503.067C311.79 503.067 311.688 503.067 311.586 503.067C311.484 503.067 311.381 503.067 311.279 503.067C311.176 503.067 311.074 503.067 310.971 503.067C310.869 503.067 310.766 503.067 310.664 503.067C310.561 503.067 310.458 503.067 310.356 503.067C310.253 503.067 310.15 503.067 310.047 503.067C309.944 503.067 309.841 503.067 309.738 503.067C309.635 503.067 309.532 503.067 309.429 503.067C309.326 503.067 309.223 503.067 309.12 503.067C309.016 503.067 308.913 503.067 308.81 503.067C308.706 503.067 308.603 503.067 308.5 503.067C308.396 503.067 308.293 503.067 308.189 503.067C308.086 503.067 307.982 503.067 307.878 503.067C307.775 503.067 307.671 503.067 307.567 503.067C307.463 503.067 307.359 503.067 307.255 503.067C307.151 503.067 307.048 503.067 306.943 503.067C306.839 503.067 306.735 503.067 306.631 503.067C306.527 503.067 306.423 503.067 306.319 503.067C306.214 503.067 306.11 503.067 306.005 503.067C305.901 503.067 305.797 503.067 305.692 503.067C305.588 503.067 305.483 503.067 305.378 503.067C305.274 503.067 305.169 503.067 305.064 503.067C304.96 503.067 304.855 503.067 304.75 503.067C304.645 503.067 304.54 503.067 304.435 503.067C304.33 503.067 304.225 503.067 304.12 503.067C304.015 503.067 303.91 503.067 303.804 503.067C303.699 503.067 303.594 503.067 303.488 503.067C303.383 503.067 303.278 503.067 303.172 503.067C303.067 503.067 302.961 503.067 302.855 503.067C302.75 503.067 302.644 503.067 302.538 503.067C302.433 503.067 302.327 503.067 302.221 503.067C302.115 503.067 302.009 503.067 301.903 503.067C301.797 503.067 301.691 503.067 301.585 503.067C301.479 503.067 301.373 503.067 301.266 503.067C301.16 503.067 301.054 503.067 300.948 503.067C300.841 503.067 300.735 503.067 300.628 503.067C300.522 503.067 300.415 503.067 300.309 503.067C300.202 503.067 300.095 503.067 299.988 503.067C299.882 503.067 299.775 503.067 299.668 503.067C299.561 503.067 299.454 503.067 299.347 503.067C299.24 503.067 299.133 503.067 299.026 503.067C298.919 503.067 298.812 503.067 298.704 503.067C298.597 503.067 298.49 503.067 298.382 503.067C298.275 503.067 298.168 503.067 298.06 503.067C297.953 503.067 297.845 503.067 297.737 503.067C297.63 503.067 297.522 503.067 297.414 503.067C297.306 503.067 297.198 503.067 297.091 503.067C296.983 503.067 296.875 503.067 296.767 503.067C296.659 503.067 296.55 503.067 296.442 503.067C296.334 503.067 296.226 503.067 296.118 503.067C296.009 503.067 295.901 503.067 295.792 503.067C295.684 503.067 295.575 503.067 295.467 503.067C295.358 503.067 295.25 503.067 295.141 503.067C295.032 503.067 294.923 503.067 294.815 503.067C294.706 503.067 294.597 503.067 294.488 503.067C294.379 503.067 294.27 503.067 294.161 503.067C294.052 503.067 293.942 503.067 293.833 503.067C293.724 503.067 293.615 503.067 293.505 503.067C293.396 503.067 293.286 503.067 293.177 503.067C293.067 503.067 292.958 503.067 292.848 503.067C292.738 503.067 292.629 503.067 292.519 503.067C292.409 503.067 292.299 503.067 292.189 503.067C292.079 503.067 291.969 503.067 291.859 503.067C291.749 503.067 291.639 503.067 291.529 503.067C291.419 503.067 291.308 503.067 291.198 503.067C291.088 503.067 290.977 503.067 290.867 503.067C290.756 503.067 290.646 503.067 290.535 503.067C290.425 503.067 290.314 503.067 290.203 503.067C290.092 503.067 289.982 503.067 289.871 503.067C289.76 503.067 289.649 503.067 289.538 503.067C289.427 503.067 289.316 503.067 289.204 503.067C289.093 503.067 288.982 503.067 288.871 503.067C288.759 503.067 288.648 503.067 288.536 503.067C288.425 503.067 288.313 503.067 288.202 503.067C288.09 503.067 287.978 503.067 287.867 503.067C287.755 503.067 287.643 503.067 287.531 503.067C287.419 503.067 287.307 503.067 287.195 503.067C287.083 503.067 286.971 503.067 286.859 503.067C286.747 503.067 286.635 503.067 286.522 503.067C286.41 503.067 286.298 503.067 286.185 503.067C286.073 503.067 285.96 503.067 285.847 503.067C285.735 503.067 285.622 503.067 285.509 503.067C285.397 503.067 285.284 503.067 285.171 503.067C285.058 503.067 284.945 503.067 284.832 503.067C284.719 503.067 284.606 503.067 284.492 503.067C284.379 503.067 284.266 503.067 284.153 503.067C284.039 503.067 283.926 503.067 283.812 503.067C283.699 503.067 283.585 503.067 283.472 503.067C283.358 503.067 283.244 503.067 283.131 503.067C283.017 503.067 282.903 503.067 282.789 503.067C282.675 503.067 282.561 503.067 282.447 503.067C282.333 503.067 282.219 503.067 282.104 503.067C281.99 503.067 281.876 503.067 281.761 503.067C281.647 503.067 281.533 503.067 281.418 503.067C281.304 503.067 281.189 503.067 281.074 503.067C280.96 503.067 280.845 503.067 280.73 503.067C280.615 503.067 280.5 503.067 280.385 503.067C280.27 503.067 280.155 503.067 280.04 503.067C279.925 503.067 279.81 503.067 279.694 503.067C279.579 503.067 279.464 503.067 279.348 503.067C279.233 503.067 279.117 503.067 279.002 503.067C278.886 503.067 278.77 503.067 278.655 503.067C278.539 503.067 278.423 503.067 278.307 503.067C278.191 503.067 278.075 503.067 277.959 503.067C277.843 503.067 277.727 503.067 277.611 503.067C277.494 503.067 277.378 503.067 277.262 503.067C277.145 503.067 277.029 503.067 276.912 503.067C276.796 503.067 276.679 503.067 276.563 503.067C276.446 503.067 276.329 503.067 276.212 503.067C276.095 503.067 275.978 503.067 275.861 503.067C275.744 503.067 275.627 503.067 275.51 503.067C275.393 503.067 275.276 503.067 275.159 503.067C275.041 503.067 274.924 503.067 274.806 503.067C274.689 503.067 274.571 503.067 274.454 503.067C274.336 503.067 274.218 503.067 274.101 503.067C273.983 503.067 273.865 503.067 273.747 503.067C273.629 503.067 273.511 503.067 273.393 503.067V508.067ZM420.36 448.45H273.393V453.45H420.36V448.45ZM273.393 450.95C273.393 448.45 273.392 448.45 273.391 448.45C273.391 448.45 273.389 448.45 273.388 448.45C273.386 448.45 273.382 448.45 273.378 448.45C273.37 448.45 273.358 448.45 273.343 448.45C273.313 448.45 273.27 448.45 273.214 448.451C273.103 448.452 272.94 448.453 272.73 448.457C272.31 448.464 271.699 448.477 270.925 448.504C269.377 448.559 267.174 448.667 264.533 448.884C259.262 449.317 252.196 450.185 245.098 451.934C238.037 453.674 230.746 456.334 225.169 460.458C219.523 464.633 215.5 470.431 215.5 478.256L220.5 478.256C220.5 472.426 223.401 467.983 228.142 464.478C232.951 460.922 239.508 458.461 246.295 456.789C253.045 455.125 259.827 454.287 264.942 453.867C267.494 453.658 269.619 453.553 271.1 453.501C271.841 453.475 272.421 453.462 272.812 453.456C273.007 453.453 273.156 453.451 273.254 453.45C273.303 453.45 273.339 453.45 273.362 453.45C273.374 453.45 273.382 453.45 273.387 453.45C273.39 453.45 273.392 453.45 273.393 453.45C273.393 453.45 273.393 453.45 273.393 453.45C273.393 453.45 273.393 453.45 273.393 450.95ZM273.393 508.067H419.319V503.067H273.393V508.067ZM396.877 503.067H352.509V508.067H396.877V503.067ZM352.509 503.067H301.735V508.067H352.509V503.067ZM419.144 508.061C422.086 508.268 426.144 508.085 430.455 507.869C434.838 507.649 439.59 507.386 444.142 507.386V502.386C439.436 502.386 434.538 502.658 430.204 502.875C425.798 503.096 422.073 503.254 419.494 503.074L419.144 508.061ZM444.457 507.366C453.285 506.248 462.731 503.969 470.245 499.558C477.837 495.102 483.598 488.364 484.497 478.483L479.517 478.03C478.802 485.898 474.311 491.375 467.714 495.246C461.039 499.164 452.36 501.325 443.828 502.406L444.457 507.366ZM421.873 545.944C428.813 545.837 433.96 543.051 437.655 538.927C441.281 534.881 443.429 529.645 444.718 524.647C446.014 519.624 446.489 514.653 446.645 510.963C446.724 509.112 446.723 507.567 446.702 506.479C446.691 505.934 446.675 505.503 446.662 505.204C446.656 505.055 446.65 504.938 446.645 504.857C446.643 504.817 446.641 504.785 446.64 504.762C446.639 504.751 446.638 504.742 446.638 504.735C446.638 504.732 446.637 504.729 446.637 504.726C446.637 504.725 446.637 504.724 446.637 504.724C446.637 504.723 446.637 504.722 444.142 504.886C441.648 505.05 441.648 505.05 441.648 505.049C441.648 505.049 441.648 505.049 441.648 505.049C441.648 505.049 441.648 505.05 441.648 505.051C441.648 505.053 441.648 505.058 441.649 505.065C441.65 505.079 441.651 505.102 441.653 505.134C441.656 505.197 441.661 505.295 441.667 505.425C441.679 505.686 441.693 506.075 441.703 506.576C441.722 507.577 441.723 509.018 441.65 510.751C441.502 514.232 441.055 518.829 439.877 523.398C438.692 527.991 436.815 532.372 433.931 535.591C431.116 538.732 427.269 540.86 421.797 540.944L421.873 545.944ZM347.248 557.599C360.965 557.423 370.919 553.638 378.149 548.689C385.355 543.756 389.723 537.758 392.422 533.347L388.157 530.737C385.662 534.814 381.736 540.174 375.325 544.563C368.938 548.935 359.952 552.435 347.184 552.599L347.248 557.599ZM392.422 533.347C395.285 528.668 396.992 521.637 397.992 516.063C398.502 513.222 398.846 510.656 399.062 508.8C399.17 507.871 399.246 507.117 399.296 506.593C399.321 506.331 399.339 506.126 399.351 505.985C399.357 505.915 399.362 505.86 399.365 505.822C399.367 505.804 399.368 505.789 399.369 505.779C399.369 505.773 399.369 505.769 399.37 505.766C399.37 505.765 399.37 505.764 399.37 505.763C399.37 505.762 399.37 505.762 399.37 505.761C399.37 505.761 399.37 505.761 396.877 505.567C394.385 505.374 394.385 505.374 394.385 505.374C394.385 505.374 394.385 505.374 394.385 505.374C394.385 505.374 394.385 505.375 394.385 505.375C394.385 505.377 394.385 505.379 394.384 505.382C394.384 505.39 394.383 505.401 394.382 505.416C394.379 505.447 394.375 505.495 394.37 505.558C394.359 505.685 394.342 505.874 394.319 506.121C394.272 506.613 394.199 507.331 394.095 508.221C393.888 510.003 393.558 512.464 393.071 515.18C392.076 520.722 390.488 526.928 388.157 530.737L392.422 533.347ZM421.797 540.944C409.553 541.132 402.904 539.553 399.032 537.562C395.302 535.645 393.925 533.251 392.436 530.759L388.144 533.325C389.684 535.901 391.667 539.398 396.746 542.009C401.683 544.547 409.293 546.136 421.873 545.944L421.797 540.944ZM301.735 505.567C299.255 505.887 299.255 505.888 299.255 505.888C299.255 505.888 299.255 505.889 299.256 505.889C299.256 505.89 299.256 505.891 299.256 505.892C299.256 505.894 299.257 505.898 299.257 505.902C299.258 505.91 299.26 505.923 299.262 505.939C299.266 505.971 299.272 506.018 299.281 506.079C299.297 506.201 299.321 506.38 299.354 506.611C299.418 507.072 299.514 507.74 299.641 508.578C299.896 510.252 300.276 512.603 300.781 515.318C301.787 520.727 303.301 527.674 305.323 533.608L310.056 531.996C308.15 526.402 306.687 519.731 305.697 514.405C305.204 511.753 304.833 509.457 304.584 507.826C304.46 507.01 304.367 506.362 304.306 505.919C304.275 505.698 304.252 505.528 304.236 505.414C304.229 505.358 304.223 505.315 304.219 505.287C304.218 505.273 304.216 505.263 304.215 505.256C304.215 505.253 304.215 505.25 304.214 505.249C304.214 505.248 304.214 505.248 304.214 505.247C304.214 505.247 304.214 505.247 304.214 505.247C304.214 505.247 304.214 505.247 301.735 505.567ZM305.323 533.608C307.402 539.711 310.925 545.893 317.578 550.462C324.208 555.016 333.664 557.774 347.248 557.599L347.184 552.599C334.282 552.765 325.938 550.139 320.409 546.341C314.901 542.558 311.904 537.422 310.056 531.996L305.323 533.608ZM276.833 548.604C291.318 548.279 299.617 544.86 304.357 541.193C306.724 539.362 308.151 537.508 308.997 536.041C309.419 535.31 309.692 534.683 309.866 534.211C309.953 533.975 310.014 533.778 310.057 533.627C310.079 533.552 310.096 533.487 310.108 533.435C310.115 533.409 310.12 533.386 310.125 533.366C310.127 533.356 310.129 533.347 310.131 533.339C310.132 533.334 310.133 533.33 310.133 533.327C310.134 533.325 310.134 533.322 310.135 533.321C310.135 533.318 310.136 533.316 307.689 532.802C305.242 532.288 305.243 532.286 305.244 532.283C305.244 532.283 305.244 532.28 305.244 532.279C305.245 532.276 305.246 532.273 305.246 532.27C305.247 532.265 305.249 532.26 305.249 532.256C305.251 532.249 305.252 532.244 305.253 532.242C305.254 532.238 305.252 532.245 305.247 532.262C305.238 532.296 305.215 532.373 305.173 532.484C305.091 532.708 304.936 533.075 304.666 533.542C304.131 534.47 303.128 535.823 301.298 537.238C297.645 540.064 290.488 543.296 276.721 543.605L276.833 548.604ZM347.934 364.874C349.878 363.302 349.878 363.301 349.877 363.3C349.876 363.3 349.875 363.299 349.875 363.298C349.873 363.296 349.871 363.293 349.869 363.291C349.864 363.285 349.859 363.278 349.852 363.27C349.838 363.253 349.819 363.23 349.796 363.202C349.749 363.146 349.682 363.067 349.596 362.967C349.424 362.768 349.175 362.485 348.849 362.133C348.197 361.428 347.237 360.443 345.98 359.286C343.466 356.974 339.747 353.962 334.892 351.129C325.164 345.453 310.859 340.489 292.634 343.319L293.402 348.26C310.259 345.642 323.411 350.219 332.372 355.448C336.86 358.067 340.293 360.848 342.594 362.966C343.744 364.024 344.609 364.913 345.179 365.529C345.463 365.836 345.674 366.076 345.81 366.233C345.878 366.312 345.927 366.37 345.957 366.406C345.972 366.424 345.982 366.436 345.988 366.443C345.991 366.447 345.992 366.448 345.993 366.449C345.993 366.449 345.993 366.449 345.992 366.449C345.992 366.448 345.992 366.448 345.992 366.448C345.991 366.447 345.99 366.446 347.934 364.874ZM292.634 343.319C274.558 346.127 261.794 353.861 253.544 360.92C249.424 364.446 246.43 367.802 244.456 370.293C243.469 371.538 242.736 372.569 242.243 373.299C241.997 373.664 241.811 373.954 241.683 374.158C241.619 374.26 241.569 374.341 241.535 374.399C241.517 374.427 241.503 374.451 241.493 374.468C241.488 374.477 241.484 374.484 241.48 374.49C241.478 374.492 241.477 374.495 241.476 374.497C241.475 374.498 241.474 374.499 241.474 374.5C241.473 374.501 241.473 374.502 243.632 375.762C245.792 377.022 245.791 377.023 245.791 377.023C245.791 377.024 245.79 377.024 245.79 377.025C245.79 377.025 245.789 377.026 245.789 377.025C245.79 377.025 245.791 377.024 245.792 377.02C245.796 377.014 245.803 377.002 245.814 376.984C245.835 376.949 245.871 376.891 245.92 376.812C246.019 376.655 246.174 376.412 246.388 376.096C246.815 375.464 247.473 374.536 248.375 373.398C250.18 371.12 252.954 368.005 256.795 364.719C264.468 358.154 276.397 350.902 293.402 348.26L292.634 343.319ZM243.632 375.762C243.568 378.261 243.567 378.261 243.565 378.261C243.565 378.261 243.564 378.261 243.563 378.261C243.562 378.261 243.56 378.261 243.559 378.261C243.557 378.261 243.556 378.261 243.555 378.261C243.554 378.261 243.556 378.261 243.561 378.261C243.57 378.261 243.591 378.262 243.622 378.264C243.686 378.268 243.792 378.276 243.933 378.292C244.217 378.322 244.639 378.381 245.148 378.492C246.178 378.717 247.49 379.141 248.728 379.921C249.946 380.688 251.088 381.796 251.859 383.435C252.632 385.079 253.112 387.429 252.728 390.806L257.696 391.371C258.164 387.255 257.622 383.943 256.384 381.308C255.143 378.669 253.283 376.881 251.394 375.691C249.524 374.512 247.622 373.914 246.214 373.607C245.504 373.452 244.902 373.367 244.466 373.32C244.248 373.297 244.07 373.283 243.939 373.275C243.874 373.27 243.821 373.268 243.78 373.266C243.76 373.265 243.742 373.264 243.728 373.264C243.721 373.264 243.715 373.263 243.71 373.263C243.707 373.263 243.705 373.263 243.702 373.263C243.701 373.263 243.7 373.263 243.699 373.263C243.698 373.263 243.696 373.263 243.632 375.762ZM252.728 390.806C252.382 393.853 251.047 395.604 249.434 396.583C247.732 397.617 245.433 397.959 243.015 397.562C240.603 397.166 238.315 396.069 236.729 394.551C235.172 393.061 234.366 391.259 234.542 389.265L229.562 388.825C229.227 392.621 230.848 395.843 233.272 398.163C235.667 400.456 238.913 401.956 242.205 402.496C245.493 403.036 249.069 402.655 252.029 400.857C255.078 399.006 257.191 395.818 257.696 391.371L252.728 390.806ZM234.542 389.265C234.977 384.341 237.377 381.654 239.627 380.131C240.782 379.349 241.92 378.864 242.768 378.577C243.189 378.434 243.531 378.343 243.755 378.29C243.867 378.263 243.949 378.246 243.997 378.237C244.021 378.232 244.036 378.229 244.042 378.228C244.045 378.228 244.045 378.228 244.043 378.228C244.042 378.228 244.041 378.228 244.039 378.229C244.037 378.229 244.036 378.229 244.035 378.229C244.034 378.229 244.033 378.23 244.033 378.23C244.031 378.23 244.03 378.23 243.632 375.762C243.234 373.294 243.233 373.294 243.231 373.294C243.231 373.294 243.23 373.295 243.229 373.295C243.227 373.295 243.224 373.295 243.222 373.296C243.217 373.297 243.212 373.298 243.206 373.299C243.194 373.301 243.179 373.303 243.162 373.306C243.128 373.312 243.083 373.321 243.03 373.331C242.922 373.352 242.776 373.383 242.598 373.426C242.241 373.511 241.749 373.643 241.165 373.841C240.001 374.235 238.435 374.9 236.824 375.991C233.538 378.215 230.149 382.168 229.562 388.825L234.542 389.265ZM419.319 503.067H396.877V508.067H419.319V503.067ZM215.5 478.256C215.5 486.847 219.271 493.007 224.93 497.3C230.472 501.505 237.766 503.888 244.954 505.318L245.93 500.414C239.039 499.043 232.611 496.851 227.952 493.317C223.41 489.87 220.5 485.127 220.5 478.256L215.5 478.256ZM244.954 505.318C255.931 507.502 267.516 507.592 273.188 508.059L273.598 503.076C267.384 502.565 256.54 502.526 245.93 500.414L244.954 505.318ZM276.721 543.605C264.247 543.885 257.043 534.44 252.841 523.804C250.771 518.565 249.539 513.275 248.827 509.273C248.472 507.278 248.248 505.617 248.113 504.461C248.046 503.883 248.001 503.433 247.973 503.13C247.96 502.979 247.95 502.865 247.944 502.791C247.941 502.754 247.939 502.727 247.938 502.71C247.937 502.702 247.937 502.696 247.936 502.693C247.936 502.691 247.936 502.69 247.936 502.69C247.936 502.69 247.936 502.69 247.936 502.69C247.936 502.69 247.936 502.691 245.442 502.866C242.949 503.042 242.949 503.042 242.949 503.044C242.949 503.044 242.949 503.045 242.949 503.047C242.949 503.049 242.949 503.052 242.95 503.056C242.95 503.063 242.951 503.073 242.952 503.086C242.954 503.111 242.956 503.147 242.96 503.193C242.968 503.285 242.979 503.417 242.994 503.587C243.026 503.927 243.075 504.418 243.147 505.039C243.291 506.28 243.529 508.041 243.904 510.149C244.653 514.354 245.958 519.992 248.19 525.641C252.593 536.783 261.056 548.957 276.833 548.604L276.721 543.605ZM301.735 503.067H273.393V508.067H301.735V503.067Z" fill="black"/>
</svg>
