<svg width="701" height="900" viewBox="0 0 701 900" fill="none" xmlns="http://www.w3.org/2000/svg">
<path d="M354.045 485.242C380.677 485.544 418.354 485.242 418.354 485.242C418.354 485.242 430.894 483.727 431 470.689C431.105 457.652 407.658 458.375 407.658 458.375H295.139H288.034C288.034 458.375 270.996 457.978 270.042 470.689C269.089 483.401 284.592 486.449 284.592 486.449C288.034 486.6 327.414 484.94 354.045 485.242Z" fill="#C26329"/>
<path d="M301.159 565.663C305.395 567.323 331.651 572 354.045 572C376.44 572 396.851 568.182 403.525 563.806C410.2 559.431 418.354 485.242 418.354 485.242C418.354 485.242 380.677 485.544 354.045 485.242C327.414 484.94 288.034 486.6 284.592 486.449C284.592 486.449 296.922 564.003 301.159 565.663Z" fill="#C26329"/>
<path d="M288.034 398.044C284.592 432.081 288.034 450.456 295.139 458.375H407.658C411.811 453.114 412.275 427.767 412.1 399.649C411.925 371.531 385.91 335.709 350.571 336.069C315.232 336.429 291.477 364.007 288.034 398.044Z" fill="#1AAE54"/>
<path d="M288.034 458.375L287.976 460.874L288.005 460.875H288.034V458.375ZM407.658 458.375V460.875H407.696L407.735 460.873L407.658 458.375ZM294.534 438.075C295.899 438.281 297.173 437.342 297.379 435.977C297.585 434.611 296.646 433.337 295.28 433.131L294.534 438.075ZM277.46 430.439C276.095 430.233 274.821 431.172 274.614 432.538C274.408 433.903 275.348 435.177 276.713 435.383L277.46 430.439ZM284.592 434.045L284.965 431.573L284.965 431.573L284.592 434.045ZM296.913 415.718C298.278 415.924 299.552 414.985 299.758 413.619C299.964 412.254 299.025 410.98 297.66 410.774L296.913 415.718ZM279.839 408.082C278.474 407.876 277.2 408.815 276.994 410.181C276.787 411.546 277.727 412.82 279.092 413.026L279.839 408.082ZM286.971 411.688L287.345 409.216L287.345 409.216L286.971 411.688ZM297.286 397.155C298.667 397.155 299.786 396.036 299.786 394.655C299.786 393.275 298.667 392.155 297.286 392.155V397.155ZM278.144 392.155C276.763 392.155 275.644 393.275 275.644 394.655C275.644 396.036 276.763 397.155 278.144 397.155V392.155ZM299.193 381.226C300.526 381.586 301.899 380.797 302.258 379.464C302.618 378.131 301.829 376.759 300.496 376.399L299.193 381.226ZM284.027 371.955C282.694 371.596 281.321 372.385 280.962 373.718C280.602 375.051 281.391 376.423 282.724 376.783L284.027 371.955ZM328.818 403.707C330.188 403.543 331.167 402.298 331.003 400.927C330.839 399.556 329.594 398.578 328.224 398.742L328.818 403.707ZM318.536 399.901C317.165 400.065 316.186 401.31 316.35 402.681C316.514 404.052 317.759 405.03 319.13 404.866L318.536 399.901ZM320.556 421.049C321.901 420.739 322.741 419.398 322.432 418.052C322.122 416.707 320.78 415.867 319.435 416.176L320.556 421.049ZM306.84 419.074C305.495 419.384 304.655 420.726 304.965 422.071C305.274 423.417 306.616 424.257 307.962 423.947L306.84 419.074ZM308.314 366.411C309.147 367.512 310.715 367.729 311.816 366.895C312.917 366.062 313.134 364.494 312.301 363.393L308.314 366.411ZM304.551 353.153C303.717 352.052 302.149 351.836 301.048 352.669C299.948 353.502 299.731 355.07 300.564 356.171L304.551 353.153ZM324.367 351.52C325.62 352.101 327.106 351.558 327.688 350.305C328.269 349.053 327.726 347.567 326.473 346.985L324.367 351.52ZM312.329 340.416C311.077 339.835 309.59 340.378 309.009 341.63C308.427 342.883 308.971 344.369 310.223 344.951L312.329 340.416ZM345.396 344.422C345.396 345.803 346.515 346.922 347.896 346.922C349.277 346.922 350.396 345.803 350.396 344.422L345.396 344.422ZM350.396 328C350.396 326.619 349.277 325.5 347.896 325.5C346.515 325.5 345.396 326.619 345.396 328L350.396 328ZM369.931 345.809C369.096 346.908 369.31 348.476 370.41 349.311C371.51 350.146 373.078 349.932 373.913 348.832L369.931 345.809ZM384.182 335.308C385.017 334.208 384.802 332.64 383.703 331.805C382.603 330.97 381.035 331.185 380.2 332.284L384.182 335.308ZM384.819 360.223C383.623 360.912 383.211 362.44 383.899 363.637C384.588 364.834 386.116 365.246 387.313 364.557L384.819 360.223ZM402.426 355.863C403.623 355.175 404.035 353.646 403.346 352.449C402.658 351.253 401.129 350.841 399.932 351.529L402.426 355.863ZM403.31 409.188C401.93 409.188 400.81 410.307 400.81 411.688C400.81 413.069 401.93 414.188 403.31 414.188V409.188ZM422.071 413.049C423.449 412.96 424.494 411.771 424.406 410.393C424.317 409.016 423.128 407.97 421.751 408.059L422.071 413.049ZM401.731 431.607C400.384 431.302 399.046 432.146 398.741 433.493C398.436 434.84 399.28 436.178 400.627 436.483L401.731 431.607ZM417.802 440.371C419.149 440.676 420.488 439.832 420.793 438.485C421.097 437.138 420.253 435.8 418.906 435.495L417.802 440.371ZM396.668 389.863C395.408 390.428 394.845 391.908 395.411 393.167C395.976 394.427 397.455 394.99 398.715 394.425L396.668 389.863ZM419.378 385.151C420.638 384.585 421.2 383.106 420.635 381.846C420.07 380.587 418.59 380.024 417.331 380.589L419.378 385.151ZM363.392 382.822C362.405 383.788 362.388 385.371 363.354 386.357C364.319 387.344 365.902 387.361 366.889 386.395L363.392 382.822ZM377.352 376.156C378.339 375.19 378.356 373.607 377.39 372.62C376.424 371.634 374.841 371.617 373.855 372.582L377.352 376.156ZM368.241 403.941C366.86 403.941 365.741 405.06 365.741 406.441C365.741 407.822 366.86 408.941 368.241 408.941V403.941ZM379.285 408.941C380.665 408.941 381.785 407.822 381.785 406.441C381.785 405.06 380.665 403.941 379.285 403.941V408.941ZM370.566 425.193C369.185 425.193 368.066 426.313 368.066 427.693C368.066 429.074 369.185 430.193 370.566 430.193V425.193ZM386.841 430.193C388.222 430.193 389.341 429.074 389.341 427.693C389.341 426.313 388.222 425.193 386.841 425.193V430.193ZM375.603 441.422C374.223 441.422 373.103 442.542 373.103 443.922C373.103 445.303 374.223 446.422 375.603 446.422V441.422ZM388.197 446.422C389.578 446.422 390.697 445.303 390.697 443.922C390.697 442.542 389.578 441.422 388.197 441.422V446.422ZM341.412 440.191C342.659 439.599 343.19 438.108 342.598 436.861C342.006 435.614 340.515 435.083 339.267 435.675L341.412 440.191ZM331.13 439.539C329.882 440.131 329.351 441.622 329.944 442.87C330.536 444.117 332.027 444.648 333.274 444.056L331.13 439.539ZM312.436 446.137C313.659 445.497 314.131 443.986 313.491 442.763C312.851 441.54 311.34 441.067 310.117 441.708L312.436 446.137ZM302.367 445.765C301.143 446.405 300.671 447.916 301.311 449.139C301.952 450.362 303.462 450.835 304.685 450.195L302.367 445.765ZM323.751 387.629C324.778 388.551 326.359 388.465 327.281 387.438C328.203 386.41 328.118 384.83 327.09 383.907L323.751 387.629ZM319.34 376.952C318.312 376.03 316.732 376.115 315.81 377.143C314.887 378.171 314.973 379.751 316 380.673L319.34 376.952ZM337.365 362.76C338.316 363.761 339.898 363.801 340.899 362.85C341.9 361.899 341.941 360.317 340.99 359.316L337.365 362.76ZM334.014 351.974C333.063 350.973 331.481 350.933 330.48 351.884C329.479 352.835 329.438 354.417 330.389 355.418L334.014 351.974ZM352.399 363.021C351.36 363.93 351.255 365.51 352.164 366.549C353.074 367.588 354.653 367.693 355.692 366.783L352.399 363.021ZM365.625 358.089C366.663 357.18 366.768 355.6 365.859 354.561C364.95 353.522 363.37 353.417 362.331 354.327L365.625 358.089ZM385.753 379.653C384.51 380.254 383.989 381.749 384.59 382.992C385.191 384.235 386.686 384.756 387.929 384.155L385.753 379.653ZM394.323 381.063C395.566 380.462 396.087 378.968 395.486 377.725C394.885 376.481 393.39 375.961 392.147 376.562L394.323 381.063ZM344.545 415.574C345.831 415.071 346.465 413.62 345.962 412.335C345.458 411.049 344.008 410.415 342.722 410.918L344.545 415.574ZM336.91 413.193C335.624 413.697 334.99 415.147 335.493 416.433C335.996 417.718 337.446 418.353 338.732 417.849L336.91 413.193ZM342.769 389.936C343.577 391.056 345.14 391.308 346.26 390.5C347.379 389.691 347.631 388.129 346.823 387.009L342.769 389.936ZM339.848 377.349C339.039 376.23 337.477 375.978 336.357 376.786C335.238 377.594 334.986 379.157 335.794 380.276L339.848 377.349ZM300.247 567.991C301.547 568.5 304.199 569.14 307.577 569.806C311.036 570.488 315.462 571.236 320.448 571.93C330.41 573.316 342.695 574.5 354.045 574.5L354.045 569.5C343.001 569.5 330.961 568.345 321.137 566.978C316.231 566.295 311.899 565.562 308.544 564.9C305.107 564.223 302.889 563.656 302.07 563.335L300.247 567.991ZM354.045 574.5C365.375 574.5 376.219 573.535 385.104 572.008C393.858 570.503 401.088 568.393 404.896 565.897L402.155 561.715C399.288 563.595 392.976 565.582 384.257 567.08C375.669 568.556 365.11 569.5 354.045 569.5L354.045 574.5ZM404.896 565.897C405.848 565.273 406.513 564.271 406.988 563.398C407.503 562.451 407.983 561.293 408.437 560.004C409.347 557.422 410.238 554.055 411.097 550.233C412.82 542.574 414.476 532.82 415.915 523.255C417.356 513.679 418.587 504.246 419.457 497.209C419.892 493.69 420.238 490.769 420.474 488.726C420.593 487.705 420.684 486.903 420.745 486.356C420.776 486.083 420.8 485.873 420.815 485.732C420.823 485.661 420.829 485.607 420.833 485.571C420.835 485.553 420.837 485.539 420.838 485.53C420.838 485.525 420.839 485.521 420.839 485.519C420.839 485.518 420.839 485.517 420.839 485.516C420.839 485.516 420.839 485.515 418.354 485.242C415.869 484.969 415.869 484.969 415.869 484.97C415.869 484.97 415.869 484.971 415.869 484.972C415.869 484.974 415.868 484.977 415.868 484.982C415.867 484.99 415.865 485.004 415.863 485.021C415.86 485.056 415.854 485.109 415.846 485.179C415.83 485.318 415.807 485.525 415.777 485.796C415.716 486.338 415.625 487.135 415.507 488.151C415.272 490.182 414.928 493.091 414.495 496.596C413.628 503.606 412.403 512.993 410.971 522.511C409.537 532.04 407.902 541.654 406.219 549.136C405.376 552.885 404.535 556.032 403.721 558.344C403.313 559.503 402.934 560.387 402.596 561.008C402.218 561.703 402.037 561.792 402.155 561.715L404.896 565.897ZM418.354 485.242C418.334 482.742 418.334 482.742 418.334 482.742C418.334 482.742 418.333 482.742 418.333 482.742C418.331 482.742 418.33 482.742 418.327 482.742C418.323 482.742 418.316 482.742 418.307 482.742C418.289 482.743 418.262 482.743 418.226 482.743C418.154 482.744 418.047 482.744 417.906 482.745C417.624 482.748 417.206 482.751 416.666 482.755C415.584 482.762 414.009 482.773 412.036 482.785C408.09 482.808 402.55 482.836 396.179 482.855C383.434 482.893 367.371 482.893 354.074 482.742L354.017 487.742C367.351 487.893 383.442 487.893 396.194 487.855C402.571 487.836 408.116 487.808 412.066 487.785C414.041 487.773 415.618 487.762 416.701 487.754C417.243 487.751 417.661 487.747 417.944 487.745C418.085 487.744 418.193 487.743 418.265 487.743C418.301 487.743 418.328 487.742 418.347 487.742C418.356 487.742 418.363 487.742 418.367 487.742C418.37 487.742 418.371 487.742 418.372 487.742C418.373 487.742 418.373 487.742 418.374 487.742C418.374 487.742 418.374 487.742 418.354 485.242ZM354.074 482.742C340.707 482.591 324.164 482.932 310.557 483.29C296.823 483.652 286.306 484.022 284.702 483.952L284.483 488.947C286.32 489.027 297.214 488.643 310.689 488.288C324.29 487.93 340.752 487.592 354.017 487.742L354.074 482.742ZM284.592 486.449C282.123 486.842 282.123 486.842 282.123 486.843C282.123 486.843 282.123 486.844 282.124 486.845C282.124 486.848 282.125 486.852 282.125 486.856C282.127 486.866 282.129 486.88 282.132 486.899C282.138 486.937 282.147 486.992 282.159 487.066C282.182 487.214 282.217 487.432 282.263 487.717C282.355 488.287 282.49 489.123 282.663 490.186C283.008 492.313 283.507 495.353 284.119 499.006C285.343 506.31 287.019 516.071 288.828 525.887C290.636 535.695 292.583 545.591 294.348 553.154C295.229 556.927 296.077 560.175 296.853 562.557C297.238 563.739 297.63 564.786 298.029 565.6C298.227 566.004 298.462 566.424 298.743 566.796C298.982 567.112 299.466 567.685 300.247 567.991L302.07 563.335C302.356 563.447 302.537 563.592 302.617 563.663C302.661 563.703 302.692 563.735 302.709 563.754C302.717 563.763 302.724 563.771 302.728 563.776C302.727 563.775 302.733 563.783 302.732 563.781C302.73 563.779 302.735 563.786 302.733 563.783C302.731 563.78 302.735 563.785 302.732 563.781C302.729 563.777 302.732 563.781 302.728 563.776C302.725 563.772 302.721 563.765 302.715 563.756C302.703 563.738 302.687 563.713 302.668 563.68C302.628 563.612 302.578 563.52 302.519 563.4C302.272 562.896 301.965 562.106 301.607 561.008C300.898 558.832 300.088 555.749 299.217 552.017C297.479 544.572 295.549 534.768 293.745 524.98C291.942 515.201 290.271 505.469 289.05 498.18C288.44 494.536 287.943 491.504 287.598 489.384C287.425 488.323 287.291 487.491 287.2 486.924C287.154 486.64 287.12 486.423 287.096 486.277C287.085 486.204 287.076 486.149 287.07 486.112C287.067 486.093 287.065 486.08 287.063 486.07C287.062 486.066 287.062 486.062 287.062 486.06C287.061 486.059 287.061 486.058 287.061 486.057C287.061 486.057 287.061 486.057 284.592 486.449ZM272.535 470.876C272.904 465.957 276.272 463.469 280.201 462.132C282.155 461.467 284.114 461.148 285.606 460.999C286.346 460.925 286.957 460.894 287.375 460.881C287.584 460.875 287.744 460.873 287.847 460.873C287.898 460.873 287.935 460.873 287.957 460.874C287.968 460.874 287.975 460.874 287.979 460.874C287.98 460.874 287.981 460.874 287.98 460.874C287.98 460.874 287.98 460.874 287.979 460.874C287.979 460.874 287.978 460.874 287.978 460.874C287.977 460.874 287.976 460.874 288.034 458.375C288.093 455.875 288.092 455.875 288.09 455.875C288.09 455.875 288.089 455.875 288.088 455.875C288.086 455.875 288.084 455.875 288.082 455.875C288.078 455.875 288.072 455.875 288.065 455.875C288.052 455.875 288.035 455.874 288.014 455.874C287.971 455.874 287.912 455.873 287.839 455.873C287.692 455.874 287.485 455.876 287.226 455.884C286.708 455.899 285.98 455.936 285.108 456.024C283.376 456.197 281.016 456.573 278.591 457.398C273.762 459.041 268.134 462.71 267.549 470.502L272.535 470.876ZM407.658 458.375C407.735 460.873 407.734 460.873 407.734 460.873C407.734 460.873 407.733 460.874 407.733 460.874C407.733 460.874 407.733 460.874 407.734 460.874C407.735 460.873 407.737 460.873 407.741 460.873C407.748 460.873 407.761 460.873 407.78 460.872C407.816 460.872 407.874 460.87 407.952 460.87C408.107 460.868 408.341 460.866 408.643 460.869C409.247 460.874 410.118 460.896 411.165 460.961C413.273 461.091 416.039 461.394 418.767 462.069C421.528 462.754 424.048 463.771 425.825 465.209C427.515 466.576 428.519 468.291 428.5 470.669L433.5 470.71C433.533 466.569 431.646 463.485 428.969 461.321C426.38 459.227 423.057 457.981 419.97 457.216C416.849 456.443 413.759 456.112 411.474 455.97C410.325 455.899 409.365 455.875 408.687 455.869C408.348 455.866 408.078 455.868 407.89 455.87C407.796 455.871 407.722 455.872 407.67 455.874C407.644 455.874 407.624 455.875 407.609 455.875C407.601 455.875 407.595 455.875 407.59 455.876C407.588 455.876 407.586 455.876 407.584 455.876C407.584 455.876 407.583 455.876 407.582 455.876C407.581 455.876 407.581 455.876 407.658 458.375ZM428.5 470.669C428.455 476.206 425.849 479.116 423.293 480.747C421.968 481.592 420.628 482.104 419.611 482.403C419.106 482.551 418.692 482.644 418.415 482.698C418.277 482.725 418.173 482.742 418.111 482.752C418.08 482.756 418.059 482.759 418.049 482.761C418.045 482.761 418.043 482.762 418.043 482.762C418.044 482.761 418.045 482.761 418.047 482.761C418.048 482.761 418.049 482.761 418.05 482.761C418.051 482.761 418.052 482.76 418.052 482.76C418.053 482.76 418.054 482.76 418.354 485.242C418.654 487.724 418.655 487.724 418.657 487.724C418.657 487.724 418.659 487.724 418.66 487.723C418.662 487.723 418.664 487.723 418.666 487.723C418.671 487.722 418.677 487.721 418.683 487.72C418.696 487.719 418.712 487.717 418.731 487.714C418.769 487.709 418.818 487.702 418.879 487.692C419.001 487.673 419.167 487.645 419.372 487.605C419.781 487.526 420.347 487.398 421.02 487.2C422.356 486.808 424.158 486.126 425.982 484.962C429.722 482.576 433.439 478.21 433.5 470.71L428.5 470.669ZM288.034 460.875H295.139V455.875H288.034V460.875ZM297 456.705C293.931 453.285 291.398 447.291 290.109 437.672C288.826 428.098 288.811 415.208 290.522 398.296L285.547 397.792C283.815 414.918 283.8 428.233 285.154 438.336C286.501 448.393 289.242 455.546 293.278 460.044L297 456.705ZM290.522 398.296C293.865 365.231 316.806 338.913 350.596 338.568L350.545 333.569C313.657 333.944 289.088 362.782 285.547 397.792L290.522 398.296ZM350.596 338.568C367.37 338.398 382.059 346.811 392.646 358.832C403.257 370.88 409.517 386.302 409.6 399.664L414.6 399.633C414.508 384.878 407.673 368.329 396.398 355.527C385.099 342.698 369.112 333.38 350.545 333.569L350.596 338.568ZM295.139 460.875H407.658V455.875H295.139V460.875ZM409.6 399.664C409.688 413.722 409.614 427.017 409.006 437.438C408.702 442.652 408.267 447.083 407.666 450.501C407.366 452.209 407.032 453.616 406.672 454.716C406.302 455.848 405.951 456.502 405.695 456.826L409.62 459.924C410.402 458.933 410.975 457.643 411.424 456.272C411.883 454.869 412.266 453.213 412.591 451.366C413.24 447.673 413.689 443.023 413.998 437.729C414.616 427.132 414.688 413.694 414.6 399.633L409.6 399.664ZM284.592 486.449C285.074 483.996 285.075 483.996 285.076 483.996C285.076 483.997 285.077 483.997 285.078 483.997C285.078 483.997 285.079 483.997 285.079 483.997C285.08 483.997 285.08 483.997 285.079 483.997C285.077 483.997 285.071 483.995 285.062 483.993C285.043 483.99 285.011 483.983 284.966 483.973C284.875 483.952 284.734 483.919 284.548 483.872C284.178 483.777 283.636 483.625 282.982 483.405C281.666 482.962 279.95 482.258 278.286 481.217C274.966 479.139 272.154 475.956 272.535 470.876L267.549 470.502C266.977 478.134 271.44 482.831 275.633 485.455C277.726 486.765 279.826 487.618 281.387 488.144C282.172 488.408 282.834 488.594 283.307 488.715C283.544 488.776 283.735 488.821 283.871 488.851C283.939 488.866 283.994 488.878 284.034 488.887C284.054 488.891 284.07 488.894 284.083 488.897C284.089 488.898 284.095 488.899 284.099 488.9C284.101 488.901 284.103 488.901 284.105 488.901C284.106 488.901 284.107 488.902 284.108 488.902C284.109 488.902 284.11 488.902 284.592 486.449ZM295.28 433.131L284.965 431.573L284.219 436.517L294.534 438.075L295.28 433.131ZM284.965 431.573L277.46 430.439L276.713 435.383L284.219 436.517L284.965 431.573ZM297.66 410.774L287.345 409.216L286.598 414.16L296.913 415.718L297.66 410.774ZM287.345 409.216L279.839 408.082L279.092 413.026L286.598 414.16L287.345 409.216ZM297.286 392.155H278.144V397.155H297.286V392.155ZM300.496 376.399L284.027 371.955L282.724 376.783L299.193 381.226L300.496 376.399ZM328.224 398.742L318.536 399.901L319.13 404.866L328.818 403.707L328.224 398.742ZM319.435 416.176L306.84 419.074L307.962 423.947L320.556 421.049L319.435 416.176ZM312.301 363.393L304.551 353.153L300.564 356.171L308.314 366.411L312.301 363.393ZM326.473 346.985L312.329 340.416L310.223 344.951L324.367 351.52L326.473 346.985ZM350.396 344.422C350.396 343.031 350.396 332.895 350.396 328L345.396 328C345.396 332.895 345.396 343.031 345.396 344.422L350.396 344.422ZM373.913 348.832L384.182 335.308L380.2 332.284L369.931 345.809L373.913 348.832ZM387.313 364.557L402.426 355.863L399.932 351.529L384.819 360.223L387.313 364.557ZM403.31 414.188C404.192 414.188 416.285 413.421 422.071 413.049L421.751 408.059C418.813 408.248 414.359 408.531 410.543 408.767C408.635 408.885 406.888 408.991 405.572 409.068C404.914 409.106 404.366 409.137 403.961 409.158C403.759 409.168 403.596 409.176 403.476 409.181C403.337 409.187 403.297 409.188 403.31 409.188V414.188ZM400.627 436.483L417.802 440.371L418.906 435.495L401.731 431.607L400.627 436.483ZM398.715 394.425L419.378 385.151L417.331 380.589L396.668 389.863L398.715 394.425ZM366.889 386.395L377.352 376.156L373.855 372.582L363.392 382.822L366.889 386.395ZM368.241 408.941H379.285V403.941H368.241V408.941ZM370.566 430.193H386.841V425.193H370.566V430.193ZM375.603 446.422H388.197V441.422H375.603V446.422ZM339.267 435.675L331.13 439.539L333.274 444.056L341.412 440.191L339.267 435.675ZM310.117 441.708L302.367 445.765L304.685 450.195L312.436 446.137L310.117 441.708ZM327.09 383.907L319.34 376.952L316 380.673L323.751 387.629L327.09 383.907ZM340.99 359.316L334.014 351.974L330.389 355.418L337.365 362.76L340.99 359.316ZM355.692 366.783L365.625 358.089L362.331 354.327L352.399 363.021L355.692 366.783ZM387.929 384.155L394.323 381.063L392.147 376.562L385.753 379.653L387.929 384.155ZM342.722 410.918L336.91 413.193L338.732 417.849L344.545 415.574L342.722 410.918ZM346.823 387.009L339.848 377.349L335.794 380.276L342.769 389.936L346.823 387.009Z" fill="black"/>
</svg>
